M48
; DRILL file {KiCad (5.1.0-0)} date Tuesday, 28 May 2019 at 23:35:41
; FORMAT={-:-/ absolute / metric / decimal}
; #@! TF.CreationDate,2019-05-28T23:35:41+03:00
; #@! TF.GenerationSoftware,Kicad,Pcbnew,(5.1.0-0)
; #@! TF.FileFunction,Plated,1,2,PTH
FMAT,2
METRIC
T1C0.400
T2C0.600
T3C0.762
T4C0.800
T5C1.000
T6C1.100
T7C1.520
T8C3.200
%
G90
G05
T1
X62.865Y-71.755
X62.865Y-86.995
X66.675Y-66.04
X71.12Y-83.82
X72.39Y-83.82
X78.105Y-54.61
T2
X81.28Y-76.2
X82.55Y-76.2
X83.82Y-76.2
X81.28Y-91.44
X82.55Y-91.44
X83.82Y-91.44
X124.46Y-76.2
X124.46Y-45.72
X125.73Y-45.72
X127.0Y-45.72
X124.46Y-60.96
X125.73Y-60.96
X127.0Y-60.96
X81.28Y-45.72
X82.55Y-45.72
X83.82Y-45.72
X81.28Y-60.96
X125.73Y-76.2
X127.0Y-76.2
X83.82Y-60.96
X124.46Y-91.44
X125.73Y-91.44
X127.0Y-91.44
X82.55Y-60.96
T3
X87.63Y-91.44
X87.63Y-99.06
X95.25Y-91.44
X95.25Y-99.06
X100.33Y-91.44
X100.33Y-99.06
X105.41Y-91.44
X105.41Y-99.06
X130.81Y-60.96
X130.81Y-68.58
X138.43Y-60.96
X138.43Y-68.58
X143.51Y-60.96
X143.51Y-68.58
X148.59Y-60.96
X148.59Y-68.58
X130.81Y-91.44
X130.81Y-99.06
X138.43Y-91.44
X138.43Y-99.06
X143.51Y-91.44
X143.51Y-99.06
X148.59Y-91.44
X148.59Y-99.06
X130.81Y-45.72
X130.81Y-53.34
X138.43Y-45.72
X138.43Y-53.34
X143.51Y-45.72
X143.51Y-53.34
X148.59Y-45.72
X148.59Y-53.34
X87.63Y-76.2
X87.63Y-83.82
X95.25Y-76.2
X95.25Y-83.82
X100.33Y-76.2
X105.41Y-76.2
X105.41Y-83.82
X130.81Y-76.2
X130.81Y-83.82
X138.43Y-76.2
X138.43Y-83.82
X143.51Y-76.2
X143.51Y-83.82
X148.59Y-76.2
X148.59Y-83.82
X87.63Y-45.72
X87.63Y-53.34
X95.25Y-45.72
X95.25Y-53.34
X100.33Y-45.72
X100.33Y-53.34
X105.41Y-45.72
X105.41Y-53.34
X100.33Y-83.82
X87.63Y-60.96
X87.63Y-68.58
X95.25Y-60.96
X95.25Y-68.58
X100.33Y-60.96
X100.33Y-68.58
X105.41Y-60.96
X105.41Y-68.58
T4
X60.96Y-67.31
X60.96Y-69.85
X60.96Y-72.39
X60.96Y-74.93
X60.96Y-77.47
X60.96Y-80.01
X60.96Y-82.55
X60.96Y-85.09
X68.58Y-67.31
X68.58Y-69.85
X68.58Y-72.39
X68.58Y-74.93
X68.58Y-77.47
X68.58Y-80.01
X68.58Y-82.55
X68.58Y-85.09
T5
X67.31Y-99.06
X69.85Y-99.06
X72.39Y-99.06
X53.34Y-45.72
X53.34Y-99.06
X55.88Y-99.06
X55.88Y-45.72
X67.31Y-45.72
X69.85Y-45.72
X72.39Y-45.72
T6
X110.49Y-44.45
X110.49Y-74.93
X118.11Y-74.93
X110.49Y-90.17
X118.11Y-90.17
X153.67Y-59.69
X161.29Y-59.69
X118.11Y-44.45
X153.67Y-44.45
X161.29Y-44.45
X110.49Y-59.69
X118.11Y-59.69
X153.67Y-74.93
X161.29Y-74.93
X153.67Y-90.17
X161.29Y-90.17
T7
X154.94Y-66.04
X160.02Y-66.04
X154.94Y-96.52
X160.02Y-96.52
X154.94Y-50.8
X160.02Y-50.8
X111.76Y-66.04
X116.84Y-66.04
X167.64Y-46.99
X172.72Y-46.99
X167.64Y-96.52
X172.72Y-96.52
X111.76Y-96.52
X116.84Y-96.52
X111.76Y-50.8
X116.84Y-50.8
X111.76Y-81.28
X116.84Y-81.28
X154.94Y-81.28
X160.02Y-81.28
T8
X46.99Y-102.87
X46.99Y-41.91
X179.07Y-102.87
X179.07Y-41.91
T0
M30
