G04 #@! TF.GenerationSoftware,KiCad,Pcbnew,(5.1.0-0)*
G04 #@! TF.CreationDate,2019-05-28T23:35:20+03:00*
G04 #@! TF.ProjectId,relelauta,72656c65-6c61-4757-9461-2e6b69636164,rev?*
G04 #@! TF.SameCoordinates,Original*
G04 #@! TF.FileFunction,Legend,Top*
G04 #@! TF.FilePolarity,Positive*
%FSLAX46Y46*%
G04 Gerber Fmt 4.6, Leading zero omitted, Abs format (unit mm)*
G04 Created by KiCad (PCBNEW (5.1.0-0)) date 2019-05-28 23:35:20*
%MOMM*%
%LPD*%
G04 APERTURE LIST*
%ADD10C,0.200000*%
%ADD11C,0.150000*%
%ADD12C,0.050000*%
%ADD13C,0.010000*%
%ADD14C,0.120000*%
G04 APERTURE END LIST*
D10*
X164875333Y-66628095D02*
X164442000Y-66009047D01*
X164132476Y-66628095D02*
X164132476Y-65328095D01*
X164627714Y-65328095D01*
X164751523Y-65390000D01*
X164813428Y-65451904D01*
X164875333Y-65575714D01*
X164875333Y-65761428D01*
X164813428Y-65885238D01*
X164751523Y-65947142D01*
X164627714Y-66009047D01*
X164132476Y-66009047D01*
X165927714Y-66566190D02*
X165803904Y-66628095D01*
X165556285Y-66628095D01*
X165432476Y-66566190D01*
X165370571Y-66442380D01*
X165370571Y-65947142D01*
X165432476Y-65823333D01*
X165556285Y-65761428D01*
X165803904Y-65761428D01*
X165927714Y-65823333D01*
X165989619Y-65947142D01*
X165989619Y-66070952D01*
X165370571Y-66194761D01*
X166732476Y-66628095D02*
X166608666Y-66566190D01*
X166546761Y-66442380D01*
X166546761Y-65328095D01*
X167722952Y-66566190D02*
X167599142Y-66628095D01*
X167351523Y-66628095D01*
X167227714Y-66566190D01*
X167165809Y-66442380D01*
X167165809Y-65947142D01*
X167227714Y-65823333D01*
X167351523Y-65761428D01*
X167599142Y-65761428D01*
X167722952Y-65823333D01*
X167784857Y-65947142D01*
X167784857Y-66070952D01*
X167165809Y-66194761D01*
X168527714Y-66628095D02*
X168403904Y-66566190D01*
X168342000Y-66442380D01*
X168342000Y-65328095D01*
X169580095Y-66628095D02*
X169580095Y-65947142D01*
X169518190Y-65823333D01*
X169394380Y-65761428D01*
X169146761Y-65761428D01*
X169022952Y-65823333D01*
X169580095Y-66566190D02*
X169456285Y-66628095D01*
X169146761Y-66628095D01*
X169022952Y-66566190D01*
X168961047Y-66442380D01*
X168961047Y-66318571D01*
X169022952Y-66194761D01*
X169146761Y-66132857D01*
X169456285Y-66132857D01*
X169580095Y-66070952D01*
X170756285Y-65761428D02*
X170756285Y-66628095D01*
X170199142Y-65761428D02*
X170199142Y-66442380D01*
X170261047Y-66566190D01*
X170384857Y-66628095D01*
X170570571Y-66628095D01*
X170694380Y-66566190D01*
X170756285Y-66504285D01*
X171189619Y-65761428D02*
X171684857Y-65761428D01*
X171375333Y-65328095D02*
X171375333Y-66442380D01*
X171437238Y-66566190D01*
X171561047Y-66628095D01*
X171684857Y-66628095D01*
X172675333Y-66628095D02*
X172675333Y-65947142D01*
X172613428Y-65823333D01*
X172489619Y-65761428D01*
X172242000Y-65761428D01*
X172118190Y-65823333D01*
X172675333Y-66566190D02*
X172551523Y-66628095D01*
X172242000Y-66628095D01*
X172118190Y-66566190D01*
X172056285Y-66442380D01*
X172056285Y-66318571D01*
X172118190Y-66194761D01*
X172242000Y-66132857D01*
X172551523Y-66132857D01*
X172675333Y-66070952D01*
X174161047Y-65761428D02*
X174470571Y-66628095D01*
X174780095Y-65761428D01*
X175956285Y-66628095D02*
X175213428Y-66628095D01*
X175584857Y-66628095D02*
X175584857Y-65328095D01*
X175461047Y-65513809D01*
X175337238Y-65637619D01*
X175213428Y-65699523D01*
X176513428Y-66504285D02*
X176575333Y-66566190D01*
X176513428Y-66628095D01*
X176451523Y-66566190D01*
X176513428Y-66504285D01*
X176513428Y-66628095D01*
X177380095Y-65328095D02*
X177503904Y-65328095D01*
X177627714Y-65390000D01*
X177689619Y-65451904D01*
X177751523Y-65575714D01*
X177813428Y-65823333D01*
X177813428Y-66132857D01*
X177751523Y-66380476D01*
X177689619Y-66504285D01*
X177627714Y-66566190D01*
X177503904Y-66628095D01*
X177380095Y-66628095D01*
X177256285Y-66566190D01*
X177194380Y-66504285D01*
X177132476Y-66380476D01*
X177070571Y-66132857D01*
X177070571Y-65823333D01*
X177132476Y-65575714D01*
X177194380Y-65451904D01*
X177256285Y-65390000D01*
X177380095Y-65328095D01*
D11*
X163934238Y-76922380D02*
X164267571Y-77922380D01*
X164600904Y-76922380D01*
X165315190Y-77874761D02*
X165219952Y-77922380D01*
X165029476Y-77922380D01*
X164934238Y-77874761D01*
X164886619Y-77779523D01*
X164886619Y-77398571D01*
X164934238Y-77303333D01*
X165029476Y-77255714D01*
X165219952Y-77255714D01*
X165315190Y-77303333D01*
X165362809Y-77398571D01*
X165362809Y-77493809D01*
X164886619Y-77589047D01*
X165791380Y-77922380D02*
X165791380Y-77255714D01*
X165791380Y-77446190D02*
X165839000Y-77350952D01*
X165886619Y-77303333D01*
X165981857Y-77255714D01*
X166077095Y-77255714D01*
X166410428Y-77255714D02*
X166410428Y-77922380D01*
X166410428Y-77350952D02*
X166458047Y-77303333D01*
X166553285Y-77255714D01*
X166696142Y-77255714D01*
X166791380Y-77303333D01*
X166839000Y-77398571D01*
X166839000Y-77922380D01*
X167696142Y-77874761D02*
X167600904Y-77922380D01*
X167410428Y-77922380D01*
X167315190Y-77874761D01*
X167267571Y-77779523D01*
X167267571Y-77398571D01*
X167315190Y-77303333D01*
X167410428Y-77255714D01*
X167600904Y-77255714D01*
X167696142Y-77303333D01*
X167743761Y-77398571D01*
X167743761Y-77493809D01*
X167267571Y-77589047D01*
X168172333Y-77922380D02*
X168172333Y-77255714D01*
X168172333Y-77446190D02*
X168219952Y-77350952D01*
X168267571Y-77303333D01*
X168362809Y-77255714D01*
X168458047Y-77255714D01*
X168791380Y-77922380D02*
X168791380Y-77255714D01*
X168791380Y-76922380D02*
X168743761Y-76970000D01*
X168791380Y-77017619D01*
X168839000Y-76970000D01*
X168791380Y-76922380D01*
X168791380Y-77017619D01*
X170029476Y-77922380D02*
X170029476Y-76922380D01*
X170029476Y-77398571D02*
X170600904Y-77398571D01*
X170600904Y-77922380D02*
X170600904Y-76922380D01*
X171077095Y-77922380D02*
X171077095Y-77255714D01*
X171077095Y-76922380D02*
X171029476Y-76970000D01*
X171077095Y-77017619D01*
X171124714Y-76970000D01*
X171077095Y-76922380D01*
X171077095Y-77017619D01*
X171553285Y-77922380D02*
X171553285Y-77255714D01*
X171553285Y-77446190D02*
X171600904Y-77350952D01*
X171648523Y-77303333D01*
X171743761Y-77255714D01*
X171839000Y-77255714D01*
X172077095Y-77255714D02*
X172315190Y-77922380D01*
X172553285Y-77255714D01*
X173077095Y-77922380D02*
X172981857Y-77874761D01*
X172934238Y-77827142D01*
X172886619Y-77731904D01*
X172886619Y-77446190D01*
X172934238Y-77350952D01*
X172981857Y-77303333D01*
X173077095Y-77255714D01*
X173219952Y-77255714D01*
X173315190Y-77303333D01*
X173362809Y-77350952D01*
X173410428Y-77446190D01*
X173410428Y-77731904D01*
X173362809Y-77827142D01*
X173315190Y-77874761D01*
X173219952Y-77922380D01*
X173077095Y-77922380D01*
X173839000Y-77255714D02*
X173839000Y-77922380D01*
X173839000Y-77350952D02*
X173886619Y-77303333D01*
X173981857Y-77255714D01*
X174124714Y-77255714D01*
X174219952Y-77303333D01*
X174267571Y-77398571D01*
X174267571Y-77922380D01*
X175124714Y-77874761D02*
X175029476Y-77922380D01*
X174839000Y-77922380D01*
X174743761Y-77874761D01*
X174696142Y-77779523D01*
X174696142Y-77398571D01*
X174743761Y-77303333D01*
X174839000Y-77255714D01*
X175029476Y-77255714D01*
X175124714Y-77303333D01*
X175172333Y-77398571D01*
X175172333Y-77493809D01*
X174696142Y-77589047D01*
X175600904Y-77255714D02*
X175600904Y-77922380D01*
X175600904Y-77350952D02*
X175648523Y-77303333D01*
X175743761Y-77255714D01*
X175886619Y-77255714D01*
X175981857Y-77303333D01*
X176029476Y-77398571D01*
X176029476Y-77922380D01*
X177219952Y-77017619D02*
X177267571Y-76970000D01*
X177362809Y-76922380D01*
X177600904Y-76922380D01*
X177696142Y-76970000D01*
X177743761Y-77017619D01*
X177791380Y-77112857D01*
X177791380Y-77208095D01*
X177743761Y-77350952D01*
X177172333Y-77922380D01*
X177791380Y-77922380D01*
X178410428Y-76922380D02*
X178505666Y-76922380D01*
X178600904Y-76970000D01*
X178648523Y-77017619D01*
X178696142Y-77112857D01*
X178743761Y-77303333D01*
X178743761Y-77541428D01*
X178696142Y-77731904D01*
X178648523Y-77827142D01*
X178600904Y-77874761D01*
X178505666Y-77922380D01*
X178410428Y-77922380D01*
X178315190Y-77874761D01*
X178267571Y-77827142D01*
X178219952Y-77731904D01*
X178172333Y-77541428D01*
X178172333Y-77303333D01*
X178219952Y-77112857D01*
X178267571Y-77017619D01*
X178315190Y-76970000D01*
X178410428Y-76922380D01*
X179696142Y-77922380D02*
X179124714Y-77922380D01*
X179410428Y-77922380D02*
X179410428Y-76922380D01*
X179315190Y-77065238D01*
X179219952Y-77160476D01*
X179124714Y-77208095D01*
X180172333Y-77922380D02*
X180362809Y-77922380D01*
X180458047Y-77874761D01*
X180505666Y-77827142D01*
X180600904Y-77684285D01*
X180648523Y-77493809D01*
X180648523Y-77112857D01*
X180600904Y-77017619D01*
X180553285Y-76970000D01*
X180458047Y-76922380D01*
X180267571Y-76922380D01*
X180172333Y-76970000D01*
X180124714Y-77017619D01*
X180077095Y-77112857D01*
X180077095Y-77350952D01*
X180124714Y-77446190D01*
X180172333Y-77493809D01*
X180267571Y-77541428D01*
X180458047Y-77541428D01*
X180553285Y-77493809D01*
X180600904Y-77446190D01*
X180648523Y-77350952D01*
D10*
X164143000Y-64596095D02*
X164143000Y-63296095D01*
X164576333Y-64224666D01*
X165009666Y-63296095D01*
X165009666Y-64596095D01*
X166185857Y-64596095D02*
X166185857Y-63915142D01*
X166123952Y-63791333D01*
X166000142Y-63729428D01*
X165752523Y-63729428D01*
X165628714Y-63791333D01*
X166185857Y-64534190D02*
X166062047Y-64596095D01*
X165752523Y-64596095D01*
X165628714Y-64534190D01*
X165566809Y-64410380D01*
X165566809Y-64286571D01*
X165628714Y-64162761D01*
X165752523Y-64100857D01*
X166062047Y-64100857D01*
X166185857Y-64038952D01*
X167362047Y-63729428D02*
X167362047Y-64781809D01*
X167300142Y-64905619D01*
X167238238Y-64967523D01*
X167114428Y-65029428D01*
X166928714Y-65029428D01*
X166804904Y-64967523D01*
X167362047Y-64534190D02*
X167238238Y-64596095D01*
X166990619Y-64596095D01*
X166866809Y-64534190D01*
X166804904Y-64472285D01*
X166743000Y-64348476D01*
X166743000Y-63977047D01*
X166804904Y-63853238D01*
X166866809Y-63791333D01*
X166990619Y-63729428D01*
X167238238Y-63729428D01*
X167362047Y-63791333D01*
X167981095Y-63729428D02*
X167981095Y-64596095D01*
X167981095Y-63853238D02*
X168043000Y-63791333D01*
X168166809Y-63729428D01*
X168352523Y-63729428D01*
X168476333Y-63791333D01*
X168538238Y-63915142D01*
X168538238Y-64596095D01*
X169652523Y-64534190D02*
X169528714Y-64596095D01*
X169281095Y-64596095D01*
X169157285Y-64534190D01*
X169095380Y-64410380D01*
X169095380Y-63915142D01*
X169157285Y-63791333D01*
X169281095Y-63729428D01*
X169528714Y-63729428D01*
X169652523Y-63791333D01*
X169714428Y-63915142D01*
X169714428Y-64038952D01*
X169095380Y-64162761D01*
X170766809Y-64534190D02*
X170643000Y-64596095D01*
X170395380Y-64596095D01*
X170271571Y-64534190D01*
X170209666Y-64410380D01*
X170209666Y-63915142D01*
X170271571Y-63791333D01*
X170395380Y-63729428D01*
X170643000Y-63729428D01*
X170766809Y-63791333D01*
X170828714Y-63915142D01*
X170828714Y-64038952D01*
X170209666Y-64162761D01*
X171200142Y-63729428D02*
X171695380Y-63729428D01*
X171385857Y-63296095D02*
X171385857Y-64410380D01*
X171447761Y-64534190D01*
X171571571Y-64596095D01*
X171695380Y-64596095D01*
X171943000Y-63729428D02*
X172438238Y-63729428D01*
X172128714Y-63296095D02*
X172128714Y-64410380D01*
X172190619Y-64534190D01*
X172314428Y-64596095D01*
X172438238Y-64596095D01*
X172871571Y-64596095D02*
X172871571Y-63729428D01*
X172871571Y-63296095D02*
X172809666Y-63358000D01*
X172871571Y-63419904D01*
X172933476Y-63358000D01*
X172871571Y-63296095D01*
X172871571Y-63419904D01*
X173490619Y-64596095D02*
X173490619Y-63296095D01*
X173614428Y-64100857D02*
X173985857Y-64596095D01*
X173985857Y-63729428D02*
X173490619Y-64224666D01*
X174543000Y-64596095D02*
X174543000Y-63729428D01*
X174543000Y-63296095D02*
X174481095Y-63358000D01*
X174543000Y-63419904D01*
X174604904Y-63358000D01*
X174543000Y-63296095D01*
X174543000Y-63419904D01*
X175162047Y-64596095D02*
X175162047Y-63729428D01*
X175162047Y-63296095D02*
X175100142Y-63358000D01*
X175162047Y-63419904D01*
X175223952Y-63358000D01*
X175162047Y-63296095D01*
X175162047Y-63419904D01*
X175781095Y-64596095D02*
X175781095Y-63296095D01*
X176338238Y-64596095D02*
X176338238Y-63915142D01*
X176276333Y-63791333D01*
X176152523Y-63729428D01*
X175966809Y-63729428D01*
X175843000Y-63791333D01*
X175781095Y-63853238D01*
X177514428Y-64596095D02*
X177514428Y-63296095D01*
X177514428Y-64534190D02*
X177390619Y-64596095D01*
X177143000Y-64596095D01*
X177019190Y-64534190D01*
X176957285Y-64472285D01*
X176895380Y-64348476D01*
X176895380Y-63977047D01*
X176957285Y-63853238D01*
X177019190Y-63791333D01*
X177143000Y-63729428D01*
X177390619Y-63729428D01*
X177514428Y-63791333D01*
X178009666Y-63729428D02*
X178319190Y-64596095D01*
X178628714Y-63729428D02*
X178319190Y-64596095D01*
X178195380Y-64905619D01*
X178133476Y-64967523D01*
X178009666Y-65029428D01*
X178938238Y-63729428D02*
X179433476Y-63729428D01*
X179123952Y-63296095D02*
X179123952Y-64410380D01*
X179185857Y-64534190D01*
X179309666Y-64596095D01*
X179433476Y-64596095D01*
X179866809Y-64596095D02*
X179866809Y-63729428D01*
X179866809Y-63296095D02*
X179804904Y-63358000D01*
X179866809Y-63419904D01*
X179928714Y-63358000D01*
X179866809Y-63296095D01*
X179866809Y-63419904D01*
X180485857Y-63729428D02*
X180485857Y-64596095D01*
X180485857Y-63853238D02*
X180547761Y-63791333D01*
X180671571Y-63729428D01*
X180857285Y-63729428D01*
X180981095Y-63791333D01*
X181043000Y-63915142D01*
X181043000Y-64596095D01*
D11*
X67762380Y-96226190D02*
X66762380Y-96226190D01*
X67714761Y-96226190D02*
X67762380Y-96321428D01*
X67762380Y-96511904D01*
X67714761Y-96607142D01*
X67667142Y-96654761D01*
X67571904Y-96702380D01*
X67286190Y-96702380D01*
X67190952Y-96654761D01*
X67143333Y-96607142D01*
X67095714Y-96511904D01*
X67095714Y-96321428D01*
X67143333Y-96226190D01*
X67762380Y-95321428D02*
X67238571Y-95321428D01*
X67143333Y-95369047D01*
X67095714Y-95464285D01*
X67095714Y-95654761D01*
X67143333Y-95750000D01*
X67714761Y-95321428D02*
X67762380Y-95416666D01*
X67762380Y-95654761D01*
X67714761Y-95750000D01*
X67619523Y-95797619D01*
X67524285Y-95797619D01*
X67429047Y-95750000D01*
X67381428Y-95654761D01*
X67381428Y-95416666D01*
X67333809Y-95321428D01*
X67095714Y-94988095D02*
X67095714Y-94607142D01*
X66762380Y-94845238D02*
X67619523Y-94845238D01*
X67714761Y-94797619D01*
X67762380Y-94702380D01*
X67762380Y-94607142D01*
X67762380Y-93845238D02*
X67238571Y-93845238D01*
X67143333Y-93892857D01*
X67095714Y-93988095D01*
X67095714Y-94178571D01*
X67143333Y-94273809D01*
X67714761Y-93845238D02*
X67762380Y-93940476D01*
X67762380Y-94178571D01*
X67714761Y-94273809D01*
X67619523Y-94321428D01*
X67524285Y-94321428D01*
X67429047Y-94273809D01*
X67381428Y-94178571D01*
X67381428Y-93940476D01*
X67333809Y-93845238D01*
X70254761Y-96559523D02*
X70302380Y-96654761D01*
X70302380Y-96845238D01*
X70254761Y-96940476D01*
X70207142Y-96988095D01*
X70111904Y-97035714D01*
X69826190Y-97035714D01*
X69730952Y-96988095D01*
X69683333Y-96940476D01*
X69635714Y-96845238D01*
X69635714Y-96654761D01*
X69683333Y-96559523D01*
X70302380Y-95988095D02*
X70254761Y-96083333D01*
X70159523Y-96130952D01*
X69302380Y-96130952D01*
X70302380Y-95464285D02*
X70254761Y-95559523D01*
X70207142Y-95607142D01*
X70111904Y-95654761D01*
X69826190Y-95654761D01*
X69730952Y-95607142D01*
X69683333Y-95559523D01*
X69635714Y-95464285D01*
X69635714Y-95321428D01*
X69683333Y-95226190D01*
X69730952Y-95178571D01*
X69826190Y-95130952D01*
X70111904Y-95130952D01*
X70207142Y-95178571D01*
X70254761Y-95226190D01*
X70302380Y-95321428D01*
X70302380Y-95464285D01*
X70254761Y-94273809D02*
X70302380Y-94369047D01*
X70302380Y-94559523D01*
X70254761Y-94654761D01*
X70207142Y-94702380D01*
X70111904Y-94750000D01*
X69826190Y-94750000D01*
X69730952Y-94702380D01*
X69683333Y-94654761D01*
X69635714Y-94559523D01*
X69635714Y-94369047D01*
X69683333Y-94273809D01*
X70302380Y-93845238D02*
X69302380Y-93845238D01*
X69921428Y-93750000D02*
X70302380Y-93464285D01*
X69635714Y-93464285D02*
X70016666Y-93845238D01*
X72842380Y-96750000D02*
X72794761Y-96845238D01*
X72699523Y-96892857D01*
X71842380Y-96892857D01*
X72842380Y-95940476D02*
X72318571Y-95940476D01*
X72223333Y-95988095D01*
X72175714Y-96083333D01*
X72175714Y-96273809D01*
X72223333Y-96369047D01*
X72794761Y-95940476D02*
X72842380Y-96035714D01*
X72842380Y-96273809D01*
X72794761Y-96369047D01*
X72699523Y-96416666D01*
X72604285Y-96416666D01*
X72509047Y-96369047D01*
X72461428Y-96273809D01*
X72461428Y-96035714D01*
X72413809Y-95940476D01*
X72175714Y-95607142D02*
X72175714Y-95226190D01*
X71842380Y-95464285D02*
X72699523Y-95464285D01*
X72794761Y-95416666D01*
X72842380Y-95321428D01*
X72842380Y-95226190D01*
X72794761Y-94464285D02*
X72842380Y-94559523D01*
X72842380Y-94750000D01*
X72794761Y-94845238D01*
X72747142Y-94892857D01*
X72651904Y-94940476D01*
X72366190Y-94940476D01*
X72270952Y-94892857D01*
X72223333Y-94845238D01*
X72175714Y-94750000D01*
X72175714Y-94559523D01*
X72223333Y-94464285D01*
X72842380Y-94035714D02*
X71842380Y-94035714D01*
X72842380Y-93607142D02*
X72318571Y-93607142D01*
X72223333Y-93654761D01*
X72175714Y-93750000D01*
X72175714Y-93892857D01*
X72223333Y-93988095D01*
X72270952Y-94035714D01*
X66857619Y-48553809D02*
X67857619Y-48553809D01*
X66905238Y-48553809D02*
X66857619Y-48458571D01*
X66857619Y-48268095D01*
X66905238Y-48172857D01*
X66952857Y-48125238D01*
X67048095Y-48077619D01*
X67333809Y-48077619D01*
X67429047Y-48125238D01*
X67476666Y-48172857D01*
X67524285Y-48268095D01*
X67524285Y-48458571D01*
X67476666Y-48553809D01*
X66857619Y-49458571D02*
X67381428Y-49458571D01*
X67476666Y-49410952D01*
X67524285Y-49315714D01*
X67524285Y-49125238D01*
X67476666Y-49030000D01*
X66905238Y-49458571D02*
X66857619Y-49363333D01*
X66857619Y-49125238D01*
X66905238Y-49030000D01*
X67000476Y-48982380D01*
X67095714Y-48982380D01*
X67190952Y-49030000D01*
X67238571Y-49125238D01*
X67238571Y-49363333D01*
X67286190Y-49458571D01*
X67524285Y-49791904D02*
X67524285Y-50172857D01*
X67857619Y-49934761D02*
X67000476Y-49934761D01*
X66905238Y-49982380D01*
X66857619Y-50077619D01*
X66857619Y-50172857D01*
X66857619Y-50934761D02*
X67381428Y-50934761D01*
X67476666Y-50887142D01*
X67524285Y-50791904D01*
X67524285Y-50601428D01*
X67476666Y-50506190D01*
X66905238Y-50934761D02*
X66857619Y-50839523D01*
X66857619Y-50601428D01*
X66905238Y-50506190D01*
X67000476Y-50458571D01*
X67095714Y-50458571D01*
X67190952Y-50506190D01*
X67238571Y-50601428D01*
X67238571Y-50839523D01*
X67286190Y-50934761D01*
X69445238Y-48220476D02*
X69397619Y-48125238D01*
X69397619Y-47934761D01*
X69445238Y-47839523D01*
X69492857Y-47791904D01*
X69588095Y-47744285D01*
X69873809Y-47744285D01*
X69969047Y-47791904D01*
X70016666Y-47839523D01*
X70064285Y-47934761D01*
X70064285Y-48125238D01*
X70016666Y-48220476D01*
X69397619Y-48791904D02*
X69445238Y-48696666D01*
X69540476Y-48649047D01*
X70397619Y-48649047D01*
X69397619Y-49315714D02*
X69445238Y-49220476D01*
X69492857Y-49172857D01*
X69588095Y-49125238D01*
X69873809Y-49125238D01*
X69969047Y-49172857D01*
X70016666Y-49220476D01*
X70064285Y-49315714D01*
X70064285Y-49458571D01*
X70016666Y-49553809D01*
X69969047Y-49601428D01*
X69873809Y-49649047D01*
X69588095Y-49649047D01*
X69492857Y-49601428D01*
X69445238Y-49553809D01*
X69397619Y-49458571D01*
X69397619Y-49315714D01*
X69445238Y-50506190D02*
X69397619Y-50410952D01*
X69397619Y-50220476D01*
X69445238Y-50125238D01*
X69492857Y-50077619D01*
X69588095Y-50030000D01*
X69873809Y-50030000D01*
X69969047Y-50077619D01*
X70016666Y-50125238D01*
X70064285Y-50220476D01*
X70064285Y-50410952D01*
X70016666Y-50506190D01*
X69397619Y-50934761D02*
X70397619Y-50934761D01*
X69778571Y-51030000D02*
X69397619Y-51315714D01*
X70064285Y-51315714D02*
X69683333Y-50934761D01*
X71937619Y-48030000D02*
X71985238Y-47934761D01*
X72080476Y-47887142D01*
X72937619Y-47887142D01*
X71937619Y-48839523D02*
X72461428Y-48839523D01*
X72556666Y-48791904D01*
X72604285Y-48696666D01*
X72604285Y-48506190D01*
X72556666Y-48410952D01*
X71985238Y-48839523D02*
X71937619Y-48744285D01*
X71937619Y-48506190D01*
X71985238Y-48410952D01*
X72080476Y-48363333D01*
X72175714Y-48363333D01*
X72270952Y-48410952D01*
X72318571Y-48506190D01*
X72318571Y-48744285D01*
X72366190Y-48839523D01*
X72604285Y-49172857D02*
X72604285Y-49553809D01*
X72937619Y-49315714D02*
X72080476Y-49315714D01*
X71985238Y-49363333D01*
X71937619Y-49458571D01*
X71937619Y-49553809D01*
X71985238Y-50315714D02*
X71937619Y-50220476D01*
X71937619Y-50030000D01*
X71985238Y-49934761D01*
X72032857Y-49887142D01*
X72128095Y-49839523D01*
X72413809Y-49839523D01*
X72509047Y-49887142D01*
X72556666Y-49934761D01*
X72604285Y-50030000D01*
X72604285Y-50220476D01*
X72556666Y-50315714D01*
X71937619Y-50744285D02*
X72937619Y-50744285D01*
X71937619Y-51172857D02*
X72461428Y-51172857D01*
X72556666Y-51125238D01*
X72604285Y-51030000D01*
X72604285Y-50887142D01*
X72556666Y-50791904D01*
X72509047Y-50744285D01*
X53840000Y-48133095D02*
X53887619Y-48037857D01*
X53887619Y-47895000D01*
X53840000Y-47752142D01*
X53744761Y-47656904D01*
X53649523Y-47609285D01*
X53459047Y-47561666D01*
X53316190Y-47561666D01*
X53125714Y-47609285D01*
X53030476Y-47656904D01*
X52935238Y-47752142D01*
X52887619Y-47895000D01*
X52887619Y-47990238D01*
X52935238Y-48133095D01*
X52982857Y-48180714D01*
X53316190Y-48180714D01*
X53316190Y-47990238D01*
X52887619Y-48609285D02*
X53887619Y-48609285D01*
X52887619Y-49180714D01*
X53887619Y-49180714D01*
X52887619Y-49656904D02*
X53887619Y-49656904D01*
X53887619Y-49895000D01*
X53840000Y-50037857D01*
X53744761Y-50133095D01*
X53649523Y-50180714D01*
X53459047Y-50228333D01*
X53316190Y-50228333D01*
X53125714Y-50180714D01*
X53030476Y-50133095D01*
X52935238Y-50037857D01*
X52887619Y-49895000D01*
X52887619Y-49656904D01*
X56427619Y-48069523D02*
X56427619Y-47593333D01*
X55951428Y-47545714D01*
X55999047Y-47593333D01*
X56046666Y-47688571D01*
X56046666Y-47926666D01*
X55999047Y-48021904D01*
X55951428Y-48069523D01*
X55856190Y-48117142D01*
X55618095Y-48117142D01*
X55522857Y-48069523D01*
X55475238Y-48021904D01*
X55427619Y-47926666D01*
X55427619Y-47688571D01*
X55475238Y-47593333D01*
X55522857Y-47545714D01*
X56427619Y-48402857D02*
X55427619Y-48736190D01*
X56427619Y-49069523D01*
X52840000Y-96646904D02*
X52792380Y-96742142D01*
X52792380Y-96885000D01*
X52840000Y-97027857D01*
X52935238Y-97123095D01*
X53030476Y-97170714D01*
X53220952Y-97218333D01*
X53363809Y-97218333D01*
X53554285Y-97170714D01*
X53649523Y-97123095D01*
X53744761Y-97027857D01*
X53792380Y-96885000D01*
X53792380Y-96789761D01*
X53744761Y-96646904D01*
X53697142Y-96599285D01*
X53363809Y-96599285D01*
X53363809Y-96789761D01*
X53792380Y-96170714D02*
X52792380Y-96170714D01*
X53792380Y-95599285D01*
X52792380Y-95599285D01*
X53792380Y-95123095D02*
X52792380Y-95123095D01*
X52792380Y-94885000D01*
X52840000Y-94742142D01*
X52935238Y-94646904D01*
X53030476Y-94599285D01*
X53220952Y-94551666D01*
X53363809Y-94551666D01*
X53554285Y-94599285D01*
X53649523Y-94646904D01*
X53744761Y-94742142D01*
X53792380Y-94885000D01*
X53792380Y-95123095D01*
X55332380Y-96710476D02*
X55332380Y-97186666D01*
X55808571Y-97234285D01*
X55760952Y-97186666D01*
X55713333Y-97091428D01*
X55713333Y-96853333D01*
X55760952Y-96758095D01*
X55808571Y-96710476D01*
X55903809Y-96662857D01*
X56141904Y-96662857D01*
X56237142Y-96710476D01*
X56284761Y-96758095D01*
X56332380Y-96853333D01*
X56332380Y-97091428D01*
X56284761Y-97186666D01*
X56237142Y-97234285D01*
X55332380Y-96377142D02*
X56332380Y-96043809D01*
X55332380Y-95710476D01*
X50419523Y-103322380D02*
X49943333Y-103322380D01*
X49943333Y-102322380D01*
X50895714Y-103322380D02*
X50800476Y-103274761D01*
X50752857Y-103227142D01*
X50705238Y-103131904D01*
X50705238Y-102846190D01*
X50752857Y-102750952D01*
X50800476Y-102703333D01*
X50895714Y-102655714D01*
X51038571Y-102655714D01*
X51133809Y-102703333D01*
X51181428Y-102750952D01*
X51229047Y-102846190D01*
X51229047Y-103131904D01*
X51181428Y-103227142D01*
X51133809Y-103274761D01*
X51038571Y-103322380D01*
X50895714Y-103322380D01*
X52086190Y-102655714D02*
X52086190Y-103465238D01*
X52038571Y-103560476D01*
X51990952Y-103608095D01*
X51895714Y-103655714D01*
X51752857Y-103655714D01*
X51657619Y-103608095D01*
X52086190Y-103274761D02*
X51990952Y-103322380D01*
X51800476Y-103322380D01*
X51705238Y-103274761D01*
X51657619Y-103227142D01*
X51610000Y-103131904D01*
X51610000Y-102846190D01*
X51657619Y-102750952D01*
X51705238Y-102703333D01*
X51800476Y-102655714D01*
X51990952Y-102655714D01*
X52086190Y-102703333D01*
X52562380Y-103322380D02*
X52562380Y-102655714D01*
X52562380Y-102322380D02*
X52514761Y-102370000D01*
X52562380Y-102417619D01*
X52610000Y-102370000D01*
X52562380Y-102322380D01*
X52562380Y-102417619D01*
X53467142Y-103274761D02*
X53371904Y-103322380D01*
X53181428Y-103322380D01*
X53086190Y-103274761D01*
X53038571Y-103227142D01*
X52990952Y-103131904D01*
X52990952Y-102846190D01*
X53038571Y-102750952D01*
X53086190Y-102703333D01*
X53181428Y-102655714D01*
X53371904Y-102655714D01*
X53467142Y-102703333D01*
X55133809Y-102322380D02*
X54657619Y-102322380D01*
X54610000Y-102798571D01*
X54657619Y-102750952D01*
X54752857Y-102703333D01*
X54990952Y-102703333D01*
X55086190Y-102750952D01*
X55133809Y-102798571D01*
X55181428Y-102893809D01*
X55181428Y-103131904D01*
X55133809Y-103227142D01*
X55086190Y-103274761D01*
X54990952Y-103322380D01*
X54752857Y-103322380D01*
X54657619Y-103274761D01*
X54610000Y-103227142D01*
X55467142Y-102322380D02*
X55800476Y-103322380D01*
X56133809Y-102322380D01*
X57419523Y-102322380D02*
X57610000Y-102322380D01*
X57705238Y-102370000D01*
X57800476Y-102465238D01*
X57848095Y-102655714D01*
X57848095Y-102989047D01*
X57800476Y-103179523D01*
X57705238Y-103274761D01*
X57610000Y-103322380D01*
X57419523Y-103322380D01*
X57324285Y-103274761D01*
X57229047Y-103179523D01*
X57181428Y-102989047D01*
X57181428Y-102655714D01*
X57229047Y-102465238D01*
X57324285Y-102370000D01*
X57419523Y-102322380D01*
X58705238Y-102655714D02*
X58705238Y-103322380D01*
X58276666Y-102655714D02*
X58276666Y-103179523D01*
X58324285Y-103274761D01*
X58419523Y-103322380D01*
X58562380Y-103322380D01*
X58657619Y-103274761D01*
X58705238Y-103227142D01*
X59038571Y-102655714D02*
X59419523Y-102655714D01*
X59181428Y-102322380D02*
X59181428Y-103179523D01*
X59229047Y-103274761D01*
X59324285Y-103322380D01*
X59419523Y-103322380D01*
X50990952Y-42362380D02*
X50514761Y-42362380D01*
X50514761Y-41362380D01*
X51467142Y-42362380D02*
X51371904Y-42314761D01*
X51324285Y-42267142D01*
X51276666Y-42171904D01*
X51276666Y-41886190D01*
X51324285Y-41790952D01*
X51371904Y-41743333D01*
X51467142Y-41695714D01*
X51610000Y-41695714D01*
X51705238Y-41743333D01*
X51752857Y-41790952D01*
X51800476Y-41886190D01*
X51800476Y-42171904D01*
X51752857Y-42267142D01*
X51705238Y-42314761D01*
X51610000Y-42362380D01*
X51467142Y-42362380D01*
X52657619Y-41695714D02*
X52657619Y-42505238D01*
X52610000Y-42600476D01*
X52562380Y-42648095D01*
X52467142Y-42695714D01*
X52324285Y-42695714D01*
X52229047Y-42648095D01*
X52657619Y-42314761D02*
X52562380Y-42362380D01*
X52371904Y-42362380D01*
X52276666Y-42314761D01*
X52229047Y-42267142D01*
X52181428Y-42171904D01*
X52181428Y-41886190D01*
X52229047Y-41790952D01*
X52276666Y-41743333D01*
X52371904Y-41695714D01*
X52562380Y-41695714D01*
X52657619Y-41743333D01*
X53133809Y-42362380D02*
X53133809Y-41695714D01*
X53133809Y-41362380D02*
X53086190Y-41410000D01*
X53133809Y-41457619D01*
X53181428Y-41410000D01*
X53133809Y-41362380D01*
X53133809Y-41457619D01*
X54038571Y-42314761D02*
X53943333Y-42362380D01*
X53752857Y-42362380D01*
X53657619Y-42314761D01*
X53610000Y-42267142D01*
X53562380Y-42171904D01*
X53562380Y-41886190D01*
X53610000Y-41790952D01*
X53657619Y-41743333D01*
X53752857Y-41695714D01*
X53943333Y-41695714D01*
X54038571Y-41743333D01*
X55705238Y-41362380D02*
X55229047Y-41362380D01*
X55181428Y-41838571D01*
X55229047Y-41790952D01*
X55324285Y-41743333D01*
X55562380Y-41743333D01*
X55657619Y-41790952D01*
X55705238Y-41838571D01*
X55752857Y-41933809D01*
X55752857Y-42171904D01*
X55705238Y-42267142D01*
X55657619Y-42314761D01*
X55562380Y-42362380D01*
X55324285Y-42362380D01*
X55229047Y-42314761D01*
X55181428Y-42267142D01*
X56038571Y-41362380D02*
X56371904Y-42362380D01*
X56705238Y-41362380D01*
X57800476Y-42362380D02*
X57800476Y-41362380D01*
X58276666Y-41695714D02*
X58276666Y-42362380D01*
X58276666Y-41790952D02*
X58324285Y-41743333D01*
X58419523Y-41695714D01*
X58562380Y-41695714D01*
X58657619Y-41743333D01*
X58705238Y-41838571D01*
X58705238Y-42362380D01*
X64159523Y-103274761D02*
X64302380Y-103322380D01*
X64540476Y-103322380D01*
X64635714Y-103274761D01*
X64683333Y-103227142D01*
X64730952Y-103131904D01*
X64730952Y-103036666D01*
X64683333Y-102941428D01*
X64635714Y-102893809D01*
X64540476Y-102846190D01*
X64350000Y-102798571D01*
X64254761Y-102750952D01*
X64207142Y-102703333D01*
X64159523Y-102608095D01*
X64159523Y-102512857D01*
X64207142Y-102417619D01*
X64254761Y-102370000D01*
X64350000Y-102322380D01*
X64588095Y-102322380D01*
X64730952Y-102370000D01*
X65540476Y-103274761D02*
X65445238Y-103322380D01*
X65254761Y-103322380D01*
X65159523Y-103274761D01*
X65111904Y-103179523D01*
X65111904Y-102798571D01*
X65159523Y-102703333D01*
X65254761Y-102655714D01*
X65445238Y-102655714D01*
X65540476Y-102703333D01*
X65588095Y-102798571D01*
X65588095Y-102893809D01*
X65111904Y-102989047D01*
X66016666Y-103322380D02*
X66016666Y-102655714D01*
X66016666Y-102846190D02*
X66064285Y-102750952D01*
X66111904Y-102703333D01*
X66207142Y-102655714D01*
X66302380Y-102655714D01*
X66635714Y-103322380D02*
X66635714Y-102655714D01*
X66635714Y-102322380D02*
X66588095Y-102370000D01*
X66635714Y-102417619D01*
X66683333Y-102370000D01*
X66635714Y-102322380D01*
X66635714Y-102417619D01*
X67540476Y-103322380D02*
X67540476Y-102798571D01*
X67492857Y-102703333D01*
X67397619Y-102655714D01*
X67207142Y-102655714D01*
X67111904Y-102703333D01*
X67540476Y-103274761D02*
X67445238Y-103322380D01*
X67207142Y-103322380D01*
X67111904Y-103274761D01*
X67064285Y-103179523D01*
X67064285Y-103084285D01*
X67111904Y-102989047D01*
X67207142Y-102941428D01*
X67445238Y-102941428D01*
X67540476Y-102893809D01*
X68159523Y-103322380D02*
X68064285Y-103274761D01*
X68016666Y-103179523D01*
X68016666Y-102322380D01*
X69302380Y-103322380D02*
X69302380Y-102322380D01*
X69540476Y-102322380D01*
X69683333Y-102370000D01*
X69778571Y-102465238D01*
X69826190Y-102560476D01*
X69873809Y-102750952D01*
X69873809Y-102893809D01*
X69826190Y-103084285D01*
X69778571Y-103179523D01*
X69683333Y-103274761D01*
X69540476Y-103322380D01*
X69302380Y-103322380D01*
X70730952Y-103322380D02*
X70730952Y-102798571D01*
X70683333Y-102703333D01*
X70588095Y-102655714D01*
X70397619Y-102655714D01*
X70302380Y-102703333D01*
X70730952Y-103274761D02*
X70635714Y-103322380D01*
X70397619Y-103322380D01*
X70302380Y-103274761D01*
X70254761Y-103179523D01*
X70254761Y-103084285D01*
X70302380Y-102989047D01*
X70397619Y-102941428D01*
X70635714Y-102941428D01*
X70730952Y-102893809D01*
X71064285Y-102655714D02*
X71445238Y-102655714D01*
X71207142Y-102322380D02*
X71207142Y-103179523D01*
X71254761Y-103274761D01*
X71350000Y-103322380D01*
X71445238Y-103322380D01*
X72207142Y-103322380D02*
X72207142Y-102798571D01*
X72159523Y-102703333D01*
X72064285Y-102655714D01*
X71873809Y-102655714D01*
X71778571Y-102703333D01*
X72207142Y-103274761D02*
X72111904Y-103322380D01*
X71873809Y-103322380D01*
X71778571Y-103274761D01*
X71730952Y-103179523D01*
X71730952Y-103084285D01*
X71778571Y-102989047D01*
X71873809Y-102941428D01*
X72111904Y-102941428D01*
X72207142Y-102893809D01*
X73635714Y-102322380D02*
X73826190Y-102322380D01*
X73921428Y-102370000D01*
X74016666Y-102465238D01*
X74064285Y-102655714D01*
X74064285Y-102989047D01*
X74016666Y-103179523D01*
X73921428Y-103274761D01*
X73826190Y-103322380D01*
X73635714Y-103322380D01*
X73540476Y-103274761D01*
X73445238Y-103179523D01*
X73397619Y-102989047D01*
X73397619Y-102655714D01*
X73445238Y-102465238D01*
X73540476Y-102370000D01*
X73635714Y-102322380D01*
X74921428Y-102655714D02*
X74921428Y-103322380D01*
X74492857Y-102655714D02*
X74492857Y-103179523D01*
X74540476Y-103274761D01*
X74635714Y-103322380D01*
X74778571Y-103322380D01*
X74873809Y-103274761D01*
X74921428Y-103227142D01*
X75254761Y-102655714D02*
X75635714Y-102655714D01*
X75397619Y-102322380D02*
X75397619Y-103179523D01*
X75445238Y-103274761D01*
X75540476Y-103322380D01*
X75635714Y-103322380D01*
X64730952Y-42314761D02*
X64873809Y-42362380D01*
X65111904Y-42362380D01*
X65207142Y-42314761D01*
X65254761Y-42267142D01*
X65302380Y-42171904D01*
X65302380Y-42076666D01*
X65254761Y-41981428D01*
X65207142Y-41933809D01*
X65111904Y-41886190D01*
X64921428Y-41838571D01*
X64826190Y-41790952D01*
X64778571Y-41743333D01*
X64730952Y-41648095D01*
X64730952Y-41552857D01*
X64778571Y-41457619D01*
X64826190Y-41410000D01*
X64921428Y-41362380D01*
X65159523Y-41362380D01*
X65302380Y-41410000D01*
X66111904Y-42314761D02*
X66016666Y-42362380D01*
X65826190Y-42362380D01*
X65730952Y-42314761D01*
X65683333Y-42219523D01*
X65683333Y-41838571D01*
X65730952Y-41743333D01*
X65826190Y-41695714D01*
X66016666Y-41695714D01*
X66111904Y-41743333D01*
X66159523Y-41838571D01*
X66159523Y-41933809D01*
X65683333Y-42029047D01*
X66588095Y-42362380D02*
X66588095Y-41695714D01*
X66588095Y-41886190D02*
X66635714Y-41790952D01*
X66683333Y-41743333D01*
X66778571Y-41695714D01*
X66873809Y-41695714D01*
X67207142Y-42362380D02*
X67207142Y-41695714D01*
X67207142Y-41362380D02*
X67159523Y-41410000D01*
X67207142Y-41457619D01*
X67254761Y-41410000D01*
X67207142Y-41362380D01*
X67207142Y-41457619D01*
X68111904Y-42362380D02*
X68111904Y-41838571D01*
X68064285Y-41743333D01*
X67969047Y-41695714D01*
X67778571Y-41695714D01*
X67683333Y-41743333D01*
X68111904Y-42314761D02*
X68016666Y-42362380D01*
X67778571Y-42362380D01*
X67683333Y-42314761D01*
X67635714Y-42219523D01*
X67635714Y-42124285D01*
X67683333Y-42029047D01*
X67778571Y-41981428D01*
X68016666Y-41981428D01*
X68111904Y-41933809D01*
X68730952Y-42362380D02*
X68635714Y-42314761D01*
X68588095Y-42219523D01*
X68588095Y-41362380D01*
X69873809Y-42362380D02*
X69873809Y-41362380D01*
X70111904Y-41362380D01*
X70254761Y-41410000D01*
X70350000Y-41505238D01*
X70397619Y-41600476D01*
X70445238Y-41790952D01*
X70445238Y-41933809D01*
X70397619Y-42124285D01*
X70350000Y-42219523D01*
X70254761Y-42314761D01*
X70111904Y-42362380D01*
X69873809Y-42362380D01*
X71302380Y-42362380D02*
X71302380Y-41838571D01*
X71254761Y-41743333D01*
X71159523Y-41695714D01*
X70969047Y-41695714D01*
X70873809Y-41743333D01*
X71302380Y-42314761D02*
X71207142Y-42362380D01*
X70969047Y-42362380D01*
X70873809Y-42314761D01*
X70826190Y-42219523D01*
X70826190Y-42124285D01*
X70873809Y-42029047D01*
X70969047Y-41981428D01*
X71207142Y-41981428D01*
X71302380Y-41933809D01*
X71635714Y-41695714D02*
X72016666Y-41695714D01*
X71778571Y-41362380D02*
X71778571Y-42219523D01*
X71826190Y-42314761D01*
X71921428Y-42362380D01*
X72016666Y-42362380D01*
X72778571Y-42362380D02*
X72778571Y-41838571D01*
X72730952Y-41743333D01*
X72635714Y-41695714D01*
X72445238Y-41695714D01*
X72350000Y-41743333D01*
X72778571Y-42314761D02*
X72683333Y-42362380D01*
X72445238Y-42362380D01*
X72350000Y-42314761D01*
X72302380Y-42219523D01*
X72302380Y-42124285D01*
X72350000Y-42029047D01*
X72445238Y-41981428D01*
X72683333Y-41981428D01*
X72778571Y-41933809D01*
X74016666Y-42362380D02*
X74016666Y-41362380D01*
X74492857Y-41695714D02*
X74492857Y-42362380D01*
X74492857Y-41790952D02*
X74540476Y-41743333D01*
X74635714Y-41695714D01*
X74778571Y-41695714D01*
X74873809Y-41743333D01*
X74921428Y-41838571D01*
X74921428Y-42362380D01*
X171958095Y-40775000D02*
X171862857Y-40727380D01*
X171720000Y-40727380D01*
X171577142Y-40775000D01*
X171481904Y-40870238D01*
X171434285Y-40965476D01*
X171386666Y-41155952D01*
X171386666Y-41298809D01*
X171434285Y-41489285D01*
X171481904Y-41584523D01*
X171577142Y-41679761D01*
X171720000Y-41727380D01*
X171815238Y-41727380D01*
X171958095Y-41679761D01*
X172005714Y-41632142D01*
X172005714Y-41298809D01*
X171815238Y-41298809D01*
X172434285Y-41727380D02*
X172434285Y-40727380D01*
X173005714Y-41727380D01*
X173005714Y-40727380D01*
X173481904Y-41727380D02*
X173481904Y-40727380D01*
X173720000Y-40727380D01*
X173862857Y-40775000D01*
X173958095Y-40870238D01*
X174005714Y-40965476D01*
X174053333Y-41155952D01*
X174053333Y-41298809D01*
X174005714Y-41489285D01*
X173958095Y-41584523D01*
X173862857Y-41679761D01*
X173720000Y-41727380D01*
X173481904Y-41727380D01*
X167259047Y-41346428D02*
X168020952Y-41346428D01*
X167640000Y-41727380D02*
X167640000Y-40965476D01*
X167259047Y-102306428D02*
X168020952Y-102306428D01*
X167640000Y-102687380D02*
X167640000Y-101925476D01*
X171958095Y-101735000D02*
X171862857Y-101687380D01*
X171720000Y-101687380D01*
X171577142Y-101735000D01*
X171481904Y-101830238D01*
X171434285Y-101925476D01*
X171386666Y-102115952D01*
X171386666Y-102258809D01*
X171434285Y-102449285D01*
X171481904Y-102544523D01*
X171577142Y-102639761D01*
X171720000Y-102687380D01*
X171815238Y-102687380D01*
X171958095Y-102639761D01*
X172005714Y-102592142D01*
X172005714Y-102258809D01*
X171815238Y-102258809D01*
X172434285Y-102687380D02*
X172434285Y-101687380D01*
X173005714Y-102687380D01*
X173005714Y-101687380D01*
X173481904Y-102687380D02*
X173481904Y-101687380D01*
X173720000Y-101687380D01*
X173862857Y-101735000D01*
X173958095Y-101830238D01*
X174005714Y-101925476D01*
X174053333Y-102115952D01*
X174053333Y-102258809D01*
X174005714Y-102449285D01*
X173958095Y-102544523D01*
X173862857Y-102639761D01*
X173720000Y-102687380D01*
X173481904Y-102687380D01*
X165299047Y-91162142D02*
X165251428Y-91209761D01*
X165108571Y-91257380D01*
X165013333Y-91257380D01*
X164870476Y-91209761D01*
X164775238Y-91114523D01*
X164727619Y-91019285D01*
X164680000Y-90828809D01*
X164680000Y-90685952D01*
X164727619Y-90495476D01*
X164775238Y-90400238D01*
X164870476Y-90305000D01*
X165013333Y-90257380D01*
X165108571Y-90257380D01*
X165251428Y-90305000D01*
X165299047Y-90352619D01*
X165870476Y-91257380D02*
X165775238Y-91209761D01*
X165727619Y-91162142D01*
X165680000Y-91066904D01*
X165680000Y-90781190D01*
X165727619Y-90685952D01*
X165775238Y-90638333D01*
X165870476Y-90590714D01*
X166013333Y-90590714D01*
X166108571Y-90638333D01*
X166156190Y-90685952D01*
X166203809Y-90781190D01*
X166203809Y-91066904D01*
X166156190Y-91162142D01*
X166108571Y-91209761D01*
X166013333Y-91257380D01*
X165870476Y-91257380D01*
X166632380Y-91257380D02*
X166632380Y-90590714D01*
X166632380Y-90257380D02*
X166584761Y-90305000D01*
X166632380Y-90352619D01*
X166680000Y-90305000D01*
X166632380Y-90257380D01*
X166632380Y-90352619D01*
X167251428Y-91257380D02*
X167156190Y-91209761D01*
X167108571Y-91114523D01*
X167108571Y-90257380D01*
X168394285Y-91257380D02*
X168394285Y-90257380D01*
X168775238Y-90257380D01*
X168870476Y-90305000D01*
X168918095Y-90352619D01*
X168965714Y-90447857D01*
X168965714Y-90590714D01*
X168918095Y-90685952D01*
X168870476Y-90733571D01*
X168775238Y-90781190D01*
X168394285Y-90781190D01*
X169537142Y-91257380D02*
X169441904Y-91209761D01*
X169394285Y-91162142D01*
X169346666Y-91066904D01*
X169346666Y-90781190D01*
X169394285Y-90685952D01*
X169441904Y-90638333D01*
X169537142Y-90590714D01*
X169680000Y-90590714D01*
X169775238Y-90638333D01*
X169822857Y-90685952D01*
X169870476Y-90781190D01*
X169870476Y-91066904D01*
X169822857Y-91162142D01*
X169775238Y-91209761D01*
X169680000Y-91257380D01*
X169537142Y-91257380D01*
X170203809Y-90590714D02*
X170394285Y-91257380D01*
X170584761Y-90781190D01*
X170775238Y-91257380D01*
X170965714Y-90590714D01*
X171727619Y-91209761D02*
X171632380Y-91257380D01*
X171441904Y-91257380D01*
X171346666Y-91209761D01*
X171299047Y-91114523D01*
X171299047Y-90733571D01*
X171346666Y-90638333D01*
X171441904Y-90590714D01*
X171632380Y-90590714D01*
X171727619Y-90638333D01*
X171775238Y-90733571D01*
X171775238Y-90828809D01*
X171299047Y-90924047D01*
X172203809Y-91257380D02*
X172203809Y-90590714D01*
X172203809Y-90781190D02*
X172251428Y-90685952D01*
X172299047Y-90638333D01*
X172394285Y-90590714D01*
X172489523Y-90590714D01*
X173775238Y-90257380D02*
X173965714Y-90257380D01*
X174060952Y-90305000D01*
X174156190Y-90400238D01*
X174203809Y-90590714D01*
X174203809Y-90924047D01*
X174156190Y-91114523D01*
X174060952Y-91209761D01*
X173965714Y-91257380D01*
X173775238Y-91257380D01*
X173680000Y-91209761D01*
X173584761Y-91114523D01*
X173537142Y-90924047D01*
X173537142Y-90590714D01*
X173584761Y-90400238D01*
X173680000Y-90305000D01*
X173775238Y-90257380D01*
X175060952Y-90590714D02*
X175060952Y-91257380D01*
X174632380Y-90590714D02*
X174632380Y-91114523D01*
X174680000Y-91209761D01*
X174775238Y-91257380D01*
X174918095Y-91257380D01*
X175013333Y-91209761D01*
X175060952Y-91162142D01*
X175394285Y-90590714D02*
X175775238Y-90590714D01*
X175537142Y-90257380D02*
X175537142Y-91114523D01*
X175584761Y-91209761D01*
X175680000Y-91257380D01*
X175775238Y-91257380D01*
X165870476Y-52427142D02*
X165822857Y-52474761D01*
X165680000Y-52522380D01*
X165584761Y-52522380D01*
X165441904Y-52474761D01*
X165346666Y-52379523D01*
X165299047Y-52284285D01*
X165251428Y-52093809D01*
X165251428Y-51950952D01*
X165299047Y-51760476D01*
X165346666Y-51665238D01*
X165441904Y-51570000D01*
X165584761Y-51522380D01*
X165680000Y-51522380D01*
X165822857Y-51570000D01*
X165870476Y-51617619D01*
X166441904Y-52522380D02*
X166346666Y-52474761D01*
X166299047Y-52427142D01*
X166251428Y-52331904D01*
X166251428Y-52046190D01*
X166299047Y-51950952D01*
X166346666Y-51903333D01*
X166441904Y-51855714D01*
X166584761Y-51855714D01*
X166680000Y-51903333D01*
X166727619Y-51950952D01*
X166775238Y-52046190D01*
X166775238Y-52331904D01*
X166727619Y-52427142D01*
X166680000Y-52474761D01*
X166584761Y-52522380D01*
X166441904Y-52522380D01*
X167203809Y-52522380D02*
X167203809Y-51855714D01*
X167203809Y-51522380D02*
X167156190Y-51570000D01*
X167203809Y-51617619D01*
X167251428Y-51570000D01*
X167203809Y-51522380D01*
X167203809Y-51617619D01*
X167822857Y-52522380D02*
X167727619Y-52474761D01*
X167680000Y-52379523D01*
X167680000Y-51522380D01*
X168965714Y-52522380D02*
X168965714Y-51522380D01*
X169346666Y-51522380D01*
X169441904Y-51570000D01*
X169489523Y-51617619D01*
X169537142Y-51712857D01*
X169537142Y-51855714D01*
X169489523Y-51950952D01*
X169441904Y-51998571D01*
X169346666Y-52046190D01*
X168965714Y-52046190D01*
X170108571Y-52522380D02*
X170013333Y-52474761D01*
X169965714Y-52427142D01*
X169918095Y-52331904D01*
X169918095Y-52046190D01*
X169965714Y-51950952D01*
X170013333Y-51903333D01*
X170108571Y-51855714D01*
X170251428Y-51855714D01*
X170346666Y-51903333D01*
X170394285Y-51950952D01*
X170441904Y-52046190D01*
X170441904Y-52331904D01*
X170394285Y-52427142D01*
X170346666Y-52474761D01*
X170251428Y-52522380D01*
X170108571Y-52522380D01*
X170775238Y-51855714D02*
X170965714Y-52522380D01*
X171156190Y-52046190D01*
X171346666Y-52522380D01*
X171537142Y-51855714D01*
X172299047Y-52474761D02*
X172203809Y-52522380D01*
X172013333Y-52522380D01*
X171918095Y-52474761D01*
X171870476Y-52379523D01*
X171870476Y-51998571D01*
X171918095Y-51903333D01*
X172013333Y-51855714D01*
X172203809Y-51855714D01*
X172299047Y-51903333D01*
X172346666Y-51998571D01*
X172346666Y-52093809D01*
X171870476Y-52189047D01*
X172775238Y-52522380D02*
X172775238Y-51855714D01*
X172775238Y-52046190D02*
X172822857Y-51950952D01*
X172870476Y-51903333D01*
X172965714Y-51855714D01*
X173060952Y-51855714D01*
X174156190Y-52522380D02*
X174156190Y-51522380D01*
X174632380Y-51855714D02*
X174632380Y-52522380D01*
X174632380Y-51950952D02*
X174680000Y-51903333D01*
X174775238Y-51855714D01*
X174918095Y-51855714D01*
X175013333Y-51903333D01*
X175060952Y-51998571D01*
X175060952Y-52522380D01*
D10*
X156980000Y-101413571D02*
X157980000Y-101413571D01*
X157337142Y-102913571D01*
X157765714Y-86173571D02*
X157480000Y-86173571D01*
X157337142Y-86245000D01*
X157265714Y-86316428D01*
X157122857Y-86530714D01*
X157051428Y-86816428D01*
X157051428Y-87387857D01*
X157122857Y-87530714D01*
X157194285Y-87602142D01*
X157337142Y-87673571D01*
X157622857Y-87673571D01*
X157765714Y-87602142D01*
X157837142Y-87530714D01*
X157908571Y-87387857D01*
X157908571Y-87030714D01*
X157837142Y-86887857D01*
X157765714Y-86816428D01*
X157622857Y-86745000D01*
X157337142Y-86745000D01*
X157194285Y-86816428D01*
X157122857Y-86887857D01*
X157051428Y-87030714D01*
X157837142Y-70933571D02*
X157122857Y-70933571D01*
X157051428Y-71647857D01*
X157122857Y-71576428D01*
X157265714Y-71505000D01*
X157622857Y-71505000D01*
X157765714Y-71576428D01*
X157837142Y-71647857D01*
X157908571Y-71790714D01*
X157908571Y-72147857D01*
X157837142Y-72290714D01*
X157765714Y-72362142D01*
X157622857Y-72433571D01*
X157265714Y-72433571D01*
X157122857Y-72362142D01*
X157051428Y-72290714D01*
X157765714Y-56193571D02*
X157765714Y-57193571D01*
X157408571Y-55622142D02*
X157051428Y-56693571D01*
X157980000Y-56693571D01*
X113800000Y-101413571D02*
X114728571Y-101413571D01*
X114228571Y-101985000D01*
X114442857Y-101985000D01*
X114585714Y-102056428D01*
X114657142Y-102127857D01*
X114728571Y-102270714D01*
X114728571Y-102627857D01*
X114657142Y-102770714D01*
X114585714Y-102842142D01*
X114442857Y-102913571D01*
X114014285Y-102913571D01*
X113871428Y-102842142D01*
X113800000Y-102770714D01*
X113871428Y-86316428D02*
X113942857Y-86245000D01*
X114085714Y-86173571D01*
X114442857Y-86173571D01*
X114585714Y-86245000D01*
X114657142Y-86316428D01*
X114728571Y-86459285D01*
X114728571Y-86602142D01*
X114657142Y-86816428D01*
X113800000Y-87673571D01*
X114728571Y-87673571D01*
X114728571Y-72433571D02*
X113871428Y-72433571D01*
X114300000Y-72433571D02*
X114300000Y-70933571D01*
X114157142Y-71147857D01*
X114014285Y-71290714D01*
X113871428Y-71362142D01*
X114228571Y-55693571D02*
X114371428Y-55693571D01*
X114514285Y-55765000D01*
X114585714Y-55836428D01*
X114657142Y-55979285D01*
X114728571Y-56265000D01*
X114728571Y-56622142D01*
X114657142Y-56907857D01*
X114585714Y-57050714D01*
X114514285Y-57122142D01*
X114371428Y-57193571D01*
X114228571Y-57193571D01*
X114085714Y-57122142D01*
X114014285Y-57050714D01*
X113942857Y-56907857D01*
X113871428Y-56622142D01*
X113871428Y-56265000D01*
X113942857Y-55979285D01*
X114014285Y-55836428D01*
X114085714Y-55765000D01*
X114228571Y-55693571D01*
D12*
X43180000Y-106680000D02*
X43180000Y-38100000D01*
X182880000Y-106680000D02*
X43180000Y-106680000D01*
X182880000Y-38100000D02*
X182880000Y-106680000D01*
X43180000Y-38100000D02*
X182880000Y-38100000D01*
D13*
G36*
X173325656Y-68746530D02*
G01*
X173404311Y-68790905D01*
X173442697Y-68870218D01*
X173438383Y-68977522D01*
X173423944Y-69027324D01*
X173400795Y-69117974D01*
X173396013Y-69219919D01*
X173406438Y-69340458D01*
X173414684Y-69485375D01*
X173411149Y-69672696D01*
X173397268Y-69889947D01*
X173374476Y-70124658D01*
X173344208Y-70364355D01*
X173307898Y-70596566D01*
X173266981Y-70808820D01*
X173222892Y-70988643D01*
X173212922Y-71022571D01*
X173215257Y-71041314D01*
X173240474Y-71056350D01*
X173296515Y-71069400D01*
X173391325Y-71082183D01*
X173532846Y-71096419D01*
X173569484Y-71099776D01*
X173708674Y-71113354D01*
X173822114Y-71128761D01*
X173919965Y-71150265D01*
X174012390Y-71182134D01*
X174109547Y-71228638D01*
X174221599Y-71294045D01*
X174358707Y-71382624D01*
X174531031Y-71498644D01*
X174550730Y-71512014D01*
X174697696Y-71616035D01*
X174810441Y-71707730D01*
X174904566Y-71801297D01*
X174995674Y-71910938D01*
X175011066Y-71930989D01*
X175098885Y-72039929D01*
X175164968Y-72108182D01*
X175205973Y-72132428D01*
X175212335Y-72130984D01*
X175298461Y-72071738D01*
X175416819Y-71980245D01*
X175559185Y-71863623D01*
X175717336Y-71728988D01*
X175883049Y-71583455D01*
X176048102Y-71434142D01*
X176204270Y-71288164D01*
X176343332Y-71152639D01*
X176346555Y-71149409D01*
X176560246Y-70942168D01*
X176744141Y-70779665D01*
X176900848Y-70660423D01*
X177032975Y-70582964D01*
X177143132Y-70545809D01*
X177233926Y-70547483D01*
X177307966Y-70586507D01*
X177320222Y-70597888D01*
X177368701Y-70681310D01*
X177367624Y-70773057D01*
X177321186Y-70850925D01*
X177264906Y-70894749D01*
X177179925Y-70947744D01*
X177119049Y-70980721D01*
X177034609Y-71034657D01*
X176922327Y-71125590D01*
X176779798Y-71255631D01*
X176604618Y-71426895D01*
X176560696Y-71471083D01*
X176407136Y-71621870D01*
X176237563Y-71781046D01*
X176066272Y-71935664D01*
X175907554Y-72072778D01*
X175796222Y-72163533D01*
X175647166Y-72280036D01*
X175536931Y-72366835D01*
X175460496Y-72429778D01*
X175412840Y-72474712D01*
X175388944Y-72507486D01*
X175383787Y-72533947D01*
X175392349Y-72559944D01*
X175409610Y-72591325D01*
X175417063Y-72605213D01*
X175441568Y-72667267D01*
X175474554Y-72771282D01*
X175512170Y-72904136D01*
X175550565Y-73052709D01*
X175560983Y-73095555D01*
X175597203Y-73244057D01*
X175631209Y-73378664D01*
X175659782Y-73486966D01*
X175679703Y-73556551D01*
X175683603Y-73568277D01*
X175725574Y-73684787D01*
X175755170Y-73757826D01*
X175780564Y-73796493D01*
X175809930Y-73809891D01*
X175851441Y-73807118D01*
X175892104Y-73800428D01*
X175961016Y-73788626D01*
X176072074Y-73768605D01*
X176211996Y-73742799D01*
X176367499Y-73713645D01*
X176431222Y-73701566D01*
X176650043Y-73661216D01*
X176889640Y-73619257D01*
X177143586Y-73576626D01*
X177405453Y-73534261D01*
X177668815Y-73493099D01*
X177927245Y-73454077D01*
X178174315Y-73418132D01*
X178403599Y-73386201D01*
X178608669Y-73359221D01*
X178783098Y-73338129D01*
X178920459Y-73323863D01*
X179014326Y-73317359D01*
X179056048Y-73318851D01*
X179126276Y-73361295D01*
X179167170Y-73434121D01*
X179176235Y-73518864D01*
X179150977Y-73597059D01*
X179100099Y-73644884D01*
X179057957Y-73656861D01*
X178968270Y-73675145D01*
X178839398Y-73698280D01*
X178679705Y-73724809D01*
X178497553Y-73753277D01*
X178359599Y-73773806D01*
X177838418Y-73851916D01*
X177341238Y-73930695D01*
X176877657Y-74008563D01*
X176457274Y-74083936D01*
X176318333Y-74110161D01*
X176175913Y-74136613D01*
X176048987Y-74158652D01*
X175950221Y-74174183D01*
X175892278Y-74181114D01*
X175887944Y-74181282D01*
X175856293Y-74185121D01*
X175837393Y-74203331D01*
X175827972Y-74247483D01*
X175824756Y-74329148D01*
X175824444Y-74405817D01*
X175824444Y-74629524D01*
X175976645Y-74716604D01*
X176067391Y-74776124D01*
X176143247Y-74839157D01*
X176178038Y-74878762D01*
X176227504Y-74981265D01*
X176269076Y-75116066D01*
X176296448Y-75259041D01*
X176303887Y-75360388D01*
X176306340Y-75433681D01*
X176312113Y-75476108D01*
X176314939Y-75480333D01*
X176366846Y-75483412D01*
X176466280Y-75492170D01*
X176606855Y-75505890D01*
X176782189Y-75523854D01*
X176985896Y-75545346D01*
X177211591Y-75569648D01*
X177452890Y-75596042D01*
X177703409Y-75623811D01*
X177956762Y-75652237D01*
X178206565Y-75680605D01*
X178446434Y-75708195D01*
X178669984Y-75734290D01*
X178870831Y-75758174D01*
X179042589Y-75779129D01*
X179178874Y-75796437D01*
X179273302Y-75809382D01*
X179319488Y-75817245D01*
X179322652Y-75818278D01*
X179381131Y-75877069D01*
X179402605Y-75957939D01*
X179389386Y-76042467D01*
X179343786Y-76112233D01*
X179281498Y-76146119D01*
X179221500Y-76151071D01*
X179122888Y-76148806D01*
X179002946Y-76139940D01*
X178948927Y-76134231D01*
X178815661Y-76118965D01*
X178677737Y-76103562D01*
X178527966Y-76087270D01*
X178359160Y-76069332D01*
X178164131Y-76048993D01*
X177935691Y-76025499D01*
X177666651Y-75998093D01*
X177349823Y-75966022D01*
X177292000Y-75960184D01*
X177075827Y-75938226D01*
X176873276Y-75917394D01*
X176692471Y-75898542D01*
X176541537Y-75882527D01*
X176428599Y-75870204D01*
X176361780Y-75862429D01*
X176353611Y-75861350D01*
X176284640Y-75854794D01*
X176254869Y-75868437D01*
X176247886Y-75912801D01*
X176247777Y-75929215D01*
X176234178Y-76019735D01*
X176199328Y-76121975D01*
X176152149Y-76216133D01*
X176101565Y-76282406D01*
X176082153Y-76296792D01*
X175974835Y-76323776D01*
X175849535Y-76304733D01*
X175824444Y-76295737D01*
X175751486Y-76250895D01*
X175706759Y-76206662D01*
X175676933Y-76175561D01*
X175637425Y-76157845D01*
X175573892Y-76150571D01*
X175471992Y-76150801D01*
X175438648Y-76151692D01*
X175289823Y-76149648D01*
X175186523Y-76134120D01*
X175152325Y-76120633D01*
X175110512Y-76102943D01*
X175064950Y-76103890D01*
X174999345Y-76126426D01*
X174919882Y-76162743D01*
X174746561Y-76225571D01*
X174598668Y-76238536D01*
X174478313Y-76203182D01*
X174387607Y-76121048D01*
X174328661Y-75993677D01*
X174303585Y-75822609D01*
X174303965Y-75788905D01*
X174668705Y-75788905D01*
X174670431Y-75831592D01*
X174688410Y-75842281D01*
X174726774Y-75833025D01*
X174795392Y-75801952D01*
X174872950Y-75753498D01*
X174880822Y-75747723D01*
X174956789Y-75663456D01*
X175001594Y-75568575D01*
X175053871Y-75460917D01*
X175128311Y-75392743D01*
X175214566Y-75368282D01*
X175302292Y-75391762D01*
X175347843Y-75427065D01*
X175382978Y-75476269D01*
X175394403Y-75538759D01*
X175382479Y-75628187D01*
X175355840Y-75730124D01*
X175353429Y-75779017D01*
X175378255Y-75791356D01*
X175418680Y-75771513D01*
X175463068Y-75723862D01*
X175488413Y-75680306D01*
X175558053Y-75575363D01*
X175640778Y-75518761D01*
X175729166Y-75512662D01*
X175815796Y-75559231D01*
X175835992Y-75579012D01*
X175901289Y-75649469D01*
X175916837Y-75478001D01*
X175916979Y-75293712D01*
X175879641Y-75150289D01*
X175804052Y-75045721D01*
X175732276Y-74996728D01*
X175623305Y-74959619D01*
X175505009Y-74958051D01*
X175371282Y-74993904D01*
X175216020Y-75069061D01*
X175033116Y-75185402D01*
X174966126Y-75232811D01*
X174834110Y-75344593D01*
X174747544Y-75462531D01*
X174696375Y-75603052D01*
X174678842Y-75702245D01*
X174668705Y-75788905D01*
X174303965Y-75788905D01*
X174304816Y-75713568D01*
X174315725Y-75520508D01*
X173383807Y-75427221D01*
X173170961Y-75405836D01*
X172911519Y-75379640D01*
X172615032Y-75349604D01*
X172291051Y-75316700D01*
X171949128Y-75281899D01*
X171598813Y-75246172D01*
X171249658Y-75210491D01*
X170911213Y-75175827D01*
X170829111Y-75167404D01*
X170530300Y-75136869D01*
X170246715Y-75108137D01*
X169983610Y-75081725D01*
X169746239Y-75058148D01*
X169539855Y-75037922D01*
X169369711Y-75021562D01*
X169241062Y-75009585D01*
X169159161Y-75002506D01*
X169130990Y-75000715D01*
X169084908Y-75007349D01*
X169052792Y-75036224D01*
X169023686Y-75100440D01*
X169007222Y-75148722D01*
X168948464Y-75312453D01*
X168891674Y-75428148D01*
X168829497Y-75503440D01*
X168754579Y-75545960D01*
X168659563Y-75563343D01*
X168606107Y-75565000D01*
X168456535Y-75544850D01*
X168326154Y-75489103D01*
X168229201Y-75404813D01*
X168203409Y-75365510D01*
X168182301Y-75332812D01*
X168158417Y-75329152D01*
X168116890Y-75357854D01*
X168074722Y-75394270D01*
X168005925Y-75446655D01*
X167938658Y-75472348D01*
X167847000Y-75480145D01*
X167821114Y-75480333D01*
X167721565Y-75475503D01*
X167657245Y-75456727D01*
X167607443Y-75417571D01*
X167602649Y-75412487D01*
X167556190Y-75369058D01*
X167514654Y-75360481D01*
X167451127Y-75381922D01*
X167445534Y-75384265D01*
X167346250Y-75411441D01*
X167230448Y-75422630D01*
X167121987Y-75417113D01*
X167048446Y-75396262D01*
X166989948Y-75335716D01*
X166952196Y-75237601D01*
X166936587Y-75117372D01*
X166941828Y-75033468D01*
X167328192Y-75033468D01*
X167513924Y-74875900D01*
X167623894Y-74790049D01*
X167712621Y-74735785D01*
X167768606Y-74718333D01*
X167851417Y-74743441D01*
X167917947Y-74806390D01*
X167949795Y-74888616D01*
X167950444Y-74901777D01*
X167960947Y-74957136D01*
X167994002Y-74965759D01*
X168051927Y-74927068D01*
X168119777Y-74859444D01*
X168215416Y-74776330D01*
X168302953Y-74747196D01*
X168388786Y-74771471D01*
X168460615Y-74829051D01*
X168517463Y-74900238D01*
X168540474Y-74978489D01*
X168543111Y-75036014D01*
X168550483Y-75139238D01*
X168572084Y-75191749D01*
X168587399Y-75198111D01*
X168598135Y-75173260D01*
X168620452Y-75107542D01*
X168649890Y-75014205D01*
X168655503Y-74995816D01*
X168693300Y-74843139D01*
X168699534Y-74725742D01*
X168672497Y-74631003D01*
X168610481Y-74546299D01*
X168592206Y-74527981D01*
X168521087Y-74468430D01*
X168448665Y-74432551D01*
X168360884Y-74417589D01*
X168243688Y-74420788D01*
X168117140Y-74434854D01*
X167915857Y-74465836D01*
X167761264Y-74503422D01*
X167643614Y-74553522D01*
X167553157Y-74622041D01*
X167480145Y-74714887D01*
X167414828Y-74837966D01*
X167400896Y-74868845D01*
X167328192Y-75033468D01*
X166941828Y-75033468D01*
X166944514Y-74990485D01*
X166977374Y-74872393D01*
X166997483Y-74831649D01*
X167031169Y-74761620D01*
X167043042Y-74711953D01*
X167039738Y-74701330D01*
X167007710Y-74692790D01*
X166926410Y-74678145D01*
X166802558Y-74658407D01*
X166642874Y-74634589D01*
X166454079Y-74607701D01*
X166242895Y-74578756D01*
X166094754Y-74559049D01*
X165870150Y-74528939D01*
X165661449Y-74499848D01*
X165475780Y-74472855D01*
X165320271Y-74449041D01*
X165202048Y-74429485D01*
X165128241Y-74415266D01*
X165107834Y-74409569D01*
X165046980Y-74356157D01*
X165022029Y-74278711D01*
X165031037Y-74195075D01*
X165072061Y-74123092D01*
X165143157Y-74080605D01*
X165143687Y-74080471D01*
X165188232Y-74079768D01*
X165281768Y-74086077D01*
X165417377Y-74098668D01*
X165588139Y-74116812D01*
X165787134Y-74139777D01*
X166007442Y-74166835D01*
X166210035Y-74192999D01*
X166442139Y-74223446D01*
X166657913Y-74251365D01*
X166850619Y-74275916D01*
X167013521Y-74296254D01*
X167139881Y-74311538D01*
X167222962Y-74320925D01*
X167254926Y-74323639D01*
X167310423Y-74305949D01*
X167378402Y-74263068D01*
X167388653Y-74254764D01*
X167491930Y-74192520D01*
X167638523Y-74138657D01*
X167815458Y-74097356D01*
X167928898Y-74080567D01*
X168088638Y-74061793D01*
X168095418Y-74039628D01*
X168489654Y-74039628D01*
X168594214Y-74067784D01*
X168680458Y-74109732D01*
X168781375Y-74186433D01*
X168882821Y-74284106D01*
X168970654Y-74388967D01*
X169030730Y-74487235D01*
X169035248Y-74497557D01*
X169060591Y-74551830D01*
X169090555Y-74588631D01*
X169136508Y-74612570D01*
X169209822Y-74628257D01*
X169321865Y-74640302D01*
X169403889Y-74647026D01*
X169550591Y-74660149D01*
X169716839Y-74677301D01*
X169864312Y-74694487D01*
X169973339Y-74706336D01*
X170059406Y-74712096D01*
X170108463Y-74710959D01*
X170114236Y-74708837D01*
X170099147Y-74688046D01*
X170045838Y-74645413D01*
X169964230Y-74588565D01*
X169921923Y-74561018D01*
X169760351Y-74454803D01*
X169639253Y-74366793D01*
X169549257Y-74288713D01*
X169480990Y-74212288D01*
X169425078Y-74129245D01*
X169416834Y-74115106D01*
X169407775Y-74094646D01*
X170137666Y-74094646D01*
X170240688Y-74187767D01*
X170338844Y-74269690D01*
X170437042Y-74334128D01*
X170548301Y-74386968D01*
X170685645Y-74434097D01*
X170862095Y-74481401D01*
X170922487Y-74496005D01*
X171091704Y-74536237D01*
X171271168Y-74578902D01*
X171438572Y-74618698D01*
X171562889Y-74648248D01*
X171745112Y-74686910D01*
X171903826Y-74707938D01*
X172059026Y-74711966D01*
X172230710Y-74699628D01*
X172414597Y-74675242D01*
X172738662Y-74621677D01*
X173018557Y-74564461D01*
X173266549Y-74500996D01*
X173340067Y-74479281D01*
X173472246Y-74439011D01*
X173628321Y-74391573D01*
X173778156Y-74346125D01*
X173802390Y-74338786D01*
X173909789Y-74304976D01*
X173991785Y-74276674D01*
X174037062Y-74257920D01*
X174042241Y-74253167D01*
X174010103Y-74254109D01*
X173935788Y-74269349D01*
X173830861Y-74295926D01*
X173706885Y-74330876D01*
X173575424Y-74371237D01*
X173552555Y-74378621D01*
X173127528Y-74497062D01*
X172720802Y-74570380D01*
X172480111Y-74592579D01*
X172157176Y-74596439D01*
X171816566Y-74575193D01*
X171471324Y-74531161D01*
X171134492Y-74466662D01*
X170819112Y-74384015D01*
X170538225Y-74285540D01*
X170395919Y-74221921D01*
X170137666Y-74094646D01*
X169407775Y-74094646D01*
X169350809Y-73965989D01*
X169334363Y-73836938D01*
X169367593Y-73730565D01*
X169400919Y-73688626D01*
X169444646Y-73641063D01*
X169450378Y-73611272D01*
X169420723Y-73577816D01*
X169415030Y-73572645D01*
X169376038Y-73507725D01*
X169362183Y-73422730D01*
X169375464Y-73344137D01*
X169395422Y-73312866D01*
X169446083Y-73280905D01*
X169510653Y-73278171D01*
X169595370Y-73307021D01*
X169706475Y-73369817D01*
X169850206Y-73468917D01*
X169894675Y-73501653D01*
X170265452Y-73748243D01*
X170645566Y-73944426D01*
X171029829Y-74087650D01*
X171160090Y-74123725D01*
X171391835Y-74175758D01*
X171635808Y-74219145D01*
X171878412Y-74252276D01*
X172106052Y-74273539D01*
X172305132Y-74281325D01*
X172444483Y-74275884D01*
X172543635Y-74263492D01*
X172591262Y-74251280D01*
X172592276Y-74240442D01*
X172551586Y-74232171D01*
X172474104Y-74227658D01*
X172364740Y-74228097D01*
X172265265Y-74232363D01*
X172118032Y-74236626D01*
X171999611Y-74227863D01*
X171983416Y-74224444D01*
X174074666Y-74224444D01*
X174088777Y-74238555D01*
X174102889Y-74224444D01*
X174088777Y-74210333D01*
X174074666Y-74224444D01*
X171983416Y-74224444D01*
X171883311Y-74203311D01*
X171826316Y-74186911D01*
X171664187Y-74148387D01*
X171540720Y-74142414D01*
X171526162Y-74144334D01*
X171408916Y-74145483D01*
X171272376Y-74120033D01*
X171133990Y-74074186D01*
X171011203Y-74014148D01*
X170921463Y-73946124D01*
X170901531Y-73922209D01*
X170868362Y-73836893D01*
X170856772Y-73721692D01*
X170866198Y-73598639D01*
X170896076Y-73489769D01*
X170913468Y-73455388D01*
X170949245Y-73403504D01*
X170987633Y-73376093D01*
X171047229Y-73365401D01*
X171133496Y-73363666D01*
X171250345Y-73370708D01*
X171321565Y-73396090D01*
X171356694Y-73446196D01*
X171365333Y-73518888D01*
X171347186Y-73612330D01*
X171295225Y-73664559D01*
X171246800Y-73674111D01*
X171202117Y-73685142D01*
X171205713Y-73712612D01*
X171255200Y-73748080D01*
X171269714Y-73755081D01*
X171342478Y-73773074D01*
X171375547Y-73762014D01*
X171418222Y-73746130D01*
X171499891Y-73729673D01*
X171603248Y-73716096D01*
X171608055Y-73715616D01*
X171712634Y-73706287D01*
X171776860Y-73706535D01*
X171816541Y-73720279D01*
X171847486Y-73751437D01*
X171868473Y-73780174D01*
X171959237Y-73860408D01*
X172043399Y-73893640D01*
X172120836Y-73908882D01*
X172170657Y-73900291D01*
X172218613Y-73862408D01*
X172226198Y-73854902D01*
X172320514Y-73797601D01*
X172433967Y-73788833D01*
X172557217Y-73828395D01*
X172615449Y-73863334D01*
X172725600Y-73939668D01*
X172828633Y-73884446D01*
X172893199Y-73840698D01*
X172929066Y-73798640D01*
X172931666Y-73788069D01*
X172906066Y-73734266D01*
X172839294Y-73683120D01*
X172746389Y-73642395D01*
X172642391Y-73619853D01*
X172601536Y-73617666D01*
X172453373Y-73598643D01*
X172328857Y-73538524D01*
X172222259Y-73432734D01*
X172127854Y-73276697D01*
X172099976Y-73216972D01*
X172054078Y-73128203D01*
X172003617Y-73078670D01*
X171930733Y-73057364D01*
X171834336Y-73053222D01*
X171731163Y-73041858D01*
X171672159Y-73003076D01*
X171648855Y-72929838D01*
X171647555Y-72898000D01*
X171655303Y-72826262D01*
X171684925Y-72780225D01*
X171745985Y-72754604D01*
X171848049Y-72744116D01*
X171928366Y-72742883D01*
X172084968Y-72751213D01*
X172199971Y-72781372D01*
X172286507Y-72841377D01*
X172357707Y-72939250D01*
X172405251Y-73034140D01*
X172473056Y-73163798D01*
X172542513Y-73246617D01*
X172624887Y-73291379D01*
X172731446Y-73306864D01*
X172755626Y-73307222D01*
X172921610Y-73333206D01*
X173070699Y-73406455D01*
X173184031Y-73514236D01*
X173223715Y-73574884D01*
X173245702Y-73638520D01*
X173254852Y-73724941D01*
X173256222Y-73808321D01*
X173254496Y-73914706D01*
X173245653Y-73981916D01*
X173224199Y-74027197D01*
X173184637Y-74067797D01*
X173169390Y-74080824D01*
X173118799Y-74126093D01*
X173096373Y-74151726D01*
X173097377Y-74153888D01*
X173129428Y-74146107D01*
X173201572Y-74125420D01*
X173300044Y-74095810D01*
X173332376Y-74085871D01*
X173465270Y-74045531D01*
X173604145Y-74004501D01*
X173719478Y-73971503D01*
X173721889Y-73970833D01*
X173835931Y-73932398D01*
X173970600Y-73873750D01*
X174132014Y-73791760D01*
X174326293Y-73683301D01*
X174559556Y-73545245D01*
X174586841Y-73528734D01*
X174760041Y-73432603D01*
X174895523Y-73377958D01*
X174994484Y-73365400D01*
X175058121Y-73395529D01*
X175087630Y-73468947D01*
X175084208Y-73586254D01*
X175049052Y-73748051D01*
X175045957Y-73759196D01*
X174970757Y-73927789D01*
X174839626Y-74097788D01*
X174653051Y-74268816D01*
X174411518Y-74440500D01*
X174115511Y-74612462D01*
X173765517Y-74784329D01*
X173654180Y-74834016D01*
X173219582Y-75024056D01*
X173343735Y-75042503D01*
X173413066Y-75051396D01*
X173526349Y-75064330D01*
X173671347Y-75079976D01*
X173835824Y-75097006D01*
X173961777Y-75109608D01*
X174455666Y-75158268D01*
X174554444Y-75062521D01*
X174628794Y-74998432D01*
X174729868Y-74921411D01*
X174836151Y-74847829D01*
X174839046Y-74845943D01*
X175038396Y-74727148D01*
X175219532Y-74640721D01*
X175369945Y-74591979D01*
X175457555Y-74572737D01*
X175457555Y-74326273D01*
X175453158Y-74180899D01*
X175436822Y-74056942D01*
X175403834Y-73927046D01*
X175371604Y-73827571D01*
X175329346Y-73694710D01*
X175281274Y-73529670D01*
X175233874Y-73355359D01*
X175200295Y-73222555D01*
X175159703Y-73068377D01*
X175113769Y-72915438D01*
X175068367Y-72782240D01*
X175032246Y-72693313D01*
X174990952Y-72603170D01*
X174961310Y-72534607D01*
X174949566Y-72502087D01*
X174949555Y-72501824D01*
X174933576Y-72474548D01*
X174890296Y-72412265D01*
X174826702Y-72324802D01*
X174764516Y-72241481D01*
X174653369Y-72105641D01*
X174532579Y-71983534D01*
X174391763Y-71866621D01*
X174220535Y-71746365D01*
X174008512Y-71614226D01*
X173983580Y-71599386D01*
X173899288Y-71553139D01*
X173820918Y-71521660D01*
X173730742Y-71500079D01*
X173611033Y-71483528D01*
X173532024Y-71475371D01*
X173253108Y-71450363D01*
X173018677Y-71434331D01*
X172817541Y-71426965D01*
X172638509Y-71427957D01*
X172470390Y-71436998D01*
X172392628Y-71443873D01*
X171895220Y-71511909D01*
X171436683Y-71615541D01*
X171009930Y-71757595D01*
X170607876Y-71940894D01*
X170223436Y-72168262D01*
X169849523Y-72442525D01*
X169813111Y-72472088D01*
X169587310Y-72661327D01*
X169394952Y-72833346D01*
X169222165Y-73001712D01*
X169055080Y-73179988D01*
X168879828Y-73381741D01*
X168864895Y-73399473D01*
X168752707Y-73536179D01*
X168671049Y-73645160D01*
X168611561Y-73739604D01*
X168565884Y-73832695D01*
X168528109Y-73930634D01*
X168489654Y-74039628D01*
X168095418Y-74039628D01*
X168137146Y-73903230D01*
X168178621Y-73785287D01*
X168232386Y-73654735D01*
X168266083Y-73582244D01*
X168346513Y-73419823D01*
X168187300Y-73349411D01*
X168101693Y-73312455D01*
X168038721Y-73286958D01*
X168014446Y-73279000D01*
X167985982Y-73267171D01*
X167915065Y-73234280D01*
X167809870Y-73184217D01*
X167678573Y-73120873D01*
X167531124Y-73049006D01*
X167238039Y-72912688D01*
X166977381Y-72808075D01*
X166737506Y-72731608D01*
X166506768Y-72679727D01*
X166273525Y-72648872D01*
X166204443Y-72643395D01*
X166061812Y-72631485D01*
X165964547Y-72617370D01*
X165901570Y-72598707D01*
X165861803Y-72573146D01*
X165858721Y-72570165D01*
X165812531Y-72488692D01*
X165815665Y-72397590D01*
X165865777Y-72315667D01*
X165894706Y-72290156D01*
X165927894Y-72273976D01*
X165976641Y-72265950D01*
X166052248Y-72264906D01*
X166166017Y-72269668D01*
X166258280Y-72274881D01*
X166534689Y-72301891D01*
X166798279Y-72351937D01*
X167062782Y-72428971D01*
X167341929Y-72536946D01*
X167627928Y-72669194D01*
X167796153Y-72750744D01*
X167971807Y-72833912D01*
X168138003Y-72910829D01*
X168277850Y-72973623D01*
X168325288Y-72994157D01*
X168596451Y-73109570D01*
X168745879Y-72947340D01*
X168916395Y-72766387D01*
X169074939Y-72608379D01*
X169237675Y-72458178D01*
X169420766Y-72300645D01*
X169552055Y-72192276D01*
X169669887Y-72094610D01*
X169770470Y-72008313D01*
X169846350Y-71940014D01*
X169890076Y-71896344D01*
X169897777Y-71884709D01*
X169884080Y-71840027D01*
X169846325Y-71756077D01*
X169789520Y-71641975D01*
X169718674Y-71506841D01*
X169638793Y-71359791D01*
X169554885Y-71209943D01*
X169471958Y-71066415D01*
X169395019Y-70938324D01*
X169329076Y-70834788D01*
X169291787Y-70781333D01*
X169234043Y-70694902D01*
X169180657Y-70601830D01*
X169178640Y-70597888D01*
X169138517Y-70539397D01*
X169067081Y-70454485D01*
X168974666Y-70354829D01*
X168878124Y-70258354D01*
X168765744Y-70147315D01*
X168690718Y-70065065D01*
X168647151Y-70004126D01*
X168629145Y-69957021D01*
X168627777Y-69940854D01*
X168652296Y-69853099D01*
X168714620Y-69784308D01*
X168797898Y-69751876D01*
X168811462Y-69751222D01*
X168863336Y-69770491D01*
X168943525Y-69822466D01*
X169042033Y-69898401D01*
X169148865Y-69989549D01*
X169254027Y-70087163D01*
X169347523Y-70182496D01*
X169419359Y-70266802D01*
X169447575Y-70307895D01*
X169494270Y-70383106D01*
X169560104Y-70484930D01*
X169632195Y-70593499D01*
X169644862Y-70612254D01*
X169697121Y-70694624D01*
X169766328Y-70811097D01*
X169846483Y-70950775D01*
X169931586Y-71102757D01*
X170015639Y-71256145D01*
X170092643Y-71400038D01*
X170156599Y-71523538D01*
X170201508Y-71615746D01*
X170216698Y-71651209D01*
X170230684Y-71675232D01*
X170255622Y-71680821D01*
X170302917Y-71665452D01*
X170383973Y-71626604D01*
X170426842Y-71604727D01*
X170803058Y-71430404D01*
X171185781Y-71292506D01*
X171586611Y-71187910D01*
X172017145Y-71113493D01*
X172402500Y-71072637D01*
X172578490Y-71057139D01*
X172703743Y-71042663D01*
X172783930Y-71028263D01*
X172824724Y-71012992D01*
X172832889Y-71000819D01*
X172839258Y-70959129D01*
X172856457Y-70875995D01*
X172881621Y-70764731D01*
X172903010Y-70674895D01*
X172950419Y-70447781D01*
X172988771Y-70200375D01*
X173016733Y-69947591D01*
X173032976Y-69704343D01*
X173036169Y-69485544D01*
X173025059Y-69306745D01*
X173011592Y-69183308D01*
X173008006Y-69097773D01*
X173015670Y-69032243D01*
X173035953Y-68968819D01*
X173054219Y-68925538D01*
X173124463Y-68810561D01*
X173210168Y-68749818D01*
X173311268Y-68743352D01*
X173325656Y-68746530D01*
X173325656Y-68746530D01*
G37*
X173325656Y-68746530D02*
X173404311Y-68790905D01*
X173442697Y-68870218D01*
X173438383Y-68977522D01*
X173423944Y-69027324D01*
X173400795Y-69117974D01*
X173396013Y-69219919D01*
X173406438Y-69340458D01*
X173414684Y-69485375D01*
X173411149Y-69672696D01*
X173397268Y-69889947D01*
X173374476Y-70124658D01*
X173344208Y-70364355D01*
X173307898Y-70596566D01*
X173266981Y-70808820D01*
X173222892Y-70988643D01*
X173212922Y-71022571D01*
X173215257Y-71041314D01*
X173240474Y-71056350D01*
X173296515Y-71069400D01*
X173391325Y-71082183D01*
X173532846Y-71096419D01*
X173569484Y-71099776D01*
X173708674Y-71113354D01*
X173822114Y-71128761D01*
X173919965Y-71150265D01*
X174012390Y-71182134D01*
X174109547Y-71228638D01*
X174221599Y-71294045D01*
X174358707Y-71382624D01*
X174531031Y-71498644D01*
X174550730Y-71512014D01*
X174697696Y-71616035D01*
X174810441Y-71707730D01*
X174904566Y-71801297D01*
X174995674Y-71910938D01*
X175011066Y-71930989D01*
X175098885Y-72039929D01*
X175164968Y-72108182D01*
X175205973Y-72132428D01*
X175212335Y-72130984D01*
X175298461Y-72071738D01*
X175416819Y-71980245D01*
X175559185Y-71863623D01*
X175717336Y-71728988D01*
X175883049Y-71583455D01*
X176048102Y-71434142D01*
X176204270Y-71288164D01*
X176343332Y-71152639D01*
X176346555Y-71149409D01*
X176560246Y-70942168D01*
X176744141Y-70779665D01*
X176900848Y-70660423D01*
X177032975Y-70582964D01*
X177143132Y-70545809D01*
X177233926Y-70547483D01*
X177307966Y-70586507D01*
X177320222Y-70597888D01*
X177368701Y-70681310D01*
X177367624Y-70773057D01*
X177321186Y-70850925D01*
X177264906Y-70894749D01*
X177179925Y-70947744D01*
X177119049Y-70980721D01*
X177034609Y-71034657D01*
X176922327Y-71125590D01*
X176779798Y-71255631D01*
X176604618Y-71426895D01*
X176560696Y-71471083D01*
X176407136Y-71621870D01*
X176237563Y-71781046D01*
X176066272Y-71935664D01*
X175907554Y-72072778D01*
X175796222Y-72163533D01*
X175647166Y-72280036D01*
X175536931Y-72366835D01*
X175460496Y-72429778D01*
X175412840Y-72474712D01*
X175388944Y-72507486D01*
X175383787Y-72533947D01*
X175392349Y-72559944D01*
X175409610Y-72591325D01*
X175417063Y-72605213D01*
X175441568Y-72667267D01*
X175474554Y-72771282D01*
X175512170Y-72904136D01*
X175550565Y-73052709D01*
X175560983Y-73095555D01*
X175597203Y-73244057D01*
X175631209Y-73378664D01*
X175659782Y-73486966D01*
X175679703Y-73556551D01*
X175683603Y-73568277D01*
X175725574Y-73684787D01*
X175755170Y-73757826D01*
X175780564Y-73796493D01*
X175809930Y-73809891D01*
X175851441Y-73807118D01*
X175892104Y-73800428D01*
X175961016Y-73788626D01*
X176072074Y-73768605D01*
X176211996Y-73742799D01*
X176367499Y-73713645D01*
X176431222Y-73701566D01*
X176650043Y-73661216D01*
X176889640Y-73619257D01*
X177143586Y-73576626D01*
X177405453Y-73534261D01*
X177668815Y-73493099D01*
X177927245Y-73454077D01*
X178174315Y-73418132D01*
X178403599Y-73386201D01*
X178608669Y-73359221D01*
X178783098Y-73338129D01*
X178920459Y-73323863D01*
X179014326Y-73317359D01*
X179056048Y-73318851D01*
X179126276Y-73361295D01*
X179167170Y-73434121D01*
X179176235Y-73518864D01*
X179150977Y-73597059D01*
X179100099Y-73644884D01*
X179057957Y-73656861D01*
X178968270Y-73675145D01*
X178839398Y-73698280D01*
X178679705Y-73724809D01*
X178497553Y-73753277D01*
X178359599Y-73773806D01*
X177838418Y-73851916D01*
X177341238Y-73930695D01*
X176877657Y-74008563D01*
X176457274Y-74083936D01*
X176318333Y-74110161D01*
X176175913Y-74136613D01*
X176048987Y-74158652D01*
X175950221Y-74174183D01*
X175892278Y-74181114D01*
X175887944Y-74181282D01*
X175856293Y-74185121D01*
X175837393Y-74203331D01*
X175827972Y-74247483D01*
X175824756Y-74329148D01*
X175824444Y-74405817D01*
X175824444Y-74629524D01*
X175976645Y-74716604D01*
X176067391Y-74776124D01*
X176143247Y-74839157D01*
X176178038Y-74878762D01*
X176227504Y-74981265D01*
X176269076Y-75116066D01*
X176296448Y-75259041D01*
X176303887Y-75360388D01*
X176306340Y-75433681D01*
X176312113Y-75476108D01*
X176314939Y-75480333D01*
X176366846Y-75483412D01*
X176466280Y-75492170D01*
X176606855Y-75505890D01*
X176782189Y-75523854D01*
X176985896Y-75545346D01*
X177211591Y-75569648D01*
X177452890Y-75596042D01*
X177703409Y-75623811D01*
X177956762Y-75652237D01*
X178206565Y-75680605D01*
X178446434Y-75708195D01*
X178669984Y-75734290D01*
X178870831Y-75758174D01*
X179042589Y-75779129D01*
X179178874Y-75796437D01*
X179273302Y-75809382D01*
X179319488Y-75817245D01*
X179322652Y-75818278D01*
X179381131Y-75877069D01*
X179402605Y-75957939D01*
X179389386Y-76042467D01*
X179343786Y-76112233D01*
X179281498Y-76146119D01*
X179221500Y-76151071D01*
X179122888Y-76148806D01*
X179002946Y-76139940D01*
X178948927Y-76134231D01*
X178815661Y-76118965D01*
X178677737Y-76103562D01*
X178527966Y-76087270D01*
X178359160Y-76069332D01*
X178164131Y-76048993D01*
X177935691Y-76025499D01*
X177666651Y-75998093D01*
X177349823Y-75966022D01*
X177292000Y-75960184D01*
X177075827Y-75938226D01*
X176873276Y-75917394D01*
X176692471Y-75898542D01*
X176541537Y-75882527D01*
X176428599Y-75870204D01*
X176361780Y-75862429D01*
X176353611Y-75861350D01*
X176284640Y-75854794D01*
X176254869Y-75868437D01*
X176247886Y-75912801D01*
X176247777Y-75929215D01*
X176234178Y-76019735D01*
X176199328Y-76121975D01*
X176152149Y-76216133D01*
X176101565Y-76282406D01*
X176082153Y-76296792D01*
X175974835Y-76323776D01*
X175849535Y-76304733D01*
X175824444Y-76295737D01*
X175751486Y-76250895D01*
X175706759Y-76206662D01*
X175676933Y-76175561D01*
X175637425Y-76157845D01*
X175573892Y-76150571D01*
X175471992Y-76150801D01*
X175438648Y-76151692D01*
X175289823Y-76149648D01*
X175186523Y-76134120D01*
X175152325Y-76120633D01*
X175110512Y-76102943D01*
X175064950Y-76103890D01*
X174999345Y-76126426D01*
X174919882Y-76162743D01*
X174746561Y-76225571D01*
X174598668Y-76238536D01*
X174478313Y-76203182D01*
X174387607Y-76121048D01*
X174328661Y-75993677D01*
X174303585Y-75822609D01*
X174303965Y-75788905D01*
X174668705Y-75788905D01*
X174670431Y-75831592D01*
X174688410Y-75842281D01*
X174726774Y-75833025D01*
X174795392Y-75801952D01*
X174872950Y-75753498D01*
X174880822Y-75747723D01*
X174956789Y-75663456D01*
X175001594Y-75568575D01*
X175053871Y-75460917D01*
X175128311Y-75392743D01*
X175214566Y-75368282D01*
X175302292Y-75391762D01*
X175347843Y-75427065D01*
X175382978Y-75476269D01*
X175394403Y-75538759D01*
X175382479Y-75628187D01*
X175355840Y-75730124D01*
X175353429Y-75779017D01*
X175378255Y-75791356D01*
X175418680Y-75771513D01*
X175463068Y-75723862D01*
X175488413Y-75680306D01*
X175558053Y-75575363D01*
X175640778Y-75518761D01*
X175729166Y-75512662D01*
X175815796Y-75559231D01*
X175835992Y-75579012D01*
X175901289Y-75649469D01*
X175916837Y-75478001D01*
X175916979Y-75293712D01*
X175879641Y-75150289D01*
X175804052Y-75045721D01*
X175732276Y-74996728D01*
X175623305Y-74959619D01*
X175505009Y-74958051D01*
X175371282Y-74993904D01*
X175216020Y-75069061D01*
X175033116Y-75185402D01*
X174966126Y-75232811D01*
X174834110Y-75344593D01*
X174747544Y-75462531D01*
X174696375Y-75603052D01*
X174678842Y-75702245D01*
X174668705Y-75788905D01*
X174303965Y-75788905D01*
X174304816Y-75713568D01*
X174315725Y-75520508D01*
X173383807Y-75427221D01*
X173170961Y-75405836D01*
X172911519Y-75379640D01*
X172615032Y-75349604D01*
X172291051Y-75316700D01*
X171949128Y-75281899D01*
X171598813Y-75246172D01*
X171249658Y-75210491D01*
X170911213Y-75175827D01*
X170829111Y-75167404D01*
X170530300Y-75136869D01*
X170246715Y-75108137D01*
X169983610Y-75081725D01*
X169746239Y-75058148D01*
X169539855Y-75037922D01*
X169369711Y-75021562D01*
X169241062Y-75009585D01*
X169159161Y-75002506D01*
X169130990Y-75000715D01*
X169084908Y-75007349D01*
X169052792Y-75036224D01*
X169023686Y-75100440D01*
X169007222Y-75148722D01*
X168948464Y-75312453D01*
X168891674Y-75428148D01*
X168829497Y-75503440D01*
X168754579Y-75545960D01*
X168659563Y-75563343D01*
X168606107Y-75565000D01*
X168456535Y-75544850D01*
X168326154Y-75489103D01*
X168229201Y-75404813D01*
X168203409Y-75365510D01*
X168182301Y-75332812D01*
X168158417Y-75329152D01*
X168116890Y-75357854D01*
X168074722Y-75394270D01*
X168005925Y-75446655D01*
X167938658Y-75472348D01*
X167847000Y-75480145D01*
X167821114Y-75480333D01*
X167721565Y-75475503D01*
X167657245Y-75456727D01*
X167607443Y-75417571D01*
X167602649Y-75412487D01*
X167556190Y-75369058D01*
X167514654Y-75360481D01*
X167451127Y-75381922D01*
X167445534Y-75384265D01*
X167346250Y-75411441D01*
X167230448Y-75422630D01*
X167121987Y-75417113D01*
X167048446Y-75396262D01*
X166989948Y-75335716D01*
X166952196Y-75237601D01*
X166936587Y-75117372D01*
X166941828Y-75033468D01*
X167328192Y-75033468D01*
X167513924Y-74875900D01*
X167623894Y-74790049D01*
X167712621Y-74735785D01*
X167768606Y-74718333D01*
X167851417Y-74743441D01*
X167917947Y-74806390D01*
X167949795Y-74888616D01*
X167950444Y-74901777D01*
X167960947Y-74957136D01*
X167994002Y-74965759D01*
X168051927Y-74927068D01*
X168119777Y-74859444D01*
X168215416Y-74776330D01*
X168302953Y-74747196D01*
X168388786Y-74771471D01*
X168460615Y-74829051D01*
X168517463Y-74900238D01*
X168540474Y-74978489D01*
X168543111Y-75036014D01*
X168550483Y-75139238D01*
X168572084Y-75191749D01*
X168587399Y-75198111D01*
X168598135Y-75173260D01*
X168620452Y-75107542D01*
X168649890Y-75014205D01*
X168655503Y-74995816D01*
X168693300Y-74843139D01*
X168699534Y-74725742D01*
X168672497Y-74631003D01*
X168610481Y-74546299D01*
X168592206Y-74527981D01*
X168521087Y-74468430D01*
X168448665Y-74432551D01*
X168360884Y-74417589D01*
X168243688Y-74420788D01*
X168117140Y-74434854D01*
X167915857Y-74465836D01*
X167761264Y-74503422D01*
X167643614Y-74553522D01*
X167553157Y-74622041D01*
X167480145Y-74714887D01*
X167414828Y-74837966D01*
X167400896Y-74868845D01*
X167328192Y-75033468D01*
X166941828Y-75033468D01*
X166944514Y-74990485D01*
X166977374Y-74872393D01*
X166997483Y-74831649D01*
X167031169Y-74761620D01*
X167043042Y-74711953D01*
X167039738Y-74701330D01*
X167007710Y-74692790D01*
X166926410Y-74678145D01*
X166802558Y-74658407D01*
X166642874Y-74634589D01*
X166454079Y-74607701D01*
X166242895Y-74578756D01*
X166094754Y-74559049D01*
X165870150Y-74528939D01*
X165661449Y-74499848D01*
X165475780Y-74472855D01*
X165320271Y-74449041D01*
X165202048Y-74429485D01*
X165128241Y-74415266D01*
X165107834Y-74409569D01*
X165046980Y-74356157D01*
X165022029Y-74278711D01*
X165031037Y-74195075D01*
X165072061Y-74123092D01*
X165143157Y-74080605D01*
X165143687Y-74080471D01*
X165188232Y-74079768D01*
X165281768Y-74086077D01*
X165417377Y-74098668D01*
X165588139Y-74116812D01*
X165787134Y-74139777D01*
X166007442Y-74166835D01*
X166210035Y-74192999D01*
X166442139Y-74223446D01*
X166657913Y-74251365D01*
X166850619Y-74275916D01*
X167013521Y-74296254D01*
X167139881Y-74311538D01*
X167222962Y-74320925D01*
X167254926Y-74323639D01*
X167310423Y-74305949D01*
X167378402Y-74263068D01*
X167388653Y-74254764D01*
X167491930Y-74192520D01*
X167638523Y-74138657D01*
X167815458Y-74097356D01*
X167928898Y-74080567D01*
X168088638Y-74061793D01*
X168095418Y-74039628D01*
X168489654Y-74039628D01*
X168594214Y-74067784D01*
X168680458Y-74109732D01*
X168781375Y-74186433D01*
X168882821Y-74284106D01*
X168970654Y-74388967D01*
X169030730Y-74487235D01*
X169035248Y-74497557D01*
X169060591Y-74551830D01*
X169090555Y-74588631D01*
X169136508Y-74612570D01*
X169209822Y-74628257D01*
X169321865Y-74640302D01*
X169403889Y-74647026D01*
X169550591Y-74660149D01*
X169716839Y-74677301D01*
X169864312Y-74694487D01*
X169973339Y-74706336D01*
X170059406Y-74712096D01*
X170108463Y-74710959D01*
X170114236Y-74708837D01*
X170099147Y-74688046D01*
X170045838Y-74645413D01*
X169964230Y-74588565D01*
X169921923Y-74561018D01*
X169760351Y-74454803D01*
X169639253Y-74366793D01*
X169549257Y-74288713D01*
X169480990Y-74212288D01*
X169425078Y-74129245D01*
X169416834Y-74115106D01*
X169407775Y-74094646D01*
X170137666Y-74094646D01*
X170240688Y-74187767D01*
X170338844Y-74269690D01*
X170437042Y-74334128D01*
X170548301Y-74386968D01*
X170685645Y-74434097D01*
X170862095Y-74481401D01*
X170922487Y-74496005D01*
X171091704Y-74536237D01*
X171271168Y-74578902D01*
X171438572Y-74618698D01*
X171562889Y-74648248D01*
X171745112Y-74686910D01*
X171903826Y-74707938D01*
X172059026Y-74711966D01*
X172230710Y-74699628D01*
X172414597Y-74675242D01*
X172738662Y-74621677D01*
X173018557Y-74564461D01*
X173266549Y-74500996D01*
X173340067Y-74479281D01*
X173472246Y-74439011D01*
X173628321Y-74391573D01*
X173778156Y-74346125D01*
X173802390Y-74338786D01*
X173909789Y-74304976D01*
X173991785Y-74276674D01*
X174037062Y-74257920D01*
X174042241Y-74253167D01*
X174010103Y-74254109D01*
X173935788Y-74269349D01*
X173830861Y-74295926D01*
X173706885Y-74330876D01*
X173575424Y-74371237D01*
X173552555Y-74378621D01*
X173127528Y-74497062D01*
X172720802Y-74570380D01*
X172480111Y-74592579D01*
X172157176Y-74596439D01*
X171816566Y-74575193D01*
X171471324Y-74531161D01*
X171134492Y-74466662D01*
X170819112Y-74384015D01*
X170538225Y-74285540D01*
X170395919Y-74221921D01*
X170137666Y-74094646D01*
X169407775Y-74094646D01*
X169350809Y-73965989D01*
X169334363Y-73836938D01*
X169367593Y-73730565D01*
X169400919Y-73688626D01*
X169444646Y-73641063D01*
X169450378Y-73611272D01*
X169420723Y-73577816D01*
X169415030Y-73572645D01*
X169376038Y-73507725D01*
X169362183Y-73422730D01*
X169375464Y-73344137D01*
X169395422Y-73312866D01*
X169446083Y-73280905D01*
X169510653Y-73278171D01*
X169595370Y-73307021D01*
X169706475Y-73369817D01*
X169850206Y-73468917D01*
X169894675Y-73501653D01*
X170265452Y-73748243D01*
X170645566Y-73944426D01*
X171029829Y-74087650D01*
X171160090Y-74123725D01*
X171391835Y-74175758D01*
X171635808Y-74219145D01*
X171878412Y-74252276D01*
X172106052Y-74273539D01*
X172305132Y-74281325D01*
X172444483Y-74275884D01*
X172543635Y-74263492D01*
X172591262Y-74251280D01*
X172592276Y-74240442D01*
X172551586Y-74232171D01*
X172474104Y-74227658D01*
X172364740Y-74228097D01*
X172265265Y-74232363D01*
X172118032Y-74236626D01*
X171999611Y-74227863D01*
X171983416Y-74224444D01*
X174074666Y-74224444D01*
X174088777Y-74238555D01*
X174102889Y-74224444D01*
X174088777Y-74210333D01*
X174074666Y-74224444D01*
X171983416Y-74224444D01*
X171883311Y-74203311D01*
X171826316Y-74186911D01*
X171664187Y-74148387D01*
X171540720Y-74142414D01*
X171526162Y-74144334D01*
X171408916Y-74145483D01*
X171272376Y-74120033D01*
X171133990Y-74074186D01*
X171011203Y-74014148D01*
X170921463Y-73946124D01*
X170901531Y-73922209D01*
X170868362Y-73836893D01*
X170856772Y-73721692D01*
X170866198Y-73598639D01*
X170896076Y-73489769D01*
X170913468Y-73455388D01*
X170949245Y-73403504D01*
X170987633Y-73376093D01*
X171047229Y-73365401D01*
X171133496Y-73363666D01*
X171250345Y-73370708D01*
X171321565Y-73396090D01*
X171356694Y-73446196D01*
X171365333Y-73518888D01*
X171347186Y-73612330D01*
X171295225Y-73664559D01*
X171246800Y-73674111D01*
X171202117Y-73685142D01*
X171205713Y-73712612D01*
X171255200Y-73748080D01*
X171269714Y-73755081D01*
X171342478Y-73773074D01*
X171375547Y-73762014D01*
X171418222Y-73746130D01*
X171499891Y-73729673D01*
X171603248Y-73716096D01*
X171608055Y-73715616D01*
X171712634Y-73706287D01*
X171776860Y-73706535D01*
X171816541Y-73720279D01*
X171847486Y-73751437D01*
X171868473Y-73780174D01*
X171959237Y-73860408D01*
X172043399Y-73893640D01*
X172120836Y-73908882D01*
X172170657Y-73900291D01*
X172218613Y-73862408D01*
X172226198Y-73854902D01*
X172320514Y-73797601D01*
X172433967Y-73788833D01*
X172557217Y-73828395D01*
X172615449Y-73863334D01*
X172725600Y-73939668D01*
X172828633Y-73884446D01*
X172893199Y-73840698D01*
X172929066Y-73798640D01*
X172931666Y-73788069D01*
X172906066Y-73734266D01*
X172839294Y-73683120D01*
X172746389Y-73642395D01*
X172642391Y-73619853D01*
X172601536Y-73617666D01*
X172453373Y-73598643D01*
X172328857Y-73538524D01*
X172222259Y-73432734D01*
X172127854Y-73276697D01*
X172099976Y-73216972D01*
X172054078Y-73128203D01*
X172003617Y-73078670D01*
X171930733Y-73057364D01*
X171834336Y-73053222D01*
X171731163Y-73041858D01*
X171672159Y-73003076D01*
X171648855Y-72929838D01*
X171647555Y-72898000D01*
X171655303Y-72826262D01*
X171684925Y-72780225D01*
X171745985Y-72754604D01*
X171848049Y-72744116D01*
X171928366Y-72742883D01*
X172084968Y-72751213D01*
X172199971Y-72781372D01*
X172286507Y-72841377D01*
X172357707Y-72939250D01*
X172405251Y-73034140D01*
X172473056Y-73163798D01*
X172542513Y-73246617D01*
X172624887Y-73291379D01*
X172731446Y-73306864D01*
X172755626Y-73307222D01*
X172921610Y-73333206D01*
X173070699Y-73406455D01*
X173184031Y-73514236D01*
X173223715Y-73574884D01*
X173245702Y-73638520D01*
X173254852Y-73724941D01*
X173256222Y-73808321D01*
X173254496Y-73914706D01*
X173245653Y-73981916D01*
X173224199Y-74027197D01*
X173184637Y-74067797D01*
X173169390Y-74080824D01*
X173118799Y-74126093D01*
X173096373Y-74151726D01*
X173097377Y-74153888D01*
X173129428Y-74146107D01*
X173201572Y-74125420D01*
X173300044Y-74095810D01*
X173332376Y-74085871D01*
X173465270Y-74045531D01*
X173604145Y-74004501D01*
X173719478Y-73971503D01*
X173721889Y-73970833D01*
X173835931Y-73932398D01*
X173970600Y-73873750D01*
X174132014Y-73791760D01*
X174326293Y-73683301D01*
X174559556Y-73545245D01*
X174586841Y-73528734D01*
X174760041Y-73432603D01*
X174895523Y-73377958D01*
X174994484Y-73365400D01*
X175058121Y-73395529D01*
X175087630Y-73468947D01*
X175084208Y-73586254D01*
X175049052Y-73748051D01*
X175045957Y-73759196D01*
X174970757Y-73927789D01*
X174839626Y-74097788D01*
X174653051Y-74268816D01*
X174411518Y-74440500D01*
X174115511Y-74612462D01*
X173765517Y-74784329D01*
X173654180Y-74834016D01*
X173219582Y-75024056D01*
X173343735Y-75042503D01*
X173413066Y-75051396D01*
X173526349Y-75064330D01*
X173671347Y-75079976D01*
X173835824Y-75097006D01*
X173961777Y-75109608D01*
X174455666Y-75158268D01*
X174554444Y-75062521D01*
X174628794Y-74998432D01*
X174729868Y-74921411D01*
X174836151Y-74847829D01*
X174839046Y-74845943D01*
X175038396Y-74727148D01*
X175219532Y-74640721D01*
X175369945Y-74591979D01*
X175457555Y-74572737D01*
X175457555Y-74326273D01*
X175453158Y-74180899D01*
X175436822Y-74056942D01*
X175403834Y-73927046D01*
X175371604Y-73827571D01*
X175329346Y-73694710D01*
X175281274Y-73529670D01*
X175233874Y-73355359D01*
X175200295Y-73222555D01*
X175159703Y-73068377D01*
X175113769Y-72915438D01*
X175068367Y-72782240D01*
X175032246Y-72693313D01*
X174990952Y-72603170D01*
X174961310Y-72534607D01*
X174949566Y-72502087D01*
X174949555Y-72501824D01*
X174933576Y-72474548D01*
X174890296Y-72412265D01*
X174826702Y-72324802D01*
X174764516Y-72241481D01*
X174653369Y-72105641D01*
X174532579Y-71983534D01*
X174391763Y-71866621D01*
X174220535Y-71746365D01*
X174008512Y-71614226D01*
X173983580Y-71599386D01*
X173899288Y-71553139D01*
X173820918Y-71521660D01*
X173730742Y-71500079D01*
X173611033Y-71483528D01*
X173532024Y-71475371D01*
X173253108Y-71450363D01*
X173018677Y-71434331D01*
X172817541Y-71426965D01*
X172638509Y-71427957D01*
X172470390Y-71436998D01*
X172392628Y-71443873D01*
X171895220Y-71511909D01*
X171436683Y-71615541D01*
X171009930Y-71757595D01*
X170607876Y-71940894D01*
X170223436Y-72168262D01*
X169849523Y-72442525D01*
X169813111Y-72472088D01*
X169587310Y-72661327D01*
X169394952Y-72833346D01*
X169222165Y-73001712D01*
X169055080Y-73179988D01*
X168879828Y-73381741D01*
X168864895Y-73399473D01*
X168752707Y-73536179D01*
X168671049Y-73645160D01*
X168611561Y-73739604D01*
X168565884Y-73832695D01*
X168528109Y-73930634D01*
X168489654Y-74039628D01*
X168095418Y-74039628D01*
X168137146Y-73903230D01*
X168178621Y-73785287D01*
X168232386Y-73654735D01*
X168266083Y-73582244D01*
X168346513Y-73419823D01*
X168187300Y-73349411D01*
X168101693Y-73312455D01*
X168038721Y-73286958D01*
X168014446Y-73279000D01*
X167985982Y-73267171D01*
X167915065Y-73234280D01*
X167809870Y-73184217D01*
X167678573Y-73120873D01*
X167531124Y-73049006D01*
X167238039Y-72912688D01*
X166977381Y-72808075D01*
X166737506Y-72731608D01*
X166506768Y-72679727D01*
X166273525Y-72648872D01*
X166204443Y-72643395D01*
X166061812Y-72631485D01*
X165964547Y-72617370D01*
X165901570Y-72598707D01*
X165861803Y-72573146D01*
X165858721Y-72570165D01*
X165812531Y-72488692D01*
X165815665Y-72397590D01*
X165865777Y-72315667D01*
X165894706Y-72290156D01*
X165927894Y-72273976D01*
X165976641Y-72265950D01*
X166052248Y-72264906D01*
X166166017Y-72269668D01*
X166258280Y-72274881D01*
X166534689Y-72301891D01*
X166798279Y-72351937D01*
X167062782Y-72428971D01*
X167341929Y-72536946D01*
X167627928Y-72669194D01*
X167796153Y-72750744D01*
X167971807Y-72833912D01*
X168138003Y-72910829D01*
X168277850Y-72973623D01*
X168325288Y-72994157D01*
X168596451Y-73109570D01*
X168745879Y-72947340D01*
X168916395Y-72766387D01*
X169074939Y-72608379D01*
X169237675Y-72458178D01*
X169420766Y-72300645D01*
X169552055Y-72192276D01*
X169669887Y-72094610D01*
X169770470Y-72008313D01*
X169846350Y-71940014D01*
X169890076Y-71896344D01*
X169897777Y-71884709D01*
X169884080Y-71840027D01*
X169846325Y-71756077D01*
X169789520Y-71641975D01*
X169718674Y-71506841D01*
X169638793Y-71359791D01*
X169554885Y-71209943D01*
X169471958Y-71066415D01*
X169395019Y-70938324D01*
X169329076Y-70834788D01*
X169291787Y-70781333D01*
X169234043Y-70694902D01*
X169180657Y-70601830D01*
X169178640Y-70597888D01*
X169138517Y-70539397D01*
X169067081Y-70454485D01*
X168974666Y-70354829D01*
X168878124Y-70258354D01*
X168765744Y-70147315D01*
X168690718Y-70065065D01*
X168647151Y-70004126D01*
X168629145Y-69957021D01*
X168627777Y-69940854D01*
X168652296Y-69853099D01*
X168714620Y-69784308D01*
X168797898Y-69751876D01*
X168811462Y-69751222D01*
X168863336Y-69770491D01*
X168943525Y-69822466D01*
X169042033Y-69898401D01*
X169148865Y-69989549D01*
X169254027Y-70087163D01*
X169347523Y-70182496D01*
X169419359Y-70266802D01*
X169447575Y-70307895D01*
X169494270Y-70383106D01*
X169560104Y-70484930D01*
X169632195Y-70593499D01*
X169644862Y-70612254D01*
X169697121Y-70694624D01*
X169766328Y-70811097D01*
X169846483Y-70950775D01*
X169931586Y-71102757D01*
X170015639Y-71256145D01*
X170092643Y-71400038D01*
X170156599Y-71523538D01*
X170201508Y-71615746D01*
X170216698Y-71651209D01*
X170230684Y-71675232D01*
X170255622Y-71680821D01*
X170302917Y-71665452D01*
X170383973Y-71626604D01*
X170426842Y-71604727D01*
X170803058Y-71430404D01*
X171185781Y-71292506D01*
X171586611Y-71187910D01*
X172017145Y-71113493D01*
X172402500Y-71072637D01*
X172578490Y-71057139D01*
X172703743Y-71042663D01*
X172783930Y-71028263D01*
X172824724Y-71012992D01*
X172832889Y-71000819D01*
X172839258Y-70959129D01*
X172856457Y-70875995D01*
X172881621Y-70764731D01*
X172903010Y-70674895D01*
X172950419Y-70447781D01*
X172988771Y-70200375D01*
X173016733Y-69947591D01*
X173032976Y-69704343D01*
X173036169Y-69485544D01*
X173025059Y-69306745D01*
X173011592Y-69183308D01*
X173008006Y-69097773D01*
X173015670Y-69032243D01*
X173035953Y-68968819D01*
X173054219Y-68925538D01*
X173124463Y-68810561D01*
X173210168Y-68749818D01*
X173311268Y-68743352D01*
X173325656Y-68746530D01*
G36*
X174449983Y-72711660D02*
G01*
X174544863Y-72778047D01*
X174612783Y-72871107D01*
X174639107Y-72976451D01*
X174639111Y-72977679D01*
X174615710Y-73090686D01*
X174553137Y-73181501D01*
X174462833Y-73237647D01*
X174389658Y-73249647D01*
X174295664Y-73236932D01*
X174211281Y-73207773D01*
X174209077Y-73206599D01*
X174128848Y-73137328D01*
X174069449Y-73039329D01*
X174046444Y-72938912D01*
X174065592Y-72883509D01*
X174114012Y-72813403D01*
X174142400Y-72782288D01*
X174220465Y-72717106D01*
X174295002Y-72689592D01*
X174342777Y-72686333D01*
X174449983Y-72711660D01*
X174449983Y-72711660D01*
G37*
X174449983Y-72711660D02*
X174544863Y-72778047D01*
X174612783Y-72871107D01*
X174639107Y-72976451D01*
X174639111Y-72977679D01*
X174615710Y-73090686D01*
X174553137Y-73181501D01*
X174462833Y-73237647D01*
X174389658Y-73249647D01*
X174295664Y-73236932D01*
X174211281Y-73207773D01*
X174209077Y-73206599D01*
X174128848Y-73137328D01*
X174069449Y-73039329D01*
X174046444Y-72938912D01*
X174065592Y-72883509D01*
X174114012Y-72813403D01*
X174142400Y-72782288D01*
X174220465Y-72717106D01*
X174295002Y-72689592D01*
X174342777Y-72686333D01*
X174449983Y-72711660D01*
G36*
X170414757Y-72486081D02*
G01*
X170524926Y-72549458D01*
X170535931Y-72559920D01*
X170580472Y-72619712D01*
X170600213Y-72695687D01*
X170603333Y-72767408D01*
X170598873Y-72881226D01*
X170579983Y-72955468D01*
X170538402Y-73006663D01*
X170465865Y-73051343D01*
X170459865Y-73054424D01*
X170335295Y-73098822D01*
X170206357Y-73100933D01*
X170103653Y-73078419D01*
X170004954Y-73026069D01*
X169946320Y-72936219D01*
X169926038Y-72806179D01*
X169926000Y-72799222D01*
X169941231Y-72675562D01*
X169992534Y-72587196D01*
X170088321Y-72522234D01*
X170136402Y-72501871D01*
X170282006Y-72469748D01*
X170414757Y-72486081D01*
X170414757Y-72486081D01*
G37*
X170414757Y-72486081D02*
X170524926Y-72549458D01*
X170535931Y-72559920D01*
X170580472Y-72619712D01*
X170600213Y-72695687D01*
X170603333Y-72767408D01*
X170598873Y-72881226D01*
X170579983Y-72955468D01*
X170538402Y-73006663D01*
X170465865Y-73051343D01*
X170459865Y-73054424D01*
X170335295Y-73098822D01*
X170206357Y-73100933D01*
X170103653Y-73078419D01*
X170004954Y-73026069D01*
X169946320Y-72936219D01*
X169926038Y-72806179D01*
X169926000Y-72799222D01*
X169941231Y-72675562D01*
X169992534Y-72587196D01*
X170088321Y-72522234D01*
X170136402Y-72501871D01*
X170282006Y-72469748D01*
X170414757Y-72486081D01*
D14*
X49276000Y-41910000D02*
G75*
G03X49276000Y-41910000I-2286000J0D01*
G01*
X49276000Y-102870000D02*
G75*
G03X49276000Y-102870000I-2286000J0D01*
G01*
X181356000Y-102870000D02*
G75*
G03X181356000Y-102870000I-2286000J0D01*
G01*
X181356000Y-41910000D02*
G75*
G03X181356000Y-41910000I-2286000J0D01*
G01*
X65770000Y-65980000D02*
G75*
G02X63770000Y-65980000I-1000000J0D01*
G01*
X63770000Y-65980000D02*
X62120000Y-65980000D01*
X62120000Y-65980000D02*
X62120000Y-86420000D01*
X62120000Y-86420000D02*
X67420000Y-86420000D01*
X67420000Y-86420000D02*
X67420000Y-65980000D01*
X67420000Y-65980000D02*
X65770000Y-65980000D01*
X154820000Y-73650000D02*
X154820000Y-73520000D01*
X154820000Y-73520000D02*
X160140000Y-73520000D01*
X160140000Y-73520000D02*
X160140000Y-73650000D01*
X154820000Y-76210000D02*
X154820000Y-76340000D01*
X154820000Y-76340000D02*
X160140000Y-76340000D01*
X160140000Y-76340000D02*
X160140000Y-76210000D01*
X155660000Y-73520000D02*
X155660000Y-76340000D01*
D11*
X60130000Y-97860000D02*
X64330000Y-97860000D01*
X64330000Y-97860000D02*
X64330000Y-100260000D01*
X64330000Y-100260000D02*
X60130000Y-100260000D01*
X60130000Y-100260000D02*
X60130000Y-97860000D01*
X64330000Y-55810000D02*
X60130000Y-55810000D01*
X60130000Y-55810000D02*
X60130000Y-53410000D01*
X60130000Y-53410000D02*
X64330000Y-53410000D01*
X64330000Y-53410000D02*
X64330000Y-55810000D01*
X64330000Y-51365000D02*
X60130000Y-51365000D01*
X60130000Y-51365000D02*
X60130000Y-48965000D01*
X60130000Y-48965000D02*
X64330000Y-48965000D01*
X64330000Y-48965000D02*
X64330000Y-51365000D01*
X64330000Y-46920000D02*
X60130000Y-46920000D01*
X60130000Y-46920000D02*
X60130000Y-44520000D01*
X60130000Y-44520000D02*
X64330000Y-44520000D01*
X64330000Y-44520000D02*
X64330000Y-46920000D01*
D14*
X176920000Y-55130000D02*
X176920000Y-53930000D01*
X178680000Y-53930000D02*
X178680000Y-55130000D01*
X48650000Y-55130000D02*
X48650000Y-53930000D01*
X50410000Y-53930000D02*
X50410000Y-55130000D01*
X126610000Y-97270000D02*
X126610000Y-98470000D01*
X124850000Y-98470000D02*
X124850000Y-97270000D01*
X126610000Y-66790000D02*
X126610000Y-67990000D01*
X124850000Y-67990000D02*
X124850000Y-66790000D01*
X126610000Y-51550000D02*
X126610000Y-52750000D01*
X124850000Y-52750000D02*
X124850000Y-51550000D01*
X83430000Y-97270000D02*
X83430000Y-98470000D01*
X81670000Y-98470000D02*
X81670000Y-97270000D01*
X83430000Y-81395000D02*
X83430000Y-82595000D01*
X81670000Y-82595000D02*
X81670000Y-81395000D01*
X83430000Y-66790000D02*
X83430000Y-67990000D01*
X81670000Y-67990000D02*
X81670000Y-66790000D01*
X83430000Y-51550000D02*
X83430000Y-52750000D01*
X81670000Y-52750000D02*
X81670000Y-51550000D01*
X126610000Y-82030000D02*
X126610000Y-83230000D01*
X124850000Y-83230000D02*
X124850000Y-82030000D01*
X127530000Y-89590000D02*
X123930000Y-89590000D01*
X127568478Y-89601522D02*
G75*
G02X125730000Y-94040000I-1838478J-1838478D01*
G01*
X123891522Y-89601522D02*
G75*
G03X125730000Y-94040000I1838478J-1838478D01*
G01*
X127530000Y-59110000D02*
X123930000Y-59110000D01*
X127568478Y-59121522D02*
G75*
G02X125730000Y-63560000I-1838478J-1838478D01*
G01*
X123891522Y-59121522D02*
G75*
G03X125730000Y-63560000I1838478J-1838478D01*
G01*
X127530000Y-43870000D02*
X123930000Y-43870000D01*
X127568478Y-43881522D02*
G75*
G02X125730000Y-48320000I-1838478J-1838478D01*
G01*
X123891522Y-43881522D02*
G75*
G03X125730000Y-48320000I1838478J-1838478D01*
G01*
X84350000Y-89590000D02*
X80750000Y-89590000D01*
X84388478Y-89601522D02*
G75*
G02X82550000Y-94040000I-1838478J-1838478D01*
G01*
X80711522Y-89601522D02*
G75*
G03X82550000Y-94040000I1838478J-1838478D01*
G01*
X84350000Y-74350000D02*
X80750000Y-74350000D01*
X84388478Y-74361522D02*
G75*
G02X82550000Y-78800000I-1838478J-1838478D01*
G01*
X80711522Y-74361522D02*
G75*
G03X82550000Y-78800000I1838478J-1838478D01*
G01*
X84350000Y-59110000D02*
X80750000Y-59110000D01*
X84388478Y-59121522D02*
G75*
G02X82550000Y-63560000I-1838478J-1838478D01*
G01*
X80711522Y-59121522D02*
G75*
G03X82550000Y-63560000I1838478J-1838478D01*
G01*
X84350000Y-43870000D02*
X80750000Y-43870000D01*
X84388478Y-43881522D02*
G75*
G02X82550000Y-48320000I-1838478J-1838478D01*
G01*
X80711522Y-43881522D02*
G75*
G03X82550000Y-48320000I1838478J-1838478D01*
G01*
X127530000Y-74350000D02*
X123930000Y-74350000D01*
X127568478Y-74361522D02*
G75*
G02X125730000Y-78800000I-1838478J-1838478D01*
G01*
X123891522Y-74361522D02*
G75*
G03X125730000Y-78800000I1838478J-1838478D01*
G01*
X162560000Y-99060000D02*
X152400000Y-99060000D01*
X162560000Y-100330000D02*
X162560000Y-92710000D01*
X162560000Y-92710000D02*
X152400000Y-92710000D01*
X152400000Y-92710000D02*
X152400000Y-100330000D01*
X152400000Y-100330000D02*
X162560000Y-100330000D01*
X162560000Y-68580000D02*
X152400000Y-68580000D01*
X162560000Y-69850000D02*
X162560000Y-62230000D01*
X162560000Y-62230000D02*
X152400000Y-62230000D01*
X152400000Y-62230000D02*
X152400000Y-69850000D01*
X152400000Y-69850000D02*
X162560000Y-69850000D01*
X162560000Y-53340000D02*
X152400000Y-53340000D01*
X162560000Y-54610000D02*
X162560000Y-46990000D01*
X162560000Y-46990000D02*
X152400000Y-46990000D01*
X152400000Y-46990000D02*
X152400000Y-54610000D01*
X152400000Y-54610000D02*
X162560000Y-54610000D01*
X119380000Y-99060000D02*
X109220000Y-99060000D01*
X119380000Y-100330000D02*
X119380000Y-92710000D01*
X119380000Y-92710000D02*
X109220000Y-92710000D01*
X109220000Y-92710000D02*
X109220000Y-100330000D01*
X109220000Y-100330000D02*
X119380000Y-100330000D01*
X119380000Y-83820000D02*
X109220000Y-83820000D01*
X119380000Y-85090000D02*
X119380000Y-77470000D01*
X119380000Y-77470000D02*
X109220000Y-77470000D01*
X109220000Y-77470000D02*
X109220000Y-85090000D01*
X109220000Y-85090000D02*
X119380000Y-85090000D01*
X119380000Y-68580000D02*
X109220000Y-68580000D01*
X119380000Y-69850000D02*
X119380000Y-62230000D01*
X119380000Y-62230000D02*
X109220000Y-62230000D01*
X109220000Y-62230000D02*
X109220000Y-69850000D01*
X109220000Y-69850000D02*
X119380000Y-69850000D01*
X119380000Y-53340000D02*
X109220000Y-53340000D01*
X119380000Y-54610000D02*
X119380000Y-46990000D01*
X119380000Y-46990000D02*
X109220000Y-46990000D01*
X109220000Y-46990000D02*
X109220000Y-54610000D01*
X109220000Y-54610000D02*
X119380000Y-54610000D01*
X162560000Y-83820000D02*
X152400000Y-83820000D01*
X162560000Y-85090000D02*
X162560000Y-77470000D01*
X162560000Y-77470000D02*
X152400000Y-77470000D01*
X152400000Y-77470000D02*
X152400000Y-85090000D01*
X152400000Y-85090000D02*
X162560000Y-85090000D01*
D11*
X129540000Y-100330000D02*
X129540000Y-90170000D01*
X149860000Y-100330000D02*
X129540000Y-100330000D01*
X149860000Y-90170000D02*
X149860000Y-100330000D01*
X129540000Y-90170000D02*
X149860000Y-90170000D01*
X129540000Y-69850000D02*
X129540000Y-59690000D01*
X149860000Y-69850000D02*
X129540000Y-69850000D01*
X149860000Y-59690000D02*
X149860000Y-69850000D01*
X129540000Y-59690000D02*
X149860000Y-59690000D01*
X129540000Y-54610000D02*
X129540000Y-44450000D01*
X149860000Y-54610000D02*
X129540000Y-54610000D01*
X149860000Y-44450000D02*
X149860000Y-54610000D01*
X129540000Y-44450000D02*
X149860000Y-44450000D01*
X86360000Y-100330000D02*
X86360000Y-90170000D01*
X106680000Y-100330000D02*
X86360000Y-100330000D01*
X106680000Y-90170000D02*
X106680000Y-100330000D01*
X86360000Y-90170000D02*
X106680000Y-90170000D01*
X86360000Y-85090000D02*
X86360000Y-74930000D01*
X106680000Y-85090000D02*
X86360000Y-85090000D01*
X106680000Y-74930000D02*
X106680000Y-85090000D01*
X86360000Y-74930000D02*
X106680000Y-74930000D01*
X86360000Y-69850000D02*
X86360000Y-59690000D01*
X106680000Y-69850000D02*
X86360000Y-69850000D01*
X106680000Y-59690000D02*
X106680000Y-69850000D01*
X86360000Y-59690000D02*
X106680000Y-59690000D01*
X86360000Y-54610000D02*
X86360000Y-44450000D01*
X106680000Y-54610000D02*
X86360000Y-54610000D01*
X106680000Y-44450000D02*
X106680000Y-54610000D01*
X86360000Y-44450000D02*
X106680000Y-44450000D01*
X129540000Y-85090000D02*
X129540000Y-74930000D01*
X149860000Y-85090000D02*
X129540000Y-85090000D01*
X149860000Y-74930000D02*
X149860000Y-85090000D01*
X129540000Y-74930000D02*
X149860000Y-74930000D01*
D14*
X52010000Y-97730000D02*
X52010000Y-100390000D01*
X54610000Y-97730000D02*
X52010000Y-97730000D01*
X54610000Y-100390000D02*
X52010000Y-100390000D01*
X54610000Y-97730000D02*
X54610000Y-100390000D01*
X55880000Y-97730000D02*
X57210000Y-97730000D01*
X57210000Y-97730000D02*
X57210000Y-99060000D01*
X175260000Y-99060000D02*
X165100000Y-99060000D01*
X175260000Y-100330000D02*
X175260000Y-92710000D01*
X175260000Y-92710000D02*
X165100000Y-92710000D01*
X165100000Y-92710000D02*
X165100000Y-100330000D01*
X165100000Y-100330000D02*
X175260000Y-100330000D01*
X175260000Y-49530000D02*
X165100000Y-49530000D01*
X175260000Y-50800000D02*
X175260000Y-43180000D01*
X175260000Y-43180000D02*
X165100000Y-43180000D01*
X165100000Y-43180000D02*
X165100000Y-50800000D01*
X165100000Y-50800000D02*
X175260000Y-50800000D01*
X52010000Y-44390000D02*
X52010000Y-47050000D01*
X54610000Y-44390000D02*
X52010000Y-44390000D01*
X54610000Y-47050000D02*
X52010000Y-47050000D01*
X54610000Y-44390000D02*
X54610000Y-47050000D01*
X55880000Y-44390000D02*
X57210000Y-44390000D01*
X57210000Y-44390000D02*
X57210000Y-45720000D01*
X73720000Y-100390000D02*
X73720000Y-97730000D01*
X68580000Y-100390000D02*
X73720000Y-100390000D01*
X68580000Y-97730000D02*
X73720000Y-97730000D01*
X68580000Y-100390000D02*
X68580000Y-97730000D01*
X67310000Y-100390000D02*
X65980000Y-100390000D01*
X65980000Y-100390000D02*
X65980000Y-99060000D01*
X73720000Y-47050000D02*
X73720000Y-44390000D01*
X68580000Y-47050000D02*
X73720000Y-47050000D01*
X68580000Y-44390000D02*
X73720000Y-44390000D01*
X68580000Y-47050000D02*
X68580000Y-44390000D01*
X67310000Y-47050000D02*
X65980000Y-47050000D01*
X65980000Y-47050000D02*
X65980000Y-45720000D01*
X178550000Y-47340000D02*
X178550000Y-50540000D01*
X177050000Y-50540000D02*
X177050000Y-47340000D01*
X177050000Y-50540000D02*
X178550000Y-50540000D01*
X50280000Y-47475000D02*
X50280000Y-50675000D01*
X48780000Y-50675000D02*
X48780000Y-47475000D01*
X48780000Y-50675000D02*
X50280000Y-50675000D01*
X154820000Y-88890000D02*
X154820000Y-88760000D01*
X154820000Y-88760000D02*
X160140000Y-88760000D01*
X160140000Y-88760000D02*
X160140000Y-88890000D01*
X154820000Y-91450000D02*
X154820000Y-91580000D01*
X154820000Y-91580000D02*
X160140000Y-91580000D01*
X160140000Y-91580000D02*
X160140000Y-91450000D01*
X155660000Y-88760000D02*
X155660000Y-91580000D01*
X154820000Y-58410000D02*
X154820000Y-58280000D01*
X154820000Y-58280000D02*
X160140000Y-58280000D01*
X160140000Y-58280000D02*
X160140000Y-58410000D01*
X154820000Y-60970000D02*
X154820000Y-61100000D01*
X154820000Y-61100000D02*
X160140000Y-61100000D01*
X160140000Y-61100000D02*
X160140000Y-60970000D01*
X155660000Y-58280000D02*
X155660000Y-61100000D01*
X154820000Y-43170000D02*
X154820000Y-43040000D01*
X154820000Y-43040000D02*
X160140000Y-43040000D01*
X160140000Y-43040000D02*
X160140000Y-43170000D01*
X154820000Y-45730000D02*
X154820000Y-45860000D01*
X154820000Y-45860000D02*
X160140000Y-45860000D01*
X160140000Y-45860000D02*
X160140000Y-45730000D01*
X155660000Y-43040000D02*
X155660000Y-45860000D01*
X111640000Y-88890000D02*
X111640000Y-88760000D01*
X111640000Y-88760000D02*
X116960000Y-88760000D01*
X116960000Y-88760000D02*
X116960000Y-88890000D01*
X111640000Y-91450000D02*
X111640000Y-91580000D01*
X111640000Y-91580000D02*
X116960000Y-91580000D01*
X116960000Y-91580000D02*
X116960000Y-91450000D01*
X112480000Y-88760000D02*
X112480000Y-91580000D01*
X111640000Y-73650000D02*
X111640000Y-73520000D01*
X111640000Y-73520000D02*
X116960000Y-73520000D01*
X116960000Y-73520000D02*
X116960000Y-73650000D01*
X111640000Y-76210000D02*
X111640000Y-76340000D01*
X111640000Y-76340000D02*
X116960000Y-76340000D01*
X116960000Y-76340000D02*
X116960000Y-76210000D01*
X112480000Y-73520000D02*
X112480000Y-76340000D01*
X111640000Y-58410000D02*
X111640000Y-58280000D01*
X111640000Y-58280000D02*
X116960000Y-58280000D01*
X116960000Y-58280000D02*
X116960000Y-58410000D01*
X111640000Y-60970000D02*
X111640000Y-61100000D01*
X111640000Y-61100000D02*
X116960000Y-61100000D01*
X116960000Y-61100000D02*
X116960000Y-60970000D01*
X112480000Y-58280000D02*
X112480000Y-61100000D01*
X111640000Y-43170000D02*
X111640000Y-43040000D01*
X111640000Y-43040000D02*
X116960000Y-43040000D01*
X116960000Y-43040000D02*
X116960000Y-43170000D01*
X111640000Y-45730000D02*
X111640000Y-45860000D01*
X111640000Y-45860000D02*
X116960000Y-45860000D01*
X116960000Y-45860000D02*
X116960000Y-45730000D01*
X112480000Y-43040000D02*
X112480000Y-45860000D01*
X72910000Y-66460000D02*
X71910000Y-66460000D01*
X71910000Y-68160000D02*
X72910000Y-68160000D01*
X71890000Y-78320000D02*
X72890000Y-78320000D01*
X72890000Y-76620000D02*
X71890000Y-76620000D01*
D11*
X64008095Y-64432380D02*
X64008095Y-65241904D01*
X64055714Y-65337142D01*
X64103333Y-65384761D01*
X64198571Y-65432380D01*
X64389047Y-65432380D01*
X64484285Y-65384761D01*
X64531904Y-65337142D01*
X64579523Y-65241904D01*
X64579523Y-64432380D01*
X65579523Y-65432380D02*
X65008095Y-65432380D01*
X65293809Y-65432380D02*
X65293809Y-64432380D01*
X65198571Y-64575238D01*
X65103333Y-64670476D01*
X65008095Y-64718095D01*
X156741904Y-75382380D02*
X156741904Y-74382380D01*
X156980000Y-74382380D01*
X157122857Y-74430000D01*
X157218095Y-74525238D01*
X157265714Y-74620476D01*
X157313333Y-74810952D01*
X157313333Y-74953809D01*
X157265714Y-75144285D01*
X157218095Y-75239523D01*
X157122857Y-75334761D01*
X156980000Y-75382380D01*
X156741904Y-75382380D01*
X158265714Y-75382380D02*
X157694285Y-75382380D01*
X157980000Y-75382380D02*
X157980000Y-74382380D01*
X157884761Y-74525238D01*
X157789523Y-74620476D01*
X157694285Y-74668095D01*
X59682380Y-97262380D02*
X59682380Y-96262380D01*
X59682380Y-97214761D02*
X59587142Y-97262380D01*
X59396666Y-97262380D01*
X59301428Y-97214761D01*
X59253809Y-97167142D01*
X59206190Y-97071904D01*
X59206190Y-96786190D01*
X59253809Y-96690952D01*
X59301428Y-96643333D01*
X59396666Y-96595714D01*
X59587142Y-96595714D01*
X59682380Y-96643333D01*
X60587142Y-97262380D02*
X60587142Y-96738571D01*
X60539523Y-96643333D01*
X60444285Y-96595714D01*
X60253809Y-96595714D01*
X60158571Y-96643333D01*
X60587142Y-97214761D02*
X60491904Y-97262380D01*
X60253809Y-97262380D01*
X60158571Y-97214761D01*
X60110952Y-97119523D01*
X60110952Y-97024285D01*
X60158571Y-96929047D01*
X60253809Y-96881428D01*
X60491904Y-96881428D01*
X60587142Y-96833809D01*
X60920476Y-96595714D02*
X61301428Y-96595714D01*
X61063333Y-96262380D02*
X61063333Y-97119523D01*
X61110952Y-97214761D01*
X61206190Y-97262380D01*
X61301428Y-97262380D01*
X62063333Y-97262380D02*
X62063333Y-96738571D01*
X62015714Y-96643333D01*
X61920476Y-96595714D01*
X61730000Y-96595714D01*
X61634761Y-96643333D01*
X62063333Y-97214761D02*
X61968095Y-97262380D01*
X61730000Y-97262380D01*
X61634761Y-97214761D01*
X61587142Y-97119523D01*
X61587142Y-97024285D01*
X61634761Y-96929047D01*
X61730000Y-96881428D01*
X61968095Y-96881428D01*
X62063333Y-96833809D01*
X63444285Y-97262380D02*
X63349047Y-97214761D01*
X63301428Y-97167142D01*
X63253809Y-97071904D01*
X63253809Y-96786190D01*
X63301428Y-96690952D01*
X63349047Y-96643333D01*
X63444285Y-96595714D01*
X63587142Y-96595714D01*
X63682380Y-96643333D01*
X63730000Y-96690952D01*
X63777619Y-96786190D01*
X63777619Y-97071904D01*
X63730000Y-97167142D01*
X63682380Y-97214761D01*
X63587142Y-97262380D01*
X63444285Y-97262380D01*
X64634761Y-96595714D02*
X64634761Y-97262380D01*
X64206190Y-96595714D02*
X64206190Y-97119523D01*
X64253809Y-97214761D01*
X64349047Y-97262380D01*
X64491904Y-97262380D01*
X64587142Y-97214761D01*
X64634761Y-97167142D01*
X64968095Y-96595714D02*
X65349047Y-96595714D01*
X65110952Y-96262380D02*
X65110952Y-97119523D01*
X65158571Y-97214761D01*
X65253809Y-97262380D01*
X65349047Y-97262380D01*
X60730000Y-52776380D02*
X60634761Y-52728761D01*
X60587142Y-52633523D01*
X60587142Y-51776380D01*
X61539523Y-52776380D02*
X61539523Y-52252571D01*
X61491904Y-52157333D01*
X61396666Y-52109714D01*
X61206190Y-52109714D01*
X61110952Y-52157333D01*
X61539523Y-52728761D02*
X61444285Y-52776380D01*
X61206190Y-52776380D01*
X61110952Y-52728761D01*
X61063333Y-52633523D01*
X61063333Y-52538285D01*
X61110952Y-52443047D01*
X61206190Y-52395428D01*
X61444285Y-52395428D01*
X61539523Y-52347809D01*
X61872857Y-52109714D02*
X62253809Y-52109714D01*
X62015714Y-51776380D02*
X62015714Y-52633523D01*
X62063333Y-52728761D01*
X62158571Y-52776380D01*
X62253809Y-52776380D01*
X63015714Y-52728761D02*
X62920476Y-52776380D01*
X62730000Y-52776380D01*
X62634761Y-52728761D01*
X62587142Y-52681142D01*
X62539523Y-52585904D01*
X62539523Y-52300190D01*
X62587142Y-52204952D01*
X62634761Y-52157333D01*
X62730000Y-52109714D01*
X62920476Y-52109714D01*
X63015714Y-52157333D01*
X63444285Y-52776380D02*
X63444285Y-51776380D01*
X63872857Y-52776380D02*
X63872857Y-52252571D01*
X63825238Y-52157333D01*
X63730000Y-52109714D01*
X63587142Y-52109714D01*
X63491904Y-52157333D01*
X63444285Y-52204952D01*
X60920476Y-48410761D02*
X60825238Y-48458380D01*
X60634761Y-48458380D01*
X60539523Y-48410761D01*
X60491904Y-48363142D01*
X60444285Y-48267904D01*
X60444285Y-47982190D01*
X60491904Y-47886952D01*
X60539523Y-47839333D01*
X60634761Y-47791714D01*
X60825238Y-47791714D01*
X60920476Y-47839333D01*
X61491904Y-48458380D02*
X61396666Y-48410761D01*
X61349047Y-48315523D01*
X61349047Y-47458380D01*
X62015714Y-48458380D02*
X61920476Y-48410761D01*
X61872857Y-48363142D01*
X61825238Y-48267904D01*
X61825238Y-47982190D01*
X61872857Y-47886952D01*
X61920476Y-47839333D01*
X62015714Y-47791714D01*
X62158571Y-47791714D01*
X62253809Y-47839333D01*
X62301428Y-47886952D01*
X62349047Y-47982190D01*
X62349047Y-48267904D01*
X62301428Y-48363142D01*
X62253809Y-48410761D01*
X62158571Y-48458380D01*
X62015714Y-48458380D01*
X63206190Y-48410761D02*
X63110952Y-48458380D01*
X62920476Y-48458380D01*
X62825238Y-48410761D01*
X62777619Y-48363142D01*
X62730000Y-48267904D01*
X62730000Y-47982190D01*
X62777619Y-47886952D01*
X62825238Y-47839333D01*
X62920476Y-47791714D01*
X63110952Y-47791714D01*
X63206190Y-47839333D01*
X63634761Y-48458380D02*
X63634761Y-47458380D01*
X63730000Y-48077428D02*
X64015714Y-48458380D01*
X64015714Y-47791714D02*
X63634761Y-48172666D01*
X60182380Y-43886380D02*
X60182380Y-42886380D01*
X60182380Y-43838761D02*
X60087142Y-43886380D01*
X59896666Y-43886380D01*
X59801428Y-43838761D01*
X59753809Y-43791142D01*
X59706190Y-43695904D01*
X59706190Y-43410190D01*
X59753809Y-43314952D01*
X59801428Y-43267333D01*
X59896666Y-43219714D01*
X60087142Y-43219714D01*
X60182380Y-43267333D01*
X61087142Y-43886380D02*
X61087142Y-43362571D01*
X61039523Y-43267333D01*
X60944285Y-43219714D01*
X60753809Y-43219714D01*
X60658571Y-43267333D01*
X61087142Y-43838761D02*
X60991904Y-43886380D01*
X60753809Y-43886380D01*
X60658571Y-43838761D01*
X60610952Y-43743523D01*
X60610952Y-43648285D01*
X60658571Y-43553047D01*
X60753809Y-43505428D01*
X60991904Y-43505428D01*
X61087142Y-43457809D01*
X61420476Y-43219714D02*
X61801428Y-43219714D01*
X61563333Y-42886380D02*
X61563333Y-43743523D01*
X61610952Y-43838761D01*
X61706190Y-43886380D01*
X61801428Y-43886380D01*
X62563333Y-43886380D02*
X62563333Y-43362571D01*
X62515714Y-43267333D01*
X62420476Y-43219714D01*
X62230000Y-43219714D01*
X62134761Y-43267333D01*
X62563333Y-43838761D02*
X62468095Y-43886380D01*
X62230000Y-43886380D01*
X62134761Y-43838761D01*
X62087142Y-43743523D01*
X62087142Y-43648285D01*
X62134761Y-43553047D01*
X62230000Y-43505428D01*
X62468095Y-43505428D01*
X62563333Y-43457809D01*
X63801428Y-43886380D02*
X63801428Y-43219714D01*
X63801428Y-42886380D02*
X63753809Y-42934000D01*
X63801428Y-42981619D01*
X63849047Y-42934000D01*
X63801428Y-42886380D01*
X63801428Y-42981619D01*
X64277619Y-43219714D02*
X64277619Y-43886380D01*
X64277619Y-43314952D02*
X64325238Y-43267333D01*
X64420476Y-43219714D01*
X64563333Y-43219714D01*
X64658571Y-43267333D01*
X64706190Y-43362571D01*
X64706190Y-43886380D01*
X179952380Y-55172857D02*
X179476190Y-55506190D01*
X179952380Y-55744285D02*
X178952380Y-55744285D01*
X178952380Y-55363333D01*
X179000000Y-55268095D01*
X179047619Y-55220476D01*
X179142857Y-55172857D01*
X179285714Y-55172857D01*
X179380952Y-55220476D01*
X179428571Y-55268095D01*
X179476190Y-55363333D01*
X179476190Y-55744285D01*
X179952380Y-54220476D02*
X179952380Y-54791904D01*
X179952380Y-54506190D02*
X178952380Y-54506190D01*
X179095238Y-54601428D01*
X179190476Y-54696666D01*
X179238095Y-54791904D01*
X178952380Y-53601428D02*
X178952380Y-53506190D01*
X179000000Y-53410952D01*
X179047619Y-53363333D01*
X179142857Y-53315714D01*
X179333333Y-53268095D01*
X179571428Y-53268095D01*
X179761904Y-53315714D01*
X179857142Y-53363333D01*
X179904761Y-53410952D01*
X179952380Y-53506190D01*
X179952380Y-53601428D01*
X179904761Y-53696666D01*
X179857142Y-53744285D01*
X179761904Y-53791904D01*
X179571428Y-53839523D01*
X179333333Y-53839523D01*
X179142857Y-53791904D01*
X179047619Y-53744285D01*
X179000000Y-53696666D01*
X178952380Y-53601428D01*
X48077380Y-54776666D02*
X47601190Y-55110000D01*
X48077380Y-55348095D02*
X47077380Y-55348095D01*
X47077380Y-54967142D01*
X47125000Y-54871904D01*
X47172619Y-54824285D01*
X47267857Y-54776666D01*
X47410714Y-54776666D01*
X47505952Y-54824285D01*
X47553571Y-54871904D01*
X47601190Y-54967142D01*
X47601190Y-55348095D01*
X48077380Y-54300476D02*
X48077380Y-54110000D01*
X48029761Y-54014761D01*
X47982142Y-53967142D01*
X47839285Y-53871904D01*
X47648809Y-53824285D01*
X47267857Y-53824285D01*
X47172619Y-53871904D01*
X47125000Y-53919523D01*
X47077380Y-54014761D01*
X47077380Y-54205238D01*
X47125000Y-54300476D01*
X47172619Y-54348095D01*
X47267857Y-54395714D01*
X47505952Y-54395714D01*
X47601190Y-54348095D01*
X47648809Y-54300476D01*
X47696428Y-54205238D01*
X47696428Y-54014761D01*
X47648809Y-53919523D01*
X47601190Y-53871904D01*
X47505952Y-53824285D01*
X124482380Y-98036666D02*
X124006190Y-98370000D01*
X124482380Y-98608095D02*
X123482380Y-98608095D01*
X123482380Y-98227142D01*
X123530000Y-98131904D01*
X123577619Y-98084285D01*
X123672857Y-98036666D01*
X123815714Y-98036666D01*
X123910952Y-98084285D01*
X123958571Y-98131904D01*
X124006190Y-98227142D01*
X124006190Y-98608095D01*
X123910952Y-97465238D02*
X123863333Y-97560476D01*
X123815714Y-97608095D01*
X123720476Y-97655714D01*
X123672857Y-97655714D01*
X123577619Y-97608095D01*
X123530000Y-97560476D01*
X123482380Y-97465238D01*
X123482380Y-97274761D01*
X123530000Y-97179523D01*
X123577619Y-97131904D01*
X123672857Y-97084285D01*
X123720476Y-97084285D01*
X123815714Y-97131904D01*
X123863333Y-97179523D01*
X123910952Y-97274761D01*
X123910952Y-97465238D01*
X123958571Y-97560476D01*
X124006190Y-97608095D01*
X124101428Y-97655714D01*
X124291904Y-97655714D01*
X124387142Y-97608095D01*
X124434761Y-97560476D01*
X124482380Y-97465238D01*
X124482380Y-97274761D01*
X124434761Y-97179523D01*
X124387142Y-97131904D01*
X124291904Y-97084285D01*
X124101428Y-97084285D01*
X124006190Y-97131904D01*
X123958571Y-97179523D01*
X123910952Y-97274761D01*
X124482380Y-67556666D02*
X124006190Y-67890000D01*
X124482380Y-68128095D02*
X123482380Y-68128095D01*
X123482380Y-67747142D01*
X123530000Y-67651904D01*
X123577619Y-67604285D01*
X123672857Y-67556666D01*
X123815714Y-67556666D01*
X123910952Y-67604285D01*
X123958571Y-67651904D01*
X124006190Y-67747142D01*
X124006190Y-68128095D01*
X123482380Y-67223333D02*
X123482380Y-66556666D01*
X124482380Y-66985238D01*
X124482380Y-52316666D02*
X124006190Y-52650000D01*
X124482380Y-52888095D02*
X123482380Y-52888095D01*
X123482380Y-52507142D01*
X123530000Y-52411904D01*
X123577619Y-52364285D01*
X123672857Y-52316666D01*
X123815714Y-52316666D01*
X123910952Y-52364285D01*
X123958571Y-52411904D01*
X124006190Y-52507142D01*
X124006190Y-52888095D01*
X123482380Y-51459523D02*
X123482380Y-51650000D01*
X123530000Y-51745238D01*
X123577619Y-51792857D01*
X123720476Y-51888095D01*
X123910952Y-51935714D01*
X124291904Y-51935714D01*
X124387142Y-51888095D01*
X124434761Y-51840476D01*
X124482380Y-51745238D01*
X124482380Y-51554761D01*
X124434761Y-51459523D01*
X124387142Y-51411904D01*
X124291904Y-51364285D01*
X124053809Y-51364285D01*
X123958571Y-51411904D01*
X123910952Y-51459523D01*
X123863333Y-51554761D01*
X123863333Y-51745238D01*
X123910952Y-51840476D01*
X123958571Y-51888095D01*
X124053809Y-51935714D01*
X81302380Y-98036666D02*
X80826190Y-98370000D01*
X81302380Y-98608095D02*
X80302380Y-98608095D01*
X80302380Y-98227142D01*
X80350000Y-98131904D01*
X80397619Y-98084285D01*
X80492857Y-98036666D01*
X80635714Y-98036666D01*
X80730952Y-98084285D01*
X80778571Y-98131904D01*
X80826190Y-98227142D01*
X80826190Y-98608095D01*
X80302380Y-97131904D02*
X80302380Y-97608095D01*
X80778571Y-97655714D01*
X80730952Y-97608095D01*
X80683333Y-97512857D01*
X80683333Y-97274761D01*
X80730952Y-97179523D01*
X80778571Y-97131904D01*
X80873809Y-97084285D01*
X81111904Y-97084285D01*
X81207142Y-97131904D01*
X81254761Y-97179523D01*
X81302380Y-97274761D01*
X81302380Y-97512857D01*
X81254761Y-97608095D01*
X81207142Y-97655714D01*
X81302380Y-82161666D02*
X80826190Y-82495000D01*
X81302380Y-82733095D02*
X80302380Y-82733095D01*
X80302380Y-82352142D01*
X80350000Y-82256904D01*
X80397619Y-82209285D01*
X80492857Y-82161666D01*
X80635714Y-82161666D01*
X80730952Y-82209285D01*
X80778571Y-82256904D01*
X80826190Y-82352142D01*
X80826190Y-82733095D01*
X80635714Y-81304523D02*
X81302380Y-81304523D01*
X80254761Y-81542619D02*
X80969047Y-81780714D01*
X80969047Y-81161666D01*
X81302380Y-67556666D02*
X80826190Y-67890000D01*
X81302380Y-68128095D02*
X80302380Y-68128095D01*
X80302380Y-67747142D01*
X80350000Y-67651904D01*
X80397619Y-67604285D01*
X80492857Y-67556666D01*
X80635714Y-67556666D01*
X80730952Y-67604285D01*
X80778571Y-67651904D01*
X80826190Y-67747142D01*
X80826190Y-68128095D01*
X80302380Y-67223333D02*
X80302380Y-66604285D01*
X80683333Y-66937619D01*
X80683333Y-66794761D01*
X80730952Y-66699523D01*
X80778571Y-66651904D01*
X80873809Y-66604285D01*
X81111904Y-66604285D01*
X81207142Y-66651904D01*
X81254761Y-66699523D01*
X81302380Y-66794761D01*
X81302380Y-67080476D01*
X81254761Y-67175714D01*
X81207142Y-67223333D01*
X81302380Y-52316666D02*
X80826190Y-52650000D01*
X81302380Y-52888095D02*
X80302380Y-52888095D01*
X80302380Y-52507142D01*
X80350000Y-52411904D01*
X80397619Y-52364285D01*
X80492857Y-52316666D01*
X80635714Y-52316666D01*
X80730952Y-52364285D01*
X80778571Y-52411904D01*
X80826190Y-52507142D01*
X80826190Y-52888095D01*
X80397619Y-51935714D02*
X80350000Y-51888095D01*
X80302380Y-51792857D01*
X80302380Y-51554761D01*
X80350000Y-51459523D01*
X80397619Y-51411904D01*
X80492857Y-51364285D01*
X80588095Y-51364285D01*
X80730952Y-51411904D01*
X81302380Y-51983333D01*
X81302380Y-51364285D01*
X124482380Y-82796666D02*
X124006190Y-83130000D01*
X124482380Y-83368095D02*
X123482380Y-83368095D01*
X123482380Y-82987142D01*
X123530000Y-82891904D01*
X123577619Y-82844285D01*
X123672857Y-82796666D01*
X123815714Y-82796666D01*
X123910952Y-82844285D01*
X123958571Y-82891904D01*
X124006190Y-82987142D01*
X124006190Y-83368095D01*
X124482380Y-81844285D02*
X124482380Y-82415714D01*
X124482380Y-82130000D02*
X123482380Y-82130000D01*
X123625238Y-82225238D01*
X123720476Y-82320476D01*
X123768095Y-82415714D01*
X125634761Y-89447619D02*
X125539523Y-89400000D01*
X125444285Y-89304761D01*
X125301428Y-89161904D01*
X125206190Y-89114285D01*
X125110952Y-89114285D01*
X125158571Y-89352380D02*
X125063333Y-89304761D01*
X124968095Y-89209523D01*
X124920476Y-89019047D01*
X124920476Y-88685714D01*
X124968095Y-88495238D01*
X125063333Y-88400000D01*
X125158571Y-88352380D01*
X125349047Y-88352380D01*
X125444285Y-88400000D01*
X125539523Y-88495238D01*
X125587142Y-88685714D01*
X125587142Y-89019047D01*
X125539523Y-89209523D01*
X125444285Y-89304761D01*
X125349047Y-89352380D01*
X125158571Y-89352380D01*
X126158571Y-88780952D02*
X126063333Y-88733333D01*
X126015714Y-88685714D01*
X125968095Y-88590476D01*
X125968095Y-88542857D01*
X126015714Y-88447619D01*
X126063333Y-88400000D01*
X126158571Y-88352380D01*
X126349047Y-88352380D01*
X126444285Y-88400000D01*
X126491904Y-88447619D01*
X126539523Y-88542857D01*
X126539523Y-88590476D01*
X126491904Y-88685714D01*
X126444285Y-88733333D01*
X126349047Y-88780952D01*
X126158571Y-88780952D01*
X126063333Y-88828571D01*
X126015714Y-88876190D01*
X125968095Y-88971428D01*
X125968095Y-89161904D01*
X126015714Y-89257142D01*
X126063333Y-89304761D01*
X126158571Y-89352380D01*
X126349047Y-89352380D01*
X126444285Y-89304761D01*
X126491904Y-89257142D01*
X126539523Y-89161904D01*
X126539523Y-88971428D01*
X126491904Y-88876190D01*
X126444285Y-88828571D01*
X126349047Y-88780952D01*
X125634761Y-58967619D02*
X125539523Y-58920000D01*
X125444285Y-58824761D01*
X125301428Y-58681904D01*
X125206190Y-58634285D01*
X125110952Y-58634285D01*
X125158571Y-58872380D02*
X125063333Y-58824761D01*
X124968095Y-58729523D01*
X124920476Y-58539047D01*
X124920476Y-58205714D01*
X124968095Y-58015238D01*
X125063333Y-57920000D01*
X125158571Y-57872380D01*
X125349047Y-57872380D01*
X125444285Y-57920000D01*
X125539523Y-58015238D01*
X125587142Y-58205714D01*
X125587142Y-58539047D01*
X125539523Y-58729523D01*
X125444285Y-58824761D01*
X125349047Y-58872380D01*
X125158571Y-58872380D01*
X125920476Y-57872380D02*
X126587142Y-57872380D01*
X126158571Y-58872380D01*
X125634761Y-43727619D02*
X125539523Y-43680000D01*
X125444285Y-43584761D01*
X125301428Y-43441904D01*
X125206190Y-43394285D01*
X125110952Y-43394285D01*
X125158571Y-43632380D02*
X125063333Y-43584761D01*
X124968095Y-43489523D01*
X124920476Y-43299047D01*
X124920476Y-42965714D01*
X124968095Y-42775238D01*
X125063333Y-42680000D01*
X125158571Y-42632380D01*
X125349047Y-42632380D01*
X125444285Y-42680000D01*
X125539523Y-42775238D01*
X125587142Y-42965714D01*
X125587142Y-43299047D01*
X125539523Y-43489523D01*
X125444285Y-43584761D01*
X125349047Y-43632380D01*
X125158571Y-43632380D01*
X126444285Y-42632380D02*
X126253809Y-42632380D01*
X126158571Y-42680000D01*
X126110952Y-42727619D01*
X126015714Y-42870476D01*
X125968095Y-43060952D01*
X125968095Y-43441904D01*
X126015714Y-43537142D01*
X126063333Y-43584761D01*
X126158571Y-43632380D01*
X126349047Y-43632380D01*
X126444285Y-43584761D01*
X126491904Y-43537142D01*
X126539523Y-43441904D01*
X126539523Y-43203809D01*
X126491904Y-43108571D01*
X126444285Y-43060952D01*
X126349047Y-43013333D01*
X126158571Y-43013333D01*
X126063333Y-43060952D01*
X126015714Y-43108571D01*
X125968095Y-43203809D01*
X82454761Y-89447619D02*
X82359523Y-89400000D01*
X82264285Y-89304761D01*
X82121428Y-89161904D01*
X82026190Y-89114285D01*
X81930952Y-89114285D01*
X81978571Y-89352380D02*
X81883333Y-89304761D01*
X81788095Y-89209523D01*
X81740476Y-89019047D01*
X81740476Y-88685714D01*
X81788095Y-88495238D01*
X81883333Y-88400000D01*
X81978571Y-88352380D01*
X82169047Y-88352380D01*
X82264285Y-88400000D01*
X82359523Y-88495238D01*
X82407142Y-88685714D01*
X82407142Y-89019047D01*
X82359523Y-89209523D01*
X82264285Y-89304761D01*
X82169047Y-89352380D01*
X81978571Y-89352380D01*
X83311904Y-88352380D02*
X82835714Y-88352380D01*
X82788095Y-88828571D01*
X82835714Y-88780952D01*
X82930952Y-88733333D01*
X83169047Y-88733333D01*
X83264285Y-88780952D01*
X83311904Y-88828571D01*
X83359523Y-88923809D01*
X83359523Y-89161904D01*
X83311904Y-89257142D01*
X83264285Y-89304761D01*
X83169047Y-89352380D01*
X82930952Y-89352380D01*
X82835714Y-89304761D01*
X82788095Y-89257142D01*
X82454761Y-74207619D02*
X82359523Y-74160000D01*
X82264285Y-74064761D01*
X82121428Y-73921904D01*
X82026190Y-73874285D01*
X81930952Y-73874285D01*
X81978571Y-74112380D02*
X81883333Y-74064761D01*
X81788095Y-73969523D01*
X81740476Y-73779047D01*
X81740476Y-73445714D01*
X81788095Y-73255238D01*
X81883333Y-73160000D01*
X81978571Y-73112380D01*
X82169047Y-73112380D01*
X82264285Y-73160000D01*
X82359523Y-73255238D01*
X82407142Y-73445714D01*
X82407142Y-73779047D01*
X82359523Y-73969523D01*
X82264285Y-74064761D01*
X82169047Y-74112380D01*
X81978571Y-74112380D01*
X83264285Y-73445714D02*
X83264285Y-74112380D01*
X83026190Y-73064761D02*
X82788095Y-73779047D01*
X83407142Y-73779047D01*
X82454761Y-58967619D02*
X82359523Y-58920000D01*
X82264285Y-58824761D01*
X82121428Y-58681904D01*
X82026190Y-58634285D01*
X81930952Y-58634285D01*
X81978571Y-58872380D02*
X81883333Y-58824761D01*
X81788095Y-58729523D01*
X81740476Y-58539047D01*
X81740476Y-58205714D01*
X81788095Y-58015238D01*
X81883333Y-57920000D01*
X81978571Y-57872380D01*
X82169047Y-57872380D01*
X82264285Y-57920000D01*
X82359523Y-58015238D01*
X82407142Y-58205714D01*
X82407142Y-58539047D01*
X82359523Y-58729523D01*
X82264285Y-58824761D01*
X82169047Y-58872380D01*
X81978571Y-58872380D01*
X82740476Y-57872380D02*
X83359523Y-57872380D01*
X83026190Y-58253333D01*
X83169047Y-58253333D01*
X83264285Y-58300952D01*
X83311904Y-58348571D01*
X83359523Y-58443809D01*
X83359523Y-58681904D01*
X83311904Y-58777142D01*
X83264285Y-58824761D01*
X83169047Y-58872380D01*
X82883333Y-58872380D01*
X82788095Y-58824761D01*
X82740476Y-58777142D01*
X82454761Y-43727619D02*
X82359523Y-43680000D01*
X82264285Y-43584761D01*
X82121428Y-43441904D01*
X82026190Y-43394285D01*
X81930952Y-43394285D01*
X81978571Y-43632380D02*
X81883333Y-43584761D01*
X81788095Y-43489523D01*
X81740476Y-43299047D01*
X81740476Y-42965714D01*
X81788095Y-42775238D01*
X81883333Y-42680000D01*
X81978571Y-42632380D01*
X82169047Y-42632380D01*
X82264285Y-42680000D01*
X82359523Y-42775238D01*
X82407142Y-42965714D01*
X82407142Y-43299047D01*
X82359523Y-43489523D01*
X82264285Y-43584761D01*
X82169047Y-43632380D01*
X81978571Y-43632380D01*
X82788095Y-42727619D02*
X82835714Y-42680000D01*
X82930952Y-42632380D01*
X83169047Y-42632380D01*
X83264285Y-42680000D01*
X83311904Y-42727619D01*
X83359523Y-42822857D01*
X83359523Y-42918095D01*
X83311904Y-43060952D01*
X82740476Y-43632380D01*
X83359523Y-43632380D01*
X125634761Y-74207619D02*
X125539523Y-74160000D01*
X125444285Y-74064761D01*
X125301428Y-73921904D01*
X125206190Y-73874285D01*
X125110952Y-73874285D01*
X125158571Y-74112380D02*
X125063333Y-74064761D01*
X124968095Y-73969523D01*
X124920476Y-73779047D01*
X124920476Y-73445714D01*
X124968095Y-73255238D01*
X125063333Y-73160000D01*
X125158571Y-73112380D01*
X125349047Y-73112380D01*
X125444285Y-73160000D01*
X125539523Y-73255238D01*
X125587142Y-73445714D01*
X125587142Y-73779047D01*
X125539523Y-73969523D01*
X125444285Y-74064761D01*
X125349047Y-74112380D01*
X125158571Y-74112380D01*
X126539523Y-74112380D02*
X125968095Y-74112380D01*
X126253809Y-74112380D02*
X126253809Y-73112380D01*
X126158571Y-73255238D01*
X126063333Y-73350476D01*
X125968095Y-73398095D01*
X157313333Y-94432380D02*
X156837142Y-94432380D01*
X156837142Y-93432380D01*
X157789523Y-93860952D02*
X157694285Y-93813333D01*
X157646666Y-93765714D01*
X157599047Y-93670476D01*
X157599047Y-93622857D01*
X157646666Y-93527619D01*
X157694285Y-93480000D01*
X157789523Y-93432380D01*
X157980000Y-93432380D01*
X158075238Y-93480000D01*
X158122857Y-93527619D01*
X158170476Y-93622857D01*
X158170476Y-93670476D01*
X158122857Y-93765714D01*
X158075238Y-93813333D01*
X157980000Y-93860952D01*
X157789523Y-93860952D01*
X157694285Y-93908571D01*
X157646666Y-93956190D01*
X157599047Y-94051428D01*
X157599047Y-94241904D01*
X157646666Y-94337142D01*
X157694285Y-94384761D01*
X157789523Y-94432380D01*
X157980000Y-94432380D01*
X158075238Y-94384761D01*
X158122857Y-94337142D01*
X158170476Y-94241904D01*
X158170476Y-94051428D01*
X158122857Y-93956190D01*
X158075238Y-93908571D01*
X157980000Y-93860952D01*
X157313333Y-63952380D02*
X156837142Y-63952380D01*
X156837142Y-62952380D01*
X157551428Y-62952380D02*
X158218095Y-62952380D01*
X157789523Y-63952380D01*
X157313333Y-48712380D02*
X156837142Y-48712380D01*
X156837142Y-47712380D01*
X158075238Y-47712380D02*
X157884761Y-47712380D01*
X157789523Y-47760000D01*
X157741904Y-47807619D01*
X157646666Y-47950476D01*
X157599047Y-48140952D01*
X157599047Y-48521904D01*
X157646666Y-48617142D01*
X157694285Y-48664761D01*
X157789523Y-48712380D01*
X157980000Y-48712380D01*
X158075238Y-48664761D01*
X158122857Y-48617142D01*
X158170476Y-48521904D01*
X158170476Y-48283809D01*
X158122857Y-48188571D01*
X158075238Y-48140952D01*
X157980000Y-48093333D01*
X157789523Y-48093333D01*
X157694285Y-48140952D01*
X157646666Y-48188571D01*
X157599047Y-48283809D01*
X114133333Y-94432380D02*
X113657142Y-94432380D01*
X113657142Y-93432380D01*
X114942857Y-93432380D02*
X114466666Y-93432380D01*
X114419047Y-93908571D01*
X114466666Y-93860952D01*
X114561904Y-93813333D01*
X114800000Y-93813333D01*
X114895238Y-93860952D01*
X114942857Y-93908571D01*
X114990476Y-94003809D01*
X114990476Y-94241904D01*
X114942857Y-94337142D01*
X114895238Y-94384761D01*
X114800000Y-94432380D01*
X114561904Y-94432380D01*
X114466666Y-94384761D01*
X114419047Y-94337142D01*
X114133333Y-79192380D02*
X113657142Y-79192380D01*
X113657142Y-78192380D01*
X114895238Y-78525714D02*
X114895238Y-79192380D01*
X114657142Y-78144761D02*
X114419047Y-78859047D01*
X115038095Y-78859047D01*
X114133333Y-63952380D02*
X113657142Y-63952380D01*
X113657142Y-62952380D01*
X114371428Y-62952380D02*
X114990476Y-62952380D01*
X114657142Y-63333333D01*
X114800000Y-63333333D01*
X114895238Y-63380952D01*
X114942857Y-63428571D01*
X114990476Y-63523809D01*
X114990476Y-63761904D01*
X114942857Y-63857142D01*
X114895238Y-63904761D01*
X114800000Y-63952380D01*
X114514285Y-63952380D01*
X114419047Y-63904761D01*
X114371428Y-63857142D01*
X114133333Y-48712380D02*
X113657142Y-48712380D01*
X113657142Y-47712380D01*
X114419047Y-47807619D02*
X114466666Y-47760000D01*
X114561904Y-47712380D01*
X114800000Y-47712380D01*
X114895238Y-47760000D01*
X114942857Y-47807619D01*
X114990476Y-47902857D01*
X114990476Y-47998095D01*
X114942857Y-48140952D01*
X114371428Y-48712380D01*
X114990476Y-48712380D01*
X157313333Y-79192380D02*
X156837142Y-79192380D01*
X156837142Y-78192380D01*
X158170476Y-79192380D02*
X157599047Y-79192380D01*
X157884761Y-79192380D02*
X157884761Y-78192380D01*
X157789523Y-78335238D01*
X157694285Y-78430476D01*
X157599047Y-78478095D01*
X128722380Y-95988095D02*
X127722380Y-95988095D01*
X128722380Y-95416666D02*
X128150952Y-95845238D01*
X127722380Y-95416666D02*
X128293809Y-95988095D01*
X128150952Y-94845238D02*
X128103333Y-94940476D01*
X128055714Y-94988095D01*
X127960476Y-95035714D01*
X127912857Y-95035714D01*
X127817619Y-94988095D01*
X127770000Y-94940476D01*
X127722380Y-94845238D01*
X127722380Y-94654761D01*
X127770000Y-94559523D01*
X127817619Y-94511904D01*
X127912857Y-94464285D01*
X127960476Y-94464285D01*
X128055714Y-94511904D01*
X128103333Y-94559523D01*
X128150952Y-94654761D01*
X128150952Y-94845238D01*
X128198571Y-94940476D01*
X128246190Y-94988095D01*
X128341428Y-95035714D01*
X128531904Y-95035714D01*
X128627142Y-94988095D01*
X128674761Y-94940476D01*
X128722380Y-94845238D01*
X128722380Y-94654761D01*
X128674761Y-94559523D01*
X128627142Y-94511904D01*
X128531904Y-94464285D01*
X128341428Y-94464285D01*
X128246190Y-94511904D01*
X128198571Y-94559523D01*
X128150952Y-94654761D01*
X128722380Y-65508095D02*
X127722380Y-65508095D01*
X128722380Y-64936666D02*
X128150952Y-65365238D01*
X127722380Y-64936666D02*
X128293809Y-65508095D01*
X127722380Y-64603333D02*
X127722380Y-63936666D01*
X128722380Y-64365238D01*
X128722380Y-50268095D02*
X127722380Y-50268095D01*
X128722380Y-49696666D02*
X128150952Y-50125238D01*
X127722380Y-49696666D02*
X128293809Y-50268095D01*
X127722380Y-48839523D02*
X127722380Y-49030000D01*
X127770000Y-49125238D01*
X127817619Y-49172857D01*
X127960476Y-49268095D01*
X128150952Y-49315714D01*
X128531904Y-49315714D01*
X128627142Y-49268095D01*
X128674761Y-49220476D01*
X128722380Y-49125238D01*
X128722380Y-48934761D01*
X128674761Y-48839523D01*
X128627142Y-48791904D01*
X128531904Y-48744285D01*
X128293809Y-48744285D01*
X128198571Y-48791904D01*
X128150952Y-48839523D01*
X128103333Y-48934761D01*
X128103333Y-49125238D01*
X128150952Y-49220476D01*
X128198571Y-49268095D01*
X128293809Y-49315714D01*
X85542380Y-95988095D02*
X84542380Y-95988095D01*
X85542380Y-95416666D02*
X84970952Y-95845238D01*
X84542380Y-95416666D02*
X85113809Y-95988095D01*
X84542380Y-94511904D02*
X84542380Y-94988095D01*
X85018571Y-95035714D01*
X84970952Y-94988095D01*
X84923333Y-94892857D01*
X84923333Y-94654761D01*
X84970952Y-94559523D01*
X85018571Y-94511904D01*
X85113809Y-94464285D01*
X85351904Y-94464285D01*
X85447142Y-94511904D01*
X85494761Y-94559523D01*
X85542380Y-94654761D01*
X85542380Y-94892857D01*
X85494761Y-94988095D01*
X85447142Y-95035714D01*
X85542380Y-80748095D02*
X84542380Y-80748095D01*
X85542380Y-80176666D02*
X84970952Y-80605238D01*
X84542380Y-80176666D02*
X85113809Y-80748095D01*
X84875714Y-79319523D02*
X85542380Y-79319523D01*
X84494761Y-79557619D02*
X85209047Y-79795714D01*
X85209047Y-79176666D01*
X85542380Y-65508095D02*
X84542380Y-65508095D01*
X85542380Y-64936666D02*
X84970952Y-65365238D01*
X84542380Y-64936666D02*
X85113809Y-65508095D01*
X84542380Y-64603333D02*
X84542380Y-63984285D01*
X84923333Y-64317619D01*
X84923333Y-64174761D01*
X84970952Y-64079523D01*
X85018571Y-64031904D01*
X85113809Y-63984285D01*
X85351904Y-63984285D01*
X85447142Y-64031904D01*
X85494761Y-64079523D01*
X85542380Y-64174761D01*
X85542380Y-64460476D01*
X85494761Y-64555714D01*
X85447142Y-64603333D01*
X85542380Y-50268095D02*
X84542380Y-50268095D01*
X85542380Y-49696666D02*
X84970952Y-50125238D01*
X84542380Y-49696666D02*
X85113809Y-50268095D01*
X84637619Y-49315714D02*
X84590000Y-49268095D01*
X84542380Y-49172857D01*
X84542380Y-48934761D01*
X84590000Y-48839523D01*
X84637619Y-48791904D01*
X84732857Y-48744285D01*
X84828095Y-48744285D01*
X84970952Y-48791904D01*
X85542380Y-49363333D01*
X85542380Y-48744285D01*
X128722380Y-80748095D02*
X127722380Y-80748095D01*
X128722380Y-80176666D02*
X128150952Y-80605238D01*
X127722380Y-80176666D02*
X128293809Y-80748095D01*
X128722380Y-79224285D02*
X128722380Y-79795714D01*
X128722380Y-79510000D02*
X127722380Y-79510000D01*
X127865238Y-79605238D01*
X127960476Y-79700476D01*
X128008095Y-79795714D01*
X57662380Y-99393333D02*
X58376666Y-99393333D01*
X58519523Y-99440952D01*
X58614761Y-99536190D01*
X58662380Y-99679047D01*
X58662380Y-99774285D01*
X57662380Y-98488571D02*
X57662380Y-98679047D01*
X57710000Y-98774285D01*
X57757619Y-98821904D01*
X57900476Y-98917142D01*
X58090952Y-98964761D01*
X58471904Y-98964761D01*
X58567142Y-98917142D01*
X58614761Y-98869523D01*
X58662380Y-98774285D01*
X58662380Y-98583809D01*
X58614761Y-98488571D01*
X58567142Y-98440952D01*
X58471904Y-98393333D01*
X58233809Y-98393333D01*
X58138571Y-98440952D01*
X58090952Y-98488571D01*
X58043333Y-98583809D01*
X58043333Y-98774285D01*
X58090952Y-98869523D01*
X58138571Y-98917142D01*
X58233809Y-98964761D01*
X169846666Y-93432380D02*
X169846666Y-94146666D01*
X169799047Y-94289523D01*
X169703809Y-94384761D01*
X169560952Y-94432380D01*
X169465714Y-94432380D01*
X170799047Y-93432380D02*
X170322857Y-93432380D01*
X170275238Y-93908571D01*
X170322857Y-93860952D01*
X170418095Y-93813333D01*
X170656190Y-93813333D01*
X170751428Y-93860952D01*
X170799047Y-93908571D01*
X170846666Y-94003809D01*
X170846666Y-94241904D01*
X170799047Y-94337142D01*
X170751428Y-94384761D01*
X170656190Y-94432380D01*
X170418095Y-94432380D01*
X170322857Y-94384761D01*
X170275238Y-94337142D01*
X169846666Y-43902380D02*
X169846666Y-44616666D01*
X169799047Y-44759523D01*
X169703809Y-44854761D01*
X169560952Y-44902380D01*
X169465714Y-44902380D01*
X170751428Y-44235714D02*
X170751428Y-44902380D01*
X170513333Y-43854761D02*
X170275238Y-44569047D01*
X170894285Y-44569047D01*
X57662380Y-46053333D02*
X58376666Y-46053333D01*
X58519523Y-46100952D01*
X58614761Y-46196190D01*
X58662380Y-46339047D01*
X58662380Y-46434285D01*
X57662380Y-45672380D02*
X57662380Y-45053333D01*
X58043333Y-45386666D01*
X58043333Y-45243809D01*
X58090952Y-45148571D01*
X58138571Y-45100952D01*
X58233809Y-45053333D01*
X58471904Y-45053333D01*
X58567142Y-45100952D01*
X58614761Y-45148571D01*
X58662380Y-45243809D01*
X58662380Y-45529523D01*
X58614761Y-45624761D01*
X58567142Y-45672380D01*
X64432380Y-99393333D02*
X65146666Y-99393333D01*
X65289523Y-99440952D01*
X65384761Y-99536190D01*
X65432380Y-99679047D01*
X65432380Y-99774285D01*
X64527619Y-98964761D02*
X64480000Y-98917142D01*
X64432380Y-98821904D01*
X64432380Y-98583809D01*
X64480000Y-98488571D01*
X64527619Y-98440952D01*
X64622857Y-98393333D01*
X64718095Y-98393333D01*
X64860952Y-98440952D01*
X65432380Y-99012380D01*
X65432380Y-98393333D01*
X64432380Y-46053333D02*
X65146666Y-46053333D01*
X65289523Y-46100952D01*
X65384761Y-46196190D01*
X65432380Y-46339047D01*
X65432380Y-46434285D01*
X65432380Y-45053333D02*
X65432380Y-45624761D01*
X65432380Y-45339047D02*
X64432380Y-45339047D01*
X64575238Y-45434285D01*
X64670476Y-45529523D01*
X64718095Y-45624761D01*
X180157380Y-49474285D02*
X179157380Y-49474285D01*
X179157380Y-49236190D01*
X179205000Y-49093333D01*
X179300238Y-48998095D01*
X179395476Y-48950476D01*
X179585952Y-48902857D01*
X179728809Y-48902857D01*
X179919285Y-48950476D01*
X180014523Y-48998095D01*
X180109761Y-49093333D01*
X180157380Y-49236190D01*
X180157380Y-49474285D01*
X180157380Y-47950476D02*
X180157380Y-48521904D01*
X180157380Y-48236190D02*
X179157380Y-48236190D01*
X179300238Y-48331428D01*
X179395476Y-48426666D01*
X179443095Y-48521904D01*
X179157380Y-47331428D02*
X179157380Y-47236190D01*
X179205000Y-47140952D01*
X179252619Y-47093333D01*
X179347857Y-47045714D01*
X179538333Y-46998095D01*
X179776428Y-46998095D01*
X179966904Y-47045714D01*
X180062142Y-47093333D01*
X180109761Y-47140952D01*
X180157380Y-47236190D01*
X180157380Y-47331428D01*
X180109761Y-47426666D01*
X180062142Y-47474285D01*
X179966904Y-47521904D01*
X179776428Y-47569523D01*
X179538333Y-47569523D01*
X179347857Y-47521904D01*
X179252619Y-47474285D01*
X179205000Y-47426666D01*
X179157380Y-47331428D01*
X48217380Y-49213095D02*
X47217380Y-49213095D01*
X47217380Y-48975000D01*
X47265000Y-48832142D01*
X47360238Y-48736904D01*
X47455476Y-48689285D01*
X47645952Y-48641666D01*
X47788809Y-48641666D01*
X47979285Y-48689285D01*
X48074523Y-48736904D01*
X48169761Y-48832142D01*
X48217380Y-48975000D01*
X48217380Y-49213095D01*
X48217380Y-48165476D02*
X48217380Y-47975000D01*
X48169761Y-47879761D01*
X48122142Y-47832142D01*
X47979285Y-47736904D01*
X47788809Y-47689285D01*
X47407857Y-47689285D01*
X47312619Y-47736904D01*
X47265000Y-47784523D01*
X47217380Y-47879761D01*
X47217380Y-48070238D01*
X47265000Y-48165476D01*
X47312619Y-48213095D01*
X47407857Y-48260714D01*
X47645952Y-48260714D01*
X47741190Y-48213095D01*
X47788809Y-48165476D01*
X47836428Y-48070238D01*
X47836428Y-47879761D01*
X47788809Y-47784523D01*
X47741190Y-47736904D01*
X47645952Y-47689285D01*
X156741904Y-90622380D02*
X156741904Y-89622380D01*
X156980000Y-89622380D01*
X157122857Y-89670000D01*
X157218095Y-89765238D01*
X157265714Y-89860476D01*
X157313333Y-90050952D01*
X157313333Y-90193809D01*
X157265714Y-90384285D01*
X157218095Y-90479523D01*
X157122857Y-90574761D01*
X156980000Y-90622380D01*
X156741904Y-90622380D01*
X157884761Y-90050952D02*
X157789523Y-90003333D01*
X157741904Y-89955714D01*
X157694285Y-89860476D01*
X157694285Y-89812857D01*
X157741904Y-89717619D01*
X157789523Y-89670000D01*
X157884761Y-89622380D01*
X158075238Y-89622380D01*
X158170476Y-89670000D01*
X158218095Y-89717619D01*
X158265714Y-89812857D01*
X158265714Y-89860476D01*
X158218095Y-89955714D01*
X158170476Y-90003333D01*
X158075238Y-90050952D01*
X157884761Y-90050952D01*
X157789523Y-90098571D01*
X157741904Y-90146190D01*
X157694285Y-90241428D01*
X157694285Y-90431904D01*
X157741904Y-90527142D01*
X157789523Y-90574761D01*
X157884761Y-90622380D01*
X158075238Y-90622380D01*
X158170476Y-90574761D01*
X158218095Y-90527142D01*
X158265714Y-90431904D01*
X158265714Y-90241428D01*
X158218095Y-90146190D01*
X158170476Y-90098571D01*
X158075238Y-90050952D01*
X156741904Y-60142380D02*
X156741904Y-59142380D01*
X156980000Y-59142380D01*
X157122857Y-59190000D01*
X157218095Y-59285238D01*
X157265714Y-59380476D01*
X157313333Y-59570952D01*
X157313333Y-59713809D01*
X157265714Y-59904285D01*
X157218095Y-59999523D01*
X157122857Y-60094761D01*
X156980000Y-60142380D01*
X156741904Y-60142380D01*
X157646666Y-59142380D02*
X158313333Y-59142380D01*
X157884761Y-60142380D01*
X156741904Y-44902380D02*
X156741904Y-43902380D01*
X156980000Y-43902380D01*
X157122857Y-43950000D01*
X157218095Y-44045238D01*
X157265714Y-44140476D01*
X157313333Y-44330952D01*
X157313333Y-44473809D01*
X157265714Y-44664285D01*
X157218095Y-44759523D01*
X157122857Y-44854761D01*
X156980000Y-44902380D01*
X156741904Y-44902380D01*
X158170476Y-43902380D02*
X157980000Y-43902380D01*
X157884761Y-43950000D01*
X157837142Y-43997619D01*
X157741904Y-44140476D01*
X157694285Y-44330952D01*
X157694285Y-44711904D01*
X157741904Y-44807142D01*
X157789523Y-44854761D01*
X157884761Y-44902380D01*
X158075238Y-44902380D01*
X158170476Y-44854761D01*
X158218095Y-44807142D01*
X158265714Y-44711904D01*
X158265714Y-44473809D01*
X158218095Y-44378571D01*
X158170476Y-44330952D01*
X158075238Y-44283333D01*
X157884761Y-44283333D01*
X157789523Y-44330952D01*
X157741904Y-44378571D01*
X157694285Y-44473809D01*
X113561904Y-90622380D02*
X113561904Y-89622380D01*
X113800000Y-89622380D01*
X113942857Y-89670000D01*
X114038095Y-89765238D01*
X114085714Y-89860476D01*
X114133333Y-90050952D01*
X114133333Y-90193809D01*
X114085714Y-90384285D01*
X114038095Y-90479523D01*
X113942857Y-90574761D01*
X113800000Y-90622380D01*
X113561904Y-90622380D01*
X115038095Y-89622380D02*
X114561904Y-89622380D01*
X114514285Y-90098571D01*
X114561904Y-90050952D01*
X114657142Y-90003333D01*
X114895238Y-90003333D01*
X114990476Y-90050952D01*
X115038095Y-90098571D01*
X115085714Y-90193809D01*
X115085714Y-90431904D01*
X115038095Y-90527142D01*
X114990476Y-90574761D01*
X114895238Y-90622380D01*
X114657142Y-90622380D01*
X114561904Y-90574761D01*
X114514285Y-90527142D01*
X113561904Y-75382380D02*
X113561904Y-74382380D01*
X113800000Y-74382380D01*
X113942857Y-74430000D01*
X114038095Y-74525238D01*
X114085714Y-74620476D01*
X114133333Y-74810952D01*
X114133333Y-74953809D01*
X114085714Y-75144285D01*
X114038095Y-75239523D01*
X113942857Y-75334761D01*
X113800000Y-75382380D01*
X113561904Y-75382380D01*
X114990476Y-74715714D02*
X114990476Y-75382380D01*
X114752380Y-74334761D02*
X114514285Y-75049047D01*
X115133333Y-75049047D01*
X113561904Y-60142380D02*
X113561904Y-59142380D01*
X113800000Y-59142380D01*
X113942857Y-59190000D01*
X114038095Y-59285238D01*
X114085714Y-59380476D01*
X114133333Y-59570952D01*
X114133333Y-59713809D01*
X114085714Y-59904285D01*
X114038095Y-59999523D01*
X113942857Y-60094761D01*
X113800000Y-60142380D01*
X113561904Y-60142380D01*
X114466666Y-59142380D02*
X115085714Y-59142380D01*
X114752380Y-59523333D01*
X114895238Y-59523333D01*
X114990476Y-59570952D01*
X115038095Y-59618571D01*
X115085714Y-59713809D01*
X115085714Y-59951904D01*
X115038095Y-60047142D01*
X114990476Y-60094761D01*
X114895238Y-60142380D01*
X114609523Y-60142380D01*
X114514285Y-60094761D01*
X114466666Y-60047142D01*
X113561904Y-44902380D02*
X113561904Y-43902380D01*
X113800000Y-43902380D01*
X113942857Y-43950000D01*
X114038095Y-44045238D01*
X114085714Y-44140476D01*
X114133333Y-44330952D01*
X114133333Y-44473809D01*
X114085714Y-44664285D01*
X114038095Y-44759523D01*
X113942857Y-44854761D01*
X113800000Y-44902380D01*
X113561904Y-44902380D01*
X114514285Y-43997619D02*
X114561904Y-43950000D01*
X114657142Y-43902380D01*
X114895238Y-43902380D01*
X114990476Y-43950000D01*
X115038095Y-43997619D01*
X115085714Y-44092857D01*
X115085714Y-44188095D01*
X115038095Y-44330952D01*
X114466666Y-44902380D01*
X115085714Y-44902380D01*
X72243333Y-65917142D02*
X72195714Y-65964761D01*
X72052857Y-66012380D01*
X71957619Y-66012380D01*
X71814761Y-65964761D01*
X71719523Y-65869523D01*
X71671904Y-65774285D01*
X71624285Y-65583809D01*
X71624285Y-65440952D01*
X71671904Y-65250476D01*
X71719523Y-65155238D01*
X71814761Y-65060000D01*
X71957619Y-65012380D01*
X72052857Y-65012380D01*
X72195714Y-65060000D01*
X72243333Y-65107619D01*
X72624285Y-65107619D02*
X72671904Y-65060000D01*
X72767142Y-65012380D01*
X73005238Y-65012380D01*
X73100476Y-65060000D01*
X73148095Y-65107619D01*
X73195714Y-65202857D01*
X73195714Y-65298095D01*
X73148095Y-65440952D01*
X72576666Y-66012380D01*
X73195714Y-66012380D01*
X72223333Y-79577142D02*
X72175714Y-79624761D01*
X72032857Y-79672380D01*
X71937619Y-79672380D01*
X71794761Y-79624761D01*
X71699523Y-79529523D01*
X71651904Y-79434285D01*
X71604285Y-79243809D01*
X71604285Y-79100952D01*
X71651904Y-78910476D01*
X71699523Y-78815238D01*
X71794761Y-78720000D01*
X71937619Y-78672380D01*
X72032857Y-78672380D01*
X72175714Y-78720000D01*
X72223333Y-78767619D01*
X73175714Y-79672380D02*
X72604285Y-79672380D01*
X72890000Y-79672380D02*
X72890000Y-78672380D01*
X72794761Y-78815238D01*
X72699523Y-78910476D01*
X72604285Y-78958095D01*
M02*
