G04 #@! TF.GenerationSoftware,KiCad,Pcbnew,(5.1.5-0-10_14)*
G04 #@! TF.CreationDate,2020-09-03T18:46:32+03:00*
G04 #@! TF.ProjectId,main,6d61696e-2e6b-4696-9361-645f70636258,rev?*
G04 #@! TF.SameCoordinates,Original*
G04 #@! TF.FileFunction,Copper,L3,Inr*
G04 #@! TF.FilePolarity,Positive*
%FSLAX46Y46*%
G04 Gerber Fmt 4.6, Leading zero omitted, Abs format (unit mm)*
G04 Created by KiCad (PCBNEW (5.1.5-0-10_14)) date 2020-09-03 18:46:32*
%MOMM*%
%LPD*%
G04 APERTURE LIST*
%ADD10O,1.700000X1.700000*%
%ADD11R,1.700000X1.700000*%
%ADD12O,1.000000X1.000000*%
%ADD13R,1.000000X1.000000*%
%ADD14C,3.000000*%
%ADD15R,3.000000X3.000000*%
%ADD16C,1.100000*%
%ADD17C,0.800000*%
%ADD18C,0.250000*%
%ADD19C,0.254000*%
G04 APERTURE END LIST*
D10*
X135960000Y-122300000D03*
D11*
X138500000Y-122300000D03*
D10*
X161000000Y-126280000D03*
X161000000Y-123740000D03*
X161000000Y-121200000D03*
X161000000Y-118660000D03*
X161000000Y-116120000D03*
X161000000Y-113580000D03*
X161000000Y-111040000D03*
D11*
X161000000Y-108500000D03*
D10*
X138040000Y-85250000D03*
X135500000Y-85250000D03*
D11*
X132960000Y-85250000D03*
D10*
X131240000Y-96180000D03*
X128700000Y-96180000D03*
X131240000Y-98720000D03*
X128700000Y-98720000D03*
X131240000Y-101260000D03*
X128700000Y-101260000D03*
X131240000Y-103800000D03*
D11*
X128700000Y-103800000D03*
D10*
X146180000Y-118710000D03*
X146180000Y-121250000D03*
X148720000Y-118710000D03*
X148720000Y-121250000D03*
X151260000Y-118710000D03*
X151260000Y-121250000D03*
X153800000Y-118710000D03*
D11*
X153800000Y-121250000D03*
D10*
X168760000Y-103820000D03*
X171300000Y-103820000D03*
X168760000Y-101280000D03*
X171300000Y-101280000D03*
X168760000Y-98740000D03*
X171300000Y-98740000D03*
X168760000Y-96200000D03*
D11*
X171300000Y-96200000D03*
D10*
X153790000Y-81240000D03*
X153790000Y-78700000D03*
X151250000Y-81240000D03*
X151250000Y-78700000D03*
X148710000Y-81240000D03*
X148710000Y-78700000D03*
X146170000Y-81240000D03*
D11*
X146170000Y-78700000D03*
D12*
X184340000Y-106500000D03*
X183070000Y-106500000D03*
D13*
X181800000Y-106500000D03*
D10*
X160500000Y-84920000D03*
X160500000Y-87460000D03*
D11*
X160500000Y-90000000D03*
D10*
X110300000Y-100740000D03*
D11*
X110300000Y-98200000D03*
D10*
X160500000Y-64300000D03*
X160500000Y-66840000D03*
X160500000Y-69380000D03*
X160500000Y-71920000D03*
X160500000Y-74460000D03*
D11*
X160500000Y-77000000D03*
D14*
X152480000Y-137400000D03*
D15*
X147400000Y-137400000D03*
D10*
X148710000Y-128870000D03*
X151250000Y-128870000D03*
X148710000Y-126330000D03*
D11*
X151250000Y-126330000D03*
D16*
X147420000Y-66270000D03*
X147420000Y-65000000D03*
X148690000Y-66270000D03*
X148690000Y-65000000D03*
X149960000Y-66270000D03*
X149960000Y-65000000D03*
X151230000Y-66270000D03*
X151230000Y-65000000D03*
X152500000Y-66270000D03*
X152500000Y-65000000D03*
D17*
X159500000Y-97500000D03*
X122050000Y-118050000D03*
X122050000Y-115050000D03*
X138762653Y-100762653D03*
X140000000Y-108500000D03*
X109500000Y-92000000D03*
X112000000Y-84500000D03*
X115500000Y-77000000D03*
X120500000Y-71000000D03*
X127500000Y-66500000D03*
X135000000Y-62500000D03*
X142000000Y-60000000D03*
X150000000Y-59500000D03*
X158000000Y-60500000D03*
X166000000Y-63000000D03*
X173500000Y-66500000D03*
X179000000Y-72000000D03*
X184500000Y-78500000D03*
X188000000Y-86000000D03*
X190500000Y-93000000D03*
X190000000Y-109500000D03*
X187500000Y-117500000D03*
X183500000Y-124500000D03*
X178500000Y-131000000D03*
X171500000Y-136000000D03*
X164500000Y-139000000D03*
X156500000Y-141500000D03*
X148500000Y-142000000D03*
X141000000Y-141000000D03*
X133000000Y-138500000D03*
X125500000Y-135000000D03*
X119500000Y-129500000D03*
X102100000Y-100300000D03*
X102900000Y-109600000D03*
X105500000Y-118600000D03*
X109700000Y-126700000D03*
X115500000Y-133900000D03*
X122600000Y-139900000D03*
X130900000Y-144500000D03*
X139600000Y-147300000D03*
X148700000Y-148200000D03*
X158200000Y-147500000D03*
X167200000Y-144800000D03*
X175400000Y-140500000D03*
X182700000Y-135100000D03*
X188500000Y-127500000D03*
X193400000Y-119300000D03*
X195800000Y-110500000D03*
X197200000Y-101300000D03*
X196300000Y-91800000D03*
X193800000Y-83100000D03*
X189300000Y-74500000D03*
X183200000Y-67600000D03*
X176400000Y-61700000D03*
X168400000Y-56800000D03*
X158800000Y-54300000D03*
X150000000Y-53400000D03*
X140400000Y-54200000D03*
X132000000Y-56900000D03*
X123600000Y-60800000D03*
X116300000Y-66800000D03*
X110400000Y-74000000D03*
X105900000Y-82200000D03*
X102900000Y-90900000D03*
X115100000Y-123200000D03*
X110800000Y-116100000D03*
X108600000Y-108200000D03*
X108800000Y-101600000D03*
X133900000Y-112700000D03*
X139800000Y-113400000D03*
X195000000Y-115100000D03*
X191400000Y-123800000D03*
X185800000Y-131800000D03*
X179300000Y-138400000D03*
X171500000Y-143300000D03*
X162500000Y-146500000D03*
X153200000Y-148100000D03*
X144000000Y-148000000D03*
X135000000Y-146200000D03*
X126400000Y-142300000D03*
X118700000Y-137000000D03*
X112000000Y-130400000D03*
X107100000Y-122600000D03*
X103800000Y-114000000D03*
X102200000Y-104900000D03*
X101600000Y-95500000D03*
X104100000Y-86300000D03*
X108200000Y-78000000D03*
X113200000Y-70100000D03*
X119800000Y-63600000D03*
X127800000Y-58600000D03*
X136200000Y-55200000D03*
X145300000Y-53400000D03*
X154500000Y-53400000D03*
X163700000Y-55100000D03*
X172500000Y-58900000D03*
X180000000Y-64600000D03*
X186700000Y-70700000D03*
X192000000Y-78700000D03*
X195300000Y-87400000D03*
X155100000Y-110300000D03*
X135000000Y-101899989D03*
X137750000Y-93974990D03*
X172500000Y-117000000D03*
X172500000Y-115000000D03*
X172500000Y-113000000D03*
X179500000Y-101500000D03*
X181900000Y-93200000D03*
X190200000Y-97500000D03*
X187900000Y-98300000D03*
X186600000Y-104800000D03*
X176400000Y-94200000D03*
X177300000Y-94200000D03*
X133600000Y-109000000D03*
X153000000Y-104000000D03*
X145998538Y-102474821D03*
X120500000Y-110100000D03*
X121400000Y-101300000D03*
X136000000Y-73300000D03*
X169200000Y-81900000D03*
X168600000Y-115700000D03*
X165800000Y-133000000D03*
X164300000Y-93500000D03*
X146100000Y-109400000D03*
X178500000Y-91000000D03*
X178700000Y-89200000D03*
X147500000Y-92500000D03*
X129000000Y-132000000D03*
X129000000Y-130900000D03*
X159500000Y-95500000D03*
X113100000Y-95500000D03*
X155100000Y-108000000D03*
X180600000Y-115600000D03*
X180600000Y-114400000D03*
X142700000Y-95800000D03*
X148200000Y-109400000D03*
X139900000Y-109600000D03*
X143600000Y-92700000D03*
X158500000Y-67700000D03*
X130800000Y-107200000D03*
X112750000Y-102500000D03*
X105250000Y-99250000D03*
X103000000Y-95250000D03*
X142200000Y-108300000D03*
X131200000Y-115300000D03*
X143100000Y-105200000D03*
X131200000Y-117800000D03*
X156500000Y-68500000D03*
X150750000Y-68750000D03*
X151100000Y-95950000D03*
X153300002Y-75000000D03*
X153100000Y-96000000D03*
X152400000Y-76300000D03*
X137000000Y-92000000D03*
X174000000Y-94500000D03*
X175000000Y-101000000D03*
X139900000Y-139000000D03*
X139900000Y-137000000D03*
X139900000Y-138000000D03*
X147975010Y-95700000D03*
X149025000Y-88600000D03*
X153400000Y-98450000D03*
X144274990Y-107000000D03*
X147000000Y-100800000D03*
X148900000Y-99500000D03*
X185700000Y-93100000D03*
X186600000Y-103200000D03*
X180600000Y-97600000D03*
X182800000Y-89200000D03*
X182800000Y-91300000D03*
X153400000Y-97250000D03*
X146899996Y-103900000D03*
X148525000Y-90900000D03*
X147408346Y-98594405D03*
X148100000Y-100250000D03*
X146018543Y-101475010D03*
X145900000Y-97800000D03*
X163500000Y-104300000D03*
X145900000Y-96700000D03*
X158575000Y-105900000D03*
X152200000Y-103225000D03*
X157174990Y-115200002D03*
X155200000Y-111400000D03*
X148800000Y-110999992D03*
X153200000Y-101000000D03*
X152300000Y-100100002D03*
D18*
X147420000Y-65000000D02*
X147420000Y-63580000D01*
X147420000Y-65000000D02*
X146642183Y-65000000D01*
X146642183Y-65000000D02*
X146100000Y-65000000D01*
X149960000Y-65000000D02*
X149960000Y-63660000D01*
X151230000Y-65000000D02*
X151230000Y-63630000D01*
D19*
G36*
X153488218Y-50783459D02*
G01*
X156267059Y-51059633D01*
X159025825Y-51492577D01*
X161755679Y-52080906D01*
X164447876Y-52822733D01*
X167093791Y-53715684D01*
X169684950Y-54756897D01*
X172213053Y-55943038D01*
X174670000Y-57270307D01*
X177047922Y-58734451D01*
X179339201Y-60330782D01*
X181536498Y-62054185D01*
X183632774Y-63899139D01*
X185621314Y-65859736D01*
X187495748Y-67929695D01*
X189250072Y-70102384D01*
X190878666Y-72370844D01*
X192376314Y-74727809D01*
X193738217Y-77165728D01*
X194960014Y-79676792D01*
X196037790Y-82252958D01*
X196968093Y-84885973D01*
X197747944Y-87567402D01*
X198374843Y-90288657D01*
X198846783Y-93041021D01*
X199162252Y-95815676D01*
X199320240Y-98603734D01*
X199320240Y-101396266D01*
X199162252Y-104184324D01*
X198846783Y-106958979D01*
X198374843Y-109711343D01*
X197747944Y-112432598D01*
X196968093Y-115114027D01*
X196037790Y-117747042D01*
X194960014Y-120323208D01*
X193738217Y-122834272D01*
X192376314Y-125272191D01*
X190878666Y-127629156D01*
X189250072Y-129897616D01*
X187495748Y-132070305D01*
X185621314Y-134140264D01*
X183632774Y-136100861D01*
X181536498Y-137945815D01*
X179339201Y-139669218D01*
X177047922Y-141265549D01*
X174670000Y-142729693D01*
X172213053Y-144056962D01*
X169684950Y-145243103D01*
X167093791Y-146284316D01*
X164447876Y-147177267D01*
X161755679Y-147919094D01*
X159025825Y-148507423D01*
X156267059Y-148940367D01*
X153488218Y-149216541D01*
X150698203Y-149335060D01*
X147905951Y-149295543D01*
X145120407Y-149098118D01*
X142350494Y-148743417D01*
X139605085Y-148232575D01*
X136892974Y-147567231D01*
X134222848Y-146749514D01*
X131603261Y-145782045D01*
X129042605Y-144667921D01*
X126549082Y-143410713D01*
X124130679Y-142014448D01*
X121795143Y-140483597D01*
X119549956Y-138823065D01*
X117402309Y-137038172D01*
X117251917Y-136898061D01*
X138865000Y-136898061D01*
X138865000Y-137101939D01*
X138904774Y-137301898D01*
X138982795Y-137490256D01*
X138989306Y-137500000D01*
X138982795Y-137509744D01*
X138904774Y-137698102D01*
X138865000Y-137898061D01*
X138865000Y-138101939D01*
X138904774Y-138301898D01*
X138982795Y-138490256D01*
X138989306Y-138500000D01*
X138982795Y-138509744D01*
X138904774Y-138698102D01*
X138865000Y-138898061D01*
X138865000Y-139101939D01*
X138904774Y-139301898D01*
X138982795Y-139490256D01*
X139096063Y-139659774D01*
X139240226Y-139803937D01*
X139409744Y-139917205D01*
X139598102Y-139995226D01*
X139798061Y-140035000D01*
X140001939Y-140035000D01*
X140201898Y-139995226D01*
X140390256Y-139917205D01*
X140559774Y-139803937D01*
X140703937Y-139659774D01*
X140817205Y-139490256D01*
X140895226Y-139301898D01*
X140935000Y-139101939D01*
X140935000Y-138898061D01*
X140895226Y-138698102D01*
X140817205Y-138509744D01*
X140810694Y-138500000D01*
X140817205Y-138490256D01*
X140895226Y-138301898D01*
X140935000Y-138101939D01*
X140935000Y-137898061D01*
X140895226Y-137698102D01*
X140817205Y-137509744D01*
X140810694Y-137500000D01*
X140817205Y-137490256D01*
X140895226Y-137301898D01*
X140935000Y-137101939D01*
X140935000Y-136898061D01*
X140895226Y-136698102D01*
X140817205Y-136509744D01*
X140703937Y-136340226D01*
X140559774Y-136196063D01*
X140390256Y-136082795D01*
X140201898Y-136004774D01*
X140001939Y-135965000D01*
X139798061Y-135965000D01*
X139598102Y-136004774D01*
X139409744Y-136082795D01*
X139240226Y-136196063D01*
X139096063Y-136340226D01*
X138982795Y-136509744D01*
X138904774Y-136698102D01*
X138865000Y-136898061D01*
X117251917Y-136898061D01*
X116180616Y-135900000D01*
X145261928Y-135900000D01*
X145261928Y-138900000D01*
X145274188Y-139024482D01*
X145310498Y-139144180D01*
X145369463Y-139254494D01*
X145448815Y-139351185D01*
X145545506Y-139430537D01*
X145655820Y-139489502D01*
X145775518Y-139525812D01*
X145900000Y-139538072D01*
X148900000Y-139538072D01*
X149024482Y-139525812D01*
X149144180Y-139489502D01*
X149254494Y-139430537D01*
X149351185Y-139351185D01*
X149430537Y-139254494D01*
X149489502Y-139144180D01*
X149525812Y-139024482D01*
X149538072Y-138900000D01*
X149538072Y-138891653D01*
X151167952Y-138891653D01*
X151323962Y-139207214D01*
X151698745Y-139398020D01*
X152103551Y-139512044D01*
X152522824Y-139544902D01*
X152940451Y-139495334D01*
X153340383Y-139365243D01*
X153636038Y-139207214D01*
X153792048Y-138891653D01*
X152480000Y-137579605D01*
X151167952Y-138891653D01*
X149538072Y-138891653D01*
X149538072Y-137442824D01*
X150335098Y-137442824D01*
X150384666Y-137860451D01*
X150514757Y-138260383D01*
X150672786Y-138556038D01*
X150988347Y-138712048D01*
X152300395Y-137400000D01*
X152659605Y-137400000D01*
X153971653Y-138712048D01*
X154287214Y-138556038D01*
X154478020Y-138181255D01*
X154592044Y-137776449D01*
X154624902Y-137357176D01*
X154575334Y-136939549D01*
X154445243Y-136539617D01*
X154287214Y-136243962D01*
X153971653Y-136087952D01*
X152659605Y-137400000D01*
X152300395Y-137400000D01*
X150988347Y-136087952D01*
X150672786Y-136243962D01*
X150481980Y-136618745D01*
X150367956Y-137023551D01*
X150335098Y-137442824D01*
X149538072Y-137442824D01*
X149538072Y-135908347D01*
X151167952Y-135908347D01*
X152480000Y-137220395D01*
X153792048Y-135908347D01*
X153636038Y-135592786D01*
X153261255Y-135401980D01*
X152856449Y-135287956D01*
X152437176Y-135255098D01*
X152019549Y-135304666D01*
X151619617Y-135434757D01*
X151323962Y-135592786D01*
X151167952Y-135908347D01*
X149538072Y-135908347D01*
X149538072Y-135900000D01*
X149525812Y-135775518D01*
X149489502Y-135655820D01*
X149430537Y-135545506D01*
X149351185Y-135448815D01*
X149254494Y-135369463D01*
X149144180Y-135310498D01*
X149024482Y-135274188D01*
X148900000Y-135261928D01*
X145900000Y-135261928D01*
X145775518Y-135274188D01*
X145655820Y-135310498D01*
X145545506Y-135369463D01*
X145448815Y-135448815D01*
X145369463Y-135545506D01*
X145310498Y-135655820D01*
X145274188Y-135775518D01*
X145261928Y-135900000D01*
X116180616Y-135900000D01*
X115359083Y-135134633D01*
X113426822Y-133118548D01*
X111611716Y-130996375D01*
X110263862Y-129226890D01*
X147268524Y-129226890D01*
X147313175Y-129374099D01*
X147438359Y-129636920D01*
X147612412Y-129870269D01*
X147828645Y-130065178D01*
X148078748Y-130214157D01*
X148353109Y-130311481D01*
X148583000Y-130190814D01*
X148583000Y-128997000D01*
X148837000Y-128997000D01*
X148837000Y-130190814D01*
X149066891Y-130311481D01*
X149341252Y-130214157D01*
X149591355Y-130065178D01*
X149807588Y-129870269D01*
X149980000Y-129639120D01*
X150152412Y-129870269D01*
X150368645Y-130065178D01*
X150618748Y-130214157D01*
X150893109Y-130311481D01*
X151123000Y-130190814D01*
X151123000Y-128997000D01*
X151377000Y-128997000D01*
X151377000Y-130190814D01*
X151606891Y-130311481D01*
X151881252Y-130214157D01*
X152131355Y-130065178D01*
X152347588Y-129870269D01*
X152521641Y-129636920D01*
X152646825Y-129374099D01*
X152691476Y-129226890D01*
X152570155Y-128997000D01*
X151377000Y-128997000D01*
X151123000Y-128997000D01*
X148837000Y-128997000D01*
X148583000Y-128997000D01*
X147389845Y-128997000D01*
X147268524Y-129226890D01*
X110263862Y-129226890D01*
X109919579Y-128774910D01*
X108355832Y-126461271D01*
X107170934Y-124474438D01*
X122466263Y-124474438D01*
X122466263Y-125023036D01*
X122573289Y-125561091D01*
X122783228Y-126067929D01*
X123088013Y-126524071D01*
X123475929Y-126911987D01*
X123932071Y-127216772D01*
X124438909Y-127426711D01*
X124976964Y-127533737D01*
X125525562Y-127533737D01*
X126063617Y-127426711D01*
X126570455Y-127216772D01*
X127026597Y-126911987D01*
X127251694Y-126686890D01*
X147268524Y-126686890D01*
X147313175Y-126834099D01*
X147438359Y-127096920D01*
X147612412Y-127330269D01*
X147828645Y-127525178D01*
X147954255Y-127600000D01*
X147828645Y-127674822D01*
X147612412Y-127869731D01*
X147438359Y-128103080D01*
X147313175Y-128365901D01*
X147268524Y-128513110D01*
X147389845Y-128743000D01*
X148583000Y-128743000D01*
X148583000Y-126457000D01*
X148837000Y-126457000D01*
X148837000Y-128743000D01*
X151123000Y-128743000D01*
X151123000Y-126457000D01*
X151377000Y-126457000D01*
X151377000Y-128743000D01*
X152570155Y-128743000D01*
X152691476Y-128513110D01*
X152646825Y-128365901D01*
X152521641Y-128103080D01*
X152347588Y-127869731D01*
X152263534Y-127793966D01*
X152344180Y-127769502D01*
X152454494Y-127710537D01*
X152551185Y-127631185D01*
X152630537Y-127534494D01*
X152689502Y-127424180D01*
X152725812Y-127304482D01*
X152738072Y-127180000D01*
X152735000Y-126615750D01*
X152576250Y-126457000D01*
X151377000Y-126457000D01*
X151123000Y-126457000D01*
X148837000Y-126457000D01*
X148583000Y-126457000D01*
X147389845Y-126457000D01*
X147268524Y-126686890D01*
X127251694Y-126686890D01*
X127414513Y-126524071D01*
X127719298Y-126067929D01*
X127758573Y-125973110D01*
X147268524Y-125973110D01*
X147389845Y-126203000D01*
X148583000Y-126203000D01*
X148583000Y-125009186D01*
X148837000Y-125009186D01*
X148837000Y-126203000D01*
X151123000Y-126203000D01*
X151123000Y-125003750D01*
X151377000Y-125003750D01*
X151377000Y-126203000D01*
X152576250Y-126203000D01*
X152735000Y-126044250D01*
X152738072Y-125480000D01*
X152725812Y-125355518D01*
X152689502Y-125235820D01*
X152630537Y-125125506D01*
X152551185Y-125028815D01*
X152454494Y-124949463D01*
X152344180Y-124890498D01*
X152224482Y-124854188D01*
X152100000Y-124841928D01*
X151535750Y-124845000D01*
X151377000Y-125003750D01*
X151123000Y-125003750D01*
X150964250Y-124845000D01*
X150400000Y-124841928D01*
X150275518Y-124854188D01*
X150155820Y-124890498D01*
X150045506Y-124949463D01*
X149948815Y-125028815D01*
X149869463Y-125125506D01*
X149810498Y-125235820D01*
X149787502Y-125311626D01*
X149591355Y-125134822D01*
X149341252Y-124985843D01*
X149066891Y-124888519D01*
X148837000Y-125009186D01*
X148583000Y-125009186D01*
X148353109Y-124888519D01*
X148078748Y-124985843D01*
X147828645Y-125134822D01*
X147612412Y-125329731D01*
X147438359Y-125563080D01*
X147313175Y-125825901D01*
X147268524Y-125973110D01*
X127758573Y-125973110D01*
X127929237Y-125561091D01*
X128036263Y-125023036D01*
X128036263Y-124474438D01*
X127929237Y-123936383D01*
X127719298Y-123429545D01*
X127414513Y-122973403D01*
X127026597Y-122585487D01*
X126570455Y-122280702D01*
X126263942Y-122153740D01*
X134475000Y-122153740D01*
X134475000Y-122446260D01*
X134532068Y-122733158D01*
X134644010Y-123003411D01*
X134806525Y-123246632D01*
X135013368Y-123453475D01*
X135256589Y-123615990D01*
X135526842Y-123727932D01*
X135813740Y-123785000D01*
X136106260Y-123785000D01*
X136393158Y-123727932D01*
X136663411Y-123615990D01*
X136906632Y-123453475D01*
X137038487Y-123321620D01*
X137060498Y-123394180D01*
X137119463Y-123504494D01*
X137198815Y-123601185D01*
X137295506Y-123680537D01*
X137405820Y-123739502D01*
X137525518Y-123775812D01*
X137650000Y-123788072D01*
X139350000Y-123788072D01*
X139474482Y-123775812D01*
X139594180Y-123739502D01*
X139704494Y-123680537D01*
X139801185Y-123601185D01*
X139880537Y-123504494D01*
X139939502Y-123394180D01*
X139975812Y-123274482D01*
X139988072Y-123150000D01*
X139988072Y-121450000D01*
X139975812Y-121325518D01*
X139939502Y-121205820D01*
X139880537Y-121095506D01*
X139801185Y-120998815D01*
X139704494Y-120919463D01*
X139594180Y-120860498D01*
X139474482Y-120824188D01*
X139350000Y-120811928D01*
X137650000Y-120811928D01*
X137525518Y-120824188D01*
X137405820Y-120860498D01*
X137295506Y-120919463D01*
X137198815Y-120998815D01*
X137119463Y-121095506D01*
X137060498Y-121205820D01*
X137038487Y-121278380D01*
X136906632Y-121146525D01*
X136663411Y-120984010D01*
X136393158Y-120872068D01*
X136106260Y-120815000D01*
X135813740Y-120815000D01*
X135526842Y-120872068D01*
X135256589Y-120984010D01*
X135013368Y-121146525D01*
X134806525Y-121353368D01*
X134644010Y-121596589D01*
X134532068Y-121866842D01*
X134475000Y-122153740D01*
X126263942Y-122153740D01*
X126063617Y-122070763D01*
X125525562Y-121963737D01*
X124976964Y-121963737D01*
X124438909Y-122070763D01*
X123932071Y-122280702D01*
X123475929Y-122585487D01*
X123088013Y-122973403D01*
X122783228Y-123429545D01*
X122573289Y-123936383D01*
X122466263Y-124474438D01*
X107170934Y-124474438D01*
X106925484Y-124062869D01*
X105633116Y-121587385D01*
X104482869Y-119042751D01*
X103964507Y-117698061D01*
X130165000Y-117698061D01*
X130165000Y-117901939D01*
X130204774Y-118101898D01*
X130282795Y-118290256D01*
X130396063Y-118459774D01*
X130540226Y-118603937D01*
X130709744Y-118717205D01*
X130898102Y-118795226D01*
X131098061Y-118835000D01*
X131301939Y-118835000D01*
X131501898Y-118795226D01*
X131690256Y-118717205D01*
X131859774Y-118603937D01*
X131899971Y-118563740D01*
X144695000Y-118563740D01*
X144695000Y-118856260D01*
X144752068Y-119143158D01*
X144864010Y-119413411D01*
X145026525Y-119656632D01*
X145233368Y-119863475D01*
X145407760Y-119980000D01*
X145233368Y-120096525D01*
X145026525Y-120303368D01*
X144864010Y-120546589D01*
X144752068Y-120816842D01*
X144695000Y-121103740D01*
X144695000Y-121396260D01*
X144752068Y-121683158D01*
X144864010Y-121953411D01*
X145026525Y-122196632D01*
X145233368Y-122403475D01*
X145476589Y-122565990D01*
X145746842Y-122677932D01*
X146033740Y-122735000D01*
X146326260Y-122735000D01*
X146613158Y-122677932D01*
X146883411Y-122565990D01*
X147126632Y-122403475D01*
X147333475Y-122196632D01*
X147450000Y-122022240D01*
X147566525Y-122196632D01*
X147773368Y-122403475D01*
X148016589Y-122565990D01*
X148286842Y-122677932D01*
X148573740Y-122735000D01*
X148866260Y-122735000D01*
X149153158Y-122677932D01*
X149423411Y-122565990D01*
X149666632Y-122403475D01*
X149873475Y-122196632D01*
X149990000Y-122022240D01*
X150106525Y-122196632D01*
X150313368Y-122403475D01*
X150556589Y-122565990D01*
X150826842Y-122677932D01*
X151113740Y-122735000D01*
X151406260Y-122735000D01*
X151693158Y-122677932D01*
X151963411Y-122565990D01*
X152206632Y-122403475D01*
X152338487Y-122271620D01*
X152360498Y-122344180D01*
X152419463Y-122454494D01*
X152498815Y-122551185D01*
X152595506Y-122630537D01*
X152705820Y-122689502D01*
X152825518Y-122725812D01*
X152950000Y-122738072D01*
X154650000Y-122738072D01*
X154774482Y-122725812D01*
X154894180Y-122689502D01*
X155004494Y-122630537D01*
X155101185Y-122551185D01*
X155180537Y-122454494D01*
X155239502Y-122344180D01*
X155275812Y-122224482D01*
X155288072Y-122100000D01*
X155288072Y-120400000D01*
X155275812Y-120275518D01*
X155239502Y-120155820D01*
X155180537Y-120045506D01*
X155101185Y-119948815D01*
X155004494Y-119869463D01*
X154894180Y-119810498D01*
X154821620Y-119788487D01*
X154953475Y-119656632D01*
X155115990Y-119413411D01*
X155227932Y-119143158D01*
X155285000Y-118856260D01*
X155285000Y-118563740D01*
X155227932Y-118276842D01*
X155115990Y-118006589D01*
X154953475Y-117763368D01*
X154746632Y-117556525D01*
X154503411Y-117394010D01*
X154233158Y-117282068D01*
X153946260Y-117225000D01*
X153653740Y-117225000D01*
X153366842Y-117282068D01*
X153096589Y-117394010D01*
X152853368Y-117556525D01*
X152646525Y-117763368D01*
X152530000Y-117937760D01*
X152413475Y-117763368D01*
X152206632Y-117556525D01*
X151963411Y-117394010D01*
X151693158Y-117282068D01*
X151406260Y-117225000D01*
X151113740Y-117225000D01*
X150826842Y-117282068D01*
X150556589Y-117394010D01*
X150313368Y-117556525D01*
X150106525Y-117763368D01*
X149990000Y-117937760D01*
X149873475Y-117763368D01*
X149666632Y-117556525D01*
X149423411Y-117394010D01*
X149153158Y-117282068D01*
X148866260Y-117225000D01*
X148573740Y-117225000D01*
X148286842Y-117282068D01*
X148016589Y-117394010D01*
X147773368Y-117556525D01*
X147566525Y-117763368D01*
X147450000Y-117937760D01*
X147333475Y-117763368D01*
X147126632Y-117556525D01*
X146883411Y-117394010D01*
X146613158Y-117282068D01*
X146326260Y-117225000D01*
X146033740Y-117225000D01*
X145746842Y-117282068D01*
X145476589Y-117394010D01*
X145233368Y-117556525D01*
X145026525Y-117763368D01*
X144864010Y-118006589D01*
X144752068Y-118276842D01*
X144695000Y-118563740D01*
X131899971Y-118563740D01*
X132003937Y-118459774D01*
X132117205Y-118290256D01*
X132195226Y-118101898D01*
X132235000Y-117901939D01*
X132235000Y-117698061D01*
X132195226Y-117498102D01*
X132117205Y-117309744D01*
X132003937Y-117140226D01*
X131859774Y-116996063D01*
X131690256Y-116882795D01*
X131501898Y-116804774D01*
X131301939Y-116765000D01*
X131098061Y-116765000D01*
X130898102Y-116804774D01*
X130709744Y-116882795D01*
X130540226Y-116996063D01*
X130396063Y-117140226D01*
X130282795Y-117309744D01*
X130204774Y-117498102D01*
X130165000Y-117698061D01*
X103964507Y-117698061D01*
X103478427Y-116437117D01*
X103079707Y-115198061D01*
X130165000Y-115198061D01*
X130165000Y-115401939D01*
X130204774Y-115601898D01*
X130282795Y-115790256D01*
X130396063Y-115959774D01*
X130540226Y-116103937D01*
X130709744Y-116217205D01*
X130898102Y-116295226D01*
X131098061Y-116335000D01*
X131301939Y-116335000D01*
X131501898Y-116295226D01*
X131690256Y-116217205D01*
X131859774Y-116103937D01*
X132003937Y-115959774D01*
X132117205Y-115790256D01*
X132195226Y-115601898D01*
X132235000Y-115401939D01*
X132235000Y-115198061D01*
X132215110Y-115098063D01*
X156139990Y-115098063D01*
X156139990Y-115301941D01*
X156179764Y-115501900D01*
X156257785Y-115690258D01*
X156371053Y-115859776D01*
X156515216Y-116003939D01*
X156684734Y-116117207D01*
X156873092Y-116195228D01*
X157073051Y-116235002D01*
X157276929Y-116235002D01*
X157476888Y-116195228D01*
X157665246Y-116117207D01*
X157834764Y-116003939D01*
X157978927Y-115859776D01*
X158092195Y-115690258D01*
X158170216Y-115501900D01*
X158209990Y-115301941D01*
X158209990Y-115098063D01*
X158170216Y-114898104D01*
X158092195Y-114709746D01*
X157978927Y-114540228D01*
X157834764Y-114396065D01*
X157665246Y-114282797D01*
X157476888Y-114204776D01*
X157276929Y-114165002D01*
X157073051Y-114165002D01*
X156873092Y-114204776D01*
X156684734Y-114282797D01*
X156515216Y-114396065D01*
X156371053Y-114540228D01*
X156257785Y-114709746D01*
X156179764Y-114898104D01*
X156139990Y-115098063D01*
X132215110Y-115098063D01*
X132195226Y-114998102D01*
X132117205Y-114809744D01*
X132003937Y-114640226D01*
X131859774Y-114496063D01*
X131690256Y-114382795D01*
X131501898Y-114304774D01*
X131301939Y-114265000D01*
X131098061Y-114265000D01*
X130898102Y-114304774D01*
X130709744Y-114382795D01*
X130540226Y-114496063D01*
X130396063Y-114640226D01*
X130282795Y-114809744D01*
X130204774Y-114998102D01*
X130165000Y-115198061D01*
X103079707Y-115198061D01*
X102623007Y-113778831D01*
X101919351Y-111076406D01*
X101602496Y-109498061D01*
X138865000Y-109498061D01*
X138865000Y-109701939D01*
X138904774Y-109901898D01*
X138982795Y-110090256D01*
X139096063Y-110259774D01*
X139240226Y-110403937D01*
X139409744Y-110517205D01*
X139598102Y-110595226D01*
X139798061Y-110635000D01*
X140001939Y-110635000D01*
X140201898Y-110595226D01*
X140390256Y-110517205D01*
X140559774Y-110403937D01*
X140703937Y-110259774D01*
X140817205Y-110090256D01*
X140895226Y-109901898D01*
X140935000Y-109701939D01*
X140935000Y-109498061D01*
X140895226Y-109298102D01*
X140817205Y-109109744D01*
X140703937Y-108940226D01*
X140559774Y-108796063D01*
X140390256Y-108682795D01*
X140201898Y-108604774D01*
X140001939Y-108565000D01*
X139798061Y-108565000D01*
X139598102Y-108604774D01*
X139409744Y-108682795D01*
X139240226Y-108796063D01*
X139096063Y-108940226D01*
X138982795Y-109109744D01*
X138904774Y-109298102D01*
X138865000Y-109498061D01*
X101602496Y-109498061D01*
X101369711Y-108338500D01*
X101192992Y-107098061D01*
X129765000Y-107098061D01*
X129765000Y-107301939D01*
X129804774Y-107501898D01*
X129882795Y-107690256D01*
X129996063Y-107859774D01*
X130140226Y-108003937D01*
X130309744Y-108117205D01*
X130498102Y-108195226D01*
X130698061Y-108235000D01*
X130901939Y-108235000D01*
X131087645Y-108198061D01*
X141165000Y-108198061D01*
X141165000Y-108401939D01*
X141204774Y-108601898D01*
X141282795Y-108790256D01*
X141396063Y-108959774D01*
X141540226Y-109103937D01*
X141709744Y-109217205D01*
X141898102Y-109295226D01*
X142098061Y-109335000D01*
X142301939Y-109335000D01*
X142487645Y-109298061D01*
X147165000Y-109298061D01*
X147165000Y-109501939D01*
X147204774Y-109701898D01*
X147282795Y-109890256D01*
X147396063Y-110059774D01*
X147540226Y-110203937D01*
X147709744Y-110317205D01*
X147898102Y-110395226D01*
X147952128Y-110405972D01*
X147882795Y-110509736D01*
X147804774Y-110698094D01*
X147765000Y-110898053D01*
X147765000Y-111101931D01*
X147804774Y-111301890D01*
X147882795Y-111490248D01*
X147996063Y-111659766D01*
X148140226Y-111803929D01*
X148309744Y-111917197D01*
X148498102Y-111995218D01*
X148698061Y-112034992D01*
X148901939Y-112034992D01*
X149101898Y-111995218D01*
X149290256Y-111917197D01*
X149459774Y-111803929D01*
X149603937Y-111659766D01*
X149717205Y-111490248D01*
X149795226Y-111301890D01*
X149795987Y-111298061D01*
X154165000Y-111298061D01*
X154165000Y-111501939D01*
X154204774Y-111701898D01*
X154282795Y-111890256D01*
X154396063Y-112059774D01*
X154540226Y-112203937D01*
X154709744Y-112317205D01*
X154898102Y-112395226D01*
X155098061Y-112435000D01*
X155301939Y-112435000D01*
X155501898Y-112395226D01*
X155690256Y-112317205D01*
X155859774Y-112203937D01*
X156003937Y-112059774D01*
X156117205Y-111890256D01*
X156195226Y-111701898D01*
X156235000Y-111501939D01*
X156235000Y-111298061D01*
X156195226Y-111098102D01*
X156117205Y-110909744D01*
X156003937Y-110740226D01*
X155859774Y-110596063D01*
X155690256Y-110482795D01*
X155501898Y-110404774D01*
X155301939Y-110365000D01*
X155098061Y-110365000D01*
X154898102Y-110404774D01*
X154709744Y-110482795D01*
X154540226Y-110596063D01*
X154396063Y-110740226D01*
X154282795Y-110909744D01*
X154204774Y-111098102D01*
X154165000Y-111298061D01*
X149795987Y-111298061D01*
X149835000Y-111101931D01*
X149835000Y-110898053D01*
X149795226Y-110698094D01*
X149717205Y-110509736D01*
X149603937Y-110340218D01*
X149459774Y-110196055D01*
X149290256Y-110082787D01*
X149101898Y-110004766D01*
X149047872Y-109994020D01*
X149117205Y-109890256D01*
X149195226Y-109701898D01*
X149235000Y-109501939D01*
X149235000Y-109298061D01*
X149195226Y-109098102D01*
X149117205Y-108909744D01*
X149003937Y-108740226D01*
X148859774Y-108596063D01*
X148690256Y-108482795D01*
X148501898Y-108404774D01*
X148301939Y-108365000D01*
X148098061Y-108365000D01*
X147898102Y-108404774D01*
X147709744Y-108482795D01*
X147540226Y-108596063D01*
X147396063Y-108740226D01*
X147282795Y-108909744D01*
X147204774Y-109098102D01*
X147165000Y-109298061D01*
X142487645Y-109298061D01*
X142501898Y-109295226D01*
X142690256Y-109217205D01*
X142859774Y-109103937D01*
X143003937Y-108959774D01*
X143117205Y-108790256D01*
X143195226Y-108601898D01*
X143235000Y-108401939D01*
X143235000Y-108198061D01*
X143195226Y-107998102D01*
X143117205Y-107809744D01*
X143003937Y-107640226D01*
X142859774Y-107496063D01*
X142690256Y-107382795D01*
X142501898Y-107304774D01*
X142301939Y-107265000D01*
X142098061Y-107265000D01*
X141898102Y-107304774D01*
X141709744Y-107382795D01*
X141540226Y-107496063D01*
X141396063Y-107640226D01*
X141282795Y-107809744D01*
X141204774Y-107998102D01*
X141165000Y-108198061D01*
X131087645Y-108198061D01*
X131101898Y-108195226D01*
X131290256Y-108117205D01*
X131459774Y-108003937D01*
X131603937Y-107859774D01*
X131717205Y-107690256D01*
X131795226Y-107501898D01*
X131835000Y-107301939D01*
X131835000Y-107098061D01*
X131795226Y-106898102D01*
X131795210Y-106898061D01*
X143239990Y-106898061D01*
X143239990Y-107101939D01*
X143279764Y-107301898D01*
X143357785Y-107490256D01*
X143471053Y-107659774D01*
X143615216Y-107803937D01*
X143784734Y-107917205D01*
X143973092Y-107995226D01*
X144173051Y-108035000D01*
X144376929Y-108035000D01*
X144576888Y-107995226D01*
X144765246Y-107917205D01*
X144793897Y-107898061D01*
X154065000Y-107898061D01*
X154065000Y-108101939D01*
X154104774Y-108301898D01*
X154182795Y-108490256D01*
X154296063Y-108659774D01*
X154440226Y-108803937D01*
X154609744Y-108917205D01*
X154798102Y-108995226D01*
X154998061Y-109035000D01*
X155201939Y-109035000D01*
X155401898Y-108995226D01*
X155590256Y-108917205D01*
X155759774Y-108803937D01*
X155903937Y-108659774D01*
X156017205Y-108490256D01*
X156095226Y-108301898D01*
X156135000Y-108101939D01*
X156135000Y-107898061D01*
X156095226Y-107698102D01*
X156075302Y-107650000D01*
X159511928Y-107650000D01*
X159511928Y-109350000D01*
X159524188Y-109474482D01*
X159560498Y-109594180D01*
X159619463Y-109704494D01*
X159698815Y-109801185D01*
X159795506Y-109880537D01*
X159905820Y-109939502D01*
X159978380Y-109961513D01*
X159846525Y-110093368D01*
X159684010Y-110336589D01*
X159572068Y-110606842D01*
X159515000Y-110893740D01*
X159515000Y-111186260D01*
X159572068Y-111473158D01*
X159684010Y-111743411D01*
X159846525Y-111986632D01*
X160053368Y-112193475D01*
X160227760Y-112310000D01*
X160053368Y-112426525D01*
X159846525Y-112633368D01*
X159684010Y-112876589D01*
X159572068Y-113146842D01*
X159515000Y-113433740D01*
X159515000Y-113726260D01*
X159572068Y-114013158D01*
X159684010Y-114283411D01*
X159846525Y-114526632D01*
X160053368Y-114733475D01*
X160227760Y-114850000D01*
X160053368Y-114966525D01*
X159846525Y-115173368D01*
X159684010Y-115416589D01*
X159572068Y-115686842D01*
X159515000Y-115973740D01*
X159515000Y-116266260D01*
X159572068Y-116553158D01*
X159684010Y-116823411D01*
X159846525Y-117066632D01*
X160053368Y-117273475D01*
X160227760Y-117390000D01*
X160053368Y-117506525D01*
X159846525Y-117713368D01*
X159684010Y-117956589D01*
X159572068Y-118226842D01*
X159515000Y-118513740D01*
X159515000Y-118806260D01*
X159572068Y-119093158D01*
X159684010Y-119363411D01*
X159846525Y-119606632D01*
X160053368Y-119813475D01*
X160227760Y-119930000D01*
X160053368Y-120046525D01*
X159846525Y-120253368D01*
X159684010Y-120496589D01*
X159572068Y-120766842D01*
X159515000Y-121053740D01*
X159515000Y-121346260D01*
X159572068Y-121633158D01*
X159684010Y-121903411D01*
X159846525Y-122146632D01*
X160053368Y-122353475D01*
X160227760Y-122470000D01*
X160053368Y-122586525D01*
X159846525Y-122793368D01*
X159684010Y-123036589D01*
X159572068Y-123306842D01*
X159515000Y-123593740D01*
X159515000Y-123886260D01*
X159572068Y-124173158D01*
X159684010Y-124443411D01*
X159846525Y-124686632D01*
X160053368Y-124893475D01*
X160227760Y-125010000D01*
X160053368Y-125126525D01*
X159846525Y-125333368D01*
X159684010Y-125576589D01*
X159572068Y-125846842D01*
X159515000Y-126133740D01*
X159515000Y-126426260D01*
X159572068Y-126713158D01*
X159684010Y-126983411D01*
X159846525Y-127226632D01*
X160053368Y-127433475D01*
X160296589Y-127595990D01*
X160566842Y-127707932D01*
X160853740Y-127765000D01*
X161146260Y-127765000D01*
X161433158Y-127707932D01*
X161703411Y-127595990D01*
X161946632Y-127433475D01*
X162153475Y-127226632D01*
X162315990Y-126983411D01*
X162427932Y-126713158D01*
X162485000Y-126426260D01*
X162485000Y-126133740D01*
X162427932Y-125846842D01*
X162315990Y-125576589D01*
X162153475Y-125333368D01*
X161946632Y-125126525D01*
X161772240Y-125010000D01*
X161946632Y-124893475D01*
X162153475Y-124686632D01*
X162295258Y-124474438D01*
X171963737Y-124474438D01*
X171963737Y-125023036D01*
X172070763Y-125561091D01*
X172280702Y-126067929D01*
X172585487Y-126524071D01*
X172973403Y-126911987D01*
X173429545Y-127216772D01*
X173936383Y-127426711D01*
X174474438Y-127533737D01*
X175023036Y-127533737D01*
X175561091Y-127426711D01*
X176067929Y-127216772D01*
X176524071Y-126911987D01*
X176911987Y-126524071D01*
X177216772Y-126067929D01*
X177426711Y-125561091D01*
X177533737Y-125023036D01*
X177533737Y-124474438D01*
X177426711Y-123936383D01*
X177216772Y-123429545D01*
X176911987Y-122973403D01*
X176524071Y-122585487D01*
X176067929Y-122280702D01*
X175561091Y-122070763D01*
X175023036Y-121963737D01*
X174474438Y-121963737D01*
X173936383Y-122070763D01*
X173429545Y-122280702D01*
X172973403Y-122585487D01*
X172585487Y-122973403D01*
X172280702Y-123429545D01*
X172070763Y-123936383D01*
X171963737Y-124474438D01*
X162295258Y-124474438D01*
X162315990Y-124443411D01*
X162427932Y-124173158D01*
X162485000Y-123886260D01*
X162485000Y-123593740D01*
X162427932Y-123306842D01*
X162315990Y-123036589D01*
X162153475Y-122793368D01*
X161946632Y-122586525D01*
X161772240Y-122470000D01*
X161946632Y-122353475D01*
X162153475Y-122146632D01*
X162315990Y-121903411D01*
X162427932Y-121633158D01*
X162485000Y-121346260D01*
X162485000Y-121053740D01*
X162427932Y-120766842D01*
X162315990Y-120496589D01*
X162153475Y-120253368D01*
X161946632Y-120046525D01*
X161772240Y-119930000D01*
X161946632Y-119813475D01*
X162153475Y-119606632D01*
X162315990Y-119363411D01*
X162427932Y-119093158D01*
X162485000Y-118806260D01*
X162485000Y-118513740D01*
X162427932Y-118226842D01*
X162315990Y-117956589D01*
X162153475Y-117713368D01*
X161946632Y-117506525D01*
X161772240Y-117390000D01*
X161946632Y-117273475D01*
X162153475Y-117066632D01*
X162315990Y-116823411D01*
X162427932Y-116553158D01*
X162485000Y-116266260D01*
X162485000Y-115973740D01*
X162427932Y-115686842D01*
X162315990Y-115416589D01*
X162153475Y-115173368D01*
X161946632Y-114966525D01*
X161772240Y-114850000D01*
X161946632Y-114733475D01*
X162153475Y-114526632D01*
X162306201Y-114298061D01*
X179565000Y-114298061D01*
X179565000Y-114501939D01*
X179604774Y-114701898D01*
X179682795Y-114890256D01*
X179756123Y-115000000D01*
X179682795Y-115109744D01*
X179604774Y-115298102D01*
X179565000Y-115498061D01*
X179565000Y-115701939D01*
X179604774Y-115901898D01*
X179682795Y-116090256D01*
X179796063Y-116259774D01*
X179940226Y-116403937D01*
X180109744Y-116517205D01*
X180298102Y-116595226D01*
X180498061Y-116635000D01*
X180701939Y-116635000D01*
X180901898Y-116595226D01*
X181090256Y-116517205D01*
X181259774Y-116403937D01*
X181403937Y-116259774D01*
X181517205Y-116090256D01*
X181595226Y-115901898D01*
X181635000Y-115701939D01*
X181635000Y-115498061D01*
X181595226Y-115298102D01*
X181517205Y-115109744D01*
X181443877Y-115000000D01*
X181517205Y-114890256D01*
X181595226Y-114701898D01*
X181635000Y-114501939D01*
X181635000Y-114298061D01*
X181595226Y-114098102D01*
X181517205Y-113909744D01*
X181403937Y-113740226D01*
X181259774Y-113596063D01*
X181090256Y-113482795D01*
X180901898Y-113404774D01*
X180701939Y-113365000D01*
X180498061Y-113365000D01*
X180298102Y-113404774D01*
X180109744Y-113482795D01*
X179940226Y-113596063D01*
X179796063Y-113740226D01*
X179682795Y-113909744D01*
X179604774Y-114098102D01*
X179565000Y-114298061D01*
X162306201Y-114298061D01*
X162315990Y-114283411D01*
X162427932Y-114013158D01*
X162485000Y-113726260D01*
X162485000Y-113433740D01*
X162427932Y-113146842D01*
X162315990Y-112876589D01*
X162153475Y-112633368D01*
X161946632Y-112426525D01*
X161772240Y-112310000D01*
X161946632Y-112193475D01*
X162153475Y-111986632D01*
X162315990Y-111743411D01*
X162427932Y-111473158D01*
X162485000Y-111186260D01*
X162485000Y-110893740D01*
X162427932Y-110606842D01*
X162315990Y-110336589D01*
X162153475Y-110093368D01*
X162021620Y-109961513D01*
X162094180Y-109939502D01*
X162204494Y-109880537D01*
X162301185Y-109801185D01*
X162380537Y-109704494D01*
X162439502Y-109594180D01*
X162475812Y-109474482D01*
X162488072Y-109350000D01*
X162488072Y-107650000D01*
X162475812Y-107525518D01*
X162439502Y-107405820D01*
X162380537Y-107295506D01*
X162301185Y-107198815D01*
X162204494Y-107119463D01*
X162094180Y-107060498D01*
X161974482Y-107024188D01*
X161850000Y-107011928D01*
X160150000Y-107011928D01*
X160025518Y-107024188D01*
X159905820Y-107060498D01*
X159795506Y-107119463D01*
X159698815Y-107198815D01*
X159619463Y-107295506D01*
X159560498Y-107405820D01*
X159524188Y-107525518D01*
X159511928Y-107650000D01*
X156075302Y-107650000D01*
X156017205Y-107509744D01*
X155903937Y-107340226D01*
X155759774Y-107196063D01*
X155590256Y-107082795D01*
X155401898Y-107004774D01*
X155201939Y-106965000D01*
X154998061Y-106965000D01*
X154798102Y-107004774D01*
X154609744Y-107082795D01*
X154440226Y-107196063D01*
X154296063Y-107340226D01*
X154182795Y-107509744D01*
X154104774Y-107698102D01*
X154065000Y-107898061D01*
X144793897Y-107898061D01*
X144934764Y-107803937D01*
X145078927Y-107659774D01*
X145192195Y-107490256D01*
X145270216Y-107301898D01*
X145309990Y-107101939D01*
X145309990Y-106898061D01*
X145270216Y-106698102D01*
X145192195Y-106509744D01*
X145078927Y-106340226D01*
X144934764Y-106196063D01*
X144765246Y-106082795D01*
X144576888Y-106004774D01*
X144376929Y-105965000D01*
X144173051Y-105965000D01*
X143973092Y-106004774D01*
X143784734Y-106082795D01*
X143615216Y-106196063D01*
X143471053Y-106340226D01*
X143357785Y-106509744D01*
X143279764Y-106698102D01*
X143239990Y-106898061D01*
X131795210Y-106898061D01*
X131717205Y-106709744D01*
X131603937Y-106540226D01*
X131459774Y-106396063D01*
X131290256Y-106282795D01*
X131101898Y-106204774D01*
X130901939Y-106165000D01*
X130698061Y-106165000D01*
X130498102Y-106204774D01*
X130309744Y-106282795D01*
X130140226Y-106396063D01*
X129996063Y-106540226D01*
X129882795Y-106709744D01*
X129804774Y-106898102D01*
X129765000Y-107098061D01*
X101192992Y-107098061D01*
X100975849Y-105573884D01*
X100739025Y-102791413D01*
X100727890Y-102398061D01*
X111715000Y-102398061D01*
X111715000Y-102601939D01*
X111754774Y-102801898D01*
X111832795Y-102990256D01*
X111946063Y-103159774D01*
X112090226Y-103303937D01*
X112259744Y-103417205D01*
X112448102Y-103495226D01*
X112648061Y-103535000D01*
X112851939Y-103535000D01*
X113051898Y-103495226D01*
X113240256Y-103417205D01*
X113409774Y-103303937D01*
X113553937Y-103159774D01*
X113667205Y-102990256D01*
X113683879Y-102950000D01*
X127211928Y-102950000D01*
X127211928Y-104650000D01*
X127224188Y-104774482D01*
X127260498Y-104894180D01*
X127319463Y-105004494D01*
X127398815Y-105101185D01*
X127495506Y-105180537D01*
X127605820Y-105239502D01*
X127725518Y-105275812D01*
X127850000Y-105288072D01*
X129550000Y-105288072D01*
X129674482Y-105275812D01*
X129794180Y-105239502D01*
X129904494Y-105180537D01*
X130001185Y-105101185D01*
X130080537Y-105004494D01*
X130139502Y-104894180D01*
X130161513Y-104821620D01*
X130293368Y-104953475D01*
X130536589Y-105115990D01*
X130806842Y-105227932D01*
X131093740Y-105285000D01*
X131386260Y-105285000D01*
X131673158Y-105227932D01*
X131943411Y-105115990D01*
X131970243Y-105098061D01*
X142065000Y-105098061D01*
X142065000Y-105301939D01*
X142104774Y-105501898D01*
X142182795Y-105690256D01*
X142296063Y-105859774D01*
X142440226Y-106003937D01*
X142609744Y-106117205D01*
X142798102Y-106195226D01*
X142998061Y-106235000D01*
X143201939Y-106235000D01*
X143401898Y-106195226D01*
X143590256Y-106117205D01*
X143759774Y-106003937D01*
X143903937Y-105859774D01*
X143945172Y-105798061D01*
X157540000Y-105798061D01*
X157540000Y-106001939D01*
X157579774Y-106201898D01*
X157657795Y-106390256D01*
X157771063Y-106559774D01*
X157915226Y-106703937D01*
X158084744Y-106817205D01*
X158273102Y-106895226D01*
X158473061Y-106935000D01*
X158676939Y-106935000D01*
X158876898Y-106895226D01*
X159065256Y-106817205D01*
X159234774Y-106703937D01*
X159378937Y-106559774D01*
X159492205Y-106390256D01*
X159570226Y-106201898D01*
X159610000Y-106001939D01*
X159610000Y-106000000D01*
X180661928Y-106000000D01*
X180661928Y-107000000D01*
X180674188Y-107124482D01*
X180710498Y-107244180D01*
X180769463Y-107354494D01*
X180848815Y-107451185D01*
X180945506Y-107530537D01*
X181055820Y-107589502D01*
X181175518Y-107625812D01*
X181300000Y-107638072D01*
X182300000Y-107638072D01*
X182424482Y-107625812D01*
X182544180Y-107589502D01*
X182627226Y-107545112D01*
X182738933Y-107591383D01*
X182958212Y-107635000D01*
X183181788Y-107635000D01*
X183401067Y-107591383D01*
X183607624Y-107505824D01*
X183705000Y-107440759D01*
X183802376Y-107505824D01*
X184008933Y-107591383D01*
X184228212Y-107635000D01*
X184451788Y-107635000D01*
X184671067Y-107591383D01*
X184877624Y-107505824D01*
X185063520Y-107381612D01*
X185221612Y-107223520D01*
X185345824Y-107037624D01*
X185431383Y-106831067D01*
X185475000Y-106611788D01*
X185475000Y-106388212D01*
X185431383Y-106168933D01*
X185345824Y-105962376D01*
X185221612Y-105776480D01*
X185063520Y-105618388D01*
X184877624Y-105494176D01*
X184671067Y-105408617D01*
X184451788Y-105365000D01*
X184228212Y-105365000D01*
X184008933Y-105408617D01*
X183802376Y-105494176D01*
X183705000Y-105559241D01*
X183607624Y-105494176D01*
X183401067Y-105408617D01*
X183181788Y-105365000D01*
X182958212Y-105365000D01*
X182738933Y-105408617D01*
X182627226Y-105454888D01*
X182544180Y-105410498D01*
X182424482Y-105374188D01*
X182300000Y-105361928D01*
X181300000Y-105361928D01*
X181175518Y-105374188D01*
X181055820Y-105410498D01*
X180945506Y-105469463D01*
X180848815Y-105548815D01*
X180769463Y-105645506D01*
X180710498Y-105755820D01*
X180674188Y-105875518D01*
X180661928Y-106000000D01*
X159610000Y-106000000D01*
X159610000Y-105798061D01*
X159570226Y-105598102D01*
X159492205Y-105409744D01*
X159378937Y-105240226D01*
X159234774Y-105096063D01*
X159065256Y-104982795D01*
X158876898Y-104904774D01*
X158676939Y-104865000D01*
X158473061Y-104865000D01*
X158273102Y-104904774D01*
X158084744Y-104982795D01*
X157915226Y-105096063D01*
X157771063Y-105240226D01*
X157657795Y-105409744D01*
X157579774Y-105598102D01*
X157540000Y-105798061D01*
X143945172Y-105798061D01*
X144017205Y-105690256D01*
X144095226Y-105501898D01*
X144135000Y-105301939D01*
X144135000Y-105098061D01*
X144095226Y-104898102D01*
X144017205Y-104709744D01*
X143903937Y-104540226D01*
X143759774Y-104396063D01*
X143590256Y-104282795D01*
X143401898Y-104204774D01*
X143201939Y-104165000D01*
X142998061Y-104165000D01*
X142798102Y-104204774D01*
X142609744Y-104282795D01*
X142440226Y-104396063D01*
X142296063Y-104540226D01*
X142182795Y-104709744D01*
X142104774Y-104898102D01*
X142065000Y-105098061D01*
X131970243Y-105098061D01*
X132186632Y-104953475D01*
X132393475Y-104746632D01*
X132555990Y-104503411D01*
X132667932Y-104233158D01*
X132725000Y-103946260D01*
X132725000Y-103798061D01*
X145864996Y-103798061D01*
X145864996Y-104001939D01*
X145904770Y-104201898D01*
X145982791Y-104390256D01*
X146096059Y-104559774D01*
X146240222Y-104703937D01*
X146409740Y-104817205D01*
X146598098Y-104895226D01*
X146798057Y-104935000D01*
X147001935Y-104935000D01*
X147201894Y-104895226D01*
X147390252Y-104817205D01*
X147559770Y-104703937D01*
X147703933Y-104559774D01*
X147817201Y-104390256D01*
X147895222Y-104201898D01*
X147934996Y-104001939D01*
X147934996Y-103798061D01*
X147895222Y-103598102D01*
X147817201Y-103409744D01*
X147703933Y-103240226D01*
X147586768Y-103123061D01*
X151165000Y-103123061D01*
X151165000Y-103326939D01*
X151204774Y-103526898D01*
X151282795Y-103715256D01*
X151396063Y-103884774D01*
X151540226Y-104028937D01*
X151709744Y-104142205D01*
X151898102Y-104220226D01*
X152098061Y-104260000D01*
X152301939Y-104260000D01*
X152501898Y-104220226D01*
X152555408Y-104198061D01*
X162465000Y-104198061D01*
X162465000Y-104401939D01*
X162504774Y-104601898D01*
X162582795Y-104790256D01*
X162696063Y-104959774D01*
X162840226Y-105103937D01*
X163009744Y-105217205D01*
X163198102Y-105295226D01*
X163398061Y-105335000D01*
X163601939Y-105335000D01*
X163801898Y-105295226D01*
X163990256Y-105217205D01*
X164159774Y-105103937D01*
X164303937Y-104959774D01*
X164417205Y-104790256D01*
X164495226Y-104601898D01*
X164535000Y-104401939D01*
X164535000Y-104198061D01*
X164495226Y-103998102D01*
X164417205Y-103809744D01*
X164303937Y-103640226D01*
X164159774Y-103496063D01*
X163990256Y-103382795D01*
X163801898Y-103304774D01*
X163601939Y-103265000D01*
X163398061Y-103265000D01*
X163198102Y-103304774D01*
X163009744Y-103382795D01*
X162840226Y-103496063D01*
X162696063Y-103640226D01*
X162582795Y-103809744D01*
X162504774Y-103998102D01*
X162465000Y-104198061D01*
X152555408Y-104198061D01*
X152690256Y-104142205D01*
X152859774Y-104028937D01*
X153003937Y-103884774D01*
X153117205Y-103715256D01*
X153195226Y-103526898D01*
X153235000Y-103326939D01*
X153235000Y-103123061D01*
X153195226Y-102923102D01*
X153117205Y-102734744D01*
X153003937Y-102565226D01*
X152859774Y-102421063D01*
X152690256Y-102307795D01*
X152501898Y-102229774D01*
X152301939Y-102190000D01*
X152098061Y-102190000D01*
X151898102Y-102229774D01*
X151709744Y-102307795D01*
X151540226Y-102421063D01*
X151396063Y-102565226D01*
X151282795Y-102734744D01*
X151204774Y-102923102D01*
X151165000Y-103123061D01*
X147586768Y-103123061D01*
X147559770Y-103096063D01*
X147390252Y-102982795D01*
X147201894Y-102904774D01*
X147001935Y-102865000D01*
X146798057Y-102865000D01*
X146598098Y-102904774D01*
X146409740Y-102982795D01*
X146240222Y-103096063D01*
X146096059Y-103240226D01*
X145982791Y-103409744D01*
X145904770Y-103598102D01*
X145864996Y-103798061D01*
X132725000Y-103798061D01*
X132725000Y-103653740D01*
X132667932Y-103366842D01*
X132555990Y-103096589D01*
X132393475Y-102853368D01*
X132186632Y-102646525D01*
X132012240Y-102530000D01*
X132186632Y-102413475D01*
X132393475Y-102206632D01*
X132555990Y-101963411D01*
X132667932Y-101693158D01*
X132725000Y-101406260D01*
X132725000Y-101113740D01*
X132667932Y-100826842D01*
X132555990Y-100556589D01*
X132393475Y-100313368D01*
X132186632Y-100106525D01*
X132012240Y-99990000D01*
X132186632Y-99873475D01*
X132393475Y-99666632D01*
X132555990Y-99423411D01*
X132667932Y-99153158D01*
X132725000Y-98866260D01*
X132725000Y-98573740D01*
X132667932Y-98286842D01*
X132555990Y-98016589D01*
X132393475Y-97773368D01*
X132186632Y-97566525D01*
X132012240Y-97450000D01*
X132186632Y-97333475D01*
X132393475Y-97126632D01*
X132555990Y-96883411D01*
X132667932Y-96613158D01*
X132725000Y-96326260D01*
X132725000Y-96033740D01*
X132667932Y-95746842D01*
X132647727Y-95698061D01*
X141665000Y-95698061D01*
X141665000Y-95901939D01*
X141704774Y-96101898D01*
X141782795Y-96290256D01*
X141896063Y-96459774D01*
X142040226Y-96603937D01*
X142209744Y-96717205D01*
X142398102Y-96795226D01*
X142598061Y-96835000D01*
X142801939Y-96835000D01*
X143001898Y-96795226D01*
X143190256Y-96717205D01*
X143359774Y-96603937D01*
X143365650Y-96598061D01*
X144865000Y-96598061D01*
X144865000Y-96801939D01*
X144904774Y-97001898D01*
X144982795Y-97190256D01*
X145022715Y-97250000D01*
X144982795Y-97309744D01*
X144904774Y-97498102D01*
X144865000Y-97698061D01*
X144865000Y-97901939D01*
X144904774Y-98101898D01*
X144982795Y-98290256D01*
X145096063Y-98459774D01*
X145240226Y-98603937D01*
X145409744Y-98717205D01*
X145598102Y-98795226D01*
X145798061Y-98835000D01*
X146001939Y-98835000D01*
X146201898Y-98795226D01*
X146378467Y-98722088D01*
X146413120Y-98896303D01*
X146491141Y-99084661D01*
X146604409Y-99254179D01*
X146748572Y-99398342D01*
X146918090Y-99511610D01*
X147106448Y-99589631D01*
X147274169Y-99622993D01*
X147182795Y-99759744D01*
X147174629Y-99779459D01*
X147101939Y-99765000D01*
X146898061Y-99765000D01*
X146698102Y-99804774D01*
X146509744Y-99882795D01*
X146340226Y-99996063D01*
X146196063Y-100140226D01*
X146082795Y-100309744D01*
X146028837Y-100440010D01*
X145916604Y-100440010D01*
X145716645Y-100479784D01*
X145528287Y-100557805D01*
X145358769Y-100671073D01*
X145214606Y-100815236D01*
X145101338Y-100984754D01*
X145023317Y-101173112D01*
X144983543Y-101373071D01*
X144983543Y-101576949D01*
X145023317Y-101776908D01*
X145101338Y-101965266D01*
X145214606Y-102134784D01*
X145358769Y-102278947D01*
X145528287Y-102392215D01*
X145716645Y-102470236D01*
X145916604Y-102510010D01*
X146120482Y-102510010D01*
X146320441Y-102470236D01*
X146508799Y-102392215D01*
X146678317Y-102278947D01*
X146822480Y-102134784D01*
X146935748Y-101965266D01*
X146989706Y-101835000D01*
X147101939Y-101835000D01*
X147301898Y-101795226D01*
X147490256Y-101717205D01*
X147659774Y-101603937D01*
X147803937Y-101459774D01*
X147917205Y-101290256D01*
X147925371Y-101270541D01*
X147998061Y-101285000D01*
X148201939Y-101285000D01*
X148401898Y-101245226D01*
X148590256Y-101167205D01*
X148759774Y-101053937D01*
X148903937Y-100909774D01*
X149017205Y-100740256D01*
X149095226Y-100551898D01*
X149102569Y-100514984D01*
X149201898Y-100495226D01*
X149390256Y-100417205D01*
X149559774Y-100303937D01*
X149703937Y-100159774D01*
X149817205Y-99990256D01*
X149895226Y-99801898D01*
X149935000Y-99601939D01*
X149935000Y-99398061D01*
X149895226Y-99198102D01*
X149817205Y-99009744D01*
X149703937Y-98840226D01*
X149559774Y-98696063D01*
X149390256Y-98582795D01*
X149201898Y-98504774D01*
X149001939Y-98465000D01*
X148798061Y-98465000D01*
X148598102Y-98504774D01*
X148443346Y-98568876D01*
X148443346Y-98492466D01*
X148403572Y-98292507D01*
X148325551Y-98104149D01*
X148212283Y-97934631D01*
X148068120Y-97790468D01*
X147898602Y-97677200D01*
X147710244Y-97599179D01*
X147510285Y-97559405D01*
X147306407Y-97559405D01*
X147106448Y-97599179D01*
X146929879Y-97672317D01*
X146895226Y-97498102D01*
X146817205Y-97309744D01*
X146777285Y-97250000D01*
X146817205Y-97190256D01*
X146895226Y-97001898D01*
X146935000Y-96801939D01*
X146935000Y-96598061D01*
X146895226Y-96398102D01*
X146817205Y-96209744D01*
X146703937Y-96040226D01*
X146559774Y-95896063D01*
X146390256Y-95782795D01*
X146201898Y-95704774D01*
X146001939Y-95665000D01*
X145798061Y-95665000D01*
X145598102Y-95704774D01*
X145409744Y-95782795D01*
X145240226Y-95896063D01*
X145096063Y-96040226D01*
X144982795Y-96209744D01*
X144904774Y-96398102D01*
X144865000Y-96598061D01*
X143365650Y-96598061D01*
X143503937Y-96459774D01*
X143617205Y-96290256D01*
X143695226Y-96101898D01*
X143735000Y-95901939D01*
X143735000Y-95698061D01*
X143715109Y-95598061D01*
X146940010Y-95598061D01*
X146940010Y-95801939D01*
X146979784Y-96001898D01*
X147057805Y-96190256D01*
X147171073Y-96359774D01*
X147315236Y-96503937D01*
X147484754Y-96617205D01*
X147673112Y-96695226D01*
X147873071Y-96735000D01*
X148076949Y-96735000D01*
X148276908Y-96695226D01*
X148465266Y-96617205D01*
X148634784Y-96503937D01*
X148778947Y-96359774D01*
X148892215Y-96190256D01*
X148970236Y-96001898D01*
X149000835Y-95848061D01*
X150065000Y-95848061D01*
X150065000Y-96051939D01*
X150104774Y-96251898D01*
X150182795Y-96440256D01*
X150296063Y-96609774D01*
X150440226Y-96753937D01*
X150609744Y-96867205D01*
X150798102Y-96945226D01*
X150998061Y-96985000D01*
X151201939Y-96985000D01*
X151401898Y-96945226D01*
X151590256Y-96867205D01*
X151759774Y-96753937D01*
X151903937Y-96609774D01*
X152017205Y-96440256D01*
X152094957Y-96252546D01*
X152104774Y-96301898D01*
X152182795Y-96490256D01*
X152296063Y-96659774D01*
X152440226Y-96803937D01*
X152459230Y-96816635D01*
X152404774Y-96948102D01*
X152365000Y-97148061D01*
X152365000Y-97351939D01*
X152404774Y-97551898D01*
X152482795Y-97740256D01*
X152556123Y-97850000D01*
X152482795Y-97959744D01*
X152404774Y-98148102D01*
X152365000Y-98348061D01*
X152365000Y-98551939D01*
X152404774Y-98751898D01*
X152482795Y-98940256D01*
X152591317Y-99102671D01*
X152401939Y-99065002D01*
X152198061Y-99065002D01*
X151998102Y-99104776D01*
X151809744Y-99182797D01*
X151640226Y-99296065D01*
X151496063Y-99440228D01*
X151382795Y-99609746D01*
X151304774Y-99798104D01*
X151265000Y-99998063D01*
X151265000Y-100201941D01*
X151304774Y-100401900D01*
X151382795Y-100590258D01*
X151496063Y-100759776D01*
X151640226Y-100903939D01*
X151809744Y-101017207D01*
X151998102Y-101095228D01*
X152170486Y-101129517D01*
X152204774Y-101301898D01*
X152282795Y-101490256D01*
X152396063Y-101659774D01*
X152540226Y-101803937D01*
X152709744Y-101917205D01*
X152898102Y-101995226D01*
X153098061Y-102035000D01*
X153301939Y-102035000D01*
X153501898Y-101995226D01*
X153690256Y-101917205D01*
X153859774Y-101803937D01*
X154003937Y-101659774D01*
X154117205Y-101490256D01*
X154195226Y-101301898D01*
X154235000Y-101101939D01*
X154235000Y-100898061D01*
X154195226Y-100698102D01*
X154117205Y-100509744D01*
X154003937Y-100340226D01*
X153859774Y-100196063D01*
X153690256Y-100082795D01*
X153501898Y-100004774D01*
X153329514Y-99970485D01*
X153295226Y-99798104D01*
X153217205Y-99609746D01*
X153108683Y-99447331D01*
X153298061Y-99485000D01*
X153501939Y-99485000D01*
X153701898Y-99445226D01*
X153890256Y-99367205D01*
X154059774Y-99253937D01*
X154203937Y-99109774D01*
X154317205Y-98940256D01*
X154395226Y-98751898D01*
X154435000Y-98551939D01*
X154435000Y-98348061D01*
X154395226Y-98148102D01*
X154317205Y-97959744D01*
X154243877Y-97850000D01*
X154317205Y-97740256D01*
X154395226Y-97551898D01*
X154435000Y-97351939D01*
X154435000Y-97148061D01*
X154395226Y-96948102D01*
X154317205Y-96759744D01*
X154203937Y-96590226D01*
X154059774Y-96446063D01*
X154040770Y-96433365D01*
X154095226Y-96301898D01*
X154135000Y-96101939D01*
X154135000Y-95898061D01*
X154095226Y-95698102D01*
X154017205Y-95509744D01*
X153942582Y-95398061D01*
X158465000Y-95398061D01*
X158465000Y-95601939D01*
X158504774Y-95801898D01*
X158582795Y-95990256D01*
X158696063Y-96159774D01*
X158840226Y-96303937D01*
X159009744Y-96417205D01*
X159198102Y-96495226D01*
X159398061Y-96535000D01*
X159601939Y-96535000D01*
X159801898Y-96495226D01*
X159990256Y-96417205D01*
X160159774Y-96303937D01*
X160303937Y-96159774D01*
X160374786Y-96053740D01*
X167275000Y-96053740D01*
X167275000Y-96346260D01*
X167332068Y-96633158D01*
X167444010Y-96903411D01*
X167606525Y-97146632D01*
X167813368Y-97353475D01*
X167987760Y-97470000D01*
X167813368Y-97586525D01*
X167606525Y-97793368D01*
X167444010Y-98036589D01*
X167332068Y-98306842D01*
X167275000Y-98593740D01*
X167275000Y-98886260D01*
X167332068Y-99173158D01*
X167444010Y-99443411D01*
X167606525Y-99686632D01*
X167813368Y-99893475D01*
X167987760Y-100010000D01*
X167813368Y-100126525D01*
X167606525Y-100333368D01*
X167444010Y-100576589D01*
X167332068Y-100846842D01*
X167275000Y-101133740D01*
X167275000Y-101426260D01*
X167332068Y-101713158D01*
X167444010Y-101983411D01*
X167606525Y-102226632D01*
X167813368Y-102433475D01*
X167987760Y-102550000D01*
X167813368Y-102666525D01*
X167606525Y-102873368D01*
X167444010Y-103116589D01*
X167332068Y-103386842D01*
X167275000Y-103673740D01*
X167275000Y-103966260D01*
X167332068Y-104253158D01*
X167444010Y-104523411D01*
X167606525Y-104766632D01*
X167813368Y-104973475D01*
X168056589Y-105135990D01*
X168326842Y-105247932D01*
X168613740Y-105305000D01*
X168906260Y-105305000D01*
X169193158Y-105247932D01*
X169463411Y-105135990D01*
X169706632Y-104973475D01*
X169913475Y-104766632D01*
X170030000Y-104592240D01*
X170146525Y-104766632D01*
X170353368Y-104973475D01*
X170596589Y-105135990D01*
X170866842Y-105247932D01*
X171153740Y-105305000D01*
X171446260Y-105305000D01*
X171733158Y-105247932D01*
X172003411Y-105135990D01*
X172246632Y-104973475D01*
X172453475Y-104766632D01*
X172615990Y-104523411D01*
X172727932Y-104253158D01*
X172785000Y-103966260D01*
X172785000Y-103673740D01*
X172727932Y-103386842D01*
X172615990Y-103116589D01*
X172603610Y-103098061D01*
X185565000Y-103098061D01*
X185565000Y-103301939D01*
X185604774Y-103501898D01*
X185682795Y-103690256D01*
X185796063Y-103859774D01*
X185940226Y-104003937D01*
X186109744Y-104117205D01*
X186298102Y-104195226D01*
X186498061Y-104235000D01*
X186701939Y-104235000D01*
X186901898Y-104195226D01*
X187090256Y-104117205D01*
X187259774Y-104003937D01*
X187403937Y-103859774D01*
X187517205Y-103690256D01*
X187595226Y-103501898D01*
X187635000Y-103301939D01*
X187635000Y-103098061D01*
X187595226Y-102898102D01*
X187517205Y-102709744D01*
X187403937Y-102540226D01*
X187259774Y-102396063D01*
X187090256Y-102282795D01*
X186901898Y-102204774D01*
X186701939Y-102165000D01*
X186498061Y-102165000D01*
X186298102Y-102204774D01*
X186109744Y-102282795D01*
X185940226Y-102396063D01*
X185796063Y-102540226D01*
X185682795Y-102709744D01*
X185604774Y-102898102D01*
X185565000Y-103098061D01*
X172603610Y-103098061D01*
X172453475Y-102873368D01*
X172246632Y-102666525D01*
X172072240Y-102550000D01*
X172246632Y-102433475D01*
X172453475Y-102226632D01*
X172542673Y-102093137D01*
X193915000Y-102093137D01*
X193915000Y-102306863D01*
X193956696Y-102516483D01*
X194038485Y-102713940D01*
X194157225Y-102891647D01*
X194308353Y-103042775D01*
X194486060Y-103161515D01*
X194683517Y-103243304D01*
X194893137Y-103285000D01*
X195106863Y-103285000D01*
X195316483Y-103243304D01*
X195513940Y-103161515D01*
X195691647Y-103042775D01*
X195842775Y-102891647D01*
X195961515Y-102713940D01*
X196043304Y-102516483D01*
X196085000Y-102306863D01*
X196085000Y-102093137D01*
X196043304Y-101883517D01*
X195961515Y-101686060D01*
X195842775Y-101508353D01*
X195691647Y-101357225D01*
X195513940Y-101238485D01*
X195316483Y-101156696D01*
X195106863Y-101115000D01*
X194893137Y-101115000D01*
X194683517Y-101156696D01*
X194486060Y-101238485D01*
X194308353Y-101357225D01*
X194157225Y-101508353D01*
X194038485Y-101686060D01*
X193956696Y-101883517D01*
X193915000Y-102093137D01*
X172542673Y-102093137D01*
X172615990Y-101983411D01*
X172727932Y-101713158D01*
X172785000Y-101426260D01*
X172785000Y-101133740D01*
X172738121Y-100898061D01*
X173965000Y-100898061D01*
X173965000Y-101101939D01*
X174004774Y-101301898D01*
X174082795Y-101490256D01*
X174196063Y-101659774D01*
X174340226Y-101803937D01*
X174509744Y-101917205D01*
X174698102Y-101995226D01*
X174898061Y-102035000D01*
X175101939Y-102035000D01*
X175301898Y-101995226D01*
X175490256Y-101917205D01*
X175659774Y-101803937D01*
X175803937Y-101659774D01*
X175917205Y-101490256D01*
X175995226Y-101301898D01*
X176035000Y-101101939D01*
X176035000Y-100898061D01*
X175995226Y-100698102D01*
X175917205Y-100509744D01*
X175803937Y-100340226D01*
X175659774Y-100196063D01*
X175490256Y-100082795D01*
X175301898Y-100004774D01*
X175101939Y-99965000D01*
X174898061Y-99965000D01*
X174698102Y-100004774D01*
X174509744Y-100082795D01*
X174340226Y-100196063D01*
X174196063Y-100340226D01*
X174082795Y-100509744D01*
X174004774Y-100698102D01*
X173965000Y-100898061D01*
X172738121Y-100898061D01*
X172727932Y-100846842D01*
X172615990Y-100576589D01*
X172453475Y-100333368D01*
X172246632Y-100126525D01*
X172072240Y-100010000D01*
X172246632Y-99893475D01*
X172453475Y-99686632D01*
X172615990Y-99443411D01*
X172727932Y-99173158D01*
X172785000Y-98886260D01*
X172785000Y-98593740D01*
X172727932Y-98306842D01*
X172615990Y-98036589D01*
X172453475Y-97793368D01*
X172321620Y-97661513D01*
X172394180Y-97639502D01*
X172504494Y-97580537D01*
X172601185Y-97501185D01*
X172603748Y-97498061D01*
X179565000Y-97498061D01*
X179565000Y-97701939D01*
X179604774Y-97901898D01*
X179682795Y-98090256D01*
X179796063Y-98259774D01*
X179940226Y-98403937D01*
X180109744Y-98517205D01*
X180298102Y-98595226D01*
X180498061Y-98635000D01*
X180701939Y-98635000D01*
X180901898Y-98595226D01*
X181090256Y-98517205D01*
X181259774Y-98403937D01*
X181403937Y-98259774D01*
X181517205Y-98090256D01*
X181595226Y-97901898D01*
X181635000Y-97701939D01*
X181635000Y-97693137D01*
X193915000Y-97693137D01*
X193915000Y-97906863D01*
X193956696Y-98116483D01*
X194038485Y-98313940D01*
X194157225Y-98491647D01*
X194308353Y-98642775D01*
X194486060Y-98761515D01*
X194683517Y-98843304D01*
X194893137Y-98885000D01*
X195106863Y-98885000D01*
X195316483Y-98843304D01*
X195513940Y-98761515D01*
X195691647Y-98642775D01*
X195842775Y-98491647D01*
X195961515Y-98313940D01*
X196043304Y-98116483D01*
X196085000Y-97906863D01*
X196085000Y-97693137D01*
X196043304Y-97483517D01*
X195961515Y-97286060D01*
X195842775Y-97108353D01*
X195691647Y-96957225D01*
X195513940Y-96838485D01*
X195316483Y-96756696D01*
X195106863Y-96715000D01*
X194893137Y-96715000D01*
X194683517Y-96756696D01*
X194486060Y-96838485D01*
X194308353Y-96957225D01*
X194157225Y-97108353D01*
X194038485Y-97286060D01*
X193956696Y-97483517D01*
X193915000Y-97693137D01*
X181635000Y-97693137D01*
X181635000Y-97498061D01*
X181595226Y-97298102D01*
X181517205Y-97109744D01*
X181403937Y-96940226D01*
X181259774Y-96796063D01*
X181090256Y-96682795D01*
X180901898Y-96604774D01*
X180701939Y-96565000D01*
X180498061Y-96565000D01*
X180298102Y-96604774D01*
X180109744Y-96682795D01*
X179940226Y-96796063D01*
X179796063Y-96940226D01*
X179682795Y-97109744D01*
X179604774Y-97298102D01*
X179565000Y-97498061D01*
X172603748Y-97498061D01*
X172680537Y-97404494D01*
X172739502Y-97294180D01*
X172775812Y-97174482D01*
X172788072Y-97050000D01*
X172788072Y-95350000D01*
X172775812Y-95225518D01*
X172739502Y-95105820D01*
X172680537Y-94995506D01*
X172601185Y-94898815D01*
X172504494Y-94819463D01*
X172394180Y-94760498D01*
X172274482Y-94724188D01*
X172150000Y-94711928D01*
X170450000Y-94711928D01*
X170325518Y-94724188D01*
X170205820Y-94760498D01*
X170095506Y-94819463D01*
X169998815Y-94898815D01*
X169919463Y-94995506D01*
X169860498Y-95105820D01*
X169838487Y-95178380D01*
X169706632Y-95046525D01*
X169463411Y-94884010D01*
X169193158Y-94772068D01*
X168906260Y-94715000D01*
X168613740Y-94715000D01*
X168326842Y-94772068D01*
X168056589Y-94884010D01*
X167813368Y-95046525D01*
X167606525Y-95253368D01*
X167444010Y-95496589D01*
X167332068Y-95766842D01*
X167275000Y-96053740D01*
X160374786Y-96053740D01*
X160417205Y-95990256D01*
X160495226Y-95801898D01*
X160535000Y-95601939D01*
X160535000Y-95398061D01*
X160495226Y-95198102D01*
X160417205Y-95009744D01*
X160303937Y-94840226D01*
X160159774Y-94696063D01*
X159990256Y-94582795D01*
X159801898Y-94504774D01*
X159601939Y-94465000D01*
X159398061Y-94465000D01*
X159198102Y-94504774D01*
X159009744Y-94582795D01*
X158840226Y-94696063D01*
X158696063Y-94840226D01*
X158582795Y-95009744D01*
X158504774Y-95198102D01*
X158465000Y-95398061D01*
X153942582Y-95398061D01*
X153903937Y-95340226D01*
X153759774Y-95196063D01*
X153590256Y-95082795D01*
X153401898Y-95004774D01*
X153201939Y-94965000D01*
X152998061Y-94965000D01*
X152798102Y-95004774D01*
X152609744Y-95082795D01*
X152440226Y-95196063D01*
X152296063Y-95340226D01*
X152182795Y-95509744D01*
X152105043Y-95697454D01*
X152095226Y-95648102D01*
X152017205Y-95459744D01*
X151903937Y-95290226D01*
X151759774Y-95146063D01*
X151590256Y-95032795D01*
X151401898Y-94954774D01*
X151201939Y-94915000D01*
X150998061Y-94915000D01*
X150798102Y-94954774D01*
X150609744Y-95032795D01*
X150440226Y-95146063D01*
X150296063Y-95290226D01*
X150182795Y-95459744D01*
X150104774Y-95648102D01*
X150065000Y-95848061D01*
X149000835Y-95848061D01*
X149010010Y-95801939D01*
X149010010Y-95598061D01*
X148970236Y-95398102D01*
X148892215Y-95209744D01*
X148778947Y-95040226D01*
X148634784Y-94896063D01*
X148465266Y-94782795D01*
X148276908Y-94704774D01*
X148076949Y-94665000D01*
X147873071Y-94665000D01*
X147673112Y-94704774D01*
X147484754Y-94782795D01*
X147315236Y-94896063D01*
X147171073Y-95040226D01*
X147057805Y-95209744D01*
X146979784Y-95398102D01*
X146940010Y-95598061D01*
X143715109Y-95598061D01*
X143695226Y-95498102D01*
X143617205Y-95309744D01*
X143503937Y-95140226D01*
X143359774Y-94996063D01*
X143190256Y-94882795D01*
X143001898Y-94804774D01*
X142801939Y-94765000D01*
X142598061Y-94765000D01*
X142398102Y-94804774D01*
X142209744Y-94882795D01*
X142040226Y-94996063D01*
X141896063Y-95140226D01*
X141782795Y-95309744D01*
X141704774Y-95498102D01*
X141665000Y-95698061D01*
X132647727Y-95698061D01*
X132555990Y-95476589D01*
X132393475Y-95233368D01*
X132186632Y-95026525D01*
X131943411Y-94864010D01*
X131673158Y-94752068D01*
X131386260Y-94695000D01*
X131093740Y-94695000D01*
X130806842Y-94752068D01*
X130536589Y-94864010D01*
X130293368Y-95026525D01*
X130086525Y-95233368D01*
X129970000Y-95407760D01*
X129853475Y-95233368D01*
X129646632Y-95026525D01*
X129403411Y-94864010D01*
X129133158Y-94752068D01*
X128846260Y-94695000D01*
X128553740Y-94695000D01*
X128266842Y-94752068D01*
X127996589Y-94864010D01*
X127753368Y-95026525D01*
X127546525Y-95233368D01*
X127384010Y-95476589D01*
X127272068Y-95746842D01*
X127215000Y-96033740D01*
X127215000Y-96326260D01*
X127272068Y-96613158D01*
X127384010Y-96883411D01*
X127546525Y-97126632D01*
X127753368Y-97333475D01*
X127927760Y-97450000D01*
X127753368Y-97566525D01*
X127546525Y-97773368D01*
X127384010Y-98016589D01*
X127272068Y-98286842D01*
X127215000Y-98573740D01*
X127215000Y-98866260D01*
X127272068Y-99153158D01*
X127384010Y-99423411D01*
X127546525Y-99666632D01*
X127753368Y-99873475D01*
X127927760Y-99990000D01*
X127753368Y-100106525D01*
X127546525Y-100313368D01*
X127384010Y-100556589D01*
X127272068Y-100826842D01*
X127215000Y-101113740D01*
X127215000Y-101406260D01*
X127272068Y-101693158D01*
X127384010Y-101963411D01*
X127546525Y-102206632D01*
X127678380Y-102338487D01*
X127605820Y-102360498D01*
X127495506Y-102419463D01*
X127398815Y-102498815D01*
X127319463Y-102595506D01*
X127260498Y-102705820D01*
X127224188Y-102825518D01*
X127211928Y-102950000D01*
X113683879Y-102950000D01*
X113745226Y-102801898D01*
X113785000Y-102601939D01*
X113785000Y-102398061D01*
X113745226Y-102198102D01*
X113667205Y-102009744D01*
X113553937Y-101840226D01*
X113409774Y-101696063D01*
X113240256Y-101582795D01*
X113051898Y-101504774D01*
X112851939Y-101465000D01*
X112648061Y-101465000D01*
X112448102Y-101504774D01*
X112259744Y-101582795D01*
X112090226Y-101696063D01*
X111946063Y-101840226D01*
X111832795Y-102009744D01*
X111754774Y-102198102D01*
X111715000Y-102398061D01*
X100727890Y-102398061D01*
X100660000Y-100000000D01*
X100684118Y-99148061D01*
X104215000Y-99148061D01*
X104215000Y-99351939D01*
X104254774Y-99551898D01*
X104332795Y-99740256D01*
X104446063Y-99909774D01*
X104590226Y-100053937D01*
X104759744Y-100167205D01*
X104948102Y-100245226D01*
X105148061Y-100285000D01*
X105351939Y-100285000D01*
X105551898Y-100245226D01*
X105740256Y-100167205D01*
X105909774Y-100053937D01*
X106053937Y-99909774D01*
X106167205Y-99740256D01*
X106245226Y-99551898D01*
X106285000Y-99351939D01*
X106285000Y-99148061D01*
X106245226Y-98948102D01*
X106167205Y-98759744D01*
X106053937Y-98590226D01*
X105909774Y-98446063D01*
X105740256Y-98332795D01*
X105551898Y-98254774D01*
X105351939Y-98215000D01*
X105148061Y-98215000D01*
X104948102Y-98254774D01*
X104759744Y-98332795D01*
X104590226Y-98446063D01*
X104446063Y-98590226D01*
X104332795Y-98759744D01*
X104254774Y-98948102D01*
X104215000Y-99148061D01*
X100684118Y-99148061D01*
X100735021Y-97350000D01*
X108811928Y-97350000D01*
X108811928Y-99050000D01*
X108824188Y-99174482D01*
X108860498Y-99294180D01*
X108919463Y-99404494D01*
X108998815Y-99501185D01*
X109095506Y-99580537D01*
X109205820Y-99639502D01*
X109278380Y-99661513D01*
X109146525Y-99793368D01*
X108984010Y-100036589D01*
X108872068Y-100306842D01*
X108815000Y-100593740D01*
X108815000Y-100886260D01*
X108872068Y-101173158D01*
X108984010Y-101443411D01*
X109146525Y-101686632D01*
X109353368Y-101893475D01*
X109596589Y-102055990D01*
X109866842Y-102167932D01*
X110153740Y-102225000D01*
X110446260Y-102225000D01*
X110733158Y-102167932D01*
X111003411Y-102055990D01*
X111246632Y-101893475D01*
X111453475Y-101686632D01*
X111615990Y-101443411D01*
X111727932Y-101173158D01*
X111785000Y-100886260D01*
X111785000Y-100593740D01*
X111727932Y-100306842D01*
X111615990Y-100036589D01*
X111453475Y-99793368D01*
X111321620Y-99661513D01*
X111394180Y-99639502D01*
X111504494Y-99580537D01*
X111601185Y-99501185D01*
X111680537Y-99404494D01*
X111739502Y-99294180D01*
X111775812Y-99174482D01*
X111788072Y-99050000D01*
X111788072Y-97350000D01*
X111775812Y-97225518D01*
X111739502Y-97105820D01*
X111680537Y-96995506D01*
X111601185Y-96898815D01*
X111504494Y-96819463D01*
X111394180Y-96760498D01*
X111274482Y-96724188D01*
X111150000Y-96711928D01*
X109450000Y-96711928D01*
X109325518Y-96724188D01*
X109205820Y-96760498D01*
X109095506Y-96819463D01*
X108998815Y-96898815D01*
X108919463Y-96995506D01*
X108860498Y-97105820D01*
X108824188Y-97225518D01*
X108811928Y-97350000D01*
X100735021Y-97350000D01*
X100739025Y-97208587D01*
X100914402Y-95148061D01*
X101965000Y-95148061D01*
X101965000Y-95351939D01*
X102004774Y-95551898D01*
X102082795Y-95740256D01*
X102196063Y-95909774D01*
X102340226Y-96053937D01*
X102509744Y-96167205D01*
X102698102Y-96245226D01*
X102898061Y-96285000D01*
X103101939Y-96285000D01*
X103301898Y-96245226D01*
X103490256Y-96167205D01*
X103659774Y-96053937D01*
X103803937Y-95909774D01*
X103917205Y-95740256D01*
X103995226Y-95551898D01*
X104025825Y-95398061D01*
X112065000Y-95398061D01*
X112065000Y-95601939D01*
X112104774Y-95801898D01*
X112182795Y-95990256D01*
X112296063Y-96159774D01*
X112440226Y-96303937D01*
X112609744Y-96417205D01*
X112798102Y-96495226D01*
X112998061Y-96535000D01*
X113201939Y-96535000D01*
X113401898Y-96495226D01*
X113590256Y-96417205D01*
X113759774Y-96303937D01*
X113903937Y-96159774D01*
X114017205Y-95990256D01*
X114095226Y-95801898D01*
X114135000Y-95601939D01*
X114135000Y-95398061D01*
X114095226Y-95198102D01*
X114017205Y-95009744D01*
X113903937Y-94840226D01*
X113759774Y-94696063D01*
X113590256Y-94582795D01*
X113401898Y-94504774D01*
X113201939Y-94465000D01*
X112998061Y-94465000D01*
X112798102Y-94504774D01*
X112609744Y-94582795D01*
X112440226Y-94696063D01*
X112296063Y-94840226D01*
X112182795Y-95009744D01*
X112104774Y-95198102D01*
X112065000Y-95398061D01*
X104025825Y-95398061D01*
X104035000Y-95351939D01*
X104035000Y-95148061D01*
X103995226Y-94948102D01*
X103917205Y-94759744D01*
X103803937Y-94590226D01*
X103659774Y-94446063D01*
X103587934Y-94398061D01*
X172965000Y-94398061D01*
X172965000Y-94601939D01*
X173004774Y-94801898D01*
X173082795Y-94990256D01*
X173196063Y-95159774D01*
X173340226Y-95303937D01*
X173509744Y-95417205D01*
X173698102Y-95495226D01*
X173898061Y-95535000D01*
X174101939Y-95535000D01*
X174301898Y-95495226D01*
X174490256Y-95417205D01*
X174659774Y-95303937D01*
X174803937Y-95159774D01*
X174917205Y-94990256D01*
X174995226Y-94801898D01*
X175035000Y-94601939D01*
X175035000Y-94398061D01*
X174995226Y-94198102D01*
X174917205Y-94009744D01*
X174803937Y-93840226D01*
X174659774Y-93696063D01*
X174490256Y-93582795D01*
X174301898Y-93504774D01*
X174101939Y-93465000D01*
X173898061Y-93465000D01*
X173698102Y-93504774D01*
X173509744Y-93582795D01*
X173340226Y-93696063D01*
X173196063Y-93840226D01*
X173082795Y-94009744D01*
X173004774Y-94198102D01*
X172965000Y-94398061D01*
X103587934Y-94398061D01*
X103490256Y-94332795D01*
X103301898Y-94254774D01*
X103101939Y-94215000D01*
X102898061Y-94215000D01*
X102698102Y-94254774D01*
X102509744Y-94332795D01*
X102340226Y-94446063D01*
X102196063Y-94590226D01*
X102082795Y-94759744D01*
X102004774Y-94948102D01*
X101965000Y-95148061D01*
X100914402Y-95148061D01*
X100975849Y-94426116D01*
X101336009Y-91898061D01*
X135965000Y-91898061D01*
X135965000Y-92101939D01*
X136004774Y-92301898D01*
X136082795Y-92490256D01*
X136196063Y-92659774D01*
X136340226Y-92803937D01*
X136509744Y-92917205D01*
X136698102Y-92995226D01*
X136898061Y-93035000D01*
X137101939Y-93035000D01*
X137301898Y-92995226D01*
X137490256Y-92917205D01*
X137659774Y-92803937D01*
X137803937Y-92659774D01*
X137845172Y-92598061D01*
X142565000Y-92598061D01*
X142565000Y-92801939D01*
X142604774Y-93001898D01*
X142682795Y-93190256D01*
X142796063Y-93359774D01*
X142940226Y-93503937D01*
X143109744Y-93617205D01*
X143298102Y-93695226D01*
X143498061Y-93735000D01*
X143701939Y-93735000D01*
X143901898Y-93695226D01*
X144090256Y-93617205D01*
X144259774Y-93503937D01*
X144403937Y-93359774D01*
X144517205Y-93190256D01*
X144595226Y-93001898D01*
X144595989Y-92998061D01*
X184665000Y-92998061D01*
X184665000Y-93201939D01*
X184704774Y-93401898D01*
X184782795Y-93590256D01*
X184896063Y-93759774D01*
X185040226Y-93903937D01*
X185209744Y-94017205D01*
X185398102Y-94095226D01*
X185598061Y-94135000D01*
X185801939Y-94135000D01*
X186001898Y-94095226D01*
X186190256Y-94017205D01*
X186359774Y-93903937D01*
X186503937Y-93759774D01*
X186617205Y-93590256D01*
X186695226Y-93401898D01*
X186735000Y-93201939D01*
X186735000Y-92998061D01*
X186695226Y-92798102D01*
X186617205Y-92609744D01*
X186503937Y-92440226D01*
X186359774Y-92296063D01*
X186190256Y-92182795D01*
X186001898Y-92104774D01*
X185801939Y-92065000D01*
X185598061Y-92065000D01*
X185398102Y-92104774D01*
X185209744Y-92182795D01*
X185040226Y-92296063D01*
X184896063Y-92440226D01*
X184782795Y-92609744D01*
X184704774Y-92798102D01*
X184665000Y-92998061D01*
X144595989Y-92998061D01*
X144635000Y-92801939D01*
X144635000Y-92598061D01*
X144595226Y-92398102D01*
X144517205Y-92209744D01*
X144403937Y-92040226D01*
X144259774Y-91896063D01*
X144090256Y-91782795D01*
X143901898Y-91704774D01*
X143701939Y-91665000D01*
X143498061Y-91665000D01*
X143298102Y-91704774D01*
X143109744Y-91782795D01*
X142940226Y-91896063D01*
X142796063Y-92040226D01*
X142682795Y-92209744D01*
X142604774Y-92398102D01*
X142565000Y-92598061D01*
X137845172Y-92598061D01*
X137917205Y-92490256D01*
X137995226Y-92301898D01*
X138035000Y-92101939D01*
X138035000Y-91898061D01*
X137995226Y-91698102D01*
X137917205Y-91509744D01*
X137803937Y-91340226D01*
X137659774Y-91196063D01*
X137490256Y-91082795D01*
X137301898Y-91004774D01*
X137101939Y-90965000D01*
X136898061Y-90965000D01*
X136698102Y-91004774D01*
X136509744Y-91082795D01*
X136340226Y-91196063D01*
X136196063Y-91340226D01*
X136082795Y-91509744D01*
X136004774Y-91698102D01*
X135965000Y-91898061D01*
X101336009Y-91898061D01*
X101369711Y-91661500D01*
X101543048Y-90798061D01*
X147490000Y-90798061D01*
X147490000Y-91001939D01*
X147529774Y-91201898D01*
X147607795Y-91390256D01*
X147721063Y-91559774D01*
X147865226Y-91703937D01*
X148034744Y-91817205D01*
X148223102Y-91895226D01*
X148423061Y-91935000D01*
X148626939Y-91935000D01*
X148826898Y-91895226D01*
X149015256Y-91817205D01*
X149184774Y-91703937D01*
X149328937Y-91559774D01*
X149442205Y-91390256D01*
X149520226Y-91201898D01*
X149560000Y-91001939D01*
X149560000Y-90850000D01*
X159011928Y-90850000D01*
X159024188Y-90974482D01*
X159060498Y-91094180D01*
X159119463Y-91204494D01*
X159198815Y-91301185D01*
X159295506Y-91380537D01*
X159405820Y-91439502D01*
X159525518Y-91475812D01*
X159650000Y-91488072D01*
X160214250Y-91485000D01*
X160373000Y-91326250D01*
X160373000Y-90127000D01*
X160627000Y-90127000D01*
X160627000Y-91326250D01*
X160785750Y-91485000D01*
X161350000Y-91488072D01*
X161474482Y-91475812D01*
X161594180Y-91439502D01*
X161704494Y-91380537D01*
X161801185Y-91301185D01*
X161880537Y-91204494D01*
X161883975Y-91198061D01*
X181765000Y-91198061D01*
X181765000Y-91401939D01*
X181804774Y-91601898D01*
X181882795Y-91790256D01*
X181996063Y-91959774D01*
X182140226Y-92103937D01*
X182309744Y-92217205D01*
X182498102Y-92295226D01*
X182698061Y-92335000D01*
X182901939Y-92335000D01*
X183101898Y-92295226D01*
X183290256Y-92217205D01*
X183459774Y-92103937D01*
X183603937Y-91959774D01*
X183717205Y-91790256D01*
X183795226Y-91601898D01*
X183835000Y-91401939D01*
X183835000Y-91198061D01*
X183795226Y-90998102D01*
X183717205Y-90809744D01*
X183603937Y-90640226D01*
X183459774Y-90496063D01*
X183290256Y-90382795D01*
X183101898Y-90304774D01*
X182901939Y-90265000D01*
X182698061Y-90265000D01*
X182498102Y-90304774D01*
X182309744Y-90382795D01*
X182140226Y-90496063D01*
X181996063Y-90640226D01*
X181882795Y-90809744D01*
X181804774Y-90998102D01*
X181765000Y-91198061D01*
X161883975Y-91198061D01*
X161939502Y-91094180D01*
X161975812Y-90974482D01*
X161988072Y-90850000D01*
X161985000Y-90285750D01*
X161826250Y-90127000D01*
X160627000Y-90127000D01*
X160373000Y-90127000D01*
X159173750Y-90127000D01*
X159015000Y-90285750D01*
X159011928Y-90850000D01*
X149560000Y-90850000D01*
X149560000Y-90798061D01*
X149520226Y-90598102D01*
X149442205Y-90409744D01*
X149328937Y-90240226D01*
X149184774Y-90096063D01*
X149015256Y-89982795D01*
X148826898Y-89904774D01*
X148626939Y-89865000D01*
X148423061Y-89865000D01*
X148223102Y-89904774D01*
X148034744Y-89982795D01*
X147865226Y-90096063D01*
X147721063Y-90240226D01*
X147607795Y-90409744D01*
X147529774Y-90598102D01*
X147490000Y-90798061D01*
X101543048Y-90798061D01*
X101919351Y-88923594D01*
X102030151Y-88498061D01*
X147990000Y-88498061D01*
X147990000Y-88701939D01*
X148029774Y-88901898D01*
X148107795Y-89090256D01*
X148221063Y-89259774D01*
X148365226Y-89403937D01*
X148534744Y-89517205D01*
X148723102Y-89595226D01*
X148923061Y-89635000D01*
X149126939Y-89635000D01*
X149326898Y-89595226D01*
X149515256Y-89517205D01*
X149684774Y-89403937D01*
X149828937Y-89259774D01*
X149902285Y-89150000D01*
X159011928Y-89150000D01*
X159015000Y-89714250D01*
X159173750Y-89873000D01*
X160373000Y-89873000D01*
X160373000Y-89853000D01*
X160627000Y-89853000D01*
X160627000Y-89873000D01*
X161826250Y-89873000D01*
X161985000Y-89714250D01*
X161988072Y-89150000D01*
X161982957Y-89098061D01*
X181765000Y-89098061D01*
X181765000Y-89301939D01*
X181804774Y-89501898D01*
X181882795Y-89690256D01*
X181996063Y-89859774D01*
X182140226Y-90003937D01*
X182309744Y-90117205D01*
X182498102Y-90195226D01*
X182698061Y-90235000D01*
X182901939Y-90235000D01*
X183101898Y-90195226D01*
X183290256Y-90117205D01*
X183459774Y-90003937D01*
X183603937Y-89859774D01*
X183717205Y-89690256D01*
X183795226Y-89501898D01*
X183835000Y-89301939D01*
X183835000Y-89098061D01*
X183795226Y-88898102D01*
X183717205Y-88709744D01*
X183603937Y-88540226D01*
X183459774Y-88396063D01*
X183290256Y-88282795D01*
X183101898Y-88204774D01*
X182901939Y-88165000D01*
X182698061Y-88165000D01*
X182498102Y-88204774D01*
X182309744Y-88282795D01*
X182140226Y-88396063D01*
X181996063Y-88540226D01*
X181882795Y-88709744D01*
X181804774Y-88898102D01*
X181765000Y-89098061D01*
X161982957Y-89098061D01*
X161975812Y-89025518D01*
X161939502Y-88905820D01*
X161880537Y-88795506D01*
X161801185Y-88698815D01*
X161704494Y-88619463D01*
X161594180Y-88560498D01*
X161521620Y-88538487D01*
X161653475Y-88406632D01*
X161815990Y-88163411D01*
X161927932Y-87893158D01*
X161985000Y-87606260D01*
X161985000Y-87313740D01*
X161927932Y-87026842D01*
X161815990Y-86756589D01*
X161653475Y-86513368D01*
X161446632Y-86306525D01*
X161272240Y-86190000D01*
X161446632Y-86073475D01*
X161653475Y-85866632D01*
X161815990Y-85623411D01*
X161927932Y-85353158D01*
X161985000Y-85066260D01*
X161985000Y-84773740D01*
X161927932Y-84486842D01*
X161815990Y-84216589D01*
X161653475Y-83973368D01*
X161446632Y-83766525D01*
X161203411Y-83604010D01*
X160933158Y-83492068D01*
X160646260Y-83435000D01*
X160353740Y-83435000D01*
X160066842Y-83492068D01*
X159796589Y-83604010D01*
X159553368Y-83766525D01*
X159346525Y-83973368D01*
X159184010Y-84216589D01*
X159072068Y-84486842D01*
X159015000Y-84773740D01*
X159015000Y-85066260D01*
X159072068Y-85353158D01*
X159184010Y-85623411D01*
X159346525Y-85866632D01*
X159553368Y-86073475D01*
X159727760Y-86190000D01*
X159553368Y-86306525D01*
X159346525Y-86513368D01*
X159184010Y-86756589D01*
X159072068Y-87026842D01*
X159015000Y-87313740D01*
X159015000Y-87606260D01*
X159072068Y-87893158D01*
X159184010Y-88163411D01*
X159346525Y-88406632D01*
X159478380Y-88538487D01*
X159405820Y-88560498D01*
X159295506Y-88619463D01*
X159198815Y-88698815D01*
X159119463Y-88795506D01*
X159060498Y-88905820D01*
X159024188Y-89025518D01*
X159011928Y-89150000D01*
X149902285Y-89150000D01*
X149942205Y-89090256D01*
X150020226Y-88901898D01*
X150060000Y-88701939D01*
X150060000Y-88498061D01*
X150020226Y-88298102D01*
X149942205Y-88109744D01*
X149828937Y-87940226D01*
X149684774Y-87796063D01*
X149515256Y-87682795D01*
X149326898Y-87604774D01*
X149126939Y-87565000D01*
X148923061Y-87565000D01*
X148723102Y-87604774D01*
X148534744Y-87682795D01*
X148365226Y-87796063D01*
X148221063Y-87940226D01*
X148107795Y-88109744D01*
X148029774Y-88298102D01*
X147990000Y-88498061D01*
X102030151Y-88498061D01*
X102623007Y-86221169D01*
X102661998Y-86100000D01*
X131471928Y-86100000D01*
X131484188Y-86224482D01*
X131520498Y-86344180D01*
X131579463Y-86454494D01*
X131658815Y-86551185D01*
X131755506Y-86630537D01*
X131865820Y-86689502D01*
X131985518Y-86725812D01*
X132110000Y-86738072D01*
X132674250Y-86735000D01*
X132833000Y-86576250D01*
X132833000Y-85377000D01*
X131633750Y-85377000D01*
X131475000Y-85535750D01*
X131471928Y-86100000D01*
X102661998Y-86100000D01*
X103209047Y-84400000D01*
X131471928Y-84400000D01*
X131475000Y-84964250D01*
X131633750Y-85123000D01*
X132833000Y-85123000D01*
X132833000Y-83923750D01*
X133087000Y-83923750D01*
X133087000Y-85123000D01*
X133107000Y-85123000D01*
X133107000Y-85377000D01*
X133087000Y-85377000D01*
X133087000Y-86576250D01*
X133245750Y-86735000D01*
X133810000Y-86738072D01*
X133934482Y-86725812D01*
X134054180Y-86689502D01*
X134164494Y-86630537D01*
X134261185Y-86551185D01*
X134340537Y-86454494D01*
X134399502Y-86344180D01*
X134421513Y-86271620D01*
X134553368Y-86403475D01*
X134796589Y-86565990D01*
X135066842Y-86677932D01*
X135353740Y-86735000D01*
X135646260Y-86735000D01*
X135933158Y-86677932D01*
X136203411Y-86565990D01*
X136446632Y-86403475D01*
X136653475Y-86196632D01*
X136770000Y-86022240D01*
X136886525Y-86196632D01*
X137093368Y-86403475D01*
X137336589Y-86565990D01*
X137606842Y-86677932D01*
X137893740Y-86735000D01*
X138186260Y-86735000D01*
X138473158Y-86677932D01*
X138743411Y-86565990D01*
X138986632Y-86403475D01*
X139193475Y-86196632D01*
X139355990Y-85953411D01*
X139467932Y-85683158D01*
X139525000Y-85396260D01*
X139525000Y-85103740D01*
X139467932Y-84816842D01*
X139355990Y-84546589D01*
X139193475Y-84303368D01*
X138986632Y-84096525D01*
X138743411Y-83934010D01*
X138473158Y-83822068D01*
X138186260Y-83765000D01*
X137893740Y-83765000D01*
X137606842Y-83822068D01*
X137336589Y-83934010D01*
X137093368Y-84096525D01*
X136886525Y-84303368D01*
X136770000Y-84477760D01*
X136653475Y-84303368D01*
X136446632Y-84096525D01*
X136203411Y-83934010D01*
X135933158Y-83822068D01*
X135646260Y-83765000D01*
X135353740Y-83765000D01*
X135066842Y-83822068D01*
X134796589Y-83934010D01*
X134553368Y-84096525D01*
X134421513Y-84228380D01*
X134399502Y-84155820D01*
X134340537Y-84045506D01*
X134261185Y-83948815D01*
X134164494Y-83869463D01*
X134054180Y-83810498D01*
X133934482Y-83774188D01*
X133810000Y-83761928D01*
X133245750Y-83765000D01*
X133087000Y-83923750D01*
X132833000Y-83923750D01*
X132674250Y-83765000D01*
X132110000Y-83761928D01*
X131985518Y-83774188D01*
X131865820Y-83810498D01*
X131755506Y-83869463D01*
X131658815Y-83948815D01*
X131579463Y-84045506D01*
X131520498Y-84155820D01*
X131484188Y-84275518D01*
X131471928Y-84400000D01*
X103209047Y-84400000D01*
X103478427Y-83562883D01*
X104482869Y-80957249D01*
X105633116Y-78412615D01*
X106925484Y-75937131D01*
X107498103Y-74976964D01*
X122466263Y-74976964D01*
X122466263Y-75525562D01*
X122573289Y-76063617D01*
X122783228Y-76570455D01*
X123088013Y-77026597D01*
X123475929Y-77414513D01*
X123932071Y-77719298D01*
X124438909Y-77929237D01*
X124976964Y-78036263D01*
X125525562Y-78036263D01*
X126063617Y-77929237D01*
X126254912Y-77850000D01*
X144681928Y-77850000D01*
X144681928Y-79550000D01*
X144694188Y-79674482D01*
X144730498Y-79794180D01*
X144789463Y-79904494D01*
X144868815Y-80001185D01*
X144965506Y-80080537D01*
X145075820Y-80139502D01*
X145148380Y-80161513D01*
X145016525Y-80293368D01*
X144854010Y-80536589D01*
X144742068Y-80806842D01*
X144685000Y-81093740D01*
X144685000Y-81386260D01*
X144742068Y-81673158D01*
X144854010Y-81943411D01*
X145016525Y-82186632D01*
X145223368Y-82393475D01*
X145466589Y-82555990D01*
X145736842Y-82667932D01*
X146023740Y-82725000D01*
X146316260Y-82725000D01*
X146603158Y-82667932D01*
X146873411Y-82555990D01*
X147116632Y-82393475D01*
X147323475Y-82186632D01*
X147440000Y-82012240D01*
X147556525Y-82186632D01*
X147763368Y-82393475D01*
X148006589Y-82555990D01*
X148276842Y-82667932D01*
X148563740Y-82725000D01*
X148856260Y-82725000D01*
X149143158Y-82667932D01*
X149413411Y-82555990D01*
X149656632Y-82393475D01*
X149863475Y-82186632D01*
X149980000Y-82012240D01*
X150096525Y-82186632D01*
X150303368Y-82393475D01*
X150546589Y-82555990D01*
X150816842Y-82667932D01*
X151103740Y-82725000D01*
X151396260Y-82725000D01*
X151683158Y-82667932D01*
X151953411Y-82555990D01*
X152196632Y-82393475D01*
X152403475Y-82186632D01*
X152520000Y-82012240D01*
X152636525Y-82186632D01*
X152843368Y-82393475D01*
X153086589Y-82555990D01*
X153356842Y-82667932D01*
X153643740Y-82725000D01*
X153936260Y-82725000D01*
X154223158Y-82667932D01*
X154493411Y-82555990D01*
X154736632Y-82393475D01*
X154943475Y-82186632D01*
X155105990Y-81943411D01*
X155217932Y-81673158D01*
X155275000Y-81386260D01*
X155275000Y-81093740D01*
X155217932Y-80806842D01*
X155105990Y-80536589D01*
X154943475Y-80293368D01*
X154736632Y-80086525D01*
X154562240Y-79970000D01*
X154736632Y-79853475D01*
X154943475Y-79646632D01*
X155105990Y-79403411D01*
X155217932Y-79133158D01*
X155275000Y-78846260D01*
X155275000Y-78553740D01*
X155217932Y-78266842D01*
X155105990Y-77996589D01*
X154943475Y-77753368D01*
X154736632Y-77546525D01*
X154493411Y-77384010D01*
X154223158Y-77272068D01*
X153936260Y-77215000D01*
X153643740Y-77215000D01*
X153356842Y-77272068D01*
X153086589Y-77384010D01*
X152843368Y-77546525D01*
X152636525Y-77753368D01*
X152520000Y-77927760D01*
X152403475Y-77753368D01*
X152196632Y-77546525D01*
X151953411Y-77384010D01*
X151683158Y-77272068D01*
X151396260Y-77215000D01*
X151103740Y-77215000D01*
X150816842Y-77272068D01*
X150546589Y-77384010D01*
X150303368Y-77546525D01*
X150096525Y-77753368D01*
X149980000Y-77927760D01*
X149863475Y-77753368D01*
X149656632Y-77546525D01*
X149413411Y-77384010D01*
X149143158Y-77272068D01*
X148856260Y-77215000D01*
X148563740Y-77215000D01*
X148276842Y-77272068D01*
X148006589Y-77384010D01*
X147763368Y-77546525D01*
X147631513Y-77678380D01*
X147609502Y-77605820D01*
X147550537Y-77495506D01*
X147471185Y-77398815D01*
X147374494Y-77319463D01*
X147264180Y-77260498D01*
X147144482Y-77224188D01*
X147020000Y-77211928D01*
X145320000Y-77211928D01*
X145195518Y-77224188D01*
X145075820Y-77260498D01*
X144965506Y-77319463D01*
X144868815Y-77398815D01*
X144789463Y-77495506D01*
X144730498Y-77605820D01*
X144694188Y-77725518D01*
X144681928Y-77850000D01*
X126254912Y-77850000D01*
X126570455Y-77719298D01*
X127026597Y-77414513D01*
X127414513Y-77026597D01*
X127719298Y-76570455D01*
X127873548Y-76198061D01*
X151365000Y-76198061D01*
X151365000Y-76401939D01*
X151404774Y-76601898D01*
X151482795Y-76790256D01*
X151596063Y-76959774D01*
X151740226Y-77103937D01*
X151909744Y-77217205D01*
X152098102Y-77295226D01*
X152298061Y-77335000D01*
X152501939Y-77335000D01*
X152701898Y-77295226D01*
X152890256Y-77217205D01*
X153059774Y-77103937D01*
X153203937Y-76959774D01*
X153317205Y-76790256D01*
X153395226Y-76601898D01*
X153435000Y-76401939D01*
X153435000Y-76198061D01*
X153425441Y-76150000D01*
X159011928Y-76150000D01*
X159011928Y-77850000D01*
X159024188Y-77974482D01*
X159060498Y-78094180D01*
X159119463Y-78204494D01*
X159198815Y-78301185D01*
X159295506Y-78380537D01*
X159405820Y-78439502D01*
X159525518Y-78475812D01*
X159650000Y-78488072D01*
X161350000Y-78488072D01*
X161474482Y-78475812D01*
X161594180Y-78439502D01*
X161704494Y-78380537D01*
X161801185Y-78301185D01*
X161880537Y-78204494D01*
X161939502Y-78094180D01*
X161975812Y-77974482D01*
X161988072Y-77850000D01*
X161988072Y-76150000D01*
X161975812Y-76025518D01*
X161939502Y-75905820D01*
X161880537Y-75795506D01*
X161801185Y-75698815D01*
X161704494Y-75619463D01*
X161594180Y-75560498D01*
X161521620Y-75538487D01*
X161653475Y-75406632D01*
X161815990Y-75163411D01*
X161893218Y-74976964D01*
X171963737Y-74976964D01*
X171963737Y-75525562D01*
X172070763Y-76063617D01*
X172280702Y-76570455D01*
X172585487Y-77026597D01*
X172973403Y-77414513D01*
X173429545Y-77719298D01*
X173936383Y-77929237D01*
X174474438Y-78036263D01*
X175023036Y-78036263D01*
X175561091Y-77929237D01*
X176067929Y-77719298D01*
X176524071Y-77414513D01*
X176911987Y-77026597D01*
X177216772Y-76570455D01*
X177426711Y-76063617D01*
X177533737Y-75525562D01*
X177533737Y-74976964D01*
X177426711Y-74438909D01*
X177216772Y-73932071D01*
X176911987Y-73475929D01*
X176524071Y-73088013D01*
X176067929Y-72783228D01*
X175561091Y-72573289D01*
X175023036Y-72466263D01*
X174474438Y-72466263D01*
X173936383Y-72573289D01*
X173429545Y-72783228D01*
X172973403Y-73088013D01*
X172585487Y-73475929D01*
X172280702Y-73932071D01*
X172070763Y-74438909D01*
X171963737Y-74976964D01*
X161893218Y-74976964D01*
X161927932Y-74893158D01*
X161985000Y-74606260D01*
X161985000Y-74313740D01*
X161927932Y-74026842D01*
X161815990Y-73756589D01*
X161653475Y-73513368D01*
X161446632Y-73306525D01*
X161264466Y-73184805D01*
X161381355Y-73115178D01*
X161597588Y-72920269D01*
X161771641Y-72686920D01*
X161896825Y-72424099D01*
X161941476Y-72276890D01*
X161820155Y-72047000D01*
X160627000Y-72047000D01*
X160627000Y-72067000D01*
X160373000Y-72067000D01*
X160373000Y-72047000D01*
X159179845Y-72047000D01*
X159058524Y-72276890D01*
X159103175Y-72424099D01*
X159228359Y-72686920D01*
X159402412Y-72920269D01*
X159618645Y-73115178D01*
X159735534Y-73184805D01*
X159553368Y-73306525D01*
X159346525Y-73513368D01*
X159184010Y-73756589D01*
X159072068Y-74026842D01*
X159015000Y-74313740D01*
X159015000Y-74606260D01*
X159072068Y-74893158D01*
X159184010Y-75163411D01*
X159346525Y-75406632D01*
X159478380Y-75538487D01*
X159405820Y-75560498D01*
X159295506Y-75619463D01*
X159198815Y-75698815D01*
X159119463Y-75795506D01*
X159060498Y-75905820D01*
X159024188Y-76025518D01*
X159011928Y-76150000D01*
X153425441Y-76150000D01*
X153402542Y-76034881D01*
X153601900Y-75995226D01*
X153790258Y-75917205D01*
X153959776Y-75803937D01*
X154103939Y-75659774D01*
X154217207Y-75490256D01*
X154295228Y-75301898D01*
X154335002Y-75101939D01*
X154335002Y-74898061D01*
X154295228Y-74698102D01*
X154217207Y-74509744D01*
X154103939Y-74340226D01*
X153959776Y-74196063D01*
X153790258Y-74082795D01*
X153601900Y-74004774D01*
X153401941Y-73965000D01*
X153198063Y-73965000D01*
X152998104Y-74004774D01*
X152809746Y-74082795D01*
X152640228Y-74196063D01*
X152496065Y-74340226D01*
X152382797Y-74509744D01*
X152304776Y-74698102D01*
X152265002Y-74898061D01*
X152265002Y-75101939D01*
X152297460Y-75265119D01*
X152098102Y-75304774D01*
X151909744Y-75382795D01*
X151740226Y-75496063D01*
X151596063Y-75640226D01*
X151482795Y-75809744D01*
X151404774Y-75998102D01*
X151365000Y-76198061D01*
X127873548Y-76198061D01*
X127929237Y-76063617D01*
X128036263Y-75525562D01*
X128036263Y-74976964D01*
X127929237Y-74438909D01*
X127719298Y-73932071D01*
X127414513Y-73475929D01*
X127026597Y-73088013D01*
X126570455Y-72783228D01*
X126063617Y-72573289D01*
X125525562Y-72466263D01*
X124976964Y-72466263D01*
X124438909Y-72573289D01*
X123932071Y-72783228D01*
X123475929Y-73088013D01*
X123088013Y-73475929D01*
X122783228Y-73932071D01*
X122573289Y-74438909D01*
X122466263Y-74976964D01*
X107498103Y-74976964D01*
X108355832Y-73538729D01*
X109919579Y-71225090D01*
X111611716Y-69003625D01*
X111915831Y-68648061D01*
X149715000Y-68648061D01*
X149715000Y-68851939D01*
X149754774Y-69051898D01*
X149832795Y-69240256D01*
X149946063Y-69409774D01*
X150090226Y-69553937D01*
X150259744Y-69667205D01*
X150448102Y-69745226D01*
X150648061Y-69785000D01*
X150851939Y-69785000D01*
X151051898Y-69745226D01*
X151240256Y-69667205D01*
X151409774Y-69553937D01*
X151553937Y-69409774D01*
X151667205Y-69240256D01*
X151745226Y-69051898D01*
X151785000Y-68851939D01*
X151785000Y-68648061D01*
X151745226Y-68448102D01*
X151724499Y-68398061D01*
X155465000Y-68398061D01*
X155465000Y-68601939D01*
X155504774Y-68801898D01*
X155582795Y-68990256D01*
X155696063Y-69159774D01*
X155840226Y-69303937D01*
X156009744Y-69417205D01*
X156198102Y-69495226D01*
X156398061Y-69535000D01*
X156601939Y-69535000D01*
X156801898Y-69495226D01*
X156990256Y-69417205D01*
X157159774Y-69303937D01*
X157303937Y-69159774D01*
X157417205Y-68990256D01*
X157495226Y-68801898D01*
X157535000Y-68601939D01*
X157535000Y-68398061D01*
X157495226Y-68198102D01*
X157417205Y-68009744D01*
X157303937Y-67840226D01*
X157159774Y-67696063D01*
X157013104Y-67598061D01*
X157465000Y-67598061D01*
X157465000Y-67801939D01*
X157504774Y-68001898D01*
X157582795Y-68190256D01*
X157696063Y-68359774D01*
X157840226Y-68503937D01*
X158009744Y-68617205D01*
X158198102Y-68695226D01*
X158398061Y-68735000D01*
X158601939Y-68735000D01*
X158801898Y-68695226D01*
X158990256Y-68617205D01*
X159159774Y-68503937D01*
X159303937Y-68359774D01*
X159417205Y-68190256D01*
X159495226Y-68001898D01*
X159506270Y-67946377D01*
X159553368Y-67993475D01*
X159727760Y-68110000D01*
X159553368Y-68226525D01*
X159346525Y-68433368D01*
X159184010Y-68676589D01*
X159072068Y-68946842D01*
X159015000Y-69233740D01*
X159015000Y-69526260D01*
X159072068Y-69813158D01*
X159184010Y-70083411D01*
X159346525Y-70326632D01*
X159553368Y-70533475D01*
X159735534Y-70655195D01*
X159618645Y-70724822D01*
X159402412Y-70919731D01*
X159228359Y-71153080D01*
X159103175Y-71415901D01*
X159058524Y-71563110D01*
X159179845Y-71793000D01*
X160373000Y-71793000D01*
X160373000Y-71773000D01*
X160627000Y-71773000D01*
X160627000Y-71793000D01*
X161820155Y-71793000D01*
X161941476Y-71563110D01*
X161896825Y-71415901D01*
X161771641Y-71153080D01*
X161597588Y-70919731D01*
X161381355Y-70724822D01*
X161264466Y-70655195D01*
X161446632Y-70533475D01*
X161653475Y-70326632D01*
X161815990Y-70083411D01*
X161927932Y-69813158D01*
X161985000Y-69526260D01*
X161985000Y-69233740D01*
X161927932Y-68946842D01*
X161815990Y-68676589D01*
X161653475Y-68433368D01*
X161446632Y-68226525D01*
X161272240Y-68110000D01*
X161446632Y-67993475D01*
X161653475Y-67786632D01*
X161815990Y-67543411D01*
X161927932Y-67273158D01*
X161985000Y-66986260D01*
X161985000Y-66693740D01*
X161927932Y-66406842D01*
X161815990Y-66136589D01*
X161653475Y-65893368D01*
X161446632Y-65686525D01*
X161272240Y-65570000D01*
X161446632Y-65453475D01*
X161653475Y-65246632D01*
X161815990Y-65003411D01*
X161927932Y-64733158D01*
X161985000Y-64446260D01*
X161985000Y-64153740D01*
X161927932Y-63866842D01*
X161815990Y-63596589D01*
X161653475Y-63353368D01*
X161446632Y-63146525D01*
X161203411Y-62984010D01*
X160933158Y-62872068D01*
X160646260Y-62815000D01*
X160353740Y-62815000D01*
X160066842Y-62872068D01*
X159796589Y-62984010D01*
X159553368Y-63146525D01*
X159346525Y-63353368D01*
X159184010Y-63596589D01*
X159072068Y-63866842D01*
X159015000Y-64153740D01*
X159015000Y-64446260D01*
X159072068Y-64733158D01*
X159184010Y-65003411D01*
X159346525Y-65246632D01*
X159553368Y-65453475D01*
X159727760Y-65570000D01*
X159553368Y-65686525D01*
X159346525Y-65893368D01*
X159184010Y-66136589D01*
X159072068Y-66406842D01*
X159015000Y-66693740D01*
X159015000Y-66799328D01*
X158990256Y-66782795D01*
X158801898Y-66704774D01*
X158601939Y-66665000D01*
X158398061Y-66665000D01*
X158198102Y-66704774D01*
X158009744Y-66782795D01*
X157840226Y-66896063D01*
X157696063Y-67040226D01*
X157582795Y-67209744D01*
X157504774Y-67398102D01*
X157465000Y-67598061D01*
X157013104Y-67598061D01*
X156990256Y-67582795D01*
X156801898Y-67504774D01*
X156601939Y-67465000D01*
X156398061Y-67465000D01*
X156198102Y-67504774D01*
X156009744Y-67582795D01*
X155840226Y-67696063D01*
X155696063Y-67840226D01*
X155582795Y-68009744D01*
X155504774Y-68198102D01*
X155465000Y-68398061D01*
X151724499Y-68398061D01*
X151667205Y-68259744D01*
X151553937Y-68090226D01*
X151409774Y-67946063D01*
X151240256Y-67832795D01*
X151051898Y-67754774D01*
X150851939Y-67715000D01*
X150648061Y-67715000D01*
X150448102Y-67754774D01*
X150259744Y-67832795D01*
X150090226Y-67946063D01*
X149946063Y-68090226D01*
X149832795Y-68259744D01*
X149754774Y-68448102D01*
X149715000Y-68648061D01*
X111915831Y-68648061D01*
X113426822Y-66881452D01*
X115152970Y-65080421D01*
X146231984Y-65080421D01*
X146270500Y-65310646D01*
X146353192Y-65528934D01*
X146387522Y-65593159D01*
X146440398Y-65603133D01*
X146369866Y-65708692D01*
X146280539Y-65924348D01*
X146235000Y-66153288D01*
X146235000Y-66386712D01*
X146280539Y-66615652D01*
X146369866Y-66831308D01*
X146499550Y-67025394D01*
X146664606Y-67190450D01*
X146858692Y-67320134D01*
X147074348Y-67409461D01*
X147303288Y-67455000D01*
X147536712Y-67455000D01*
X147765652Y-67409461D01*
X147981308Y-67320134D01*
X148055000Y-67270895D01*
X148128692Y-67320134D01*
X148344348Y-67409461D01*
X148573288Y-67455000D01*
X148806712Y-67455000D01*
X149035652Y-67409461D01*
X149251308Y-67320134D01*
X149325000Y-67270895D01*
X149398692Y-67320134D01*
X149614348Y-67409461D01*
X149843288Y-67455000D01*
X150076712Y-67455000D01*
X150305652Y-67409461D01*
X150521308Y-67320134D01*
X150595000Y-67270895D01*
X150668692Y-67320134D01*
X150884348Y-67409461D01*
X151113288Y-67455000D01*
X151346712Y-67455000D01*
X151575652Y-67409461D01*
X151791308Y-67320134D01*
X151865000Y-67270895D01*
X151938692Y-67320134D01*
X152154348Y-67409461D01*
X152383288Y-67455000D01*
X152616712Y-67455000D01*
X152845652Y-67409461D01*
X153061308Y-67320134D01*
X153255394Y-67190450D01*
X153420450Y-67025394D01*
X153550134Y-66831308D01*
X153639461Y-66615652D01*
X153685000Y-66386712D01*
X153685000Y-66153288D01*
X153639461Y-65924348D01*
X153550134Y-65708692D01*
X153500895Y-65635000D01*
X153550134Y-65561308D01*
X153639461Y-65345652D01*
X153685000Y-65116712D01*
X153685000Y-64883288D01*
X153639461Y-64654348D01*
X153550134Y-64438692D01*
X153420450Y-64244606D01*
X153255394Y-64079550D01*
X153061308Y-63949866D01*
X152845652Y-63860539D01*
X152616712Y-63815000D01*
X152383288Y-63815000D01*
X152154348Y-63860539D01*
X151938692Y-63949866D01*
X151833133Y-64020398D01*
X151823159Y-63967522D01*
X151610335Y-63871641D01*
X151382895Y-63819122D01*
X151149579Y-63811984D01*
X150919354Y-63850500D01*
X150701066Y-63933192D01*
X150636841Y-63967522D01*
X150595918Y-64184474D01*
X150595000Y-64185392D01*
X150594082Y-64184474D01*
X150553159Y-63967522D01*
X150340335Y-63871641D01*
X150112895Y-63819122D01*
X149879579Y-63811984D01*
X149649354Y-63850500D01*
X149431066Y-63933192D01*
X149366841Y-63967522D01*
X149356867Y-64020398D01*
X149251308Y-63949866D01*
X149035652Y-63860539D01*
X148806712Y-63815000D01*
X148573288Y-63815000D01*
X148344348Y-63860539D01*
X148128692Y-63949866D01*
X148023133Y-64020398D01*
X148013159Y-63967522D01*
X147800335Y-63871641D01*
X147572895Y-63819122D01*
X147339579Y-63811984D01*
X147109354Y-63850500D01*
X146891066Y-63933192D01*
X146826841Y-63967522D01*
X146785626Y-64186021D01*
X147420000Y-64820395D01*
X147434143Y-64806253D01*
X147506025Y-64878135D01*
X147505000Y-64883288D01*
X147505000Y-65085000D01*
X147303288Y-65085000D01*
X147298135Y-65086025D01*
X147226253Y-65014143D01*
X147240395Y-65000000D01*
X146606021Y-64365626D01*
X146387522Y-64406841D01*
X146291641Y-64619665D01*
X146239122Y-64847105D01*
X146231984Y-65080421D01*
X115152970Y-65080421D01*
X115359083Y-64865367D01*
X117402309Y-62961828D01*
X119549956Y-61176935D01*
X121795143Y-59516403D01*
X124130679Y-57985552D01*
X126549082Y-56589287D01*
X129042605Y-55332079D01*
X131603261Y-54217955D01*
X134222848Y-53250486D01*
X136892974Y-52432769D01*
X139605085Y-51767425D01*
X142350494Y-51256583D01*
X145120407Y-50901882D01*
X147905951Y-50704457D01*
X150698203Y-50664940D01*
X153488218Y-50783459D01*
G37*
X153488218Y-50783459D02*
X156267059Y-51059633D01*
X159025825Y-51492577D01*
X161755679Y-52080906D01*
X164447876Y-52822733D01*
X167093791Y-53715684D01*
X169684950Y-54756897D01*
X172213053Y-55943038D01*
X174670000Y-57270307D01*
X177047922Y-58734451D01*
X179339201Y-60330782D01*
X181536498Y-62054185D01*
X183632774Y-63899139D01*
X185621314Y-65859736D01*
X187495748Y-67929695D01*
X189250072Y-70102384D01*
X190878666Y-72370844D01*
X192376314Y-74727809D01*
X193738217Y-77165728D01*
X194960014Y-79676792D01*
X196037790Y-82252958D01*
X196968093Y-84885973D01*
X197747944Y-87567402D01*
X198374843Y-90288657D01*
X198846783Y-93041021D01*
X199162252Y-95815676D01*
X199320240Y-98603734D01*
X199320240Y-101396266D01*
X199162252Y-104184324D01*
X198846783Y-106958979D01*
X198374843Y-109711343D01*
X197747944Y-112432598D01*
X196968093Y-115114027D01*
X196037790Y-117747042D01*
X194960014Y-120323208D01*
X193738217Y-122834272D01*
X192376314Y-125272191D01*
X190878666Y-127629156D01*
X189250072Y-129897616D01*
X187495748Y-132070305D01*
X185621314Y-134140264D01*
X183632774Y-136100861D01*
X181536498Y-137945815D01*
X179339201Y-139669218D01*
X177047922Y-141265549D01*
X174670000Y-142729693D01*
X172213053Y-144056962D01*
X169684950Y-145243103D01*
X167093791Y-146284316D01*
X164447876Y-147177267D01*
X161755679Y-147919094D01*
X159025825Y-148507423D01*
X156267059Y-148940367D01*
X153488218Y-149216541D01*
X150698203Y-149335060D01*
X147905951Y-149295543D01*
X145120407Y-149098118D01*
X142350494Y-148743417D01*
X139605085Y-148232575D01*
X136892974Y-147567231D01*
X134222848Y-146749514D01*
X131603261Y-145782045D01*
X129042605Y-144667921D01*
X126549082Y-143410713D01*
X124130679Y-142014448D01*
X121795143Y-140483597D01*
X119549956Y-138823065D01*
X117402309Y-137038172D01*
X117251917Y-136898061D01*
X138865000Y-136898061D01*
X138865000Y-137101939D01*
X138904774Y-137301898D01*
X138982795Y-137490256D01*
X138989306Y-137500000D01*
X138982795Y-137509744D01*
X138904774Y-137698102D01*
X138865000Y-137898061D01*
X138865000Y-138101939D01*
X138904774Y-138301898D01*
X138982795Y-138490256D01*
X138989306Y-138500000D01*
X138982795Y-138509744D01*
X138904774Y-138698102D01*
X138865000Y-138898061D01*
X138865000Y-139101939D01*
X138904774Y-139301898D01*
X138982795Y-139490256D01*
X139096063Y-139659774D01*
X139240226Y-139803937D01*
X139409744Y-139917205D01*
X139598102Y-139995226D01*
X139798061Y-140035000D01*
X140001939Y-140035000D01*
X140201898Y-139995226D01*
X140390256Y-139917205D01*
X140559774Y-139803937D01*
X140703937Y-139659774D01*
X140817205Y-139490256D01*
X140895226Y-139301898D01*
X140935000Y-139101939D01*
X140935000Y-138898061D01*
X140895226Y-138698102D01*
X140817205Y-138509744D01*
X140810694Y-138500000D01*
X140817205Y-138490256D01*
X140895226Y-138301898D01*
X140935000Y-138101939D01*
X140935000Y-137898061D01*
X140895226Y-137698102D01*
X140817205Y-137509744D01*
X140810694Y-137500000D01*
X140817205Y-137490256D01*
X140895226Y-137301898D01*
X140935000Y-137101939D01*
X140935000Y-136898061D01*
X140895226Y-136698102D01*
X140817205Y-136509744D01*
X140703937Y-136340226D01*
X140559774Y-136196063D01*
X140390256Y-136082795D01*
X140201898Y-136004774D01*
X140001939Y-135965000D01*
X139798061Y-135965000D01*
X139598102Y-136004774D01*
X139409744Y-136082795D01*
X139240226Y-136196063D01*
X139096063Y-136340226D01*
X138982795Y-136509744D01*
X138904774Y-136698102D01*
X138865000Y-136898061D01*
X117251917Y-136898061D01*
X116180616Y-135900000D01*
X145261928Y-135900000D01*
X145261928Y-138900000D01*
X145274188Y-139024482D01*
X145310498Y-139144180D01*
X145369463Y-139254494D01*
X145448815Y-139351185D01*
X145545506Y-139430537D01*
X145655820Y-139489502D01*
X145775518Y-139525812D01*
X145900000Y-139538072D01*
X148900000Y-139538072D01*
X149024482Y-139525812D01*
X149144180Y-139489502D01*
X149254494Y-139430537D01*
X149351185Y-139351185D01*
X149430537Y-139254494D01*
X149489502Y-139144180D01*
X149525812Y-139024482D01*
X149538072Y-138900000D01*
X149538072Y-138891653D01*
X151167952Y-138891653D01*
X151323962Y-139207214D01*
X151698745Y-139398020D01*
X152103551Y-139512044D01*
X152522824Y-139544902D01*
X152940451Y-139495334D01*
X153340383Y-139365243D01*
X153636038Y-139207214D01*
X153792048Y-138891653D01*
X152480000Y-137579605D01*
X151167952Y-138891653D01*
X149538072Y-138891653D01*
X149538072Y-137442824D01*
X150335098Y-137442824D01*
X150384666Y-137860451D01*
X150514757Y-138260383D01*
X150672786Y-138556038D01*
X150988347Y-138712048D01*
X152300395Y-137400000D01*
X152659605Y-137400000D01*
X153971653Y-138712048D01*
X154287214Y-138556038D01*
X154478020Y-138181255D01*
X154592044Y-137776449D01*
X154624902Y-137357176D01*
X154575334Y-136939549D01*
X154445243Y-136539617D01*
X154287214Y-136243962D01*
X153971653Y-136087952D01*
X152659605Y-137400000D01*
X152300395Y-137400000D01*
X150988347Y-136087952D01*
X150672786Y-136243962D01*
X150481980Y-136618745D01*
X150367956Y-137023551D01*
X150335098Y-137442824D01*
X149538072Y-137442824D01*
X149538072Y-135908347D01*
X151167952Y-135908347D01*
X152480000Y-137220395D01*
X153792048Y-135908347D01*
X153636038Y-135592786D01*
X153261255Y-135401980D01*
X152856449Y-135287956D01*
X152437176Y-135255098D01*
X152019549Y-135304666D01*
X151619617Y-135434757D01*
X151323962Y-135592786D01*
X151167952Y-135908347D01*
X149538072Y-135908347D01*
X149538072Y-135900000D01*
X149525812Y-135775518D01*
X149489502Y-135655820D01*
X149430537Y-135545506D01*
X149351185Y-135448815D01*
X149254494Y-135369463D01*
X149144180Y-135310498D01*
X149024482Y-135274188D01*
X148900000Y-135261928D01*
X145900000Y-135261928D01*
X145775518Y-135274188D01*
X145655820Y-135310498D01*
X145545506Y-135369463D01*
X145448815Y-135448815D01*
X145369463Y-135545506D01*
X145310498Y-135655820D01*
X145274188Y-135775518D01*
X145261928Y-135900000D01*
X116180616Y-135900000D01*
X115359083Y-135134633D01*
X113426822Y-133118548D01*
X111611716Y-130996375D01*
X110263862Y-129226890D01*
X147268524Y-129226890D01*
X147313175Y-129374099D01*
X147438359Y-129636920D01*
X147612412Y-129870269D01*
X147828645Y-130065178D01*
X148078748Y-130214157D01*
X148353109Y-130311481D01*
X148583000Y-130190814D01*
X148583000Y-128997000D01*
X148837000Y-128997000D01*
X148837000Y-130190814D01*
X149066891Y-130311481D01*
X149341252Y-130214157D01*
X149591355Y-130065178D01*
X149807588Y-129870269D01*
X149980000Y-129639120D01*
X150152412Y-129870269D01*
X150368645Y-130065178D01*
X150618748Y-130214157D01*
X150893109Y-130311481D01*
X151123000Y-130190814D01*
X151123000Y-128997000D01*
X151377000Y-128997000D01*
X151377000Y-130190814D01*
X151606891Y-130311481D01*
X151881252Y-130214157D01*
X152131355Y-130065178D01*
X152347588Y-129870269D01*
X152521641Y-129636920D01*
X152646825Y-129374099D01*
X152691476Y-129226890D01*
X152570155Y-128997000D01*
X151377000Y-128997000D01*
X151123000Y-128997000D01*
X148837000Y-128997000D01*
X148583000Y-128997000D01*
X147389845Y-128997000D01*
X147268524Y-129226890D01*
X110263862Y-129226890D01*
X109919579Y-128774910D01*
X108355832Y-126461271D01*
X107170934Y-124474438D01*
X122466263Y-124474438D01*
X122466263Y-125023036D01*
X122573289Y-125561091D01*
X122783228Y-126067929D01*
X123088013Y-126524071D01*
X123475929Y-126911987D01*
X123932071Y-127216772D01*
X124438909Y-127426711D01*
X124976964Y-127533737D01*
X125525562Y-127533737D01*
X126063617Y-127426711D01*
X126570455Y-127216772D01*
X127026597Y-126911987D01*
X127251694Y-126686890D01*
X147268524Y-126686890D01*
X147313175Y-126834099D01*
X147438359Y-127096920D01*
X147612412Y-127330269D01*
X147828645Y-127525178D01*
X147954255Y-127600000D01*
X147828645Y-127674822D01*
X147612412Y-127869731D01*
X147438359Y-128103080D01*
X147313175Y-128365901D01*
X147268524Y-128513110D01*
X147389845Y-128743000D01*
X148583000Y-128743000D01*
X148583000Y-126457000D01*
X148837000Y-126457000D01*
X148837000Y-128743000D01*
X151123000Y-128743000D01*
X151123000Y-126457000D01*
X151377000Y-126457000D01*
X151377000Y-128743000D01*
X152570155Y-128743000D01*
X152691476Y-128513110D01*
X152646825Y-128365901D01*
X152521641Y-128103080D01*
X152347588Y-127869731D01*
X152263534Y-127793966D01*
X152344180Y-127769502D01*
X152454494Y-127710537D01*
X152551185Y-127631185D01*
X152630537Y-127534494D01*
X152689502Y-127424180D01*
X152725812Y-127304482D01*
X152738072Y-127180000D01*
X152735000Y-126615750D01*
X152576250Y-126457000D01*
X151377000Y-126457000D01*
X151123000Y-126457000D01*
X148837000Y-126457000D01*
X148583000Y-126457000D01*
X147389845Y-126457000D01*
X147268524Y-126686890D01*
X127251694Y-126686890D01*
X127414513Y-126524071D01*
X127719298Y-126067929D01*
X127758573Y-125973110D01*
X147268524Y-125973110D01*
X147389845Y-126203000D01*
X148583000Y-126203000D01*
X148583000Y-125009186D01*
X148837000Y-125009186D01*
X148837000Y-126203000D01*
X151123000Y-126203000D01*
X151123000Y-125003750D01*
X151377000Y-125003750D01*
X151377000Y-126203000D01*
X152576250Y-126203000D01*
X152735000Y-126044250D01*
X152738072Y-125480000D01*
X152725812Y-125355518D01*
X152689502Y-125235820D01*
X152630537Y-125125506D01*
X152551185Y-125028815D01*
X152454494Y-124949463D01*
X152344180Y-124890498D01*
X152224482Y-124854188D01*
X152100000Y-124841928D01*
X151535750Y-124845000D01*
X151377000Y-125003750D01*
X151123000Y-125003750D01*
X150964250Y-124845000D01*
X150400000Y-124841928D01*
X150275518Y-124854188D01*
X150155820Y-124890498D01*
X150045506Y-124949463D01*
X149948815Y-125028815D01*
X149869463Y-125125506D01*
X149810498Y-125235820D01*
X149787502Y-125311626D01*
X149591355Y-125134822D01*
X149341252Y-124985843D01*
X149066891Y-124888519D01*
X148837000Y-125009186D01*
X148583000Y-125009186D01*
X148353109Y-124888519D01*
X148078748Y-124985843D01*
X147828645Y-125134822D01*
X147612412Y-125329731D01*
X147438359Y-125563080D01*
X147313175Y-125825901D01*
X147268524Y-125973110D01*
X127758573Y-125973110D01*
X127929237Y-125561091D01*
X128036263Y-125023036D01*
X128036263Y-124474438D01*
X127929237Y-123936383D01*
X127719298Y-123429545D01*
X127414513Y-122973403D01*
X127026597Y-122585487D01*
X126570455Y-122280702D01*
X126263942Y-122153740D01*
X134475000Y-122153740D01*
X134475000Y-122446260D01*
X134532068Y-122733158D01*
X134644010Y-123003411D01*
X134806525Y-123246632D01*
X135013368Y-123453475D01*
X135256589Y-123615990D01*
X135526842Y-123727932D01*
X135813740Y-123785000D01*
X136106260Y-123785000D01*
X136393158Y-123727932D01*
X136663411Y-123615990D01*
X136906632Y-123453475D01*
X137038487Y-123321620D01*
X137060498Y-123394180D01*
X137119463Y-123504494D01*
X137198815Y-123601185D01*
X137295506Y-123680537D01*
X137405820Y-123739502D01*
X137525518Y-123775812D01*
X137650000Y-123788072D01*
X139350000Y-123788072D01*
X139474482Y-123775812D01*
X139594180Y-123739502D01*
X139704494Y-123680537D01*
X139801185Y-123601185D01*
X139880537Y-123504494D01*
X139939502Y-123394180D01*
X139975812Y-123274482D01*
X139988072Y-123150000D01*
X139988072Y-121450000D01*
X139975812Y-121325518D01*
X139939502Y-121205820D01*
X139880537Y-121095506D01*
X139801185Y-120998815D01*
X139704494Y-120919463D01*
X139594180Y-120860498D01*
X139474482Y-120824188D01*
X139350000Y-120811928D01*
X137650000Y-120811928D01*
X137525518Y-120824188D01*
X137405820Y-120860498D01*
X137295506Y-120919463D01*
X137198815Y-120998815D01*
X137119463Y-121095506D01*
X137060498Y-121205820D01*
X137038487Y-121278380D01*
X136906632Y-121146525D01*
X136663411Y-120984010D01*
X136393158Y-120872068D01*
X136106260Y-120815000D01*
X135813740Y-120815000D01*
X135526842Y-120872068D01*
X135256589Y-120984010D01*
X135013368Y-121146525D01*
X134806525Y-121353368D01*
X134644010Y-121596589D01*
X134532068Y-121866842D01*
X134475000Y-122153740D01*
X126263942Y-122153740D01*
X126063617Y-122070763D01*
X125525562Y-121963737D01*
X124976964Y-121963737D01*
X124438909Y-122070763D01*
X123932071Y-122280702D01*
X123475929Y-122585487D01*
X123088013Y-122973403D01*
X122783228Y-123429545D01*
X122573289Y-123936383D01*
X122466263Y-124474438D01*
X107170934Y-124474438D01*
X106925484Y-124062869D01*
X105633116Y-121587385D01*
X104482869Y-119042751D01*
X103964507Y-117698061D01*
X130165000Y-117698061D01*
X130165000Y-117901939D01*
X130204774Y-118101898D01*
X130282795Y-118290256D01*
X130396063Y-118459774D01*
X130540226Y-118603937D01*
X130709744Y-118717205D01*
X130898102Y-118795226D01*
X131098061Y-118835000D01*
X131301939Y-118835000D01*
X131501898Y-118795226D01*
X131690256Y-118717205D01*
X131859774Y-118603937D01*
X131899971Y-118563740D01*
X144695000Y-118563740D01*
X144695000Y-118856260D01*
X144752068Y-119143158D01*
X144864010Y-119413411D01*
X145026525Y-119656632D01*
X145233368Y-119863475D01*
X145407760Y-119980000D01*
X145233368Y-120096525D01*
X145026525Y-120303368D01*
X144864010Y-120546589D01*
X144752068Y-120816842D01*
X144695000Y-121103740D01*
X144695000Y-121396260D01*
X144752068Y-121683158D01*
X144864010Y-121953411D01*
X145026525Y-122196632D01*
X145233368Y-122403475D01*
X145476589Y-122565990D01*
X145746842Y-122677932D01*
X146033740Y-122735000D01*
X146326260Y-122735000D01*
X146613158Y-122677932D01*
X146883411Y-122565990D01*
X147126632Y-122403475D01*
X147333475Y-122196632D01*
X147450000Y-122022240D01*
X147566525Y-122196632D01*
X147773368Y-122403475D01*
X148016589Y-122565990D01*
X148286842Y-122677932D01*
X148573740Y-122735000D01*
X148866260Y-122735000D01*
X149153158Y-122677932D01*
X149423411Y-122565990D01*
X149666632Y-122403475D01*
X149873475Y-122196632D01*
X149990000Y-122022240D01*
X150106525Y-122196632D01*
X150313368Y-122403475D01*
X150556589Y-122565990D01*
X150826842Y-122677932D01*
X151113740Y-122735000D01*
X151406260Y-122735000D01*
X151693158Y-122677932D01*
X151963411Y-122565990D01*
X152206632Y-122403475D01*
X152338487Y-122271620D01*
X152360498Y-122344180D01*
X152419463Y-122454494D01*
X152498815Y-122551185D01*
X152595506Y-122630537D01*
X152705820Y-122689502D01*
X152825518Y-122725812D01*
X152950000Y-122738072D01*
X154650000Y-122738072D01*
X154774482Y-122725812D01*
X154894180Y-122689502D01*
X155004494Y-122630537D01*
X155101185Y-122551185D01*
X155180537Y-122454494D01*
X155239502Y-122344180D01*
X155275812Y-122224482D01*
X155288072Y-122100000D01*
X155288072Y-120400000D01*
X155275812Y-120275518D01*
X155239502Y-120155820D01*
X155180537Y-120045506D01*
X155101185Y-119948815D01*
X155004494Y-119869463D01*
X154894180Y-119810498D01*
X154821620Y-119788487D01*
X154953475Y-119656632D01*
X155115990Y-119413411D01*
X155227932Y-119143158D01*
X155285000Y-118856260D01*
X155285000Y-118563740D01*
X155227932Y-118276842D01*
X155115990Y-118006589D01*
X154953475Y-117763368D01*
X154746632Y-117556525D01*
X154503411Y-117394010D01*
X154233158Y-117282068D01*
X153946260Y-117225000D01*
X153653740Y-117225000D01*
X153366842Y-117282068D01*
X153096589Y-117394010D01*
X152853368Y-117556525D01*
X152646525Y-117763368D01*
X152530000Y-117937760D01*
X152413475Y-117763368D01*
X152206632Y-117556525D01*
X151963411Y-117394010D01*
X151693158Y-117282068D01*
X151406260Y-117225000D01*
X151113740Y-117225000D01*
X150826842Y-117282068D01*
X150556589Y-117394010D01*
X150313368Y-117556525D01*
X150106525Y-117763368D01*
X149990000Y-117937760D01*
X149873475Y-117763368D01*
X149666632Y-117556525D01*
X149423411Y-117394010D01*
X149153158Y-117282068D01*
X148866260Y-117225000D01*
X148573740Y-117225000D01*
X148286842Y-117282068D01*
X148016589Y-117394010D01*
X147773368Y-117556525D01*
X147566525Y-117763368D01*
X147450000Y-117937760D01*
X147333475Y-117763368D01*
X147126632Y-117556525D01*
X146883411Y-117394010D01*
X146613158Y-117282068D01*
X146326260Y-117225000D01*
X146033740Y-117225000D01*
X145746842Y-117282068D01*
X145476589Y-117394010D01*
X145233368Y-117556525D01*
X145026525Y-117763368D01*
X144864010Y-118006589D01*
X144752068Y-118276842D01*
X144695000Y-118563740D01*
X131899971Y-118563740D01*
X132003937Y-118459774D01*
X132117205Y-118290256D01*
X132195226Y-118101898D01*
X132235000Y-117901939D01*
X132235000Y-117698061D01*
X132195226Y-117498102D01*
X132117205Y-117309744D01*
X132003937Y-117140226D01*
X131859774Y-116996063D01*
X131690256Y-116882795D01*
X131501898Y-116804774D01*
X131301939Y-116765000D01*
X131098061Y-116765000D01*
X130898102Y-116804774D01*
X130709744Y-116882795D01*
X130540226Y-116996063D01*
X130396063Y-117140226D01*
X130282795Y-117309744D01*
X130204774Y-117498102D01*
X130165000Y-117698061D01*
X103964507Y-117698061D01*
X103478427Y-116437117D01*
X103079707Y-115198061D01*
X130165000Y-115198061D01*
X130165000Y-115401939D01*
X130204774Y-115601898D01*
X130282795Y-115790256D01*
X130396063Y-115959774D01*
X130540226Y-116103937D01*
X130709744Y-116217205D01*
X130898102Y-116295226D01*
X131098061Y-116335000D01*
X131301939Y-116335000D01*
X131501898Y-116295226D01*
X131690256Y-116217205D01*
X131859774Y-116103937D01*
X132003937Y-115959774D01*
X132117205Y-115790256D01*
X132195226Y-115601898D01*
X132235000Y-115401939D01*
X132235000Y-115198061D01*
X132215110Y-115098063D01*
X156139990Y-115098063D01*
X156139990Y-115301941D01*
X156179764Y-115501900D01*
X156257785Y-115690258D01*
X156371053Y-115859776D01*
X156515216Y-116003939D01*
X156684734Y-116117207D01*
X156873092Y-116195228D01*
X157073051Y-116235002D01*
X157276929Y-116235002D01*
X157476888Y-116195228D01*
X157665246Y-116117207D01*
X157834764Y-116003939D01*
X157978927Y-115859776D01*
X158092195Y-115690258D01*
X158170216Y-115501900D01*
X158209990Y-115301941D01*
X158209990Y-115098063D01*
X158170216Y-114898104D01*
X158092195Y-114709746D01*
X157978927Y-114540228D01*
X157834764Y-114396065D01*
X157665246Y-114282797D01*
X157476888Y-114204776D01*
X157276929Y-114165002D01*
X157073051Y-114165002D01*
X156873092Y-114204776D01*
X156684734Y-114282797D01*
X156515216Y-114396065D01*
X156371053Y-114540228D01*
X156257785Y-114709746D01*
X156179764Y-114898104D01*
X156139990Y-115098063D01*
X132215110Y-115098063D01*
X132195226Y-114998102D01*
X132117205Y-114809744D01*
X132003937Y-114640226D01*
X131859774Y-114496063D01*
X131690256Y-114382795D01*
X131501898Y-114304774D01*
X131301939Y-114265000D01*
X131098061Y-114265000D01*
X130898102Y-114304774D01*
X130709744Y-114382795D01*
X130540226Y-114496063D01*
X130396063Y-114640226D01*
X130282795Y-114809744D01*
X130204774Y-114998102D01*
X130165000Y-115198061D01*
X103079707Y-115198061D01*
X102623007Y-113778831D01*
X101919351Y-111076406D01*
X101602496Y-109498061D01*
X138865000Y-109498061D01*
X138865000Y-109701939D01*
X138904774Y-109901898D01*
X138982795Y-110090256D01*
X139096063Y-110259774D01*
X139240226Y-110403937D01*
X139409744Y-110517205D01*
X139598102Y-110595226D01*
X139798061Y-110635000D01*
X140001939Y-110635000D01*
X140201898Y-110595226D01*
X140390256Y-110517205D01*
X140559774Y-110403937D01*
X140703937Y-110259774D01*
X140817205Y-110090256D01*
X140895226Y-109901898D01*
X140935000Y-109701939D01*
X140935000Y-109498061D01*
X140895226Y-109298102D01*
X140817205Y-109109744D01*
X140703937Y-108940226D01*
X140559774Y-108796063D01*
X140390256Y-108682795D01*
X140201898Y-108604774D01*
X140001939Y-108565000D01*
X139798061Y-108565000D01*
X139598102Y-108604774D01*
X139409744Y-108682795D01*
X139240226Y-108796063D01*
X139096063Y-108940226D01*
X138982795Y-109109744D01*
X138904774Y-109298102D01*
X138865000Y-109498061D01*
X101602496Y-109498061D01*
X101369711Y-108338500D01*
X101192992Y-107098061D01*
X129765000Y-107098061D01*
X129765000Y-107301939D01*
X129804774Y-107501898D01*
X129882795Y-107690256D01*
X129996063Y-107859774D01*
X130140226Y-108003937D01*
X130309744Y-108117205D01*
X130498102Y-108195226D01*
X130698061Y-108235000D01*
X130901939Y-108235000D01*
X131087645Y-108198061D01*
X141165000Y-108198061D01*
X141165000Y-108401939D01*
X141204774Y-108601898D01*
X141282795Y-108790256D01*
X141396063Y-108959774D01*
X141540226Y-109103937D01*
X141709744Y-109217205D01*
X141898102Y-109295226D01*
X142098061Y-109335000D01*
X142301939Y-109335000D01*
X142487645Y-109298061D01*
X147165000Y-109298061D01*
X147165000Y-109501939D01*
X147204774Y-109701898D01*
X147282795Y-109890256D01*
X147396063Y-110059774D01*
X147540226Y-110203937D01*
X147709744Y-110317205D01*
X147898102Y-110395226D01*
X147952128Y-110405972D01*
X147882795Y-110509736D01*
X147804774Y-110698094D01*
X147765000Y-110898053D01*
X147765000Y-111101931D01*
X147804774Y-111301890D01*
X147882795Y-111490248D01*
X147996063Y-111659766D01*
X148140226Y-111803929D01*
X148309744Y-111917197D01*
X148498102Y-111995218D01*
X148698061Y-112034992D01*
X148901939Y-112034992D01*
X149101898Y-111995218D01*
X149290256Y-111917197D01*
X149459774Y-111803929D01*
X149603937Y-111659766D01*
X149717205Y-111490248D01*
X149795226Y-111301890D01*
X149795987Y-111298061D01*
X154165000Y-111298061D01*
X154165000Y-111501939D01*
X154204774Y-111701898D01*
X154282795Y-111890256D01*
X154396063Y-112059774D01*
X154540226Y-112203937D01*
X154709744Y-112317205D01*
X154898102Y-112395226D01*
X155098061Y-112435000D01*
X155301939Y-112435000D01*
X155501898Y-112395226D01*
X155690256Y-112317205D01*
X155859774Y-112203937D01*
X156003937Y-112059774D01*
X156117205Y-111890256D01*
X156195226Y-111701898D01*
X156235000Y-111501939D01*
X156235000Y-111298061D01*
X156195226Y-111098102D01*
X156117205Y-110909744D01*
X156003937Y-110740226D01*
X155859774Y-110596063D01*
X155690256Y-110482795D01*
X155501898Y-110404774D01*
X155301939Y-110365000D01*
X155098061Y-110365000D01*
X154898102Y-110404774D01*
X154709744Y-110482795D01*
X154540226Y-110596063D01*
X154396063Y-110740226D01*
X154282795Y-110909744D01*
X154204774Y-111098102D01*
X154165000Y-111298061D01*
X149795987Y-111298061D01*
X149835000Y-111101931D01*
X149835000Y-110898053D01*
X149795226Y-110698094D01*
X149717205Y-110509736D01*
X149603937Y-110340218D01*
X149459774Y-110196055D01*
X149290256Y-110082787D01*
X149101898Y-110004766D01*
X149047872Y-109994020D01*
X149117205Y-109890256D01*
X149195226Y-109701898D01*
X149235000Y-109501939D01*
X149235000Y-109298061D01*
X149195226Y-109098102D01*
X149117205Y-108909744D01*
X149003937Y-108740226D01*
X148859774Y-108596063D01*
X148690256Y-108482795D01*
X148501898Y-108404774D01*
X148301939Y-108365000D01*
X148098061Y-108365000D01*
X147898102Y-108404774D01*
X147709744Y-108482795D01*
X147540226Y-108596063D01*
X147396063Y-108740226D01*
X147282795Y-108909744D01*
X147204774Y-109098102D01*
X147165000Y-109298061D01*
X142487645Y-109298061D01*
X142501898Y-109295226D01*
X142690256Y-109217205D01*
X142859774Y-109103937D01*
X143003937Y-108959774D01*
X143117205Y-108790256D01*
X143195226Y-108601898D01*
X143235000Y-108401939D01*
X143235000Y-108198061D01*
X143195226Y-107998102D01*
X143117205Y-107809744D01*
X143003937Y-107640226D01*
X142859774Y-107496063D01*
X142690256Y-107382795D01*
X142501898Y-107304774D01*
X142301939Y-107265000D01*
X142098061Y-107265000D01*
X141898102Y-107304774D01*
X141709744Y-107382795D01*
X141540226Y-107496063D01*
X141396063Y-107640226D01*
X141282795Y-107809744D01*
X141204774Y-107998102D01*
X141165000Y-108198061D01*
X131087645Y-108198061D01*
X131101898Y-108195226D01*
X131290256Y-108117205D01*
X131459774Y-108003937D01*
X131603937Y-107859774D01*
X131717205Y-107690256D01*
X131795226Y-107501898D01*
X131835000Y-107301939D01*
X131835000Y-107098061D01*
X131795226Y-106898102D01*
X131795210Y-106898061D01*
X143239990Y-106898061D01*
X143239990Y-107101939D01*
X143279764Y-107301898D01*
X143357785Y-107490256D01*
X143471053Y-107659774D01*
X143615216Y-107803937D01*
X143784734Y-107917205D01*
X143973092Y-107995226D01*
X144173051Y-108035000D01*
X144376929Y-108035000D01*
X144576888Y-107995226D01*
X144765246Y-107917205D01*
X144793897Y-107898061D01*
X154065000Y-107898061D01*
X154065000Y-108101939D01*
X154104774Y-108301898D01*
X154182795Y-108490256D01*
X154296063Y-108659774D01*
X154440226Y-108803937D01*
X154609744Y-108917205D01*
X154798102Y-108995226D01*
X154998061Y-109035000D01*
X155201939Y-109035000D01*
X155401898Y-108995226D01*
X155590256Y-108917205D01*
X155759774Y-108803937D01*
X155903937Y-108659774D01*
X156017205Y-108490256D01*
X156095226Y-108301898D01*
X156135000Y-108101939D01*
X156135000Y-107898061D01*
X156095226Y-107698102D01*
X156075302Y-107650000D01*
X159511928Y-107650000D01*
X159511928Y-109350000D01*
X159524188Y-109474482D01*
X159560498Y-109594180D01*
X159619463Y-109704494D01*
X159698815Y-109801185D01*
X159795506Y-109880537D01*
X159905820Y-109939502D01*
X159978380Y-109961513D01*
X159846525Y-110093368D01*
X159684010Y-110336589D01*
X159572068Y-110606842D01*
X159515000Y-110893740D01*
X159515000Y-111186260D01*
X159572068Y-111473158D01*
X159684010Y-111743411D01*
X159846525Y-111986632D01*
X160053368Y-112193475D01*
X160227760Y-112310000D01*
X160053368Y-112426525D01*
X159846525Y-112633368D01*
X159684010Y-112876589D01*
X159572068Y-113146842D01*
X159515000Y-113433740D01*
X159515000Y-113726260D01*
X159572068Y-114013158D01*
X159684010Y-114283411D01*
X159846525Y-114526632D01*
X160053368Y-114733475D01*
X160227760Y-114850000D01*
X160053368Y-114966525D01*
X159846525Y-115173368D01*
X159684010Y-115416589D01*
X159572068Y-115686842D01*
X159515000Y-115973740D01*
X159515000Y-116266260D01*
X159572068Y-116553158D01*
X159684010Y-116823411D01*
X159846525Y-117066632D01*
X160053368Y-117273475D01*
X160227760Y-117390000D01*
X160053368Y-117506525D01*
X159846525Y-117713368D01*
X159684010Y-117956589D01*
X159572068Y-118226842D01*
X159515000Y-118513740D01*
X159515000Y-118806260D01*
X159572068Y-119093158D01*
X159684010Y-119363411D01*
X159846525Y-119606632D01*
X160053368Y-119813475D01*
X160227760Y-119930000D01*
X160053368Y-120046525D01*
X159846525Y-120253368D01*
X159684010Y-120496589D01*
X159572068Y-120766842D01*
X159515000Y-121053740D01*
X159515000Y-121346260D01*
X159572068Y-121633158D01*
X159684010Y-121903411D01*
X159846525Y-122146632D01*
X160053368Y-122353475D01*
X160227760Y-122470000D01*
X160053368Y-122586525D01*
X159846525Y-122793368D01*
X159684010Y-123036589D01*
X159572068Y-123306842D01*
X159515000Y-123593740D01*
X159515000Y-123886260D01*
X159572068Y-124173158D01*
X159684010Y-124443411D01*
X159846525Y-124686632D01*
X160053368Y-124893475D01*
X160227760Y-125010000D01*
X160053368Y-125126525D01*
X159846525Y-125333368D01*
X159684010Y-125576589D01*
X159572068Y-125846842D01*
X159515000Y-126133740D01*
X159515000Y-126426260D01*
X159572068Y-126713158D01*
X159684010Y-126983411D01*
X159846525Y-127226632D01*
X160053368Y-127433475D01*
X160296589Y-127595990D01*
X160566842Y-127707932D01*
X160853740Y-127765000D01*
X161146260Y-127765000D01*
X161433158Y-127707932D01*
X161703411Y-127595990D01*
X161946632Y-127433475D01*
X162153475Y-127226632D01*
X162315990Y-126983411D01*
X162427932Y-126713158D01*
X162485000Y-126426260D01*
X162485000Y-126133740D01*
X162427932Y-125846842D01*
X162315990Y-125576589D01*
X162153475Y-125333368D01*
X161946632Y-125126525D01*
X161772240Y-125010000D01*
X161946632Y-124893475D01*
X162153475Y-124686632D01*
X162295258Y-124474438D01*
X171963737Y-124474438D01*
X171963737Y-125023036D01*
X172070763Y-125561091D01*
X172280702Y-126067929D01*
X172585487Y-126524071D01*
X172973403Y-126911987D01*
X173429545Y-127216772D01*
X173936383Y-127426711D01*
X174474438Y-127533737D01*
X175023036Y-127533737D01*
X175561091Y-127426711D01*
X176067929Y-127216772D01*
X176524071Y-126911987D01*
X176911987Y-126524071D01*
X177216772Y-126067929D01*
X177426711Y-125561091D01*
X177533737Y-125023036D01*
X177533737Y-124474438D01*
X177426711Y-123936383D01*
X177216772Y-123429545D01*
X176911987Y-122973403D01*
X176524071Y-122585487D01*
X176067929Y-122280702D01*
X175561091Y-122070763D01*
X175023036Y-121963737D01*
X174474438Y-121963737D01*
X173936383Y-122070763D01*
X173429545Y-122280702D01*
X172973403Y-122585487D01*
X172585487Y-122973403D01*
X172280702Y-123429545D01*
X172070763Y-123936383D01*
X171963737Y-124474438D01*
X162295258Y-124474438D01*
X162315990Y-124443411D01*
X162427932Y-124173158D01*
X162485000Y-123886260D01*
X162485000Y-123593740D01*
X162427932Y-123306842D01*
X162315990Y-123036589D01*
X162153475Y-122793368D01*
X161946632Y-122586525D01*
X161772240Y-122470000D01*
X161946632Y-122353475D01*
X162153475Y-122146632D01*
X162315990Y-121903411D01*
X162427932Y-121633158D01*
X162485000Y-121346260D01*
X162485000Y-121053740D01*
X162427932Y-120766842D01*
X162315990Y-120496589D01*
X162153475Y-120253368D01*
X161946632Y-120046525D01*
X161772240Y-119930000D01*
X161946632Y-119813475D01*
X162153475Y-119606632D01*
X162315990Y-119363411D01*
X162427932Y-119093158D01*
X162485000Y-118806260D01*
X162485000Y-118513740D01*
X162427932Y-118226842D01*
X162315990Y-117956589D01*
X162153475Y-117713368D01*
X161946632Y-117506525D01*
X161772240Y-117390000D01*
X161946632Y-117273475D01*
X162153475Y-117066632D01*
X162315990Y-116823411D01*
X162427932Y-116553158D01*
X162485000Y-116266260D01*
X162485000Y-115973740D01*
X162427932Y-115686842D01*
X162315990Y-115416589D01*
X162153475Y-115173368D01*
X161946632Y-114966525D01*
X161772240Y-114850000D01*
X161946632Y-114733475D01*
X162153475Y-114526632D01*
X162306201Y-114298061D01*
X179565000Y-114298061D01*
X179565000Y-114501939D01*
X179604774Y-114701898D01*
X179682795Y-114890256D01*
X179756123Y-115000000D01*
X179682795Y-115109744D01*
X179604774Y-115298102D01*
X179565000Y-115498061D01*
X179565000Y-115701939D01*
X179604774Y-115901898D01*
X179682795Y-116090256D01*
X179796063Y-116259774D01*
X179940226Y-116403937D01*
X180109744Y-116517205D01*
X180298102Y-116595226D01*
X180498061Y-116635000D01*
X180701939Y-116635000D01*
X180901898Y-116595226D01*
X181090256Y-116517205D01*
X181259774Y-116403937D01*
X181403937Y-116259774D01*
X181517205Y-116090256D01*
X181595226Y-115901898D01*
X181635000Y-115701939D01*
X181635000Y-115498061D01*
X181595226Y-115298102D01*
X181517205Y-115109744D01*
X181443877Y-115000000D01*
X181517205Y-114890256D01*
X181595226Y-114701898D01*
X181635000Y-114501939D01*
X181635000Y-114298061D01*
X181595226Y-114098102D01*
X181517205Y-113909744D01*
X181403937Y-113740226D01*
X181259774Y-113596063D01*
X181090256Y-113482795D01*
X180901898Y-113404774D01*
X180701939Y-113365000D01*
X180498061Y-113365000D01*
X180298102Y-113404774D01*
X180109744Y-113482795D01*
X179940226Y-113596063D01*
X179796063Y-113740226D01*
X179682795Y-113909744D01*
X179604774Y-114098102D01*
X179565000Y-114298061D01*
X162306201Y-114298061D01*
X162315990Y-114283411D01*
X162427932Y-114013158D01*
X162485000Y-113726260D01*
X162485000Y-113433740D01*
X162427932Y-113146842D01*
X162315990Y-112876589D01*
X162153475Y-112633368D01*
X161946632Y-112426525D01*
X161772240Y-112310000D01*
X161946632Y-112193475D01*
X162153475Y-111986632D01*
X162315990Y-111743411D01*
X162427932Y-111473158D01*
X162485000Y-111186260D01*
X162485000Y-110893740D01*
X162427932Y-110606842D01*
X162315990Y-110336589D01*
X162153475Y-110093368D01*
X162021620Y-109961513D01*
X162094180Y-109939502D01*
X162204494Y-109880537D01*
X162301185Y-109801185D01*
X162380537Y-109704494D01*
X162439502Y-109594180D01*
X162475812Y-109474482D01*
X162488072Y-109350000D01*
X162488072Y-107650000D01*
X162475812Y-107525518D01*
X162439502Y-107405820D01*
X162380537Y-107295506D01*
X162301185Y-107198815D01*
X162204494Y-107119463D01*
X162094180Y-107060498D01*
X161974482Y-107024188D01*
X161850000Y-107011928D01*
X160150000Y-107011928D01*
X160025518Y-107024188D01*
X159905820Y-107060498D01*
X159795506Y-107119463D01*
X159698815Y-107198815D01*
X159619463Y-107295506D01*
X159560498Y-107405820D01*
X159524188Y-107525518D01*
X159511928Y-107650000D01*
X156075302Y-107650000D01*
X156017205Y-107509744D01*
X155903937Y-107340226D01*
X155759774Y-107196063D01*
X155590256Y-107082795D01*
X155401898Y-107004774D01*
X155201939Y-106965000D01*
X154998061Y-106965000D01*
X154798102Y-107004774D01*
X154609744Y-107082795D01*
X154440226Y-107196063D01*
X154296063Y-107340226D01*
X154182795Y-107509744D01*
X154104774Y-107698102D01*
X154065000Y-107898061D01*
X144793897Y-107898061D01*
X144934764Y-107803937D01*
X145078927Y-107659774D01*
X145192195Y-107490256D01*
X145270216Y-107301898D01*
X145309990Y-107101939D01*
X145309990Y-106898061D01*
X145270216Y-106698102D01*
X145192195Y-106509744D01*
X145078927Y-106340226D01*
X144934764Y-106196063D01*
X144765246Y-106082795D01*
X144576888Y-106004774D01*
X144376929Y-105965000D01*
X144173051Y-105965000D01*
X143973092Y-106004774D01*
X143784734Y-106082795D01*
X143615216Y-106196063D01*
X143471053Y-106340226D01*
X143357785Y-106509744D01*
X143279764Y-106698102D01*
X143239990Y-106898061D01*
X131795210Y-106898061D01*
X131717205Y-106709744D01*
X131603937Y-106540226D01*
X131459774Y-106396063D01*
X131290256Y-106282795D01*
X131101898Y-106204774D01*
X130901939Y-106165000D01*
X130698061Y-106165000D01*
X130498102Y-106204774D01*
X130309744Y-106282795D01*
X130140226Y-106396063D01*
X129996063Y-106540226D01*
X129882795Y-106709744D01*
X129804774Y-106898102D01*
X129765000Y-107098061D01*
X101192992Y-107098061D01*
X100975849Y-105573884D01*
X100739025Y-102791413D01*
X100727890Y-102398061D01*
X111715000Y-102398061D01*
X111715000Y-102601939D01*
X111754774Y-102801898D01*
X111832795Y-102990256D01*
X111946063Y-103159774D01*
X112090226Y-103303937D01*
X112259744Y-103417205D01*
X112448102Y-103495226D01*
X112648061Y-103535000D01*
X112851939Y-103535000D01*
X113051898Y-103495226D01*
X113240256Y-103417205D01*
X113409774Y-103303937D01*
X113553937Y-103159774D01*
X113667205Y-102990256D01*
X113683879Y-102950000D01*
X127211928Y-102950000D01*
X127211928Y-104650000D01*
X127224188Y-104774482D01*
X127260498Y-104894180D01*
X127319463Y-105004494D01*
X127398815Y-105101185D01*
X127495506Y-105180537D01*
X127605820Y-105239502D01*
X127725518Y-105275812D01*
X127850000Y-105288072D01*
X129550000Y-105288072D01*
X129674482Y-105275812D01*
X129794180Y-105239502D01*
X129904494Y-105180537D01*
X130001185Y-105101185D01*
X130080537Y-105004494D01*
X130139502Y-104894180D01*
X130161513Y-104821620D01*
X130293368Y-104953475D01*
X130536589Y-105115990D01*
X130806842Y-105227932D01*
X131093740Y-105285000D01*
X131386260Y-105285000D01*
X131673158Y-105227932D01*
X131943411Y-105115990D01*
X131970243Y-105098061D01*
X142065000Y-105098061D01*
X142065000Y-105301939D01*
X142104774Y-105501898D01*
X142182795Y-105690256D01*
X142296063Y-105859774D01*
X142440226Y-106003937D01*
X142609744Y-106117205D01*
X142798102Y-106195226D01*
X142998061Y-106235000D01*
X143201939Y-106235000D01*
X143401898Y-106195226D01*
X143590256Y-106117205D01*
X143759774Y-106003937D01*
X143903937Y-105859774D01*
X143945172Y-105798061D01*
X157540000Y-105798061D01*
X157540000Y-106001939D01*
X157579774Y-106201898D01*
X157657795Y-106390256D01*
X157771063Y-106559774D01*
X157915226Y-106703937D01*
X158084744Y-106817205D01*
X158273102Y-106895226D01*
X158473061Y-106935000D01*
X158676939Y-106935000D01*
X158876898Y-106895226D01*
X159065256Y-106817205D01*
X159234774Y-106703937D01*
X159378937Y-106559774D01*
X159492205Y-106390256D01*
X159570226Y-106201898D01*
X159610000Y-106001939D01*
X159610000Y-106000000D01*
X180661928Y-106000000D01*
X180661928Y-107000000D01*
X180674188Y-107124482D01*
X180710498Y-107244180D01*
X180769463Y-107354494D01*
X180848815Y-107451185D01*
X180945506Y-107530537D01*
X181055820Y-107589502D01*
X181175518Y-107625812D01*
X181300000Y-107638072D01*
X182300000Y-107638072D01*
X182424482Y-107625812D01*
X182544180Y-107589502D01*
X182627226Y-107545112D01*
X182738933Y-107591383D01*
X182958212Y-107635000D01*
X183181788Y-107635000D01*
X183401067Y-107591383D01*
X183607624Y-107505824D01*
X183705000Y-107440759D01*
X183802376Y-107505824D01*
X184008933Y-107591383D01*
X184228212Y-107635000D01*
X184451788Y-107635000D01*
X184671067Y-107591383D01*
X184877624Y-107505824D01*
X185063520Y-107381612D01*
X185221612Y-107223520D01*
X185345824Y-107037624D01*
X185431383Y-106831067D01*
X185475000Y-106611788D01*
X185475000Y-106388212D01*
X185431383Y-106168933D01*
X185345824Y-105962376D01*
X185221612Y-105776480D01*
X185063520Y-105618388D01*
X184877624Y-105494176D01*
X184671067Y-105408617D01*
X184451788Y-105365000D01*
X184228212Y-105365000D01*
X184008933Y-105408617D01*
X183802376Y-105494176D01*
X183705000Y-105559241D01*
X183607624Y-105494176D01*
X183401067Y-105408617D01*
X183181788Y-105365000D01*
X182958212Y-105365000D01*
X182738933Y-105408617D01*
X182627226Y-105454888D01*
X182544180Y-105410498D01*
X182424482Y-105374188D01*
X182300000Y-105361928D01*
X181300000Y-105361928D01*
X181175518Y-105374188D01*
X181055820Y-105410498D01*
X180945506Y-105469463D01*
X180848815Y-105548815D01*
X180769463Y-105645506D01*
X180710498Y-105755820D01*
X180674188Y-105875518D01*
X180661928Y-106000000D01*
X159610000Y-106000000D01*
X159610000Y-105798061D01*
X159570226Y-105598102D01*
X159492205Y-105409744D01*
X159378937Y-105240226D01*
X159234774Y-105096063D01*
X159065256Y-104982795D01*
X158876898Y-104904774D01*
X158676939Y-104865000D01*
X158473061Y-104865000D01*
X158273102Y-104904774D01*
X158084744Y-104982795D01*
X157915226Y-105096063D01*
X157771063Y-105240226D01*
X157657795Y-105409744D01*
X157579774Y-105598102D01*
X157540000Y-105798061D01*
X143945172Y-105798061D01*
X144017205Y-105690256D01*
X144095226Y-105501898D01*
X144135000Y-105301939D01*
X144135000Y-105098061D01*
X144095226Y-104898102D01*
X144017205Y-104709744D01*
X143903937Y-104540226D01*
X143759774Y-104396063D01*
X143590256Y-104282795D01*
X143401898Y-104204774D01*
X143201939Y-104165000D01*
X142998061Y-104165000D01*
X142798102Y-104204774D01*
X142609744Y-104282795D01*
X142440226Y-104396063D01*
X142296063Y-104540226D01*
X142182795Y-104709744D01*
X142104774Y-104898102D01*
X142065000Y-105098061D01*
X131970243Y-105098061D01*
X132186632Y-104953475D01*
X132393475Y-104746632D01*
X132555990Y-104503411D01*
X132667932Y-104233158D01*
X132725000Y-103946260D01*
X132725000Y-103798061D01*
X145864996Y-103798061D01*
X145864996Y-104001939D01*
X145904770Y-104201898D01*
X145982791Y-104390256D01*
X146096059Y-104559774D01*
X146240222Y-104703937D01*
X146409740Y-104817205D01*
X146598098Y-104895226D01*
X146798057Y-104935000D01*
X147001935Y-104935000D01*
X147201894Y-104895226D01*
X147390252Y-104817205D01*
X147559770Y-104703937D01*
X147703933Y-104559774D01*
X147817201Y-104390256D01*
X147895222Y-104201898D01*
X147934996Y-104001939D01*
X147934996Y-103798061D01*
X147895222Y-103598102D01*
X147817201Y-103409744D01*
X147703933Y-103240226D01*
X147586768Y-103123061D01*
X151165000Y-103123061D01*
X151165000Y-103326939D01*
X151204774Y-103526898D01*
X151282795Y-103715256D01*
X151396063Y-103884774D01*
X151540226Y-104028937D01*
X151709744Y-104142205D01*
X151898102Y-104220226D01*
X152098061Y-104260000D01*
X152301939Y-104260000D01*
X152501898Y-104220226D01*
X152555408Y-104198061D01*
X162465000Y-104198061D01*
X162465000Y-104401939D01*
X162504774Y-104601898D01*
X162582795Y-104790256D01*
X162696063Y-104959774D01*
X162840226Y-105103937D01*
X163009744Y-105217205D01*
X163198102Y-105295226D01*
X163398061Y-105335000D01*
X163601939Y-105335000D01*
X163801898Y-105295226D01*
X163990256Y-105217205D01*
X164159774Y-105103937D01*
X164303937Y-104959774D01*
X164417205Y-104790256D01*
X164495226Y-104601898D01*
X164535000Y-104401939D01*
X164535000Y-104198061D01*
X164495226Y-103998102D01*
X164417205Y-103809744D01*
X164303937Y-103640226D01*
X164159774Y-103496063D01*
X163990256Y-103382795D01*
X163801898Y-103304774D01*
X163601939Y-103265000D01*
X163398061Y-103265000D01*
X163198102Y-103304774D01*
X163009744Y-103382795D01*
X162840226Y-103496063D01*
X162696063Y-103640226D01*
X162582795Y-103809744D01*
X162504774Y-103998102D01*
X162465000Y-104198061D01*
X152555408Y-104198061D01*
X152690256Y-104142205D01*
X152859774Y-104028937D01*
X153003937Y-103884774D01*
X153117205Y-103715256D01*
X153195226Y-103526898D01*
X153235000Y-103326939D01*
X153235000Y-103123061D01*
X153195226Y-102923102D01*
X153117205Y-102734744D01*
X153003937Y-102565226D01*
X152859774Y-102421063D01*
X152690256Y-102307795D01*
X152501898Y-102229774D01*
X152301939Y-102190000D01*
X152098061Y-102190000D01*
X151898102Y-102229774D01*
X151709744Y-102307795D01*
X151540226Y-102421063D01*
X151396063Y-102565226D01*
X151282795Y-102734744D01*
X151204774Y-102923102D01*
X151165000Y-103123061D01*
X147586768Y-103123061D01*
X147559770Y-103096063D01*
X147390252Y-102982795D01*
X147201894Y-102904774D01*
X147001935Y-102865000D01*
X146798057Y-102865000D01*
X146598098Y-102904774D01*
X146409740Y-102982795D01*
X146240222Y-103096063D01*
X146096059Y-103240226D01*
X145982791Y-103409744D01*
X145904770Y-103598102D01*
X145864996Y-103798061D01*
X132725000Y-103798061D01*
X132725000Y-103653740D01*
X132667932Y-103366842D01*
X132555990Y-103096589D01*
X132393475Y-102853368D01*
X132186632Y-102646525D01*
X132012240Y-102530000D01*
X132186632Y-102413475D01*
X132393475Y-102206632D01*
X132555990Y-101963411D01*
X132667932Y-101693158D01*
X132725000Y-101406260D01*
X132725000Y-101113740D01*
X132667932Y-100826842D01*
X132555990Y-100556589D01*
X132393475Y-100313368D01*
X132186632Y-100106525D01*
X132012240Y-99990000D01*
X132186632Y-99873475D01*
X132393475Y-99666632D01*
X132555990Y-99423411D01*
X132667932Y-99153158D01*
X132725000Y-98866260D01*
X132725000Y-98573740D01*
X132667932Y-98286842D01*
X132555990Y-98016589D01*
X132393475Y-97773368D01*
X132186632Y-97566525D01*
X132012240Y-97450000D01*
X132186632Y-97333475D01*
X132393475Y-97126632D01*
X132555990Y-96883411D01*
X132667932Y-96613158D01*
X132725000Y-96326260D01*
X132725000Y-96033740D01*
X132667932Y-95746842D01*
X132647727Y-95698061D01*
X141665000Y-95698061D01*
X141665000Y-95901939D01*
X141704774Y-96101898D01*
X141782795Y-96290256D01*
X141896063Y-96459774D01*
X142040226Y-96603937D01*
X142209744Y-96717205D01*
X142398102Y-96795226D01*
X142598061Y-96835000D01*
X142801939Y-96835000D01*
X143001898Y-96795226D01*
X143190256Y-96717205D01*
X143359774Y-96603937D01*
X143365650Y-96598061D01*
X144865000Y-96598061D01*
X144865000Y-96801939D01*
X144904774Y-97001898D01*
X144982795Y-97190256D01*
X145022715Y-97250000D01*
X144982795Y-97309744D01*
X144904774Y-97498102D01*
X144865000Y-97698061D01*
X144865000Y-97901939D01*
X144904774Y-98101898D01*
X144982795Y-98290256D01*
X145096063Y-98459774D01*
X145240226Y-98603937D01*
X145409744Y-98717205D01*
X145598102Y-98795226D01*
X145798061Y-98835000D01*
X146001939Y-98835000D01*
X146201898Y-98795226D01*
X146378467Y-98722088D01*
X146413120Y-98896303D01*
X146491141Y-99084661D01*
X146604409Y-99254179D01*
X146748572Y-99398342D01*
X146918090Y-99511610D01*
X147106448Y-99589631D01*
X147274169Y-99622993D01*
X147182795Y-99759744D01*
X147174629Y-99779459D01*
X147101939Y-99765000D01*
X146898061Y-99765000D01*
X146698102Y-99804774D01*
X146509744Y-99882795D01*
X146340226Y-99996063D01*
X146196063Y-100140226D01*
X146082795Y-100309744D01*
X146028837Y-100440010D01*
X145916604Y-100440010D01*
X145716645Y-100479784D01*
X145528287Y-100557805D01*
X145358769Y-100671073D01*
X145214606Y-100815236D01*
X145101338Y-100984754D01*
X145023317Y-101173112D01*
X144983543Y-101373071D01*
X144983543Y-101576949D01*
X145023317Y-101776908D01*
X145101338Y-101965266D01*
X145214606Y-102134784D01*
X145358769Y-102278947D01*
X145528287Y-102392215D01*
X145716645Y-102470236D01*
X145916604Y-102510010D01*
X146120482Y-102510010D01*
X146320441Y-102470236D01*
X146508799Y-102392215D01*
X146678317Y-102278947D01*
X146822480Y-102134784D01*
X146935748Y-101965266D01*
X146989706Y-101835000D01*
X147101939Y-101835000D01*
X147301898Y-101795226D01*
X147490256Y-101717205D01*
X147659774Y-101603937D01*
X147803937Y-101459774D01*
X147917205Y-101290256D01*
X147925371Y-101270541D01*
X147998061Y-101285000D01*
X148201939Y-101285000D01*
X148401898Y-101245226D01*
X148590256Y-101167205D01*
X148759774Y-101053937D01*
X148903937Y-100909774D01*
X149017205Y-100740256D01*
X149095226Y-100551898D01*
X149102569Y-100514984D01*
X149201898Y-100495226D01*
X149390256Y-100417205D01*
X149559774Y-100303937D01*
X149703937Y-100159774D01*
X149817205Y-99990256D01*
X149895226Y-99801898D01*
X149935000Y-99601939D01*
X149935000Y-99398061D01*
X149895226Y-99198102D01*
X149817205Y-99009744D01*
X149703937Y-98840226D01*
X149559774Y-98696063D01*
X149390256Y-98582795D01*
X149201898Y-98504774D01*
X149001939Y-98465000D01*
X148798061Y-98465000D01*
X148598102Y-98504774D01*
X148443346Y-98568876D01*
X148443346Y-98492466D01*
X148403572Y-98292507D01*
X148325551Y-98104149D01*
X148212283Y-97934631D01*
X148068120Y-97790468D01*
X147898602Y-97677200D01*
X147710244Y-97599179D01*
X147510285Y-97559405D01*
X147306407Y-97559405D01*
X147106448Y-97599179D01*
X146929879Y-97672317D01*
X146895226Y-97498102D01*
X146817205Y-97309744D01*
X146777285Y-97250000D01*
X146817205Y-97190256D01*
X146895226Y-97001898D01*
X146935000Y-96801939D01*
X146935000Y-96598061D01*
X146895226Y-96398102D01*
X146817205Y-96209744D01*
X146703937Y-96040226D01*
X146559774Y-95896063D01*
X146390256Y-95782795D01*
X146201898Y-95704774D01*
X146001939Y-95665000D01*
X145798061Y-95665000D01*
X145598102Y-95704774D01*
X145409744Y-95782795D01*
X145240226Y-95896063D01*
X145096063Y-96040226D01*
X144982795Y-96209744D01*
X144904774Y-96398102D01*
X144865000Y-96598061D01*
X143365650Y-96598061D01*
X143503937Y-96459774D01*
X143617205Y-96290256D01*
X143695226Y-96101898D01*
X143735000Y-95901939D01*
X143735000Y-95698061D01*
X143715109Y-95598061D01*
X146940010Y-95598061D01*
X146940010Y-95801939D01*
X146979784Y-96001898D01*
X147057805Y-96190256D01*
X147171073Y-96359774D01*
X147315236Y-96503937D01*
X147484754Y-96617205D01*
X147673112Y-96695226D01*
X147873071Y-96735000D01*
X148076949Y-96735000D01*
X148276908Y-96695226D01*
X148465266Y-96617205D01*
X148634784Y-96503937D01*
X148778947Y-96359774D01*
X148892215Y-96190256D01*
X148970236Y-96001898D01*
X149000835Y-95848061D01*
X150065000Y-95848061D01*
X150065000Y-96051939D01*
X150104774Y-96251898D01*
X150182795Y-96440256D01*
X150296063Y-96609774D01*
X150440226Y-96753937D01*
X150609744Y-96867205D01*
X150798102Y-96945226D01*
X150998061Y-96985000D01*
X151201939Y-96985000D01*
X151401898Y-96945226D01*
X151590256Y-96867205D01*
X151759774Y-96753937D01*
X151903937Y-96609774D01*
X152017205Y-96440256D01*
X152094957Y-96252546D01*
X152104774Y-96301898D01*
X152182795Y-96490256D01*
X152296063Y-96659774D01*
X152440226Y-96803937D01*
X152459230Y-96816635D01*
X152404774Y-96948102D01*
X152365000Y-97148061D01*
X152365000Y-97351939D01*
X152404774Y-97551898D01*
X152482795Y-97740256D01*
X152556123Y-97850000D01*
X152482795Y-97959744D01*
X152404774Y-98148102D01*
X152365000Y-98348061D01*
X152365000Y-98551939D01*
X152404774Y-98751898D01*
X152482795Y-98940256D01*
X152591317Y-99102671D01*
X152401939Y-99065002D01*
X152198061Y-99065002D01*
X151998102Y-99104776D01*
X151809744Y-99182797D01*
X151640226Y-99296065D01*
X151496063Y-99440228D01*
X151382795Y-99609746D01*
X151304774Y-99798104D01*
X151265000Y-99998063D01*
X151265000Y-100201941D01*
X151304774Y-100401900D01*
X151382795Y-100590258D01*
X151496063Y-100759776D01*
X151640226Y-100903939D01*
X151809744Y-101017207D01*
X151998102Y-101095228D01*
X152170486Y-101129517D01*
X152204774Y-101301898D01*
X152282795Y-101490256D01*
X152396063Y-101659774D01*
X152540226Y-101803937D01*
X152709744Y-101917205D01*
X152898102Y-101995226D01*
X153098061Y-102035000D01*
X153301939Y-102035000D01*
X153501898Y-101995226D01*
X153690256Y-101917205D01*
X153859774Y-101803937D01*
X154003937Y-101659774D01*
X154117205Y-101490256D01*
X154195226Y-101301898D01*
X154235000Y-101101939D01*
X154235000Y-100898061D01*
X154195226Y-100698102D01*
X154117205Y-100509744D01*
X154003937Y-100340226D01*
X153859774Y-100196063D01*
X153690256Y-100082795D01*
X153501898Y-100004774D01*
X153329514Y-99970485D01*
X153295226Y-99798104D01*
X153217205Y-99609746D01*
X153108683Y-99447331D01*
X153298061Y-99485000D01*
X153501939Y-99485000D01*
X153701898Y-99445226D01*
X153890256Y-99367205D01*
X154059774Y-99253937D01*
X154203937Y-99109774D01*
X154317205Y-98940256D01*
X154395226Y-98751898D01*
X154435000Y-98551939D01*
X154435000Y-98348061D01*
X154395226Y-98148102D01*
X154317205Y-97959744D01*
X154243877Y-97850000D01*
X154317205Y-97740256D01*
X154395226Y-97551898D01*
X154435000Y-97351939D01*
X154435000Y-97148061D01*
X154395226Y-96948102D01*
X154317205Y-96759744D01*
X154203937Y-96590226D01*
X154059774Y-96446063D01*
X154040770Y-96433365D01*
X154095226Y-96301898D01*
X154135000Y-96101939D01*
X154135000Y-95898061D01*
X154095226Y-95698102D01*
X154017205Y-95509744D01*
X153942582Y-95398061D01*
X158465000Y-95398061D01*
X158465000Y-95601939D01*
X158504774Y-95801898D01*
X158582795Y-95990256D01*
X158696063Y-96159774D01*
X158840226Y-96303937D01*
X159009744Y-96417205D01*
X159198102Y-96495226D01*
X159398061Y-96535000D01*
X159601939Y-96535000D01*
X159801898Y-96495226D01*
X159990256Y-96417205D01*
X160159774Y-96303937D01*
X160303937Y-96159774D01*
X160374786Y-96053740D01*
X167275000Y-96053740D01*
X167275000Y-96346260D01*
X167332068Y-96633158D01*
X167444010Y-96903411D01*
X167606525Y-97146632D01*
X167813368Y-97353475D01*
X167987760Y-97470000D01*
X167813368Y-97586525D01*
X167606525Y-97793368D01*
X167444010Y-98036589D01*
X167332068Y-98306842D01*
X167275000Y-98593740D01*
X167275000Y-98886260D01*
X167332068Y-99173158D01*
X167444010Y-99443411D01*
X167606525Y-99686632D01*
X167813368Y-99893475D01*
X167987760Y-100010000D01*
X167813368Y-100126525D01*
X167606525Y-100333368D01*
X167444010Y-100576589D01*
X167332068Y-100846842D01*
X167275000Y-101133740D01*
X167275000Y-101426260D01*
X167332068Y-101713158D01*
X167444010Y-101983411D01*
X167606525Y-102226632D01*
X167813368Y-102433475D01*
X167987760Y-102550000D01*
X167813368Y-102666525D01*
X167606525Y-102873368D01*
X167444010Y-103116589D01*
X167332068Y-103386842D01*
X167275000Y-103673740D01*
X167275000Y-103966260D01*
X167332068Y-104253158D01*
X167444010Y-104523411D01*
X167606525Y-104766632D01*
X167813368Y-104973475D01*
X168056589Y-105135990D01*
X168326842Y-105247932D01*
X168613740Y-105305000D01*
X168906260Y-105305000D01*
X169193158Y-105247932D01*
X169463411Y-105135990D01*
X169706632Y-104973475D01*
X169913475Y-104766632D01*
X170030000Y-104592240D01*
X170146525Y-104766632D01*
X170353368Y-104973475D01*
X170596589Y-105135990D01*
X170866842Y-105247932D01*
X171153740Y-105305000D01*
X171446260Y-105305000D01*
X171733158Y-105247932D01*
X172003411Y-105135990D01*
X172246632Y-104973475D01*
X172453475Y-104766632D01*
X172615990Y-104523411D01*
X172727932Y-104253158D01*
X172785000Y-103966260D01*
X172785000Y-103673740D01*
X172727932Y-103386842D01*
X172615990Y-103116589D01*
X172603610Y-103098061D01*
X185565000Y-103098061D01*
X185565000Y-103301939D01*
X185604774Y-103501898D01*
X185682795Y-103690256D01*
X185796063Y-103859774D01*
X185940226Y-104003937D01*
X186109744Y-104117205D01*
X186298102Y-104195226D01*
X186498061Y-104235000D01*
X186701939Y-104235000D01*
X186901898Y-104195226D01*
X187090256Y-104117205D01*
X187259774Y-104003937D01*
X187403937Y-103859774D01*
X187517205Y-103690256D01*
X187595226Y-103501898D01*
X187635000Y-103301939D01*
X187635000Y-103098061D01*
X187595226Y-102898102D01*
X187517205Y-102709744D01*
X187403937Y-102540226D01*
X187259774Y-102396063D01*
X187090256Y-102282795D01*
X186901898Y-102204774D01*
X186701939Y-102165000D01*
X186498061Y-102165000D01*
X186298102Y-102204774D01*
X186109744Y-102282795D01*
X185940226Y-102396063D01*
X185796063Y-102540226D01*
X185682795Y-102709744D01*
X185604774Y-102898102D01*
X185565000Y-103098061D01*
X172603610Y-103098061D01*
X172453475Y-102873368D01*
X172246632Y-102666525D01*
X172072240Y-102550000D01*
X172246632Y-102433475D01*
X172453475Y-102226632D01*
X172542673Y-102093137D01*
X193915000Y-102093137D01*
X193915000Y-102306863D01*
X193956696Y-102516483D01*
X194038485Y-102713940D01*
X194157225Y-102891647D01*
X194308353Y-103042775D01*
X194486060Y-103161515D01*
X194683517Y-103243304D01*
X194893137Y-103285000D01*
X195106863Y-103285000D01*
X195316483Y-103243304D01*
X195513940Y-103161515D01*
X195691647Y-103042775D01*
X195842775Y-102891647D01*
X195961515Y-102713940D01*
X196043304Y-102516483D01*
X196085000Y-102306863D01*
X196085000Y-102093137D01*
X196043304Y-101883517D01*
X195961515Y-101686060D01*
X195842775Y-101508353D01*
X195691647Y-101357225D01*
X195513940Y-101238485D01*
X195316483Y-101156696D01*
X195106863Y-101115000D01*
X194893137Y-101115000D01*
X194683517Y-101156696D01*
X194486060Y-101238485D01*
X194308353Y-101357225D01*
X194157225Y-101508353D01*
X194038485Y-101686060D01*
X193956696Y-101883517D01*
X193915000Y-102093137D01*
X172542673Y-102093137D01*
X172615990Y-101983411D01*
X172727932Y-101713158D01*
X172785000Y-101426260D01*
X172785000Y-101133740D01*
X172738121Y-100898061D01*
X173965000Y-100898061D01*
X173965000Y-101101939D01*
X174004774Y-101301898D01*
X174082795Y-101490256D01*
X174196063Y-101659774D01*
X174340226Y-101803937D01*
X174509744Y-101917205D01*
X174698102Y-101995226D01*
X174898061Y-102035000D01*
X175101939Y-102035000D01*
X175301898Y-101995226D01*
X175490256Y-101917205D01*
X175659774Y-101803937D01*
X175803937Y-101659774D01*
X175917205Y-101490256D01*
X175995226Y-101301898D01*
X176035000Y-101101939D01*
X176035000Y-100898061D01*
X175995226Y-100698102D01*
X175917205Y-100509744D01*
X175803937Y-100340226D01*
X175659774Y-100196063D01*
X175490256Y-100082795D01*
X175301898Y-100004774D01*
X175101939Y-99965000D01*
X174898061Y-99965000D01*
X174698102Y-100004774D01*
X174509744Y-100082795D01*
X174340226Y-100196063D01*
X174196063Y-100340226D01*
X174082795Y-100509744D01*
X174004774Y-100698102D01*
X173965000Y-100898061D01*
X172738121Y-100898061D01*
X172727932Y-100846842D01*
X172615990Y-100576589D01*
X172453475Y-100333368D01*
X172246632Y-100126525D01*
X172072240Y-100010000D01*
X172246632Y-99893475D01*
X172453475Y-99686632D01*
X172615990Y-99443411D01*
X172727932Y-99173158D01*
X172785000Y-98886260D01*
X172785000Y-98593740D01*
X172727932Y-98306842D01*
X172615990Y-98036589D01*
X172453475Y-97793368D01*
X172321620Y-97661513D01*
X172394180Y-97639502D01*
X172504494Y-97580537D01*
X172601185Y-97501185D01*
X172603748Y-97498061D01*
X179565000Y-97498061D01*
X179565000Y-97701939D01*
X179604774Y-97901898D01*
X179682795Y-98090256D01*
X179796063Y-98259774D01*
X179940226Y-98403937D01*
X180109744Y-98517205D01*
X180298102Y-98595226D01*
X180498061Y-98635000D01*
X180701939Y-98635000D01*
X180901898Y-98595226D01*
X181090256Y-98517205D01*
X181259774Y-98403937D01*
X181403937Y-98259774D01*
X181517205Y-98090256D01*
X181595226Y-97901898D01*
X181635000Y-97701939D01*
X181635000Y-97693137D01*
X193915000Y-97693137D01*
X193915000Y-97906863D01*
X193956696Y-98116483D01*
X194038485Y-98313940D01*
X194157225Y-98491647D01*
X194308353Y-98642775D01*
X194486060Y-98761515D01*
X194683517Y-98843304D01*
X194893137Y-98885000D01*
X195106863Y-98885000D01*
X195316483Y-98843304D01*
X195513940Y-98761515D01*
X195691647Y-98642775D01*
X195842775Y-98491647D01*
X195961515Y-98313940D01*
X196043304Y-98116483D01*
X196085000Y-97906863D01*
X196085000Y-97693137D01*
X196043304Y-97483517D01*
X195961515Y-97286060D01*
X195842775Y-97108353D01*
X195691647Y-96957225D01*
X195513940Y-96838485D01*
X195316483Y-96756696D01*
X195106863Y-96715000D01*
X194893137Y-96715000D01*
X194683517Y-96756696D01*
X194486060Y-96838485D01*
X194308353Y-96957225D01*
X194157225Y-97108353D01*
X194038485Y-97286060D01*
X193956696Y-97483517D01*
X193915000Y-97693137D01*
X181635000Y-97693137D01*
X181635000Y-97498061D01*
X181595226Y-97298102D01*
X181517205Y-97109744D01*
X181403937Y-96940226D01*
X181259774Y-96796063D01*
X181090256Y-96682795D01*
X180901898Y-96604774D01*
X180701939Y-96565000D01*
X180498061Y-96565000D01*
X180298102Y-96604774D01*
X180109744Y-96682795D01*
X179940226Y-96796063D01*
X179796063Y-96940226D01*
X179682795Y-97109744D01*
X179604774Y-97298102D01*
X179565000Y-97498061D01*
X172603748Y-97498061D01*
X172680537Y-97404494D01*
X172739502Y-97294180D01*
X172775812Y-97174482D01*
X172788072Y-97050000D01*
X172788072Y-95350000D01*
X172775812Y-95225518D01*
X172739502Y-95105820D01*
X172680537Y-94995506D01*
X172601185Y-94898815D01*
X172504494Y-94819463D01*
X172394180Y-94760498D01*
X172274482Y-94724188D01*
X172150000Y-94711928D01*
X170450000Y-94711928D01*
X170325518Y-94724188D01*
X170205820Y-94760498D01*
X170095506Y-94819463D01*
X169998815Y-94898815D01*
X169919463Y-94995506D01*
X169860498Y-95105820D01*
X169838487Y-95178380D01*
X169706632Y-95046525D01*
X169463411Y-94884010D01*
X169193158Y-94772068D01*
X168906260Y-94715000D01*
X168613740Y-94715000D01*
X168326842Y-94772068D01*
X168056589Y-94884010D01*
X167813368Y-95046525D01*
X167606525Y-95253368D01*
X167444010Y-95496589D01*
X167332068Y-95766842D01*
X167275000Y-96053740D01*
X160374786Y-96053740D01*
X160417205Y-95990256D01*
X160495226Y-95801898D01*
X160535000Y-95601939D01*
X160535000Y-95398061D01*
X160495226Y-95198102D01*
X160417205Y-95009744D01*
X160303937Y-94840226D01*
X160159774Y-94696063D01*
X159990256Y-94582795D01*
X159801898Y-94504774D01*
X159601939Y-94465000D01*
X159398061Y-94465000D01*
X159198102Y-94504774D01*
X159009744Y-94582795D01*
X158840226Y-94696063D01*
X158696063Y-94840226D01*
X158582795Y-95009744D01*
X158504774Y-95198102D01*
X158465000Y-95398061D01*
X153942582Y-95398061D01*
X153903937Y-95340226D01*
X153759774Y-95196063D01*
X153590256Y-95082795D01*
X153401898Y-95004774D01*
X153201939Y-94965000D01*
X152998061Y-94965000D01*
X152798102Y-95004774D01*
X152609744Y-95082795D01*
X152440226Y-95196063D01*
X152296063Y-95340226D01*
X152182795Y-95509744D01*
X152105043Y-95697454D01*
X152095226Y-95648102D01*
X152017205Y-95459744D01*
X151903937Y-95290226D01*
X151759774Y-95146063D01*
X151590256Y-95032795D01*
X151401898Y-94954774D01*
X151201939Y-94915000D01*
X150998061Y-94915000D01*
X150798102Y-94954774D01*
X150609744Y-95032795D01*
X150440226Y-95146063D01*
X150296063Y-95290226D01*
X150182795Y-95459744D01*
X150104774Y-95648102D01*
X150065000Y-95848061D01*
X149000835Y-95848061D01*
X149010010Y-95801939D01*
X149010010Y-95598061D01*
X148970236Y-95398102D01*
X148892215Y-95209744D01*
X148778947Y-95040226D01*
X148634784Y-94896063D01*
X148465266Y-94782795D01*
X148276908Y-94704774D01*
X148076949Y-94665000D01*
X147873071Y-94665000D01*
X147673112Y-94704774D01*
X147484754Y-94782795D01*
X147315236Y-94896063D01*
X147171073Y-95040226D01*
X147057805Y-95209744D01*
X146979784Y-95398102D01*
X146940010Y-95598061D01*
X143715109Y-95598061D01*
X143695226Y-95498102D01*
X143617205Y-95309744D01*
X143503937Y-95140226D01*
X143359774Y-94996063D01*
X143190256Y-94882795D01*
X143001898Y-94804774D01*
X142801939Y-94765000D01*
X142598061Y-94765000D01*
X142398102Y-94804774D01*
X142209744Y-94882795D01*
X142040226Y-94996063D01*
X141896063Y-95140226D01*
X141782795Y-95309744D01*
X141704774Y-95498102D01*
X141665000Y-95698061D01*
X132647727Y-95698061D01*
X132555990Y-95476589D01*
X132393475Y-95233368D01*
X132186632Y-95026525D01*
X131943411Y-94864010D01*
X131673158Y-94752068D01*
X131386260Y-94695000D01*
X131093740Y-94695000D01*
X130806842Y-94752068D01*
X130536589Y-94864010D01*
X130293368Y-95026525D01*
X130086525Y-95233368D01*
X129970000Y-95407760D01*
X129853475Y-95233368D01*
X129646632Y-95026525D01*
X129403411Y-94864010D01*
X129133158Y-94752068D01*
X128846260Y-94695000D01*
X128553740Y-94695000D01*
X128266842Y-94752068D01*
X127996589Y-94864010D01*
X127753368Y-95026525D01*
X127546525Y-95233368D01*
X127384010Y-95476589D01*
X127272068Y-95746842D01*
X127215000Y-96033740D01*
X127215000Y-96326260D01*
X127272068Y-96613158D01*
X127384010Y-96883411D01*
X127546525Y-97126632D01*
X127753368Y-97333475D01*
X127927760Y-97450000D01*
X127753368Y-97566525D01*
X127546525Y-97773368D01*
X127384010Y-98016589D01*
X127272068Y-98286842D01*
X127215000Y-98573740D01*
X127215000Y-98866260D01*
X127272068Y-99153158D01*
X127384010Y-99423411D01*
X127546525Y-99666632D01*
X127753368Y-99873475D01*
X127927760Y-99990000D01*
X127753368Y-100106525D01*
X127546525Y-100313368D01*
X127384010Y-100556589D01*
X127272068Y-100826842D01*
X127215000Y-101113740D01*
X127215000Y-101406260D01*
X127272068Y-101693158D01*
X127384010Y-101963411D01*
X127546525Y-102206632D01*
X127678380Y-102338487D01*
X127605820Y-102360498D01*
X127495506Y-102419463D01*
X127398815Y-102498815D01*
X127319463Y-102595506D01*
X127260498Y-102705820D01*
X127224188Y-102825518D01*
X127211928Y-102950000D01*
X113683879Y-102950000D01*
X113745226Y-102801898D01*
X113785000Y-102601939D01*
X113785000Y-102398061D01*
X113745226Y-102198102D01*
X113667205Y-102009744D01*
X113553937Y-101840226D01*
X113409774Y-101696063D01*
X113240256Y-101582795D01*
X113051898Y-101504774D01*
X112851939Y-101465000D01*
X112648061Y-101465000D01*
X112448102Y-101504774D01*
X112259744Y-101582795D01*
X112090226Y-101696063D01*
X111946063Y-101840226D01*
X111832795Y-102009744D01*
X111754774Y-102198102D01*
X111715000Y-102398061D01*
X100727890Y-102398061D01*
X100660000Y-100000000D01*
X100684118Y-99148061D01*
X104215000Y-99148061D01*
X104215000Y-99351939D01*
X104254774Y-99551898D01*
X104332795Y-99740256D01*
X104446063Y-99909774D01*
X104590226Y-100053937D01*
X104759744Y-100167205D01*
X104948102Y-100245226D01*
X105148061Y-100285000D01*
X105351939Y-100285000D01*
X105551898Y-100245226D01*
X105740256Y-100167205D01*
X105909774Y-100053937D01*
X106053937Y-99909774D01*
X106167205Y-99740256D01*
X106245226Y-99551898D01*
X106285000Y-99351939D01*
X106285000Y-99148061D01*
X106245226Y-98948102D01*
X106167205Y-98759744D01*
X106053937Y-98590226D01*
X105909774Y-98446063D01*
X105740256Y-98332795D01*
X105551898Y-98254774D01*
X105351939Y-98215000D01*
X105148061Y-98215000D01*
X104948102Y-98254774D01*
X104759744Y-98332795D01*
X104590226Y-98446063D01*
X104446063Y-98590226D01*
X104332795Y-98759744D01*
X104254774Y-98948102D01*
X104215000Y-99148061D01*
X100684118Y-99148061D01*
X100735021Y-97350000D01*
X108811928Y-97350000D01*
X108811928Y-99050000D01*
X108824188Y-99174482D01*
X108860498Y-99294180D01*
X108919463Y-99404494D01*
X108998815Y-99501185D01*
X109095506Y-99580537D01*
X109205820Y-99639502D01*
X109278380Y-99661513D01*
X109146525Y-99793368D01*
X108984010Y-100036589D01*
X108872068Y-100306842D01*
X108815000Y-100593740D01*
X108815000Y-100886260D01*
X108872068Y-101173158D01*
X108984010Y-101443411D01*
X109146525Y-101686632D01*
X109353368Y-101893475D01*
X109596589Y-102055990D01*
X109866842Y-102167932D01*
X110153740Y-102225000D01*
X110446260Y-102225000D01*
X110733158Y-102167932D01*
X111003411Y-102055990D01*
X111246632Y-101893475D01*
X111453475Y-101686632D01*
X111615990Y-101443411D01*
X111727932Y-101173158D01*
X111785000Y-100886260D01*
X111785000Y-100593740D01*
X111727932Y-100306842D01*
X111615990Y-100036589D01*
X111453475Y-99793368D01*
X111321620Y-99661513D01*
X111394180Y-99639502D01*
X111504494Y-99580537D01*
X111601185Y-99501185D01*
X111680537Y-99404494D01*
X111739502Y-99294180D01*
X111775812Y-99174482D01*
X111788072Y-99050000D01*
X111788072Y-97350000D01*
X111775812Y-97225518D01*
X111739502Y-97105820D01*
X111680537Y-96995506D01*
X111601185Y-96898815D01*
X111504494Y-96819463D01*
X111394180Y-96760498D01*
X111274482Y-96724188D01*
X111150000Y-96711928D01*
X109450000Y-96711928D01*
X109325518Y-96724188D01*
X109205820Y-96760498D01*
X109095506Y-96819463D01*
X108998815Y-96898815D01*
X108919463Y-96995506D01*
X108860498Y-97105820D01*
X108824188Y-97225518D01*
X108811928Y-97350000D01*
X100735021Y-97350000D01*
X100739025Y-97208587D01*
X100914402Y-95148061D01*
X101965000Y-95148061D01*
X101965000Y-95351939D01*
X102004774Y-95551898D01*
X102082795Y-95740256D01*
X102196063Y-95909774D01*
X102340226Y-96053937D01*
X102509744Y-96167205D01*
X102698102Y-96245226D01*
X102898061Y-96285000D01*
X103101939Y-96285000D01*
X103301898Y-96245226D01*
X103490256Y-96167205D01*
X103659774Y-96053937D01*
X103803937Y-95909774D01*
X103917205Y-95740256D01*
X103995226Y-95551898D01*
X104025825Y-95398061D01*
X112065000Y-95398061D01*
X112065000Y-95601939D01*
X112104774Y-95801898D01*
X112182795Y-95990256D01*
X112296063Y-96159774D01*
X112440226Y-96303937D01*
X112609744Y-96417205D01*
X112798102Y-96495226D01*
X112998061Y-96535000D01*
X113201939Y-96535000D01*
X113401898Y-96495226D01*
X113590256Y-96417205D01*
X113759774Y-96303937D01*
X113903937Y-96159774D01*
X114017205Y-95990256D01*
X114095226Y-95801898D01*
X114135000Y-95601939D01*
X114135000Y-95398061D01*
X114095226Y-95198102D01*
X114017205Y-95009744D01*
X113903937Y-94840226D01*
X113759774Y-94696063D01*
X113590256Y-94582795D01*
X113401898Y-94504774D01*
X113201939Y-94465000D01*
X112998061Y-94465000D01*
X112798102Y-94504774D01*
X112609744Y-94582795D01*
X112440226Y-94696063D01*
X112296063Y-94840226D01*
X112182795Y-95009744D01*
X112104774Y-95198102D01*
X112065000Y-95398061D01*
X104025825Y-95398061D01*
X104035000Y-95351939D01*
X104035000Y-95148061D01*
X103995226Y-94948102D01*
X103917205Y-94759744D01*
X103803937Y-94590226D01*
X103659774Y-94446063D01*
X103587934Y-94398061D01*
X172965000Y-94398061D01*
X172965000Y-94601939D01*
X173004774Y-94801898D01*
X173082795Y-94990256D01*
X173196063Y-95159774D01*
X173340226Y-95303937D01*
X173509744Y-95417205D01*
X173698102Y-95495226D01*
X173898061Y-95535000D01*
X174101939Y-95535000D01*
X174301898Y-95495226D01*
X174490256Y-95417205D01*
X174659774Y-95303937D01*
X174803937Y-95159774D01*
X174917205Y-94990256D01*
X174995226Y-94801898D01*
X175035000Y-94601939D01*
X175035000Y-94398061D01*
X174995226Y-94198102D01*
X174917205Y-94009744D01*
X174803937Y-93840226D01*
X174659774Y-93696063D01*
X174490256Y-93582795D01*
X174301898Y-93504774D01*
X174101939Y-93465000D01*
X173898061Y-93465000D01*
X173698102Y-93504774D01*
X173509744Y-93582795D01*
X173340226Y-93696063D01*
X173196063Y-93840226D01*
X173082795Y-94009744D01*
X173004774Y-94198102D01*
X172965000Y-94398061D01*
X103587934Y-94398061D01*
X103490256Y-94332795D01*
X103301898Y-94254774D01*
X103101939Y-94215000D01*
X102898061Y-94215000D01*
X102698102Y-94254774D01*
X102509744Y-94332795D01*
X102340226Y-94446063D01*
X102196063Y-94590226D01*
X102082795Y-94759744D01*
X102004774Y-94948102D01*
X101965000Y-95148061D01*
X100914402Y-95148061D01*
X100975849Y-94426116D01*
X101336009Y-91898061D01*
X135965000Y-91898061D01*
X135965000Y-92101939D01*
X136004774Y-92301898D01*
X136082795Y-92490256D01*
X136196063Y-92659774D01*
X136340226Y-92803937D01*
X136509744Y-92917205D01*
X136698102Y-92995226D01*
X136898061Y-93035000D01*
X137101939Y-93035000D01*
X137301898Y-92995226D01*
X137490256Y-92917205D01*
X137659774Y-92803937D01*
X137803937Y-92659774D01*
X137845172Y-92598061D01*
X142565000Y-92598061D01*
X142565000Y-92801939D01*
X142604774Y-93001898D01*
X142682795Y-93190256D01*
X142796063Y-93359774D01*
X142940226Y-93503937D01*
X143109744Y-93617205D01*
X143298102Y-93695226D01*
X143498061Y-93735000D01*
X143701939Y-93735000D01*
X143901898Y-93695226D01*
X144090256Y-93617205D01*
X144259774Y-93503937D01*
X144403937Y-93359774D01*
X144517205Y-93190256D01*
X144595226Y-93001898D01*
X144595989Y-92998061D01*
X184665000Y-92998061D01*
X184665000Y-93201939D01*
X184704774Y-93401898D01*
X184782795Y-93590256D01*
X184896063Y-93759774D01*
X185040226Y-93903937D01*
X185209744Y-94017205D01*
X185398102Y-94095226D01*
X185598061Y-94135000D01*
X185801939Y-94135000D01*
X186001898Y-94095226D01*
X186190256Y-94017205D01*
X186359774Y-93903937D01*
X186503937Y-93759774D01*
X186617205Y-93590256D01*
X186695226Y-93401898D01*
X186735000Y-93201939D01*
X186735000Y-92998061D01*
X186695226Y-92798102D01*
X186617205Y-92609744D01*
X186503937Y-92440226D01*
X186359774Y-92296063D01*
X186190256Y-92182795D01*
X186001898Y-92104774D01*
X185801939Y-92065000D01*
X185598061Y-92065000D01*
X185398102Y-92104774D01*
X185209744Y-92182795D01*
X185040226Y-92296063D01*
X184896063Y-92440226D01*
X184782795Y-92609744D01*
X184704774Y-92798102D01*
X184665000Y-92998061D01*
X144595989Y-92998061D01*
X144635000Y-92801939D01*
X144635000Y-92598061D01*
X144595226Y-92398102D01*
X144517205Y-92209744D01*
X144403937Y-92040226D01*
X144259774Y-91896063D01*
X144090256Y-91782795D01*
X143901898Y-91704774D01*
X143701939Y-91665000D01*
X143498061Y-91665000D01*
X143298102Y-91704774D01*
X143109744Y-91782795D01*
X142940226Y-91896063D01*
X142796063Y-92040226D01*
X142682795Y-92209744D01*
X142604774Y-92398102D01*
X142565000Y-92598061D01*
X137845172Y-92598061D01*
X137917205Y-92490256D01*
X137995226Y-92301898D01*
X138035000Y-92101939D01*
X138035000Y-91898061D01*
X137995226Y-91698102D01*
X137917205Y-91509744D01*
X137803937Y-91340226D01*
X137659774Y-91196063D01*
X137490256Y-91082795D01*
X137301898Y-91004774D01*
X137101939Y-90965000D01*
X136898061Y-90965000D01*
X136698102Y-91004774D01*
X136509744Y-91082795D01*
X136340226Y-91196063D01*
X136196063Y-91340226D01*
X136082795Y-91509744D01*
X136004774Y-91698102D01*
X135965000Y-91898061D01*
X101336009Y-91898061D01*
X101369711Y-91661500D01*
X101543048Y-90798061D01*
X147490000Y-90798061D01*
X147490000Y-91001939D01*
X147529774Y-91201898D01*
X147607795Y-91390256D01*
X147721063Y-91559774D01*
X147865226Y-91703937D01*
X148034744Y-91817205D01*
X148223102Y-91895226D01*
X148423061Y-91935000D01*
X148626939Y-91935000D01*
X148826898Y-91895226D01*
X149015256Y-91817205D01*
X149184774Y-91703937D01*
X149328937Y-91559774D01*
X149442205Y-91390256D01*
X149520226Y-91201898D01*
X149560000Y-91001939D01*
X149560000Y-90850000D01*
X159011928Y-90850000D01*
X159024188Y-90974482D01*
X159060498Y-91094180D01*
X159119463Y-91204494D01*
X159198815Y-91301185D01*
X159295506Y-91380537D01*
X159405820Y-91439502D01*
X159525518Y-91475812D01*
X159650000Y-91488072D01*
X160214250Y-91485000D01*
X160373000Y-91326250D01*
X160373000Y-90127000D01*
X160627000Y-90127000D01*
X160627000Y-91326250D01*
X160785750Y-91485000D01*
X161350000Y-91488072D01*
X161474482Y-91475812D01*
X161594180Y-91439502D01*
X161704494Y-91380537D01*
X161801185Y-91301185D01*
X161880537Y-91204494D01*
X161883975Y-91198061D01*
X181765000Y-91198061D01*
X181765000Y-91401939D01*
X181804774Y-91601898D01*
X181882795Y-91790256D01*
X181996063Y-91959774D01*
X182140226Y-92103937D01*
X182309744Y-92217205D01*
X182498102Y-92295226D01*
X182698061Y-92335000D01*
X182901939Y-92335000D01*
X183101898Y-92295226D01*
X183290256Y-92217205D01*
X183459774Y-92103937D01*
X183603937Y-91959774D01*
X183717205Y-91790256D01*
X183795226Y-91601898D01*
X183835000Y-91401939D01*
X183835000Y-91198061D01*
X183795226Y-90998102D01*
X183717205Y-90809744D01*
X183603937Y-90640226D01*
X183459774Y-90496063D01*
X183290256Y-90382795D01*
X183101898Y-90304774D01*
X182901939Y-90265000D01*
X182698061Y-90265000D01*
X182498102Y-90304774D01*
X182309744Y-90382795D01*
X182140226Y-90496063D01*
X181996063Y-90640226D01*
X181882795Y-90809744D01*
X181804774Y-90998102D01*
X181765000Y-91198061D01*
X161883975Y-91198061D01*
X161939502Y-91094180D01*
X161975812Y-90974482D01*
X161988072Y-90850000D01*
X161985000Y-90285750D01*
X161826250Y-90127000D01*
X160627000Y-90127000D01*
X160373000Y-90127000D01*
X159173750Y-90127000D01*
X159015000Y-90285750D01*
X159011928Y-90850000D01*
X149560000Y-90850000D01*
X149560000Y-90798061D01*
X149520226Y-90598102D01*
X149442205Y-90409744D01*
X149328937Y-90240226D01*
X149184774Y-90096063D01*
X149015256Y-89982795D01*
X148826898Y-89904774D01*
X148626939Y-89865000D01*
X148423061Y-89865000D01*
X148223102Y-89904774D01*
X148034744Y-89982795D01*
X147865226Y-90096063D01*
X147721063Y-90240226D01*
X147607795Y-90409744D01*
X147529774Y-90598102D01*
X147490000Y-90798061D01*
X101543048Y-90798061D01*
X101919351Y-88923594D01*
X102030151Y-88498061D01*
X147990000Y-88498061D01*
X147990000Y-88701939D01*
X148029774Y-88901898D01*
X148107795Y-89090256D01*
X148221063Y-89259774D01*
X148365226Y-89403937D01*
X148534744Y-89517205D01*
X148723102Y-89595226D01*
X148923061Y-89635000D01*
X149126939Y-89635000D01*
X149326898Y-89595226D01*
X149515256Y-89517205D01*
X149684774Y-89403937D01*
X149828937Y-89259774D01*
X149902285Y-89150000D01*
X159011928Y-89150000D01*
X159015000Y-89714250D01*
X159173750Y-89873000D01*
X160373000Y-89873000D01*
X160373000Y-89853000D01*
X160627000Y-89853000D01*
X160627000Y-89873000D01*
X161826250Y-89873000D01*
X161985000Y-89714250D01*
X161988072Y-89150000D01*
X161982957Y-89098061D01*
X181765000Y-89098061D01*
X181765000Y-89301939D01*
X181804774Y-89501898D01*
X181882795Y-89690256D01*
X181996063Y-89859774D01*
X182140226Y-90003937D01*
X182309744Y-90117205D01*
X182498102Y-90195226D01*
X182698061Y-90235000D01*
X182901939Y-90235000D01*
X183101898Y-90195226D01*
X183290256Y-90117205D01*
X183459774Y-90003937D01*
X183603937Y-89859774D01*
X183717205Y-89690256D01*
X183795226Y-89501898D01*
X183835000Y-89301939D01*
X183835000Y-89098061D01*
X183795226Y-88898102D01*
X183717205Y-88709744D01*
X183603937Y-88540226D01*
X183459774Y-88396063D01*
X183290256Y-88282795D01*
X183101898Y-88204774D01*
X182901939Y-88165000D01*
X182698061Y-88165000D01*
X182498102Y-88204774D01*
X182309744Y-88282795D01*
X182140226Y-88396063D01*
X181996063Y-88540226D01*
X181882795Y-88709744D01*
X181804774Y-88898102D01*
X181765000Y-89098061D01*
X161982957Y-89098061D01*
X161975812Y-89025518D01*
X161939502Y-88905820D01*
X161880537Y-88795506D01*
X161801185Y-88698815D01*
X161704494Y-88619463D01*
X161594180Y-88560498D01*
X161521620Y-88538487D01*
X161653475Y-88406632D01*
X161815990Y-88163411D01*
X161927932Y-87893158D01*
X161985000Y-87606260D01*
X161985000Y-87313740D01*
X161927932Y-87026842D01*
X161815990Y-86756589D01*
X161653475Y-86513368D01*
X161446632Y-86306525D01*
X161272240Y-86190000D01*
X161446632Y-86073475D01*
X161653475Y-85866632D01*
X161815990Y-85623411D01*
X161927932Y-85353158D01*
X161985000Y-85066260D01*
X161985000Y-84773740D01*
X161927932Y-84486842D01*
X161815990Y-84216589D01*
X161653475Y-83973368D01*
X161446632Y-83766525D01*
X161203411Y-83604010D01*
X160933158Y-83492068D01*
X160646260Y-83435000D01*
X160353740Y-83435000D01*
X160066842Y-83492068D01*
X159796589Y-83604010D01*
X159553368Y-83766525D01*
X159346525Y-83973368D01*
X159184010Y-84216589D01*
X159072068Y-84486842D01*
X159015000Y-84773740D01*
X159015000Y-85066260D01*
X159072068Y-85353158D01*
X159184010Y-85623411D01*
X159346525Y-85866632D01*
X159553368Y-86073475D01*
X159727760Y-86190000D01*
X159553368Y-86306525D01*
X159346525Y-86513368D01*
X159184010Y-86756589D01*
X159072068Y-87026842D01*
X159015000Y-87313740D01*
X159015000Y-87606260D01*
X159072068Y-87893158D01*
X159184010Y-88163411D01*
X159346525Y-88406632D01*
X159478380Y-88538487D01*
X159405820Y-88560498D01*
X159295506Y-88619463D01*
X159198815Y-88698815D01*
X159119463Y-88795506D01*
X159060498Y-88905820D01*
X159024188Y-89025518D01*
X159011928Y-89150000D01*
X149902285Y-89150000D01*
X149942205Y-89090256D01*
X150020226Y-88901898D01*
X150060000Y-88701939D01*
X150060000Y-88498061D01*
X150020226Y-88298102D01*
X149942205Y-88109744D01*
X149828937Y-87940226D01*
X149684774Y-87796063D01*
X149515256Y-87682795D01*
X149326898Y-87604774D01*
X149126939Y-87565000D01*
X148923061Y-87565000D01*
X148723102Y-87604774D01*
X148534744Y-87682795D01*
X148365226Y-87796063D01*
X148221063Y-87940226D01*
X148107795Y-88109744D01*
X148029774Y-88298102D01*
X147990000Y-88498061D01*
X102030151Y-88498061D01*
X102623007Y-86221169D01*
X102661998Y-86100000D01*
X131471928Y-86100000D01*
X131484188Y-86224482D01*
X131520498Y-86344180D01*
X131579463Y-86454494D01*
X131658815Y-86551185D01*
X131755506Y-86630537D01*
X131865820Y-86689502D01*
X131985518Y-86725812D01*
X132110000Y-86738072D01*
X132674250Y-86735000D01*
X132833000Y-86576250D01*
X132833000Y-85377000D01*
X131633750Y-85377000D01*
X131475000Y-85535750D01*
X131471928Y-86100000D01*
X102661998Y-86100000D01*
X103209047Y-84400000D01*
X131471928Y-84400000D01*
X131475000Y-84964250D01*
X131633750Y-85123000D01*
X132833000Y-85123000D01*
X132833000Y-83923750D01*
X133087000Y-83923750D01*
X133087000Y-85123000D01*
X133107000Y-85123000D01*
X133107000Y-85377000D01*
X133087000Y-85377000D01*
X133087000Y-86576250D01*
X133245750Y-86735000D01*
X133810000Y-86738072D01*
X133934482Y-86725812D01*
X134054180Y-86689502D01*
X134164494Y-86630537D01*
X134261185Y-86551185D01*
X134340537Y-86454494D01*
X134399502Y-86344180D01*
X134421513Y-86271620D01*
X134553368Y-86403475D01*
X134796589Y-86565990D01*
X135066842Y-86677932D01*
X135353740Y-86735000D01*
X135646260Y-86735000D01*
X135933158Y-86677932D01*
X136203411Y-86565990D01*
X136446632Y-86403475D01*
X136653475Y-86196632D01*
X136770000Y-86022240D01*
X136886525Y-86196632D01*
X137093368Y-86403475D01*
X137336589Y-86565990D01*
X137606842Y-86677932D01*
X137893740Y-86735000D01*
X138186260Y-86735000D01*
X138473158Y-86677932D01*
X138743411Y-86565990D01*
X138986632Y-86403475D01*
X139193475Y-86196632D01*
X139355990Y-85953411D01*
X139467932Y-85683158D01*
X139525000Y-85396260D01*
X139525000Y-85103740D01*
X139467932Y-84816842D01*
X139355990Y-84546589D01*
X139193475Y-84303368D01*
X138986632Y-84096525D01*
X138743411Y-83934010D01*
X138473158Y-83822068D01*
X138186260Y-83765000D01*
X137893740Y-83765000D01*
X137606842Y-83822068D01*
X137336589Y-83934010D01*
X137093368Y-84096525D01*
X136886525Y-84303368D01*
X136770000Y-84477760D01*
X136653475Y-84303368D01*
X136446632Y-84096525D01*
X136203411Y-83934010D01*
X135933158Y-83822068D01*
X135646260Y-83765000D01*
X135353740Y-83765000D01*
X135066842Y-83822068D01*
X134796589Y-83934010D01*
X134553368Y-84096525D01*
X134421513Y-84228380D01*
X134399502Y-84155820D01*
X134340537Y-84045506D01*
X134261185Y-83948815D01*
X134164494Y-83869463D01*
X134054180Y-83810498D01*
X133934482Y-83774188D01*
X133810000Y-83761928D01*
X133245750Y-83765000D01*
X133087000Y-83923750D01*
X132833000Y-83923750D01*
X132674250Y-83765000D01*
X132110000Y-83761928D01*
X131985518Y-83774188D01*
X131865820Y-83810498D01*
X131755506Y-83869463D01*
X131658815Y-83948815D01*
X131579463Y-84045506D01*
X131520498Y-84155820D01*
X131484188Y-84275518D01*
X131471928Y-84400000D01*
X103209047Y-84400000D01*
X103478427Y-83562883D01*
X104482869Y-80957249D01*
X105633116Y-78412615D01*
X106925484Y-75937131D01*
X107498103Y-74976964D01*
X122466263Y-74976964D01*
X122466263Y-75525562D01*
X122573289Y-76063617D01*
X122783228Y-76570455D01*
X123088013Y-77026597D01*
X123475929Y-77414513D01*
X123932071Y-77719298D01*
X124438909Y-77929237D01*
X124976964Y-78036263D01*
X125525562Y-78036263D01*
X126063617Y-77929237D01*
X126254912Y-77850000D01*
X144681928Y-77850000D01*
X144681928Y-79550000D01*
X144694188Y-79674482D01*
X144730498Y-79794180D01*
X144789463Y-79904494D01*
X144868815Y-80001185D01*
X144965506Y-80080537D01*
X145075820Y-80139502D01*
X145148380Y-80161513D01*
X145016525Y-80293368D01*
X144854010Y-80536589D01*
X144742068Y-80806842D01*
X144685000Y-81093740D01*
X144685000Y-81386260D01*
X144742068Y-81673158D01*
X144854010Y-81943411D01*
X145016525Y-82186632D01*
X145223368Y-82393475D01*
X145466589Y-82555990D01*
X145736842Y-82667932D01*
X146023740Y-82725000D01*
X146316260Y-82725000D01*
X146603158Y-82667932D01*
X146873411Y-82555990D01*
X147116632Y-82393475D01*
X147323475Y-82186632D01*
X147440000Y-82012240D01*
X147556525Y-82186632D01*
X147763368Y-82393475D01*
X148006589Y-82555990D01*
X148276842Y-82667932D01*
X148563740Y-82725000D01*
X148856260Y-82725000D01*
X149143158Y-82667932D01*
X149413411Y-82555990D01*
X149656632Y-82393475D01*
X149863475Y-82186632D01*
X149980000Y-82012240D01*
X150096525Y-82186632D01*
X150303368Y-82393475D01*
X150546589Y-82555990D01*
X150816842Y-82667932D01*
X151103740Y-82725000D01*
X151396260Y-82725000D01*
X151683158Y-82667932D01*
X151953411Y-82555990D01*
X152196632Y-82393475D01*
X152403475Y-82186632D01*
X152520000Y-82012240D01*
X152636525Y-82186632D01*
X152843368Y-82393475D01*
X153086589Y-82555990D01*
X153356842Y-82667932D01*
X153643740Y-82725000D01*
X153936260Y-82725000D01*
X154223158Y-82667932D01*
X154493411Y-82555990D01*
X154736632Y-82393475D01*
X154943475Y-82186632D01*
X155105990Y-81943411D01*
X155217932Y-81673158D01*
X155275000Y-81386260D01*
X155275000Y-81093740D01*
X155217932Y-80806842D01*
X155105990Y-80536589D01*
X154943475Y-80293368D01*
X154736632Y-80086525D01*
X154562240Y-79970000D01*
X154736632Y-79853475D01*
X154943475Y-79646632D01*
X155105990Y-79403411D01*
X155217932Y-79133158D01*
X155275000Y-78846260D01*
X155275000Y-78553740D01*
X155217932Y-78266842D01*
X155105990Y-77996589D01*
X154943475Y-77753368D01*
X154736632Y-77546525D01*
X154493411Y-77384010D01*
X154223158Y-77272068D01*
X153936260Y-77215000D01*
X153643740Y-77215000D01*
X153356842Y-77272068D01*
X153086589Y-77384010D01*
X152843368Y-77546525D01*
X152636525Y-77753368D01*
X152520000Y-77927760D01*
X152403475Y-77753368D01*
X152196632Y-77546525D01*
X151953411Y-77384010D01*
X151683158Y-77272068D01*
X151396260Y-77215000D01*
X151103740Y-77215000D01*
X150816842Y-77272068D01*
X150546589Y-77384010D01*
X150303368Y-77546525D01*
X150096525Y-77753368D01*
X149980000Y-77927760D01*
X149863475Y-77753368D01*
X149656632Y-77546525D01*
X149413411Y-77384010D01*
X149143158Y-77272068D01*
X148856260Y-77215000D01*
X148563740Y-77215000D01*
X148276842Y-77272068D01*
X148006589Y-77384010D01*
X147763368Y-77546525D01*
X147631513Y-77678380D01*
X147609502Y-77605820D01*
X147550537Y-77495506D01*
X147471185Y-77398815D01*
X147374494Y-77319463D01*
X147264180Y-77260498D01*
X147144482Y-77224188D01*
X147020000Y-77211928D01*
X145320000Y-77211928D01*
X145195518Y-77224188D01*
X145075820Y-77260498D01*
X144965506Y-77319463D01*
X144868815Y-77398815D01*
X144789463Y-77495506D01*
X144730498Y-77605820D01*
X144694188Y-77725518D01*
X144681928Y-77850000D01*
X126254912Y-77850000D01*
X126570455Y-77719298D01*
X127026597Y-77414513D01*
X127414513Y-77026597D01*
X127719298Y-76570455D01*
X127873548Y-76198061D01*
X151365000Y-76198061D01*
X151365000Y-76401939D01*
X151404774Y-76601898D01*
X151482795Y-76790256D01*
X151596063Y-76959774D01*
X151740226Y-77103937D01*
X151909744Y-77217205D01*
X152098102Y-77295226D01*
X152298061Y-77335000D01*
X152501939Y-77335000D01*
X152701898Y-77295226D01*
X152890256Y-77217205D01*
X153059774Y-77103937D01*
X153203937Y-76959774D01*
X153317205Y-76790256D01*
X153395226Y-76601898D01*
X153435000Y-76401939D01*
X153435000Y-76198061D01*
X153425441Y-76150000D01*
X159011928Y-76150000D01*
X159011928Y-77850000D01*
X159024188Y-77974482D01*
X159060498Y-78094180D01*
X159119463Y-78204494D01*
X159198815Y-78301185D01*
X159295506Y-78380537D01*
X159405820Y-78439502D01*
X159525518Y-78475812D01*
X159650000Y-78488072D01*
X161350000Y-78488072D01*
X161474482Y-78475812D01*
X161594180Y-78439502D01*
X161704494Y-78380537D01*
X161801185Y-78301185D01*
X161880537Y-78204494D01*
X161939502Y-78094180D01*
X161975812Y-77974482D01*
X161988072Y-77850000D01*
X161988072Y-76150000D01*
X161975812Y-76025518D01*
X161939502Y-75905820D01*
X161880537Y-75795506D01*
X161801185Y-75698815D01*
X161704494Y-75619463D01*
X161594180Y-75560498D01*
X161521620Y-75538487D01*
X161653475Y-75406632D01*
X161815990Y-75163411D01*
X161893218Y-74976964D01*
X171963737Y-74976964D01*
X171963737Y-75525562D01*
X172070763Y-76063617D01*
X172280702Y-76570455D01*
X172585487Y-77026597D01*
X172973403Y-77414513D01*
X173429545Y-77719298D01*
X173936383Y-77929237D01*
X174474438Y-78036263D01*
X175023036Y-78036263D01*
X175561091Y-77929237D01*
X176067929Y-77719298D01*
X176524071Y-77414513D01*
X176911987Y-77026597D01*
X177216772Y-76570455D01*
X177426711Y-76063617D01*
X177533737Y-75525562D01*
X177533737Y-74976964D01*
X177426711Y-74438909D01*
X177216772Y-73932071D01*
X176911987Y-73475929D01*
X176524071Y-73088013D01*
X176067929Y-72783228D01*
X175561091Y-72573289D01*
X175023036Y-72466263D01*
X174474438Y-72466263D01*
X173936383Y-72573289D01*
X173429545Y-72783228D01*
X172973403Y-73088013D01*
X172585487Y-73475929D01*
X172280702Y-73932071D01*
X172070763Y-74438909D01*
X171963737Y-74976964D01*
X161893218Y-74976964D01*
X161927932Y-74893158D01*
X161985000Y-74606260D01*
X161985000Y-74313740D01*
X161927932Y-74026842D01*
X161815990Y-73756589D01*
X161653475Y-73513368D01*
X161446632Y-73306525D01*
X161264466Y-73184805D01*
X161381355Y-73115178D01*
X161597588Y-72920269D01*
X161771641Y-72686920D01*
X161896825Y-72424099D01*
X161941476Y-72276890D01*
X161820155Y-72047000D01*
X160627000Y-72047000D01*
X160627000Y-72067000D01*
X160373000Y-72067000D01*
X160373000Y-72047000D01*
X159179845Y-72047000D01*
X159058524Y-72276890D01*
X159103175Y-72424099D01*
X159228359Y-72686920D01*
X159402412Y-72920269D01*
X159618645Y-73115178D01*
X159735534Y-73184805D01*
X159553368Y-73306525D01*
X159346525Y-73513368D01*
X159184010Y-73756589D01*
X159072068Y-74026842D01*
X159015000Y-74313740D01*
X159015000Y-74606260D01*
X159072068Y-74893158D01*
X159184010Y-75163411D01*
X159346525Y-75406632D01*
X159478380Y-75538487D01*
X159405820Y-75560498D01*
X159295506Y-75619463D01*
X159198815Y-75698815D01*
X159119463Y-75795506D01*
X159060498Y-75905820D01*
X159024188Y-76025518D01*
X159011928Y-76150000D01*
X153425441Y-76150000D01*
X153402542Y-76034881D01*
X153601900Y-75995226D01*
X153790258Y-75917205D01*
X153959776Y-75803937D01*
X154103939Y-75659774D01*
X154217207Y-75490256D01*
X154295228Y-75301898D01*
X154335002Y-75101939D01*
X154335002Y-74898061D01*
X154295228Y-74698102D01*
X154217207Y-74509744D01*
X154103939Y-74340226D01*
X153959776Y-74196063D01*
X153790258Y-74082795D01*
X153601900Y-74004774D01*
X153401941Y-73965000D01*
X153198063Y-73965000D01*
X152998104Y-74004774D01*
X152809746Y-74082795D01*
X152640228Y-74196063D01*
X152496065Y-74340226D01*
X152382797Y-74509744D01*
X152304776Y-74698102D01*
X152265002Y-74898061D01*
X152265002Y-75101939D01*
X152297460Y-75265119D01*
X152098102Y-75304774D01*
X151909744Y-75382795D01*
X151740226Y-75496063D01*
X151596063Y-75640226D01*
X151482795Y-75809744D01*
X151404774Y-75998102D01*
X151365000Y-76198061D01*
X127873548Y-76198061D01*
X127929237Y-76063617D01*
X128036263Y-75525562D01*
X128036263Y-74976964D01*
X127929237Y-74438909D01*
X127719298Y-73932071D01*
X127414513Y-73475929D01*
X127026597Y-73088013D01*
X126570455Y-72783228D01*
X126063617Y-72573289D01*
X125525562Y-72466263D01*
X124976964Y-72466263D01*
X124438909Y-72573289D01*
X123932071Y-72783228D01*
X123475929Y-73088013D01*
X123088013Y-73475929D01*
X122783228Y-73932071D01*
X122573289Y-74438909D01*
X122466263Y-74976964D01*
X107498103Y-74976964D01*
X108355832Y-73538729D01*
X109919579Y-71225090D01*
X111611716Y-69003625D01*
X111915831Y-68648061D01*
X149715000Y-68648061D01*
X149715000Y-68851939D01*
X149754774Y-69051898D01*
X149832795Y-69240256D01*
X149946063Y-69409774D01*
X150090226Y-69553937D01*
X150259744Y-69667205D01*
X150448102Y-69745226D01*
X150648061Y-69785000D01*
X150851939Y-69785000D01*
X151051898Y-69745226D01*
X151240256Y-69667205D01*
X151409774Y-69553937D01*
X151553937Y-69409774D01*
X151667205Y-69240256D01*
X151745226Y-69051898D01*
X151785000Y-68851939D01*
X151785000Y-68648061D01*
X151745226Y-68448102D01*
X151724499Y-68398061D01*
X155465000Y-68398061D01*
X155465000Y-68601939D01*
X155504774Y-68801898D01*
X155582795Y-68990256D01*
X155696063Y-69159774D01*
X155840226Y-69303937D01*
X156009744Y-69417205D01*
X156198102Y-69495226D01*
X156398061Y-69535000D01*
X156601939Y-69535000D01*
X156801898Y-69495226D01*
X156990256Y-69417205D01*
X157159774Y-69303937D01*
X157303937Y-69159774D01*
X157417205Y-68990256D01*
X157495226Y-68801898D01*
X157535000Y-68601939D01*
X157535000Y-68398061D01*
X157495226Y-68198102D01*
X157417205Y-68009744D01*
X157303937Y-67840226D01*
X157159774Y-67696063D01*
X157013104Y-67598061D01*
X157465000Y-67598061D01*
X157465000Y-67801939D01*
X157504774Y-68001898D01*
X157582795Y-68190256D01*
X157696063Y-68359774D01*
X157840226Y-68503937D01*
X158009744Y-68617205D01*
X158198102Y-68695226D01*
X158398061Y-68735000D01*
X158601939Y-68735000D01*
X158801898Y-68695226D01*
X158990256Y-68617205D01*
X159159774Y-68503937D01*
X159303937Y-68359774D01*
X159417205Y-68190256D01*
X159495226Y-68001898D01*
X159506270Y-67946377D01*
X159553368Y-67993475D01*
X159727760Y-68110000D01*
X159553368Y-68226525D01*
X159346525Y-68433368D01*
X159184010Y-68676589D01*
X159072068Y-68946842D01*
X159015000Y-69233740D01*
X159015000Y-69526260D01*
X159072068Y-69813158D01*
X159184010Y-70083411D01*
X159346525Y-70326632D01*
X159553368Y-70533475D01*
X159735534Y-70655195D01*
X159618645Y-70724822D01*
X159402412Y-70919731D01*
X159228359Y-71153080D01*
X159103175Y-71415901D01*
X159058524Y-71563110D01*
X159179845Y-71793000D01*
X160373000Y-71793000D01*
X160373000Y-71773000D01*
X160627000Y-71773000D01*
X160627000Y-71793000D01*
X161820155Y-71793000D01*
X161941476Y-71563110D01*
X161896825Y-71415901D01*
X161771641Y-71153080D01*
X161597588Y-70919731D01*
X161381355Y-70724822D01*
X161264466Y-70655195D01*
X161446632Y-70533475D01*
X161653475Y-70326632D01*
X161815990Y-70083411D01*
X161927932Y-69813158D01*
X161985000Y-69526260D01*
X161985000Y-69233740D01*
X161927932Y-68946842D01*
X161815990Y-68676589D01*
X161653475Y-68433368D01*
X161446632Y-68226525D01*
X161272240Y-68110000D01*
X161446632Y-67993475D01*
X161653475Y-67786632D01*
X161815990Y-67543411D01*
X161927932Y-67273158D01*
X161985000Y-66986260D01*
X161985000Y-66693740D01*
X161927932Y-66406842D01*
X161815990Y-66136589D01*
X161653475Y-65893368D01*
X161446632Y-65686525D01*
X161272240Y-65570000D01*
X161446632Y-65453475D01*
X161653475Y-65246632D01*
X161815990Y-65003411D01*
X161927932Y-64733158D01*
X161985000Y-64446260D01*
X161985000Y-64153740D01*
X161927932Y-63866842D01*
X161815990Y-63596589D01*
X161653475Y-63353368D01*
X161446632Y-63146525D01*
X161203411Y-62984010D01*
X160933158Y-62872068D01*
X160646260Y-62815000D01*
X160353740Y-62815000D01*
X160066842Y-62872068D01*
X159796589Y-62984010D01*
X159553368Y-63146525D01*
X159346525Y-63353368D01*
X159184010Y-63596589D01*
X159072068Y-63866842D01*
X159015000Y-64153740D01*
X159015000Y-64446260D01*
X159072068Y-64733158D01*
X159184010Y-65003411D01*
X159346525Y-65246632D01*
X159553368Y-65453475D01*
X159727760Y-65570000D01*
X159553368Y-65686525D01*
X159346525Y-65893368D01*
X159184010Y-66136589D01*
X159072068Y-66406842D01*
X159015000Y-66693740D01*
X159015000Y-66799328D01*
X158990256Y-66782795D01*
X158801898Y-66704774D01*
X158601939Y-66665000D01*
X158398061Y-66665000D01*
X158198102Y-66704774D01*
X158009744Y-66782795D01*
X157840226Y-66896063D01*
X157696063Y-67040226D01*
X157582795Y-67209744D01*
X157504774Y-67398102D01*
X157465000Y-67598061D01*
X157013104Y-67598061D01*
X156990256Y-67582795D01*
X156801898Y-67504774D01*
X156601939Y-67465000D01*
X156398061Y-67465000D01*
X156198102Y-67504774D01*
X156009744Y-67582795D01*
X155840226Y-67696063D01*
X155696063Y-67840226D01*
X155582795Y-68009744D01*
X155504774Y-68198102D01*
X155465000Y-68398061D01*
X151724499Y-68398061D01*
X151667205Y-68259744D01*
X151553937Y-68090226D01*
X151409774Y-67946063D01*
X151240256Y-67832795D01*
X151051898Y-67754774D01*
X150851939Y-67715000D01*
X150648061Y-67715000D01*
X150448102Y-67754774D01*
X150259744Y-67832795D01*
X150090226Y-67946063D01*
X149946063Y-68090226D01*
X149832795Y-68259744D01*
X149754774Y-68448102D01*
X149715000Y-68648061D01*
X111915831Y-68648061D01*
X113426822Y-66881452D01*
X115152970Y-65080421D01*
X146231984Y-65080421D01*
X146270500Y-65310646D01*
X146353192Y-65528934D01*
X146387522Y-65593159D01*
X146440398Y-65603133D01*
X146369866Y-65708692D01*
X146280539Y-65924348D01*
X146235000Y-66153288D01*
X146235000Y-66386712D01*
X146280539Y-66615652D01*
X146369866Y-66831308D01*
X146499550Y-67025394D01*
X146664606Y-67190450D01*
X146858692Y-67320134D01*
X147074348Y-67409461D01*
X147303288Y-67455000D01*
X147536712Y-67455000D01*
X147765652Y-67409461D01*
X147981308Y-67320134D01*
X148055000Y-67270895D01*
X148128692Y-67320134D01*
X148344348Y-67409461D01*
X148573288Y-67455000D01*
X148806712Y-67455000D01*
X149035652Y-67409461D01*
X149251308Y-67320134D01*
X149325000Y-67270895D01*
X149398692Y-67320134D01*
X149614348Y-67409461D01*
X149843288Y-67455000D01*
X150076712Y-67455000D01*
X150305652Y-67409461D01*
X150521308Y-67320134D01*
X150595000Y-67270895D01*
X150668692Y-67320134D01*
X150884348Y-67409461D01*
X151113288Y-67455000D01*
X151346712Y-67455000D01*
X151575652Y-67409461D01*
X151791308Y-67320134D01*
X151865000Y-67270895D01*
X151938692Y-67320134D01*
X152154348Y-67409461D01*
X152383288Y-67455000D01*
X152616712Y-67455000D01*
X152845652Y-67409461D01*
X153061308Y-67320134D01*
X153255394Y-67190450D01*
X153420450Y-67025394D01*
X153550134Y-66831308D01*
X153639461Y-66615652D01*
X153685000Y-66386712D01*
X153685000Y-66153288D01*
X153639461Y-65924348D01*
X153550134Y-65708692D01*
X153500895Y-65635000D01*
X153550134Y-65561308D01*
X153639461Y-65345652D01*
X153685000Y-65116712D01*
X153685000Y-64883288D01*
X153639461Y-64654348D01*
X153550134Y-64438692D01*
X153420450Y-64244606D01*
X153255394Y-64079550D01*
X153061308Y-63949866D01*
X152845652Y-63860539D01*
X152616712Y-63815000D01*
X152383288Y-63815000D01*
X152154348Y-63860539D01*
X151938692Y-63949866D01*
X151833133Y-64020398D01*
X151823159Y-63967522D01*
X151610335Y-63871641D01*
X151382895Y-63819122D01*
X151149579Y-63811984D01*
X150919354Y-63850500D01*
X150701066Y-63933192D01*
X150636841Y-63967522D01*
X150595918Y-64184474D01*
X150595000Y-64185392D01*
X150594082Y-64184474D01*
X150553159Y-63967522D01*
X150340335Y-63871641D01*
X150112895Y-63819122D01*
X149879579Y-63811984D01*
X149649354Y-63850500D01*
X149431066Y-63933192D01*
X149366841Y-63967522D01*
X149356867Y-64020398D01*
X149251308Y-63949866D01*
X149035652Y-63860539D01*
X148806712Y-63815000D01*
X148573288Y-63815000D01*
X148344348Y-63860539D01*
X148128692Y-63949866D01*
X148023133Y-64020398D01*
X148013159Y-63967522D01*
X147800335Y-63871641D01*
X147572895Y-63819122D01*
X147339579Y-63811984D01*
X147109354Y-63850500D01*
X146891066Y-63933192D01*
X146826841Y-63967522D01*
X146785626Y-64186021D01*
X147420000Y-64820395D01*
X147434143Y-64806253D01*
X147506025Y-64878135D01*
X147505000Y-64883288D01*
X147505000Y-65085000D01*
X147303288Y-65085000D01*
X147298135Y-65086025D01*
X147226253Y-65014143D01*
X147240395Y-65000000D01*
X146606021Y-64365626D01*
X146387522Y-64406841D01*
X146291641Y-64619665D01*
X146239122Y-64847105D01*
X146231984Y-65080421D01*
X115152970Y-65080421D01*
X115359083Y-64865367D01*
X117402309Y-62961828D01*
X119549956Y-61176935D01*
X121795143Y-59516403D01*
X124130679Y-57985552D01*
X126549082Y-56589287D01*
X129042605Y-55332079D01*
X131603261Y-54217955D01*
X134222848Y-53250486D01*
X136892974Y-52432769D01*
X139605085Y-51767425D01*
X142350494Y-51256583D01*
X145120407Y-50901882D01*
X147905951Y-50704457D01*
X150698203Y-50664940D01*
X153488218Y-50783459D01*
G36*
X151316025Y-64878135D02*
G01*
X151315000Y-64883288D01*
X151315000Y-65085000D01*
X151142955Y-65085000D01*
X151148016Y-64919579D01*
X151141497Y-64880613D01*
X151215858Y-64806253D01*
X151230000Y-64820395D01*
X151244143Y-64806253D01*
X151316025Y-64878135D01*
G37*
X151316025Y-64878135D02*
X151315000Y-64883288D01*
X151315000Y-65085000D01*
X151142955Y-65085000D01*
X151148016Y-64919579D01*
X151141497Y-64880613D01*
X151215858Y-64806253D01*
X151230000Y-64820395D01*
X151244143Y-64806253D01*
X151316025Y-64878135D01*
G36*
X150048109Y-64880219D02*
G01*
X150041984Y-65080421D01*
X150042750Y-65085000D01*
X149875000Y-65085000D01*
X149875000Y-64883288D01*
X149873975Y-64878135D01*
X149945858Y-64806253D01*
X149960000Y-64820395D01*
X149974143Y-64806253D01*
X150048109Y-64880219D01*
G37*
X150048109Y-64880219D02*
X150041984Y-65080421D01*
X150042750Y-65085000D01*
X149875000Y-65085000D01*
X149875000Y-64883288D01*
X149873975Y-64878135D01*
X149945858Y-64806253D01*
X149960000Y-64820395D01*
X149974143Y-64806253D01*
X150048109Y-64880219D01*
M02*
