G04 #@! TF.GenerationSoftware,KiCad,Pcbnew,(5.1.5-0-10_14)*
G04 #@! TF.CreationDate,2020-09-03T18:46:33+03:00*
G04 #@! TF.ProjectId,main,6d61696e-2e6b-4696-9361-645f70636258,rev?*
G04 #@! TF.SameCoordinates,Original*
G04 #@! TF.FileFunction,Soldermask,Bot*
G04 #@! TF.FilePolarity,Negative*
%FSLAX46Y46*%
G04 Gerber Fmt 4.6, Leading zero omitted, Abs format (unit mm)*
G04 Created by KiCad (PCBNEW (5.1.5-0-10_14)) date 2020-09-03 18:46:33*
%MOMM*%
%LPD*%
G04 APERTURE LIST*
%ADD10C,0.100000*%
G04 APERTURE END LIST*
D10*
G36*
X152099810Y-148716000D02*
G01*
X150497810Y-148716000D01*
X150497810Y-147614000D01*
X152099810Y-147614000D01*
X152099810Y-148716000D01*
G37*
G36*
X147199810Y-148716000D02*
G01*
X145597810Y-148716000D01*
X145597810Y-147614000D01*
X147199810Y-147614000D01*
X147199810Y-148716000D01*
G37*
G36*
X156553768Y-148207018D02*
G01*
X154982823Y-148520924D01*
X154766890Y-147440286D01*
X156337835Y-147126380D01*
X156553768Y-148207018D01*
G37*
G36*
X143007741Y-147255008D02*
G01*
X142793694Y-148336022D01*
X141222203Y-148024858D01*
X141436250Y-146943844D01*
X143007741Y-147255008D01*
G37*
G36*
X161358780Y-147246881D02*
G01*
X159787835Y-147560787D01*
X159571902Y-146480149D01*
X161142847Y-146166243D01*
X161358780Y-147246881D01*
G37*
G36*
X138201061Y-146303260D02*
G01*
X137987014Y-147384274D01*
X136415523Y-147073110D01*
X136629570Y-145992096D01*
X138201061Y-146303260D01*
G37*
G36*
X165862587Y-145888741D02*
G01*
X164382532Y-146501800D01*
X163960815Y-145483685D01*
X165440870Y-144870626D01*
X165862587Y-145888741D01*
G37*
G36*
X134155216Y-145108940D02*
G01*
X133733499Y-146127055D01*
X132253444Y-145513996D01*
X132675161Y-144495881D01*
X134155216Y-145108940D01*
G37*
G36*
X152099810Y-145516000D02*
G01*
X150497810Y-145516000D01*
X150497810Y-144414000D01*
X152099810Y-144414000D01*
X152099810Y-145516000D01*
G37*
G36*
X147199810Y-145516000D02*
G01*
X145597810Y-145516000D01*
X145597810Y-144414000D01*
X147199810Y-144414000D01*
X147199810Y-145516000D01*
G37*
G36*
X155926740Y-145069051D02*
G01*
X154355795Y-145382957D01*
X154139862Y-144302319D01*
X155710807Y-143988413D01*
X155926740Y-145069051D01*
G37*
G36*
X143629291Y-144115952D02*
G01*
X143415244Y-145196966D01*
X141843753Y-144885802D01*
X142057800Y-143804788D01*
X143629291Y-144115952D01*
G37*
G36*
X170389596Y-144013592D02*
G01*
X168909541Y-144626651D01*
X168487824Y-143608536D01*
X169967879Y-142995477D01*
X170389596Y-144013592D01*
G37*
G36*
X160731752Y-144108914D02*
G01*
X159160807Y-144422820D01*
X158944874Y-143342182D01*
X160515819Y-143028276D01*
X160731752Y-144108914D01*
G37*
G36*
X129628207Y-143233791D02*
G01*
X129206490Y-144251906D01*
X127726435Y-143638847D01*
X128148152Y-142620732D01*
X129628207Y-143233791D01*
G37*
G36*
X138822611Y-143164204D02*
G01*
X138608564Y-144245218D01*
X137037073Y-143934054D01*
X137251120Y-142853040D01*
X138822611Y-143164204D01*
G37*
G36*
X164638000Y-142932326D02*
G01*
X163157945Y-143545385D01*
X162736228Y-142527270D01*
X164216283Y-141914211D01*
X164638000Y-142932326D01*
G37*
G36*
X135379803Y-142152525D02*
G01*
X134958086Y-143170640D01*
X133478031Y-142557581D01*
X133899748Y-141539466D01*
X135379803Y-142152525D01*
G37*
G36*
X150455901Y-141923085D02*
G01*
X150489879Y-141933393D01*
X150521200Y-141950134D01*
X150548649Y-141972661D01*
X150571176Y-142000110D01*
X150587917Y-142031431D01*
X150598225Y-142065409D01*
X150602310Y-142106890D01*
X150602310Y-142783110D01*
X150598225Y-142824591D01*
X150587917Y-142858569D01*
X150571176Y-142889890D01*
X150548649Y-142917339D01*
X150521200Y-142939866D01*
X150489879Y-142956607D01*
X150455901Y-142966915D01*
X150414420Y-142971000D01*
X149813200Y-142971000D01*
X149771719Y-142966915D01*
X149737741Y-142956607D01*
X149706420Y-142939866D01*
X149678971Y-142917339D01*
X149656444Y-142889890D01*
X149639703Y-142858569D01*
X149629395Y-142824591D01*
X149625310Y-142783110D01*
X149625310Y-142106890D01*
X149629395Y-142065409D01*
X149639703Y-142031431D01*
X149656444Y-142000110D01*
X149678971Y-141972661D01*
X149706420Y-141950134D01*
X149737741Y-141933393D01*
X149771719Y-141923085D01*
X149813200Y-141919000D01*
X150414420Y-141919000D01*
X150455901Y-141923085D01*
G37*
G36*
X152030901Y-141923085D02*
G01*
X152064879Y-141933393D01*
X152096200Y-141950134D01*
X152123649Y-141972661D01*
X152146176Y-142000110D01*
X152162917Y-142031431D01*
X152173225Y-142065409D01*
X152177310Y-142106890D01*
X152177310Y-142783110D01*
X152173225Y-142824591D01*
X152162917Y-142858569D01*
X152146176Y-142889890D01*
X152123649Y-142917339D01*
X152096200Y-142939866D01*
X152064879Y-142956607D01*
X152030901Y-142966915D01*
X151989420Y-142971000D01*
X151388200Y-142971000D01*
X151346719Y-142966915D01*
X151312741Y-142956607D01*
X151281420Y-142939866D01*
X151253971Y-142917339D01*
X151231444Y-142889890D01*
X151214703Y-142858569D01*
X151204395Y-142824591D01*
X151200310Y-142783110D01*
X151200310Y-142106890D01*
X151204395Y-142065409D01*
X151214703Y-142031431D01*
X151231444Y-142000110D01*
X151253971Y-141972661D01*
X151281420Y-141950134D01*
X151312741Y-141933393D01*
X151346719Y-141923085D01*
X151388200Y-141919000D01*
X151989420Y-141919000D01*
X152030901Y-141923085D01*
G37*
G36*
X174268535Y-141819353D02*
G01*
X174268534Y-141819354D01*
X173967419Y-142020933D01*
X172937297Y-142710540D01*
X172324259Y-141794795D01*
X172347447Y-141779272D01*
X172693268Y-141547765D01*
X173655497Y-140903608D01*
X174268535Y-141819353D01*
G37*
G36*
X143517640Y-141428076D02*
G01*
X144107398Y-141544852D01*
X144147296Y-141556917D01*
X144178632Y-141573631D01*
X144206098Y-141596132D01*
X144228652Y-141623565D01*
X144245419Y-141654868D01*
X144255758Y-141688842D01*
X144259268Y-141724172D01*
X144255218Y-141765667D01*
X144123876Y-142428993D01*
X144111809Y-142468897D01*
X144095096Y-142500231D01*
X144072598Y-142527694D01*
X144045162Y-142550250D01*
X144013859Y-142567017D01*
X143979885Y-142577356D01*
X143944555Y-142580866D01*
X143903060Y-142576816D01*
X143313302Y-142460040D01*
X143273404Y-142447975D01*
X143242068Y-142431261D01*
X143214602Y-142408760D01*
X143192048Y-142381327D01*
X143175281Y-142350024D01*
X143164942Y-142316050D01*
X143161432Y-142280720D01*
X143165482Y-142239225D01*
X143296824Y-141575899D01*
X143308891Y-141535995D01*
X143325604Y-141504661D01*
X143348102Y-141477198D01*
X143375538Y-141454642D01*
X143406841Y-141437875D01*
X143440815Y-141427536D01*
X143476145Y-141424026D01*
X143517640Y-141428076D01*
G37*
G36*
X141972636Y-141122156D02*
G01*
X142562394Y-141238932D01*
X142602292Y-141250997D01*
X142633628Y-141267711D01*
X142661094Y-141290212D01*
X142683648Y-141317645D01*
X142700415Y-141348948D01*
X142710754Y-141382922D01*
X142714264Y-141418252D01*
X142710214Y-141459747D01*
X142578872Y-142123073D01*
X142566805Y-142162977D01*
X142550092Y-142194311D01*
X142527594Y-142221774D01*
X142500158Y-142244330D01*
X142468855Y-142261097D01*
X142434881Y-142271436D01*
X142399551Y-142274946D01*
X142358056Y-142270896D01*
X141768298Y-142154120D01*
X141728400Y-142142055D01*
X141697064Y-142125341D01*
X141669598Y-142102840D01*
X141647044Y-142075407D01*
X141630277Y-142044104D01*
X141619938Y-142010130D01*
X141616428Y-141974800D01*
X141620478Y-141933305D01*
X141751820Y-141269979D01*
X141763887Y-141230075D01*
X141780600Y-141198741D01*
X141803098Y-141171278D01*
X141830534Y-141148722D01*
X141861837Y-141131955D01*
X141895811Y-141121616D01*
X141931141Y-141118106D01*
X141972636Y-141122156D01*
G37*
G36*
X158396099Y-141044567D02*
G01*
X158430090Y-141054846D01*
X158461424Y-141071559D01*
X158488887Y-141094057D01*
X158511443Y-141121493D01*
X158528210Y-141152796D01*
X158540344Y-141192672D01*
X158672848Y-141855786D01*
X158676968Y-141897253D01*
X158673518Y-141932600D01*
X158663239Y-141966591D01*
X158646526Y-141997925D01*
X158624028Y-142025388D01*
X158596592Y-142047944D01*
X158565289Y-142064711D01*
X158525413Y-142076845D01*
X157935845Y-142194653D01*
X157894378Y-142198773D01*
X157859031Y-142195323D01*
X157825040Y-142185044D01*
X157793706Y-142168331D01*
X157766243Y-142145833D01*
X157743687Y-142118397D01*
X157726920Y-142087094D01*
X157714786Y-142047218D01*
X157582282Y-141384104D01*
X157578162Y-141342637D01*
X157581612Y-141307290D01*
X157591891Y-141273299D01*
X157608604Y-141241965D01*
X157631102Y-141214502D01*
X157658538Y-141191946D01*
X157689841Y-141175179D01*
X157729717Y-141163045D01*
X158319285Y-141045237D01*
X158360752Y-141041117D01*
X158396099Y-141044567D01*
G37*
G36*
X125652580Y-141272979D02*
G01*
X125652580Y-141272980D01*
X125418489Y-141623984D01*
X125041141Y-142189794D01*
X123708350Y-141300933D01*
X123708350Y-141300932D01*
X124067144Y-140762943D01*
X124319789Y-140384118D01*
X125652580Y-141272979D01*
G37*
G36*
X159940567Y-140735951D02*
G01*
X159974558Y-140746230D01*
X160005892Y-140762943D01*
X160033355Y-140785441D01*
X160055911Y-140812877D01*
X160072678Y-140844180D01*
X160084812Y-140884056D01*
X160217316Y-141547170D01*
X160221436Y-141588637D01*
X160217986Y-141623984D01*
X160207707Y-141657975D01*
X160190994Y-141689309D01*
X160168496Y-141716772D01*
X160141060Y-141739328D01*
X160109757Y-141756095D01*
X160069881Y-141768229D01*
X159480313Y-141886037D01*
X159438846Y-141890157D01*
X159403499Y-141886707D01*
X159369508Y-141876428D01*
X159338174Y-141859715D01*
X159310711Y-141837217D01*
X159288155Y-141809781D01*
X159271388Y-141778478D01*
X159259254Y-141738602D01*
X159126750Y-141075488D01*
X159122630Y-141034021D01*
X159126080Y-140998674D01*
X159136359Y-140964683D01*
X159153072Y-140933349D01*
X159175570Y-140905886D01*
X159203006Y-140883330D01*
X159234309Y-140866563D01*
X159274185Y-140854429D01*
X159863753Y-140736621D01*
X159905220Y-140732501D01*
X159940567Y-140735951D01*
G37*
G36*
X169165009Y-141057177D02*
G01*
X167684954Y-141670236D01*
X167263237Y-140652121D01*
X168743292Y-140039062D01*
X169165009Y-141057177D01*
G37*
G36*
X130852794Y-140277376D02*
G01*
X130431077Y-141295491D01*
X128951022Y-140682432D01*
X129372739Y-139664317D01*
X130852794Y-140277376D01*
G37*
G36*
X135489271Y-139783142D02*
G01*
X135529153Y-139795241D01*
X135685898Y-139860167D01*
X136032540Y-140003750D01*
X136032549Y-140003755D01*
X136084607Y-140025318D01*
X136121370Y-140044968D01*
X136148820Y-140067495D01*
X136171346Y-140094945D01*
X136188087Y-140126265D01*
X136198395Y-140160244D01*
X136201875Y-140195584D01*
X136198395Y-140230925D01*
X136186296Y-140270807D01*
X136164729Y-140322873D01*
X136164728Y-140322878D01*
X135949086Y-140843484D01*
X135949083Y-140843490D01*
X135927518Y-140895552D01*
X135907868Y-140932315D01*
X135885341Y-140959764D01*
X135857889Y-140982293D01*
X135826573Y-140999032D01*
X135792593Y-141009340D01*
X135757252Y-141012820D01*
X135721911Y-141009340D01*
X135682029Y-140997241D01*
X135461479Y-140905886D01*
X135178642Y-140788732D01*
X135178633Y-140788727D01*
X135126575Y-140767164D01*
X135089812Y-140747514D01*
X135062362Y-140724987D01*
X135039836Y-140697537D01*
X135023095Y-140666217D01*
X135012787Y-140632238D01*
X135009307Y-140596898D01*
X135012787Y-140561557D01*
X135024886Y-140521675D01*
X135046453Y-140469609D01*
X135046454Y-140469604D01*
X135262096Y-139948998D01*
X135262099Y-139948992D01*
X135283664Y-139896930D01*
X135303314Y-139860167D01*
X135325841Y-139832718D01*
X135353293Y-139810189D01*
X135384609Y-139793450D01*
X135418589Y-139783142D01*
X135453930Y-139779662D01*
X135489271Y-139783142D01*
G37*
G36*
X134034161Y-139180416D02*
G01*
X134074043Y-139192515D01*
X134230788Y-139257441D01*
X134577430Y-139401024D01*
X134577439Y-139401029D01*
X134629497Y-139422592D01*
X134666260Y-139442242D01*
X134693710Y-139464769D01*
X134716236Y-139492219D01*
X134732977Y-139523539D01*
X134743285Y-139557518D01*
X134746765Y-139592858D01*
X134743285Y-139628199D01*
X134731186Y-139668081D01*
X134709619Y-139720147D01*
X134709618Y-139720152D01*
X134493976Y-140240758D01*
X134493973Y-140240764D01*
X134472408Y-140292826D01*
X134452758Y-140329589D01*
X134430231Y-140357038D01*
X134402779Y-140379567D01*
X134371463Y-140396306D01*
X134337483Y-140406614D01*
X134302142Y-140410094D01*
X134266801Y-140406614D01*
X134226919Y-140394515D01*
X133981420Y-140292826D01*
X133723532Y-140186006D01*
X133723523Y-140186001D01*
X133671465Y-140164438D01*
X133634702Y-140144788D01*
X133607252Y-140122261D01*
X133584726Y-140094811D01*
X133567985Y-140063491D01*
X133557677Y-140029512D01*
X133554197Y-139994172D01*
X133557677Y-139958831D01*
X133569776Y-139918949D01*
X133591343Y-139866883D01*
X133591344Y-139866878D01*
X133806986Y-139346272D01*
X133806989Y-139346266D01*
X133828554Y-139294204D01*
X133848204Y-139257441D01*
X133870731Y-139229992D01*
X133898183Y-139207463D01*
X133929499Y-139190724D01*
X133963479Y-139180416D01*
X133998820Y-139176936D01*
X134034161Y-139180416D01*
G37*
G36*
X172488389Y-139160203D02*
G01*
X172488388Y-139160204D01*
X172273522Y-139304044D01*
X171157151Y-140051390D01*
X170544113Y-139135645D01*
X170567497Y-139119991D01*
X170905990Y-138893389D01*
X171875351Y-138244458D01*
X172488389Y-139160203D01*
G37*
G36*
X178340359Y-139093505D02*
G01*
X178340358Y-139093506D01*
X178099388Y-139254821D01*
X177009121Y-139984692D01*
X176396083Y-139068947D01*
X176483831Y-139010205D01*
X176796873Y-138800641D01*
X177727321Y-138177760D01*
X178340359Y-139093505D01*
G37*
G36*
X166347037Y-138516288D02*
G01*
X166381016Y-138526596D01*
X166412336Y-138543337D01*
X166439786Y-138565863D01*
X166462313Y-138593313D01*
X166481963Y-138630076D01*
X166503528Y-138682138D01*
X166503531Y-138682144D01*
X166719173Y-139202750D01*
X166719174Y-139202755D01*
X166740741Y-139254821D01*
X166752840Y-139294703D01*
X166756320Y-139330044D01*
X166752840Y-139365385D01*
X166742532Y-139399365D01*
X166725793Y-139430681D01*
X166703264Y-139458133D01*
X166675815Y-139480660D01*
X166639052Y-139500310D01*
X166586994Y-139521873D01*
X166586985Y-139521878D01*
X166329097Y-139628698D01*
X166083598Y-139730387D01*
X166043716Y-139742486D01*
X166008375Y-139745966D01*
X165973035Y-139742486D01*
X165939056Y-139732178D01*
X165907736Y-139715437D01*
X165880286Y-139692911D01*
X165857759Y-139665461D01*
X165838109Y-139628698D01*
X165816544Y-139576636D01*
X165816541Y-139576630D01*
X165600899Y-139056024D01*
X165600898Y-139056019D01*
X165579331Y-139003953D01*
X165567232Y-138964071D01*
X165563752Y-138928730D01*
X165567232Y-138893389D01*
X165577540Y-138859409D01*
X165594279Y-138828093D01*
X165616808Y-138800641D01*
X165644257Y-138778114D01*
X165681020Y-138758464D01*
X165733078Y-138736901D01*
X165733087Y-138736896D01*
X166106568Y-138582196D01*
X166236474Y-138528387D01*
X166276356Y-138516288D01*
X166311697Y-138512808D01*
X166347037Y-138516288D01*
G37*
G36*
X127428082Y-138610726D02*
G01*
X127428082Y-138610727D01*
X127161663Y-139010205D01*
X126816643Y-139527541D01*
X125483852Y-138638680D01*
X125483852Y-138638679D01*
X125891558Y-138027350D01*
X126095291Y-137721865D01*
X127428082Y-138610726D01*
G37*
G36*
X121576004Y-138554242D02*
G01*
X121576004Y-138554243D01*
X121349821Y-138893389D01*
X120964565Y-139471057D01*
X119631774Y-138582196D01*
X119631774Y-138582195D01*
X119967085Y-138079418D01*
X120243213Y-137665381D01*
X121576004Y-138554242D01*
G37*
G36*
X167802147Y-137913562D02*
G01*
X167836126Y-137923870D01*
X167867446Y-137940611D01*
X167894896Y-137963137D01*
X167917423Y-137990587D01*
X167937073Y-138027350D01*
X167958638Y-138079412D01*
X167958641Y-138079418D01*
X168174283Y-138600024D01*
X168174284Y-138600029D01*
X168195851Y-138652095D01*
X168207950Y-138691977D01*
X168211430Y-138727318D01*
X168207950Y-138762659D01*
X168197642Y-138796639D01*
X168180903Y-138827955D01*
X168158374Y-138855407D01*
X168130925Y-138877934D01*
X168094162Y-138897584D01*
X168042104Y-138919147D01*
X168042095Y-138919152D01*
X167784207Y-139025972D01*
X167538708Y-139127661D01*
X167498826Y-139139760D01*
X167463485Y-139143240D01*
X167428145Y-139139760D01*
X167394166Y-139129452D01*
X167362846Y-139112711D01*
X167335396Y-139090185D01*
X167312869Y-139062735D01*
X167293219Y-139025972D01*
X167271654Y-138973910D01*
X167271651Y-138973904D01*
X167056009Y-138453298D01*
X167056008Y-138453293D01*
X167034441Y-138401227D01*
X167022342Y-138361345D01*
X167018862Y-138326004D01*
X167022342Y-138290663D01*
X167032650Y-138256683D01*
X167049389Y-138225367D01*
X167071918Y-138197915D01*
X167099367Y-138175388D01*
X167136130Y-138155738D01*
X167188188Y-138134175D01*
X167188197Y-138134170D01*
X167534839Y-137990587D01*
X167691584Y-137925661D01*
X167731466Y-137913562D01*
X167766807Y-137910082D01*
X167802147Y-137913562D01*
G37*
G36*
X148951000Y-138951000D02*
G01*
X145849000Y-138951000D01*
X145849000Y-135849000D01*
X148951000Y-135849000D01*
X148951000Y-138951000D01*
G37*
G36*
X152751159Y-135872551D02*
G01*
X152932410Y-135908604D01*
X153214674Y-136025521D01*
X153468705Y-136195259D01*
X153684741Y-136411295D01*
X153854479Y-136665326D01*
X153971396Y-136947590D01*
X154031000Y-137247240D01*
X154031000Y-137552760D01*
X153971396Y-137852410D01*
X153854479Y-138134674D01*
X153684741Y-138388705D01*
X153468705Y-138604741D01*
X153214674Y-138774479D01*
X152932410Y-138891396D01*
X152814232Y-138914903D01*
X152632761Y-138951000D01*
X152327239Y-138951000D01*
X152145768Y-138914903D01*
X152027590Y-138891396D01*
X151745326Y-138774479D01*
X151491295Y-138604741D01*
X151275259Y-138388705D01*
X151105521Y-138134674D01*
X150988604Y-137852410D01*
X150929000Y-137552760D01*
X150929000Y-137247240D01*
X150988604Y-136947590D01*
X151105521Y-136665326D01*
X151275259Y-136411295D01*
X151491295Y-136195259D01*
X151745326Y-136025521D01*
X152027590Y-135908604D01*
X152208841Y-135872551D01*
X152327239Y-135849000D01*
X152632761Y-135849000D01*
X152751159Y-135872551D01*
G37*
G36*
X181806902Y-136657912D02*
G01*
X180674117Y-137790697D01*
X179894886Y-137011466D01*
X181027671Y-135878681D01*
X181806902Y-136657912D01*
G37*
G36*
X128083047Y-136210109D02*
G01*
X128117031Y-136220386D01*
X128153812Y-136240005D01*
X128200694Y-136271271D01*
X128200699Y-136271274D01*
X128403793Y-136406721D01*
X128653998Y-136573587D01*
X128686235Y-136599996D01*
X128708791Y-136627432D01*
X128725558Y-136658735D01*
X128735897Y-136692709D01*
X128739407Y-136728039D01*
X128735957Y-136763386D01*
X128725678Y-136797377D01*
X128706061Y-136834156D01*
X128330866Y-137396738D01*
X128304456Y-137428976D01*
X128277024Y-137451529D01*
X128245715Y-137468299D01*
X128211745Y-137478637D01*
X128176415Y-137482147D01*
X128141063Y-137478697D01*
X128107079Y-137468420D01*
X128070298Y-137448801D01*
X128023416Y-137417535D01*
X128023411Y-137417532D01*
X127820317Y-137282085D01*
X127570112Y-137115219D01*
X127537875Y-137088810D01*
X127515319Y-137061374D01*
X127498552Y-137030071D01*
X127488213Y-136996097D01*
X127484703Y-136960767D01*
X127488153Y-136925420D01*
X127498432Y-136891429D01*
X127518049Y-136854650D01*
X127893244Y-136292068D01*
X127919654Y-136259830D01*
X127947086Y-136237277D01*
X127978395Y-136220507D01*
X128012365Y-136210169D01*
X128047695Y-136206659D01*
X128083047Y-136210109D01*
G37*
G36*
X176560213Y-136434355D02*
G01*
X176560212Y-136434356D01*
X176320932Y-136594540D01*
X175228975Y-137325542D01*
X174615937Y-136409797D01*
X174866192Y-136242266D01*
X174994769Y-136156191D01*
X175947175Y-135518610D01*
X176560213Y-136434355D01*
G37*
G36*
X123351506Y-135891989D02*
G01*
X123351506Y-135891990D01*
X123118519Y-136241339D01*
X122740067Y-136808804D01*
X121407276Y-135919943D01*
X121407276Y-135919942D01*
X121741905Y-135418188D01*
X122018715Y-135003128D01*
X123351506Y-135891989D01*
G37*
G36*
X126772719Y-135336229D02*
G01*
X126806703Y-135346506D01*
X126843484Y-135366125D01*
X126890366Y-135397391D01*
X126890371Y-135397394D01*
X127072126Y-135518610D01*
X127343670Y-135699707D01*
X127375907Y-135726116D01*
X127398463Y-135753552D01*
X127415230Y-135784855D01*
X127425569Y-135818829D01*
X127429079Y-135854159D01*
X127425629Y-135889506D01*
X127415350Y-135923497D01*
X127395733Y-135960276D01*
X127020538Y-136522858D01*
X126994128Y-136555096D01*
X126966696Y-136577649D01*
X126935387Y-136594419D01*
X126901417Y-136604757D01*
X126866087Y-136608267D01*
X126830735Y-136604817D01*
X126796751Y-136594540D01*
X126759970Y-136574921D01*
X126713088Y-136543655D01*
X126713083Y-136543652D01*
X126406158Y-136338958D01*
X126259784Y-136241339D01*
X126227547Y-136214930D01*
X126204991Y-136187494D01*
X126188224Y-136156191D01*
X126177885Y-136122217D01*
X126174375Y-136086887D01*
X126177825Y-136051540D01*
X126188104Y-136017549D01*
X126207721Y-135980770D01*
X126248288Y-135919943D01*
X126266930Y-135891990D01*
X126582916Y-135418188D01*
X126609326Y-135385950D01*
X126636758Y-135363397D01*
X126668067Y-135346627D01*
X126702037Y-135336289D01*
X126737367Y-135332779D01*
X126772719Y-135336229D01*
G37*
G36*
X118215473Y-135828163D02*
G01*
X117436242Y-136607394D01*
X116303457Y-135474609D01*
X117082688Y-134695378D01*
X118215473Y-135828163D01*
G37*
G36*
X173334611Y-134642565D02*
G01*
X173368598Y-134652843D01*
X173399934Y-134669557D01*
X173427400Y-134692058D01*
X173453879Y-134724264D01*
X173830045Y-135286176D01*
X173849730Y-135322927D01*
X173860069Y-135356901D01*
X173863579Y-135392231D01*
X173860129Y-135427579D01*
X173849851Y-135461566D01*
X173833137Y-135492902D01*
X173810636Y-135520368D01*
X173778430Y-135546847D01*
X173278842Y-135881291D01*
X173242091Y-135900976D01*
X173208117Y-135911315D01*
X173172787Y-135914825D01*
X173137439Y-135911375D01*
X173103452Y-135901097D01*
X173072116Y-135884383D01*
X173044650Y-135861882D01*
X173018171Y-135829676D01*
X172642005Y-135267764D01*
X172622320Y-135231013D01*
X172611981Y-135197039D01*
X172608471Y-135161709D01*
X172611921Y-135126361D01*
X172622199Y-135092374D01*
X172638913Y-135061038D01*
X172661414Y-135033572D01*
X172693620Y-135007093D01*
X173193208Y-134672649D01*
X173229959Y-134652964D01*
X173263933Y-134642625D01*
X173299263Y-134639115D01*
X173334611Y-134642565D01*
G37*
G36*
X179544161Y-134395171D02*
G01*
X178411376Y-135527956D01*
X177632145Y-134748725D01*
X178764930Y-133615940D01*
X179544161Y-134395171D01*
G37*
G36*
X174643411Y-133766399D02*
G01*
X174677398Y-133776677D01*
X174708734Y-133793391D01*
X174736200Y-133815892D01*
X174762679Y-133848098D01*
X175138845Y-134410010D01*
X175158530Y-134446761D01*
X175168869Y-134480735D01*
X175172379Y-134516065D01*
X175168929Y-134551413D01*
X175158651Y-134585400D01*
X175141937Y-134616736D01*
X175119436Y-134644202D01*
X175087230Y-134670681D01*
X174587642Y-135005125D01*
X174550891Y-135024810D01*
X174516917Y-135035149D01*
X174481587Y-135038659D01*
X174446239Y-135035209D01*
X174412252Y-135024931D01*
X174380916Y-135008217D01*
X174353450Y-134985716D01*
X174326971Y-134953510D01*
X173950805Y-134391598D01*
X173931120Y-134354847D01*
X173920781Y-134320873D01*
X173917271Y-134285543D01*
X173920721Y-134250195D01*
X173930999Y-134216208D01*
X173947713Y-134184872D01*
X173970214Y-134157406D01*
X174002420Y-134130927D01*
X174502008Y-133796483D01*
X174538759Y-133776798D01*
X174572733Y-133766459D01*
X174608063Y-133762949D01*
X174643411Y-133766399D01*
G37*
G36*
X120478214Y-133565422D02*
G01*
X119698983Y-134344653D01*
X118566198Y-133211868D01*
X119345429Y-132432637D01*
X120478214Y-133565422D01*
G37*
G36*
X185271725Y-133193089D02*
G01*
X184138940Y-134325874D01*
X183359709Y-133546643D01*
X184492494Y-132413858D01*
X185271725Y-133193089D01*
G37*
G36*
X114750650Y-132363340D02*
G01*
X113971419Y-133142571D01*
X112838634Y-132009786D01*
X113617865Y-131230555D01*
X114750650Y-132363340D01*
G37*
G36*
X121548054Y-131150824D02*
G01*
X121582032Y-131161132D01*
X121613353Y-131177873D01*
X121645567Y-131204311D01*
X121685418Y-131244162D01*
X121685424Y-131244167D01*
X122030845Y-131589588D01*
X122030850Y-131589594D01*
X122070701Y-131629445D01*
X122097139Y-131661659D01*
X122113880Y-131692980D01*
X122124188Y-131726958D01*
X122127668Y-131762299D01*
X122124188Y-131797640D01*
X122113880Y-131831618D01*
X122097139Y-131862939D01*
X122070701Y-131895153D01*
X122030850Y-131935004D01*
X122030845Y-131935010D01*
X121632390Y-132333465D01*
X121632384Y-132333470D01*
X121592533Y-132373321D01*
X121560319Y-132399759D01*
X121528998Y-132416500D01*
X121495020Y-132426808D01*
X121459679Y-132430288D01*
X121424338Y-132426808D01*
X121390360Y-132416500D01*
X121359039Y-132399759D01*
X121326825Y-132373321D01*
X121286974Y-132333470D01*
X121286968Y-132333465D01*
X120941547Y-131988044D01*
X120941542Y-131988038D01*
X120901691Y-131948187D01*
X120875253Y-131915973D01*
X120858512Y-131884652D01*
X120848204Y-131850674D01*
X120844724Y-131815333D01*
X120848204Y-131779992D01*
X120858512Y-131746014D01*
X120875253Y-131714693D01*
X120901691Y-131682479D01*
X120941542Y-131642628D01*
X120941547Y-131642622D01*
X121340002Y-131244167D01*
X121340008Y-131244162D01*
X121379859Y-131204311D01*
X121412073Y-131177873D01*
X121443394Y-131161132D01*
X121477372Y-131150824D01*
X121512713Y-131147344D01*
X121548054Y-131150824D01*
G37*
G36*
X183008984Y-130930348D02*
G01*
X181876199Y-132063133D01*
X181096968Y-131283902D01*
X182229753Y-130151117D01*
X183008984Y-130930348D01*
G37*
G36*
X120434360Y-130037130D02*
G01*
X120468338Y-130047438D01*
X120499659Y-130064179D01*
X120531873Y-130090617D01*
X120571724Y-130130468D01*
X120571730Y-130130473D01*
X120917151Y-130475894D01*
X120917156Y-130475900D01*
X120957007Y-130515751D01*
X120983445Y-130547965D01*
X121000186Y-130579286D01*
X121010494Y-130613264D01*
X121013974Y-130648605D01*
X121010494Y-130683946D01*
X121000186Y-130717924D01*
X120983445Y-130749245D01*
X120957007Y-130781459D01*
X120917156Y-130821310D01*
X120917151Y-130821316D01*
X120518696Y-131219771D01*
X120518690Y-131219776D01*
X120478839Y-131259627D01*
X120446625Y-131286065D01*
X120415304Y-131302806D01*
X120381326Y-131313114D01*
X120345985Y-131316594D01*
X120310644Y-131313114D01*
X120276666Y-131302806D01*
X120245345Y-131286065D01*
X120213131Y-131259627D01*
X120173280Y-131219776D01*
X120173274Y-131219771D01*
X119827853Y-130874350D01*
X119827848Y-130874344D01*
X119787997Y-130834493D01*
X119761559Y-130802279D01*
X119744818Y-130770958D01*
X119734510Y-130736980D01*
X119731030Y-130701639D01*
X119734510Y-130666298D01*
X119744818Y-130632320D01*
X119761559Y-130600999D01*
X119787997Y-130568785D01*
X119827848Y-130528934D01*
X119827853Y-130528928D01*
X120226308Y-130130473D01*
X120226314Y-130130468D01*
X120266165Y-130090617D01*
X120298379Y-130064179D01*
X120329700Y-130047438D01*
X120363678Y-130037130D01*
X120399019Y-130033650D01*
X120434360Y-130037130D01*
G37*
G36*
X117013391Y-130100599D02*
G01*
X116234160Y-130879830D01*
X115101375Y-129747045D01*
X115880606Y-128967814D01*
X117013391Y-130100599D01*
G37*
G36*
X179357116Y-129440293D02*
G01*
X179391094Y-129450601D01*
X179422415Y-129467342D01*
X179454629Y-129493780D01*
X179494480Y-129533631D01*
X179494486Y-129533636D01*
X179892941Y-129932091D01*
X179892946Y-129932097D01*
X179932797Y-129971948D01*
X179959235Y-130004162D01*
X179975976Y-130035483D01*
X179986284Y-130069461D01*
X179989764Y-130104802D01*
X179986284Y-130140143D01*
X179975976Y-130174121D01*
X179959235Y-130205442D01*
X179932797Y-130237656D01*
X179892946Y-130277507D01*
X179892941Y-130277513D01*
X179547520Y-130622934D01*
X179547514Y-130622939D01*
X179507663Y-130662790D01*
X179475449Y-130689228D01*
X179444128Y-130705969D01*
X179410150Y-130716277D01*
X179374809Y-130719757D01*
X179339468Y-130716277D01*
X179305490Y-130705969D01*
X179274169Y-130689228D01*
X179241955Y-130662790D01*
X179202104Y-130622939D01*
X179202098Y-130622934D01*
X178803643Y-130224479D01*
X178803638Y-130224473D01*
X178763787Y-130184622D01*
X178737349Y-130152408D01*
X178720608Y-130121087D01*
X178710300Y-130087109D01*
X178706820Y-130051768D01*
X178710300Y-130016427D01*
X178720608Y-129982449D01*
X178737349Y-129951128D01*
X178763787Y-129918914D01*
X178803638Y-129879063D01*
X178803643Y-129879057D01*
X179149064Y-129533636D01*
X179149070Y-129533631D01*
X179188921Y-129493780D01*
X179221135Y-129467342D01*
X179252456Y-129450601D01*
X179286434Y-129440293D01*
X179321775Y-129436813D01*
X179357116Y-129440293D01*
G37*
G36*
X187447685Y-128765363D02*
G01*
X188002879Y-129135631D01*
X187114018Y-130468422D01*
X187114017Y-130468422D01*
X186482779Y-130047438D01*
X186197203Y-129856983D01*
X187086064Y-128524192D01*
X187086065Y-128524192D01*
X187447685Y-128765363D01*
G37*
G36*
X148823512Y-127973927D02*
G01*
X148972812Y-128003624D01*
X149136784Y-128071544D01*
X149284354Y-128170147D01*
X149409853Y-128295646D01*
X149508456Y-128443216D01*
X149576376Y-128607188D01*
X149611000Y-128781259D01*
X149611000Y-128958741D01*
X149576376Y-129132812D01*
X149508456Y-129296784D01*
X149409853Y-129444354D01*
X149284354Y-129569853D01*
X149136784Y-129668456D01*
X148972812Y-129736376D01*
X148823512Y-129766073D01*
X148798742Y-129771000D01*
X148621258Y-129771000D01*
X148596488Y-129766073D01*
X148447188Y-129736376D01*
X148283216Y-129668456D01*
X148135646Y-129569853D01*
X148010147Y-129444354D01*
X147911544Y-129296784D01*
X147843624Y-129132812D01*
X147809000Y-128958741D01*
X147809000Y-128781259D01*
X147843624Y-128607188D01*
X147911544Y-128443216D01*
X148010147Y-128295646D01*
X148135646Y-128170147D01*
X148283216Y-128071544D01*
X148447188Y-128003624D01*
X148596488Y-127973927D01*
X148621258Y-127969000D01*
X148798742Y-127969000D01*
X148823512Y-127973927D01*
G37*
G36*
X151363512Y-127973927D02*
G01*
X151512812Y-128003624D01*
X151676784Y-128071544D01*
X151824354Y-128170147D01*
X151949853Y-128295646D01*
X152048456Y-128443216D01*
X152116376Y-128607188D01*
X152151000Y-128781259D01*
X152151000Y-128958741D01*
X152116376Y-129132812D01*
X152048456Y-129296784D01*
X151949853Y-129444354D01*
X151824354Y-129569853D01*
X151676784Y-129668456D01*
X151512812Y-129736376D01*
X151363512Y-129766073D01*
X151338742Y-129771000D01*
X151161258Y-129771000D01*
X151136488Y-129766073D01*
X150987188Y-129736376D01*
X150823216Y-129668456D01*
X150675646Y-129569853D01*
X150550147Y-129444354D01*
X150451544Y-129296784D01*
X150383624Y-129132812D01*
X150349000Y-128958741D01*
X150349000Y-128781259D01*
X150383624Y-128607188D01*
X150451544Y-128443216D01*
X150550147Y-128295646D01*
X150675646Y-128170147D01*
X150823216Y-128071544D01*
X150987188Y-128003624D01*
X151136488Y-127973927D01*
X151161258Y-127969000D01*
X151338742Y-127969000D01*
X151363512Y-127973927D01*
G37*
G36*
X112021258Y-129071112D02*
G01*
X111105513Y-129684150D01*
X111095007Y-129668456D01*
X110846194Y-129296784D01*
X110214326Y-128352912D01*
X111130071Y-127739874D01*
X112021258Y-129071112D01*
G37*
G36*
X180470810Y-128326599D02*
G01*
X180504788Y-128336907D01*
X180536109Y-128353648D01*
X180568323Y-128380086D01*
X180608174Y-128419937D01*
X180608180Y-128419942D01*
X181006635Y-128818397D01*
X181006640Y-128818403D01*
X181046491Y-128858254D01*
X181072929Y-128890468D01*
X181089670Y-128921789D01*
X181099978Y-128955767D01*
X181103458Y-128991108D01*
X181099978Y-129026449D01*
X181089670Y-129060427D01*
X181072929Y-129091748D01*
X181046491Y-129123962D01*
X181006640Y-129163813D01*
X181006635Y-129163819D01*
X180661214Y-129509240D01*
X180661208Y-129509245D01*
X180621357Y-129549096D01*
X180589143Y-129575534D01*
X180557822Y-129592275D01*
X180523844Y-129602583D01*
X180488503Y-129606063D01*
X180453162Y-129602583D01*
X180419184Y-129592275D01*
X180387863Y-129575534D01*
X180355649Y-129549096D01*
X180315798Y-129509245D01*
X180315792Y-129509240D01*
X179917337Y-129110785D01*
X179917332Y-129110779D01*
X179877481Y-129070928D01*
X179851043Y-129038714D01*
X179834302Y-129007393D01*
X179823994Y-128973415D01*
X179820514Y-128938074D01*
X179823994Y-128902733D01*
X179834302Y-128868755D01*
X179851043Y-128837434D01*
X179877481Y-128805220D01*
X179917332Y-128765369D01*
X179917337Y-128765363D01*
X180262758Y-128419942D01*
X180262764Y-128419937D01*
X180302615Y-128380086D01*
X180334829Y-128353648D01*
X180366150Y-128336907D01*
X180400128Y-128326599D01*
X180435469Y-128323119D01*
X180470810Y-128326599D01*
G37*
G36*
X184657220Y-126904354D02*
G01*
X185340626Y-127360129D01*
X184451765Y-128692920D01*
X184451764Y-128692920D01*
X183667901Y-128170148D01*
X183534950Y-128081481D01*
X184423811Y-126748690D01*
X184423812Y-126748690D01*
X184657220Y-126904354D01*
G37*
G36*
X113789222Y-125959729D02*
G01*
X113944217Y-126191258D01*
X114680408Y-127290966D01*
X113764663Y-127904004D01*
X112873476Y-126572766D01*
X113789221Y-125959728D01*
X113789222Y-125959729D01*
G37*
G36*
X148823512Y-125433927D02*
G01*
X148972812Y-125463624D01*
X149136784Y-125531544D01*
X149284354Y-125630147D01*
X149409853Y-125755646D01*
X149508456Y-125903216D01*
X149576376Y-126067188D01*
X149611000Y-126241259D01*
X149611000Y-126418741D01*
X149576376Y-126592812D01*
X149508456Y-126756784D01*
X149409853Y-126904354D01*
X149284354Y-127029853D01*
X149136784Y-127128456D01*
X148972812Y-127196376D01*
X148823512Y-127226073D01*
X148798742Y-127231000D01*
X148621258Y-127231000D01*
X148596488Y-127226073D01*
X148447188Y-127196376D01*
X148283216Y-127128456D01*
X148135646Y-127029853D01*
X148010147Y-126904354D01*
X147911544Y-126756784D01*
X147843624Y-126592812D01*
X147809000Y-126418741D01*
X147809000Y-126241259D01*
X147843624Y-126067188D01*
X147911544Y-125903216D01*
X148010147Y-125755646D01*
X148135646Y-125630147D01*
X148283216Y-125531544D01*
X148447188Y-125463624D01*
X148596488Y-125433927D01*
X148621258Y-125429000D01*
X148798742Y-125429000D01*
X148823512Y-125433927D01*
G37*
G36*
X152151000Y-127231000D02*
G01*
X150349000Y-127231000D01*
X150349000Y-125429000D01*
X152151000Y-125429000D01*
X152151000Y-127231000D01*
G37*
G36*
X161113512Y-125383927D02*
G01*
X161262812Y-125413624D01*
X161426784Y-125481544D01*
X161574354Y-125580147D01*
X161699853Y-125705646D01*
X161798456Y-125853216D01*
X161866376Y-126017188D01*
X161893150Y-126151792D01*
X161901000Y-126191258D01*
X161901000Y-126368742D01*
X161897252Y-126387582D01*
X161866376Y-126542812D01*
X161798456Y-126706784D01*
X161699853Y-126854354D01*
X161574354Y-126979853D01*
X161426784Y-127078456D01*
X161262812Y-127146376D01*
X161113512Y-127176073D01*
X161088742Y-127181000D01*
X160911258Y-127181000D01*
X160886488Y-127176073D01*
X160737188Y-127146376D01*
X160573216Y-127078456D01*
X160425646Y-126979853D01*
X160300147Y-126854354D01*
X160201544Y-126706784D01*
X160133624Y-126542812D01*
X160102748Y-126387582D01*
X160099000Y-126368742D01*
X160099000Y-126191258D01*
X160106850Y-126151792D01*
X160133624Y-126017188D01*
X160201544Y-125853216D01*
X160300147Y-125705646D01*
X160425646Y-125580147D01*
X160573216Y-125481544D01*
X160737188Y-125413624D01*
X160886488Y-125383927D01*
X160911258Y-125379000D01*
X161088742Y-125379000D01*
X161113512Y-125383927D01*
G37*
G36*
X175390744Y-122632319D02*
G01*
X175714325Y-122766351D01*
X175791302Y-122798236D01*
X176151793Y-123039108D01*
X176458366Y-123345681D01*
X176673766Y-123668051D01*
X176699239Y-123706174D01*
X176865155Y-124106730D01*
X176949737Y-124531956D01*
X176949737Y-124965518D01*
X176865155Y-125390744D01*
X176699239Y-125791300D01*
X176699238Y-125791302D01*
X176458366Y-126151793D01*
X176151793Y-126458366D01*
X175791302Y-126699238D01*
X175791301Y-126699239D01*
X175791300Y-126699239D01*
X175390744Y-126865155D01*
X174965518Y-126949737D01*
X174531956Y-126949737D01*
X174106730Y-126865155D01*
X173706174Y-126699239D01*
X173706173Y-126699239D01*
X173706172Y-126699238D01*
X173345681Y-126458366D01*
X173039108Y-126151793D01*
X172798236Y-125791302D01*
X172798235Y-125791300D01*
X172632319Y-125390744D01*
X172547737Y-124965518D01*
X172547737Y-124531956D01*
X172632319Y-124106730D01*
X172798235Y-123706174D01*
X172823708Y-123668051D01*
X173039108Y-123345681D01*
X173345681Y-123039108D01*
X173706172Y-122798236D01*
X173783149Y-122766351D01*
X174106730Y-122632319D01*
X174531956Y-122547737D01*
X174965518Y-122547737D01*
X175390744Y-122632319D01*
G37*
G36*
X125893270Y-122632319D02*
G01*
X126216851Y-122766351D01*
X126293828Y-122798236D01*
X126654319Y-123039108D01*
X126960892Y-123345681D01*
X127176292Y-123668051D01*
X127201765Y-123706174D01*
X127367681Y-124106730D01*
X127452263Y-124531956D01*
X127452263Y-124965518D01*
X127367681Y-125390744D01*
X127201765Y-125791300D01*
X127201764Y-125791302D01*
X126960892Y-126151793D01*
X126654319Y-126458366D01*
X126293828Y-126699238D01*
X126293827Y-126699239D01*
X126293826Y-126699239D01*
X125893270Y-126865155D01*
X125468044Y-126949737D01*
X125034482Y-126949737D01*
X124609256Y-126865155D01*
X124208700Y-126699239D01*
X124208699Y-126699239D01*
X124208698Y-126699238D01*
X123848207Y-126458366D01*
X123541634Y-126151793D01*
X123300762Y-125791302D01*
X123300761Y-125791300D01*
X123134845Y-125390744D01*
X123050263Y-124965518D01*
X123050263Y-124531956D01*
X123134845Y-124106730D01*
X123300761Y-123706174D01*
X123326234Y-123668051D01*
X123541634Y-123345681D01*
X123848207Y-123039108D01*
X124208698Y-122798236D01*
X124285675Y-122766351D01*
X124609256Y-122632319D01*
X125034482Y-122547737D01*
X125468044Y-122547737D01*
X125893270Y-122632319D01*
G37*
G36*
X116342478Y-125169458D02*
G01*
X116376465Y-125179736D01*
X116407801Y-125196450D01*
X116435267Y-125218951D01*
X116461746Y-125251157D01*
X116796190Y-125750745D01*
X116815875Y-125787496D01*
X116826214Y-125821470D01*
X116829724Y-125856800D01*
X116826274Y-125892148D01*
X116815996Y-125926135D01*
X116799282Y-125957471D01*
X116776781Y-125984937D01*
X116744575Y-126011416D01*
X116182663Y-126387582D01*
X116145912Y-126407267D01*
X116111938Y-126417606D01*
X116076608Y-126421116D01*
X116041260Y-126417666D01*
X116007273Y-126407388D01*
X115975937Y-126390674D01*
X115948471Y-126368173D01*
X115921992Y-126335967D01*
X115587548Y-125836379D01*
X115567863Y-125799628D01*
X115557524Y-125765654D01*
X115554014Y-125730324D01*
X115557464Y-125694976D01*
X115567742Y-125660989D01*
X115584456Y-125629653D01*
X115606957Y-125602187D01*
X115639163Y-125575708D01*
X116201075Y-125199542D01*
X116237826Y-125179857D01*
X116271800Y-125169518D01*
X116307130Y-125166008D01*
X116342478Y-125169458D01*
G37*
G36*
X190106271Y-124648671D02*
G01*
X190721616Y-125059055D01*
X189832755Y-126391846D01*
X189832754Y-126391846D01*
X189270980Y-126017189D01*
X188915940Y-125780407D01*
X189804801Y-124447616D01*
X189804802Y-124447616D01*
X190106271Y-124648671D01*
G37*
G36*
X108404224Y-123668051D02*
G01*
X108574288Y-123922090D01*
X109295410Y-124999288D01*
X108379665Y-125612326D01*
X108372878Y-125602187D01*
X108083231Y-125169518D01*
X107488478Y-124281088D01*
X108404223Y-123668050D01*
X108404224Y-123668051D01*
G37*
G36*
X115466312Y-123860658D02*
G01*
X115500299Y-123870936D01*
X115531635Y-123887650D01*
X115559101Y-123910151D01*
X115585580Y-123942357D01*
X115920024Y-124441945D01*
X115939709Y-124478696D01*
X115950048Y-124512670D01*
X115953558Y-124548000D01*
X115950108Y-124583348D01*
X115939830Y-124617335D01*
X115923116Y-124648671D01*
X115900615Y-124676137D01*
X115868409Y-124702616D01*
X115306497Y-125078782D01*
X115269746Y-125098467D01*
X115235772Y-125108806D01*
X115200442Y-125112316D01*
X115165094Y-125108866D01*
X115131107Y-125098588D01*
X115099771Y-125081874D01*
X115072305Y-125059373D01*
X115045826Y-125027167D01*
X114711382Y-124527579D01*
X114691697Y-124490828D01*
X114681358Y-124456854D01*
X114677848Y-124421524D01*
X114681298Y-124386176D01*
X114691576Y-124352189D01*
X114708290Y-124320853D01*
X114730791Y-124293387D01*
X114762997Y-124266908D01*
X115324909Y-123890742D01*
X115361660Y-123871057D01*
X115395634Y-123860718D01*
X115430964Y-123857208D01*
X115466312Y-123860658D01*
G37*
G36*
X161113512Y-122843927D02*
G01*
X161262812Y-122873624D01*
X161426784Y-122941544D01*
X161574354Y-123040147D01*
X161699853Y-123165646D01*
X161798456Y-123313216D01*
X161866376Y-123477188D01*
X161901000Y-123651259D01*
X161901000Y-123828741D01*
X161866376Y-124002812D01*
X161798456Y-124166784D01*
X161699853Y-124314354D01*
X161574354Y-124439853D01*
X161426784Y-124538456D01*
X161262812Y-124606376D01*
X161113512Y-124636073D01*
X161088742Y-124641000D01*
X160911258Y-124641000D01*
X160886488Y-124636073D01*
X160737188Y-124606376D01*
X160573216Y-124538456D01*
X160425646Y-124439853D01*
X160300147Y-124314354D01*
X160201544Y-124166784D01*
X160133624Y-124002812D01*
X160099000Y-123828741D01*
X160099000Y-123651259D01*
X160133624Y-123477188D01*
X160201544Y-123313216D01*
X160300147Y-123165646D01*
X160425646Y-123040147D01*
X160573216Y-122941544D01*
X160737188Y-122873624D01*
X160886488Y-122843927D01*
X160911258Y-122839000D01*
X161088742Y-122839000D01*
X161113512Y-122843927D01*
G37*
G36*
X187546542Y-122941544D02*
G01*
X188059363Y-123283553D01*
X187170502Y-124616344D01*
X187170501Y-124616344D01*
X186496412Y-124166782D01*
X186253687Y-124004905D01*
X187142548Y-122672114D01*
X187142549Y-122672114D01*
X187546542Y-122941544D01*
G37*
G36*
X184277106Y-122674541D02*
G01*
X184311097Y-122684820D01*
X184347876Y-122704437D01*
X184910458Y-123079632D01*
X184942696Y-123106042D01*
X184965249Y-123133474D01*
X184982019Y-123164783D01*
X184992357Y-123198753D01*
X184995867Y-123234083D01*
X184992417Y-123269435D01*
X184982140Y-123303419D01*
X184962521Y-123340200D01*
X184931255Y-123387082D01*
X184931252Y-123387087D01*
X184862054Y-123490844D01*
X184628939Y-123840386D01*
X184602530Y-123872623D01*
X184575094Y-123895179D01*
X184543791Y-123911946D01*
X184509817Y-123922285D01*
X184474487Y-123925795D01*
X184439140Y-123922345D01*
X184405149Y-123912066D01*
X184368370Y-123892449D01*
X183805788Y-123517254D01*
X183773550Y-123490844D01*
X183750997Y-123463412D01*
X183734227Y-123432103D01*
X183723889Y-123398133D01*
X183720379Y-123362803D01*
X183723829Y-123327451D01*
X183734106Y-123293467D01*
X183753725Y-123256686D01*
X183784991Y-123209804D01*
X183784994Y-123209799D01*
X183963898Y-122941544D01*
X184087307Y-122756500D01*
X184113716Y-122724263D01*
X184141152Y-122701707D01*
X184172455Y-122684940D01*
X184206429Y-122674601D01*
X184241759Y-122671091D01*
X184277106Y-122674541D01*
G37*
G36*
X111063374Y-121887905D02*
G01*
X111216321Y-122116375D01*
X111954560Y-123219142D01*
X111038815Y-123832180D01*
X111037714Y-123830535D01*
X110638424Y-123234083D01*
X110147628Y-122500942D01*
X111063373Y-121887904D01*
X111063374Y-121887905D01*
G37*
G36*
X136068067Y-121402844D02*
G01*
X136222812Y-121433624D01*
X136386784Y-121501544D01*
X136534354Y-121600147D01*
X136659853Y-121725646D01*
X136758456Y-121873216D01*
X136826376Y-122037188D01*
X136861000Y-122211259D01*
X136861000Y-122388741D01*
X136826376Y-122562812D01*
X136758456Y-122726784D01*
X136659853Y-122874354D01*
X136534354Y-122999853D01*
X136386784Y-123098456D01*
X136222812Y-123166376D01*
X136073512Y-123196073D01*
X136048742Y-123201000D01*
X135871258Y-123201000D01*
X135846488Y-123196073D01*
X135697188Y-123166376D01*
X135533216Y-123098456D01*
X135385646Y-122999853D01*
X135260147Y-122874354D01*
X135161544Y-122726784D01*
X135093624Y-122562812D01*
X135059000Y-122388741D01*
X135059000Y-122211259D01*
X135093624Y-122037188D01*
X135161544Y-121873216D01*
X135260147Y-121725646D01*
X135385646Y-121600147D01*
X135533216Y-121501544D01*
X135697188Y-121433624D01*
X135851933Y-121402844D01*
X135871258Y-121399000D01*
X136048742Y-121399000D01*
X136068067Y-121402844D01*
G37*
G36*
X139401000Y-123201000D02*
G01*
X137599000Y-123201000D01*
X137599000Y-121399000D01*
X139401000Y-121399000D01*
X139401000Y-123201000D01*
G37*
G36*
X185150986Y-121364213D02*
G01*
X185184977Y-121374492D01*
X185221756Y-121394109D01*
X185784338Y-121769304D01*
X185816576Y-121795714D01*
X185839129Y-121823146D01*
X185855899Y-121854455D01*
X185866237Y-121888425D01*
X185869747Y-121923755D01*
X185866297Y-121959107D01*
X185856020Y-121993091D01*
X185836401Y-122029872D01*
X185805135Y-122076754D01*
X185805132Y-122076759D01*
X185735934Y-122180516D01*
X185502819Y-122530058D01*
X185476410Y-122562295D01*
X185448974Y-122584851D01*
X185417671Y-122601618D01*
X185383697Y-122611957D01*
X185348367Y-122615467D01*
X185313020Y-122612017D01*
X185279029Y-122601738D01*
X185242250Y-122582121D01*
X184679668Y-122206926D01*
X184647430Y-122180516D01*
X184624877Y-122153084D01*
X184608107Y-122121775D01*
X184597769Y-122087805D01*
X184594259Y-122052475D01*
X184597709Y-122017123D01*
X184607986Y-121983139D01*
X184627605Y-121946358D01*
X184658871Y-121899476D01*
X184658874Y-121899471D01*
X184840734Y-121626784D01*
X184961187Y-121446172D01*
X184987596Y-121413935D01*
X185015032Y-121391379D01*
X185046335Y-121374612D01*
X185080309Y-121364273D01*
X185115639Y-121360763D01*
X185150986Y-121364213D01*
G37*
G36*
X193148483Y-121107203D02*
G01*
X192535424Y-122587258D01*
X191517309Y-122165541D01*
X192130368Y-120685486D01*
X193148483Y-121107203D01*
G37*
G36*
X154701000Y-122151000D02*
G01*
X152899000Y-122151000D01*
X152899000Y-120349000D01*
X154701000Y-120349000D01*
X154701000Y-122151000D01*
G37*
G36*
X151373512Y-120353927D02*
G01*
X151522812Y-120383624D01*
X151686784Y-120451544D01*
X151834354Y-120550147D01*
X151959853Y-120675646D01*
X152058456Y-120823216D01*
X152126376Y-120987188D01*
X152161000Y-121161259D01*
X152161000Y-121338741D01*
X152126376Y-121512812D01*
X152058456Y-121676784D01*
X151959853Y-121824354D01*
X151834354Y-121949853D01*
X151686784Y-122048456D01*
X151522812Y-122116376D01*
X151373512Y-122146073D01*
X151348742Y-122151000D01*
X151171258Y-122151000D01*
X151146488Y-122146073D01*
X150997188Y-122116376D01*
X150833216Y-122048456D01*
X150685646Y-121949853D01*
X150560147Y-121824354D01*
X150461544Y-121676784D01*
X150393624Y-121512812D01*
X150359000Y-121338741D01*
X150359000Y-121161259D01*
X150393624Y-120987188D01*
X150461544Y-120823216D01*
X150560147Y-120675646D01*
X150685646Y-120550147D01*
X150833216Y-120451544D01*
X150997188Y-120383624D01*
X151146488Y-120353927D01*
X151171258Y-120349000D01*
X151348742Y-120349000D01*
X151373512Y-120353927D01*
G37*
G36*
X146293512Y-120353927D02*
G01*
X146442812Y-120383624D01*
X146606784Y-120451544D01*
X146754354Y-120550147D01*
X146879853Y-120675646D01*
X146978456Y-120823216D01*
X147046376Y-120987188D01*
X147081000Y-121161259D01*
X147081000Y-121338741D01*
X147046376Y-121512812D01*
X146978456Y-121676784D01*
X146879853Y-121824354D01*
X146754354Y-121949853D01*
X146606784Y-122048456D01*
X146442812Y-122116376D01*
X146293512Y-122146073D01*
X146268742Y-122151000D01*
X146091258Y-122151000D01*
X146066488Y-122146073D01*
X145917188Y-122116376D01*
X145753216Y-122048456D01*
X145605646Y-121949853D01*
X145480147Y-121824354D01*
X145381544Y-121676784D01*
X145313624Y-121512812D01*
X145279000Y-121338741D01*
X145279000Y-121161259D01*
X145313624Y-120987188D01*
X145381544Y-120823216D01*
X145480147Y-120675646D01*
X145605646Y-120550147D01*
X145753216Y-120451544D01*
X145917188Y-120383624D01*
X146066488Y-120353927D01*
X146091258Y-120349000D01*
X146268742Y-120349000D01*
X146293512Y-120353927D01*
G37*
G36*
X148833512Y-120353927D02*
G01*
X148982812Y-120383624D01*
X149146784Y-120451544D01*
X149294354Y-120550147D01*
X149419853Y-120675646D01*
X149518456Y-120823216D01*
X149586376Y-120987188D01*
X149621000Y-121161259D01*
X149621000Y-121338741D01*
X149586376Y-121512812D01*
X149518456Y-121676784D01*
X149419853Y-121824354D01*
X149294354Y-121949853D01*
X149146784Y-122048456D01*
X148982812Y-122116376D01*
X148833512Y-122146073D01*
X148808742Y-122151000D01*
X148631258Y-122151000D01*
X148606488Y-122146073D01*
X148457188Y-122116376D01*
X148293216Y-122048456D01*
X148145646Y-121949853D01*
X148020147Y-121824354D01*
X147921544Y-121676784D01*
X147853624Y-121512812D01*
X147819000Y-121338741D01*
X147819000Y-121161259D01*
X147853624Y-120987188D01*
X147921544Y-120823216D01*
X148020147Y-120675646D01*
X148145646Y-120550147D01*
X148293216Y-120451544D01*
X148457188Y-120383624D01*
X148606488Y-120353927D01*
X148631258Y-120349000D01*
X148808742Y-120349000D01*
X148833512Y-120353927D01*
G37*
G36*
X161113512Y-120303927D02*
G01*
X161262812Y-120333624D01*
X161426784Y-120401544D01*
X161574354Y-120500147D01*
X161699853Y-120625646D01*
X161798456Y-120773216D01*
X161866376Y-120937188D01*
X161901000Y-121111259D01*
X161901000Y-121288741D01*
X161866376Y-121462812D01*
X161798456Y-121626784D01*
X161699853Y-121774354D01*
X161574354Y-121899853D01*
X161426784Y-121998456D01*
X161262812Y-122066376D01*
X161113512Y-122096073D01*
X161088742Y-122101000D01*
X160911258Y-122101000D01*
X160886488Y-122096073D01*
X160737188Y-122066376D01*
X160573216Y-121998456D01*
X160425646Y-121899853D01*
X160300147Y-121774354D01*
X160201544Y-121626784D01*
X160133624Y-121462812D01*
X160099000Y-121288741D01*
X160099000Y-121111259D01*
X160133624Y-120937188D01*
X160201544Y-120773216D01*
X160300147Y-120625646D01*
X160425646Y-120500147D01*
X160573216Y-120401544D01*
X160737188Y-120333624D01*
X160886488Y-120303927D01*
X160911258Y-120299000D01*
X161088742Y-120299000D01*
X161113512Y-120303927D01*
G37*
G36*
X107212189Y-121249801D02*
G01*
X106194074Y-121671518D01*
X105581015Y-120191463D01*
X106599130Y-119769746D01*
X107212189Y-121249801D01*
G37*
G36*
X190192068Y-119882616D02*
G01*
X189579009Y-121362671D01*
X188560894Y-120940954D01*
X189173953Y-119460899D01*
X190192068Y-119882616D01*
G37*
G36*
X110168604Y-120025214D02*
G01*
X109150489Y-120446931D01*
X108537430Y-118966876D01*
X109555545Y-118545159D01*
X110168604Y-120025214D01*
G37*
G36*
X153913512Y-117813927D02*
G01*
X154062812Y-117843624D01*
X154226784Y-117911544D01*
X154374354Y-118010147D01*
X154499853Y-118135646D01*
X154598456Y-118283216D01*
X154666376Y-118447188D01*
X154701000Y-118621259D01*
X154701000Y-118798741D01*
X154666376Y-118972812D01*
X154598456Y-119136784D01*
X154499853Y-119284354D01*
X154374354Y-119409853D01*
X154226784Y-119508456D01*
X154062812Y-119576376D01*
X153913512Y-119606073D01*
X153888742Y-119611000D01*
X153711258Y-119611000D01*
X153686488Y-119606073D01*
X153537188Y-119576376D01*
X153373216Y-119508456D01*
X153225646Y-119409853D01*
X153100147Y-119284354D01*
X153001544Y-119136784D01*
X152933624Y-118972812D01*
X152899000Y-118798741D01*
X152899000Y-118621259D01*
X152933624Y-118447188D01*
X153001544Y-118283216D01*
X153100147Y-118135646D01*
X153225646Y-118010147D01*
X153373216Y-117911544D01*
X153537188Y-117843624D01*
X153686488Y-117813927D01*
X153711258Y-117809000D01*
X153888742Y-117809000D01*
X153913512Y-117813927D01*
G37*
G36*
X148833512Y-117813927D02*
G01*
X148982812Y-117843624D01*
X149146784Y-117911544D01*
X149294354Y-118010147D01*
X149419853Y-118135646D01*
X149518456Y-118283216D01*
X149586376Y-118447188D01*
X149621000Y-118621259D01*
X149621000Y-118798741D01*
X149586376Y-118972812D01*
X149518456Y-119136784D01*
X149419853Y-119284354D01*
X149294354Y-119409853D01*
X149146784Y-119508456D01*
X148982812Y-119576376D01*
X148833512Y-119606073D01*
X148808742Y-119611000D01*
X148631258Y-119611000D01*
X148606488Y-119606073D01*
X148457188Y-119576376D01*
X148293216Y-119508456D01*
X148145646Y-119409853D01*
X148020147Y-119284354D01*
X147921544Y-119136784D01*
X147853624Y-118972812D01*
X147819000Y-118798741D01*
X147819000Y-118621259D01*
X147853624Y-118447188D01*
X147921544Y-118283216D01*
X148020147Y-118135646D01*
X148145646Y-118010147D01*
X148293216Y-117911544D01*
X148457188Y-117843624D01*
X148606488Y-117813927D01*
X148631258Y-117809000D01*
X148808742Y-117809000D01*
X148833512Y-117813927D01*
G37*
G36*
X151373512Y-117813927D02*
G01*
X151522812Y-117843624D01*
X151686784Y-117911544D01*
X151834354Y-118010147D01*
X151959853Y-118135646D01*
X152058456Y-118283216D01*
X152126376Y-118447188D01*
X152161000Y-118621259D01*
X152161000Y-118798741D01*
X152126376Y-118972812D01*
X152058456Y-119136784D01*
X151959853Y-119284354D01*
X151834354Y-119409853D01*
X151686784Y-119508456D01*
X151522812Y-119576376D01*
X151373512Y-119606073D01*
X151348742Y-119611000D01*
X151171258Y-119611000D01*
X151146488Y-119606073D01*
X150997188Y-119576376D01*
X150833216Y-119508456D01*
X150685646Y-119409853D01*
X150560147Y-119284354D01*
X150461544Y-119136784D01*
X150393624Y-118972812D01*
X150359000Y-118798741D01*
X150359000Y-118621259D01*
X150393624Y-118447188D01*
X150461544Y-118283216D01*
X150560147Y-118135646D01*
X150685646Y-118010147D01*
X150833216Y-117911544D01*
X150997188Y-117843624D01*
X151146488Y-117813927D01*
X151171258Y-117809000D01*
X151348742Y-117809000D01*
X151373512Y-117813927D01*
G37*
G36*
X146293512Y-117813927D02*
G01*
X146442812Y-117843624D01*
X146606784Y-117911544D01*
X146754354Y-118010147D01*
X146879853Y-118135646D01*
X146978456Y-118283216D01*
X147046376Y-118447188D01*
X147081000Y-118621259D01*
X147081000Y-118798741D01*
X147046376Y-118972812D01*
X146978456Y-119136784D01*
X146879853Y-119284354D01*
X146754354Y-119409853D01*
X146606784Y-119508456D01*
X146442812Y-119576376D01*
X146293512Y-119606073D01*
X146268742Y-119611000D01*
X146091258Y-119611000D01*
X146066488Y-119606073D01*
X145917188Y-119576376D01*
X145753216Y-119508456D01*
X145605646Y-119409853D01*
X145480147Y-119284354D01*
X145381544Y-119136784D01*
X145313624Y-118972812D01*
X145279000Y-118798741D01*
X145279000Y-118621259D01*
X145313624Y-118447188D01*
X145381544Y-118283216D01*
X145480147Y-118135646D01*
X145605646Y-118010147D01*
X145753216Y-117911544D01*
X145917188Y-117843624D01*
X146066488Y-117813927D01*
X146091258Y-117809000D01*
X146268742Y-117809000D01*
X146293512Y-117813927D01*
G37*
G36*
X161113512Y-117763927D02*
G01*
X161262812Y-117793624D01*
X161426784Y-117861544D01*
X161574354Y-117960147D01*
X161699853Y-118085646D01*
X161798456Y-118233216D01*
X161866376Y-118397188D01*
X161901000Y-118571259D01*
X161901000Y-118748741D01*
X161866376Y-118922812D01*
X161798456Y-119086784D01*
X161699853Y-119234354D01*
X161574354Y-119359853D01*
X161426784Y-119458456D01*
X161262812Y-119526376D01*
X161113512Y-119556073D01*
X161088742Y-119561000D01*
X160911258Y-119561000D01*
X160886488Y-119556073D01*
X160737188Y-119526376D01*
X160573216Y-119458456D01*
X160425646Y-119359853D01*
X160300147Y-119234354D01*
X160201544Y-119086784D01*
X160133624Y-118922812D01*
X160099000Y-118748741D01*
X160099000Y-118571259D01*
X160133624Y-118397188D01*
X160201544Y-118233216D01*
X160300147Y-118085646D01*
X160425646Y-117960147D01*
X160573216Y-117861544D01*
X160737188Y-117793624D01*
X160886488Y-117763927D01*
X160911258Y-117759000D01*
X161088742Y-117759000D01*
X161113512Y-117763927D01*
G37*
G36*
X111904867Y-118222700D02*
G01*
X111938847Y-118233008D01*
X111970163Y-118249747D01*
X111997615Y-118272276D01*
X112020142Y-118299725D01*
X112039792Y-118336488D01*
X112061355Y-118388546D01*
X112061360Y-118388555D01*
X112160749Y-118628503D01*
X112269869Y-118891942D01*
X112281968Y-118931824D01*
X112285448Y-118967165D01*
X112281968Y-119002505D01*
X112271660Y-119036484D01*
X112254919Y-119067804D01*
X112232393Y-119095254D01*
X112204943Y-119117781D01*
X112168180Y-119137431D01*
X112116118Y-119158996D01*
X112116112Y-119158999D01*
X111595506Y-119374641D01*
X111595501Y-119374642D01*
X111543435Y-119396209D01*
X111503553Y-119408308D01*
X111468212Y-119411788D01*
X111432871Y-119408308D01*
X111398891Y-119398000D01*
X111367575Y-119381261D01*
X111340123Y-119358732D01*
X111317596Y-119331283D01*
X111297946Y-119294520D01*
X111276383Y-119242462D01*
X111276378Y-119242453D01*
X111143280Y-118921123D01*
X111067869Y-118739066D01*
X111055770Y-118699184D01*
X111052290Y-118663843D01*
X111055770Y-118628503D01*
X111066078Y-118594524D01*
X111082819Y-118563204D01*
X111105345Y-118535754D01*
X111132795Y-118513227D01*
X111169558Y-118493577D01*
X111221620Y-118472012D01*
X111221626Y-118472009D01*
X111742232Y-118256367D01*
X111742237Y-118256366D01*
X111794303Y-118234799D01*
X111834185Y-118222700D01*
X111869526Y-118219220D01*
X111904867Y-118222700D01*
G37*
G36*
X195023632Y-116580194D02*
G01*
X194410573Y-118060249D01*
X193392458Y-117638532D01*
X194005517Y-116158477D01*
X195023632Y-116580194D01*
G37*
G36*
X111302141Y-116767590D02*
G01*
X111336121Y-116777898D01*
X111367437Y-116794637D01*
X111394889Y-116817166D01*
X111417416Y-116844615D01*
X111437066Y-116881378D01*
X111458629Y-116933436D01*
X111458634Y-116933445D01*
X111558023Y-117173393D01*
X111667143Y-117436832D01*
X111679242Y-117476714D01*
X111682722Y-117512055D01*
X111679242Y-117547395D01*
X111668934Y-117581374D01*
X111652193Y-117612694D01*
X111629667Y-117640144D01*
X111602217Y-117662671D01*
X111565454Y-117682321D01*
X111513392Y-117703886D01*
X111513386Y-117703889D01*
X110992780Y-117919531D01*
X110992775Y-117919532D01*
X110940709Y-117941099D01*
X110900827Y-117953198D01*
X110865486Y-117956678D01*
X110830145Y-117953198D01*
X110796165Y-117942890D01*
X110764849Y-117926151D01*
X110737397Y-117903622D01*
X110714870Y-117876173D01*
X110695220Y-117839410D01*
X110673657Y-117787352D01*
X110673652Y-117787343D01*
X110540554Y-117466013D01*
X110465143Y-117283956D01*
X110453044Y-117244074D01*
X110449564Y-117208733D01*
X110453044Y-117173393D01*
X110463352Y-117139414D01*
X110480093Y-117108094D01*
X110502619Y-117080644D01*
X110530069Y-117058117D01*
X110566832Y-117038467D01*
X110618894Y-117016902D01*
X110618900Y-117016899D01*
X111139506Y-116801257D01*
X111139511Y-116801256D01*
X111191577Y-116779689D01*
X111231459Y-116767590D01*
X111266800Y-116764110D01*
X111302141Y-116767590D01*
G37*
G36*
X105337040Y-116722792D02*
G01*
X104318925Y-117144509D01*
X103705866Y-115664454D01*
X104723981Y-115242737D01*
X105337040Y-116722792D01*
G37*
G36*
X161113512Y-115223927D02*
G01*
X161262812Y-115253624D01*
X161426784Y-115321544D01*
X161574354Y-115420147D01*
X161699853Y-115545646D01*
X161798456Y-115693216D01*
X161866376Y-115857188D01*
X161901000Y-116031259D01*
X161901000Y-116208741D01*
X161866376Y-116382812D01*
X161798456Y-116546784D01*
X161699853Y-116694354D01*
X161574354Y-116819853D01*
X161426784Y-116918456D01*
X161262812Y-116986376D01*
X161113512Y-117016073D01*
X161088742Y-117021000D01*
X160911258Y-117021000D01*
X160886488Y-117016073D01*
X160737188Y-116986376D01*
X160573216Y-116918456D01*
X160425646Y-116819853D01*
X160300147Y-116694354D01*
X160201544Y-116546784D01*
X160133624Y-116382812D01*
X160099000Y-116208741D01*
X160099000Y-116031259D01*
X160133624Y-115857188D01*
X160201544Y-115693216D01*
X160300147Y-115545646D01*
X160425646Y-115420147D01*
X160573216Y-115321544D01*
X160737188Y-115253624D01*
X160886488Y-115223927D01*
X160911258Y-115219000D01*
X161088742Y-115219000D01*
X161113512Y-115223927D01*
G37*
G36*
X192067217Y-115355607D02*
G01*
X191454158Y-116835662D01*
X190436043Y-116413945D01*
X191049102Y-114933890D01*
X192067217Y-115355607D01*
G37*
G36*
X188382995Y-115546858D02*
G01*
X188422877Y-115558957D01*
X188474943Y-115580524D01*
X188474948Y-115580525D01*
X188995554Y-115796167D01*
X188995560Y-115796170D01*
X189047622Y-115817735D01*
X189084385Y-115837385D01*
X189111834Y-115859912D01*
X189134363Y-115887364D01*
X189151102Y-115918680D01*
X189161410Y-115952660D01*
X189164890Y-115988001D01*
X189161410Y-116023342D01*
X189149311Y-116063224D01*
X189073900Y-116245281D01*
X188940802Y-116566611D01*
X188940797Y-116566620D01*
X188919234Y-116618678D01*
X188899584Y-116655441D01*
X188877057Y-116682891D01*
X188849607Y-116705417D01*
X188818287Y-116722158D01*
X188784308Y-116732466D01*
X188748968Y-116735946D01*
X188713627Y-116732466D01*
X188673745Y-116720367D01*
X188621679Y-116698800D01*
X188621674Y-116698799D01*
X188101068Y-116483157D01*
X188101062Y-116483154D01*
X188049000Y-116461589D01*
X188012237Y-116441939D01*
X187984788Y-116419412D01*
X187962259Y-116391960D01*
X187945520Y-116360644D01*
X187935212Y-116326664D01*
X187931732Y-116291323D01*
X187935212Y-116255982D01*
X187947311Y-116216100D01*
X188047520Y-115974174D01*
X188155820Y-115712713D01*
X188155825Y-115712704D01*
X188177388Y-115660646D01*
X188197038Y-115623883D01*
X188219565Y-115596433D01*
X188247015Y-115573907D01*
X188278335Y-115557166D01*
X188312314Y-115546858D01*
X188347654Y-115543378D01*
X188382995Y-115546858D01*
G37*
G36*
X108293455Y-115498205D02*
G01*
X107275340Y-115919922D01*
X106662281Y-114439867D01*
X107680396Y-114018150D01*
X108293455Y-115498205D01*
G37*
G36*
X188985721Y-114091748D02*
G01*
X189025603Y-114103847D01*
X189077669Y-114125414D01*
X189077674Y-114125415D01*
X189598280Y-114341057D01*
X189598286Y-114341060D01*
X189650348Y-114362625D01*
X189687111Y-114382275D01*
X189714560Y-114404802D01*
X189737089Y-114432254D01*
X189753828Y-114463570D01*
X189764136Y-114497550D01*
X189767616Y-114532891D01*
X189764136Y-114568232D01*
X189752037Y-114608114D01*
X189676626Y-114790171D01*
X189543528Y-115111501D01*
X189543523Y-115111510D01*
X189521960Y-115163568D01*
X189502310Y-115200331D01*
X189479783Y-115227781D01*
X189452333Y-115250307D01*
X189421013Y-115267048D01*
X189387034Y-115277356D01*
X189351694Y-115280836D01*
X189316353Y-115277356D01*
X189276471Y-115265257D01*
X189224405Y-115243690D01*
X189224400Y-115243689D01*
X188703794Y-115028047D01*
X188703788Y-115028044D01*
X188651726Y-115006479D01*
X188614963Y-114986829D01*
X188587514Y-114964302D01*
X188564985Y-114936850D01*
X188548246Y-114905534D01*
X188537938Y-114871554D01*
X188534458Y-114836213D01*
X188537938Y-114800872D01*
X188550037Y-114760990D01*
X188650246Y-114519064D01*
X188758546Y-114257603D01*
X188758551Y-114257594D01*
X188780114Y-114205536D01*
X188799764Y-114168773D01*
X188822291Y-114141323D01*
X188849741Y-114118797D01*
X188881061Y-114102056D01*
X188915040Y-114091748D01*
X188950380Y-114088268D01*
X188985721Y-114091748D01*
G37*
G36*
X161113512Y-112683927D02*
G01*
X161262812Y-112713624D01*
X161426784Y-112781544D01*
X161574354Y-112880147D01*
X161699853Y-113005646D01*
X161798456Y-113153216D01*
X161866376Y-113317188D01*
X161901000Y-113491259D01*
X161901000Y-113668741D01*
X161866376Y-113842812D01*
X161798456Y-114006784D01*
X161699853Y-114154354D01*
X161574354Y-114279853D01*
X161426784Y-114378456D01*
X161262812Y-114446376D01*
X161113512Y-114476073D01*
X161088742Y-114481000D01*
X160911258Y-114481000D01*
X160886488Y-114476073D01*
X160737188Y-114446376D01*
X160573216Y-114378456D01*
X160425646Y-114279853D01*
X160300147Y-114154354D01*
X160201544Y-114006784D01*
X160133624Y-113842812D01*
X160099000Y-113668741D01*
X160099000Y-113491259D01*
X160133624Y-113317188D01*
X160201544Y-113153216D01*
X160300147Y-113005646D01*
X160425646Y-112880147D01*
X160573216Y-112781544D01*
X160737188Y-112713624D01*
X160886488Y-112683927D01*
X160911258Y-112679000D01*
X161088742Y-112679000D01*
X161113512Y-112683927D01*
G37*
G36*
X196018655Y-112204641D02*
G01*
X195707491Y-113776132D01*
X194626477Y-113562085D01*
X194937641Y-111990594D01*
X196018655Y-112204641D01*
G37*
G36*
X192879599Y-111583091D02*
G01*
X192568435Y-113154582D01*
X191487421Y-112940535D01*
X191798585Y-111369044D01*
X192879599Y-111583091D01*
G37*
G36*
X104061825Y-112612699D02*
G01*
X102981187Y-112828632D01*
X102667281Y-111257687D01*
X103747919Y-111041754D01*
X104061825Y-112612699D01*
G37*
G36*
X107199792Y-111985671D02*
G01*
X106119154Y-112201604D01*
X105805248Y-110630659D01*
X106885886Y-110414726D01*
X107199792Y-111985671D01*
G37*
G36*
X161113512Y-110143927D02*
G01*
X161262812Y-110173624D01*
X161426784Y-110241544D01*
X161574354Y-110340147D01*
X161699853Y-110465646D01*
X161798456Y-110613216D01*
X161866376Y-110777188D01*
X161901000Y-110951259D01*
X161901000Y-111128741D01*
X161866376Y-111302812D01*
X161798456Y-111466784D01*
X161699853Y-111614354D01*
X161574354Y-111739853D01*
X161426784Y-111838456D01*
X161262812Y-111906376D01*
X161113512Y-111936073D01*
X161088742Y-111941000D01*
X160911258Y-111941000D01*
X160886488Y-111936073D01*
X160737188Y-111906376D01*
X160573216Y-111838456D01*
X160425646Y-111739853D01*
X160300147Y-111614354D01*
X160201544Y-111466784D01*
X160133624Y-111302812D01*
X160099000Y-111128741D01*
X160099000Y-110951259D01*
X160133624Y-110777188D01*
X160201544Y-110613216D01*
X160300147Y-110465646D01*
X160425646Y-110340147D01*
X160573216Y-110241544D01*
X160737188Y-110173624D01*
X160886488Y-110143927D01*
X160911258Y-110139000D01*
X161088742Y-110139000D01*
X161113512Y-110143927D01*
G37*
G36*
X109352456Y-110599385D02*
G01*
X109386447Y-110609664D01*
X109417781Y-110626377D01*
X109445244Y-110648875D01*
X109467800Y-110676311D01*
X109484567Y-110707614D01*
X109496701Y-110747490D01*
X109614509Y-111337058D01*
X109618629Y-111378525D01*
X109615179Y-111413872D01*
X109604900Y-111447863D01*
X109588187Y-111479197D01*
X109565689Y-111506660D01*
X109538253Y-111529216D01*
X109506950Y-111545983D01*
X109467074Y-111558117D01*
X108803960Y-111690621D01*
X108762493Y-111694741D01*
X108727146Y-111691291D01*
X108693155Y-111681012D01*
X108661821Y-111664299D01*
X108634358Y-111641801D01*
X108611802Y-111614365D01*
X108595035Y-111583062D01*
X108582901Y-111543186D01*
X108465093Y-110953618D01*
X108460973Y-110912151D01*
X108464423Y-110876804D01*
X108474702Y-110842813D01*
X108491415Y-110811479D01*
X108513913Y-110784016D01*
X108541349Y-110761460D01*
X108572652Y-110744693D01*
X108612528Y-110732559D01*
X109275642Y-110600055D01*
X109317109Y-110595935D01*
X109352456Y-110599385D01*
G37*
G36*
X109043840Y-109054917D02*
G01*
X109077831Y-109065196D01*
X109109165Y-109081909D01*
X109136628Y-109104407D01*
X109159184Y-109131843D01*
X109175951Y-109163146D01*
X109188085Y-109203022D01*
X109305893Y-109792590D01*
X109310013Y-109834057D01*
X109306563Y-109869404D01*
X109296284Y-109903395D01*
X109279571Y-109934729D01*
X109257073Y-109962192D01*
X109229637Y-109984748D01*
X109198334Y-110001515D01*
X109158458Y-110013649D01*
X108495344Y-110146153D01*
X108453877Y-110150273D01*
X108418530Y-110146823D01*
X108384539Y-110136544D01*
X108353205Y-110119831D01*
X108325742Y-110097333D01*
X108303186Y-110069897D01*
X108286419Y-110038594D01*
X108274285Y-109998718D01*
X108156477Y-109409150D01*
X108152357Y-109367683D01*
X108155807Y-109332336D01*
X108166086Y-109298345D01*
X108182799Y-109267011D01*
X108205297Y-109239548D01*
X108232733Y-109216992D01*
X108264036Y-109200225D01*
X108303912Y-109188091D01*
X108967026Y-109055587D01*
X109008493Y-109051467D01*
X109043840Y-109054917D01*
G37*
G36*
X161901000Y-109401000D02*
G01*
X160099000Y-109401000D01*
X160099000Y-107599000D01*
X161901000Y-107599000D01*
X161901000Y-109401000D01*
G37*
G36*
X196970403Y-107397961D02*
G01*
X196659239Y-108969452D01*
X195578225Y-108755405D01*
X195889389Y-107183914D01*
X196970403Y-107397961D01*
G37*
G36*
X190307902Y-107740395D02*
G01*
X190971228Y-107871737D01*
X191011132Y-107883804D01*
X191042466Y-107900517D01*
X191069929Y-107923015D01*
X191092485Y-107950451D01*
X191109252Y-107981754D01*
X191119591Y-108015728D01*
X191123101Y-108051058D01*
X191119051Y-108092553D01*
X191002275Y-108682311D01*
X190990210Y-108722209D01*
X190973496Y-108753545D01*
X190950995Y-108781011D01*
X190923562Y-108803565D01*
X190892259Y-108820332D01*
X190858285Y-108830671D01*
X190822955Y-108834181D01*
X190781460Y-108830131D01*
X190118134Y-108698789D01*
X190078230Y-108686722D01*
X190046896Y-108670009D01*
X190019433Y-108647511D01*
X189996877Y-108620075D01*
X189980110Y-108588772D01*
X189969771Y-108554798D01*
X189966261Y-108519468D01*
X189970311Y-108477973D01*
X190087087Y-107888215D01*
X190099152Y-107848317D01*
X190115866Y-107816981D01*
X190138367Y-107789515D01*
X190165800Y-107766961D01*
X190197103Y-107750194D01*
X190231077Y-107739855D01*
X190266407Y-107736345D01*
X190307902Y-107740395D01*
G37*
G36*
X193831347Y-106776411D02*
G01*
X193520183Y-108347902D01*
X192439169Y-108133855D01*
X192750333Y-106562364D01*
X193831347Y-106776411D01*
G37*
G36*
X103101688Y-107807687D02*
G01*
X102021050Y-108023620D01*
X101707144Y-106452675D01*
X102787782Y-106236742D01*
X103101688Y-107807687D01*
G37*
G36*
X106239655Y-107180659D02*
G01*
X105159017Y-107396592D01*
X104845111Y-105825647D01*
X105925749Y-105609714D01*
X106239655Y-107180659D01*
G37*
G36*
X190613822Y-106195391D02*
G01*
X191277148Y-106326733D01*
X191317052Y-106338800D01*
X191348386Y-106355513D01*
X191375849Y-106378011D01*
X191398405Y-106405447D01*
X191415172Y-106436750D01*
X191425511Y-106470724D01*
X191429021Y-106506054D01*
X191424971Y-106547549D01*
X191308195Y-107137307D01*
X191296130Y-107177205D01*
X191279416Y-107208541D01*
X191256915Y-107236007D01*
X191229482Y-107258561D01*
X191198179Y-107275328D01*
X191164205Y-107285667D01*
X191128875Y-107289177D01*
X191087380Y-107285127D01*
X190424054Y-107153785D01*
X190384150Y-107141718D01*
X190352816Y-107125005D01*
X190325353Y-107102507D01*
X190302797Y-107075071D01*
X190286030Y-107043768D01*
X190275691Y-107009794D01*
X190272181Y-106974464D01*
X190276231Y-106932969D01*
X190393007Y-106343211D01*
X190405072Y-106303313D01*
X190421786Y-106271977D01*
X190444287Y-106244511D01*
X190471720Y-106221957D01*
X190503023Y-106205190D01*
X190536997Y-106194851D01*
X190572327Y-106191341D01*
X190613822Y-106195391D01*
G37*
G36*
X182351000Y-106172218D02*
G01*
X182353402Y-106196604D01*
X182360515Y-106220053D01*
X182372066Y-106241664D01*
X182387611Y-106260606D01*
X182406553Y-106276151D01*
X182428164Y-106287702D01*
X182451613Y-106294815D01*
X182475999Y-106297217D01*
X182500385Y-106294815D01*
X182523834Y-106287702D01*
X182545445Y-106276151D01*
X182564387Y-106260606D01*
X182579932Y-106241664D01*
X182642009Y-106148760D01*
X182642010Y-106148758D01*
X182718758Y-106072010D01*
X182809004Y-106011710D01*
X182809005Y-106011709D01*
X182909279Y-105970174D01*
X183015730Y-105949000D01*
X183124270Y-105949000D01*
X183230721Y-105970174D01*
X183330995Y-106011709D01*
X183330996Y-106011710D01*
X183421242Y-106072010D01*
X183497990Y-106148758D01*
X183497991Y-106148760D01*
X183558291Y-106239005D01*
X183589516Y-106314389D01*
X183601067Y-106336000D01*
X183616612Y-106354941D01*
X183635554Y-106370487D01*
X183657165Y-106382038D01*
X183680614Y-106389151D01*
X183705000Y-106391553D01*
X183729386Y-106389151D01*
X183752835Y-106382038D01*
X183774446Y-106370487D01*
X183793387Y-106354942D01*
X183808933Y-106336000D01*
X183820484Y-106314389D01*
X183851709Y-106239005D01*
X183912009Y-106148760D01*
X183912010Y-106148758D01*
X183988758Y-106072010D01*
X184079004Y-106011710D01*
X184079005Y-106011709D01*
X184179279Y-105970174D01*
X184285730Y-105949000D01*
X184394270Y-105949000D01*
X184500721Y-105970174D01*
X184600995Y-106011709D01*
X184600996Y-106011710D01*
X184691242Y-106072010D01*
X184767990Y-106148758D01*
X184767991Y-106148760D01*
X184828291Y-106239005D01*
X184869826Y-106339279D01*
X184891000Y-106445730D01*
X184891000Y-106554270D01*
X184869826Y-106660721D01*
X184828291Y-106760995D01*
X184828290Y-106760996D01*
X184767990Y-106851242D01*
X184691242Y-106927990D01*
X184683790Y-106932969D01*
X184600995Y-106988291D01*
X184500721Y-107029826D01*
X184394270Y-107051000D01*
X184285730Y-107051000D01*
X184179279Y-107029826D01*
X184079005Y-106988291D01*
X183996210Y-106932969D01*
X183988758Y-106927990D01*
X183912010Y-106851242D01*
X183851710Y-106760996D01*
X183851709Y-106760995D01*
X183820484Y-106685611D01*
X183808933Y-106664000D01*
X183793388Y-106645059D01*
X183774446Y-106629513D01*
X183752835Y-106617962D01*
X183729386Y-106610849D01*
X183705000Y-106608447D01*
X183680614Y-106610849D01*
X183657165Y-106617962D01*
X183635554Y-106629513D01*
X183616613Y-106645058D01*
X183601067Y-106664000D01*
X183589516Y-106685611D01*
X183558291Y-106760995D01*
X183558290Y-106760996D01*
X183497990Y-106851242D01*
X183421242Y-106927990D01*
X183413790Y-106932969D01*
X183330995Y-106988291D01*
X183230721Y-107029826D01*
X183124270Y-107051000D01*
X183015730Y-107051000D01*
X182909279Y-107029826D01*
X182809005Y-106988291D01*
X182726210Y-106932969D01*
X182718758Y-106927990D01*
X182642010Y-106851242D01*
X182621012Y-106819816D01*
X182579932Y-106758336D01*
X182564386Y-106739394D01*
X182545444Y-106723849D01*
X182523833Y-106712298D01*
X182500385Y-106705185D01*
X182475998Y-106702783D01*
X182451612Y-106705185D01*
X182428163Y-106712298D01*
X182406553Y-106723849D01*
X182387611Y-106739395D01*
X182372066Y-106758337D01*
X182360515Y-106779948D01*
X182353402Y-106803396D01*
X182351000Y-106827782D01*
X182351000Y-107051000D01*
X181249000Y-107051000D01*
X181249000Y-105949000D01*
X182351000Y-105949000D01*
X182351000Y-106172218D01*
G37*
G36*
X115942091Y-103978085D02*
G01*
X115976069Y-103988393D01*
X116007390Y-104005134D01*
X116034839Y-104027661D01*
X116057366Y-104055110D01*
X116074107Y-104086431D01*
X116084415Y-104120409D01*
X116088500Y-104161890D01*
X116088500Y-104838110D01*
X116084415Y-104879591D01*
X116074107Y-104913569D01*
X116057366Y-104944890D01*
X116034839Y-104972339D01*
X116007390Y-104994866D01*
X115976069Y-105011607D01*
X115942091Y-105021915D01*
X115900610Y-105026000D01*
X115299390Y-105026000D01*
X115257909Y-105021915D01*
X115223931Y-105011607D01*
X115192610Y-104994866D01*
X115165161Y-104972339D01*
X115142634Y-104944890D01*
X115125893Y-104913569D01*
X115115585Y-104879591D01*
X115111500Y-104838110D01*
X115111500Y-104161890D01*
X115115585Y-104120409D01*
X115125893Y-104086431D01*
X115142634Y-104055110D01*
X115165161Y-104027661D01*
X115192610Y-104005134D01*
X115223931Y-103988393D01*
X115257909Y-103978085D01*
X115299390Y-103974000D01*
X115900610Y-103974000D01*
X115942091Y-103978085D01*
G37*
G36*
X114367091Y-103978085D02*
G01*
X114401069Y-103988393D01*
X114432390Y-104005134D01*
X114459839Y-104027661D01*
X114482366Y-104055110D01*
X114499107Y-104086431D01*
X114509415Y-104120409D01*
X114513500Y-104161890D01*
X114513500Y-104838110D01*
X114509415Y-104879591D01*
X114499107Y-104913569D01*
X114482366Y-104944890D01*
X114459839Y-104972339D01*
X114432390Y-104994866D01*
X114401069Y-105011607D01*
X114367091Y-105021915D01*
X114325610Y-105026000D01*
X113724390Y-105026000D01*
X113682909Y-105021915D01*
X113648931Y-105011607D01*
X113617610Y-104994866D01*
X113590161Y-104972339D01*
X113567634Y-104944890D01*
X113550893Y-104913569D01*
X113540585Y-104879591D01*
X113536500Y-104838110D01*
X113536500Y-104161890D01*
X113540585Y-104120409D01*
X113550893Y-104086431D01*
X113567634Y-104055110D01*
X113590161Y-104027661D01*
X113617610Y-104005134D01*
X113648931Y-103988393D01*
X113682909Y-103978085D01*
X113724390Y-103974000D01*
X114325610Y-103974000D01*
X114367091Y-103978085D01*
G37*
G36*
X171413512Y-102923927D02*
G01*
X171562812Y-102953624D01*
X171726784Y-103021544D01*
X171874354Y-103120147D01*
X171999853Y-103245646D01*
X172098456Y-103393216D01*
X172166376Y-103557188D01*
X172201000Y-103731259D01*
X172201000Y-103908741D01*
X172166376Y-104082812D01*
X172098456Y-104246784D01*
X171999853Y-104394354D01*
X171874354Y-104519853D01*
X171726784Y-104618456D01*
X171562812Y-104686376D01*
X171413512Y-104716073D01*
X171388742Y-104721000D01*
X171211258Y-104721000D01*
X171186488Y-104716073D01*
X171037188Y-104686376D01*
X170873216Y-104618456D01*
X170725646Y-104519853D01*
X170600147Y-104394354D01*
X170501544Y-104246784D01*
X170433624Y-104082812D01*
X170399000Y-103908741D01*
X170399000Y-103731259D01*
X170433624Y-103557188D01*
X170501544Y-103393216D01*
X170600147Y-103245646D01*
X170725646Y-103120147D01*
X170873216Y-103021544D01*
X171037188Y-102953624D01*
X171186488Y-102923927D01*
X171211258Y-102919000D01*
X171388742Y-102919000D01*
X171413512Y-102923927D01*
G37*
G36*
X168873512Y-102923927D02*
G01*
X169022812Y-102953624D01*
X169186784Y-103021544D01*
X169334354Y-103120147D01*
X169459853Y-103245646D01*
X169558456Y-103393216D01*
X169626376Y-103557188D01*
X169661000Y-103731259D01*
X169661000Y-103908741D01*
X169626376Y-104082812D01*
X169558456Y-104246784D01*
X169459853Y-104394354D01*
X169334354Y-104519853D01*
X169186784Y-104618456D01*
X169022812Y-104686376D01*
X168873512Y-104716073D01*
X168848742Y-104721000D01*
X168671258Y-104721000D01*
X168646488Y-104716073D01*
X168497188Y-104686376D01*
X168333216Y-104618456D01*
X168185646Y-104519853D01*
X168060147Y-104394354D01*
X167961544Y-104246784D01*
X167893624Y-104082812D01*
X167859000Y-103908741D01*
X167859000Y-103731259D01*
X167893624Y-103557188D01*
X167961544Y-103393216D01*
X168060147Y-103245646D01*
X168185646Y-103120147D01*
X168333216Y-103021544D01*
X168497188Y-102953624D01*
X168646488Y-102923927D01*
X168671258Y-102919000D01*
X168848742Y-102919000D01*
X168873512Y-102923927D01*
G37*
G36*
X131353512Y-102903927D02*
G01*
X131502812Y-102933624D01*
X131666784Y-103001544D01*
X131814354Y-103100147D01*
X131939853Y-103225646D01*
X132038456Y-103373216D01*
X132106376Y-103537188D01*
X132141000Y-103711259D01*
X132141000Y-103888741D01*
X132106376Y-104062812D01*
X132038456Y-104226784D01*
X131939853Y-104374354D01*
X131814354Y-104499853D01*
X131666784Y-104598456D01*
X131502812Y-104666376D01*
X131353512Y-104696073D01*
X131328742Y-104701000D01*
X131151258Y-104701000D01*
X131126488Y-104696073D01*
X130977188Y-104666376D01*
X130813216Y-104598456D01*
X130665646Y-104499853D01*
X130540147Y-104374354D01*
X130441544Y-104226784D01*
X130373624Y-104062812D01*
X130339000Y-103888741D01*
X130339000Y-103711259D01*
X130373624Y-103537188D01*
X130441544Y-103373216D01*
X130540147Y-103225646D01*
X130665646Y-103100147D01*
X130813216Y-103001544D01*
X130977188Y-102933624D01*
X131126488Y-102903927D01*
X131151258Y-102899000D01*
X131328742Y-102899000D01*
X131353512Y-102903927D01*
G37*
G36*
X129601000Y-104701000D02*
G01*
X127799000Y-104701000D01*
X127799000Y-102899000D01*
X129601000Y-102899000D01*
X129601000Y-104701000D01*
G37*
G36*
X197551000Y-104556595D02*
G01*
X196449000Y-104556595D01*
X196449000Y-102954595D01*
X197551000Y-102954595D01*
X197551000Y-104556595D01*
G37*
G36*
X194351000Y-104556595D02*
G01*
X193249000Y-104556595D01*
X193249000Y-102954595D01*
X194351000Y-102954595D01*
X194351000Y-104556595D01*
G37*
G36*
X108101496Y-102589990D02*
G01*
X108135474Y-102600298D01*
X108166795Y-102617039D01*
X108194244Y-102639566D01*
X108216771Y-102667015D01*
X108233512Y-102698336D01*
X108243820Y-102732314D01*
X108247905Y-102773795D01*
X108247905Y-103375015D01*
X108243820Y-103416496D01*
X108233512Y-103450474D01*
X108216771Y-103481795D01*
X108194244Y-103509244D01*
X108166795Y-103531771D01*
X108135474Y-103548512D01*
X108101496Y-103558820D01*
X108060015Y-103562905D01*
X107383795Y-103562905D01*
X107342314Y-103558820D01*
X107308336Y-103548512D01*
X107277015Y-103531771D01*
X107249566Y-103509244D01*
X107227039Y-103481795D01*
X107210298Y-103450474D01*
X107199990Y-103416496D01*
X107195905Y-103375015D01*
X107195905Y-102773795D01*
X107199990Y-102732314D01*
X107210298Y-102698336D01*
X107227039Y-102667015D01*
X107249566Y-102639566D01*
X107277015Y-102617039D01*
X107308336Y-102600298D01*
X107342314Y-102589990D01*
X107383795Y-102585905D01*
X108060015Y-102585905D01*
X108101496Y-102589990D01*
G37*
G36*
X102672905Y-103537905D02*
G01*
X101570905Y-103537905D01*
X101570905Y-101935905D01*
X102672905Y-101935905D01*
X102672905Y-103537905D01*
G37*
G36*
X105872905Y-103537905D02*
G01*
X104770905Y-103537905D01*
X104770905Y-101935905D01*
X105872905Y-101935905D01*
X105872905Y-103537905D01*
G37*
G36*
X115942091Y-101978085D02*
G01*
X115976069Y-101988393D01*
X116007390Y-102005134D01*
X116034839Y-102027661D01*
X116057366Y-102055110D01*
X116074107Y-102086431D01*
X116084415Y-102120409D01*
X116088500Y-102161890D01*
X116088500Y-102838110D01*
X116084415Y-102879591D01*
X116074107Y-102913569D01*
X116057366Y-102944890D01*
X116034839Y-102972339D01*
X116007390Y-102994866D01*
X115976069Y-103011607D01*
X115942091Y-103021915D01*
X115900610Y-103026000D01*
X115299390Y-103026000D01*
X115257909Y-103021915D01*
X115223931Y-103011607D01*
X115192610Y-102994866D01*
X115165161Y-102972339D01*
X115142634Y-102944890D01*
X115125893Y-102913569D01*
X115115585Y-102879591D01*
X115111500Y-102838110D01*
X115111500Y-102161890D01*
X115115585Y-102120409D01*
X115125893Y-102086431D01*
X115142634Y-102055110D01*
X115165161Y-102027661D01*
X115192610Y-102005134D01*
X115223931Y-101988393D01*
X115257909Y-101978085D01*
X115299390Y-101974000D01*
X115900610Y-101974000D01*
X115942091Y-101978085D01*
G37*
G36*
X114367091Y-101978085D02*
G01*
X114401069Y-101988393D01*
X114432390Y-102005134D01*
X114459839Y-102027661D01*
X114482366Y-102055110D01*
X114499107Y-102086431D01*
X114509415Y-102120409D01*
X114513500Y-102161890D01*
X114513500Y-102838110D01*
X114509415Y-102879591D01*
X114499107Y-102913569D01*
X114482366Y-102944890D01*
X114459839Y-102972339D01*
X114432390Y-102994866D01*
X114401069Y-103011607D01*
X114367091Y-103021915D01*
X114325610Y-103026000D01*
X113724390Y-103026000D01*
X113682909Y-103021915D01*
X113648931Y-103011607D01*
X113617610Y-102994866D01*
X113590161Y-102972339D01*
X113567634Y-102944890D01*
X113550893Y-102913569D01*
X113540585Y-102879591D01*
X113536500Y-102838110D01*
X113536500Y-102161890D01*
X113540585Y-102120409D01*
X113550893Y-102086431D01*
X113567634Y-102055110D01*
X113590161Y-102027661D01*
X113617610Y-102005134D01*
X113648931Y-101988393D01*
X113682909Y-101978085D01*
X113724390Y-101974000D01*
X114325610Y-101974000D01*
X114367091Y-101978085D01*
G37*
G36*
X195088467Y-101706782D02*
G01*
X195146136Y-101718253D01*
X195183902Y-101733896D01*
X195237311Y-101756019D01*
X195237312Y-101756020D01*
X195319369Y-101810848D01*
X195389152Y-101880631D01*
X195389153Y-101880633D01*
X195443981Y-101962689D01*
X195454628Y-101988393D01*
X195478299Y-102045539D01*
X195481747Y-102053865D01*
X195501000Y-102150655D01*
X195501000Y-102249345D01*
X195481747Y-102346135D01*
X195443981Y-102437311D01*
X195443980Y-102437312D01*
X195389152Y-102519369D01*
X195319369Y-102589152D01*
X195296403Y-102604497D01*
X195237311Y-102643981D01*
X195204808Y-102657444D01*
X195146136Y-102681747D01*
X195097740Y-102691373D01*
X195049345Y-102701000D01*
X194950655Y-102701000D01*
X194902260Y-102691373D01*
X194853864Y-102681747D01*
X194795192Y-102657444D01*
X194762689Y-102643981D01*
X194703597Y-102604497D01*
X194680631Y-102589152D01*
X194610848Y-102519369D01*
X194556020Y-102437312D01*
X194556019Y-102437311D01*
X194518253Y-102346135D01*
X194499000Y-102249345D01*
X194499000Y-102150655D01*
X194518253Y-102053865D01*
X194521702Y-102045539D01*
X194545372Y-101988393D01*
X194556019Y-101962689D01*
X194610847Y-101880633D01*
X194610848Y-101880631D01*
X194680631Y-101810848D01*
X194762688Y-101756020D01*
X194762689Y-101756019D01*
X194816098Y-101733896D01*
X194853864Y-101718253D01*
X194911533Y-101706782D01*
X194950655Y-101699000D01*
X195049345Y-101699000D01*
X195088467Y-101706782D01*
G37*
G36*
X168873512Y-100383927D02*
G01*
X169022812Y-100413624D01*
X169186784Y-100481544D01*
X169334354Y-100580147D01*
X169459853Y-100705646D01*
X169558456Y-100853216D01*
X169626376Y-101017188D01*
X169661000Y-101191259D01*
X169661000Y-101368741D01*
X169626376Y-101542812D01*
X169558456Y-101706784D01*
X169459853Y-101854354D01*
X169334354Y-101979853D01*
X169186784Y-102078456D01*
X169022812Y-102146376D01*
X168873512Y-102176073D01*
X168848742Y-102181000D01*
X168671258Y-102181000D01*
X168646488Y-102176073D01*
X168497188Y-102146376D01*
X168333216Y-102078456D01*
X168185646Y-101979853D01*
X168060147Y-101854354D01*
X167961544Y-101706784D01*
X167893624Y-101542812D01*
X167859000Y-101368741D01*
X167859000Y-101191259D01*
X167893624Y-101017188D01*
X167961544Y-100853216D01*
X168060147Y-100705646D01*
X168185646Y-100580147D01*
X168333216Y-100481544D01*
X168497188Y-100413624D01*
X168646488Y-100383927D01*
X168671258Y-100379000D01*
X168848742Y-100379000D01*
X168873512Y-100383927D01*
G37*
G36*
X171413512Y-100383927D02*
G01*
X171562812Y-100413624D01*
X171726784Y-100481544D01*
X171874354Y-100580147D01*
X171999853Y-100705646D01*
X172098456Y-100853216D01*
X172166376Y-101017188D01*
X172201000Y-101191259D01*
X172201000Y-101368741D01*
X172166376Y-101542812D01*
X172098456Y-101706784D01*
X171999853Y-101854354D01*
X171874354Y-101979853D01*
X171726784Y-102078456D01*
X171562812Y-102146376D01*
X171413512Y-102176073D01*
X171388742Y-102181000D01*
X171211258Y-102181000D01*
X171186488Y-102176073D01*
X171037188Y-102146376D01*
X170873216Y-102078456D01*
X170725646Y-101979853D01*
X170600147Y-101854354D01*
X170501544Y-101706784D01*
X170433624Y-101542812D01*
X170399000Y-101368741D01*
X170399000Y-101191259D01*
X170433624Y-101017188D01*
X170501544Y-100853216D01*
X170600147Y-100705646D01*
X170725646Y-100580147D01*
X170873216Y-100481544D01*
X171037188Y-100413624D01*
X171186488Y-100383927D01*
X171211258Y-100379000D01*
X171388742Y-100379000D01*
X171413512Y-100383927D01*
G37*
G36*
X131353512Y-100363927D02*
G01*
X131502812Y-100393624D01*
X131666784Y-100461544D01*
X131814354Y-100560147D01*
X131939853Y-100685646D01*
X132038456Y-100833216D01*
X132106376Y-100997188D01*
X132130696Y-101119457D01*
X132140110Y-101166782D01*
X132141000Y-101171259D01*
X132141000Y-101348741D01*
X132106376Y-101522812D01*
X132038456Y-101686784D01*
X131939853Y-101834354D01*
X131814354Y-101959853D01*
X131666784Y-102058456D01*
X131502812Y-102126376D01*
X131353512Y-102156073D01*
X131328742Y-102161000D01*
X131151258Y-102161000D01*
X131126488Y-102156073D01*
X130977188Y-102126376D01*
X130813216Y-102058456D01*
X130665646Y-101959853D01*
X130540147Y-101834354D01*
X130441544Y-101686784D01*
X130373624Y-101522812D01*
X130339000Y-101348741D01*
X130339000Y-101171259D01*
X130339891Y-101166782D01*
X130349304Y-101119457D01*
X130373624Y-100997188D01*
X130441544Y-100833216D01*
X130540147Y-100685646D01*
X130665646Y-100560147D01*
X130813216Y-100461544D01*
X130977188Y-100393624D01*
X131126488Y-100363927D01*
X131151258Y-100359000D01*
X131328742Y-100359000D01*
X131353512Y-100363927D01*
G37*
G36*
X128813512Y-100363927D02*
G01*
X128962812Y-100393624D01*
X129126784Y-100461544D01*
X129274354Y-100560147D01*
X129399853Y-100685646D01*
X129498456Y-100833216D01*
X129566376Y-100997188D01*
X129590696Y-101119457D01*
X129600110Y-101166782D01*
X129601000Y-101171259D01*
X129601000Y-101348741D01*
X129566376Y-101522812D01*
X129498456Y-101686784D01*
X129399853Y-101834354D01*
X129274354Y-101959853D01*
X129126784Y-102058456D01*
X128962812Y-102126376D01*
X128813512Y-102156073D01*
X128788742Y-102161000D01*
X128611258Y-102161000D01*
X128586488Y-102156073D01*
X128437188Y-102126376D01*
X128273216Y-102058456D01*
X128125646Y-101959853D01*
X128000147Y-101834354D01*
X127901544Y-101686784D01*
X127833624Y-101522812D01*
X127799000Y-101348741D01*
X127799000Y-101171259D01*
X127799891Y-101166782D01*
X127809304Y-101119457D01*
X127833624Y-100997188D01*
X127901544Y-100833216D01*
X128000147Y-100685646D01*
X128125646Y-100560147D01*
X128273216Y-100461544D01*
X128437188Y-100393624D01*
X128586488Y-100363927D01*
X128611258Y-100359000D01*
X128788742Y-100359000D01*
X128813512Y-100363927D01*
G37*
G36*
X108101496Y-101014990D02*
G01*
X108135474Y-101025298D01*
X108166795Y-101042039D01*
X108194244Y-101064566D01*
X108216771Y-101092015D01*
X108233512Y-101123336D01*
X108243820Y-101157314D01*
X108247905Y-101198795D01*
X108247905Y-101800015D01*
X108243820Y-101841496D01*
X108233512Y-101875474D01*
X108216771Y-101906795D01*
X108194244Y-101934244D01*
X108166795Y-101956771D01*
X108135474Y-101973512D01*
X108101496Y-101983820D01*
X108060015Y-101987905D01*
X107383795Y-101987905D01*
X107342314Y-101983820D01*
X107308336Y-101973512D01*
X107277015Y-101956771D01*
X107249566Y-101934244D01*
X107227039Y-101906795D01*
X107210298Y-101875474D01*
X107199990Y-101841496D01*
X107195905Y-101800015D01*
X107195905Y-101198795D01*
X107199990Y-101157314D01*
X107210298Y-101123336D01*
X107227039Y-101092015D01*
X107249566Y-101064566D01*
X107277015Y-101042039D01*
X107308336Y-101025298D01*
X107342314Y-101014990D01*
X107383795Y-101010905D01*
X108060015Y-101010905D01*
X108101496Y-101014990D01*
G37*
G36*
X110413512Y-99843927D02*
G01*
X110562812Y-99873624D01*
X110726784Y-99941544D01*
X110874354Y-100040147D01*
X110999853Y-100165646D01*
X111098456Y-100313216D01*
X111166376Y-100477188D01*
X111196073Y-100626488D01*
X111201000Y-100651258D01*
X111201000Y-100828742D01*
X111196132Y-100853216D01*
X111166376Y-101002812D01*
X111098456Y-101166784D01*
X110999853Y-101314354D01*
X110874354Y-101439853D01*
X110726784Y-101538456D01*
X110562812Y-101606376D01*
X110413512Y-101636073D01*
X110388742Y-101641000D01*
X110211258Y-101641000D01*
X110186488Y-101636073D01*
X110037188Y-101606376D01*
X109873216Y-101538456D01*
X109725646Y-101439853D01*
X109600147Y-101314354D01*
X109501544Y-101166784D01*
X109433624Y-101002812D01*
X109403868Y-100853216D01*
X109399000Y-100828742D01*
X109399000Y-100651258D01*
X109403927Y-100626488D01*
X109433624Y-100477188D01*
X109501544Y-100313216D01*
X109600147Y-100165646D01*
X109725646Y-100040147D01*
X109873216Y-99941544D01*
X110037188Y-99873624D01*
X110186488Y-99843927D01*
X110211258Y-99839000D01*
X110388742Y-99839000D01*
X110413512Y-99843927D01*
G37*
G36*
X115101000Y-101001000D02*
G01*
X114199000Y-101001000D01*
X114199000Y-99999000D01*
X115101000Y-99999000D01*
X115101000Y-101001000D01*
G37*
G36*
X191978996Y-99611180D02*
G01*
X192012974Y-99621488D01*
X192044295Y-99638229D01*
X192071744Y-99660756D01*
X192094271Y-99688205D01*
X192111012Y-99719526D01*
X192121320Y-99753504D01*
X192125405Y-99794985D01*
X192125405Y-100396205D01*
X192121320Y-100437686D01*
X192111012Y-100471664D01*
X192094271Y-100502985D01*
X192071744Y-100530434D01*
X192044295Y-100552961D01*
X192012974Y-100569702D01*
X191978996Y-100580010D01*
X191937515Y-100584095D01*
X191261295Y-100584095D01*
X191219814Y-100580010D01*
X191185836Y-100569702D01*
X191154515Y-100552961D01*
X191127066Y-100530434D01*
X191104539Y-100502985D01*
X191087798Y-100471664D01*
X191077490Y-100437686D01*
X191073405Y-100396205D01*
X191073405Y-99794985D01*
X191077490Y-99753504D01*
X191087798Y-99719526D01*
X191104539Y-99688205D01*
X191127066Y-99660756D01*
X191154515Y-99638229D01*
X191185836Y-99621488D01*
X191219814Y-99611180D01*
X191261295Y-99607095D01*
X191937515Y-99607095D01*
X191978996Y-99611180D01*
G37*
G36*
X194372066Y-98073099D02*
G01*
X194360515Y-98094710D01*
X194353402Y-98118159D01*
X194351000Y-98142545D01*
X194351000Y-99656595D01*
X193249000Y-99656595D01*
X193249000Y-98054595D01*
X194387252Y-98054595D01*
X194372066Y-98073099D01*
G37*
G36*
X197551000Y-99656595D02*
G01*
X196449000Y-99656595D01*
X196449000Y-98054595D01*
X197551000Y-98054595D01*
X197551000Y-99656595D01*
G37*
G36*
X168873512Y-97843927D02*
G01*
X169022812Y-97873624D01*
X169186784Y-97941544D01*
X169334354Y-98040147D01*
X169459853Y-98165646D01*
X169558456Y-98313216D01*
X169626376Y-98477188D01*
X169661000Y-98651259D01*
X169661000Y-98828741D01*
X169626376Y-99002812D01*
X169558456Y-99166784D01*
X169459853Y-99314354D01*
X169334354Y-99439853D01*
X169186784Y-99538456D01*
X169022812Y-99606376D01*
X168873512Y-99636073D01*
X168848742Y-99641000D01*
X168671258Y-99641000D01*
X168646488Y-99636073D01*
X168497188Y-99606376D01*
X168333216Y-99538456D01*
X168185646Y-99439853D01*
X168060147Y-99314354D01*
X167961544Y-99166784D01*
X167893624Y-99002812D01*
X167859000Y-98828741D01*
X167859000Y-98651259D01*
X167893624Y-98477188D01*
X167961544Y-98313216D01*
X168060147Y-98165646D01*
X168185646Y-98040147D01*
X168333216Y-97941544D01*
X168497188Y-97873624D01*
X168646488Y-97843927D01*
X168671258Y-97839000D01*
X168848742Y-97839000D01*
X168873512Y-97843927D01*
G37*
G36*
X171413512Y-97843927D02*
G01*
X171562812Y-97873624D01*
X171726784Y-97941544D01*
X171874354Y-98040147D01*
X171999853Y-98165646D01*
X172098456Y-98313216D01*
X172166376Y-98477188D01*
X172201000Y-98651259D01*
X172201000Y-98828741D01*
X172166376Y-99002812D01*
X172098456Y-99166784D01*
X171999853Y-99314354D01*
X171874354Y-99439853D01*
X171726784Y-99538456D01*
X171562812Y-99606376D01*
X171413512Y-99636073D01*
X171388742Y-99641000D01*
X171211258Y-99641000D01*
X171186488Y-99636073D01*
X171037188Y-99606376D01*
X170873216Y-99538456D01*
X170725646Y-99439853D01*
X170600147Y-99314354D01*
X170501544Y-99166784D01*
X170433624Y-99002812D01*
X170399000Y-98828741D01*
X170399000Y-98651259D01*
X170433624Y-98477188D01*
X170501544Y-98313216D01*
X170600147Y-98165646D01*
X170725646Y-98040147D01*
X170873216Y-97941544D01*
X171037188Y-97873624D01*
X171186488Y-97843927D01*
X171211258Y-97839000D01*
X171388742Y-97839000D01*
X171413512Y-97843927D01*
G37*
G36*
X128813512Y-97823927D02*
G01*
X128962812Y-97853624D01*
X129126784Y-97921544D01*
X129274354Y-98020147D01*
X129399853Y-98145646D01*
X129498456Y-98293216D01*
X129566376Y-98457188D01*
X129601000Y-98631259D01*
X129601000Y-98808741D01*
X129566376Y-98982812D01*
X129498456Y-99146784D01*
X129399853Y-99294354D01*
X129274354Y-99419853D01*
X129126784Y-99518456D01*
X128962812Y-99586376D01*
X128813512Y-99616073D01*
X128788742Y-99621000D01*
X128611258Y-99621000D01*
X128586488Y-99616073D01*
X128437188Y-99586376D01*
X128273216Y-99518456D01*
X128125646Y-99419853D01*
X128000147Y-99294354D01*
X127901544Y-99146784D01*
X127833624Y-98982812D01*
X127799000Y-98808741D01*
X127799000Y-98631259D01*
X127833624Y-98457188D01*
X127901544Y-98293216D01*
X128000147Y-98145646D01*
X128125646Y-98020147D01*
X128273216Y-97921544D01*
X128437188Y-97853624D01*
X128586488Y-97823927D01*
X128611258Y-97819000D01*
X128788742Y-97819000D01*
X128813512Y-97823927D01*
G37*
G36*
X131353512Y-97823927D02*
G01*
X131502812Y-97853624D01*
X131666784Y-97921544D01*
X131814354Y-98020147D01*
X131939853Y-98145646D01*
X132038456Y-98293216D01*
X132106376Y-98457188D01*
X132141000Y-98631259D01*
X132141000Y-98808741D01*
X132106376Y-98982812D01*
X132038456Y-99146784D01*
X131939853Y-99294354D01*
X131814354Y-99419853D01*
X131666784Y-99518456D01*
X131502812Y-99586376D01*
X131353512Y-99616073D01*
X131328742Y-99621000D01*
X131151258Y-99621000D01*
X131126488Y-99616073D01*
X130977188Y-99586376D01*
X130813216Y-99518456D01*
X130665646Y-99419853D01*
X130540147Y-99294354D01*
X130441544Y-99146784D01*
X130373624Y-98982812D01*
X130339000Y-98808741D01*
X130339000Y-98631259D01*
X130373624Y-98457188D01*
X130441544Y-98293216D01*
X130540147Y-98145646D01*
X130665646Y-98020147D01*
X130813216Y-97921544D01*
X130977188Y-97853624D01*
X131126488Y-97823927D01*
X131151258Y-97819000D01*
X131328742Y-97819000D01*
X131353512Y-97823927D01*
G37*
G36*
X111201000Y-99101000D02*
G01*
X109399000Y-99101000D01*
X109399000Y-97299000D01*
X111201000Y-97299000D01*
X111201000Y-99101000D01*
G37*
G36*
X191978996Y-98036180D02*
G01*
X192012974Y-98046488D01*
X192044295Y-98063229D01*
X192071744Y-98085756D01*
X192094271Y-98113205D01*
X192111012Y-98144526D01*
X192121320Y-98178504D01*
X192125405Y-98219985D01*
X192125405Y-98821205D01*
X192121320Y-98862686D01*
X192111012Y-98896664D01*
X192094271Y-98927985D01*
X192071744Y-98955434D01*
X192044295Y-98977961D01*
X192012974Y-98994702D01*
X191978996Y-99005010D01*
X191937515Y-99009095D01*
X191261295Y-99009095D01*
X191219814Y-99005010D01*
X191185836Y-98994702D01*
X191154515Y-98977961D01*
X191127066Y-98955434D01*
X191104539Y-98927985D01*
X191087798Y-98896664D01*
X191077490Y-98862686D01*
X191073405Y-98821205D01*
X191073405Y-98219985D01*
X191077490Y-98178504D01*
X191087798Y-98144526D01*
X191104539Y-98113205D01*
X191127066Y-98085756D01*
X191154515Y-98063229D01*
X191185836Y-98046488D01*
X191219814Y-98036180D01*
X191261295Y-98032095D01*
X191937515Y-98032095D01*
X191978996Y-98036180D01*
G37*
G36*
X116051000Y-99001000D02*
G01*
X115149000Y-99001000D01*
X115149000Y-97999000D01*
X116051000Y-97999000D01*
X116051000Y-99001000D01*
G37*
G36*
X114151000Y-99001000D02*
G01*
X113249000Y-99001000D01*
X113249000Y-97999000D01*
X114151000Y-97999000D01*
X114151000Y-99001000D01*
G37*
G36*
X102672905Y-98637905D02*
G01*
X101570905Y-98637905D01*
X101570905Y-97035905D01*
X102672905Y-97035905D01*
X102672905Y-98637905D01*
G37*
G36*
X105872905Y-98637905D02*
G01*
X104770905Y-98637905D01*
X104770905Y-97035905D01*
X105872905Y-97035905D01*
X105872905Y-98637905D01*
G37*
G36*
X195097740Y-97308627D02*
G01*
X195146136Y-97318253D01*
X195183902Y-97333896D01*
X195237311Y-97356019D01*
X195237312Y-97356020D01*
X195319369Y-97410848D01*
X195389152Y-97480631D01*
X195389153Y-97480633D01*
X195443981Y-97562689D01*
X195481747Y-97653865D01*
X195501000Y-97750655D01*
X195501000Y-97849345D01*
X195481747Y-97946135D01*
X195443981Y-98037311D01*
X195442086Y-98040147D01*
X195389152Y-98119369D01*
X195319369Y-98189152D01*
X195278062Y-98216752D01*
X195237311Y-98243981D01*
X195183902Y-98266104D01*
X195146136Y-98281747D01*
X195097740Y-98291374D01*
X195049345Y-98301000D01*
X194950655Y-98301000D01*
X194902260Y-98291374D01*
X194853864Y-98281747D01*
X194816098Y-98266104D01*
X194762689Y-98243981D01*
X194721938Y-98216752D01*
X194680631Y-98189152D01*
X194610848Y-98119369D01*
X194579931Y-98073098D01*
X194564387Y-98054157D01*
X194545445Y-98038612D01*
X194523834Y-98027061D01*
X194500385Y-98019948D01*
X194476243Y-98017570D01*
X194491448Y-97999042D01*
X194502999Y-97977431D01*
X194510112Y-97953982D01*
X194512514Y-97929596D01*
X194510112Y-97905210D01*
X194499000Y-97849346D01*
X194499000Y-97750655D01*
X194518253Y-97653865D01*
X194556019Y-97562689D01*
X194610847Y-97480633D01*
X194610848Y-97480631D01*
X194680631Y-97410848D01*
X194762688Y-97356020D01*
X194762689Y-97356019D01*
X194816098Y-97333896D01*
X194853864Y-97318253D01*
X194902260Y-97308627D01*
X194950655Y-97299000D01*
X195049345Y-97299000D01*
X195097740Y-97308627D01*
G37*
G36*
X168873512Y-95303927D02*
G01*
X169022812Y-95333624D01*
X169186784Y-95401544D01*
X169334354Y-95500147D01*
X169459853Y-95625646D01*
X169558456Y-95773216D01*
X169626376Y-95937188D01*
X169661000Y-96111259D01*
X169661000Y-96288741D01*
X169626376Y-96462812D01*
X169558456Y-96626784D01*
X169459853Y-96774354D01*
X169334354Y-96899853D01*
X169186784Y-96998456D01*
X169022812Y-97066376D01*
X168873512Y-97096073D01*
X168848742Y-97101000D01*
X168671258Y-97101000D01*
X168646488Y-97096073D01*
X168497188Y-97066376D01*
X168333216Y-96998456D01*
X168185646Y-96899853D01*
X168060147Y-96774354D01*
X167961544Y-96626784D01*
X167893624Y-96462812D01*
X167859000Y-96288741D01*
X167859000Y-96111259D01*
X167893624Y-95937188D01*
X167961544Y-95773216D01*
X168060147Y-95625646D01*
X168185646Y-95500147D01*
X168333216Y-95401544D01*
X168497188Y-95333624D01*
X168646488Y-95303927D01*
X168671258Y-95299000D01*
X168848742Y-95299000D01*
X168873512Y-95303927D01*
G37*
G36*
X172201000Y-97101000D02*
G01*
X170399000Y-97101000D01*
X170399000Y-95299000D01*
X172201000Y-95299000D01*
X172201000Y-97101000D01*
G37*
G36*
X128813512Y-95283927D02*
G01*
X128962812Y-95313624D01*
X129126784Y-95381544D01*
X129274354Y-95480147D01*
X129399853Y-95605646D01*
X129498456Y-95753216D01*
X129566376Y-95917188D01*
X129601000Y-96091259D01*
X129601000Y-96268741D01*
X129566376Y-96442812D01*
X129498456Y-96606784D01*
X129399853Y-96754354D01*
X129274354Y-96879853D01*
X129126784Y-96978456D01*
X128962812Y-97046376D01*
X128813512Y-97076073D01*
X128788742Y-97081000D01*
X128611258Y-97081000D01*
X128586488Y-97076073D01*
X128437188Y-97046376D01*
X128273216Y-96978456D01*
X128125646Y-96879853D01*
X128000147Y-96754354D01*
X127901544Y-96606784D01*
X127833624Y-96442812D01*
X127799000Y-96268741D01*
X127799000Y-96091259D01*
X127833624Y-95917188D01*
X127901544Y-95753216D01*
X128000147Y-95605646D01*
X128125646Y-95480147D01*
X128273216Y-95381544D01*
X128437188Y-95313624D01*
X128586488Y-95283927D01*
X128611258Y-95279000D01*
X128788742Y-95279000D01*
X128813512Y-95283927D01*
G37*
G36*
X131353512Y-95283927D02*
G01*
X131502812Y-95313624D01*
X131666784Y-95381544D01*
X131814354Y-95480147D01*
X131939853Y-95605646D01*
X132038456Y-95753216D01*
X132106376Y-95917188D01*
X132141000Y-96091259D01*
X132141000Y-96268741D01*
X132106376Y-96442812D01*
X132038456Y-96606784D01*
X131939853Y-96754354D01*
X131814354Y-96879853D01*
X131666784Y-96978456D01*
X131502812Y-97046376D01*
X131353512Y-97076073D01*
X131328742Y-97081000D01*
X131151258Y-97081000D01*
X131126488Y-97076073D01*
X130977188Y-97046376D01*
X130813216Y-96978456D01*
X130665646Y-96879853D01*
X130540147Y-96754354D01*
X130441544Y-96606784D01*
X130373624Y-96442812D01*
X130339000Y-96268741D01*
X130339000Y-96091259D01*
X130373624Y-95917188D01*
X130441544Y-95753216D01*
X130540147Y-95605646D01*
X130665646Y-95480147D01*
X130813216Y-95381544D01*
X130977188Y-95313624D01*
X131126488Y-95283927D01*
X131151258Y-95279000D01*
X131328742Y-95279000D01*
X131353512Y-95283927D01*
G37*
G36*
X115942091Y-95978085D02*
G01*
X115976069Y-95988393D01*
X116007390Y-96005134D01*
X116034839Y-96027661D01*
X116057366Y-96055110D01*
X116074107Y-96086431D01*
X116084415Y-96120409D01*
X116088500Y-96161890D01*
X116088500Y-96838110D01*
X116084415Y-96879591D01*
X116074107Y-96913569D01*
X116057366Y-96944890D01*
X116034839Y-96972339D01*
X116007390Y-96994866D01*
X115976069Y-97011607D01*
X115942091Y-97021915D01*
X115900610Y-97026000D01*
X115299390Y-97026000D01*
X115257909Y-97021915D01*
X115223931Y-97011607D01*
X115192610Y-96994866D01*
X115165161Y-96972339D01*
X115142634Y-96944890D01*
X115125893Y-96913569D01*
X115115585Y-96879591D01*
X115111500Y-96838110D01*
X115111500Y-96161890D01*
X115115585Y-96120409D01*
X115125893Y-96086431D01*
X115142634Y-96055110D01*
X115165161Y-96027661D01*
X115192610Y-96005134D01*
X115223931Y-95988393D01*
X115257909Y-95978085D01*
X115299390Y-95974000D01*
X115900610Y-95974000D01*
X115942091Y-95978085D01*
G37*
G36*
X114367091Y-95978085D02*
G01*
X114401069Y-95988393D01*
X114432390Y-96005134D01*
X114459839Y-96027661D01*
X114482366Y-96055110D01*
X114499107Y-96086431D01*
X114509415Y-96120409D01*
X114513500Y-96161890D01*
X114513500Y-96838110D01*
X114509415Y-96879591D01*
X114499107Y-96913569D01*
X114482366Y-96944890D01*
X114459839Y-96972339D01*
X114432390Y-96994866D01*
X114401069Y-97011607D01*
X114367091Y-97021915D01*
X114325610Y-97026000D01*
X113724390Y-97026000D01*
X113682909Y-97021915D01*
X113648931Y-97011607D01*
X113617610Y-96994866D01*
X113590161Y-96972339D01*
X113567634Y-96944890D01*
X113550893Y-96913569D01*
X113540585Y-96879591D01*
X113536500Y-96838110D01*
X113536500Y-96161890D01*
X113540585Y-96120409D01*
X113550893Y-96086431D01*
X113567634Y-96055110D01*
X113590161Y-96027661D01*
X113617610Y-96005134D01*
X113648931Y-95988393D01*
X113682909Y-95978085D01*
X113724390Y-95974000D01*
X114325610Y-95974000D01*
X114367091Y-95978085D01*
G37*
G36*
X194282536Y-95547596D02*
G01*
X193201898Y-95763529D01*
X192887992Y-94192584D01*
X193968630Y-93976651D01*
X194282536Y-95547596D01*
G37*
G36*
X107969531Y-94293219D02*
G01*
X108632857Y-94424561D01*
X108672761Y-94436628D01*
X108704095Y-94453341D01*
X108731558Y-94475839D01*
X108754114Y-94503275D01*
X108770881Y-94534578D01*
X108781220Y-94568552D01*
X108784730Y-94603882D01*
X108780680Y-94645377D01*
X108663904Y-95235135D01*
X108651839Y-95275033D01*
X108635125Y-95306369D01*
X108612624Y-95333835D01*
X108585191Y-95356389D01*
X108553888Y-95373156D01*
X108519914Y-95383495D01*
X108484584Y-95387005D01*
X108443089Y-95382955D01*
X107779763Y-95251613D01*
X107739859Y-95239546D01*
X107708525Y-95222833D01*
X107681062Y-95200335D01*
X107658506Y-95172899D01*
X107641739Y-95141596D01*
X107631400Y-95107622D01*
X107627890Y-95072292D01*
X107631940Y-95030797D01*
X107748716Y-94441039D01*
X107760781Y-94401141D01*
X107777495Y-94369805D01*
X107799996Y-94342339D01*
X107827429Y-94319785D01*
X107858732Y-94303018D01*
X107892706Y-94292679D01*
X107928036Y-94289169D01*
X107969531Y-94293219D01*
G37*
G36*
X197420503Y-94920568D02*
G01*
X196339865Y-95136501D01*
X196025959Y-93565556D01*
X197106597Y-93349623D01*
X197420503Y-94920568D01*
G37*
G36*
X106382117Y-93295895D02*
G01*
X106070953Y-94867386D01*
X104989939Y-94653339D01*
X105301103Y-93081848D01*
X106382117Y-93295895D01*
G37*
G36*
X103243061Y-92674345D02*
G01*
X102931897Y-94245836D01*
X101850883Y-94031789D01*
X102162047Y-92460298D01*
X103243061Y-92674345D01*
G37*
G36*
X108275451Y-92748215D02*
G01*
X108938777Y-92879557D01*
X108978681Y-92891624D01*
X109010015Y-92908337D01*
X109037478Y-92930835D01*
X109060034Y-92958271D01*
X109076801Y-92989574D01*
X109087140Y-93023548D01*
X109090650Y-93058878D01*
X109086600Y-93100373D01*
X108969824Y-93690131D01*
X108957759Y-93730029D01*
X108941045Y-93761365D01*
X108918544Y-93788831D01*
X108891111Y-93811385D01*
X108859808Y-93828152D01*
X108825834Y-93838491D01*
X108790504Y-93842001D01*
X108749009Y-93837951D01*
X108085683Y-93706609D01*
X108045779Y-93694542D01*
X108014445Y-93677829D01*
X107986982Y-93655331D01*
X107964426Y-93627895D01*
X107947659Y-93596592D01*
X107937320Y-93562618D01*
X107933810Y-93527288D01*
X107937860Y-93485793D01*
X108054636Y-92896035D01*
X108066701Y-92856137D01*
X108083415Y-92824801D01*
X108105916Y-92797335D01*
X108133349Y-92774781D01*
X108164652Y-92758014D01*
X108198626Y-92747675D01*
X108233956Y-92744165D01*
X108275451Y-92748215D01*
G37*
G36*
X190582136Y-91203354D02*
G01*
X190616127Y-91213633D01*
X190647461Y-91230346D01*
X190674924Y-91252844D01*
X190697480Y-91280280D01*
X190714247Y-91311583D01*
X190726381Y-91351459D01*
X190844189Y-91941027D01*
X190848309Y-91982494D01*
X190844859Y-92017841D01*
X190834580Y-92051832D01*
X190817867Y-92083166D01*
X190795369Y-92110629D01*
X190767933Y-92133185D01*
X190736630Y-92149952D01*
X190696754Y-92162086D01*
X190033640Y-92294590D01*
X189992173Y-92298710D01*
X189956826Y-92295260D01*
X189922835Y-92284981D01*
X189891501Y-92268268D01*
X189864038Y-92245770D01*
X189841482Y-92218334D01*
X189824715Y-92187031D01*
X189812581Y-92147155D01*
X189694773Y-91557587D01*
X189690653Y-91516120D01*
X189694103Y-91480773D01*
X189704382Y-91446782D01*
X189721095Y-91415448D01*
X189743593Y-91387985D01*
X189771029Y-91365429D01*
X189802332Y-91348662D01*
X189842208Y-91336528D01*
X190505322Y-91204024D01*
X190546789Y-91199904D01*
X190582136Y-91203354D01*
G37*
G36*
X193322399Y-90742584D02*
G01*
X192241761Y-90958517D01*
X191927855Y-89387572D01*
X193008493Y-89171639D01*
X193322399Y-90742584D01*
G37*
G36*
X161401000Y-90901000D02*
G01*
X159599000Y-90901000D01*
X159599000Y-89099000D01*
X161401000Y-89099000D01*
X161401000Y-90901000D01*
G37*
G36*
X190273520Y-89658886D02*
G01*
X190307511Y-89669165D01*
X190338845Y-89685878D01*
X190366308Y-89708376D01*
X190388864Y-89735812D01*
X190405631Y-89767115D01*
X190417765Y-89806991D01*
X190535573Y-90396559D01*
X190539693Y-90438026D01*
X190536243Y-90473373D01*
X190525964Y-90507364D01*
X190509251Y-90538698D01*
X190486753Y-90566161D01*
X190459317Y-90588717D01*
X190428014Y-90605484D01*
X190388138Y-90617618D01*
X189725024Y-90750122D01*
X189683557Y-90754242D01*
X189648210Y-90750792D01*
X189614219Y-90740513D01*
X189582885Y-90723800D01*
X189555422Y-90701302D01*
X189532866Y-90673866D01*
X189516099Y-90642563D01*
X189503965Y-90602687D01*
X189386157Y-90013119D01*
X189382037Y-89971652D01*
X189385487Y-89936305D01*
X189395766Y-89902314D01*
X189412479Y-89870980D01*
X189434977Y-89843517D01*
X189462413Y-89820961D01*
X189493716Y-89804194D01*
X189533592Y-89792060D01*
X190196706Y-89659556D01*
X190238173Y-89655436D01*
X190273520Y-89658886D01*
G37*
G36*
X196460366Y-90115556D02*
G01*
X195379728Y-90331489D01*
X195065822Y-88760544D01*
X196146460Y-88544611D01*
X196460366Y-90115556D01*
G37*
G36*
X107333865Y-88489215D02*
G01*
X107022701Y-90060706D01*
X105941687Y-89846659D01*
X106252851Y-88275168D01*
X107333865Y-88489215D01*
G37*
G36*
X104194809Y-87867665D02*
G01*
X103883645Y-89439156D01*
X102802631Y-89225109D01*
X103113795Y-87653618D01*
X104194809Y-87867665D01*
G37*
G36*
X160613512Y-86563927D02*
G01*
X160762812Y-86593624D01*
X160926784Y-86661544D01*
X161074354Y-86760147D01*
X161199853Y-86885646D01*
X161298456Y-87033216D01*
X161366376Y-87197188D01*
X161401000Y-87371259D01*
X161401000Y-87548741D01*
X161366376Y-87722812D01*
X161298456Y-87886784D01*
X161199853Y-88034354D01*
X161074354Y-88159853D01*
X160926784Y-88258456D01*
X160762812Y-88326376D01*
X160613512Y-88356073D01*
X160588742Y-88361000D01*
X160411258Y-88361000D01*
X160386488Y-88356073D01*
X160237188Y-88326376D01*
X160073216Y-88258456D01*
X159925646Y-88159853D01*
X159800147Y-88034354D01*
X159701544Y-87886784D01*
X159633624Y-87722812D01*
X159599000Y-87548741D01*
X159599000Y-87371259D01*
X159633624Y-87197188D01*
X159701544Y-87033216D01*
X159800147Y-86885646D01*
X159925646Y-86760147D01*
X160073216Y-86661544D01*
X160237188Y-86593624D01*
X160386488Y-86563927D01*
X160411258Y-86559000D01*
X160588742Y-86559000D01*
X160613512Y-86563927D01*
G37*
G36*
X192501962Y-87042172D02*
G01*
X191483847Y-87463889D01*
X190870788Y-85983834D01*
X191888903Y-85562117D01*
X192501962Y-87042172D01*
G37*
G36*
X109938400Y-86256946D02*
G01*
X109978282Y-86269045D01*
X110030348Y-86290612D01*
X110030353Y-86290613D01*
X110550959Y-86506255D01*
X110550965Y-86506258D01*
X110603027Y-86527823D01*
X110639790Y-86547473D01*
X110667239Y-86570000D01*
X110689768Y-86597452D01*
X110706507Y-86628768D01*
X110716815Y-86662748D01*
X110720295Y-86698089D01*
X110716815Y-86733430D01*
X110704716Y-86773312D01*
X110629305Y-86955369D01*
X110496207Y-87276699D01*
X110496202Y-87276708D01*
X110474639Y-87328766D01*
X110454989Y-87365529D01*
X110432462Y-87392979D01*
X110405012Y-87415505D01*
X110373692Y-87432246D01*
X110339713Y-87442554D01*
X110304373Y-87446034D01*
X110269032Y-87442554D01*
X110229150Y-87430455D01*
X110177084Y-87408888D01*
X110177079Y-87408887D01*
X109656473Y-87193245D01*
X109656467Y-87193242D01*
X109604405Y-87171677D01*
X109567642Y-87152027D01*
X109540193Y-87129500D01*
X109517664Y-87102048D01*
X109500925Y-87070732D01*
X109490617Y-87036752D01*
X109487137Y-87001411D01*
X109490617Y-86966070D01*
X109502716Y-86926188D01*
X109602925Y-86684262D01*
X109711225Y-86422801D01*
X109711230Y-86422792D01*
X109732793Y-86370734D01*
X109752443Y-86333971D01*
X109774970Y-86306521D01*
X109802420Y-86283995D01*
X109833740Y-86267254D01*
X109867719Y-86256946D01*
X109903059Y-86253466D01*
X109938400Y-86256946D01*
G37*
G36*
X108917439Y-85247843D02*
G01*
X108304380Y-86727898D01*
X107286265Y-86306181D01*
X107899324Y-84826126D01*
X108917439Y-85247843D01*
G37*
G36*
X195458377Y-85817585D02*
G01*
X194440262Y-86239302D01*
X193827203Y-84759247D01*
X194845318Y-84337530D01*
X195458377Y-85817585D01*
G37*
G36*
X138153512Y-84353927D02*
G01*
X138302812Y-84383624D01*
X138466784Y-84451544D01*
X138614354Y-84550147D01*
X138739853Y-84675646D01*
X138838456Y-84823216D01*
X138906376Y-84987188D01*
X138941000Y-85161259D01*
X138941000Y-85338741D01*
X138906376Y-85512812D01*
X138838456Y-85676784D01*
X138739853Y-85824354D01*
X138614354Y-85949853D01*
X138466784Y-86048456D01*
X138302812Y-86116376D01*
X138153512Y-86146073D01*
X138128742Y-86151000D01*
X137951258Y-86151000D01*
X137926488Y-86146073D01*
X137777188Y-86116376D01*
X137613216Y-86048456D01*
X137465646Y-85949853D01*
X137340147Y-85824354D01*
X137241544Y-85676784D01*
X137173624Y-85512812D01*
X137139000Y-85338741D01*
X137139000Y-85161259D01*
X137173624Y-84987188D01*
X137241544Y-84823216D01*
X137340147Y-84675646D01*
X137465646Y-84550147D01*
X137613216Y-84451544D01*
X137777188Y-84383624D01*
X137926488Y-84353927D01*
X137951258Y-84349000D01*
X138128742Y-84349000D01*
X138153512Y-84353927D01*
G37*
G36*
X135613512Y-84353927D02*
G01*
X135762812Y-84383624D01*
X135926784Y-84451544D01*
X136074354Y-84550147D01*
X136199853Y-84675646D01*
X136298456Y-84823216D01*
X136366376Y-84987188D01*
X136401000Y-85161259D01*
X136401000Y-85338741D01*
X136366376Y-85512812D01*
X136298456Y-85676784D01*
X136199853Y-85824354D01*
X136074354Y-85949853D01*
X135926784Y-86048456D01*
X135762812Y-86116376D01*
X135613512Y-86146073D01*
X135588742Y-86151000D01*
X135411258Y-86151000D01*
X135386488Y-86146073D01*
X135237188Y-86116376D01*
X135073216Y-86048456D01*
X134925646Y-85949853D01*
X134800147Y-85824354D01*
X134701544Y-85676784D01*
X134633624Y-85512812D01*
X134599000Y-85338741D01*
X134599000Y-85161259D01*
X134633624Y-84987188D01*
X134701544Y-84823216D01*
X134800147Y-84675646D01*
X134925646Y-84550147D01*
X135073216Y-84451544D01*
X135237188Y-84383624D01*
X135386488Y-84353927D01*
X135411258Y-84349000D01*
X135588742Y-84349000D01*
X135613512Y-84353927D01*
G37*
G36*
X133861000Y-86151000D02*
G01*
X132059000Y-86151000D01*
X132059000Y-84349000D01*
X133861000Y-84349000D01*
X133861000Y-86151000D01*
G37*
G36*
X110541126Y-84801836D02*
G01*
X110581008Y-84813935D01*
X110633074Y-84835502D01*
X110633079Y-84835503D01*
X111153685Y-85051145D01*
X111153691Y-85051148D01*
X111205753Y-85072713D01*
X111242516Y-85092363D01*
X111269965Y-85114890D01*
X111292494Y-85142342D01*
X111309233Y-85173658D01*
X111319541Y-85207638D01*
X111323021Y-85242979D01*
X111319541Y-85278320D01*
X111307442Y-85318202D01*
X111234478Y-85494353D01*
X111098933Y-85821589D01*
X111098928Y-85821598D01*
X111077365Y-85873656D01*
X111057715Y-85910419D01*
X111035188Y-85937869D01*
X111007738Y-85960395D01*
X110976418Y-85977136D01*
X110942439Y-85987444D01*
X110907099Y-85990924D01*
X110871758Y-85987444D01*
X110831876Y-85975345D01*
X110779810Y-85953778D01*
X110779805Y-85953777D01*
X110259199Y-85738135D01*
X110259193Y-85738132D01*
X110207131Y-85716567D01*
X110170368Y-85696917D01*
X110142919Y-85674390D01*
X110120390Y-85646938D01*
X110103651Y-85615622D01*
X110093343Y-85581642D01*
X110089863Y-85546301D01*
X110093343Y-85510960D01*
X110105442Y-85471078D01*
X110205651Y-85229152D01*
X110313951Y-84967691D01*
X110313956Y-84967682D01*
X110335519Y-84915624D01*
X110355169Y-84878861D01*
X110377696Y-84851411D01*
X110405146Y-84828885D01*
X110436466Y-84812144D01*
X110470445Y-84801836D01*
X110505785Y-84798356D01*
X110541126Y-84801836D01*
G37*
G36*
X160610138Y-84023256D02*
G01*
X160762812Y-84053624D01*
X160926784Y-84121544D01*
X161074354Y-84220147D01*
X161199853Y-84345646D01*
X161298456Y-84493216D01*
X161366376Y-84657188D01*
X161401000Y-84831259D01*
X161401000Y-85008741D01*
X161366376Y-85182812D01*
X161298456Y-85346784D01*
X161199853Y-85494354D01*
X161074354Y-85619853D01*
X160926784Y-85718456D01*
X160762812Y-85786376D01*
X160613512Y-85816073D01*
X160588742Y-85821000D01*
X160411258Y-85821000D01*
X160386488Y-85816073D01*
X160237188Y-85786376D01*
X160073216Y-85718456D01*
X159925646Y-85619853D01*
X159800147Y-85494354D01*
X159701544Y-85346784D01*
X159633624Y-85182812D01*
X159599000Y-85008741D01*
X159599000Y-84831259D01*
X159633624Y-84657188D01*
X159701544Y-84493216D01*
X159800147Y-84345646D01*
X159925646Y-84220147D01*
X160073216Y-84121544D01*
X160237188Y-84053624D01*
X160389862Y-84023256D01*
X160411258Y-84019000D01*
X160588742Y-84019000D01*
X160610138Y-84023256D01*
G37*
G36*
X105961024Y-84023256D02*
G01*
X105347965Y-85503311D01*
X104329850Y-85081594D01*
X104942909Y-83601539D01*
X105961024Y-84023256D01*
G37*
G36*
X188233756Y-83600170D02*
G01*
X188267736Y-83610478D01*
X188299052Y-83627217D01*
X188326504Y-83649746D01*
X188349031Y-83677195D01*
X188368681Y-83713958D01*
X188390244Y-83766016D01*
X188390249Y-83766025D01*
X188489638Y-84005973D01*
X188598758Y-84269412D01*
X188610857Y-84309294D01*
X188614337Y-84344635D01*
X188610857Y-84379975D01*
X188600549Y-84413954D01*
X188583808Y-84445274D01*
X188561282Y-84472724D01*
X188533832Y-84495251D01*
X188497069Y-84514901D01*
X188445007Y-84536466D01*
X188445001Y-84536469D01*
X187924395Y-84752111D01*
X187924390Y-84752112D01*
X187872324Y-84773679D01*
X187832442Y-84785778D01*
X187797101Y-84789258D01*
X187761760Y-84785778D01*
X187727780Y-84775470D01*
X187696464Y-84758731D01*
X187669012Y-84736202D01*
X187646485Y-84708753D01*
X187626835Y-84671990D01*
X187605272Y-84619932D01*
X187605267Y-84619923D01*
X187472169Y-84298593D01*
X187396758Y-84116536D01*
X187384659Y-84076654D01*
X187381179Y-84041313D01*
X187384659Y-84005973D01*
X187394967Y-83971994D01*
X187411708Y-83940674D01*
X187434234Y-83913224D01*
X187461684Y-83890697D01*
X187498447Y-83871047D01*
X187550509Y-83849482D01*
X187550515Y-83849479D01*
X188071121Y-83633837D01*
X188071126Y-83633836D01*
X188123192Y-83612269D01*
X188163074Y-83600170D01*
X188198415Y-83596690D01*
X188233756Y-83600170D01*
G37*
G36*
X187631030Y-82145060D02*
G01*
X187665010Y-82155368D01*
X187696326Y-82172107D01*
X187723778Y-82194636D01*
X187746305Y-82222085D01*
X187765955Y-82258848D01*
X187787518Y-82310906D01*
X187787523Y-82310915D01*
X187886912Y-82550863D01*
X187996032Y-82814302D01*
X188008131Y-82854184D01*
X188011611Y-82889525D01*
X188008131Y-82924865D01*
X187997823Y-82958844D01*
X187981082Y-82990164D01*
X187958556Y-83017614D01*
X187931106Y-83040141D01*
X187894343Y-83059791D01*
X187842281Y-83081356D01*
X187842275Y-83081359D01*
X187321669Y-83297001D01*
X187321664Y-83297002D01*
X187269598Y-83318569D01*
X187229716Y-83330668D01*
X187194375Y-83334148D01*
X187159034Y-83330668D01*
X187125054Y-83320360D01*
X187093738Y-83303621D01*
X187066286Y-83281092D01*
X187043759Y-83253643D01*
X187024109Y-83216880D01*
X187002546Y-83164822D01*
X187002541Y-83164813D01*
X186869443Y-82843483D01*
X186794032Y-82661426D01*
X186781933Y-82621544D01*
X186778453Y-82586203D01*
X186781933Y-82550863D01*
X186792241Y-82516884D01*
X186808982Y-82485564D01*
X186831508Y-82458114D01*
X186858958Y-82435587D01*
X186895721Y-82415937D01*
X186947783Y-82394372D01*
X186947789Y-82394369D01*
X187468395Y-82178727D01*
X187468400Y-82178726D01*
X187520466Y-82157159D01*
X187560348Y-82145060D01*
X187595689Y-82141580D01*
X187631030Y-82145060D01*
G37*
G36*
X190626813Y-82515163D02*
G01*
X189608698Y-82936880D01*
X188995639Y-81456825D01*
X190013754Y-81035108D01*
X190626813Y-82515163D01*
G37*
G36*
X110792588Y-80720834D02*
G01*
X110179529Y-82200889D01*
X109161414Y-81779172D01*
X109774473Y-80299117D01*
X110792588Y-80720834D01*
G37*
G36*
X153903512Y-80343927D02*
G01*
X154052812Y-80373624D01*
X154216784Y-80441544D01*
X154364354Y-80540147D01*
X154489853Y-80665646D01*
X154588456Y-80813216D01*
X154656376Y-80977188D01*
X154691000Y-81151259D01*
X154691000Y-81328741D01*
X154656376Y-81502812D01*
X154588456Y-81666784D01*
X154489853Y-81814354D01*
X154364354Y-81939853D01*
X154216784Y-82038456D01*
X154052812Y-82106376D01*
X153903512Y-82136073D01*
X153878742Y-82141000D01*
X153701258Y-82141000D01*
X153676488Y-82136073D01*
X153527188Y-82106376D01*
X153363216Y-82038456D01*
X153215646Y-81939853D01*
X153090147Y-81814354D01*
X152991544Y-81666784D01*
X152923624Y-81502812D01*
X152889000Y-81328741D01*
X152889000Y-81151259D01*
X152923624Y-80977188D01*
X152991544Y-80813216D01*
X153090147Y-80665646D01*
X153215646Y-80540147D01*
X153363216Y-80441544D01*
X153527188Y-80373624D01*
X153676488Y-80343927D01*
X153701258Y-80339000D01*
X153878742Y-80339000D01*
X153903512Y-80343927D01*
G37*
G36*
X146283512Y-80343927D02*
G01*
X146432812Y-80373624D01*
X146596784Y-80441544D01*
X146744354Y-80540147D01*
X146869853Y-80665646D01*
X146968456Y-80813216D01*
X147036376Y-80977188D01*
X147071000Y-81151259D01*
X147071000Y-81328741D01*
X147036376Y-81502812D01*
X146968456Y-81666784D01*
X146869853Y-81814354D01*
X146744354Y-81939853D01*
X146596784Y-82038456D01*
X146432812Y-82106376D01*
X146283512Y-82136073D01*
X146258742Y-82141000D01*
X146081258Y-82141000D01*
X146056488Y-82136073D01*
X145907188Y-82106376D01*
X145743216Y-82038456D01*
X145595646Y-81939853D01*
X145470147Y-81814354D01*
X145371544Y-81666784D01*
X145303624Y-81502812D01*
X145269000Y-81328741D01*
X145269000Y-81151259D01*
X145303624Y-80977188D01*
X145371544Y-80813216D01*
X145470147Y-80665646D01*
X145595646Y-80540147D01*
X145743216Y-80441544D01*
X145907188Y-80373624D01*
X146056488Y-80343927D01*
X146081258Y-80339000D01*
X146258742Y-80339000D01*
X146283512Y-80343927D01*
G37*
G36*
X151363512Y-80343927D02*
G01*
X151512812Y-80373624D01*
X151676784Y-80441544D01*
X151824354Y-80540147D01*
X151949853Y-80665646D01*
X152048456Y-80813216D01*
X152116376Y-80977188D01*
X152151000Y-81151259D01*
X152151000Y-81328741D01*
X152116376Y-81502812D01*
X152048456Y-81666784D01*
X151949853Y-81814354D01*
X151824354Y-81939853D01*
X151676784Y-82038456D01*
X151512812Y-82106376D01*
X151363512Y-82136073D01*
X151338742Y-82141000D01*
X151161258Y-82141000D01*
X151136488Y-82136073D01*
X150987188Y-82106376D01*
X150823216Y-82038456D01*
X150675646Y-81939853D01*
X150550147Y-81814354D01*
X150451544Y-81666784D01*
X150383624Y-81502812D01*
X150349000Y-81328741D01*
X150349000Y-81151259D01*
X150383624Y-80977188D01*
X150451544Y-80813216D01*
X150550147Y-80665646D01*
X150675646Y-80540147D01*
X150823216Y-80441544D01*
X150987188Y-80373624D01*
X151136488Y-80343927D01*
X151161258Y-80339000D01*
X151338742Y-80339000D01*
X151363512Y-80343927D01*
G37*
G36*
X148823512Y-80343927D02*
G01*
X148972812Y-80373624D01*
X149136784Y-80441544D01*
X149284354Y-80540147D01*
X149409853Y-80665646D01*
X149508456Y-80813216D01*
X149576376Y-80977188D01*
X149611000Y-81151259D01*
X149611000Y-81328741D01*
X149576376Y-81502812D01*
X149508456Y-81666784D01*
X149409853Y-81814354D01*
X149284354Y-81939853D01*
X149136784Y-82038456D01*
X148972812Y-82106376D01*
X148823512Y-82136073D01*
X148798742Y-82141000D01*
X148621258Y-82141000D01*
X148596488Y-82136073D01*
X148447188Y-82106376D01*
X148283216Y-82038456D01*
X148135646Y-81939853D01*
X148010147Y-81814354D01*
X147911544Y-81666784D01*
X147843624Y-81502812D01*
X147809000Y-81328741D01*
X147809000Y-81151259D01*
X147843624Y-80977188D01*
X147911544Y-80813216D01*
X148010147Y-80665646D01*
X148135646Y-80540147D01*
X148283216Y-80441544D01*
X148447188Y-80373624D01*
X148596488Y-80343927D01*
X148621258Y-80339000D01*
X148798742Y-80339000D01*
X148823512Y-80343927D01*
G37*
G36*
X193583228Y-81290576D02*
G01*
X192565113Y-81712293D01*
X191952054Y-80232238D01*
X192970169Y-79810521D01*
X193583228Y-81290576D01*
G37*
G36*
X107836173Y-79496247D02*
G01*
X107223114Y-80976302D01*
X106204999Y-80554585D01*
X106818058Y-79074530D01*
X107836173Y-79496247D01*
G37*
G36*
X113621941Y-78797587D02*
G01*
X113655932Y-78807866D01*
X113692711Y-78827483D01*
X114255293Y-79202678D01*
X114287531Y-79229088D01*
X114310084Y-79256520D01*
X114326854Y-79287829D01*
X114337192Y-79321799D01*
X114340702Y-79357129D01*
X114337252Y-79392481D01*
X114326975Y-79426465D01*
X114307356Y-79463246D01*
X114276090Y-79510128D01*
X114276087Y-79510133D01*
X114206889Y-79613890D01*
X113973774Y-79963432D01*
X113947365Y-79995669D01*
X113919929Y-80018225D01*
X113888626Y-80034992D01*
X113854652Y-80045331D01*
X113819322Y-80048841D01*
X113783975Y-80045391D01*
X113749984Y-80035112D01*
X113713205Y-80015495D01*
X113150623Y-79640300D01*
X113118385Y-79613890D01*
X113095832Y-79586458D01*
X113079062Y-79555149D01*
X113068724Y-79521179D01*
X113065214Y-79485849D01*
X113068664Y-79450497D01*
X113078941Y-79416513D01*
X113098560Y-79379732D01*
X113129826Y-79332850D01*
X113129829Y-79332845D01*
X113376611Y-78962812D01*
X113432142Y-78879546D01*
X113458551Y-78847309D01*
X113485987Y-78824753D01*
X113517290Y-78807986D01*
X113551264Y-78797647D01*
X113586594Y-78794137D01*
X113621941Y-78797587D01*
G37*
G36*
X187970278Y-77679576D02*
G01*
X188130398Y-77918760D01*
X188861464Y-79010813D01*
X187945719Y-79623851D01*
X187939051Y-79613890D01*
X187663768Y-79202678D01*
X187054532Y-78292613D01*
X187970277Y-77679575D01*
X187970278Y-77679576D01*
G37*
G36*
X153903512Y-77803927D02*
G01*
X154052812Y-77833624D01*
X154216784Y-77901544D01*
X154364354Y-78000147D01*
X154489853Y-78125646D01*
X154588456Y-78273216D01*
X154656376Y-78437188D01*
X154686073Y-78586488D01*
X154691000Y-78611258D01*
X154691000Y-78788742D01*
X154689229Y-78797647D01*
X154656376Y-78962812D01*
X154588456Y-79126784D01*
X154489853Y-79274354D01*
X154364354Y-79399853D01*
X154216784Y-79498456D01*
X154052812Y-79566376D01*
X153903512Y-79596073D01*
X153878742Y-79601000D01*
X153701258Y-79601000D01*
X153676488Y-79596073D01*
X153527188Y-79566376D01*
X153363216Y-79498456D01*
X153215646Y-79399853D01*
X153090147Y-79274354D01*
X152991544Y-79126784D01*
X152923624Y-78962812D01*
X152890771Y-78797647D01*
X152889000Y-78788742D01*
X152889000Y-78611258D01*
X152893927Y-78586488D01*
X152923624Y-78437188D01*
X152991544Y-78273216D01*
X153090147Y-78125646D01*
X153215646Y-78000147D01*
X153363216Y-77901544D01*
X153527188Y-77833624D01*
X153676488Y-77803927D01*
X153701258Y-77799000D01*
X153878742Y-77799000D01*
X153903512Y-77803927D01*
G37*
G36*
X151363512Y-77803927D02*
G01*
X151512812Y-77833624D01*
X151676784Y-77901544D01*
X151824354Y-78000147D01*
X151949853Y-78125646D01*
X152048456Y-78273216D01*
X152116376Y-78437188D01*
X152146073Y-78586488D01*
X152151000Y-78611258D01*
X152151000Y-78788742D01*
X152149229Y-78797647D01*
X152116376Y-78962812D01*
X152048456Y-79126784D01*
X151949853Y-79274354D01*
X151824354Y-79399853D01*
X151676784Y-79498456D01*
X151512812Y-79566376D01*
X151363512Y-79596073D01*
X151338742Y-79601000D01*
X151161258Y-79601000D01*
X151136488Y-79596073D01*
X150987188Y-79566376D01*
X150823216Y-79498456D01*
X150675646Y-79399853D01*
X150550147Y-79274354D01*
X150451544Y-79126784D01*
X150383624Y-78962812D01*
X150350771Y-78797647D01*
X150349000Y-78788742D01*
X150349000Y-78611258D01*
X150353927Y-78586488D01*
X150383624Y-78437188D01*
X150451544Y-78273216D01*
X150550147Y-78125646D01*
X150675646Y-78000147D01*
X150823216Y-77901544D01*
X150987188Y-77833624D01*
X151136488Y-77803927D01*
X151161258Y-77799000D01*
X151338742Y-77799000D01*
X151363512Y-77803927D01*
G37*
G36*
X148823512Y-77803927D02*
G01*
X148972812Y-77833624D01*
X149136784Y-77901544D01*
X149284354Y-78000147D01*
X149409853Y-78125646D01*
X149508456Y-78273216D01*
X149576376Y-78437188D01*
X149606073Y-78586488D01*
X149611000Y-78611258D01*
X149611000Y-78788742D01*
X149609229Y-78797647D01*
X149576376Y-78962812D01*
X149508456Y-79126784D01*
X149409853Y-79274354D01*
X149284354Y-79399853D01*
X149136784Y-79498456D01*
X148972812Y-79566376D01*
X148823512Y-79596073D01*
X148798742Y-79601000D01*
X148621258Y-79601000D01*
X148596488Y-79596073D01*
X148447188Y-79566376D01*
X148283216Y-79498456D01*
X148135646Y-79399853D01*
X148010147Y-79274354D01*
X147911544Y-79126784D01*
X147843624Y-78962812D01*
X147810771Y-78797647D01*
X147809000Y-78788742D01*
X147809000Y-78611258D01*
X147813927Y-78586488D01*
X147843624Y-78437188D01*
X147911544Y-78273216D01*
X148010147Y-78125646D01*
X148135646Y-78000147D01*
X148283216Y-77901544D01*
X148447188Y-77833624D01*
X148596488Y-77803927D01*
X148621258Y-77799000D01*
X148798742Y-77799000D01*
X148823512Y-77803927D01*
G37*
G36*
X147071000Y-79601000D02*
G01*
X145269000Y-79601000D01*
X145269000Y-77799000D01*
X147071000Y-77799000D01*
X147071000Y-79601000D01*
G37*
G36*
X112150066Y-77146587D02*
G01*
X112753360Y-77548934D01*
X111864499Y-78881725D01*
X111864498Y-78881725D01*
X111197945Y-78437189D01*
X110947684Y-78270286D01*
X111836545Y-76937495D01*
X111836546Y-76937495D01*
X112150066Y-77146587D01*
G37*
G36*
X114495821Y-77487259D02*
G01*
X114529812Y-77497538D01*
X114566591Y-77517155D01*
X115129173Y-77892350D01*
X115161411Y-77918760D01*
X115183964Y-77946192D01*
X115200734Y-77977501D01*
X115211072Y-78011471D01*
X115214582Y-78046801D01*
X115211132Y-78082153D01*
X115200855Y-78116137D01*
X115181236Y-78152918D01*
X115149970Y-78199800D01*
X115149967Y-78199805D01*
X115080769Y-78303562D01*
X114847654Y-78653104D01*
X114821245Y-78685341D01*
X114793809Y-78707897D01*
X114762506Y-78724664D01*
X114728532Y-78735003D01*
X114693202Y-78738513D01*
X114657855Y-78735063D01*
X114623864Y-78724784D01*
X114587085Y-78705167D01*
X114024503Y-78329972D01*
X113992265Y-78303562D01*
X113969712Y-78276130D01*
X113952942Y-78244821D01*
X113942604Y-78210851D01*
X113939094Y-78175521D01*
X113942544Y-78140169D01*
X113952821Y-78106185D01*
X113972440Y-78069404D01*
X114003706Y-78022522D01*
X114003709Y-78022517D01*
X114203332Y-77723196D01*
X114306022Y-77569218D01*
X114332431Y-77536981D01*
X114359867Y-77514425D01*
X114391170Y-77497658D01*
X114425144Y-77487319D01*
X114460474Y-77483809D01*
X114495821Y-77487259D01*
G37*
G36*
X161401000Y-77901000D02*
G01*
X159599000Y-77901000D01*
X159599000Y-76099000D01*
X161401000Y-76099000D01*
X161401000Y-77901000D01*
G37*
G36*
X190629428Y-75899430D02*
G01*
X190684521Y-75981727D01*
X191520614Y-77230667D01*
X190604869Y-77843705D01*
X190574942Y-77799000D01*
X190342821Y-77452263D01*
X189713682Y-76512467D01*
X190629427Y-75899429D01*
X190629428Y-75899430D01*
G37*
G36*
X184181117Y-76475048D02*
G01*
X184215104Y-76485326D01*
X184246440Y-76502040D01*
X184273906Y-76524541D01*
X184300385Y-76556747D01*
X184634829Y-77056335D01*
X184654514Y-77093086D01*
X184664853Y-77127060D01*
X184668363Y-77162390D01*
X184664913Y-77197738D01*
X184654635Y-77231725D01*
X184637921Y-77263061D01*
X184615420Y-77290527D01*
X184583214Y-77317006D01*
X184021302Y-77693172D01*
X183984551Y-77712857D01*
X183950577Y-77723196D01*
X183915247Y-77726706D01*
X183879899Y-77723256D01*
X183845912Y-77712978D01*
X183814576Y-77696264D01*
X183787110Y-77673763D01*
X183760631Y-77641557D01*
X183426187Y-77141969D01*
X183406502Y-77105218D01*
X183396163Y-77071244D01*
X183392653Y-77035914D01*
X183396103Y-77000566D01*
X183406381Y-76966579D01*
X183423095Y-76935243D01*
X183445596Y-76907777D01*
X183477802Y-76881298D01*
X184039714Y-76505132D01*
X184076465Y-76485447D01*
X184110439Y-76475108D01*
X184145769Y-76471598D01*
X184181117Y-76475048D01*
G37*
G36*
X175390744Y-73134845D02*
G01*
X175791300Y-73300761D01*
X175791302Y-73300762D01*
X176151793Y-73541634D01*
X176458366Y-73848207D01*
X176581986Y-74033218D01*
X176699239Y-74208700D01*
X176865155Y-74609256D01*
X176949737Y-75034482D01*
X176949737Y-75468044D01*
X176865155Y-75893270D01*
X176702509Y-76285931D01*
X176699238Y-76293828D01*
X176458366Y-76654319D01*
X176151793Y-76960892D01*
X175791302Y-77201764D01*
X175791301Y-77201765D01*
X175791300Y-77201765D01*
X175390744Y-77367681D01*
X174965518Y-77452263D01*
X174531956Y-77452263D01*
X174106730Y-77367681D01*
X173706174Y-77201765D01*
X173706173Y-77201765D01*
X173706172Y-77201764D01*
X173345681Y-76960892D01*
X173039108Y-76654319D01*
X172798236Y-76293828D01*
X172794965Y-76285931D01*
X172632319Y-75893270D01*
X172547737Y-75468044D01*
X172547737Y-75034482D01*
X172632319Y-74609256D01*
X172798235Y-74208700D01*
X172915488Y-74033218D01*
X173039108Y-73848207D01*
X173345681Y-73541634D01*
X173706172Y-73300762D01*
X173706174Y-73300761D01*
X174106730Y-73134845D01*
X174531956Y-73050263D01*
X174965518Y-73050263D01*
X175390744Y-73134845D01*
G37*
G36*
X125893270Y-73134845D02*
G01*
X126293826Y-73300761D01*
X126293828Y-73300762D01*
X126654319Y-73541634D01*
X126960892Y-73848207D01*
X127084512Y-74033218D01*
X127201765Y-74208700D01*
X127367681Y-74609256D01*
X127452263Y-75034482D01*
X127452263Y-75468044D01*
X127367681Y-75893270D01*
X127205035Y-76285931D01*
X127201764Y-76293828D01*
X126960892Y-76654319D01*
X126654319Y-76960892D01*
X126293828Y-77201764D01*
X126293827Y-77201765D01*
X126293826Y-77201765D01*
X125893270Y-77367681D01*
X125468044Y-77452263D01*
X125034482Y-77452263D01*
X124609256Y-77367681D01*
X124208700Y-77201765D01*
X124208699Y-77201765D01*
X124208698Y-77201764D01*
X123848207Y-76960892D01*
X123541634Y-76654319D01*
X123300762Y-76293828D01*
X123297491Y-76285931D01*
X123134845Y-75893270D01*
X123050263Y-75468044D01*
X123050263Y-75034482D01*
X123134845Y-74609256D01*
X123300761Y-74208700D01*
X123418014Y-74033218D01*
X123541634Y-73848207D01*
X123848207Y-73541634D01*
X124208698Y-73300762D01*
X124208700Y-73300761D01*
X124609256Y-73134845D01*
X125034482Y-73050263D01*
X125468044Y-73050263D01*
X125893270Y-73134845D01*
G37*
G36*
X109472691Y-75361000D02*
G01*
X110091107Y-75773432D01*
X109202246Y-77106223D01*
X109202245Y-77106223D01*
X108524644Y-76654319D01*
X108285431Y-76494784D01*
X109174292Y-75161993D01*
X109174293Y-75161993D01*
X109472691Y-75361000D01*
G37*
G36*
X183304951Y-75166248D02*
G01*
X183338938Y-75176526D01*
X183370274Y-75193240D01*
X183397740Y-75215741D01*
X183424219Y-75247947D01*
X183758663Y-75747535D01*
X183778348Y-75784286D01*
X183788687Y-75818260D01*
X183792197Y-75853590D01*
X183788747Y-75888938D01*
X183778469Y-75922925D01*
X183761755Y-75954261D01*
X183739254Y-75981727D01*
X183707048Y-76008206D01*
X183145136Y-76384372D01*
X183108385Y-76404057D01*
X183074411Y-76414396D01*
X183039081Y-76417906D01*
X183003733Y-76414456D01*
X182969746Y-76404178D01*
X182938410Y-76387464D01*
X182910944Y-76364963D01*
X182884465Y-76332757D01*
X182550021Y-75833169D01*
X182530336Y-75796418D01*
X182519997Y-75762444D01*
X182516487Y-75727114D01*
X182519937Y-75691766D01*
X182530215Y-75657779D01*
X182546929Y-75626443D01*
X182569430Y-75598977D01*
X182601636Y-75572498D01*
X183163548Y-75196332D01*
X183200299Y-75176647D01*
X183234273Y-75166308D01*
X183269603Y-75162798D01*
X183304951Y-75166248D01*
G37*
G36*
X185244430Y-73607752D02*
G01*
X185405401Y-73848208D01*
X186135616Y-74938989D01*
X185219871Y-75552027D01*
X185212591Y-75541152D01*
X184978218Y-75191050D01*
X184328684Y-74220789D01*
X185244429Y-73607751D01*
X185244430Y-73607752D01*
G37*
G36*
X160613512Y-73563927D02*
G01*
X160762812Y-73593624D01*
X160926784Y-73661544D01*
X161074354Y-73760147D01*
X161199853Y-73885646D01*
X161298456Y-74033216D01*
X161366376Y-74197188D01*
X161401000Y-74371259D01*
X161401000Y-74548741D01*
X161366376Y-74722812D01*
X161298456Y-74886784D01*
X161199853Y-75034354D01*
X161074354Y-75159853D01*
X160926784Y-75258456D01*
X160762812Y-75326376D01*
X160613512Y-75356073D01*
X160588742Y-75361000D01*
X160411258Y-75361000D01*
X160386488Y-75356073D01*
X160237188Y-75326376D01*
X160073216Y-75258456D01*
X159925646Y-75159853D01*
X159800147Y-75034354D01*
X159701544Y-74886784D01*
X159633624Y-74722812D01*
X159599000Y-74548741D01*
X159599000Y-74371259D01*
X159633624Y-74197188D01*
X159701544Y-74033216D01*
X159800147Y-73885646D01*
X159925646Y-73760147D01*
X160073216Y-73661544D01*
X160237188Y-73593624D01*
X160386488Y-73563927D01*
X160411258Y-73559000D01*
X160588742Y-73559000D01*
X160613512Y-73563927D01*
G37*
G36*
X114839192Y-73050263D02*
G01*
X115472097Y-73472358D01*
X114583236Y-74805149D01*
X114583235Y-74805149D01*
X113932645Y-74371259D01*
X113666421Y-74193710D01*
X114555282Y-72860919D01*
X114555283Y-72860919D01*
X114839192Y-73050263D01*
G37*
G36*
X187903580Y-71827606D02*
G01*
X187943677Y-71887502D01*
X188794766Y-73158843D01*
X187879021Y-73771881D01*
X187871166Y-73760147D01*
X187563633Y-73300761D01*
X186987834Y-72440643D01*
X187903579Y-71827605D01*
X187903580Y-71827606D01*
G37*
G36*
X118396202Y-72217010D02*
G01*
X118430180Y-72227318D01*
X118461501Y-72244059D01*
X118493715Y-72270497D01*
X118533566Y-72310348D01*
X118533572Y-72310353D01*
X118932027Y-72708808D01*
X118932032Y-72708814D01*
X118971883Y-72748665D01*
X118998321Y-72780879D01*
X119015062Y-72812200D01*
X119025370Y-72846178D01*
X119028850Y-72881519D01*
X119025370Y-72916860D01*
X119015062Y-72950838D01*
X118998321Y-72982159D01*
X118971883Y-73014373D01*
X118932032Y-73054224D01*
X118932027Y-73054230D01*
X118586606Y-73399651D01*
X118586600Y-73399656D01*
X118546749Y-73439507D01*
X118514535Y-73465945D01*
X118483214Y-73482686D01*
X118449236Y-73492994D01*
X118413895Y-73496474D01*
X118378554Y-73492994D01*
X118344576Y-73482686D01*
X118313255Y-73465945D01*
X118281041Y-73439507D01*
X118241190Y-73399656D01*
X118241184Y-73399651D01*
X117842729Y-73001196D01*
X117842724Y-73001190D01*
X117802873Y-72961339D01*
X117776435Y-72929125D01*
X117759694Y-72897804D01*
X117749386Y-72863826D01*
X117745906Y-72828485D01*
X117749386Y-72793144D01*
X117759694Y-72759166D01*
X117776435Y-72727845D01*
X117802873Y-72695631D01*
X117842724Y-72655780D01*
X117842729Y-72655774D01*
X118188150Y-72310353D01*
X118188156Y-72310348D01*
X118228007Y-72270497D01*
X118260221Y-72244059D01*
X118291542Y-72227318D01*
X118325520Y-72217010D01*
X118360861Y-72213530D01*
X118396202Y-72217010D01*
G37*
G36*
X112095050Y-71220148D02*
G01*
X112809844Y-71696856D01*
X111920983Y-73029647D01*
X111920982Y-73029647D01*
X111360384Y-72655774D01*
X111004168Y-72418208D01*
X111893029Y-71085417D01*
X111893030Y-71085417D01*
X112095050Y-71220148D01*
G37*
G36*
X160613512Y-71023927D02*
G01*
X160762812Y-71053624D01*
X160926784Y-71121544D01*
X161074354Y-71220147D01*
X161199853Y-71345646D01*
X161298456Y-71493216D01*
X161366376Y-71657188D01*
X161390070Y-71776309D01*
X161400274Y-71827606D01*
X161401000Y-71831259D01*
X161401000Y-72008741D01*
X161366376Y-72182812D01*
X161298456Y-72346784D01*
X161199853Y-72494354D01*
X161074354Y-72619853D01*
X160926784Y-72718456D01*
X160762812Y-72786376D01*
X160613512Y-72816073D01*
X160588742Y-72821000D01*
X160411258Y-72821000D01*
X160386488Y-72816073D01*
X160237188Y-72786376D01*
X160073216Y-72718456D01*
X159925646Y-72619853D01*
X159800147Y-72494354D01*
X159701544Y-72346784D01*
X159633624Y-72182812D01*
X159599000Y-72008741D01*
X159599000Y-71831259D01*
X159599727Y-71827606D01*
X159609930Y-71776309D01*
X159633624Y-71657188D01*
X159701544Y-71493216D01*
X159800147Y-71345646D01*
X159925646Y-71220147D01*
X160073216Y-71121544D01*
X160237188Y-71053624D01*
X160386488Y-71023927D01*
X160411258Y-71019000D01*
X160588742Y-71019000D01*
X160613512Y-71023927D01*
G37*
G36*
X183617938Y-71817453D02*
G01*
X182838707Y-72596684D01*
X181705922Y-71463899D01*
X182485153Y-70684668D01*
X183617938Y-71817453D01*
G37*
G36*
X119509896Y-71103316D02*
G01*
X119543874Y-71113624D01*
X119575195Y-71130365D01*
X119607409Y-71156803D01*
X119647260Y-71196654D01*
X119647266Y-71196659D01*
X120045721Y-71595114D01*
X120045726Y-71595120D01*
X120085577Y-71634971D01*
X120112015Y-71667185D01*
X120128756Y-71698506D01*
X120139064Y-71732484D01*
X120142544Y-71767825D01*
X120139064Y-71803166D01*
X120128756Y-71837144D01*
X120112015Y-71868465D01*
X120085577Y-71900679D01*
X120045726Y-71940530D01*
X120045721Y-71940536D01*
X119700300Y-72285957D01*
X119700294Y-72285962D01*
X119660443Y-72325813D01*
X119628229Y-72352251D01*
X119596908Y-72368992D01*
X119562930Y-72379300D01*
X119527589Y-72382780D01*
X119492248Y-72379300D01*
X119458270Y-72368992D01*
X119426949Y-72352251D01*
X119394735Y-72325813D01*
X119354884Y-72285962D01*
X119354878Y-72285957D01*
X118956423Y-71887502D01*
X118956418Y-71887496D01*
X118916567Y-71847645D01*
X118890129Y-71815431D01*
X118873388Y-71784110D01*
X118863080Y-71750132D01*
X118859600Y-71714791D01*
X118863080Y-71679450D01*
X118873388Y-71645472D01*
X118890129Y-71614151D01*
X118916567Y-71581937D01*
X118956418Y-71542086D01*
X118956423Y-71542080D01*
X119301844Y-71196659D01*
X119301850Y-71196654D01*
X119341701Y-71156803D01*
X119373915Y-71130365D01*
X119405236Y-71113624D01*
X119439214Y-71103316D01*
X119474555Y-71099836D01*
X119509896Y-71103316D01*
G37*
G36*
X117814268Y-70643524D02*
G01*
X116681483Y-71776309D01*
X115902252Y-70997078D01*
X117035037Y-69864293D01*
X117814268Y-70643524D01*
G37*
G36*
X178564232Y-70208957D02*
G01*
X178598210Y-70219265D01*
X178629531Y-70236006D01*
X178661745Y-70262444D01*
X178701596Y-70302295D01*
X178701602Y-70302300D01*
X179047023Y-70647721D01*
X179047028Y-70647727D01*
X179086879Y-70687578D01*
X179113317Y-70719792D01*
X179130058Y-70751113D01*
X179140366Y-70785091D01*
X179143846Y-70820432D01*
X179140366Y-70855773D01*
X179130058Y-70889751D01*
X179113317Y-70921072D01*
X179086879Y-70953286D01*
X179047028Y-70993137D01*
X179047023Y-70993143D01*
X178648568Y-71391598D01*
X178648562Y-71391603D01*
X178608711Y-71431454D01*
X178576497Y-71457892D01*
X178545176Y-71474633D01*
X178511198Y-71484941D01*
X178475857Y-71488421D01*
X178440516Y-71484941D01*
X178406538Y-71474633D01*
X178375217Y-71457892D01*
X178343003Y-71431454D01*
X178303152Y-71391603D01*
X178303146Y-71391598D01*
X177957725Y-71046177D01*
X177957720Y-71046171D01*
X177917869Y-71006320D01*
X177891431Y-70974106D01*
X177874690Y-70942785D01*
X177864382Y-70908807D01*
X177860902Y-70873466D01*
X177864382Y-70838125D01*
X177874690Y-70804147D01*
X177891431Y-70772826D01*
X177917869Y-70740612D01*
X177957720Y-70700761D01*
X177957725Y-70700755D01*
X178356180Y-70302300D01*
X178356186Y-70302295D01*
X178396037Y-70262444D01*
X178428251Y-70236006D01*
X178459572Y-70219265D01*
X178493550Y-70208957D01*
X178528891Y-70205477D01*
X178564232Y-70208957D01*
G37*
G36*
X177450538Y-69095263D02*
G01*
X177484516Y-69105571D01*
X177515837Y-69122312D01*
X177548051Y-69148750D01*
X177587902Y-69188601D01*
X177587908Y-69188606D01*
X177933329Y-69534027D01*
X177933334Y-69534033D01*
X177973185Y-69573884D01*
X177999623Y-69606098D01*
X178016364Y-69637419D01*
X178026672Y-69671397D01*
X178030152Y-69706738D01*
X178026672Y-69742079D01*
X178016364Y-69776057D01*
X177999623Y-69807378D01*
X177973185Y-69839592D01*
X177933334Y-69879443D01*
X177933329Y-69879449D01*
X177534874Y-70277904D01*
X177534868Y-70277909D01*
X177495017Y-70317760D01*
X177462803Y-70344198D01*
X177431482Y-70360939D01*
X177397504Y-70371247D01*
X177362163Y-70374727D01*
X177326822Y-70371247D01*
X177292844Y-70360939D01*
X177261523Y-70344198D01*
X177229309Y-70317760D01*
X177189458Y-70277909D01*
X177189452Y-70277904D01*
X176844031Y-69932483D01*
X176844026Y-69932477D01*
X176804175Y-69892626D01*
X176777737Y-69860412D01*
X176760996Y-69829091D01*
X176750688Y-69795113D01*
X176747208Y-69759772D01*
X176750688Y-69724431D01*
X176760996Y-69690453D01*
X176777737Y-69659132D01*
X176804175Y-69626918D01*
X176844026Y-69587067D01*
X176844031Y-69587061D01*
X177242486Y-69188606D01*
X177242492Y-69188601D01*
X177282343Y-69148750D01*
X177314557Y-69122312D01*
X177345878Y-69105571D01*
X177379856Y-69095263D01*
X177415197Y-69091783D01*
X177450538Y-69095263D01*
G37*
G36*
X185880679Y-69554712D02*
G01*
X185101448Y-70333943D01*
X183968663Y-69201158D01*
X184747894Y-68421927D01*
X185880679Y-69554712D01*
G37*
G36*
X160613512Y-68483927D02*
G01*
X160762812Y-68513624D01*
X160926784Y-68581544D01*
X161074354Y-68680147D01*
X161199853Y-68805646D01*
X161298456Y-68953216D01*
X161366376Y-69117188D01*
X161401000Y-69291259D01*
X161401000Y-69468741D01*
X161366376Y-69642812D01*
X161298456Y-69806784D01*
X161199853Y-69954354D01*
X161074354Y-70079853D01*
X160926784Y-70178456D01*
X160762812Y-70246376D01*
X160613512Y-70276073D01*
X160588742Y-70281000D01*
X160411258Y-70281000D01*
X160386488Y-70276073D01*
X160237188Y-70246376D01*
X160073216Y-70178456D01*
X159925646Y-70079853D01*
X159800147Y-69954354D01*
X159701544Y-69806784D01*
X159633624Y-69642812D01*
X159599000Y-69468741D01*
X159599000Y-69291259D01*
X159633624Y-69117188D01*
X159701544Y-68953216D01*
X159800147Y-68805646D01*
X159925646Y-68680147D01*
X160073216Y-68581544D01*
X160237188Y-68513624D01*
X160386488Y-68483927D01*
X160411258Y-68479000D01*
X160588742Y-68479000D01*
X160613512Y-68483927D01*
G37*
G36*
X115551527Y-68380783D02*
G01*
X114418742Y-69513568D01*
X113639511Y-68734337D01*
X114772296Y-67601552D01*
X115551527Y-68380783D01*
G37*
G36*
X180153115Y-68352630D02*
G01*
X179373884Y-69131861D01*
X178241099Y-67999076D01*
X179020330Y-67219845D01*
X180153115Y-68352630D01*
G37*
G36*
X121279091Y-67178701D02*
G01*
X120146306Y-68311486D01*
X119367075Y-67532255D01*
X120499860Y-66399470D01*
X121279091Y-67178701D01*
G37*
G36*
X124715274Y-66619598D02*
G01*
X124749261Y-66629876D01*
X124780597Y-66646590D01*
X124808063Y-66669091D01*
X124834542Y-66701297D01*
X125210708Y-67263209D01*
X125230393Y-67299960D01*
X125240732Y-67333934D01*
X125244242Y-67369264D01*
X125240792Y-67404612D01*
X125230514Y-67438599D01*
X125213800Y-67469935D01*
X125191299Y-67497401D01*
X125159093Y-67523880D01*
X124659505Y-67858324D01*
X124622754Y-67878009D01*
X124588780Y-67888348D01*
X124553450Y-67891858D01*
X124518102Y-67888408D01*
X124484115Y-67878130D01*
X124452779Y-67861416D01*
X124425313Y-67838915D01*
X124398834Y-67806709D01*
X124022668Y-67244797D01*
X124002983Y-67208046D01*
X123992644Y-67174072D01*
X123989134Y-67138742D01*
X123992584Y-67103394D01*
X124002862Y-67069407D01*
X124019576Y-67038071D01*
X124042077Y-67010605D01*
X124074283Y-66984126D01*
X124573871Y-66649682D01*
X124610622Y-66629997D01*
X124644596Y-66619658D01*
X124679926Y-66616148D01*
X124715274Y-66619598D01*
G37*
G36*
X160613512Y-65943927D02*
G01*
X160762812Y-65973624D01*
X160926784Y-66041544D01*
X161074354Y-66140147D01*
X161199853Y-66265646D01*
X161298456Y-66413216D01*
X161366376Y-66577188D01*
X161401000Y-66751259D01*
X161401000Y-66928741D01*
X161366376Y-67102812D01*
X161298456Y-67266784D01*
X161199853Y-67414354D01*
X161074354Y-67539853D01*
X160926784Y-67638456D01*
X160762812Y-67706376D01*
X160613512Y-67736073D01*
X160588742Y-67741000D01*
X160411258Y-67741000D01*
X160386488Y-67736073D01*
X160237188Y-67706376D01*
X160073216Y-67638456D01*
X159925646Y-67539853D01*
X159800147Y-67414354D01*
X159701544Y-67266784D01*
X159633624Y-67102812D01*
X159599000Y-66928741D01*
X159599000Y-66751259D01*
X159633624Y-66577188D01*
X159701544Y-66413216D01*
X159800147Y-66265646D01*
X159925646Y-66140147D01*
X160073216Y-66041544D01*
X160237188Y-65973624D01*
X160386488Y-65943927D01*
X160411258Y-65939000D01*
X160588742Y-65939000D01*
X160613512Y-65943927D01*
G37*
G36*
X126024074Y-65743432D02*
G01*
X126058061Y-65753710D01*
X126089397Y-65770424D01*
X126116863Y-65792925D01*
X126143342Y-65825131D01*
X126519508Y-66387043D01*
X126539193Y-66423794D01*
X126549532Y-66457768D01*
X126553042Y-66493098D01*
X126549592Y-66528446D01*
X126539314Y-66562433D01*
X126522600Y-66593769D01*
X126500099Y-66621235D01*
X126467893Y-66647714D01*
X125968305Y-66982158D01*
X125931554Y-67001843D01*
X125897580Y-67012182D01*
X125862250Y-67015692D01*
X125826902Y-67012242D01*
X125792915Y-67001964D01*
X125761579Y-66985250D01*
X125734113Y-66962749D01*
X125707634Y-66930543D01*
X125331468Y-66368631D01*
X125311783Y-66331880D01*
X125301444Y-66297906D01*
X125297934Y-66262576D01*
X125301384Y-66227228D01*
X125311662Y-66193241D01*
X125328376Y-66161905D01*
X125350877Y-66134439D01*
X125383083Y-66107960D01*
X125882671Y-65773516D01*
X125919422Y-65753831D01*
X125953396Y-65743492D01*
X125988726Y-65739982D01*
X126024074Y-65743432D01*
G37*
G36*
X147556601Y-64414397D02*
G01*
X147595305Y-64422096D01*
X147627340Y-64435365D01*
X147704680Y-64467400D01*
X147803115Y-64533173D01*
X147886828Y-64616886D01*
X147951067Y-64713026D01*
X147966613Y-64731968D01*
X147985555Y-64747513D01*
X148007165Y-64759064D01*
X148030614Y-64766177D01*
X148055000Y-64768579D01*
X148079386Y-64766177D01*
X148102835Y-64759064D01*
X148124446Y-64747513D01*
X148143388Y-64731967D01*
X148158933Y-64713026D01*
X148223172Y-64616886D01*
X148306885Y-64533173D01*
X148405320Y-64467400D01*
X148482660Y-64435365D01*
X148514695Y-64422096D01*
X148553399Y-64414397D01*
X148630805Y-64399000D01*
X148749195Y-64399000D01*
X148826601Y-64414397D01*
X148865305Y-64422096D01*
X148897340Y-64435365D01*
X148974680Y-64467400D01*
X149073115Y-64533173D01*
X149156828Y-64616886D01*
X149221067Y-64713026D01*
X149236613Y-64731968D01*
X149255555Y-64747513D01*
X149277165Y-64759064D01*
X149300614Y-64766177D01*
X149325000Y-64768579D01*
X149349386Y-64766177D01*
X149372835Y-64759064D01*
X149394446Y-64747513D01*
X149413388Y-64731967D01*
X149428933Y-64713026D01*
X149493172Y-64616886D01*
X149576885Y-64533173D01*
X149675320Y-64467400D01*
X149752660Y-64435365D01*
X149784695Y-64422096D01*
X149823399Y-64414397D01*
X149900805Y-64399000D01*
X150019195Y-64399000D01*
X150096601Y-64414397D01*
X150135305Y-64422096D01*
X150167340Y-64435365D01*
X150244680Y-64467400D01*
X150343115Y-64533173D01*
X150426828Y-64616886D01*
X150491067Y-64713026D01*
X150506613Y-64731968D01*
X150525555Y-64747513D01*
X150547165Y-64759064D01*
X150570614Y-64766177D01*
X150595000Y-64768579D01*
X150619386Y-64766177D01*
X150642835Y-64759064D01*
X150664446Y-64747513D01*
X150683388Y-64731967D01*
X150698933Y-64713026D01*
X150763172Y-64616886D01*
X150846885Y-64533173D01*
X150945320Y-64467400D01*
X151022660Y-64435365D01*
X151054695Y-64422096D01*
X151093399Y-64414397D01*
X151170805Y-64399000D01*
X151289195Y-64399000D01*
X151366601Y-64414397D01*
X151405305Y-64422096D01*
X151437340Y-64435365D01*
X151514680Y-64467400D01*
X151613115Y-64533173D01*
X151696828Y-64616886D01*
X151761067Y-64713026D01*
X151776613Y-64731968D01*
X151795555Y-64747513D01*
X151817165Y-64759064D01*
X151840614Y-64766177D01*
X151865000Y-64768579D01*
X151889386Y-64766177D01*
X151912835Y-64759064D01*
X151934446Y-64747513D01*
X151953388Y-64731967D01*
X151968933Y-64713026D01*
X152033172Y-64616886D01*
X152116885Y-64533173D01*
X152215320Y-64467400D01*
X152292660Y-64435365D01*
X152324695Y-64422096D01*
X152363399Y-64414397D01*
X152440805Y-64399000D01*
X152559195Y-64399000D01*
X152636601Y-64414397D01*
X152675305Y-64422096D01*
X152707340Y-64435365D01*
X152784680Y-64467400D01*
X152883115Y-64533173D01*
X152966827Y-64616885D01*
X153032600Y-64715320D01*
X153062288Y-64786995D01*
X153077523Y-64823774D01*
X153077904Y-64824696D01*
X153101000Y-64940805D01*
X153101000Y-65059195D01*
X153077904Y-65175304D01*
X153032600Y-65284680D01*
X152966827Y-65383115D01*
X152883114Y-65466828D01*
X152786974Y-65531067D01*
X152768032Y-65546613D01*
X152752487Y-65565555D01*
X152740936Y-65587165D01*
X152733823Y-65610614D01*
X152731421Y-65635000D01*
X152733823Y-65659386D01*
X152740936Y-65682835D01*
X152752487Y-65704446D01*
X152768033Y-65723388D01*
X152786974Y-65738933D01*
X152883114Y-65803172D01*
X152966827Y-65886885D01*
X153032600Y-65985320D01*
X153045934Y-66017513D01*
X153077904Y-66094695D01*
X153085603Y-66133399D01*
X153101000Y-66210805D01*
X153101000Y-66329195D01*
X153092237Y-66373249D01*
X153077904Y-66445305D01*
X153065240Y-66475879D01*
X153032600Y-66554680D01*
X152966827Y-66653115D01*
X152883115Y-66736827D01*
X152784680Y-66802600D01*
X152707340Y-66834635D01*
X152675305Y-66847904D01*
X152636601Y-66855603D01*
X152559195Y-66871000D01*
X152440805Y-66871000D01*
X152363399Y-66855603D01*
X152324695Y-66847904D01*
X152292660Y-66834635D01*
X152215320Y-66802600D01*
X152116885Y-66736827D01*
X152033172Y-66653114D01*
X151968933Y-66556974D01*
X151953387Y-66538032D01*
X151934445Y-66522487D01*
X151912835Y-66510936D01*
X151889386Y-66503823D01*
X151865000Y-66501421D01*
X151840614Y-66503823D01*
X151817165Y-66510936D01*
X151795554Y-66522487D01*
X151776612Y-66538033D01*
X151761067Y-66556974D01*
X151696828Y-66653114D01*
X151613115Y-66736827D01*
X151514680Y-66802600D01*
X151437340Y-66834635D01*
X151405305Y-66847904D01*
X151366601Y-66855603D01*
X151289195Y-66871000D01*
X151170805Y-66871000D01*
X151093399Y-66855603D01*
X151054695Y-66847904D01*
X151022660Y-66834635D01*
X150945320Y-66802600D01*
X150846885Y-66736827D01*
X150763172Y-66653114D01*
X150698933Y-66556974D01*
X150683387Y-66538032D01*
X150664445Y-66522487D01*
X150642835Y-66510936D01*
X150619386Y-66503823D01*
X150595000Y-66501421D01*
X150570614Y-66503823D01*
X150547165Y-66510936D01*
X150525554Y-66522487D01*
X150506612Y-66538033D01*
X150491067Y-66556974D01*
X150426828Y-66653114D01*
X150343115Y-66736827D01*
X150244680Y-66802600D01*
X150167340Y-66834635D01*
X150135305Y-66847904D01*
X150096601Y-66855603D01*
X150019195Y-66871000D01*
X149900805Y-66871000D01*
X149823399Y-66855603D01*
X149784695Y-66847904D01*
X149752660Y-66834635D01*
X149675320Y-66802600D01*
X149576885Y-66736827D01*
X149493172Y-66653114D01*
X149428933Y-66556974D01*
X149413387Y-66538032D01*
X149394445Y-66522487D01*
X149372835Y-66510936D01*
X149349386Y-66503823D01*
X149325000Y-66501421D01*
X149300614Y-66503823D01*
X149277165Y-66510936D01*
X149255554Y-66522487D01*
X149236612Y-66538033D01*
X149221067Y-66556974D01*
X149156828Y-66653114D01*
X149073115Y-66736827D01*
X148974680Y-66802600D01*
X148897340Y-66834635D01*
X148865305Y-66847904D01*
X148826601Y-66855603D01*
X148749195Y-66871000D01*
X148630805Y-66871000D01*
X148553399Y-66855603D01*
X148514695Y-66847904D01*
X148482660Y-66834635D01*
X148405320Y-66802600D01*
X148306885Y-66736827D01*
X148223172Y-66653114D01*
X148158933Y-66556974D01*
X148143387Y-66538032D01*
X148124445Y-66522487D01*
X148102835Y-66510936D01*
X148079386Y-66503823D01*
X148055000Y-66501421D01*
X148030614Y-66503823D01*
X148007165Y-66510936D01*
X147985554Y-66522487D01*
X147966612Y-66538033D01*
X147951067Y-66556974D01*
X147886828Y-66653114D01*
X147803115Y-66736827D01*
X147704680Y-66802600D01*
X147627340Y-66834635D01*
X147595305Y-66847904D01*
X147556601Y-66855603D01*
X147479195Y-66871000D01*
X147360805Y-66871000D01*
X147283399Y-66855603D01*
X147244695Y-66847904D01*
X147212660Y-66834635D01*
X147135320Y-66802600D01*
X147036885Y-66736827D01*
X146953173Y-66653115D01*
X146887400Y-66554680D01*
X146854760Y-66475879D01*
X146842096Y-66445305D01*
X146827763Y-66373249D01*
X146819000Y-66329195D01*
X146819000Y-66210805D01*
X146834397Y-66133399D01*
X146842096Y-66094695D01*
X146874066Y-66017513D01*
X146887400Y-65985320D01*
X146953173Y-65886885D01*
X147036886Y-65803172D01*
X147133026Y-65738933D01*
X147151968Y-65723387D01*
X147167513Y-65704445D01*
X147179064Y-65682835D01*
X147186177Y-65659386D01*
X147188579Y-65635000D01*
X147651421Y-65635000D01*
X147653823Y-65659386D01*
X147660936Y-65682835D01*
X147672487Y-65704446D01*
X147688033Y-65723388D01*
X147706974Y-65738933D01*
X147803114Y-65803172D01*
X147886828Y-65886886D01*
X147951067Y-65983026D01*
X147966613Y-66001968D01*
X147985555Y-66017513D01*
X148007165Y-66029064D01*
X148030614Y-66036177D01*
X148055000Y-66038579D01*
X148079386Y-66036177D01*
X148102835Y-66029064D01*
X148124446Y-66017513D01*
X148143388Y-66001967D01*
X148158933Y-65983026D01*
X148223172Y-65886886D01*
X148306886Y-65803172D01*
X148403026Y-65738933D01*
X148421968Y-65723387D01*
X148437513Y-65704445D01*
X148449064Y-65682835D01*
X148456177Y-65659386D01*
X148458579Y-65635000D01*
X148921421Y-65635000D01*
X148923823Y-65659386D01*
X148930936Y-65682835D01*
X148942487Y-65704446D01*
X148958033Y-65723388D01*
X148976974Y-65738933D01*
X149073114Y-65803172D01*
X149156828Y-65886886D01*
X149221067Y-65983026D01*
X149236613Y-66001968D01*
X149255555Y-66017513D01*
X149277165Y-66029064D01*
X149300614Y-66036177D01*
X149325000Y-66038579D01*
X149349386Y-66036177D01*
X149372835Y-66029064D01*
X149394446Y-66017513D01*
X149413388Y-66001967D01*
X149428933Y-65983026D01*
X149493172Y-65886886D01*
X149576886Y-65803172D01*
X149673026Y-65738933D01*
X149691968Y-65723387D01*
X149707513Y-65704445D01*
X149719064Y-65682835D01*
X149726177Y-65659386D01*
X149728579Y-65635000D01*
X150191421Y-65635000D01*
X150193823Y-65659386D01*
X150200936Y-65682835D01*
X150212487Y-65704446D01*
X150228033Y-65723388D01*
X150246974Y-65738933D01*
X150343114Y-65803172D01*
X150426828Y-65886886D01*
X150491067Y-65983026D01*
X150506613Y-66001968D01*
X150525555Y-66017513D01*
X150547165Y-66029064D01*
X150570614Y-66036177D01*
X150595000Y-66038579D01*
X150619386Y-66036177D01*
X150642835Y-66029064D01*
X150664446Y-66017513D01*
X150683388Y-66001967D01*
X150698933Y-65983026D01*
X150763172Y-65886886D01*
X150846886Y-65803172D01*
X150943026Y-65738933D01*
X150961968Y-65723387D01*
X150977513Y-65704445D01*
X150989064Y-65682835D01*
X150996177Y-65659386D01*
X150998579Y-65635000D01*
X151461421Y-65635000D01*
X151463823Y-65659386D01*
X151470936Y-65682835D01*
X151482487Y-65704446D01*
X151498033Y-65723388D01*
X151516974Y-65738933D01*
X151613114Y-65803172D01*
X151696828Y-65886886D01*
X151761067Y-65983026D01*
X151776613Y-66001968D01*
X151795555Y-66017513D01*
X151817165Y-66029064D01*
X151840614Y-66036177D01*
X151865000Y-66038579D01*
X151889386Y-66036177D01*
X151912835Y-66029064D01*
X151934446Y-66017513D01*
X151953388Y-66001967D01*
X151968933Y-65983026D01*
X152033172Y-65886886D01*
X152116886Y-65803172D01*
X152213026Y-65738933D01*
X152231968Y-65723387D01*
X152247513Y-65704445D01*
X152259064Y-65682835D01*
X152266177Y-65659386D01*
X152268579Y-65635000D01*
X152266177Y-65610614D01*
X152259064Y-65587165D01*
X152247513Y-65565554D01*
X152231967Y-65546612D01*
X152213026Y-65531067D01*
X152116886Y-65466828D01*
X152033172Y-65383114D01*
X151968933Y-65286974D01*
X151953387Y-65268032D01*
X151934445Y-65252487D01*
X151912835Y-65240936D01*
X151889386Y-65233823D01*
X151865000Y-65231421D01*
X151840614Y-65233823D01*
X151817165Y-65240936D01*
X151795554Y-65252487D01*
X151776612Y-65268033D01*
X151761067Y-65286974D01*
X151696828Y-65383114D01*
X151613114Y-65466828D01*
X151516974Y-65531067D01*
X151498032Y-65546613D01*
X151482487Y-65565555D01*
X151470936Y-65587165D01*
X151463823Y-65610614D01*
X151461421Y-65635000D01*
X150998579Y-65635000D01*
X150996177Y-65610614D01*
X150989064Y-65587165D01*
X150977513Y-65565554D01*
X150961967Y-65546612D01*
X150943026Y-65531067D01*
X150846886Y-65466828D01*
X150763172Y-65383114D01*
X150698933Y-65286974D01*
X150683387Y-65268032D01*
X150664445Y-65252487D01*
X150642835Y-65240936D01*
X150619386Y-65233823D01*
X150595000Y-65231421D01*
X150570614Y-65233823D01*
X150547165Y-65240936D01*
X150525554Y-65252487D01*
X150506612Y-65268033D01*
X150491067Y-65286974D01*
X150426828Y-65383114D01*
X150343114Y-65466828D01*
X150246974Y-65531067D01*
X150228032Y-65546613D01*
X150212487Y-65565555D01*
X150200936Y-65587165D01*
X150193823Y-65610614D01*
X150191421Y-65635000D01*
X149728579Y-65635000D01*
X149726177Y-65610614D01*
X149719064Y-65587165D01*
X149707513Y-65565554D01*
X149691967Y-65546612D01*
X149673026Y-65531067D01*
X149576886Y-65466828D01*
X149493172Y-65383114D01*
X149428933Y-65286974D01*
X149413387Y-65268032D01*
X149394445Y-65252487D01*
X149372835Y-65240936D01*
X149349386Y-65233823D01*
X149325000Y-65231421D01*
X149300614Y-65233823D01*
X149277165Y-65240936D01*
X149255554Y-65252487D01*
X149236612Y-65268033D01*
X149221067Y-65286974D01*
X149156828Y-65383114D01*
X149073114Y-65466828D01*
X148976974Y-65531067D01*
X148958032Y-65546613D01*
X148942487Y-65565555D01*
X148930936Y-65587165D01*
X148923823Y-65610614D01*
X148921421Y-65635000D01*
X148458579Y-65635000D01*
X148456177Y-65610614D01*
X148449064Y-65587165D01*
X148437513Y-65565554D01*
X148421967Y-65546612D01*
X148403026Y-65531067D01*
X148306886Y-65466828D01*
X148223172Y-65383114D01*
X148158933Y-65286974D01*
X148143387Y-65268032D01*
X148124445Y-65252487D01*
X148102835Y-65240936D01*
X148079386Y-65233823D01*
X148055000Y-65231421D01*
X148030614Y-65233823D01*
X148007165Y-65240936D01*
X147985554Y-65252487D01*
X147966612Y-65268033D01*
X147951067Y-65286974D01*
X147886828Y-65383114D01*
X147803114Y-65466828D01*
X147706974Y-65531067D01*
X147688032Y-65546613D01*
X147672487Y-65565555D01*
X147660936Y-65587165D01*
X147653823Y-65610614D01*
X147651421Y-65635000D01*
X147188579Y-65635000D01*
X147186177Y-65610614D01*
X147179064Y-65587165D01*
X147167513Y-65565554D01*
X147151967Y-65546612D01*
X147133026Y-65531067D01*
X147036886Y-65466828D01*
X146953173Y-65383115D01*
X146887400Y-65284680D01*
X146842096Y-65175304D01*
X146819000Y-65059195D01*
X146819000Y-64940805D01*
X146842096Y-64824696D01*
X146842478Y-64823774D01*
X146857712Y-64786995D01*
X146887400Y-64715320D01*
X146953173Y-64616885D01*
X147036885Y-64533173D01*
X147135320Y-64467400D01*
X147212660Y-64435365D01*
X147244695Y-64422096D01*
X147283399Y-64414397D01*
X147360805Y-64399000D01*
X147479195Y-64399000D01*
X147556601Y-64414397D01*
G37*
G36*
X182415856Y-66089889D02*
G01*
X181636625Y-66869120D01*
X180503840Y-65736335D01*
X181283071Y-64957104D01*
X182415856Y-66089889D01*
G37*
G36*
X177662695Y-65773294D02*
G01*
X177662695Y-65773295D01*
X177382625Y-66193241D01*
X177051256Y-66690109D01*
X175718465Y-65801248D01*
X175718465Y-65801247D01*
X176135917Y-65175305D01*
X176329904Y-64884433D01*
X177662695Y-65773294D01*
G37*
G36*
X172383470Y-65016334D02*
G01*
X172417454Y-65026611D01*
X172454235Y-65046230D01*
X172501117Y-65077496D01*
X172501122Y-65077499D01*
X172634387Y-65166376D01*
X172954421Y-65379812D01*
X172986658Y-65406221D01*
X173009214Y-65433657D01*
X173025981Y-65464960D01*
X173036320Y-65498934D01*
X173039830Y-65534264D01*
X173036380Y-65569611D01*
X173026101Y-65603602D01*
X173006484Y-65640381D01*
X172631289Y-66202963D01*
X172604879Y-66235201D01*
X172577447Y-66257754D01*
X172546138Y-66274524D01*
X172512168Y-66284862D01*
X172476838Y-66288372D01*
X172441486Y-66284922D01*
X172407502Y-66274645D01*
X172370721Y-66255026D01*
X172323839Y-66223760D01*
X172323834Y-66223757D01*
X172046172Y-66038579D01*
X171870535Y-65921444D01*
X171838298Y-65895035D01*
X171815742Y-65867599D01*
X171798975Y-65836296D01*
X171788636Y-65802322D01*
X171785126Y-65766992D01*
X171788576Y-65731645D01*
X171798855Y-65697654D01*
X171818472Y-65660875D01*
X172193667Y-65098293D01*
X172220077Y-65066055D01*
X172247509Y-65043502D01*
X172278818Y-65026732D01*
X172312788Y-65016394D01*
X172348118Y-65012884D01*
X172383470Y-65016334D01*
G37*
G36*
X119016350Y-64915960D02*
G01*
X117883565Y-66048745D01*
X117104334Y-65269514D01*
X118237119Y-64136729D01*
X119016350Y-64915960D01*
G37*
G36*
X124307177Y-64947316D02*
G01*
X124307176Y-64947317D01*
X124081407Y-65098456D01*
X122975939Y-65838503D01*
X122362901Y-64922758D01*
X122373056Y-64915960D01*
X122868634Y-64584199D01*
X123694139Y-64031571D01*
X124307177Y-64947316D01*
G37*
G36*
X171073142Y-64142454D02*
G01*
X171107126Y-64152731D01*
X171143907Y-64172350D01*
X171190789Y-64203616D01*
X171190794Y-64203619D01*
X171393888Y-64339066D01*
X171644093Y-64505932D01*
X171676330Y-64532341D01*
X171698886Y-64559777D01*
X171715653Y-64591080D01*
X171725992Y-64625054D01*
X171729502Y-64660384D01*
X171726052Y-64695731D01*
X171715773Y-64729722D01*
X171696156Y-64766501D01*
X171320961Y-65329083D01*
X171294551Y-65361321D01*
X171267119Y-65383874D01*
X171235810Y-65400644D01*
X171201840Y-65410982D01*
X171166510Y-65414492D01*
X171131158Y-65411042D01*
X171097174Y-65400765D01*
X171060393Y-65381146D01*
X171013511Y-65349880D01*
X171013506Y-65349877D01*
X170751747Y-65175305D01*
X170560207Y-65047564D01*
X170527970Y-65021155D01*
X170505414Y-64993719D01*
X170488647Y-64962416D01*
X170478308Y-64928442D01*
X170474798Y-64893112D01*
X170478248Y-64857765D01*
X170488527Y-64823774D01*
X170508144Y-64786995D01*
X170883339Y-64224413D01*
X170909749Y-64192175D01*
X170937181Y-64169622D01*
X170968490Y-64152852D01*
X171002460Y-64142514D01*
X171037790Y-64139004D01*
X171073142Y-64142454D01*
G37*
G36*
X160613512Y-63403927D02*
G01*
X160762812Y-63433624D01*
X160926784Y-63501544D01*
X161074354Y-63600147D01*
X161199853Y-63725646D01*
X161298456Y-63873216D01*
X161366376Y-64037188D01*
X161392258Y-64167309D01*
X161401000Y-64211258D01*
X161401000Y-64388742D01*
X161396073Y-64413512D01*
X161366376Y-64562812D01*
X161298456Y-64726784D01*
X161199853Y-64874354D01*
X161074354Y-64999853D01*
X160926784Y-65098456D01*
X160762812Y-65166376D01*
X160613512Y-65196073D01*
X160588742Y-65201000D01*
X160411258Y-65201000D01*
X160386488Y-65196073D01*
X160237188Y-65166376D01*
X160073216Y-65098456D01*
X159925646Y-64999853D01*
X159800147Y-64874354D01*
X159701544Y-64726784D01*
X159633624Y-64562812D01*
X159603927Y-64413512D01*
X159599000Y-64388742D01*
X159599000Y-64211258D01*
X159607742Y-64167309D01*
X159633624Y-64037188D01*
X159701544Y-63873216D01*
X159800147Y-63725646D01*
X159925646Y-63600147D01*
X160073216Y-63501544D01*
X160237188Y-63433624D01*
X160386488Y-63403927D01*
X160411258Y-63399000D01*
X160588742Y-63399000D01*
X160613512Y-63403927D01*
G37*
G36*
X179438197Y-63111041D02*
G01*
X179438197Y-63111042D01*
X179199461Y-63469011D01*
X178826758Y-64027856D01*
X177493967Y-63138995D01*
X177493967Y-63138994D01*
X177870421Y-62574525D01*
X178105406Y-62222180D01*
X179438197Y-63111041D01*
G37*
G36*
X173586119Y-63054557D02*
G01*
X173586119Y-63054558D01*
X173360612Y-63392691D01*
X172974680Y-63971372D01*
X171641889Y-63082511D01*
X171641889Y-63082510D01*
X171980673Y-62574525D01*
X172253328Y-62165696D01*
X173586119Y-63054557D01*
G37*
G36*
X131837021Y-62408669D02*
G01*
X131871000Y-62418977D01*
X131902320Y-62435718D01*
X131929770Y-62458244D01*
X131952297Y-62485694D01*
X131971947Y-62522457D01*
X131993512Y-62574519D01*
X131993515Y-62574525D01*
X132209157Y-63095131D01*
X132209158Y-63095136D01*
X132230725Y-63147202D01*
X132242824Y-63187084D01*
X132246304Y-63222425D01*
X132242824Y-63257766D01*
X132232516Y-63291746D01*
X132215777Y-63323062D01*
X132193248Y-63350514D01*
X132165799Y-63373041D01*
X132129036Y-63392691D01*
X132076978Y-63414254D01*
X132076969Y-63414259D01*
X131819081Y-63521079D01*
X131573582Y-63622768D01*
X131533700Y-63634867D01*
X131498359Y-63638347D01*
X131463019Y-63634867D01*
X131429040Y-63624559D01*
X131397720Y-63607818D01*
X131370270Y-63585292D01*
X131347743Y-63557842D01*
X131328093Y-63521079D01*
X131306528Y-63469017D01*
X131306525Y-63469011D01*
X131090883Y-62948405D01*
X131090882Y-62948400D01*
X131069315Y-62896334D01*
X131057216Y-62856452D01*
X131053736Y-62821111D01*
X131057216Y-62785770D01*
X131067524Y-62751790D01*
X131084263Y-62720474D01*
X131106792Y-62693022D01*
X131134241Y-62670495D01*
X131171004Y-62650845D01*
X131223062Y-62629282D01*
X131223071Y-62629277D01*
X131569713Y-62485694D01*
X131726458Y-62420768D01*
X131766340Y-62408669D01*
X131801681Y-62405189D01*
X131837021Y-62408669D01*
G37*
G36*
X122527031Y-62288166D02*
G01*
X122527030Y-62288167D01*
X122227193Y-62488890D01*
X121195793Y-63179353D01*
X120582755Y-62263608D01*
X120597517Y-62253726D01*
X121111679Y-61909524D01*
X121913993Y-61372421D01*
X122527031Y-62288166D01*
G37*
G36*
X128379001Y-62221468D02*
G01*
X128379000Y-62221469D01*
X128076844Y-62423745D01*
X127047763Y-63112655D01*
X126434725Y-62196910D01*
X126455438Y-62183044D01*
X126834071Y-61929571D01*
X127765963Y-61305723D01*
X128379001Y-62221468D01*
G37*
G36*
X133292131Y-61805943D02*
G01*
X133326110Y-61816251D01*
X133357430Y-61832992D01*
X133384880Y-61855518D01*
X133407407Y-61882968D01*
X133427057Y-61919731D01*
X133448622Y-61971793D01*
X133448625Y-61971799D01*
X133664267Y-62492405D01*
X133664268Y-62492410D01*
X133685835Y-62544476D01*
X133697934Y-62584358D01*
X133701414Y-62619699D01*
X133697934Y-62655040D01*
X133687626Y-62689020D01*
X133670887Y-62720336D01*
X133648358Y-62747788D01*
X133620909Y-62770315D01*
X133584146Y-62789965D01*
X133532088Y-62811528D01*
X133532079Y-62811533D01*
X133274191Y-62918353D01*
X133028692Y-63020042D01*
X132988810Y-63032141D01*
X132953469Y-63035621D01*
X132918129Y-63032141D01*
X132884150Y-63021833D01*
X132852830Y-63005092D01*
X132825380Y-62982566D01*
X132802853Y-62955116D01*
X132783203Y-62918353D01*
X132761638Y-62866291D01*
X132761635Y-62866285D01*
X132545993Y-62345679D01*
X132545992Y-62345674D01*
X132524425Y-62293608D01*
X132512326Y-62253726D01*
X132508846Y-62218385D01*
X132512326Y-62183044D01*
X132522634Y-62149064D01*
X132539373Y-62117748D01*
X132561902Y-62090296D01*
X132589351Y-62067769D01*
X132626114Y-62048119D01*
X132678172Y-62026556D01*
X132678181Y-62026551D01*
X133024823Y-61882968D01*
X133181568Y-61818042D01*
X133221450Y-61805943D01*
X133256791Y-61802463D01*
X133292131Y-61805943D01*
G37*
G36*
X164879325Y-61296360D02*
G01*
X164919207Y-61308459D01*
X165073627Y-61372422D01*
X165422594Y-61516968D01*
X165422603Y-61516973D01*
X165474661Y-61538536D01*
X165511424Y-61558186D01*
X165538874Y-61580713D01*
X165561400Y-61608163D01*
X165578141Y-61639483D01*
X165588449Y-61673462D01*
X165591929Y-61708802D01*
X165588449Y-61744143D01*
X165576350Y-61784025D01*
X165554783Y-61836091D01*
X165554782Y-61836096D01*
X165339140Y-62356702D01*
X165339137Y-62356708D01*
X165317572Y-62408770D01*
X165297922Y-62445533D01*
X165275395Y-62472982D01*
X165247943Y-62495511D01*
X165216627Y-62512250D01*
X165182647Y-62522558D01*
X165147306Y-62526038D01*
X165111965Y-62522558D01*
X165072083Y-62510459D01*
X164826584Y-62408770D01*
X164568696Y-62301950D01*
X164568687Y-62301945D01*
X164516629Y-62280382D01*
X164479866Y-62260732D01*
X164452416Y-62238205D01*
X164429890Y-62210755D01*
X164413149Y-62179435D01*
X164402841Y-62145456D01*
X164399361Y-62110116D01*
X164402841Y-62074775D01*
X164414940Y-62034893D01*
X164436507Y-61982827D01*
X164436508Y-61982822D01*
X164652150Y-61462216D01*
X164652153Y-61462210D01*
X164673718Y-61410148D01*
X164693368Y-61373385D01*
X164715895Y-61345936D01*
X164743347Y-61323407D01*
X164774663Y-61306668D01*
X164808643Y-61296360D01*
X164843984Y-61292880D01*
X164879325Y-61296360D01*
G37*
G36*
X163424215Y-60693634D02*
G01*
X163464097Y-60705733D01*
X163576558Y-60752316D01*
X163967484Y-60914242D01*
X163967493Y-60914247D01*
X164019551Y-60935810D01*
X164056314Y-60955460D01*
X164083764Y-60977987D01*
X164106290Y-61005437D01*
X164123031Y-61036757D01*
X164133339Y-61070736D01*
X164136819Y-61106076D01*
X164133339Y-61141417D01*
X164121240Y-61181299D01*
X164099673Y-61233365D01*
X164099672Y-61233370D01*
X163884030Y-61753976D01*
X163884027Y-61753982D01*
X163862462Y-61806044D01*
X163842812Y-61842807D01*
X163820285Y-61870256D01*
X163792833Y-61892785D01*
X163761517Y-61909524D01*
X163727537Y-61919832D01*
X163692196Y-61923312D01*
X163656855Y-61919832D01*
X163616973Y-61907733D01*
X163371474Y-61806044D01*
X163113586Y-61699224D01*
X163113577Y-61699219D01*
X163061519Y-61677656D01*
X163024756Y-61658006D01*
X162997306Y-61635479D01*
X162974780Y-61608029D01*
X162958039Y-61576709D01*
X162947731Y-61542730D01*
X162944251Y-61507390D01*
X162947731Y-61472049D01*
X162959830Y-61432167D01*
X162981397Y-61380101D01*
X162981398Y-61380096D01*
X163197040Y-60859490D01*
X163197043Y-60859484D01*
X163218608Y-60807422D01*
X163238258Y-60770659D01*
X163260785Y-60743210D01*
X163288237Y-60720681D01*
X163319553Y-60703942D01*
X163353533Y-60693634D01*
X163388874Y-60690154D01*
X163424215Y-60693634D01*
G37*
G36*
X170310498Y-60657031D02*
G01*
X169888781Y-61675146D01*
X168408726Y-61062087D01*
X168830443Y-60043972D01*
X170310498Y-60657031D01*
G37*
G36*
X131948534Y-61048312D02*
G01*
X130468479Y-61661371D01*
X130046762Y-60643256D01*
X131526817Y-60030197D01*
X131948534Y-61048312D01*
G37*
G36*
X175361621Y-60392304D02*
G01*
X175361621Y-60392305D01*
X175127596Y-60743210D01*
X174750182Y-61309119D01*
X173417391Y-60420258D01*
X173417391Y-60420257D01*
X173760119Y-59906359D01*
X174028830Y-59503443D01*
X175361621Y-60392304D01*
G37*
G36*
X139123352Y-59678486D02*
G01*
X139157343Y-59688765D01*
X139188677Y-59705478D01*
X139216140Y-59727976D01*
X139238696Y-59755412D01*
X139255463Y-59786715D01*
X139267597Y-59826591D01*
X139400101Y-60489705D01*
X139404221Y-60531172D01*
X139400771Y-60566519D01*
X139390492Y-60600510D01*
X139373779Y-60631844D01*
X139351281Y-60659307D01*
X139323845Y-60681863D01*
X139292542Y-60698630D01*
X139252666Y-60710764D01*
X138663098Y-60828572D01*
X138621631Y-60832692D01*
X138586284Y-60829242D01*
X138552293Y-60818963D01*
X138520959Y-60802250D01*
X138493496Y-60779752D01*
X138470940Y-60752316D01*
X138454173Y-60721013D01*
X138442039Y-60681137D01*
X138309535Y-60018023D01*
X138305415Y-59976556D01*
X138308865Y-59941209D01*
X138319144Y-59907218D01*
X138335857Y-59875884D01*
X138358355Y-59848421D01*
X138385791Y-59825865D01*
X138417094Y-59809098D01*
X138456970Y-59796964D01*
X139046538Y-59679156D01*
X139088005Y-59675036D01*
X139123352Y-59678486D01*
G37*
G36*
X140667820Y-59369870D02*
G01*
X140701811Y-59380149D01*
X140733145Y-59396862D01*
X140760608Y-59419360D01*
X140783164Y-59446796D01*
X140799931Y-59478099D01*
X140812065Y-59517975D01*
X140944569Y-60181089D01*
X140948689Y-60222556D01*
X140945239Y-60257903D01*
X140934960Y-60291894D01*
X140918247Y-60323228D01*
X140895749Y-60350691D01*
X140868313Y-60373247D01*
X140837010Y-60390014D01*
X140797134Y-60402148D01*
X140207566Y-60519956D01*
X140166099Y-60524076D01*
X140130752Y-60520626D01*
X140096761Y-60510347D01*
X140065427Y-60493634D01*
X140037964Y-60471136D01*
X140015408Y-60443700D01*
X139998641Y-60412397D01*
X139986507Y-60372521D01*
X139854003Y-59709407D01*
X139849883Y-59667940D01*
X139853333Y-59632593D01*
X139863612Y-59598602D01*
X139880325Y-59567268D01*
X139902823Y-59539805D01*
X139930259Y-59517249D01*
X139961562Y-59500482D01*
X140001438Y-59488348D01*
X140591006Y-59370540D01*
X140632473Y-59366420D01*
X140667820Y-59369870D01*
G37*
G36*
X126598855Y-59562318D02*
G01*
X126598854Y-59562319D01*
X126379136Y-59709407D01*
X125267617Y-60453505D01*
X124654579Y-59537760D01*
X124672146Y-59526000D01*
X125125474Y-59222523D01*
X125985817Y-58646573D01*
X126598855Y-59562318D01*
G37*
G36*
X156422743Y-59102834D02*
G01*
X157012501Y-59219610D01*
X157052399Y-59231675D01*
X157083735Y-59248389D01*
X157111201Y-59270890D01*
X157133755Y-59298323D01*
X157150522Y-59329626D01*
X157160861Y-59363600D01*
X157164371Y-59398930D01*
X157160321Y-59440425D01*
X157028979Y-60103751D01*
X157016912Y-60143655D01*
X157000199Y-60174989D01*
X156977701Y-60202452D01*
X156950265Y-60225008D01*
X156918962Y-60241775D01*
X156884988Y-60252114D01*
X156849658Y-60255624D01*
X156808163Y-60251574D01*
X156218405Y-60134798D01*
X156178507Y-60122733D01*
X156147171Y-60106019D01*
X156119705Y-60083518D01*
X156097151Y-60056085D01*
X156080384Y-60024782D01*
X156070045Y-59990808D01*
X156066535Y-59955478D01*
X156070585Y-59913983D01*
X156201927Y-59250657D01*
X156213994Y-59210753D01*
X156230707Y-59179419D01*
X156253205Y-59151956D01*
X156280641Y-59129400D01*
X156311944Y-59112633D01*
X156345918Y-59102294D01*
X156381248Y-59098784D01*
X156422743Y-59102834D01*
G37*
G36*
X154877739Y-58796914D02*
G01*
X155467497Y-58913690D01*
X155507395Y-58925755D01*
X155538731Y-58942469D01*
X155566197Y-58964970D01*
X155588751Y-58992403D01*
X155605518Y-59023706D01*
X155615857Y-59057680D01*
X155619367Y-59093010D01*
X155615317Y-59134505D01*
X155483975Y-59797831D01*
X155471908Y-59837735D01*
X155455195Y-59869069D01*
X155432697Y-59896532D01*
X155405261Y-59919088D01*
X155373958Y-59935855D01*
X155339984Y-59946194D01*
X155304654Y-59949704D01*
X155263159Y-59945654D01*
X154673401Y-59828878D01*
X154633503Y-59816813D01*
X154602167Y-59800099D01*
X154574701Y-59777598D01*
X154552147Y-59750165D01*
X154535380Y-59718862D01*
X154525041Y-59684888D01*
X154521531Y-59649558D01*
X154525581Y-59608063D01*
X154656923Y-58944737D01*
X154668990Y-58904833D01*
X154685703Y-58873499D01*
X154708201Y-58846036D01*
X154735637Y-58823480D01*
X154766940Y-58806713D01*
X154800914Y-58796374D01*
X154836244Y-58792864D01*
X154877739Y-58796914D01*
G37*
G36*
X165783489Y-58781882D02*
G01*
X165361772Y-59799997D01*
X163881717Y-59186938D01*
X164303434Y-58168823D01*
X165783489Y-58781882D01*
G37*
G36*
X136475543Y-59173163D02*
G01*
X134995488Y-59786222D01*
X134573771Y-58768107D01*
X136053826Y-58155048D01*
X136475543Y-59173163D01*
G37*
G36*
X147554591Y-58478085D02*
G01*
X147588569Y-58488393D01*
X147619890Y-58505134D01*
X147647339Y-58527661D01*
X147669866Y-58555110D01*
X147686607Y-58586431D01*
X147696915Y-58620409D01*
X147701000Y-58661890D01*
X147701000Y-59338110D01*
X147696915Y-59379591D01*
X147686607Y-59413569D01*
X147669866Y-59444890D01*
X147647339Y-59472339D01*
X147619890Y-59494866D01*
X147588569Y-59511607D01*
X147554591Y-59521915D01*
X147513110Y-59526000D01*
X146911890Y-59526000D01*
X146870409Y-59521915D01*
X146836431Y-59511607D01*
X146805110Y-59494866D01*
X146777661Y-59472339D01*
X146755134Y-59444890D01*
X146738393Y-59413569D01*
X146728085Y-59379591D01*
X146724000Y-59338110D01*
X146724000Y-58661890D01*
X146728085Y-58620409D01*
X146738393Y-58586431D01*
X146755134Y-58555110D01*
X146777661Y-58527661D01*
X146805110Y-58505134D01*
X146836431Y-58488393D01*
X146870409Y-58478085D01*
X146911890Y-58474000D01*
X147513110Y-58474000D01*
X147554591Y-58478085D01*
G37*
G36*
X149129591Y-58478085D02*
G01*
X149163569Y-58488393D01*
X149194890Y-58505134D01*
X149222339Y-58527661D01*
X149244866Y-58555110D01*
X149261607Y-58586431D01*
X149271915Y-58620409D01*
X149276000Y-58661890D01*
X149276000Y-59338110D01*
X149271915Y-59379591D01*
X149261607Y-59413569D01*
X149244866Y-59444890D01*
X149222339Y-59472339D01*
X149194890Y-59494866D01*
X149163569Y-59511607D01*
X149129591Y-59521915D01*
X149088110Y-59526000D01*
X148486890Y-59526000D01*
X148445409Y-59521915D01*
X148411431Y-59511607D01*
X148380110Y-59494866D01*
X148352661Y-59472339D01*
X148330134Y-59444890D01*
X148313393Y-59413569D01*
X148303085Y-59379591D01*
X148299000Y-59338110D01*
X148299000Y-58661890D01*
X148303085Y-58620409D01*
X148313393Y-58586431D01*
X148330134Y-58555110D01*
X148352661Y-58527661D01*
X148380110Y-58505134D01*
X148411431Y-58488393D01*
X148445409Y-58478085D01*
X148486890Y-58474000D01*
X149088110Y-58474000D01*
X149129591Y-58478085D01*
G37*
G36*
X171535085Y-57700616D02*
G01*
X171113368Y-58718731D01*
X169633313Y-58105672D01*
X170055030Y-57087557D01*
X171535085Y-57700616D01*
G37*
G36*
X130723947Y-58091897D02*
G01*
X129243892Y-58704956D01*
X128822175Y-57686841D01*
X130302230Y-57073782D01*
X130723947Y-58091897D01*
G37*
G36*
X161480083Y-57509803D02*
G01*
X161266036Y-58590817D01*
X159694545Y-58279653D01*
X159908592Y-57198639D01*
X161480083Y-57509803D01*
G37*
G36*
X139585895Y-58242624D02*
G01*
X138014950Y-58556530D01*
X137799017Y-57475892D01*
X139369962Y-57161986D01*
X139585895Y-58242624D01*
G37*
G36*
X156673403Y-56558055D02*
G01*
X156459356Y-57639069D01*
X154887865Y-57327905D01*
X155101912Y-56246891D01*
X156673403Y-56558055D01*
G37*
G36*
X144390907Y-57282487D02*
G01*
X142819962Y-57596393D01*
X142604029Y-56515755D01*
X144174974Y-56201849D01*
X144390907Y-57282487D01*
G37*
G36*
X148371000Y-57151000D02*
G01*
X146769000Y-57151000D01*
X146769000Y-56049000D01*
X148371000Y-56049000D01*
X148371000Y-57151000D01*
G37*
G36*
X153271000Y-57151000D02*
G01*
X151669000Y-57151000D01*
X151669000Y-56049000D01*
X153271000Y-56049000D01*
X153271000Y-57151000D01*
G37*
G36*
X167008076Y-55825467D02*
G01*
X166586359Y-56843582D01*
X165106304Y-56230523D01*
X165528021Y-55212408D01*
X167008076Y-55825467D01*
G37*
G36*
X135250956Y-56216748D02*
G01*
X133770901Y-56829807D01*
X133349184Y-55811692D01*
X134829239Y-55198633D01*
X135250956Y-56216748D01*
G37*
G36*
X162101633Y-54370747D02*
G01*
X161887586Y-55451761D01*
X160316095Y-55140597D01*
X160530142Y-54059583D01*
X162101633Y-54370747D01*
G37*
G36*
X138958867Y-55104657D02*
G01*
X137387922Y-55418563D01*
X137171989Y-54337925D01*
X138742934Y-54024019D01*
X138958867Y-55104657D01*
G37*
G36*
X157294953Y-53418999D02*
G01*
X157080906Y-54500013D01*
X155509415Y-54188849D01*
X155723462Y-53107835D01*
X157294953Y-53418999D01*
G37*
G36*
X143763879Y-54144520D02*
G01*
X142192934Y-54458426D01*
X141977001Y-53377788D01*
X143547946Y-53063882D01*
X143763879Y-54144520D01*
G37*
G36*
X148371000Y-53951000D02*
G01*
X146769000Y-53951000D01*
X146769000Y-52849000D01*
X148371000Y-52849000D01*
X148371000Y-53951000D01*
G37*
G36*
X153271000Y-53951000D02*
G01*
X151669000Y-53951000D01*
X151669000Y-52849000D01*
X153271000Y-52849000D01*
X153271000Y-53951000D01*
G37*
M02*
