G04 #@! TF.GenerationSoftware,KiCad,Pcbnew,(5.1.5-0-10_14)*
G04 #@! TF.CreationDate,2020-09-03T18:46:32+03:00*
G04 #@! TF.ProjectId,main,6d61696e-2e6b-4696-9361-645f70636258,rev?*
G04 #@! TF.SameCoordinates,Original*
G04 #@! TF.FileFunction,Legend,Bot*
G04 #@! TF.FilePolarity,Positive*
%FSLAX46Y46*%
G04 Gerber Fmt 4.6, Leading zero omitted, Abs format (unit mm)*
G04 Created by KiCad (PCBNEW (5.1.5-0-10_14)) date 2020-09-03 18:46:32*
%MOMM*%
%LPD*%
G04 APERTURE LIST*
%ADD10C,0.120000*%
%ADD11C,0.150000*%
G04 APERTURE END LIST*
D10*
X198150000Y-104955595D02*
X197000000Y-104955595D01*
X198150000Y-97655595D02*
X198150000Y-104955595D01*
X192650000Y-97655595D02*
X192650000Y-104955595D01*
X192109405Y-99145316D02*
X192109405Y-99470874D01*
X191089405Y-99145316D02*
X191089405Y-99470874D01*
X102603703Y-87145871D02*
X103731801Y-87369241D01*
X101185792Y-94306844D02*
X102603703Y-87145871D01*
X106581045Y-95375133D02*
X107998956Y-88214160D01*
X106417345Y-78476674D02*
X107479806Y-78916760D01*
X103623756Y-85220995D02*
X106417345Y-78476674D01*
X108705093Y-87325754D02*
X111498682Y-80581433D01*
X111616072Y-70421116D02*
X112572820Y-71059187D01*
X107565708Y-76494381D02*
X111616072Y-70421116D01*
X112141456Y-79546026D02*
X116191820Y-73472761D01*
X118095697Y-63431036D02*
X118908870Y-64244208D01*
X112933818Y-68592915D02*
X118095697Y-63431036D01*
X116822905Y-72482002D02*
X121984784Y-67320123D01*
X125984158Y-57926852D02*
X126623898Y-58882484D01*
X119917972Y-61987810D02*
X125984158Y-57926852D01*
X122977598Y-66558224D02*
X129043784Y-62497266D01*
X134968640Y-54492539D02*
X135408726Y-55555000D01*
X128224319Y-57286128D02*
X134968640Y-54492539D01*
X130329078Y-62367465D02*
X137073399Y-59573876D01*
X143821840Y-52398312D02*
X144047178Y-53526019D01*
X136663353Y-53828719D02*
X143821840Y-52398312D01*
X137741056Y-59222100D02*
X144899543Y-57791693D01*
X153670000Y-52250000D02*
X153670000Y-53400000D01*
X146370000Y-52250000D02*
X153670000Y-52250000D01*
X146370000Y-57750000D02*
X153670000Y-57750000D01*
X162609380Y-53860655D02*
X162386010Y-54988753D01*
X155448407Y-52442744D02*
X162609380Y-53860655D01*
X154380118Y-57837997D02*
X161541091Y-59255908D01*
X172132941Y-57299903D02*
X171692855Y-58362364D01*
X165388620Y-54506314D02*
X172132941Y-57299903D01*
X163283861Y-59587651D02*
X170028182Y-62381240D01*
X180102498Y-62834084D02*
X179464427Y-63790832D01*
X174029233Y-58783720D02*
X180102498Y-62834084D01*
X170977588Y-63359468D02*
X177050853Y-67409832D01*
X186586372Y-69413290D02*
X185773200Y-70226463D01*
X181424493Y-64251411D02*
X186586372Y-69413290D01*
X177535406Y-68140498D02*
X182697285Y-73302377D01*
X192240335Y-77229008D02*
X191284703Y-77868748D01*
X188179377Y-71162822D02*
X192240335Y-77229008D01*
X183608963Y-74222448D02*
X187669921Y-80288634D01*
X196164471Y-85956986D02*
X195102010Y-86397072D01*
X193370882Y-79212665D02*
X196164471Y-85956986D01*
X188289545Y-81317424D02*
X191083134Y-88061745D01*
X198086073Y-95194462D02*
X196958366Y-95419800D01*
X196655666Y-88035975D02*
X198086073Y-95194462D01*
X191262285Y-89113678D02*
X192692692Y-96272165D01*
X196217583Y-114283879D02*
X195089485Y-114060509D01*
X197635494Y-107122906D02*
X196217583Y-114283879D01*
X192240241Y-106054617D02*
X190822330Y-113215590D01*
X192936137Y-123185114D02*
X191873676Y-122745028D01*
X195729726Y-116440793D02*
X192936137Y-123185114D01*
X190648389Y-114336034D02*
X187854800Y-121080355D01*
X187390975Y-131132723D02*
X186434227Y-130494652D01*
X191441339Y-125059458D02*
X187390975Y-131132723D01*
X186865591Y-122007813D02*
X182815227Y-128081078D01*
X180815539Y-138496390D02*
X180002366Y-137683218D01*
X185977418Y-133334511D02*
X180815539Y-138496390D01*
X182088331Y-129445424D02*
X176926452Y-134607303D01*
X172938956Y-143430261D02*
X172299216Y-142474629D01*
X179005142Y-139369303D02*
X172938956Y-143430261D01*
X175945516Y-134798889D02*
X169879330Y-138859847D01*
X164243131Y-147207894D02*
X163803045Y-146145433D01*
X170987452Y-144414305D02*
X164243131Y-147207894D01*
X168882693Y-139332968D02*
X162138372Y-142126557D01*
X154708929Y-149186494D02*
X154483591Y-148058787D01*
X161867416Y-147756087D02*
X154708929Y-149186494D01*
X160789713Y-142362706D02*
X153631226Y-143793113D01*
X145198810Y-149315000D02*
X145198810Y-148165000D01*
X152498810Y-149315000D02*
X145198810Y-149315000D01*
X152498810Y-143815000D02*
X145198810Y-143815000D01*
X135907776Y-147583202D02*
X136131146Y-146455104D01*
X143068749Y-149001113D02*
X135907776Y-147583202D01*
X144137038Y-143605860D02*
X136976065Y-142187949D01*
X127128579Y-144039560D02*
X127568665Y-142977099D01*
X133872900Y-146833149D02*
X127128579Y-144039560D01*
X135977659Y-141751812D02*
X129233338Y-138958223D01*
X118967473Y-138859153D02*
X119605544Y-137902405D01*
X125040738Y-142909517D02*
X118967473Y-138859153D01*
X128092383Y-138333769D02*
X122019118Y-134283405D01*
X112132941Y-132151208D02*
X112946113Y-131338035D01*
X117294820Y-137313087D02*
X112132941Y-132151208D01*
X121183907Y-133424000D02*
X116022028Y-128262121D01*
X106768757Y-124282747D02*
X107724389Y-123643007D01*
X110829715Y-130348933D02*
X106768757Y-124282747D01*
X115400129Y-127289307D02*
X111339171Y-121223121D01*
X102999772Y-115525053D02*
X104062233Y-115084967D01*
X105793361Y-122269374D02*
X102999772Y-115525053D01*
X110874698Y-120164615D02*
X108081109Y-113420294D01*
X101041574Y-106178781D02*
X102169281Y-105953443D01*
X102471981Y-113337268D02*
X101041574Y-106178781D01*
X107865362Y-112259565D02*
X106434955Y-105101078D01*
X100971905Y-96636905D02*
X102121905Y-96636905D01*
X100971905Y-103936905D02*
X100971905Y-96636905D01*
X106471905Y-103936905D02*
X106471905Y-96636905D01*
X114649721Y-101990000D02*
X114975279Y-101990000D01*
X114649721Y-103010000D02*
X114975279Y-103010000D01*
X114649721Y-103990000D02*
X114975279Y-103990000D01*
X114649721Y-105010000D02*
X114975279Y-105010000D01*
X114649721Y-95990000D02*
X114975279Y-95990000D01*
X114649721Y-97010000D02*
X114975279Y-97010000D01*
X116230000Y-100260000D02*
X116230000Y-98800000D01*
X113070000Y-100260000D02*
X113070000Y-98100000D01*
X113070000Y-100260000D02*
X114000000Y-100260000D01*
X116230000Y-100260000D02*
X115300000Y-100260000D01*
X180380866Y-129766960D02*
X180150661Y-129997165D01*
X179659617Y-129045711D02*
X179429412Y-129275916D01*
X142998467Y-142381390D02*
X142679110Y-142318156D01*
X143196586Y-141380816D02*
X142877229Y-141317582D01*
X115420537Y-125558140D02*
X115239431Y-125287606D01*
X116268141Y-124990718D02*
X116087035Y-124720184D01*
X120683827Y-131707696D02*
X120453622Y-131477491D01*
X121405076Y-130986447D02*
X121174871Y-130756242D01*
X155782332Y-58992340D02*
X156101689Y-59055574D01*
X155584213Y-59992914D02*
X155903570Y-60056148D01*
X118468498Y-72052633D02*
X118698703Y-71822428D01*
X119189747Y-72773882D02*
X119419952Y-72543677D01*
X147837221Y-58490000D02*
X148162779Y-58490000D01*
X147837221Y-59510000D02*
X148162779Y-59510000D01*
X151064089Y-142955000D02*
X150738531Y-142955000D01*
X151064089Y-141935000D02*
X150738531Y-141935000D01*
X171904860Y-64699074D02*
X172175709Y-64879708D01*
X171338919Y-65547668D02*
X171609768Y-65728302D01*
X127309345Y-136922077D02*
X127038496Y-136741443D01*
X127875286Y-136073483D02*
X127604437Y-135892849D01*
X183925674Y-76025774D02*
X184106780Y-76296308D01*
X183078070Y-76593196D02*
X183259176Y-76863730D01*
X185309677Y-122790825D02*
X185129043Y-123061674D01*
X184461083Y-122224884D02*
X184280449Y-122495733D01*
X189383145Y-115456887D02*
X189258560Y-115757664D01*
X188440788Y-115066550D02*
X188316203Y-115367327D01*
X188105281Y-83119862D02*
X188229866Y-83420639D01*
X187162924Y-83510199D02*
X187287509Y-83810976D01*
X110958620Y-118433506D02*
X110834035Y-118132729D01*
X111900977Y-118043169D02*
X111776392Y-117742392D01*
X174309403Y-135172136D02*
X174038869Y-135353242D01*
X173741981Y-134324532D02*
X173471447Y-134505638D01*
X164312870Y-61074625D02*
X164613647Y-61199210D01*
X163922533Y-62016982D02*
X164223310Y-62141567D01*
X108417275Y-110632660D02*
X108353484Y-110313413D01*
X109417502Y-110432795D02*
X109353711Y-110113548D01*
X167233148Y-139236910D02*
X166932371Y-139361495D01*
X166842811Y-138294553D02*
X166542034Y-138419138D01*
X159159355Y-141933855D02*
X158840108Y-141997646D01*
X158959490Y-140933628D02*
X158640243Y-140997419D01*
X134833256Y-140628349D02*
X134532479Y-140503764D01*
X135223593Y-139685992D02*
X134922816Y-139561407D01*
X191229545Y-107452142D02*
X191166311Y-107771499D01*
X190228971Y-107254023D02*
X190165737Y-107573380D01*
X109871608Y-86077415D02*
X109996193Y-85776638D01*
X110813965Y-86467752D02*
X110938550Y-86166975D01*
X124852110Y-66482671D02*
X125122644Y-66301565D01*
X125419532Y-67330275D02*
X125690066Y-67149169D01*
X190583391Y-90717517D02*
X190647182Y-91036764D01*
X189583164Y-90917382D02*
X189646955Y-91236629D01*
X178191049Y-69814375D02*
X178421254Y-70044580D01*
X177469800Y-70535624D02*
X177700005Y-70765829D01*
X107827366Y-94126204D02*
X107890600Y-93806847D01*
X108827940Y-94324323D02*
X108891174Y-94004966D01*
X107211905Y-102449684D02*
X107211905Y-102124126D01*
X108231905Y-102449684D02*
X108231905Y-102124126D01*
X132032018Y-62311519D02*
X132332795Y-62186934D01*
X132422355Y-63253876D02*
X132723132Y-63129291D01*
X113625284Y-78618779D02*
X113805918Y-78347930D01*
X114473878Y-79184720D02*
X114654512Y-78913871D01*
X139367496Y-59631338D02*
X139686743Y-59567547D01*
X139567361Y-60631565D02*
X139886608Y-60567774D01*
D11*
X195907380Y-100091309D02*
X194907380Y-100091309D01*
X194907380Y-100329404D01*
X194955000Y-100472261D01*
X195050238Y-100567499D01*
X195145476Y-100615118D01*
X195335952Y-100662737D01*
X195478809Y-100662737D01*
X195669285Y-100615118D01*
X195764523Y-100567499D01*
X195859761Y-100472261D01*
X195907380Y-100329404D01*
X195907380Y-100091309D01*
X195907380Y-101615118D02*
X195907380Y-101043690D01*
X195907380Y-101329404D02*
X194907380Y-101329404D01*
X195050238Y-101234166D01*
X195145476Y-101138928D01*
X195193095Y-101043690D01*
X194907380Y-101948452D02*
X194907380Y-102615118D01*
X195907380Y-102186547D01*
X194252380Y-97441309D02*
X194252380Y-96869880D01*
X194252380Y-97155595D02*
X193252380Y-97155595D01*
X193395238Y-97060356D01*
X193490476Y-96965118D01*
X193538095Y-96869880D01*
X105503540Y-90223445D02*
X104522585Y-90029210D01*
X104476338Y-90262771D01*
X104495303Y-90412157D01*
X104570229Y-90524080D01*
X104654404Y-90589290D01*
X104832003Y-90672999D01*
X104972140Y-90700747D01*
X105168237Y-90691032D01*
X105270911Y-90662818D01*
X105382834Y-90587893D01*
X105457294Y-90457005D01*
X105503540Y-90223445D01*
X104346849Y-90916741D02*
X104226609Y-91523999D01*
X104665051Y-91271008D01*
X104637303Y-91411144D01*
X104665516Y-91513818D01*
X104702979Y-91569779D01*
X104787154Y-91634990D01*
X105020715Y-91681236D01*
X105123389Y-91653023D01*
X105179350Y-91615560D01*
X105244561Y-91531385D01*
X105300056Y-91251112D01*
X105271843Y-91148438D01*
X105234380Y-91092477D01*
X104246039Y-91916195D02*
X104190077Y-91953658D01*
X104124867Y-92037833D01*
X104078621Y-92271393D01*
X104106834Y-92374067D01*
X104144297Y-92430028D01*
X104228472Y-92495239D01*
X104321896Y-92513738D01*
X104471282Y-92494773D01*
X105142819Y-92045218D01*
X105022579Y-92652476D01*
X105744099Y-96010381D02*
X105855090Y-95449836D01*
X105799595Y-95730108D02*
X104818640Y-95535874D01*
X104977275Y-95470198D01*
X105089198Y-95395272D01*
X105154408Y-95311097D01*
X108314508Y-81898902D02*
X107390628Y-81516219D01*
X107299513Y-81736190D01*
X107288839Y-81886396D01*
X107340381Y-82010831D01*
X107410147Y-82091271D01*
X107567901Y-82208157D01*
X107699883Y-82262826D01*
X107894083Y-82291724D01*
X108000295Y-82284176D01*
X108124730Y-82232634D01*
X108223393Y-82118874D01*
X108314508Y-81898902D01*
X107044391Y-82352110D02*
X106807492Y-82924035D01*
X107287007Y-82761860D01*
X107232338Y-82893843D01*
X107239886Y-83000054D01*
X107265657Y-83062271D01*
X107335423Y-83142712D01*
X107555394Y-83233827D01*
X107661606Y-83226279D01*
X107723823Y-83200507D01*
X107804263Y-83130742D01*
X107913602Y-82866776D01*
X107906053Y-82760565D01*
X107880282Y-82698347D01*
X107366911Y-84186604D02*
X107585587Y-83658673D01*
X107476249Y-83922639D02*
X106552370Y-83539955D01*
X106720798Y-83506636D01*
X106845233Y-83455093D01*
X106925673Y-83385328D01*
X107759897Y-87784692D02*
X107978573Y-87256761D01*
X107869235Y-87520726D02*
X106945355Y-87138043D01*
X107113784Y-87104723D01*
X107238219Y-87053181D01*
X107318659Y-86983415D01*
X112912224Y-74213245D02*
X112080270Y-73658400D01*
X111948164Y-73856484D01*
X111908518Y-74001756D01*
X111934909Y-74133832D01*
X111987722Y-74226291D01*
X112119768Y-74371593D01*
X112238619Y-74450856D01*
X112423507Y-74516924D01*
X112529162Y-74530150D01*
X112661238Y-74503758D01*
X112780119Y-74411329D01*
X112912224Y-74213245D01*
X111578268Y-74411121D02*
X111234793Y-74926140D01*
X111736676Y-74860191D01*
X111657413Y-74979042D01*
X111644187Y-75084696D01*
X111657383Y-75150735D01*
X111710195Y-75243194D01*
X111908280Y-75375300D01*
X112013935Y-75388525D01*
X112079973Y-75375329D01*
X112172432Y-75322517D01*
X112330959Y-75084816D01*
X112344184Y-74979161D01*
X112330989Y-74913123D01*
X110891318Y-75441159D02*
X110838476Y-75520393D01*
X110825250Y-75626048D01*
X110838446Y-75692086D01*
X110891258Y-75784545D01*
X111023305Y-75929846D01*
X111221389Y-76061952D01*
X111406278Y-76128020D01*
X111511932Y-76141245D01*
X111577970Y-76128050D01*
X111670430Y-76075237D01*
X111723272Y-75996003D01*
X111736497Y-75890348D01*
X111723302Y-75824310D01*
X111670489Y-75731851D01*
X111538443Y-75586550D01*
X111340359Y-75454444D01*
X111155470Y-75388376D01*
X111049815Y-75375151D01*
X110983777Y-75388346D01*
X110891318Y-75441159D01*
X111125119Y-79812634D02*
X111442173Y-79337231D01*
X111283646Y-79574933D02*
X110451692Y-79020088D01*
X110623384Y-79020118D01*
X110755461Y-78993726D01*
X110847920Y-78940914D01*
X118722665Y-67502623D02*
X118015558Y-66795517D01*
X117847199Y-66963875D01*
X117779856Y-67098562D01*
X117779856Y-67233249D01*
X117813528Y-67334265D01*
X117914543Y-67502623D01*
X118015558Y-67603639D01*
X118183917Y-67704654D01*
X118284932Y-67738326D01*
X118419619Y-67738326D01*
X118554306Y-67670982D01*
X118722665Y-67502623D01*
X117409466Y-67536295D02*
X117342123Y-67536295D01*
X117241108Y-67569967D01*
X117072749Y-67738326D01*
X117039077Y-67839341D01*
X117039077Y-67906684D01*
X117072749Y-68007700D01*
X117140092Y-68075043D01*
X117274779Y-68142387D01*
X118082902Y-68142387D01*
X117645169Y-68580120D01*
X117308451Y-68916837D02*
X117173764Y-69051524D01*
X117072749Y-69085196D01*
X117005405Y-69085196D01*
X116837047Y-69051524D01*
X116668688Y-68950509D01*
X116399314Y-68681135D01*
X116365642Y-68580120D01*
X116365642Y-68512776D01*
X116399314Y-68411761D01*
X116534001Y-68277074D01*
X116635016Y-68243402D01*
X116702360Y-68243402D01*
X116803375Y-68277074D01*
X116971734Y-68445433D01*
X117005405Y-68546448D01*
X117005405Y-68613791D01*
X116971734Y-68714807D01*
X116837047Y-68849494D01*
X116736031Y-68883165D01*
X116668688Y-68883165D01*
X116567673Y-68849494D01*
X115774030Y-72544295D02*
X116178091Y-72140234D01*
X115976060Y-72342264D02*
X115268953Y-71635157D01*
X115437312Y-71668829D01*
X115571999Y-71668829D01*
X115673014Y-71635157D01*
X125875099Y-62142393D02*
X125318803Y-61311409D01*
X125120950Y-61443860D01*
X125028728Y-61562902D01*
X125002567Y-61695023D01*
X125015977Y-61800655D01*
X125082367Y-61985428D01*
X125161838Y-62104140D01*
X125307370Y-62235933D01*
X125399921Y-62288584D01*
X125532043Y-62314745D01*
X125677245Y-62274845D01*
X125875099Y-62142393D01*
X124580370Y-61920355D02*
X124514309Y-61907275D01*
X124408677Y-61920685D01*
X124210824Y-62053136D01*
X124158173Y-62145687D01*
X124145092Y-62211748D01*
X124158502Y-62317380D01*
X124211483Y-62396521D01*
X124330524Y-62488743D01*
X125123256Y-62645708D01*
X124608837Y-62990082D01*
X123816105Y-62833117D02*
X123868756Y-62740566D01*
X123881837Y-62674505D01*
X123868427Y-62568873D01*
X123841937Y-62529302D01*
X123749385Y-62476651D01*
X123683324Y-62463571D01*
X123577693Y-62476981D01*
X123419410Y-62582942D01*
X123366759Y-62675493D01*
X123353678Y-62741554D01*
X123367088Y-62847185D01*
X123393579Y-62886756D01*
X123486130Y-62939407D01*
X123552191Y-62952488D01*
X123657822Y-62939078D01*
X123816105Y-62833117D01*
X123921737Y-62819707D01*
X123987798Y-62832787D01*
X124080349Y-62885438D01*
X124186310Y-63043721D01*
X124199720Y-63149353D01*
X124186639Y-63215414D01*
X124133988Y-63307965D01*
X123975706Y-63413926D01*
X123870074Y-63427336D01*
X123804013Y-63414255D01*
X123711462Y-63361604D01*
X123605501Y-63203322D01*
X123592091Y-63097690D01*
X123605171Y-63031629D01*
X123657822Y-62939078D01*
X121936598Y-66415603D02*
X122411446Y-66097719D01*
X122174022Y-66256661D02*
X121617726Y-65425677D01*
X121776339Y-65491408D01*
X121908461Y-65517569D01*
X122014092Y-65504159D01*
X133890255Y-58253917D02*
X133507571Y-57330037D01*
X133287600Y-57421153D01*
X133173840Y-57519816D01*
X133122298Y-57644250D01*
X133114750Y-57750462D01*
X133143648Y-57944662D01*
X133198317Y-58076645D01*
X133315203Y-58234399D01*
X133395643Y-58304164D01*
X133520078Y-58355707D01*
X133670284Y-58345032D01*
X133890255Y-58253917D01*
X132664132Y-57782486D02*
X132601915Y-57756715D01*
X132495703Y-57749167D01*
X132275732Y-57840282D01*
X132205967Y-57920722D01*
X132180195Y-57982940D01*
X132172647Y-58089151D01*
X132209093Y-58177140D01*
X132307756Y-58290899D01*
X133054364Y-58600154D01*
X132482438Y-58837054D01*
X131791795Y-58040735D02*
X131175876Y-58295858D01*
X131954507Y-59055730D01*
X129336205Y-62023628D02*
X129864136Y-61804952D01*
X129600170Y-61914290D02*
X129217487Y-60990410D01*
X129360144Y-61085947D01*
X129484579Y-61137490D01*
X129590790Y-61145038D01*
X142056917Y-55996270D02*
X141860971Y-55015656D01*
X141627491Y-55062309D01*
X141496734Y-55136998D01*
X141422004Y-55249051D01*
X141393970Y-55351774D01*
X141384597Y-55547888D01*
X141412589Y-55687976D01*
X141496608Y-55865429D01*
X141561966Y-55949490D01*
X141674019Y-56024221D01*
X141823437Y-56042924D01*
X142056917Y-55996270D01*
X140945714Y-55295663D02*
X140889687Y-55258298D01*
X140786964Y-55230263D01*
X140553485Y-55276917D01*
X140469424Y-55342275D01*
X140432059Y-55398301D01*
X140404024Y-55501024D01*
X140422686Y-55594416D01*
X140497374Y-55725173D01*
X141169694Y-56173555D01*
X140562647Y-56294855D01*
X139526174Y-55482194D02*
X139712958Y-55444871D01*
X139815681Y-55472905D01*
X139871707Y-55510271D01*
X139993091Y-55631697D01*
X140077111Y-55809150D01*
X140151757Y-56182717D01*
X140123722Y-56285440D01*
X140086357Y-56341467D01*
X140002296Y-56406824D01*
X139815512Y-56444147D01*
X139712790Y-56416113D01*
X139656763Y-56378748D01*
X139591405Y-56294687D01*
X139544752Y-56061207D01*
X139572786Y-55958484D01*
X139610151Y-55902457D01*
X139694212Y-55837100D01*
X139880996Y-55799777D01*
X139983719Y-55827811D01*
X140039745Y-55865177D01*
X140105103Y-55949238D01*
X136833877Y-58691962D02*
X137394228Y-58579992D01*
X137114053Y-58635977D02*
X136918107Y-57655362D01*
X137039491Y-57776789D01*
X137151544Y-57851519D01*
X137254267Y-57879553D01*
X151234285Y-55452380D02*
X151234285Y-54452380D01*
X150996190Y-54452380D01*
X150853333Y-54500000D01*
X150758095Y-54595238D01*
X150710476Y-54690476D01*
X150662857Y-54880952D01*
X150662857Y-55023809D01*
X150710476Y-55214285D01*
X150758095Y-55309523D01*
X150853333Y-55404761D01*
X150996190Y-55452380D01*
X151234285Y-55452380D01*
X150281904Y-54547619D02*
X150234285Y-54500000D01*
X150139047Y-54452380D01*
X149900952Y-54452380D01*
X149805714Y-54500000D01*
X149758095Y-54547619D01*
X149710476Y-54642857D01*
X149710476Y-54738095D01*
X149758095Y-54880952D01*
X150329523Y-55452380D01*
X149710476Y-55452380D01*
X148805714Y-54452380D02*
X149281904Y-54452380D01*
X149329523Y-54928571D01*
X149281904Y-54880952D01*
X149186666Y-54833333D01*
X148948571Y-54833333D01*
X148853333Y-54880952D01*
X148805714Y-54928571D01*
X148758095Y-55023809D01*
X148758095Y-55261904D01*
X148805714Y-55357142D01*
X148853333Y-55404761D01*
X148948571Y-55452380D01*
X149186666Y-55452380D01*
X149281904Y-55404761D01*
X149329523Y-55357142D01*
X145584285Y-57052380D02*
X146155714Y-57052380D01*
X145870000Y-57052380D02*
X145870000Y-56052380D01*
X145965238Y-56195238D01*
X146060476Y-56290476D01*
X146155714Y-56338095D01*
X159574732Y-56646662D02*
X159768967Y-55665707D01*
X159535406Y-55619460D01*
X159386020Y-55638425D01*
X159274097Y-55713351D01*
X159208887Y-55797526D01*
X159125178Y-55975125D01*
X159097430Y-56115262D01*
X159107145Y-56311359D01*
X159135359Y-56414033D01*
X159210284Y-56525956D01*
X159341172Y-56600416D01*
X159574732Y-56646662D01*
X158816225Y-55574146D02*
X158778762Y-55518185D01*
X158694587Y-55452974D01*
X158461027Y-55406728D01*
X158358353Y-55434941D01*
X158302392Y-55472404D01*
X158237181Y-55556579D01*
X158218682Y-55650004D01*
X158237647Y-55799389D01*
X158687202Y-56470926D01*
X158079944Y-56350686D01*
X157368614Y-55530229D02*
X157239125Y-56184199D01*
X157676169Y-55202778D02*
X157770991Y-55949707D01*
X157163733Y-55829466D01*
X153744869Y-57001051D02*
X154305414Y-57112042D01*
X154025142Y-57056547D02*
X154219376Y-56075592D01*
X154285052Y-56234227D01*
X154359978Y-56346150D01*
X154444153Y-56411360D01*
X168565292Y-59548140D02*
X168947975Y-58624260D01*
X168728004Y-58533145D01*
X168577798Y-58522471D01*
X168453363Y-58574013D01*
X168372923Y-58643779D01*
X168256037Y-58801533D01*
X168201368Y-58933515D01*
X168172470Y-59127715D01*
X168180018Y-59233927D01*
X168231560Y-59358362D01*
X168345320Y-59457025D01*
X168565292Y-59548140D01*
X168031644Y-58347789D02*
X168005872Y-58285571D01*
X167936107Y-58205131D01*
X167716136Y-58114016D01*
X167609924Y-58121564D01*
X167547707Y-58147335D01*
X167467266Y-58217101D01*
X167430820Y-58305089D01*
X167420146Y-58455295D01*
X167729401Y-59201903D01*
X167157475Y-58965003D01*
X167232199Y-57913563D02*
X166660273Y-57676663D01*
X166822449Y-58156179D01*
X166690466Y-58101510D01*
X166584255Y-58109058D01*
X166522037Y-58134829D01*
X166441597Y-58204595D01*
X166350482Y-58424566D01*
X166358030Y-58530777D01*
X166383801Y-58592995D01*
X166453567Y-58673435D01*
X166717532Y-58782773D01*
X166823744Y-58775225D01*
X166885961Y-58749454D01*
X162824922Y-58642455D02*
X163352853Y-58861131D01*
X163088888Y-58751793D02*
X163471571Y-57827913D01*
X163504891Y-57996342D01*
X163556433Y-58120777D01*
X163626199Y-58201217D01*
X176376949Y-64030401D02*
X176931794Y-63198447D01*
X176733710Y-63066341D01*
X176588438Y-63026695D01*
X176456362Y-63053086D01*
X176363903Y-63105899D01*
X176218601Y-63237945D01*
X176139338Y-63356796D01*
X176073270Y-63541684D01*
X176060044Y-63647339D01*
X176086436Y-63779415D01*
X176178865Y-63898296D01*
X176376949Y-64030401D01*
X176086614Y-62749258D02*
X176073419Y-62683220D01*
X176020606Y-62590760D01*
X175822522Y-62458655D01*
X175716867Y-62445429D01*
X175650829Y-62458625D01*
X175558370Y-62511437D01*
X175505527Y-62590671D01*
X175465881Y-62735943D01*
X175624229Y-63528399D01*
X175109210Y-63184924D01*
X175294277Y-62220834D02*
X175281081Y-62154796D01*
X175228269Y-62062337D01*
X175030184Y-61930231D01*
X174924530Y-61917006D01*
X174858492Y-61930202D01*
X174766032Y-61983014D01*
X174713190Y-62062248D01*
X174673543Y-62207520D01*
X174831892Y-62999976D01*
X174316873Y-62656501D01*
X170710979Y-62343131D02*
X171186382Y-62660185D01*
X170948680Y-62501658D02*
X171503525Y-61669704D01*
X171503495Y-61841396D01*
X171529887Y-61973473D01*
X171582699Y-62065932D01*
X182613779Y-69941263D02*
X183320885Y-69234156D01*
X183152527Y-69065797D01*
X183017840Y-68998454D01*
X182883153Y-68998454D01*
X182782137Y-69032126D01*
X182613779Y-69133141D01*
X182512763Y-69234156D01*
X182411748Y-69402515D01*
X182378076Y-69503530D01*
X182378076Y-69638217D01*
X182445420Y-69772904D01*
X182613779Y-69941263D01*
X182580107Y-68628064D02*
X182580107Y-68560721D01*
X182546435Y-68459706D01*
X182378076Y-68291347D01*
X182277061Y-68257675D01*
X182209718Y-68257675D01*
X182108702Y-68291347D01*
X182041359Y-68358690D01*
X181974015Y-68493377D01*
X181974015Y-69301500D01*
X181536282Y-68863767D01*
X180862847Y-68190332D02*
X181266908Y-68594393D01*
X181064878Y-68392362D02*
X181771985Y-67685255D01*
X181738313Y-67853614D01*
X181738313Y-67988301D01*
X181771985Y-68089316D01*
X177473112Y-67091623D02*
X177877173Y-67495684D01*
X177675143Y-67293653D02*
X178382250Y-66586546D01*
X178348578Y-66754905D01*
X178348578Y-66889592D01*
X178382250Y-66990607D01*
X188224229Y-76986438D02*
X189055213Y-76430142D01*
X188922762Y-76232289D01*
X188803720Y-76140067D01*
X188671599Y-76113906D01*
X188565967Y-76127316D01*
X188381194Y-76193706D01*
X188262482Y-76273177D01*
X188130689Y-76418709D01*
X188078038Y-76511260D01*
X188051877Y-76643382D01*
X188091777Y-76788584D01*
X188224229Y-76986438D01*
X188446267Y-75691709D02*
X188459347Y-75625648D01*
X188445937Y-75520016D01*
X188313486Y-75322163D01*
X188220935Y-75269512D01*
X188154874Y-75256431D01*
X188049242Y-75269841D01*
X187970101Y-75322822D01*
X187877879Y-75441863D01*
X187720914Y-76234595D01*
X187376540Y-75720176D01*
X187863151Y-74649461D02*
X187810171Y-74570320D01*
X187717619Y-74517669D01*
X187651558Y-74504588D01*
X187545927Y-74517998D01*
X187361154Y-74584388D01*
X187163300Y-74716840D01*
X187031508Y-74862371D01*
X186978857Y-74954923D01*
X186965776Y-75020984D01*
X186979186Y-75126615D01*
X187032167Y-75205757D01*
X187124718Y-75258408D01*
X187190779Y-75271488D01*
X187296411Y-75258078D01*
X187481184Y-75191688D01*
X187679037Y-75059237D01*
X187810830Y-74913705D01*
X187863481Y-74821154D01*
X187876561Y-74755093D01*
X187863151Y-74649461D01*
X183751583Y-73181448D02*
X184069467Y-73656296D01*
X183910525Y-73418872D02*
X184741509Y-72862576D01*
X184675778Y-73021189D01*
X184649617Y-73153311D01*
X184663027Y-73258942D01*
X192162883Y-84978099D02*
X193086763Y-84595415D01*
X192995647Y-84375444D01*
X192896984Y-84261684D01*
X192772550Y-84210142D01*
X192666338Y-84202594D01*
X192472138Y-84231492D01*
X192340155Y-84286161D01*
X192182401Y-84403047D01*
X192112636Y-84483487D01*
X192061093Y-84607922D01*
X192071768Y-84758128D01*
X192162883Y-84978099D01*
X191579746Y-83570282D02*
X191798423Y-84098214D01*
X191689084Y-83834248D02*
X192612964Y-83451565D01*
X192517427Y-83594222D01*
X192465885Y-83718657D01*
X192458337Y-83824868D01*
X191397516Y-83130340D02*
X191324624Y-82954363D01*
X191332172Y-82848151D01*
X191357944Y-82785934D01*
X191453480Y-82643276D01*
X191611234Y-82526390D01*
X191963188Y-82380606D01*
X192069400Y-82388154D01*
X192131617Y-82413925D01*
X192212058Y-82483691D01*
X192284950Y-82659668D01*
X192277401Y-82765879D01*
X192251630Y-82828097D01*
X192181865Y-82908537D01*
X191961893Y-82999652D01*
X191855682Y-82992104D01*
X191793465Y-82966333D01*
X191713024Y-82896567D01*
X191640132Y-82720590D01*
X191647680Y-82614379D01*
X191673452Y-82552161D01*
X191743217Y-82471721D01*
X188633381Y-80324551D02*
X188852057Y-80852482D01*
X188742719Y-80588516D02*
X189666599Y-80205833D01*
X189571062Y-80348490D01*
X189519519Y-80472925D01*
X189511971Y-80579136D01*
X194233154Y-93480485D02*
X195213768Y-93284539D01*
X195167115Y-93051059D01*
X195092426Y-92920302D01*
X194980373Y-92845572D01*
X194877650Y-92817538D01*
X194681536Y-92808165D01*
X194541448Y-92836157D01*
X194363995Y-92920176D01*
X194279934Y-92985534D01*
X194205203Y-93097587D01*
X194186500Y-93247005D01*
X194233154Y-93480485D01*
X193934569Y-91986215D02*
X194046538Y-92546566D01*
X193990554Y-92266391D02*
X194971168Y-92070445D01*
X194849742Y-92191829D01*
X194775012Y-92303882D01*
X194746977Y-92406605D01*
X194382951Y-91313895D02*
X194448309Y-91397956D01*
X194504335Y-91435321D01*
X194607058Y-91463355D01*
X194653754Y-91454025D01*
X194737815Y-91388667D01*
X194775180Y-91332640D01*
X194803215Y-91229918D01*
X194765891Y-91043134D01*
X194700534Y-90959073D01*
X194644507Y-90921708D01*
X194541785Y-90893673D01*
X194495089Y-90903004D01*
X194411028Y-90968362D01*
X194373662Y-91024388D01*
X194345628Y-91127111D01*
X194382951Y-91313895D01*
X194354917Y-91416617D01*
X194317552Y-91472644D01*
X194233490Y-91538002D01*
X194046707Y-91575325D01*
X193943984Y-91547290D01*
X193887957Y-91509925D01*
X193822600Y-91425864D01*
X193785277Y-91239080D01*
X193813311Y-91136358D01*
X193850676Y-91080331D01*
X193934737Y-91014973D01*
X194121521Y-90977650D01*
X194224244Y-91005685D01*
X194280271Y-91043050D01*
X194345628Y-91127111D01*
X191792422Y-88206499D02*
X191904392Y-88766850D01*
X191848407Y-88486675D02*
X192829022Y-88290729D01*
X192707595Y-88412113D01*
X192632865Y-88524166D01*
X192604831Y-88626889D01*
X194928152Y-109069841D02*
X193947197Y-108875606D01*
X193900950Y-109109167D01*
X193919915Y-109258553D01*
X193994841Y-109370476D01*
X194079016Y-109435686D01*
X194256615Y-109519395D01*
X194396752Y-109547143D01*
X194592849Y-109537428D01*
X194695523Y-109509214D01*
X194807446Y-109434289D01*
X194881906Y-109303401D01*
X194928152Y-109069841D01*
X194632176Y-110564629D02*
X194743167Y-110004084D01*
X194687671Y-110284356D02*
X193706716Y-110090122D01*
X193865351Y-110024446D01*
X193977274Y-109949520D01*
X194042485Y-109865345D01*
X193484734Y-111211214D02*
X193521731Y-111024365D01*
X193586942Y-110940190D01*
X193642903Y-110902727D01*
X193801538Y-110837051D01*
X193997636Y-110827336D01*
X194371333Y-110901330D01*
X194455508Y-110966540D01*
X194492971Y-111022502D01*
X194521185Y-111125175D01*
X194484188Y-111312024D01*
X194418977Y-111396199D01*
X194363016Y-111433662D01*
X194260342Y-111461875D01*
X194026781Y-111415629D01*
X193942606Y-111350418D01*
X193905143Y-111294457D01*
X193876930Y-111191783D01*
X193913927Y-111004935D01*
X193979137Y-110920760D01*
X194035099Y-110883297D01*
X194137772Y-110855083D01*
X193853725Y-106155649D02*
X193964716Y-105595104D01*
X193909221Y-105875376D02*
X192928266Y-105681142D01*
X193086901Y-105615466D01*
X193198824Y-105540540D01*
X193264034Y-105456365D01*
X192674895Y-117811838D02*
X191751015Y-117429155D01*
X191659900Y-117649126D01*
X191649226Y-117799332D01*
X191700768Y-117923767D01*
X191770534Y-118004207D01*
X191928288Y-118121093D01*
X192060270Y-118175762D01*
X192254470Y-118204660D01*
X192360682Y-118197112D01*
X192485117Y-118145570D01*
X192583780Y-118031810D01*
X192674895Y-117811838D01*
X192091758Y-119219655D02*
X192310435Y-118691724D01*
X192201096Y-118955689D02*
X191277217Y-118573006D01*
X191445646Y-118539686D01*
X191570080Y-118488144D01*
X191650521Y-118418378D01*
X190821641Y-119672862D02*
X191003872Y-119232920D01*
X191462037Y-119371156D01*
X191399820Y-119396927D01*
X191319380Y-119466693D01*
X191228265Y-119686664D01*
X191235813Y-119792875D01*
X191261584Y-119855093D01*
X191331350Y-119935533D01*
X191551321Y-120026648D01*
X191657532Y-120019100D01*
X191719750Y-119993329D01*
X191800190Y-119923563D01*
X191891305Y-119703592D01*
X191883757Y-119597380D01*
X191857986Y-119535163D01*
X192210799Y-114751264D02*
X192429475Y-114223333D01*
X192320137Y-114487298D02*
X191396257Y-114104615D01*
X191564686Y-114071295D01*
X191689121Y-114019753D01*
X191769561Y-113949987D01*
X188078548Y-125744458D02*
X187246594Y-125189613D01*
X187114488Y-125387697D01*
X187074842Y-125532969D01*
X187101233Y-125665045D01*
X187154046Y-125757504D01*
X187286092Y-125902806D01*
X187404943Y-125982069D01*
X187589831Y-126048137D01*
X187695486Y-126061363D01*
X187827562Y-126034971D01*
X187946443Y-125942542D01*
X188078548Y-125744458D01*
X187233071Y-127012197D02*
X187550125Y-126536795D01*
X187391598Y-126774496D02*
X186559644Y-126219652D01*
X186731337Y-126219681D01*
X186863413Y-126193290D01*
X186955872Y-126140477D01*
X186202854Y-127355404D02*
X186757490Y-127725301D01*
X186018025Y-126945951D02*
X186744384Y-127144184D01*
X186400909Y-127659203D01*
X188317594Y-122718609D02*
X188634648Y-122243206D01*
X188476121Y-122480908D02*
X187644167Y-121926063D01*
X187815859Y-121926093D01*
X187947936Y-121899701D01*
X188040395Y-121846889D01*
X182347603Y-133375589D02*
X181640496Y-132668483D01*
X181472137Y-132836841D01*
X181404794Y-132971528D01*
X181404794Y-133106215D01*
X181438466Y-133207231D01*
X181539481Y-133375589D01*
X181640496Y-133476605D01*
X181808855Y-133577620D01*
X181909870Y-133611292D01*
X182044557Y-133611292D01*
X182179244Y-133543948D01*
X182347603Y-133375589D01*
X181270107Y-134453086D02*
X181674168Y-134049025D01*
X181472137Y-134251055D02*
X180765030Y-133543948D01*
X180933389Y-133577620D01*
X181068076Y-133577620D01*
X181169092Y-133543948D01*
X180327298Y-133981681D02*
X179889565Y-134419414D01*
X180394641Y-134453086D01*
X180293626Y-134554101D01*
X180259954Y-134655116D01*
X180259954Y-134722460D01*
X180293626Y-134823475D01*
X180461985Y-134991834D01*
X180563000Y-135025505D01*
X180630343Y-135025505D01*
X180731359Y-134991834D01*
X180933389Y-134789803D01*
X180967061Y-134688788D01*
X180967061Y-134621444D01*
X183372908Y-130426955D02*
X183776969Y-130022894D01*
X183574938Y-130224924D02*
X182867831Y-129517817D01*
X183036190Y-129551489D01*
X183170877Y-129551489D01*
X183271892Y-129517817D01*
X175780827Y-138931332D02*
X175224531Y-138100348D01*
X175026678Y-138232799D01*
X174934456Y-138351841D01*
X174908295Y-138483962D01*
X174921705Y-138589594D01*
X174988095Y-138774367D01*
X175067566Y-138893079D01*
X175213098Y-139024872D01*
X175305649Y-139077523D01*
X175437771Y-139103684D01*
X175582973Y-139063784D01*
X175780827Y-138931332D01*
X174514565Y-139779021D02*
X174989413Y-139461138D01*
X174751989Y-139620079D02*
X174195693Y-138789095D01*
X174354305Y-138854826D01*
X174486427Y-138880987D01*
X174592059Y-138867577D01*
X173694684Y-139239100D02*
X173628623Y-139226019D01*
X173522991Y-139239429D01*
X173325138Y-139371881D01*
X173272487Y-139464432D01*
X173259406Y-139530493D01*
X173272816Y-139636124D01*
X173325797Y-139715266D01*
X173444838Y-139807488D01*
X174237570Y-139964453D01*
X173723151Y-140308826D01*
X177014982Y-136011236D02*
X177489830Y-135693352D01*
X177252406Y-135852294D02*
X176696110Y-135021310D01*
X176854723Y-135087041D01*
X176986845Y-135113202D01*
X177092476Y-135099792D01*
X167865538Y-143242167D02*
X167482854Y-142318287D01*
X167262883Y-142409403D01*
X167149123Y-142508066D01*
X167097581Y-142632500D01*
X167090033Y-142738712D01*
X167118931Y-142932912D01*
X167173600Y-143064895D01*
X167290486Y-143222649D01*
X167370926Y-143292414D01*
X167495361Y-143343957D01*
X167645567Y-143333282D01*
X167865538Y-143242167D01*
X166457721Y-143825304D02*
X166985653Y-143606627D01*
X166721687Y-143715966D02*
X166339004Y-142792086D01*
X166481661Y-142887623D01*
X166606096Y-142939165D01*
X166712307Y-142946713D01*
X165577836Y-144189764D02*
X166105767Y-143971088D01*
X165841802Y-144080426D02*
X165459118Y-143156546D01*
X165601776Y-143252083D01*
X165726211Y-143303626D01*
X165832422Y-143311174D01*
X169693872Y-140731371D02*
X170221803Y-140512695D01*
X169957837Y-140622033D02*
X169575154Y-139698153D01*
X169717811Y-139793690D01*
X169842246Y-139845233D01*
X169948457Y-139852781D01*
X158793361Y-146027303D02*
X158597415Y-145046689D01*
X158363935Y-145093342D01*
X158233178Y-145168031D01*
X158158448Y-145280084D01*
X158130414Y-145382807D01*
X158121041Y-145578921D01*
X158149033Y-145719009D01*
X158233052Y-145896462D01*
X158298410Y-145980523D01*
X158410463Y-146055254D01*
X158559881Y-146073957D01*
X158793361Y-146027303D01*
X157299091Y-146325888D02*
X157859442Y-146213919D01*
X157579267Y-146269903D02*
X157383321Y-145289289D01*
X157504705Y-145410715D01*
X157616758Y-145485445D01*
X157719481Y-145513480D01*
X156496098Y-145466573D02*
X156402706Y-145485235D01*
X156318645Y-145550592D01*
X156281280Y-145606619D01*
X156253245Y-145709342D01*
X156243873Y-145905456D01*
X156290526Y-146138936D01*
X156374545Y-146316389D01*
X156439903Y-146400450D01*
X156495930Y-146437815D01*
X156598652Y-146465849D01*
X156692044Y-146447188D01*
X156776105Y-146381830D01*
X156813470Y-146325804D01*
X156841505Y-146223081D01*
X156850878Y-146026967D01*
X156804224Y-145793487D01*
X156720205Y-145616034D01*
X156654847Y-145531973D01*
X156598821Y-145494608D01*
X156496098Y-145466573D01*
X161313824Y-143892036D02*
X161874175Y-143780066D01*
X161594000Y-143836051D02*
X161398054Y-142855436D01*
X161519438Y-142976863D01*
X161631491Y-143051593D01*
X161734214Y-143079627D01*
X149586905Y-146897380D02*
X149586905Y-145897380D01*
X149348810Y-145897380D01*
X149205952Y-145945000D01*
X149110714Y-146040238D01*
X149063095Y-146135476D01*
X149015476Y-146325952D01*
X149015476Y-146468809D01*
X149063095Y-146659285D01*
X149110714Y-146754523D01*
X149205952Y-146849761D01*
X149348810Y-146897380D01*
X149586905Y-146897380D01*
X148539286Y-146897380D02*
X148348810Y-146897380D01*
X148253571Y-146849761D01*
X148205952Y-146802142D01*
X148110714Y-146659285D01*
X148063095Y-146468809D01*
X148063095Y-146087857D01*
X148110714Y-145992619D01*
X148158333Y-145945000D01*
X148253571Y-145897380D01*
X148444048Y-145897380D01*
X148539286Y-145945000D01*
X148586905Y-145992619D01*
X148634524Y-146087857D01*
X148634524Y-146325952D01*
X148586905Y-146421190D01*
X148539286Y-146468809D01*
X148444048Y-146516428D01*
X148253571Y-146516428D01*
X148158333Y-146468809D01*
X148110714Y-146421190D01*
X148063095Y-146325952D01*
X152713095Y-145417380D02*
X153284524Y-145417380D01*
X152998810Y-145417380D02*
X152998810Y-144417380D01*
X153094048Y-144560238D01*
X153189286Y-144655476D01*
X153284524Y-144703095D01*
X140626717Y-145930691D02*
X140820951Y-144949736D01*
X140587391Y-144903490D01*
X140438005Y-144922454D01*
X140326082Y-144997380D01*
X140260871Y-145081555D01*
X140177162Y-145259155D01*
X140149414Y-145399291D01*
X140159130Y-145595389D01*
X140187343Y-145698062D01*
X140262269Y-145809985D01*
X140393156Y-145884445D01*
X140626717Y-145930691D01*
X139616616Y-145148163D02*
X139719290Y-145119950D01*
X139775251Y-145082487D01*
X139840462Y-144998312D01*
X139849711Y-144951600D01*
X139821498Y-144848926D01*
X139784035Y-144792965D01*
X139699860Y-144727754D01*
X139513011Y-144690757D01*
X139410337Y-144718971D01*
X139354376Y-144756434D01*
X139289165Y-144840609D01*
X139279916Y-144887321D01*
X139308130Y-144989994D01*
X139345593Y-145045956D01*
X139429768Y-145111166D01*
X139616616Y-145148163D01*
X139700791Y-145213374D01*
X139738254Y-145269336D01*
X139766468Y-145372009D01*
X139729471Y-145558858D01*
X139664260Y-145643033D01*
X139608299Y-145680496D01*
X139505625Y-145708709D01*
X139318777Y-145671712D01*
X139234602Y-145606502D01*
X139197139Y-145550540D01*
X139168925Y-145447867D01*
X139205922Y-145261018D01*
X139271133Y-145176843D01*
X139327094Y-145139380D01*
X139429768Y-145111166D01*
X144036005Y-145219344D02*
X144596550Y-145330335D01*
X144316278Y-145274840D02*
X144510512Y-144293885D01*
X144576188Y-144452520D01*
X144651114Y-144564443D01*
X144735289Y-144629653D01*
X132008335Y-143725431D02*
X132391018Y-142801551D01*
X132171047Y-142710436D01*
X132020841Y-142699761D01*
X131896407Y-142751304D01*
X131815966Y-142821069D01*
X131699080Y-142978823D01*
X131644411Y-143110806D01*
X131615513Y-143305006D01*
X131623061Y-143411218D01*
X131674604Y-143535652D01*
X131788364Y-143634316D01*
X132008335Y-143725431D01*
X131555127Y-142455314D02*
X130939208Y-142200192D01*
X130952473Y-143288078D01*
X135562428Y-143314222D02*
X136090359Y-143532898D01*
X135826394Y-143423560D02*
X136209077Y-142499680D01*
X136242397Y-142668109D01*
X136293939Y-142792544D01*
X136363705Y-142872984D01*
X123892988Y-139382349D02*
X124447832Y-138550395D01*
X124249748Y-138418289D01*
X124104476Y-138378642D01*
X123972400Y-138405034D01*
X123879941Y-138457846D01*
X123734639Y-138589892D01*
X123655376Y-138708743D01*
X123589308Y-138893632D01*
X123576083Y-138999287D01*
X123602474Y-139131363D01*
X123694904Y-139250243D01*
X123892988Y-139382349D01*
X123259326Y-137757760D02*
X123417794Y-137863444D01*
X123470606Y-137955904D01*
X123483802Y-138021942D01*
X123483772Y-138193634D01*
X123417705Y-138378523D01*
X123206335Y-138695458D01*
X123113876Y-138748271D01*
X123047838Y-138761466D01*
X122942183Y-138748241D01*
X122783716Y-138642556D01*
X122730903Y-138550097D01*
X122717707Y-138484059D01*
X122730933Y-138378404D01*
X122863039Y-138180320D01*
X122955498Y-138127507D01*
X123021536Y-138114311D01*
X123127191Y-138127537D01*
X123285658Y-138233222D01*
X123338471Y-138325681D01*
X123351666Y-138391719D01*
X123338441Y-138497374D01*
X127381586Y-139785772D02*
X127856989Y-140102826D01*
X127619287Y-139944299D02*
X128174132Y-139112345D01*
X128174102Y-139284037D01*
X128200494Y-139416114D01*
X128253306Y-139508573D01*
X116888738Y-133487976D02*
X117595845Y-132780870D01*
X117427486Y-132612511D01*
X117292799Y-132545167D01*
X117158112Y-132545167D01*
X117057097Y-132578839D01*
X116888738Y-132679854D01*
X116787723Y-132780870D01*
X116686708Y-132949228D01*
X116653036Y-133050244D01*
X116653036Y-133184931D01*
X116720379Y-133319618D01*
X116888738Y-133487976D01*
X116552020Y-131737045D02*
X116888738Y-132073763D01*
X116585692Y-132444152D01*
X116585692Y-132376808D01*
X116552020Y-132275793D01*
X116383662Y-132107434D01*
X116282646Y-132073763D01*
X116215303Y-132073763D01*
X116114288Y-132107434D01*
X115945929Y-132275793D01*
X115912257Y-132376808D01*
X115912257Y-132444152D01*
X115945929Y-132545167D01*
X116114288Y-132713526D01*
X116215303Y-132747198D01*
X116282646Y-132747198D01*
X120202375Y-134708577D02*
X120606436Y-135112638D01*
X120404406Y-134910607D02*
X121111513Y-134203500D01*
X121077841Y-134371859D01*
X121077841Y-134506546D01*
X121111513Y-134607561D01*
X111318556Y-126517519D02*
X112149541Y-125961223D01*
X112017089Y-125763370D01*
X111898048Y-125671148D01*
X111765926Y-125644987D01*
X111660294Y-125658397D01*
X111475521Y-125724787D01*
X111356809Y-125804258D01*
X111225017Y-125949790D01*
X111172365Y-126042341D01*
X111146205Y-126174463D01*
X111186105Y-126319665D01*
X111318556Y-126517519D01*
X111077838Y-124959534D02*
X110523848Y-125330398D01*
X111526855Y-124945466D02*
X111065746Y-125540673D01*
X110721372Y-125026254D01*
X114187781Y-128358773D02*
X114505665Y-128833621D01*
X114346723Y-128596197D02*
X115177707Y-128039901D01*
X115111976Y-128198514D01*
X115085815Y-128330636D01*
X115099225Y-128436267D01*
X106801746Y-118699863D02*
X107725625Y-118317180D01*
X107634510Y-118097209D01*
X107535847Y-117983449D01*
X107411412Y-117931906D01*
X107305201Y-117924358D01*
X107111001Y-117953256D01*
X106979018Y-118007925D01*
X106821264Y-118124811D01*
X106751498Y-118205252D01*
X106699956Y-118329686D01*
X106710631Y-118479892D01*
X106801746Y-118699863D01*
X107379388Y-117481289D02*
X107142489Y-116909363D01*
X106918096Y-117363107D01*
X106863427Y-117231125D01*
X106782986Y-117161359D01*
X106720769Y-117135588D01*
X106614558Y-117128040D01*
X106394586Y-117219155D01*
X106324821Y-117299595D01*
X106299049Y-117361812D01*
X106291501Y-117468024D01*
X106400839Y-117731989D01*
X106481280Y-117801755D01*
X106543497Y-117827526D01*
X109476294Y-120975794D02*
X109694970Y-121503725D01*
X109585632Y-121239759D02*
X110509512Y-120857076D01*
X110413975Y-120999733D01*
X110362432Y-121124168D01*
X110354884Y-121230379D01*
X104272157Y-110008088D02*
X105252772Y-109812142D01*
X105206118Y-109578662D01*
X105131430Y-109447905D01*
X105019376Y-109373175D01*
X104916654Y-109345140D01*
X104720539Y-109335767D01*
X104580451Y-109363760D01*
X104402998Y-109447779D01*
X104318937Y-109513136D01*
X104244207Y-109625190D01*
X104225503Y-109774608D01*
X104272157Y-110008088D01*
X104972764Y-108896884D02*
X105010130Y-108840858D01*
X105038164Y-108738135D01*
X104991510Y-108504655D01*
X104926153Y-108420594D01*
X104870126Y-108383229D01*
X104767403Y-108355195D01*
X104674011Y-108373856D01*
X104543254Y-108448545D01*
X104094872Y-109120865D01*
X103973572Y-108513818D01*
X106336031Y-112783676D02*
X106448001Y-113344027D01*
X106392016Y-113063852D02*
X107372631Y-112867906D01*
X107251204Y-112989290D01*
X107176474Y-113101343D01*
X107148440Y-113204066D01*
X104174285Y-99548809D02*
X103174285Y-99548809D01*
X103174285Y-99786905D01*
X103221905Y-99929762D01*
X103317143Y-100025000D01*
X103412381Y-100072619D01*
X103602857Y-100120238D01*
X103745714Y-100120238D01*
X103936190Y-100072619D01*
X104031428Y-100025000D01*
X104126666Y-99929762D01*
X104174285Y-99786905D01*
X104174285Y-99548809D01*
X104174285Y-101072619D02*
X104174285Y-100501190D01*
X104174285Y-100786905D02*
X103174285Y-100786905D01*
X103317143Y-100691666D01*
X103412381Y-100596428D01*
X103460000Y-100501190D01*
X105774285Y-104722619D02*
X105774285Y-104151190D01*
X105774285Y-104436905D02*
X104774285Y-104436905D01*
X104917143Y-104341666D01*
X105012381Y-104246428D01*
X105060000Y-104151190D01*
X112266666Y-102952380D02*
X112600000Y-102476190D01*
X112838095Y-102952380D02*
X112838095Y-101952380D01*
X112457142Y-101952380D01*
X112361904Y-102000000D01*
X112314285Y-102047619D01*
X112266666Y-102142857D01*
X112266666Y-102285714D01*
X112314285Y-102380952D01*
X112361904Y-102428571D01*
X112457142Y-102476190D01*
X112838095Y-102476190D01*
X111361904Y-101952380D02*
X111838095Y-101952380D01*
X111885714Y-102428571D01*
X111838095Y-102380952D01*
X111742857Y-102333333D01*
X111504761Y-102333333D01*
X111409523Y-102380952D01*
X111361904Y-102428571D01*
X111314285Y-102523809D01*
X111314285Y-102761904D01*
X111361904Y-102857142D01*
X111409523Y-102904761D01*
X111504761Y-102952380D01*
X111742857Y-102952380D01*
X111838095Y-102904761D01*
X111885714Y-102857142D01*
X112266666Y-104952380D02*
X112600000Y-104476190D01*
X112838095Y-104952380D02*
X112838095Y-103952380D01*
X112457142Y-103952380D01*
X112361904Y-104000000D01*
X112314285Y-104047619D01*
X112266666Y-104142857D01*
X112266666Y-104285714D01*
X112314285Y-104380952D01*
X112361904Y-104428571D01*
X112457142Y-104476190D01*
X112838095Y-104476190D01*
X111409523Y-104285714D02*
X111409523Y-104952380D01*
X111647619Y-103904761D02*
X111885714Y-104619047D01*
X111266666Y-104619047D01*
X112266666Y-96952380D02*
X112600000Y-96476190D01*
X112838095Y-96952380D02*
X112838095Y-95952380D01*
X112457142Y-95952380D01*
X112361904Y-96000000D01*
X112314285Y-96047619D01*
X112266666Y-96142857D01*
X112266666Y-96285714D01*
X112314285Y-96380952D01*
X112361904Y-96428571D01*
X112457142Y-96476190D01*
X112838095Y-96476190D01*
X111885714Y-96047619D02*
X111838095Y-96000000D01*
X111742857Y-95952380D01*
X111504761Y-95952380D01*
X111409523Y-96000000D01*
X111361904Y-96047619D01*
X111314285Y-96142857D01*
X111314285Y-96238095D01*
X111361904Y-96380952D01*
X111933333Y-96952380D01*
X111314285Y-96952380D01*
X118147619Y-99404761D02*
X118100000Y-99309523D01*
X118004761Y-99214285D01*
X117861904Y-99071428D01*
X117814285Y-98976190D01*
X117814285Y-98880952D01*
X118052380Y-98928571D02*
X118004761Y-98833333D01*
X117909523Y-98738095D01*
X117719047Y-98690476D01*
X117385714Y-98690476D01*
X117195238Y-98738095D01*
X117100000Y-98833333D01*
X117052380Y-98928571D01*
X117052380Y-99119047D01*
X117100000Y-99214285D01*
X117195238Y-99309523D01*
X117385714Y-99357142D01*
X117719047Y-99357142D01*
X117909523Y-99309523D01*
X118004761Y-99214285D01*
X118052380Y-99119047D01*
X118052380Y-98928571D01*
X118052380Y-100309523D02*
X118052380Y-99738095D01*
X118052380Y-100023809D02*
X117052380Y-100023809D01*
X117195238Y-99928571D01*
X117290476Y-99833333D01*
X117338095Y-99738095D01*
M02*
