M48
; DRILL file {KiCad (5.1.5-0-10_14)} date 2020 September 03, Thursday 18:47:39
; FORMAT={-:-/ absolute / inch / decimal}
; #@! TF.CreationDate,2020-09-03T18:47:39+03:00
; #@! TF.GenerationSoftware,Kicad,Pcbnew,(5.1.5-0-10_14)
; #@! TF.FileFunction,Plated,1,4,PTH
FMAT,2
INCH
T1C0.0157
T2C0.0256
T3C0.0276
T4C0.0394
T5C0.0598
%
G90
G05
T1
X4.0Y-3.7598
X4.0197Y-3.9488
X4.0236Y-4.1299
X4.0512Y-3.5787
X4.0512Y-4.315
X4.0551Y-3.75
X4.0866Y-4.4882
X4.0984Y-3.3976
X4.1437Y-3.9075
X4.1535Y-4.6693
X4.1693Y-3.2362
X4.2165Y-4.8268
X4.2598Y-3.0709
X4.2756Y-4.2598
X4.2835Y-4.0
X4.311Y-3.622
X4.3189Y-4.9882
X4.3465Y-2.9134
X4.3622Y-4.5709
X4.4094Y-3.3268
X4.4094Y-5.1339
X4.439Y-4.0354
X4.4528Y-3.7598
X4.4567Y-2.7598
X4.5315Y-4.8504
X4.5472Y-3.0315
X4.5472Y-5.2717
X4.5787Y-2.6299
X4.6732Y-5.3937
X4.7047Y-5.0984
X4.7165Y-2.5039
X4.7441Y-2.7953
X4.7441Y-4.3346
X4.7795Y-3.9882
X4.8051Y-4.5295
X4.8051Y-4.6476
X4.8268Y-5.5079
X4.8661Y-2.3937
X4.9409Y-5.315
X4.9764Y-5.6024
X5.0197Y-2.6181
X5.0315Y-2.3071
X5.0787Y-5.1535
X5.0787Y-5.1969
X5.1496Y-4.2205
X5.1535Y-5.689
X5.1654Y-4.5394
X5.1654Y-4.6378
X5.1969Y-2.2402
X5.2362Y-5.4528
X5.2598Y-4.2913
X5.2717Y-4.437
X5.315Y-2.4606
X5.315Y-4.0118
X5.315Y-5.7559
X5.3543Y-2.8858
X5.3622Y-2.1732
X5.3937Y-3.622
X5.4232Y-3.6998
X5.4631Y-3.967
X5.4961Y-5.7992
X5.5039Y-4.4646
X5.5079Y-4.315
X5.5079Y-5.3937
X5.5079Y-5.4331
X5.5079Y-5.4724
X5.5118Y-4.2717
X5.5276Y-2.1339
X5.5512Y-5.5512
X5.5906Y-2.3622
X5.5984Y-4.2638
X5.6181Y-3.7717
X5.6339Y-4.1417
X5.6535Y-3.6496
X5.6693Y-5.8268
X5.6801Y-4.2126
X5.7205Y-2.1024
X5.7441Y-3.8071
X5.7441Y-3.8504
X5.748Y-4.0344
X5.7488Y-3.9951
X5.752Y-4.3071
X5.7835Y-4.0906
X5.7874Y-3.9685
X5.8035Y-3.8817
X5.8071Y-3.6417
X5.8258Y-3.7677
X5.8307Y-3.9469
X5.8346Y-4.3071
X5.8465Y-5.5906
X5.8474Y-3.5787
X5.8543Y-5.8346
X5.8583Y-4.3701
X5.8622Y-3.9173
X5.8671Y-3.4882
X5.9055Y-2.1024
X5.9055Y-2.3425
X5.935Y-2.7067
X5.9488Y-3.7776
X5.9921Y-4.064
X5.9961Y-3.9409
X6.0Y-3.0039
X6.0236Y-4.0945
X6.0276Y-3.7795
X6.0315Y-3.9764
X6.0315Y-5.8307
X6.0354Y-2.9528
X6.0394Y-3.8287
X6.0394Y-3.876
X6.0827Y-2.1024
X6.1063Y-4.252
X6.1063Y-4.3425
X6.1102Y-4.3858
X6.1614Y-2.6969
X6.1614Y-5.5709
X6.188Y-4.5354
X6.2205Y-2.3819
X6.2283Y-5.8071
X6.2402Y-2.6654
X6.2431Y-4.1693
X6.252Y-2.1378
X6.2795Y-3.7598
X6.2795Y-3.8386
X6.3976Y-5.7677
X6.437Y-4.1063
X6.4449Y-2.1693
X6.4685Y-3.6811
X6.4764Y-5.4724
X6.5276Y-5.2362
X6.5354Y-2.4803
X6.5827Y-5.7008
X6.6299Y-2.2362
X6.6378Y-4.5551
X6.6614Y-3.2244
X6.752Y-5.3543
X6.752Y-5.6417
X6.7913Y-2.3189
X6.7913Y-4.4488
X6.7913Y-4.5276
X6.7913Y-4.6063
X6.8307Y-2.6181
X6.8504Y-3.7205
X6.8898Y-3.9764
X6.9055Y-5.5315
X6.9449Y-2.4291
X6.9449Y-3.7087
X6.9803Y-3.7087
X7.0276Y-3.5827
X7.0276Y-5.1575
X7.0354Y-3.5118
X7.0472Y-2.8346
X7.0591Y-5.4488
X7.0669Y-3.9961
X7.0866Y-2.5433
X7.1102Y-3.8425
X7.1102Y-4.5039
X7.1102Y-4.5512
X7.1614Y-3.6693
X7.1929Y-5.3189
X7.1969Y-3.5118
X7.1969Y-3.5945
X7.2126Y-2.6614
X7.2244Y-4.9016
X7.2638Y-3.0906
X7.311Y-3.6654
X7.315Y-5.189
X7.3465Y-4.063
X7.3465Y-4.126
X7.3504Y-2.7835
X7.3819Y-4.626
X7.3976Y-3.8701
X7.4016Y-3.3858
X7.4213Y-5.0197
X7.4528Y-2.9331
X7.4803Y-4.311
X7.4882Y-3.8386
X7.5Y-3.6614
X7.5354Y-4.874
X7.5591Y-3.0984
X7.6142Y-4.6969
X7.6299Y-3.2717
X7.6772Y-4.5315
X7.689Y-3.4409
X7.7087Y-4.3504
X7.7283Y-3.6142
X7.7638Y-3.9882
T2
X7.1575Y-4.1929
X7.2075Y-4.1929
X7.2575Y-4.1929
T3
X5.8039Y-2.5591
X5.8039Y-2.6091
X5.8539Y-2.5591
X5.8539Y-2.6091
X5.9039Y-2.5591
X5.9039Y-2.6091
X5.9539Y-2.5591
X5.9539Y-2.6091
X6.0039Y-2.5591
X6.0039Y-2.6091
T4
X5.8547Y-4.9736
X5.8547Y-5.0736
X5.9547Y-4.9736
X5.9547Y-5.0736
X5.0669Y-3.7866
X5.0669Y-3.8866
X5.0669Y-3.9866
X5.0669Y-4.0866
X5.1669Y-3.7866
X5.1669Y-3.8866
X5.1669Y-3.9866
X5.1669Y-4.0866
X4.3425Y-3.8661
X4.3425Y-3.9661
X5.2346Y-3.3563
X5.3346Y-3.3563
X5.4346Y-3.3563
X6.3189Y-3.3433
X6.3189Y-3.4433
X6.3189Y-3.5433
X5.3528Y-4.815
X5.4528Y-4.815
X6.3386Y-4.2717
X6.3386Y-4.3717
X6.3386Y-4.4717
X6.3386Y-4.5717
X6.3386Y-4.6717
X6.3386Y-4.7717
X6.3386Y-4.8717
X6.3386Y-4.9717
X5.7547Y-3.0984
X5.7547Y-3.1984
X5.8547Y-3.0984
X5.8547Y-3.1984
X5.9547Y-3.0984
X5.9547Y-3.1984
X6.0547Y-3.0984
X6.0547Y-3.1984
X6.3189Y-2.5315
X6.3189Y-2.6315
X6.3189Y-2.7315
X6.3189Y-2.8315
X6.3189Y-2.9315
X6.3189Y-3.0315
X5.7551Y-4.6736
X5.7551Y-4.7736
X5.8551Y-4.6736
X5.8551Y-4.7736
X5.9551Y-4.6736
X5.9551Y-4.7736
X6.0551Y-4.6736
X6.0551Y-4.7736
X6.6441Y-3.7874
X6.6441Y-3.8874
X6.6441Y-3.9874
X6.6441Y-4.0874
X6.7441Y-3.7874
X6.7441Y-3.8874
X6.7441Y-3.9874
X6.7441Y-4.0874
T5
X5.8031Y-5.4094
X6.0031Y-5.4094
T0
M30
