G04 #@! TF.GenerationSoftware,KiCad,Pcbnew,(5.1.5-0-10_14)*
G04 #@! TF.CreationDate,2020-09-03T18:46:32+03:00*
G04 #@! TF.ProjectId,main,6d61696e-2e6b-4696-9361-645f70636258,rev?*
G04 #@! TF.SameCoordinates,Original*
G04 #@! TF.FileFunction,Soldermask,Top*
G04 #@! TF.FilePolarity,Negative*
%FSLAX46Y46*%
G04 Gerber Fmt 4.6, Leading zero omitted, Abs format (unit mm)*
G04 Created by KiCad (PCBNEW (5.1.5-0-10_14)) date 2020-09-03 18:46:32*
%MOMM*%
%LPD*%
G04 APERTURE LIST*
%ADD10C,0.100000*%
G04 APERTURE END LIST*
D10*
G36*
X152782585Y-135878802D02*
G01*
X152932410Y-135908604D01*
X153214674Y-136025521D01*
X153468705Y-136195259D01*
X153684741Y-136411295D01*
X153854479Y-136665326D01*
X153971396Y-136947590D01*
X154031000Y-137247240D01*
X154031000Y-137552760D01*
X153971396Y-137852410D01*
X153854479Y-138134674D01*
X153684741Y-138388705D01*
X153468705Y-138604741D01*
X153214674Y-138774479D01*
X152932410Y-138891396D01*
X152782585Y-138921198D01*
X152632761Y-138951000D01*
X152327239Y-138951000D01*
X152177415Y-138921198D01*
X152027590Y-138891396D01*
X151745326Y-138774479D01*
X151491295Y-138604741D01*
X151275259Y-138388705D01*
X151105521Y-138134674D01*
X150988604Y-137852410D01*
X150929000Y-137552760D01*
X150929000Y-137247240D01*
X150988604Y-136947590D01*
X151105521Y-136665326D01*
X151275259Y-136411295D01*
X151491295Y-136195259D01*
X151745326Y-136025521D01*
X152027590Y-135908604D01*
X152177415Y-135878802D01*
X152327239Y-135849000D01*
X152632761Y-135849000D01*
X152782585Y-135878802D01*
G37*
G36*
X148951000Y-138951000D02*
G01*
X145849000Y-138951000D01*
X145849000Y-135849000D01*
X148951000Y-135849000D01*
X148951000Y-138951000D01*
G37*
G36*
X141821934Y-130102671D02*
G01*
X141851877Y-130111754D01*
X141879465Y-130126500D01*
X141903651Y-130146349D01*
X141923500Y-130170535D01*
X141938246Y-130198123D01*
X141947329Y-130228066D01*
X141951000Y-130265340D01*
X141951000Y-132534660D01*
X141947329Y-132571934D01*
X141938246Y-132601877D01*
X141923500Y-132629465D01*
X141903651Y-132653651D01*
X141879465Y-132673500D01*
X141851877Y-132688246D01*
X141821934Y-132697329D01*
X141784660Y-132701000D01*
X138015340Y-132701000D01*
X137978066Y-132697329D01*
X137948123Y-132688246D01*
X137920535Y-132673500D01*
X137896349Y-132653651D01*
X137876500Y-132629465D01*
X137861754Y-132601877D01*
X137852671Y-132571934D01*
X137849000Y-132534660D01*
X137849000Y-130265340D01*
X137852671Y-130228066D01*
X137861754Y-130198123D01*
X137876500Y-130170535D01*
X137896349Y-130146349D01*
X137920535Y-130126500D01*
X137948123Y-130111754D01*
X137978066Y-130102671D01*
X138015340Y-130099000D01*
X141784660Y-130099000D01*
X141821934Y-130102671D01*
G37*
G36*
X133821934Y-130102671D02*
G01*
X133851877Y-130111754D01*
X133879465Y-130126500D01*
X133903651Y-130146349D01*
X133923500Y-130170535D01*
X133938246Y-130198123D01*
X133947329Y-130228066D01*
X133951000Y-130265340D01*
X133951000Y-132534660D01*
X133947329Y-132571934D01*
X133938246Y-132601877D01*
X133923500Y-132629465D01*
X133903651Y-132653651D01*
X133879465Y-132673500D01*
X133851877Y-132688246D01*
X133821934Y-132697329D01*
X133784660Y-132701000D01*
X130015340Y-132701000D01*
X129978066Y-132697329D01*
X129948123Y-132688246D01*
X129920535Y-132673500D01*
X129896349Y-132653651D01*
X129876500Y-132629465D01*
X129861754Y-132601877D01*
X129852671Y-132571934D01*
X129849000Y-132534660D01*
X129849000Y-130265340D01*
X129852671Y-130228066D01*
X129861754Y-130198123D01*
X129876500Y-130170535D01*
X129896349Y-130146349D01*
X129920535Y-130126500D01*
X129948123Y-130111754D01*
X129978066Y-130102671D01*
X130015340Y-130099000D01*
X133784660Y-130099000D01*
X133821934Y-130102671D01*
G37*
G36*
X151363512Y-127973927D02*
G01*
X151512812Y-128003624D01*
X151676784Y-128071544D01*
X151824354Y-128170147D01*
X151949853Y-128295646D01*
X152048456Y-128443216D01*
X152116376Y-128607188D01*
X152151000Y-128781259D01*
X152151000Y-128958741D01*
X152116376Y-129132812D01*
X152048456Y-129296784D01*
X151949853Y-129444354D01*
X151824354Y-129569853D01*
X151676784Y-129668456D01*
X151512812Y-129736376D01*
X151363512Y-129766073D01*
X151338742Y-129771000D01*
X151161258Y-129771000D01*
X151136488Y-129766073D01*
X150987188Y-129736376D01*
X150823216Y-129668456D01*
X150675646Y-129569853D01*
X150550147Y-129444354D01*
X150451544Y-129296784D01*
X150383624Y-129132812D01*
X150349000Y-128958741D01*
X150349000Y-128781259D01*
X150383624Y-128607188D01*
X150451544Y-128443216D01*
X150550147Y-128295646D01*
X150675646Y-128170147D01*
X150823216Y-128071544D01*
X150987188Y-128003624D01*
X151136488Y-127973927D01*
X151161258Y-127969000D01*
X151338742Y-127969000D01*
X151363512Y-127973927D01*
G37*
G36*
X148823512Y-127973927D02*
G01*
X148972812Y-128003624D01*
X149136784Y-128071544D01*
X149284354Y-128170147D01*
X149409853Y-128295646D01*
X149508456Y-128443216D01*
X149576376Y-128607188D01*
X149611000Y-128781259D01*
X149611000Y-128958741D01*
X149576376Y-129132812D01*
X149508456Y-129296784D01*
X149409853Y-129444354D01*
X149284354Y-129569853D01*
X149136784Y-129668456D01*
X148972812Y-129736376D01*
X148823512Y-129766073D01*
X148798742Y-129771000D01*
X148621258Y-129771000D01*
X148596488Y-129766073D01*
X148447188Y-129736376D01*
X148283216Y-129668456D01*
X148135646Y-129569853D01*
X148010147Y-129444354D01*
X147911544Y-129296784D01*
X147843624Y-129132812D01*
X147809000Y-128958741D01*
X147809000Y-128781259D01*
X147843624Y-128607188D01*
X147911544Y-128443216D01*
X148010147Y-128295646D01*
X148135646Y-128170147D01*
X148283216Y-128071544D01*
X148447188Y-128003624D01*
X148596488Y-127973927D01*
X148621258Y-127969000D01*
X148798742Y-127969000D01*
X148823512Y-127973927D01*
G37*
G36*
X145901000Y-128901000D02*
G01*
X144899000Y-128901000D01*
X144899000Y-127999000D01*
X145901000Y-127999000D01*
X145901000Y-128901000D01*
G37*
G36*
X143901000Y-127951000D02*
G01*
X142899000Y-127951000D01*
X142899000Y-127049000D01*
X143901000Y-127049000D01*
X143901000Y-127951000D01*
G37*
G36*
X152151000Y-127231000D02*
G01*
X150349000Y-127231000D01*
X150349000Y-125429000D01*
X152151000Y-125429000D01*
X152151000Y-127231000D01*
G37*
G36*
X148823512Y-125433927D02*
G01*
X148972812Y-125463624D01*
X149136784Y-125531544D01*
X149284354Y-125630147D01*
X149409853Y-125755646D01*
X149508456Y-125903216D01*
X149576376Y-126067188D01*
X149611000Y-126241259D01*
X149611000Y-126418741D01*
X149576376Y-126592812D01*
X149508456Y-126756784D01*
X149409853Y-126904354D01*
X149284354Y-127029853D01*
X149136784Y-127128456D01*
X148972812Y-127196376D01*
X148823512Y-127226073D01*
X148798742Y-127231000D01*
X148621258Y-127231000D01*
X148596488Y-127226073D01*
X148447188Y-127196376D01*
X148283216Y-127128456D01*
X148135646Y-127029853D01*
X148010147Y-126904354D01*
X147911544Y-126756784D01*
X147843624Y-126592812D01*
X147809000Y-126418741D01*
X147809000Y-126241259D01*
X147843624Y-126067188D01*
X147911544Y-125903216D01*
X148010147Y-125755646D01*
X148135646Y-125630147D01*
X148283216Y-125531544D01*
X148447188Y-125463624D01*
X148596488Y-125433927D01*
X148621258Y-125429000D01*
X148798742Y-125429000D01*
X148823512Y-125433927D01*
G37*
G36*
X161113512Y-125383927D02*
G01*
X161262812Y-125413624D01*
X161426784Y-125481544D01*
X161574354Y-125580147D01*
X161699853Y-125705646D01*
X161798456Y-125853216D01*
X161866376Y-126017188D01*
X161901000Y-126191259D01*
X161901000Y-126368741D01*
X161866376Y-126542812D01*
X161798456Y-126706784D01*
X161699853Y-126854354D01*
X161574354Y-126979853D01*
X161426784Y-127078456D01*
X161262812Y-127146376D01*
X161113512Y-127176073D01*
X161088742Y-127181000D01*
X160911258Y-127181000D01*
X160886488Y-127176073D01*
X160737188Y-127146376D01*
X160573216Y-127078456D01*
X160425646Y-126979853D01*
X160300147Y-126854354D01*
X160201544Y-126706784D01*
X160133624Y-126542812D01*
X160099000Y-126368741D01*
X160099000Y-126191259D01*
X160133624Y-126017188D01*
X160201544Y-125853216D01*
X160300147Y-125705646D01*
X160425646Y-125580147D01*
X160573216Y-125481544D01*
X160737188Y-125413624D01*
X160886488Y-125383927D01*
X160911258Y-125379000D01*
X161088742Y-125379000D01*
X161113512Y-125383927D01*
G37*
G36*
X145901000Y-127001000D02*
G01*
X144899000Y-127001000D01*
X144899000Y-126099000D01*
X145901000Y-126099000D01*
X145901000Y-127001000D01*
G37*
G36*
X175390744Y-122632319D02*
G01*
X175791300Y-122798235D01*
X175791302Y-122798236D01*
X176151793Y-123039108D01*
X176458366Y-123345681D01*
X176662546Y-123651259D01*
X176699239Y-123706174D01*
X176865155Y-124106730D01*
X176949737Y-124531956D01*
X176949737Y-124965518D01*
X176865155Y-125390744D01*
X176714007Y-125755646D01*
X176699238Y-125791302D01*
X176458366Y-126151793D01*
X176151793Y-126458366D01*
X175791302Y-126699238D01*
X175791301Y-126699239D01*
X175791300Y-126699239D01*
X175390744Y-126865155D01*
X174965518Y-126949737D01*
X174531956Y-126949737D01*
X174106730Y-126865155D01*
X173706174Y-126699239D01*
X173706173Y-126699239D01*
X173706172Y-126699238D01*
X173345681Y-126458366D01*
X173039108Y-126151793D01*
X172798236Y-125791302D01*
X172783467Y-125755646D01*
X172632319Y-125390744D01*
X172547737Y-124965518D01*
X172547737Y-124531956D01*
X172632319Y-124106730D01*
X172798235Y-123706174D01*
X172834928Y-123651259D01*
X173039108Y-123345681D01*
X173345681Y-123039108D01*
X173706172Y-122798236D01*
X173706174Y-122798235D01*
X174106730Y-122632319D01*
X174531956Y-122547737D01*
X174965518Y-122547737D01*
X175390744Y-122632319D01*
G37*
G36*
X125893270Y-122632319D02*
G01*
X126293826Y-122798235D01*
X126293828Y-122798236D01*
X126654319Y-123039108D01*
X126960892Y-123345681D01*
X127165072Y-123651259D01*
X127201765Y-123706174D01*
X127367681Y-124106730D01*
X127452263Y-124531956D01*
X127452263Y-124965518D01*
X127367681Y-125390744D01*
X127216533Y-125755646D01*
X127201764Y-125791302D01*
X126960892Y-126151793D01*
X126654319Y-126458366D01*
X126293828Y-126699238D01*
X126293827Y-126699239D01*
X126293826Y-126699239D01*
X125893270Y-126865155D01*
X125468044Y-126949737D01*
X125034482Y-126949737D01*
X124609256Y-126865155D01*
X124208700Y-126699239D01*
X124208699Y-126699239D01*
X124208698Y-126699238D01*
X123848207Y-126458366D01*
X123541634Y-126151793D01*
X123300762Y-125791302D01*
X123285993Y-125755646D01*
X123134845Y-125390744D01*
X123050263Y-124965518D01*
X123050263Y-124531956D01*
X123134845Y-124106730D01*
X123300761Y-123706174D01*
X123337454Y-123651259D01*
X123541634Y-123345681D01*
X123848207Y-123039108D01*
X124208698Y-122798236D01*
X124208700Y-122798235D01*
X124609256Y-122632319D01*
X125034482Y-122547737D01*
X125468044Y-122547737D01*
X125893270Y-122632319D01*
G37*
G36*
X161113512Y-122843927D02*
G01*
X161262812Y-122873624D01*
X161426784Y-122941544D01*
X161574354Y-123040147D01*
X161699853Y-123165646D01*
X161798456Y-123313216D01*
X161866376Y-123477188D01*
X161901000Y-123651259D01*
X161901000Y-123828741D01*
X161866376Y-124002812D01*
X161798456Y-124166784D01*
X161699853Y-124314354D01*
X161574354Y-124439853D01*
X161426784Y-124538456D01*
X161262812Y-124606376D01*
X161113512Y-124636073D01*
X161088742Y-124641000D01*
X160911258Y-124641000D01*
X160886488Y-124636073D01*
X160737188Y-124606376D01*
X160573216Y-124538456D01*
X160425646Y-124439853D01*
X160300147Y-124314354D01*
X160201544Y-124166784D01*
X160133624Y-124002812D01*
X160099000Y-123828741D01*
X160099000Y-123651259D01*
X160133624Y-123477188D01*
X160201544Y-123313216D01*
X160300147Y-123165646D01*
X160425646Y-123040147D01*
X160573216Y-122941544D01*
X160737188Y-122873624D01*
X160886488Y-122843927D01*
X160911258Y-122839000D01*
X161088742Y-122839000D01*
X161113512Y-122843927D01*
G37*
G36*
X139401000Y-123201000D02*
G01*
X137599000Y-123201000D01*
X137599000Y-121399000D01*
X139401000Y-121399000D01*
X139401000Y-123201000D01*
G37*
G36*
X136073512Y-121403927D02*
G01*
X136222812Y-121433624D01*
X136386784Y-121501544D01*
X136534354Y-121600147D01*
X136659853Y-121725646D01*
X136758456Y-121873216D01*
X136826376Y-122037188D01*
X136861000Y-122211259D01*
X136861000Y-122388741D01*
X136826376Y-122562812D01*
X136758456Y-122726784D01*
X136659853Y-122874354D01*
X136534354Y-122999853D01*
X136386784Y-123098456D01*
X136222812Y-123166376D01*
X136073512Y-123196073D01*
X136048742Y-123201000D01*
X135871258Y-123201000D01*
X135846488Y-123196073D01*
X135697188Y-123166376D01*
X135533216Y-123098456D01*
X135385646Y-122999853D01*
X135260147Y-122874354D01*
X135161544Y-122726784D01*
X135093624Y-122562812D01*
X135059000Y-122388741D01*
X135059000Y-122211259D01*
X135093624Y-122037188D01*
X135161544Y-121873216D01*
X135260147Y-121725646D01*
X135385646Y-121600147D01*
X135533216Y-121501544D01*
X135697188Y-121433624D01*
X135846488Y-121403927D01*
X135871258Y-121399000D01*
X136048742Y-121399000D01*
X136073512Y-121403927D01*
G37*
G36*
X154701000Y-122151000D02*
G01*
X152899000Y-122151000D01*
X152899000Y-120349000D01*
X154701000Y-120349000D01*
X154701000Y-122151000D01*
G37*
G36*
X151373512Y-120353927D02*
G01*
X151522812Y-120383624D01*
X151686784Y-120451544D01*
X151834354Y-120550147D01*
X151959853Y-120675646D01*
X152058456Y-120823216D01*
X152126376Y-120987188D01*
X152161000Y-121161259D01*
X152161000Y-121338741D01*
X152126376Y-121512812D01*
X152058456Y-121676784D01*
X151959853Y-121824354D01*
X151834354Y-121949853D01*
X151686784Y-122048456D01*
X151522812Y-122116376D01*
X151373512Y-122146073D01*
X151348742Y-122151000D01*
X151171258Y-122151000D01*
X151146488Y-122146073D01*
X150997188Y-122116376D01*
X150833216Y-122048456D01*
X150685646Y-121949853D01*
X150560147Y-121824354D01*
X150461544Y-121676784D01*
X150393624Y-121512812D01*
X150359000Y-121338741D01*
X150359000Y-121161259D01*
X150393624Y-120987188D01*
X150461544Y-120823216D01*
X150560147Y-120675646D01*
X150685646Y-120550147D01*
X150833216Y-120451544D01*
X150997188Y-120383624D01*
X151146488Y-120353927D01*
X151171258Y-120349000D01*
X151348742Y-120349000D01*
X151373512Y-120353927D01*
G37*
G36*
X148833512Y-120353927D02*
G01*
X148982812Y-120383624D01*
X149146784Y-120451544D01*
X149294354Y-120550147D01*
X149419853Y-120675646D01*
X149518456Y-120823216D01*
X149586376Y-120987188D01*
X149621000Y-121161259D01*
X149621000Y-121338741D01*
X149586376Y-121512812D01*
X149518456Y-121676784D01*
X149419853Y-121824354D01*
X149294354Y-121949853D01*
X149146784Y-122048456D01*
X148982812Y-122116376D01*
X148833512Y-122146073D01*
X148808742Y-122151000D01*
X148631258Y-122151000D01*
X148606488Y-122146073D01*
X148457188Y-122116376D01*
X148293216Y-122048456D01*
X148145646Y-121949853D01*
X148020147Y-121824354D01*
X147921544Y-121676784D01*
X147853624Y-121512812D01*
X147819000Y-121338741D01*
X147819000Y-121161259D01*
X147853624Y-120987188D01*
X147921544Y-120823216D01*
X148020147Y-120675646D01*
X148145646Y-120550147D01*
X148293216Y-120451544D01*
X148457188Y-120383624D01*
X148606488Y-120353927D01*
X148631258Y-120349000D01*
X148808742Y-120349000D01*
X148833512Y-120353927D01*
G37*
G36*
X146293512Y-120353927D02*
G01*
X146442812Y-120383624D01*
X146606784Y-120451544D01*
X146754354Y-120550147D01*
X146879853Y-120675646D01*
X146978456Y-120823216D01*
X147046376Y-120987188D01*
X147081000Y-121161259D01*
X147081000Y-121338741D01*
X147046376Y-121512812D01*
X146978456Y-121676784D01*
X146879853Y-121824354D01*
X146754354Y-121949853D01*
X146606784Y-122048456D01*
X146442812Y-122116376D01*
X146293512Y-122146073D01*
X146268742Y-122151000D01*
X146091258Y-122151000D01*
X146066488Y-122146073D01*
X145917188Y-122116376D01*
X145753216Y-122048456D01*
X145605646Y-121949853D01*
X145480147Y-121824354D01*
X145381544Y-121676784D01*
X145313624Y-121512812D01*
X145279000Y-121338741D01*
X145279000Y-121161259D01*
X145313624Y-120987188D01*
X145381544Y-120823216D01*
X145480147Y-120675646D01*
X145605646Y-120550147D01*
X145753216Y-120451544D01*
X145917188Y-120383624D01*
X146066488Y-120353927D01*
X146091258Y-120349000D01*
X146268742Y-120349000D01*
X146293512Y-120353927D01*
G37*
G36*
X161113512Y-120303927D02*
G01*
X161262812Y-120333624D01*
X161426784Y-120401544D01*
X161574354Y-120500147D01*
X161699853Y-120625646D01*
X161798456Y-120773216D01*
X161866376Y-120937188D01*
X161901000Y-121111259D01*
X161901000Y-121288741D01*
X161866376Y-121462812D01*
X161798456Y-121626784D01*
X161699853Y-121774354D01*
X161574354Y-121899853D01*
X161426784Y-121998456D01*
X161262812Y-122066376D01*
X161113512Y-122096073D01*
X161088742Y-122101000D01*
X160911258Y-122101000D01*
X160886488Y-122096073D01*
X160737188Y-122066376D01*
X160573216Y-121998456D01*
X160425646Y-121899853D01*
X160300147Y-121774354D01*
X160201544Y-121626784D01*
X160133624Y-121462812D01*
X160099000Y-121288741D01*
X160099000Y-121111259D01*
X160133624Y-120937188D01*
X160201544Y-120773216D01*
X160300147Y-120625646D01*
X160425646Y-120500147D01*
X160573216Y-120401544D01*
X160737188Y-120333624D01*
X160886488Y-120303927D01*
X160911258Y-120299000D01*
X161088742Y-120299000D01*
X161113512Y-120303927D01*
G37*
G36*
X153913512Y-117813927D02*
G01*
X154062812Y-117843624D01*
X154226784Y-117911544D01*
X154374354Y-118010147D01*
X154499853Y-118135646D01*
X154598456Y-118283216D01*
X154666376Y-118447188D01*
X154701000Y-118621259D01*
X154701000Y-118798741D01*
X154666376Y-118972812D01*
X154598456Y-119136784D01*
X154499853Y-119284354D01*
X154374354Y-119409853D01*
X154226784Y-119508456D01*
X154062812Y-119576376D01*
X153913512Y-119606073D01*
X153888742Y-119611000D01*
X153711258Y-119611000D01*
X153686488Y-119606073D01*
X153537188Y-119576376D01*
X153373216Y-119508456D01*
X153225646Y-119409853D01*
X153100147Y-119284354D01*
X153001544Y-119136784D01*
X152933624Y-118972812D01*
X152899000Y-118798741D01*
X152899000Y-118621259D01*
X152933624Y-118447188D01*
X153001544Y-118283216D01*
X153100147Y-118135646D01*
X153225646Y-118010147D01*
X153373216Y-117911544D01*
X153537188Y-117843624D01*
X153686488Y-117813927D01*
X153711258Y-117809000D01*
X153888742Y-117809000D01*
X153913512Y-117813927D01*
G37*
G36*
X148833512Y-117813927D02*
G01*
X148982812Y-117843624D01*
X149146784Y-117911544D01*
X149294354Y-118010147D01*
X149419853Y-118135646D01*
X149518456Y-118283216D01*
X149586376Y-118447188D01*
X149621000Y-118621259D01*
X149621000Y-118798741D01*
X149586376Y-118972812D01*
X149518456Y-119136784D01*
X149419853Y-119284354D01*
X149294354Y-119409853D01*
X149146784Y-119508456D01*
X148982812Y-119576376D01*
X148833512Y-119606073D01*
X148808742Y-119611000D01*
X148631258Y-119611000D01*
X148606488Y-119606073D01*
X148457188Y-119576376D01*
X148293216Y-119508456D01*
X148145646Y-119409853D01*
X148020147Y-119284354D01*
X147921544Y-119136784D01*
X147853624Y-118972812D01*
X147819000Y-118798741D01*
X147819000Y-118621259D01*
X147853624Y-118447188D01*
X147921544Y-118283216D01*
X148020147Y-118135646D01*
X148145646Y-118010147D01*
X148293216Y-117911544D01*
X148457188Y-117843624D01*
X148606488Y-117813927D01*
X148631258Y-117809000D01*
X148808742Y-117809000D01*
X148833512Y-117813927D01*
G37*
G36*
X146293512Y-117813927D02*
G01*
X146442812Y-117843624D01*
X146606784Y-117911544D01*
X146754354Y-118010147D01*
X146879853Y-118135646D01*
X146978456Y-118283216D01*
X147046376Y-118447188D01*
X147081000Y-118621259D01*
X147081000Y-118798741D01*
X147046376Y-118972812D01*
X146978456Y-119136784D01*
X146879853Y-119284354D01*
X146754354Y-119409853D01*
X146606784Y-119508456D01*
X146442812Y-119576376D01*
X146293512Y-119606073D01*
X146268742Y-119611000D01*
X146091258Y-119611000D01*
X146066488Y-119606073D01*
X145917188Y-119576376D01*
X145753216Y-119508456D01*
X145605646Y-119409853D01*
X145480147Y-119284354D01*
X145381544Y-119136784D01*
X145313624Y-118972812D01*
X145279000Y-118798741D01*
X145279000Y-118621259D01*
X145313624Y-118447188D01*
X145381544Y-118283216D01*
X145480147Y-118135646D01*
X145605646Y-118010147D01*
X145753216Y-117911544D01*
X145917188Y-117843624D01*
X146066488Y-117813927D01*
X146091258Y-117809000D01*
X146268742Y-117809000D01*
X146293512Y-117813927D01*
G37*
G36*
X151373512Y-117813927D02*
G01*
X151522812Y-117843624D01*
X151686784Y-117911544D01*
X151834354Y-118010147D01*
X151959853Y-118135646D01*
X152058456Y-118283216D01*
X152126376Y-118447188D01*
X152161000Y-118621259D01*
X152161000Y-118798741D01*
X152126376Y-118972812D01*
X152058456Y-119136784D01*
X151959853Y-119284354D01*
X151834354Y-119409853D01*
X151686784Y-119508456D01*
X151522812Y-119576376D01*
X151373512Y-119606073D01*
X151348742Y-119611000D01*
X151171258Y-119611000D01*
X151146488Y-119606073D01*
X150997188Y-119576376D01*
X150833216Y-119508456D01*
X150685646Y-119409853D01*
X150560147Y-119284354D01*
X150461544Y-119136784D01*
X150393624Y-118972812D01*
X150359000Y-118798741D01*
X150359000Y-118621259D01*
X150393624Y-118447188D01*
X150461544Y-118283216D01*
X150560147Y-118135646D01*
X150685646Y-118010147D01*
X150833216Y-117911544D01*
X150997188Y-117843624D01*
X151146488Y-117813927D01*
X151171258Y-117809000D01*
X151348742Y-117809000D01*
X151373512Y-117813927D01*
G37*
G36*
X161113512Y-117763927D02*
G01*
X161262812Y-117793624D01*
X161426784Y-117861544D01*
X161574354Y-117960147D01*
X161699853Y-118085646D01*
X161798456Y-118233216D01*
X161866376Y-118397188D01*
X161901000Y-118571259D01*
X161901000Y-118748741D01*
X161866376Y-118922812D01*
X161798456Y-119086784D01*
X161699853Y-119234354D01*
X161574354Y-119359853D01*
X161426784Y-119458456D01*
X161262812Y-119526376D01*
X161113512Y-119556073D01*
X161088742Y-119561000D01*
X160911258Y-119561000D01*
X160886488Y-119556073D01*
X160737188Y-119526376D01*
X160573216Y-119458456D01*
X160425646Y-119359853D01*
X160300147Y-119234354D01*
X160201544Y-119086784D01*
X160133624Y-118922812D01*
X160099000Y-118748741D01*
X160099000Y-118571259D01*
X160133624Y-118397188D01*
X160201544Y-118233216D01*
X160300147Y-118085646D01*
X160425646Y-117960147D01*
X160573216Y-117861544D01*
X160737188Y-117793624D01*
X160886488Y-117763927D01*
X160911258Y-117759000D01*
X161088742Y-117759000D01*
X161113512Y-117763927D01*
G37*
G36*
X125546968Y-117053565D02*
G01*
X125585638Y-117065296D01*
X125621277Y-117084346D01*
X125652517Y-117109983D01*
X125678154Y-117141223D01*
X125697204Y-117176862D01*
X125708935Y-117215532D01*
X125713500Y-117261888D01*
X125713500Y-118338112D01*
X125708935Y-118384468D01*
X125697204Y-118423138D01*
X125678154Y-118458777D01*
X125652517Y-118490017D01*
X125621277Y-118515654D01*
X125585638Y-118534704D01*
X125546968Y-118546435D01*
X125500612Y-118551000D01*
X124849388Y-118551000D01*
X124803032Y-118546435D01*
X124764362Y-118534704D01*
X124728723Y-118515654D01*
X124697483Y-118490017D01*
X124671846Y-118458777D01*
X124652796Y-118423138D01*
X124641065Y-118384468D01*
X124636500Y-118338112D01*
X124636500Y-117261888D01*
X124641065Y-117215532D01*
X124652796Y-117176862D01*
X124671846Y-117141223D01*
X124697483Y-117109983D01*
X124728723Y-117084346D01*
X124764362Y-117065296D01*
X124803032Y-117053565D01*
X124849388Y-117049000D01*
X125500612Y-117049000D01*
X125546968Y-117053565D01*
G37*
G36*
X129609468Y-117053565D02*
G01*
X129648138Y-117065296D01*
X129683777Y-117084346D01*
X129715017Y-117109983D01*
X129740654Y-117141223D01*
X129759704Y-117176862D01*
X129771435Y-117215532D01*
X129776000Y-117261888D01*
X129776000Y-118338112D01*
X129771435Y-118384468D01*
X129759704Y-118423138D01*
X129740654Y-118458777D01*
X129715017Y-118490017D01*
X129683777Y-118515654D01*
X129648138Y-118534704D01*
X129609468Y-118546435D01*
X129563112Y-118551000D01*
X128911888Y-118551000D01*
X128865532Y-118546435D01*
X128826862Y-118534704D01*
X128791223Y-118515654D01*
X128759983Y-118490017D01*
X128734346Y-118458777D01*
X128715296Y-118423138D01*
X128703565Y-118384468D01*
X128699000Y-118338112D01*
X128699000Y-117261888D01*
X128703565Y-117215532D01*
X128715296Y-117176862D01*
X128734346Y-117141223D01*
X128759983Y-117109983D01*
X128791223Y-117084346D01*
X128826862Y-117065296D01*
X128865532Y-117053565D01*
X128911888Y-117049000D01*
X129563112Y-117049000D01*
X129609468Y-117053565D01*
G37*
G36*
X127734468Y-117053565D02*
G01*
X127773138Y-117065296D01*
X127808777Y-117084346D01*
X127840017Y-117109983D01*
X127865654Y-117141223D01*
X127884704Y-117176862D01*
X127896435Y-117215532D01*
X127901000Y-117261888D01*
X127901000Y-118338112D01*
X127896435Y-118384468D01*
X127884704Y-118423138D01*
X127865654Y-118458777D01*
X127840017Y-118490017D01*
X127808777Y-118515654D01*
X127773138Y-118534704D01*
X127734468Y-118546435D01*
X127688112Y-118551000D01*
X127036888Y-118551000D01*
X126990532Y-118546435D01*
X126951862Y-118534704D01*
X126916223Y-118515654D01*
X126884983Y-118490017D01*
X126859346Y-118458777D01*
X126840296Y-118423138D01*
X126828565Y-118384468D01*
X126824000Y-118338112D01*
X126824000Y-117261888D01*
X126828565Y-117215532D01*
X126840296Y-117176862D01*
X126859346Y-117141223D01*
X126884983Y-117109983D01*
X126916223Y-117084346D01*
X126951862Y-117065296D01*
X126990532Y-117053565D01*
X127036888Y-117049000D01*
X127688112Y-117049000D01*
X127734468Y-117053565D01*
G37*
G36*
X123671968Y-117053565D02*
G01*
X123710638Y-117065296D01*
X123746277Y-117084346D01*
X123777517Y-117109983D01*
X123803154Y-117141223D01*
X123822204Y-117176862D01*
X123833935Y-117215532D01*
X123838500Y-117261888D01*
X123838500Y-118338112D01*
X123833935Y-118384468D01*
X123822204Y-118423138D01*
X123803154Y-118458777D01*
X123777517Y-118490017D01*
X123746277Y-118515654D01*
X123710638Y-118534704D01*
X123671968Y-118546435D01*
X123625612Y-118551000D01*
X122974388Y-118551000D01*
X122928032Y-118546435D01*
X122889362Y-118534704D01*
X122853723Y-118515654D01*
X122822483Y-118490017D01*
X122796846Y-118458777D01*
X122777796Y-118423138D01*
X122766065Y-118384468D01*
X122761500Y-118338112D01*
X122761500Y-117261888D01*
X122766065Y-117215532D01*
X122777796Y-117176862D01*
X122796846Y-117141223D01*
X122822483Y-117109983D01*
X122853723Y-117084346D01*
X122889362Y-117065296D01*
X122928032Y-117053565D01*
X122974388Y-117049000D01*
X123625612Y-117049000D01*
X123671968Y-117053565D01*
G37*
G36*
X179871968Y-116253565D02*
G01*
X179910638Y-116265296D01*
X179946277Y-116284346D01*
X179977517Y-116309983D01*
X180003154Y-116341223D01*
X180022204Y-116376862D01*
X180033935Y-116415532D01*
X180038500Y-116461888D01*
X180038500Y-117538112D01*
X180033935Y-117584468D01*
X180022204Y-117623138D01*
X180003154Y-117658777D01*
X179977517Y-117690017D01*
X179946277Y-117715654D01*
X179910638Y-117734704D01*
X179871968Y-117746435D01*
X179825612Y-117751000D01*
X179174388Y-117751000D01*
X179128032Y-117746435D01*
X179089362Y-117734704D01*
X179053723Y-117715654D01*
X179022483Y-117690017D01*
X178996846Y-117658777D01*
X178977796Y-117623138D01*
X178966065Y-117584468D01*
X178961500Y-117538112D01*
X178961500Y-116461888D01*
X178966065Y-116415532D01*
X178977796Y-116376862D01*
X178996846Y-116341223D01*
X179022483Y-116309983D01*
X179053723Y-116284346D01*
X179089362Y-116265296D01*
X179128032Y-116253565D01*
X179174388Y-116249000D01*
X179825612Y-116249000D01*
X179871968Y-116253565D01*
G37*
G36*
X177996968Y-116253565D02*
G01*
X178035638Y-116265296D01*
X178071277Y-116284346D01*
X178102517Y-116309983D01*
X178128154Y-116341223D01*
X178147204Y-116376862D01*
X178158935Y-116415532D01*
X178163500Y-116461888D01*
X178163500Y-117538112D01*
X178158935Y-117584468D01*
X178147204Y-117623138D01*
X178128154Y-117658777D01*
X178102517Y-117690017D01*
X178071277Y-117715654D01*
X178035638Y-117734704D01*
X177996968Y-117746435D01*
X177950612Y-117751000D01*
X177299388Y-117751000D01*
X177253032Y-117746435D01*
X177214362Y-117734704D01*
X177178723Y-117715654D01*
X177147483Y-117690017D01*
X177121846Y-117658777D01*
X177102796Y-117623138D01*
X177091065Y-117584468D01*
X177086500Y-117538112D01*
X177086500Y-116461888D01*
X177091065Y-116415532D01*
X177102796Y-116376862D01*
X177121846Y-116341223D01*
X177147483Y-116309983D01*
X177178723Y-116284346D01*
X177214362Y-116265296D01*
X177253032Y-116253565D01*
X177299388Y-116249000D01*
X177950612Y-116249000D01*
X177996968Y-116253565D01*
G37*
G36*
X175871968Y-116253565D02*
G01*
X175910638Y-116265296D01*
X175946277Y-116284346D01*
X175977517Y-116309983D01*
X176003154Y-116341223D01*
X176022204Y-116376862D01*
X176033935Y-116415532D01*
X176038500Y-116461888D01*
X176038500Y-117538112D01*
X176033935Y-117584468D01*
X176022204Y-117623138D01*
X176003154Y-117658777D01*
X175977517Y-117690017D01*
X175946277Y-117715654D01*
X175910638Y-117734704D01*
X175871968Y-117746435D01*
X175825612Y-117751000D01*
X175174388Y-117751000D01*
X175128032Y-117746435D01*
X175089362Y-117734704D01*
X175053723Y-117715654D01*
X175022483Y-117690017D01*
X174996846Y-117658777D01*
X174977796Y-117623138D01*
X174966065Y-117584468D01*
X174961500Y-117538112D01*
X174961500Y-116461888D01*
X174966065Y-116415532D01*
X174977796Y-116376862D01*
X174996846Y-116341223D01*
X175022483Y-116309983D01*
X175053723Y-116284346D01*
X175089362Y-116265296D01*
X175128032Y-116253565D01*
X175174388Y-116249000D01*
X175825612Y-116249000D01*
X175871968Y-116253565D01*
G37*
G36*
X173996968Y-116253565D02*
G01*
X174035638Y-116265296D01*
X174071277Y-116284346D01*
X174102517Y-116309983D01*
X174128154Y-116341223D01*
X174147204Y-116376862D01*
X174158935Y-116415532D01*
X174163500Y-116461888D01*
X174163500Y-117538112D01*
X174158935Y-117584468D01*
X174147204Y-117623138D01*
X174128154Y-117658777D01*
X174102517Y-117690017D01*
X174071277Y-117715654D01*
X174035638Y-117734704D01*
X173996968Y-117746435D01*
X173950612Y-117751000D01*
X173299388Y-117751000D01*
X173253032Y-117746435D01*
X173214362Y-117734704D01*
X173178723Y-117715654D01*
X173147483Y-117690017D01*
X173121846Y-117658777D01*
X173102796Y-117623138D01*
X173091065Y-117584468D01*
X173086500Y-117538112D01*
X173086500Y-116461888D01*
X173091065Y-116415532D01*
X173102796Y-116376862D01*
X173121846Y-116341223D01*
X173147483Y-116309983D01*
X173178723Y-116284346D01*
X173214362Y-116265296D01*
X173253032Y-116253565D01*
X173299388Y-116249000D01*
X173950612Y-116249000D01*
X173996968Y-116253565D01*
G37*
G36*
X161113512Y-115223927D02*
G01*
X161262812Y-115253624D01*
X161426784Y-115321544D01*
X161574354Y-115420147D01*
X161699853Y-115545646D01*
X161798456Y-115693216D01*
X161866376Y-115857188D01*
X161901000Y-116031259D01*
X161901000Y-116208741D01*
X161866376Y-116382812D01*
X161798456Y-116546784D01*
X161699853Y-116694354D01*
X161574354Y-116819853D01*
X161426784Y-116918456D01*
X161262812Y-116986376D01*
X161113512Y-117016073D01*
X161088742Y-117021000D01*
X160911258Y-117021000D01*
X160886488Y-117016073D01*
X160737188Y-116986376D01*
X160573216Y-116918456D01*
X160425646Y-116819853D01*
X160300147Y-116694354D01*
X160201544Y-116546784D01*
X160133624Y-116382812D01*
X160099000Y-116208741D01*
X160099000Y-116031259D01*
X160133624Y-115857188D01*
X160201544Y-115693216D01*
X160300147Y-115545646D01*
X160425646Y-115420147D01*
X160573216Y-115321544D01*
X160737188Y-115253624D01*
X160886488Y-115223927D01*
X160911258Y-115219000D01*
X161088742Y-115219000D01*
X161113512Y-115223927D01*
G37*
G36*
X123671968Y-114553565D02*
G01*
X123710638Y-114565296D01*
X123746277Y-114584346D01*
X123777517Y-114609983D01*
X123803154Y-114641223D01*
X123822204Y-114676862D01*
X123833935Y-114715532D01*
X123838500Y-114761888D01*
X123838500Y-115838112D01*
X123833935Y-115884468D01*
X123822204Y-115923138D01*
X123803154Y-115958777D01*
X123777517Y-115990017D01*
X123746277Y-116015654D01*
X123710638Y-116034704D01*
X123671968Y-116046435D01*
X123625612Y-116051000D01*
X122974388Y-116051000D01*
X122928032Y-116046435D01*
X122889362Y-116034704D01*
X122853723Y-116015654D01*
X122822483Y-115990017D01*
X122796846Y-115958777D01*
X122777796Y-115923138D01*
X122766065Y-115884468D01*
X122761500Y-115838112D01*
X122761500Y-114761888D01*
X122766065Y-114715532D01*
X122777796Y-114676862D01*
X122796846Y-114641223D01*
X122822483Y-114609983D01*
X122853723Y-114584346D01*
X122889362Y-114565296D01*
X122928032Y-114553565D01*
X122974388Y-114549000D01*
X123625612Y-114549000D01*
X123671968Y-114553565D01*
G37*
G36*
X125546968Y-114553565D02*
G01*
X125585638Y-114565296D01*
X125621277Y-114584346D01*
X125652517Y-114609983D01*
X125678154Y-114641223D01*
X125697204Y-114676862D01*
X125708935Y-114715532D01*
X125713500Y-114761888D01*
X125713500Y-115838112D01*
X125708935Y-115884468D01*
X125697204Y-115923138D01*
X125678154Y-115958777D01*
X125652517Y-115990017D01*
X125621277Y-116015654D01*
X125585638Y-116034704D01*
X125546968Y-116046435D01*
X125500612Y-116051000D01*
X124849388Y-116051000D01*
X124803032Y-116046435D01*
X124764362Y-116034704D01*
X124728723Y-116015654D01*
X124697483Y-115990017D01*
X124671846Y-115958777D01*
X124652796Y-115923138D01*
X124641065Y-115884468D01*
X124636500Y-115838112D01*
X124636500Y-114761888D01*
X124641065Y-114715532D01*
X124652796Y-114676862D01*
X124671846Y-114641223D01*
X124697483Y-114609983D01*
X124728723Y-114584346D01*
X124764362Y-114565296D01*
X124803032Y-114553565D01*
X124849388Y-114549000D01*
X125500612Y-114549000D01*
X125546968Y-114553565D01*
G37*
G36*
X129546968Y-114553565D02*
G01*
X129585638Y-114565296D01*
X129621277Y-114584346D01*
X129652517Y-114609983D01*
X129678154Y-114641223D01*
X129697204Y-114676862D01*
X129708935Y-114715532D01*
X129713500Y-114761888D01*
X129713500Y-115838112D01*
X129708935Y-115884468D01*
X129697204Y-115923138D01*
X129678154Y-115958777D01*
X129652517Y-115990017D01*
X129621277Y-116015654D01*
X129585638Y-116034704D01*
X129546968Y-116046435D01*
X129500612Y-116051000D01*
X128849388Y-116051000D01*
X128803032Y-116046435D01*
X128764362Y-116034704D01*
X128728723Y-116015654D01*
X128697483Y-115990017D01*
X128671846Y-115958777D01*
X128652796Y-115923138D01*
X128641065Y-115884468D01*
X128636500Y-115838112D01*
X128636500Y-114761888D01*
X128641065Y-114715532D01*
X128652796Y-114676862D01*
X128671846Y-114641223D01*
X128697483Y-114609983D01*
X128728723Y-114584346D01*
X128764362Y-114565296D01*
X128803032Y-114553565D01*
X128849388Y-114549000D01*
X129500612Y-114549000D01*
X129546968Y-114553565D01*
G37*
G36*
X127671968Y-114553565D02*
G01*
X127710638Y-114565296D01*
X127746277Y-114584346D01*
X127777517Y-114609983D01*
X127803154Y-114641223D01*
X127822204Y-114676862D01*
X127833935Y-114715532D01*
X127838500Y-114761888D01*
X127838500Y-115838112D01*
X127833935Y-115884468D01*
X127822204Y-115923138D01*
X127803154Y-115958777D01*
X127777517Y-115990017D01*
X127746277Y-116015654D01*
X127710638Y-116034704D01*
X127671968Y-116046435D01*
X127625612Y-116051000D01*
X126974388Y-116051000D01*
X126928032Y-116046435D01*
X126889362Y-116034704D01*
X126853723Y-116015654D01*
X126822483Y-115990017D01*
X126796846Y-115958777D01*
X126777796Y-115923138D01*
X126766065Y-115884468D01*
X126761500Y-115838112D01*
X126761500Y-114761888D01*
X126766065Y-114715532D01*
X126777796Y-114676862D01*
X126796846Y-114641223D01*
X126822483Y-114609983D01*
X126853723Y-114584346D01*
X126889362Y-114565296D01*
X126928032Y-114553565D01*
X126974388Y-114549000D01*
X127625612Y-114549000D01*
X127671968Y-114553565D01*
G37*
G36*
X179871968Y-114253565D02*
G01*
X179910638Y-114265296D01*
X179946277Y-114284346D01*
X179977517Y-114309983D01*
X180003154Y-114341223D01*
X180022204Y-114376862D01*
X180033935Y-114415532D01*
X180038500Y-114461888D01*
X180038500Y-115538112D01*
X180033935Y-115584468D01*
X180022204Y-115623138D01*
X180003154Y-115658777D01*
X179977517Y-115690017D01*
X179946277Y-115715654D01*
X179910638Y-115734704D01*
X179871968Y-115746435D01*
X179825612Y-115751000D01*
X179174388Y-115751000D01*
X179128032Y-115746435D01*
X179089362Y-115734704D01*
X179053723Y-115715654D01*
X179022483Y-115690017D01*
X178996846Y-115658777D01*
X178977796Y-115623138D01*
X178966065Y-115584468D01*
X178961500Y-115538112D01*
X178961500Y-114461888D01*
X178966065Y-114415532D01*
X178977796Y-114376862D01*
X178996846Y-114341223D01*
X179022483Y-114309983D01*
X179053723Y-114284346D01*
X179089362Y-114265296D01*
X179128032Y-114253565D01*
X179174388Y-114249000D01*
X179825612Y-114249000D01*
X179871968Y-114253565D01*
G37*
G36*
X177996968Y-114253565D02*
G01*
X178035638Y-114265296D01*
X178071277Y-114284346D01*
X178102517Y-114309983D01*
X178128154Y-114341223D01*
X178147204Y-114376862D01*
X178158935Y-114415532D01*
X178163500Y-114461888D01*
X178163500Y-115538112D01*
X178158935Y-115584468D01*
X178147204Y-115623138D01*
X178128154Y-115658777D01*
X178102517Y-115690017D01*
X178071277Y-115715654D01*
X178035638Y-115734704D01*
X177996968Y-115746435D01*
X177950612Y-115751000D01*
X177299388Y-115751000D01*
X177253032Y-115746435D01*
X177214362Y-115734704D01*
X177178723Y-115715654D01*
X177147483Y-115690017D01*
X177121846Y-115658777D01*
X177102796Y-115623138D01*
X177091065Y-115584468D01*
X177086500Y-115538112D01*
X177086500Y-114461888D01*
X177091065Y-114415532D01*
X177102796Y-114376862D01*
X177121846Y-114341223D01*
X177147483Y-114309983D01*
X177178723Y-114284346D01*
X177214362Y-114265296D01*
X177253032Y-114253565D01*
X177299388Y-114249000D01*
X177950612Y-114249000D01*
X177996968Y-114253565D01*
G37*
G36*
X173996968Y-114253565D02*
G01*
X174035638Y-114265296D01*
X174071277Y-114284346D01*
X174102517Y-114309983D01*
X174128154Y-114341223D01*
X174147204Y-114376862D01*
X174158935Y-114415532D01*
X174163500Y-114461888D01*
X174163500Y-115538112D01*
X174158935Y-115584468D01*
X174147204Y-115623138D01*
X174128154Y-115658777D01*
X174102517Y-115690017D01*
X174071277Y-115715654D01*
X174035638Y-115734704D01*
X173996968Y-115746435D01*
X173950612Y-115751000D01*
X173299388Y-115751000D01*
X173253032Y-115746435D01*
X173214362Y-115734704D01*
X173178723Y-115715654D01*
X173147483Y-115690017D01*
X173121846Y-115658777D01*
X173102796Y-115623138D01*
X173091065Y-115584468D01*
X173086500Y-115538112D01*
X173086500Y-114461888D01*
X173091065Y-114415532D01*
X173102796Y-114376862D01*
X173121846Y-114341223D01*
X173147483Y-114309983D01*
X173178723Y-114284346D01*
X173214362Y-114265296D01*
X173253032Y-114253565D01*
X173299388Y-114249000D01*
X173950612Y-114249000D01*
X173996968Y-114253565D01*
G37*
G36*
X175871968Y-114253565D02*
G01*
X175910638Y-114265296D01*
X175946277Y-114284346D01*
X175977517Y-114309983D01*
X176003154Y-114341223D01*
X176022204Y-114376862D01*
X176033935Y-114415532D01*
X176038500Y-114461888D01*
X176038500Y-115538112D01*
X176033935Y-115584468D01*
X176022204Y-115623138D01*
X176003154Y-115658777D01*
X175977517Y-115690017D01*
X175946277Y-115715654D01*
X175910638Y-115734704D01*
X175871968Y-115746435D01*
X175825612Y-115751000D01*
X175174388Y-115751000D01*
X175128032Y-115746435D01*
X175089362Y-115734704D01*
X175053723Y-115715654D01*
X175022483Y-115690017D01*
X174996846Y-115658777D01*
X174977796Y-115623138D01*
X174966065Y-115584468D01*
X174961500Y-115538112D01*
X174961500Y-114461888D01*
X174966065Y-114415532D01*
X174977796Y-114376862D01*
X174996846Y-114341223D01*
X175022483Y-114309983D01*
X175053723Y-114284346D01*
X175089362Y-114265296D01*
X175128032Y-114253565D01*
X175174388Y-114249000D01*
X175825612Y-114249000D01*
X175871968Y-114253565D01*
G37*
G36*
X161113512Y-112683927D02*
G01*
X161262812Y-112713624D01*
X161426784Y-112781544D01*
X161574354Y-112880147D01*
X161699853Y-113005646D01*
X161798456Y-113153216D01*
X161866376Y-113317188D01*
X161901000Y-113491259D01*
X161901000Y-113668741D01*
X161866376Y-113842812D01*
X161798456Y-114006784D01*
X161699853Y-114154354D01*
X161574354Y-114279853D01*
X161426784Y-114378456D01*
X161262812Y-114446376D01*
X161113512Y-114476073D01*
X161088742Y-114481000D01*
X160911258Y-114481000D01*
X160886488Y-114476073D01*
X160737188Y-114446376D01*
X160573216Y-114378456D01*
X160425646Y-114279853D01*
X160300147Y-114154354D01*
X160201544Y-114006784D01*
X160133624Y-113842812D01*
X160099000Y-113668741D01*
X160099000Y-113491259D01*
X160133624Y-113317188D01*
X160201544Y-113153216D01*
X160300147Y-113005646D01*
X160425646Y-112880147D01*
X160573216Y-112781544D01*
X160737188Y-112713624D01*
X160886488Y-112683927D01*
X160911258Y-112679000D01*
X161088742Y-112679000D01*
X161113512Y-112683927D01*
G37*
G36*
X173996968Y-112253565D02*
G01*
X174035638Y-112265296D01*
X174071277Y-112284346D01*
X174102517Y-112309983D01*
X174128154Y-112341223D01*
X174147204Y-112376862D01*
X174158935Y-112415532D01*
X174163500Y-112461888D01*
X174163500Y-113538112D01*
X174158935Y-113584468D01*
X174147204Y-113623138D01*
X174128154Y-113658777D01*
X174102517Y-113690017D01*
X174071277Y-113715654D01*
X174035638Y-113734704D01*
X173996968Y-113746435D01*
X173950612Y-113751000D01*
X173299388Y-113751000D01*
X173253032Y-113746435D01*
X173214362Y-113734704D01*
X173178723Y-113715654D01*
X173147483Y-113690017D01*
X173121846Y-113658777D01*
X173102796Y-113623138D01*
X173091065Y-113584468D01*
X173086500Y-113538112D01*
X173086500Y-112461888D01*
X173091065Y-112415532D01*
X173102796Y-112376862D01*
X173121846Y-112341223D01*
X173147483Y-112309983D01*
X173178723Y-112284346D01*
X173214362Y-112265296D01*
X173253032Y-112253565D01*
X173299388Y-112249000D01*
X173950612Y-112249000D01*
X173996968Y-112253565D01*
G37*
G36*
X175871968Y-112253565D02*
G01*
X175910638Y-112265296D01*
X175946277Y-112284346D01*
X175977517Y-112309983D01*
X176003154Y-112341223D01*
X176022204Y-112376862D01*
X176033935Y-112415532D01*
X176038500Y-112461888D01*
X176038500Y-113538112D01*
X176033935Y-113584468D01*
X176022204Y-113623138D01*
X176003154Y-113658777D01*
X175977517Y-113690017D01*
X175946277Y-113715654D01*
X175910638Y-113734704D01*
X175871968Y-113746435D01*
X175825612Y-113751000D01*
X175174388Y-113751000D01*
X175128032Y-113746435D01*
X175089362Y-113734704D01*
X175053723Y-113715654D01*
X175022483Y-113690017D01*
X174996846Y-113658777D01*
X174977796Y-113623138D01*
X174966065Y-113584468D01*
X174961500Y-113538112D01*
X174961500Y-112461888D01*
X174966065Y-112415532D01*
X174977796Y-112376862D01*
X174996846Y-112341223D01*
X175022483Y-112309983D01*
X175053723Y-112284346D01*
X175089362Y-112265296D01*
X175128032Y-112253565D01*
X175174388Y-112249000D01*
X175825612Y-112249000D01*
X175871968Y-112253565D01*
G37*
G36*
X177996968Y-112253565D02*
G01*
X178035638Y-112265296D01*
X178071277Y-112284346D01*
X178102517Y-112309983D01*
X178128154Y-112341223D01*
X178147204Y-112376862D01*
X178158935Y-112415532D01*
X178163500Y-112461888D01*
X178163500Y-113538112D01*
X178158935Y-113584468D01*
X178147204Y-113623138D01*
X178128154Y-113658777D01*
X178102517Y-113690017D01*
X178071277Y-113715654D01*
X178035638Y-113734704D01*
X177996968Y-113746435D01*
X177950612Y-113751000D01*
X177299388Y-113751000D01*
X177253032Y-113746435D01*
X177214362Y-113734704D01*
X177178723Y-113715654D01*
X177147483Y-113690017D01*
X177121846Y-113658777D01*
X177102796Y-113623138D01*
X177091065Y-113584468D01*
X177086500Y-113538112D01*
X177086500Y-112461888D01*
X177091065Y-112415532D01*
X177102796Y-112376862D01*
X177121846Y-112341223D01*
X177147483Y-112309983D01*
X177178723Y-112284346D01*
X177214362Y-112265296D01*
X177253032Y-112253565D01*
X177299388Y-112249000D01*
X177950612Y-112249000D01*
X177996968Y-112253565D01*
G37*
G36*
X179871968Y-112253565D02*
G01*
X179910638Y-112265296D01*
X179946277Y-112284346D01*
X179977517Y-112309983D01*
X180003154Y-112341223D01*
X180022204Y-112376862D01*
X180033935Y-112415532D01*
X180038500Y-112461888D01*
X180038500Y-113538112D01*
X180033935Y-113584468D01*
X180022204Y-113623138D01*
X180003154Y-113658777D01*
X179977517Y-113690017D01*
X179946277Y-113715654D01*
X179910638Y-113734704D01*
X179871968Y-113746435D01*
X179825612Y-113751000D01*
X179174388Y-113751000D01*
X179128032Y-113746435D01*
X179089362Y-113734704D01*
X179053723Y-113715654D01*
X179022483Y-113690017D01*
X178996846Y-113658777D01*
X178977796Y-113623138D01*
X178966065Y-113584468D01*
X178961500Y-113538112D01*
X178961500Y-112461888D01*
X178966065Y-112415532D01*
X178977796Y-112376862D01*
X178996846Y-112341223D01*
X179022483Y-112309983D01*
X179053723Y-112284346D01*
X179089362Y-112265296D01*
X179128032Y-112253565D01*
X179174388Y-112249000D01*
X179825612Y-112249000D01*
X179871968Y-112253565D01*
G37*
G36*
X136381000Y-113026000D02*
G01*
X135219000Y-113026000D01*
X135219000Y-110374000D01*
X136381000Y-110374000D01*
X136381000Y-113026000D01*
G37*
G36*
X138581000Y-113026000D02*
G01*
X137419000Y-113026000D01*
X137419000Y-112274000D01*
X138581000Y-112274000D01*
X138581000Y-113026000D01*
G37*
G36*
X140242091Y-111753085D02*
G01*
X140276069Y-111763393D01*
X140307390Y-111780134D01*
X140334839Y-111802661D01*
X140357366Y-111830110D01*
X140374107Y-111861431D01*
X140384415Y-111895409D01*
X140388500Y-111936890D01*
X140388500Y-112538110D01*
X140384415Y-112579591D01*
X140374107Y-112613569D01*
X140357366Y-112644890D01*
X140334839Y-112672339D01*
X140307390Y-112694866D01*
X140276069Y-112711607D01*
X140242091Y-112721915D01*
X140200610Y-112726000D01*
X139524390Y-112726000D01*
X139482909Y-112721915D01*
X139448931Y-112711607D01*
X139417610Y-112694866D01*
X139390161Y-112672339D01*
X139367634Y-112644890D01*
X139350893Y-112613569D01*
X139340585Y-112579591D01*
X139336500Y-112538110D01*
X139336500Y-111936890D01*
X139340585Y-111895409D01*
X139350893Y-111861431D01*
X139367634Y-111830110D01*
X139390161Y-111802661D01*
X139417610Y-111780134D01*
X139448931Y-111763393D01*
X139482909Y-111753085D01*
X139524390Y-111749000D01*
X140200610Y-111749000D01*
X140242091Y-111753085D01*
G37*
G36*
X134279591Y-111215585D02*
G01*
X134313569Y-111225893D01*
X134344890Y-111242634D01*
X134372339Y-111265161D01*
X134394866Y-111292610D01*
X134411607Y-111323931D01*
X134421915Y-111357909D01*
X134426000Y-111399390D01*
X134426000Y-112000610D01*
X134421915Y-112042091D01*
X134411607Y-112076069D01*
X134394866Y-112107390D01*
X134372339Y-112134839D01*
X134344890Y-112157366D01*
X134313569Y-112174107D01*
X134279591Y-112184415D01*
X134238110Y-112188500D01*
X133561890Y-112188500D01*
X133520409Y-112184415D01*
X133486431Y-112174107D01*
X133455110Y-112157366D01*
X133427661Y-112134839D01*
X133405134Y-112107390D01*
X133388393Y-112076069D01*
X133378085Y-112042091D01*
X133374000Y-112000610D01*
X133374000Y-111399390D01*
X133378085Y-111357909D01*
X133388393Y-111323931D01*
X133405134Y-111292610D01*
X133427661Y-111265161D01*
X133455110Y-111242634D01*
X133486431Y-111225893D01*
X133520409Y-111215585D01*
X133561890Y-111211500D01*
X134238110Y-111211500D01*
X134279591Y-111215585D01*
G37*
G36*
X161113512Y-110143927D02*
G01*
X161262812Y-110173624D01*
X161426784Y-110241544D01*
X161574354Y-110340147D01*
X161699853Y-110465646D01*
X161798456Y-110613216D01*
X161866376Y-110777188D01*
X161892147Y-110906750D01*
X161901000Y-110951258D01*
X161901000Y-111128742D01*
X161897506Y-111146307D01*
X161866376Y-111302812D01*
X161798456Y-111466784D01*
X161699853Y-111614354D01*
X161574354Y-111739853D01*
X161426784Y-111838456D01*
X161262812Y-111906376D01*
X161113512Y-111936073D01*
X161088742Y-111941000D01*
X160911258Y-111941000D01*
X160886488Y-111936073D01*
X160737188Y-111906376D01*
X160573216Y-111838456D01*
X160425646Y-111739853D01*
X160300147Y-111614354D01*
X160201544Y-111466784D01*
X160133624Y-111302812D01*
X160102494Y-111146307D01*
X160099000Y-111128742D01*
X160099000Y-110951258D01*
X160107853Y-110906750D01*
X160133624Y-110777188D01*
X160201544Y-110613216D01*
X160300147Y-110465646D01*
X160425646Y-110340147D01*
X160573216Y-110241544D01*
X160737188Y-110173624D01*
X160886488Y-110143927D01*
X160911258Y-110139000D01*
X161088742Y-110139000D01*
X161113512Y-110143927D01*
G37*
G36*
X140242091Y-110178085D02*
G01*
X140276069Y-110188393D01*
X140307390Y-110205134D01*
X140334839Y-110227661D01*
X140357366Y-110255110D01*
X140374107Y-110286431D01*
X140384415Y-110320409D01*
X140388500Y-110361890D01*
X140388500Y-110963110D01*
X140384415Y-111004591D01*
X140374107Y-111038569D01*
X140357366Y-111069890D01*
X140334839Y-111097339D01*
X140307390Y-111119866D01*
X140276069Y-111136607D01*
X140242091Y-111146915D01*
X140200610Y-111151000D01*
X139524390Y-111151000D01*
X139482909Y-111146915D01*
X139448931Y-111136607D01*
X139417610Y-111119866D01*
X139390161Y-111097339D01*
X139367634Y-111069890D01*
X139350893Y-111038569D01*
X139340585Y-111004591D01*
X139336500Y-110963110D01*
X139336500Y-110361890D01*
X139340585Y-110320409D01*
X139350893Y-110286431D01*
X139367634Y-110255110D01*
X139390161Y-110227661D01*
X139417610Y-110205134D01*
X139448931Y-110188393D01*
X139482909Y-110178085D01*
X139524390Y-110174000D01*
X140200610Y-110174000D01*
X140242091Y-110178085D01*
G37*
G36*
X138581000Y-111126000D02*
G01*
X137419000Y-111126000D01*
X137419000Y-110374000D01*
X138581000Y-110374000D01*
X138581000Y-111126000D01*
G37*
G36*
X134279591Y-109640585D02*
G01*
X134313569Y-109650893D01*
X134344890Y-109667634D01*
X134372339Y-109690161D01*
X134394866Y-109717610D01*
X134411607Y-109748931D01*
X134421915Y-109782909D01*
X134426000Y-109824390D01*
X134426000Y-110425610D01*
X134421915Y-110467091D01*
X134411607Y-110501069D01*
X134394866Y-110532390D01*
X134372339Y-110559839D01*
X134344890Y-110582366D01*
X134313569Y-110599107D01*
X134279591Y-110609415D01*
X134238110Y-110613500D01*
X133561890Y-110613500D01*
X133520409Y-110609415D01*
X133486431Y-110599107D01*
X133455110Y-110582366D01*
X133427661Y-110559839D01*
X133405134Y-110532390D01*
X133388393Y-110501069D01*
X133378085Y-110467091D01*
X133374000Y-110425610D01*
X133374000Y-109824390D01*
X133378085Y-109782909D01*
X133388393Y-109748931D01*
X133405134Y-109717610D01*
X133427661Y-109690161D01*
X133455110Y-109667634D01*
X133486431Y-109650893D01*
X133520409Y-109640585D01*
X133561890Y-109636500D01*
X134238110Y-109636500D01*
X134279591Y-109640585D01*
G37*
G36*
X154379591Y-109415585D02*
G01*
X154413569Y-109425893D01*
X154444890Y-109442634D01*
X154472339Y-109465161D01*
X154494866Y-109492610D01*
X154511607Y-109523931D01*
X154521915Y-109557909D01*
X154526000Y-109599390D01*
X154526000Y-110200610D01*
X154521915Y-110242091D01*
X154511607Y-110276069D01*
X154494866Y-110307390D01*
X154472339Y-110334839D01*
X154444890Y-110357366D01*
X154413569Y-110374107D01*
X154379591Y-110384415D01*
X154338110Y-110388500D01*
X153661890Y-110388500D01*
X153620409Y-110384415D01*
X153586431Y-110374107D01*
X153555110Y-110357366D01*
X153527661Y-110334839D01*
X153505134Y-110307390D01*
X153488393Y-110276069D01*
X153478085Y-110242091D01*
X153474000Y-110200610D01*
X153474000Y-109599390D01*
X153478085Y-109557909D01*
X153488393Y-109523931D01*
X153505134Y-109492610D01*
X153527661Y-109465161D01*
X153555110Y-109442634D01*
X153586431Y-109425893D01*
X153620409Y-109415585D01*
X153661890Y-109411500D01*
X154338110Y-109411500D01*
X154379591Y-109415585D01*
G37*
G36*
X161901000Y-109401000D02*
G01*
X160099000Y-109401000D01*
X160099000Y-107599000D01*
X161901000Y-107599000D01*
X161901000Y-109401000D01*
G37*
G36*
X154379591Y-107840585D02*
G01*
X154413569Y-107850893D01*
X154444890Y-107867634D01*
X154472339Y-107890161D01*
X154494866Y-107917610D01*
X154511607Y-107948931D01*
X154521915Y-107982909D01*
X154526000Y-108024390D01*
X154526000Y-108625610D01*
X154521915Y-108667091D01*
X154511607Y-108701069D01*
X154494866Y-108732390D01*
X154472339Y-108759839D01*
X154444890Y-108782366D01*
X154413569Y-108799107D01*
X154379591Y-108809415D01*
X154338110Y-108813500D01*
X153661890Y-108813500D01*
X153620409Y-108809415D01*
X153586431Y-108799107D01*
X153555110Y-108782366D01*
X153527661Y-108759839D01*
X153505134Y-108732390D01*
X153488393Y-108701069D01*
X153478085Y-108667091D01*
X153474000Y-108625610D01*
X153474000Y-108024390D01*
X153478085Y-107982909D01*
X153488393Y-107948931D01*
X153505134Y-107917610D01*
X153527661Y-107890161D01*
X153555110Y-107867634D01*
X153586431Y-107850893D01*
X153620409Y-107840585D01*
X153661890Y-107836500D01*
X154338110Y-107836500D01*
X154379591Y-107840585D01*
G37*
G36*
X146467091Y-107678085D02*
G01*
X146501069Y-107688393D01*
X146532390Y-107705134D01*
X146559839Y-107727661D01*
X146582366Y-107755110D01*
X146599107Y-107786431D01*
X146609415Y-107820409D01*
X146613500Y-107861890D01*
X146613500Y-108538110D01*
X146609415Y-108579591D01*
X146599107Y-108613569D01*
X146582366Y-108644890D01*
X146559839Y-108672339D01*
X146532390Y-108694866D01*
X146501069Y-108711607D01*
X146467091Y-108721915D01*
X146425610Y-108726000D01*
X145824390Y-108726000D01*
X145782909Y-108721915D01*
X145748931Y-108711607D01*
X145717610Y-108694866D01*
X145690161Y-108672339D01*
X145667634Y-108644890D01*
X145650893Y-108613569D01*
X145640585Y-108579591D01*
X145636500Y-108538110D01*
X145636500Y-107861890D01*
X145640585Y-107820409D01*
X145650893Y-107786431D01*
X145667634Y-107755110D01*
X145690161Y-107727661D01*
X145717610Y-107705134D01*
X145748931Y-107688393D01*
X145782909Y-107678085D01*
X145824390Y-107674000D01*
X146425610Y-107674000D01*
X146467091Y-107678085D01*
G37*
G36*
X148042091Y-107678085D02*
G01*
X148076069Y-107688393D01*
X148107390Y-107705134D01*
X148134839Y-107727661D01*
X148157366Y-107755110D01*
X148174107Y-107786431D01*
X148184415Y-107820409D01*
X148188500Y-107861890D01*
X148188500Y-108538110D01*
X148184415Y-108579591D01*
X148174107Y-108613569D01*
X148157366Y-108644890D01*
X148134839Y-108672339D01*
X148107390Y-108694866D01*
X148076069Y-108711607D01*
X148042091Y-108721915D01*
X148000610Y-108726000D01*
X147399390Y-108726000D01*
X147357909Y-108721915D01*
X147323931Y-108711607D01*
X147292610Y-108694866D01*
X147265161Y-108672339D01*
X147242634Y-108644890D01*
X147225893Y-108613569D01*
X147215585Y-108579591D01*
X147211500Y-108538110D01*
X147211500Y-107861890D01*
X147215585Y-107820409D01*
X147225893Y-107786431D01*
X147242634Y-107755110D01*
X147265161Y-107727661D01*
X147292610Y-107705134D01*
X147323931Y-107688393D01*
X147357909Y-107678085D01*
X147399390Y-107674000D01*
X148000610Y-107674000D01*
X148042091Y-107678085D01*
G37*
G36*
X138645000Y-108670000D02*
G01*
X137455000Y-108670000D01*
X137455000Y-107930000D01*
X138645000Y-107930000D01*
X138645000Y-108670000D01*
G37*
G36*
X135945000Y-108670000D02*
G01*
X134755000Y-108670000D01*
X134755000Y-106030000D01*
X135945000Y-106030000D01*
X135945000Y-108670000D01*
G37*
G36*
X133879591Y-107515585D02*
G01*
X133913569Y-107525893D01*
X133944890Y-107542634D01*
X133972339Y-107565161D01*
X133994866Y-107592610D01*
X134011607Y-107623931D01*
X134021915Y-107657909D01*
X134026000Y-107699390D01*
X134026000Y-108300610D01*
X134021915Y-108342091D01*
X134011607Y-108376069D01*
X133994866Y-108407390D01*
X133972339Y-108434839D01*
X133944890Y-108457366D01*
X133913569Y-108474107D01*
X133879591Y-108484415D01*
X133838110Y-108488500D01*
X133161890Y-108488500D01*
X133120409Y-108484415D01*
X133086431Y-108474107D01*
X133055110Y-108457366D01*
X133027661Y-108434839D01*
X133005134Y-108407390D01*
X132988393Y-108376069D01*
X132978085Y-108342091D01*
X132974000Y-108300610D01*
X132974000Y-107699390D01*
X132978085Y-107657909D01*
X132988393Y-107623931D01*
X133005134Y-107592610D01*
X133027661Y-107565161D01*
X133055110Y-107542634D01*
X133086431Y-107525893D01*
X133120409Y-107515585D01*
X133161890Y-107511500D01*
X133838110Y-107511500D01*
X133879591Y-107515585D01*
G37*
G36*
X140379591Y-106765585D02*
G01*
X140413569Y-106775893D01*
X140444890Y-106792634D01*
X140472339Y-106815161D01*
X140494866Y-106842610D01*
X140511607Y-106873931D01*
X140521915Y-106907909D01*
X140526000Y-106949390D01*
X140526000Y-107550610D01*
X140521915Y-107592091D01*
X140511607Y-107626069D01*
X140494866Y-107657390D01*
X140472339Y-107684839D01*
X140444890Y-107707366D01*
X140413569Y-107724107D01*
X140379591Y-107734415D01*
X140338110Y-107738500D01*
X139661890Y-107738500D01*
X139620409Y-107734415D01*
X139586431Y-107724107D01*
X139555110Y-107707366D01*
X139527661Y-107684839D01*
X139505134Y-107657390D01*
X139488393Y-107626069D01*
X139478085Y-107592091D01*
X139474000Y-107550610D01*
X139474000Y-106949390D01*
X139478085Y-106907909D01*
X139488393Y-106873931D01*
X139505134Y-106842610D01*
X139527661Y-106815161D01*
X139555110Y-106792634D01*
X139586431Y-106775893D01*
X139620409Y-106765585D01*
X139661890Y-106761500D01*
X140338110Y-106761500D01*
X140379591Y-106765585D01*
G37*
G36*
X182351000Y-106172218D02*
G01*
X182353402Y-106196604D01*
X182360515Y-106220053D01*
X182372066Y-106241664D01*
X182387611Y-106260606D01*
X182406553Y-106276151D01*
X182428164Y-106287702D01*
X182451613Y-106294815D01*
X182475999Y-106297217D01*
X182500385Y-106294815D01*
X182523834Y-106287702D01*
X182545445Y-106276151D01*
X182564387Y-106260606D01*
X182579932Y-106241664D01*
X182642009Y-106148760D01*
X182642010Y-106148758D01*
X182718758Y-106072010D01*
X182800174Y-106017610D01*
X182809005Y-106011709D01*
X182909279Y-105970174D01*
X183015730Y-105949000D01*
X183124270Y-105949000D01*
X183230721Y-105970174D01*
X183330995Y-106011709D01*
X183339826Y-106017610D01*
X183421242Y-106072010D01*
X183497990Y-106148758D01*
X183507840Y-106163500D01*
X183558291Y-106239005D01*
X183589516Y-106314389D01*
X183601067Y-106336000D01*
X183616612Y-106354941D01*
X183635554Y-106370487D01*
X183657165Y-106382038D01*
X183680614Y-106389151D01*
X183705000Y-106391553D01*
X183729386Y-106389151D01*
X183752835Y-106382038D01*
X183774446Y-106370487D01*
X183793387Y-106354942D01*
X183808933Y-106336000D01*
X183820484Y-106314389D01*
X183851709Y-106239005D01*
X183902160Y-106163500D01*
X183912010Y-106148758D01*
X183988758Y-106072010D01*
X184070174Y-106017610D01*
X184079005Y-106011709D01*
X184179279Y-105970174D01*
X184285730Y-105949000D01*
X184394270Y-105949000D01*
X184500721Y-105970174D01*
X184600995Y-106011709D01*
X184609826Y-106017610D01*
X184691242Y-106072010D01*
X184767990Y-106148758D01*
X184777840Y-106163500D01*
X184828291Y-106239005D01*
X184869826Y-106339279D01*
X184891000Y-106445730D01*
X184891000Y-106554270D01*
X184869826Y-106660721D01*
X184828291Y-106760995D01*
X184822274Y-106770000D01*
X184767990Y-106851242D01*
X184691242Y-106927990D01*
X184659214Y-106949390D01*
X184600995Y-106988291D01*
X184500721Y-107029826D01*
X184394270Y-107051000D01*
X184285730Y-107051000D01*
X184179279Y-107029826D01*
X184079005Y-106988291D01*
X184020786Y-106949390D01*
X183988758Y-106927990D01*
X183912010Y-106851242D01*
X183857726Y-106770000D01*
X183851709Y-106760995D01*
X183820484Y-106685611D01*
X183808933Y-106664000D01*
X183793388Y-106645059D01*
X183774446Y-106629513D01*
X183752835Y-106617962D01*
X183729386Y-106610849D01*
X183705000Y-106608447D01*
X183680614Y-106610849D01*
X183657165Y-106617962D01*
X183635554Y-106629513D01*
X183616613Y-106645058D01*
X183601067Y-106664000D01*
X183589516Y-106685611D01*
X183558291Y-106760995D01*
X183552274Y-106770000D01*
X183497990Y-106851242D01*
X183421242Y-106927990D01*
X183389214Y-106949390D01*
X183330995Y-106988291D01*
X183230721Y-107029826D01*
X183124270Y-107051000D01*
X183015730Y-107051000D01*
X182909279Y-107029826D01*
X182809005Y-106988291D01*
X182750786Y-106949390D01*
X182718758Y-106927990D01*
X182642010Y-106851242D01*
X182617902Y-106815161D01*
X182579932Y-106758336D01*
X182564386Y-106739394D01*
X182545444Y-106723849D01*
X182523833Y-106712298D01*
X182500385Y-106705185D01*
X182475998Y-106702783D01*
X182451612Y-106705185D01*
X182428163Y-106712298D01*
X182406553Y-106723849D01*
X182387611Y-106739395D01*
X182372066Y-106758337D01*
X182360515Y-106779948D01*
X182353402Y-106803396D01*
X182351000Y-106827782D01*
X182351000Y-107051000D01*
X181249000Y-107051000D01*
X181249000Y-105949000D01*
X182351000Y-105949000D01*
X182351000Y-106172218D01*
G37*
G36*
X133879591Y-105940585D02*
G01*
X133913569Y-105950893D01*
X133944890Y-105967634D01*
X133972339Y-105990161D01*
X133994866Y-106017610D01*
X134011607Y-106048931D01*
X134021915Y-106082909D01*
X134026000Y-106124390D01*
X134026000Y-106725610D01*
X134021915Y-106767091D01*
X134011607Y-106801069D01*
X133994866Y-106832390D01*
X133972339Y-106859839D01*
X133944890Y-106882366D01*
X133913569Y-106899107D01*
X133879591Y-106909415D01*
X133838110Y-106913500D01*
X133161890Y-106913500D01*
X133120409Y-106909415D01*
X133086431Y-106899107D01*
X133055110Y-106882366D01*
X133027661Y-106859839D01*
X133005134Y-106832390D01*
X132988393Y-106801069D01*
X132978085Y-106767091D01*
X132974000Y-106725610D01*
X132974000Y-106124390D01*
X132978085Y-106082909D01*
X132988393Y-106048931D01*
X133005134Y-106017610D01*
X133027661Y-105990161D01*
X133055110Y-105967634D01*
X133086431Y-105950893D01*
X133120409Y-105940585D01*
X133161890Y-105936500D01*
X133838110Y-105936500D01*
X133879591Y-105940585D01*
G37*
G36*
X138645000Y-106770000D02*
G01*
X137455000Y-106770000D01*
X137455000Y-106030000D01*
X138645000Y-106030000D01*
X138645000Y-106770000D01*
G37*
G36*
X146420295Y-104850323D02*
G01*
X146427309Y-104852451D01*
X146441077Y-104859810D01*
X146463716Y-104869187D01*
X146487749Y-104873967D01*
X146512253Y-104873967D01*
X146536286Y-104869186D01*
X146558923Y-104859810D01*
X146572691Y-104852451D01*
X146579705Y-104850323D01*
X146593140Y-104849000D01*
X146906860Y-104849000D01*
X146920295Y-104850323D01*
X146927309Y-104852451D01*
X146941077Y-104859810D01*
X146963716Y-104869187D01*
X146987749Y-104873967D01*
X147012253Y-104873967D01*
X147036286Y-104869186D01*
X147058923Y-104859810D01*
X147072691Y-104852451D01*
X147079705Y-104850323D01*
X147093140Y-104849000D01*
X147406860Y-104849000D01*
X147420295Y-104850323D01*
X147427309Y-104852451D01*
X147441077Y-104859810D01*
X147463716Y-104869187D01*
X147487749Y-104873967D01*
X147512253Y-104873967D01*
X147536286Y-104869186D01*
X147558923Y-104859810D01*
X147572691Y-104852451D01*
X147579705Y-104850323D01*
X147593140Y-104849000D01*
X147906860Y-104849000D01*
X147920295Y-104850323D01*
X147927309Y-104852451D01*
X147941077Y-104859810D01*
X147963716Y-104869187D01*
X147987749Y-104873967D01*
X148012253Y-104873967D01*
X148036286Y-104869186D01*
X148058923Y-104859810D01*
X148072691Y-104852451D01*
X148079705Y-104850323D01*
X148093140Y-104849000D01*
X148406860Y-104849000D01*
X148420295Y-104850323D01*
X148427309Y-104852451D01*
X148441077Y-104859810D01*
X148463716Y-104869187D01*
X148487749Y-104873967D01*
X148512253Y-104873967D01*
X148536286Y-104869186D01*
X148558923Y-104859810D01*
X148572691Y-104852451D01*
X148579705Y-104850323D01*
X148593140Y-104849000D01*
X148906860Y-104849000D01*
X148920295Y-104850323D01*
X148927309Y-104852451D01*
X148941077Y-104859810D01*
X148963716Y-104869187D01*
X148987749Y-104873967D01*
X149012253Y-104873967D01*
X149036286Y-104869186D01*
X149058923Y-104859810D01*
X149072691Y-104852451D01*
X149079705Y-104850323D01*
X149093140Y-104849000D01*
X149406860Y-104849000D01*
X149420295Y-104850323D01*
X149427309Y-104852451D01*
X149441077Y-104859810D01*
X149463716Y-104869187D01*
X149487749Y-104873967D01*
X149512253Y-104873967D01*
X149536286Y-104869186D01*
X149558923Y-104859810D01*
X149572691Y-104852451D01*
X149579705Y-104850323D01*
X149593140Y-104849000D01*
X149906860Y-104849000D01*
X149920295Y-104850323D01*
X149927309Y-104852451D01*
X149941077Y-104859810D01*
X149963716Y-104869187D01*
X149987749Y-104873967D01*
X150012253Y-104873967D01*
X150036286Y-104869186D01*
X150058923Y-104859810D01*
X150072691Y-104852451D01*
X150079705Y-104850323D01*
X150093140Y-104849000D01*
X150406860Y-104849000D01*
X150420295Y-104850323D01*
X150427309Y-104852451D01*
X150441077Y-104859810D01*
X150463716Y-104869187D01*
X150487749Y-104873967D01*
X150512253Y-104873967D01*
X150536286Y-104869186D01*
X150558923Y-104859810D01*
X150572691Y-104852451D01*
X150579705Y-104850323D01*
X150593140Y-104849000D01*
X150906860Y-104849000D01*
X150920295Y-104850323D01*
X150927309Y-104852451D01*
X150941077Y-104859810D01*
X150963716Y-104869187D01*
X150987749Y-104873967D01*
X151012253Y-104873967D01*
X151036286Y-104869186D01*
X151058923Y-104859810D01*
X151072691Y-104852451D01*
X151079705Y-104850323D01*
X151093140Y-104849000D01*
X151406860Y-104849000D01*
X151420295Y-104850323D01*
X151427309Y-104852451D01*
X151441077Y-104859810D01*
X151463716Y-104869187D01*
X151487749Y-104873967D01*
X151512253Y-104873967D01*
X151536286Y-104869186D01*
X151558923Y-104859810D01*
X151572691Y-104852451D01*
X151579705Y-104850323D01*
X151593140Y-104849000D01*
X151906860Y-104849000D01*
X151920295Y-104850323D01*
X151927309Y-104852451D01*
X151941077Y-104859810D01*
X151963716Y-104869187D01*
X151987749Y-104873967D01*
X152012253Y-104873967D01*
X152036286Y-104869186D01*
X152058923Y-104859810D01*
X152072691Y-104852451D01*
X152079705Y-104850323D01*
X152093140Y-104849000D01*
X152406860Y-104849000D01*
X152420295Y-104850323D01*
X152427309Y-104852451D01*
X152441077Y-104859810D01*
X152463716Y-104869187D01*
X152487749Y-104873967D01*
X152512253Y-104873967D01*
X152536286Y-104869186D01*
X152558923Y-104859810D01*
X152572691Y-104852451D01*
X152579705Y-104850323D01*
X152593140Y-104849000D01*
X152906860Y-104849000D01*
X152920295Y-104850323D01*
X152927309Y-104852451D01*
X152941077Y-104859810D01*
X152963716Y-104869187D01*
X152987749Y-104873967D01*
X153012253Y-104873967D01*
X153036286Y-104869186D01*
X153058923Y-104859810D01*
X153072691Y-104852451D01*
X153079705Y-104850323D01*
X153093140Y-104849000D01*
X153406860Y-104849000D01*
X153420295Y-104850323D01*
X153427309Y-104852451D01*
X153441077Y-104859810D01*
X153463716Y-104869187D01*
X153487749Y-104873967D01*
X153512253Y-104873967D01*
X153536286Y-104869186D01*
X153558923Y-104859810D01*
X153572691Y-104852451D01*
X153579705Y-104850323D01*
X153593140Y-104849000D01*
X153906860Y-104849000D01*
X153920295Y-104850323D01*
X153927310Y-104852451D01*
X153933776Y-104855908D01*
X153939442Y-104860558D01*
X153944092Y-104866224D01*
X153947549Y-104872690D01*
X153949677Y-104879705D01*
X153951000Y-104893140D01*
X153951000Y-106456860D01*
X153949677Y-106470295D01*
X153947549Y-106477310D01*
X153944092Y-106483776D01*
X153939442Y-106489442D01*
X153933776Y-106494092D01*
X153927310Y-106497549D01*
X153920295Y-106499677D01*
X153906860Y-106501000D01*
X153593140Y-106501000D01*
X153579705Y-106499677D01*
X153572691Y-106497549D01*
X153558923Y-106490190D01*
X153536284Y-106480813D01*
X153512251Y-106476033D01*
X153487747Y-106476033D01*
X153463714Y-106480814D01*
X153441077Y-106490190D01*
X153427309Y-106497549D01*
X153420295Y-106499677D01*
X153406860Y-106501000D01*
X153093140Y-106501000D01*
X153079705Y-106499677D01*
X153072691Y-106497549D01*
X153058923Y-106490190D01*
X153036284Y-106480813D01*
X153012251Y-106476033D01*
X152987747Y-106476033D01*
X152963714Y-106480814D01*
X152941077Y-106490190D01*
X152927309Y-106497549D01*
X152920295Y-106499677D01*
X152906860Y-106501000D01*
X152593140Y-106501000D01*
X152579705Y-106499677D01*
X152572691Y-106497549D01*
X152558923Y-106490190D01*
X152536284Y-106480813D01*
X152512251Y-106476033D01*
X152487747Y-106476033D01*
X152463714Y-106480814D01*
X152441077Y-106490190D01*
X152427309Y-106497549D01*
X152420295Y-106499677D01*
X152406860Y-106501000D01*
X152093140Y-106501000D01*
X152079705Y-106499677D01*
X152072691Y-106497549D01*
X152058923Y-106490190D01*
X152036284Y-106480813D01*
X152012251Y-106476033D01*
X151987747Y-106476033D01*
X151963714Y-106480814D01*
X151941077Y-106490190D01*
X151927309Y-106497549D01*
X151920295Y-106499677D01*
X151906860Y-106501000D01*
X151593140Y-106501000D01*
X151579705Y-106499677D01*
X151572691Y-106497549D01*
X151558923Y-106490190D01*
X151536284Y-106480813D01*
X151512251Y-106476033D01*
X151487747Y-106476033D01*
X151463714Y-106480814D01*
X151441077Y-106490190D01*
X151427309Y-106497549D01*
X151420295Y-106499677D01*
X151406860Y-106501000D01*
X151093140Y-106501000D01*
X151079705Y-106499677D01*
X151072691Y-106497549D01*
X151058923Y-106490190D01*
X151036284Y-106480813D01*
X151012251Y-106476033D01*
X150987747Y-106476033D01*
X150963714Y-106480814D01*
X150941077Y-106490190D01*
X150927309Y-106497549D01*
X150920295Y-106499677D01*
X150906860Y-106501000D01*
X150593140Y-106501000D01*
X150579705Y-106499677D01*
X150572691Y-106497549D01*
X150558923Y-106490190D01*
X150536284Y-106480813D01*
X150512251Y-106476033D01*
X150487747Y-106476033D01*
X150463714Y-106480814D01*
X150441077Y-106490190D01*
X150427309Y-106497549D01*
X150420295Y-106499677D01*
X150406860Y-106501000D01*
X150093140Y-106501000D01*
X150079705Y-106499677D01*
X150072691Y-106497549D01*
X150058923Y-106490190D01*
X150036284Y-106480813D01*
X150012251Y-106476033D01*
X149987747Y-106476033D01*
X149963714Y-106480814D01*
X149941077Y-106490190D01*
X149927309Y-106497549D01*
X149920295Y-106499677D01*
X149906860Y-106501000D01*
X149593140Y-106501000D01*
X149579705Y-106499677D01*
X149572691Y-106497549D01*
X149558923Y-106490190D01*
X149536284Y-106480813D01*
X149512251Y-106476033D01*
X149487747Y-106476033D01*
X149463714Y-106480814D01*
X149441077Y-106490190D01*
X149427309Y-106497549D01*
X149420295Y-106499677D01*
X149406860Y-106501000D01*
X149093140Y-106501000D01*
X149079705Y-106499677D01*
X149072691Y-106497549D01*
X149058923Y-106490190D01*
X149036284Y-106480813D01*
X149012251Y-106476033D01*
X148987747Y-106476033D01*
X148963714Y-106480814D01*
X148941077Y-106490190D01*
X148927309Y-106497549D01*
X148920295Y-106499677D01*
X148906860Y-106501000D01*
X148593140Y-106501000D01*
X148579705Y-106499677D01*
X148572691Y-106497549D01*
X148558923Y-106490190D01*
X148536284Y-106480813D01*
X148512251Y-106476033D01*
X148487747Y-106476033D01*
X148463714Y-106480814D01*
X148441077Y-106490190D01*
X148427309Y-106497549D01*
X148420295Y-106499677D01*
X148406860Y-106501000D01*
X148093140Y-106501000D01*
X148079705Y-106499677D01*
X148072691Y-106497549D01*
X148058923Y-106490190D01*
X148036284Y-106480813D01*
X148012251Y-106476033D01*
X147987747Y-106476033D01*
X147963714Y-106480814D01*
X147941077Y-106490190D01*
X147927309Y-106497549D01*
X147920295Y-106499677D01*
X147906860Y-106501000D01*
X147593140Y-106501000D01*
X147579705Y-106499677D01*
X147572691Y-106497549D01*
X147558923Y-106490190D01*
X147536284Y-106480813D01*
X147512251Y-106476033D01*
X147487747Y-106476033D01*
X147463714Y-106480814D01*
X147441077Y-106490190D01*
X147427309Y-106497549D01*
X147420295Y-106499677D01*
X147406860Y-106501000D01*
X147093140Y-106501000D01*
X147079705Y-106499677D01*
X147072691Y-106497549D01*
X147058923Y-106490190D01*
X147036284Y-106480813D01*
X147012251Y-106476033D01*
X146987747Y-106476033D01*
X146963714Y-106480814D01*
X146941077Y-106490190D01*
X146927309Y-106497549D01*
X146920295Y-106499677D01*
X146906860Y-106501000D01*
X146593140Y-106501000D01*
X146579705Y-106499677D01*
X146572691Y-106497549D01*
X146558923Y-106490190D01*
X146536284Y-106480813D01*
X146512251Y-106476033D01*
X146487747Y-106476033D01*
X146463714Y-106480814D01*
X146441077Y-106490190D01*
X146427309Y-106497549D01*
X146420295Y-106499677D01*
X146406860Y-106501000D01*
X146093140Y-106501000D01*
X146079705Y-106499677D01*
X146072690Y-106497549D01*
X146066224Y-106494092D01*
X146060558Y-106489442D01*
X146055908Y-106483776D01*
X146052451Y-106477310D01*
X146050323Y-106470295D01*
X146049000Y-106456860D01*
X146049000Y-104893140D01*
X146050323Y-104879705D01*
X146052451Y-104872690D01*
X146055908Y-104866224D01*
X146060558Y-104860558D01*
X146066224Y-104855908D01*
X146072690Y-104852451D01*
X146079705Y-104850323D01*
X146093140Y-104849000D01*
X146406860Y-104849000D01*
X146420295Y-104850323D01*
G37*
G36*
X140379591Y-105190585D02*
G01*
X140413569Y-105200893D01*
X140444890Y-105217634D01*
X140472339Y-105240161D01*
X140494866Y-105267610D01*
X140511607Y-105298931D01*
X140521915Y-105332909D01*
X140526000Y-105374390D01*
X140526000Y-105975610D01*
X140521915Y-106017091D01*
X140511607Y-106051069D01*
X140494866Y-106082390D01*
X140472339Y-106109839D01*
X140444890Y-106132366D01*
X140413569Y-106149107D01*
X140379591Y-106159415D01*
X140338110Y-106163500D01*
X139661890Y-106163500D01*
X139620409Y-106159415D01*
X139586431Y-106149107D01*
X139555110Y-106132366D01*
X139527661Y-106109839D01*
X139505134Y-106082390D01*
X139488393Y-106051069D01*
X139478085Y-106017091D01*
X139474000Y-105975610D01*
X139474000Y-105374390D01*
X139478085Y-105332909D01*
X139488393Y-105298931D01*
X139505134Y-105267610D01*
X139527661Y-105240161D01*
X139555110Y-105217634D01*
X139586431Y-105200893D01*
X139620409Y-105190585D01*
X139661890Y-105186500D01*
X140338110Y-105186500D01*
X140379591Y-105190585D01*
G37*
G36*
X199051000Y-105501000D02*
G01*
X196449000Y-105501000D01*
X196449000Y-103399000D01*
X199051000Y-103399000D01*
X199051000Y-105501000D01*
G37*
G36*
X193551000Y-105501000D02*
G01*
X190949000Y-105501000D01*
X190949000Y-103399000D01*
X193551000Y-103399000D01*
X193551000Y-105501000D01*
G37*
G36*
X188154591Y-104278085D02*
G01*
X188188569Y-104288393D01*
X188219890Y-104305134D01*
X188247339Y-104327661D01*
X188269866Y-104355110D01*
X188286607Y-104386431D01*
X188296915Y-104420409D01*
X188301000Y-104461890D01*
X188301000Y-105138110D01*
X188296915Y-105179591D01*
X188286607Y-105213569D01*
X188269866Y-105244890D01*
X188247339Y-105272339D01*
X188219890Y-105294866D01*
X188188569Y-105311607D01*
X188154591Y-105321915D01*
X188113110Y-105326000D01*
X187511890Y-105326000D01*
X187470409Y-105321915D01*
X187436431Y-105311607D01*
X187405110Y-105294866D01*
X187377661Y-105272339D01*
X187355134Y-105244890D01*
X187338393Y-105213569D01*
X187328085Y-105179591D01*
X187324000Y-105138110D01*
X187324000Y-104461890D01*
X187328085Y-104420409D01*
X187338393Y-104386431D01*
X187355134Y-104355110D01*
X187377661Y-104327661D01*
X187405110Y-104305134D01*
X187436431Y-104288393D01*
X187470409Y-104278085D01*
X187511890Y-104274000D01*
X188113110Y-104274000D01*
X188154591Y-104278085D01*
G37*
G36*
X189729591Y-104278085D02*
G01*
X189763569Y-104288393D01*
X189794890Y-104305134D01*
X189822339Y-104327661D01*
X189844866Y-104355110D01*
X189861607Y-104386431D01*
X189871915Y-104420409D01*
X189876000Y-104461890D01*
X189876000Y-105138110D01*
X189871915Y-105179591D01*
X189861607Y-105213569D01*
X189844866Y-105244890D01*
X189822339Y-105272339D01*
X189794890Y-105294866D01*
X189763569Y-105311607D01*
X189729591Y-105321915D01*
X189688110Y-105326000D01*
X189086890Y-105326000D01*
X189045409Y-105321915D01*
X189011431Y-105311607D01*
X188980110Y-105294866D01*
X188952661Y-105272339D01*
X188930134Y-105244890D01*
X188913393Y-105213569D01*
X188903085Y-105179591D01*
X188899000Y-105138110D01*
X188899000Y-104461890D01*
X188903085Y-104420409D01*
X188913393Y-104386431D01*
X188930134Y-104355110D01*
X188952661Y-104327661D01*
X188980110Y-104305134D01*
X189011431Y-104288393D01*
X189045409Y-104278085D01*
X189086890Y-104274000D01*
X189688110Y-104274000D01*
X189729591Y-104278085D01*
G37*
G36*
X171413512Y-102923927D02*
G01*
X171562812Y-102953624D01*
X171726784Y-103021544D01*
X171874354Y-103120147D01*
X171999853Y-103245646D01*
X172098456Y-103393216D01*
X172166376Y-103557188D01*
X172185724Y-103654461D01*
X172201000Y-103731258D01*
X172201000Y-103908742D01*
X172196073Y-103933512D01*
X172166376Y-104082812D01*
X172098456Y-104246784D01*
X171999853Y-104394354D01*
X171874354Y-104519853D01*
X171726784Y-104618456D01*
X171562812Y-104686376D01*
X171413512Y-104716073D01*
X171388742Y-104721000D01*
X171211258Y-104721000D01*
X171186488Y-104716073D01*
X171037188Y-104686376D01*
X170873216Y-104618456D01*
X170725646Y-104519853D01*
X170600147Y-104394354D01*
X170501544Y-104246784D01*
X170433624Y-104082812D01*
X170403927Y-103933512D01*
X170399000Y-103908742D01*
X170399000Y-103731258D01*
X170414276Y-103654461D01*
X170433624Y-103557188D01*
X170501544Y-103393216D01*
X170600147Y-103245646D01*
X170725646Y-103120147D01*
X170873216Y-103021544D01*
X171037188Y-102953624D01*
X171186488Y-102923927D01*
X171211258Y-102919000D01*
X171388742Y-102919000D01*
X171413512Y-102923927D01*
G37*
G36*
X168873512Y-102923927D02*
G01*
X169022812Y-102953624D01*
X169186784Y-103021544D01*
X169334354Y-103120147D01*
X169459853Y-103245646D01*
X169558456Y-103393216D01*
X169626376Y-103557188D01*
X169645724Y-103654461D01*
X169661000Y-103731258D01*
X169661000Y-103908742D01*
X169656073Y-103933512D01*
X169626376Y-104082812D01*
X169558456Y-104246784D01*
X169459853Y-104394354D01*
X169334354Y-104519853D01*
X169186784Y-104618456D01*
X169022812Y-104686376D01*
X168873512Y-104716073D01*
X168848742Y-104721000D01*
X168671258Y-104721000D01*
X168646488Y-104716073D01*
X168497188Y-104686376D01*
X168333216Y-104618456D01*
X168185646Y-104519853D01*
X168060147Y-104394354D01*
X167961544Y-104246784D01*
X167893624Y-104082812D01*
X167863927Y-103933512D01*
X167859000Y-103908742D01*
X167859000Y-103731258D01*
X167874276Y-103654461D01*
X167893624Y-103557188D01*
X167961544Y-103393216D01*
X168060147Y-103245646D01*
X168185646Y-103120147D01*
X168333216Y-103021544D01*
X168497188Y-102953624D01*
X168646488Y-102923927D01*
X168671258Y-102919000D01*
X168848742Y-102919000D01*
X168873512Y-102923927D01*
G37*
G36*
X131353512Y-102903927D02*
G01*
X131502812Y-102933624D01*
X131666784Y-103001544D01*
X131814354Y-103100147D01*
X131939853Y-103225646D01*
X132038456Y-103373216D01*
X132106376Y-103537188D01*
X132135744Y-103684836D01*
X132141000Y-103711258D01*
X132141000Y-103888742D01*
X132137500Y-103906335D01*
X132106376Y-104062812D01*
X132038456Y-104226784D01*
X131939853Y-104374354D01*
X131814354Y-104499853D01*
X131666784Y-104598456D01*
X131502812Y-104666376D01*
X131353512Y-104696073D01*
X131328742Y-104701000D01*
X131151258Y-104701000D01*
X131126488Y-104696073D01*
X130977188Y-104666376D01*
X130813216Y-104598456D01*
X130665646Y-104499853D01*
X130540147Y-104374354D01*
X130441544Y-104226784D01*
X130373624Y-104062812D01*
X130342500Y-103906335D01*
X130339000Y-103888742D01*
X130339000Y-103711258D01*
X130344256Y-103684836D01*
X130373624Y-103537188D01*
X130441544Y-103373216D01*
X130540147Y-103225646D01*
X130665646Y-103100147D01*
X130813216Y-103001544D01*
X130977188Y-102933624D01*
X131126488Y-102903927D01*
X131151258Y-102899000D01*
X131328742Y-102899000D01*
X131353512Y-102903927D01*
G37*
G36*
X129601000Y-104701000D02*
G01*
X127799000Y-104701000D01*
X127799000Y-102899000D01*
X129601000Y-102899000D01*
X129601000Y-104701000D01*
G37*
G36*
X184001000Y-104026000D02*
G01*
X174999000Y-104026000D01*
X174999000Y-102174000D01*
X184001000Y-102174000D01*
X184001000Y-104026000D01*
G37*
G36*
X145120295Y-96050323D02*
G01*
X145127310Y-96052451D01*
X145133776Y-96055908D01*
X145139442Y-96060558D01*
X145144092Y-96066224D01*
X145147549Y-96072690D01*
X145149677Y-96079705D01*
X145151000Y-96093140D01*
X145151000Y-96406860D01*
X145149677Y-96420295D01*
X145147549Y-96427309D01*
X145140190Y-96441077D01*
X145130813Y-96463716D01*
X145126033Y-96487749D01*
X145126033Y-96512253D01*
X145130814Y-96536286D01*
X145140190Y-96558923D01*
X145147549Y-96572691D01*
X145149677Y-96579705D01*
X145151000Y-96593140D01*
X145151000Y-96906860D01*
X145149677Y-96920295D01*
X145147549Y-96927309D01*
X145140190Y-96941077D01*
X145130813Y-96963716D01*
X145126033Y-96987749D01*
X145126033Y-97012253D01*
X145130814Y-97036286D01*
X145140190Y-97058923D01*
X145147549Y-97072691D01*
X145149677Y-97079705D01*
X145151000Y-97093140D01*
X145151000Y-97406860D01*
X145149677Y-97420295D01*
X145147549Y-97427309D01*
X145140190Y-97441077D01*
X145130813Y-97463716D01*
X145126033Y-97487749D01*
X145126033Y-97512253D01*
X145130814Y-97536286D01*
X145140190Y-97558923D01*
X145147549Y-97572691D01*
X145149677Y-97579705D01*
X145151000Y-97593140D01*
X145151000Y-97906860D01*
X145149677Y-97920295D01*
X145147549Y-97927309D01*
X145140190Y-97941077D01*
X145130813Y-97963716D01*
X145126033Y-97987749D01*
X145126033Y-98012253D01*
X145130814Y-98036286D01*
X145140190Y-98058923D01*
X145147549Y-98072691D01*
X145149677Y-98079705D01*
X145151000Y-98093140D01*
X145151000Y-98406860D01*
X145149677Y-98420295D01*
X145147549Y-98427309D01*
X145140190Y-98441077D01*
X145130813Y-98463716D01*
X145126033Y-98487749D01*
X145126033Y-98512253D01*
X145130814Y-98536286D01*
X145140190Y-98558923D01*
X145147549Y-98572691D01*
X145149677Y-98579705D01*
X145151000Y-98593140D01*
X145151000Y-98906860D01*
X145149677Y-98920295D01*
X145147549Y-98927309D01*
X145140190Y-98941077D01*
X145130813Y-98963716D01*
X145126033Y-98987749D01*
X145126033Y-99012253D01*
X145130814Y-99036286D01*
X145140190Y-99058923D01*
X145147549Y-99072691D01*
X145149677Y-99079705D01*
X145151000Y-99093140D01*
X145151000Y-99406860D01*
X145149677Y-99420295D01*
X145147549Y-99427309D01*
X145140190Y-99441077D01*
X145130813Y-99463716D01*
X145126033Y-99487749D01*
X145126033Y-99512253D01*
X145130814Y-99536286D01*
X145140190Y-99558923D01*
X145147549Y-99572691D01*
X145149677Y-99579705D01*
X145151000Y-99593140D01*
X145151000Y-99906860D01*
X145149677Y-99920295D01*
X145147549Y-99927309D01*
X145140190Y-99941077D01*
X145130813Y-99963716D01*
X145126033Y-99987749D01*
X145126033Y-100012253D01*
X145130814Y-100036286D01*
X145140190Y-100058923D01*
X145147549Y-100072691D01*
X145149677Y-100079705D01*
X145151000Y-100093140D01*
X145151000Y-100406860D01*
X145149677Y-100420295D01*
X145147549Y-100427309D01*
X145140190Y-100441077D01*
X145130813Y-100463716D01*
X145126033Y-100487749D01*
X145126033Y-100512253D01*
X145130814Y-100536286D01*
X145140190Y-100558923D01*
X145147549Y-100572691D01*
X145149677Y-100579705D01*
X145151000Y-100593140D01*
X145151000Y-100906860D01*
X145149677Y-100920295D01*
X145147549Y-100927309D01*
X145140190Y-100941077D01*
X145130813Y-100963716D01*
X145126033Y-100987749D01*
X145126033Y-101012253D01*
X145130814Y-101036286D01*
X145140190Y-101058923D01*
X145147549Y-101072691D01*
X145149677Y-101079705D01*
X145151000Y-101093140D01*
X145151000Y-101406860D01*
X145149677Y-101420295D01*
X145147549Y-101427309D01*
X145140190Y-101441077D01*
X145130813Y-101463716D01*
X145126033Y-101487749D01*
X145126033Y-101512253D01*
X145130814Y-101536286D01*
X145140190Y-101558923D01*
X145147549Y-101572691D01*
X145149677Y-101579705D01*
X145151000Y-101593140D01*
X145151000Y-101906860D01*
X145149677Y-101920295D01*
X145147549Y-101927309D01*
X145140190Y-101941077D01*
X145130813Y-101963716D01*
X145126033Y-101987749D01*
X145126033Y-102012253D01*
X145130814Y-102036286D01*
X145140190Y-102058923D01*
X145147549Y-102072691D01*
X145149677Y-102079705D01*
X145151000Y-102093140D01*
X145151000Y-102406860D01*
X145149677Y-102420295D01*
X145147549Y-102427309D01*
X145140190Y-102441077D01*
X145130813Y-102463716D01*
X145126033Y-102487749D01*
X145126033Y-102512253D01*
X145130814Y-102536286D01*
X145140190Y-102558923D01*
X145147549Y-102572691D01*
X145149677Y-102579705D01*
X145151000Y-102593140D01*
X145151000Y-102906860D01*
X145149677Y-102920295D01*
X145147549Y-102927309D01*
X145140190Y-102941077D01*
X145130813Y-102963716D01*
X145126033Y-102987749D01*
X145126033Y-103012253D01*
X145130814Y-103036286D01*
X145140190Y-103058923D01*
X145147549Y-103072691D01*
X145149677Y-103079705D01*
X145151000Y-103093140D01*
X145151000Y-103406860D01*
X145149677Y-103420295D01*
X145147549Y-103427309D01*
X145140190Y-103441077D01*
X145130813Y-103463716D01*
X145126033Y-103487749D01*
X145126033Y-103512253D01*
X145130814Y-103536286D01*
X145140190Y-103558923D01*
X145147549Y-103572691D01*
X145149677Y-103579705D01*
X145151000Y-103593140D01*
X145151000Y-103906860D01*
X145149677Y-103920295D01*
X145147549Y-103927310D01*
X145144092Y-103933776D01*
X145139442Y-103939442D01*
X145133776Y-103944092D01*
X145127310Y-103947549D01*
X145120295Y-103949677D01*
X145106860Y-103951000D01*
X143543140Y-103951000D01*
X143529705Y-103949677D01*
X143522690Y-103947549D01*
X143516224Y-103944092D01*
X143510558Y-103939442D01*
X143505908Y-103933776D01*
X143502451Y-103927310D01*
X143500323Y-103920295D01*
X143499000Y-103906860D01*
X143499000Y-103593140D01*
X143500323Y-103579705D01*
X143502451Y-103572691D01*
X143509810Y-103558923D01*
X143519187Y-103536284D01*
X143523967Y-103512251D01*
X143523967Y-103487747D01*
X143519186Y-103463714D01*
X143509810Y-103441077D01*
X143502451Y-103427309D01*
X143500323Y-103420295D01*
X143499000Y-103406860D01*
X143499000Y-103093140D01*
X143500323Y-103079705D01*
X143502451Y-103072691D01*
X143509810Y-103058923D01*
X143519187Y-103036284D01*
X143523967Y-103012251D01*
X143523967Y-102987747D01*
X143519186Y-102963714D01*
X143509810Y-102941077D01*
X143502451Y-102927309D01*
X143500323Y-102920295D01*
X143499000Y-102906860D01*
X143499000Y-102593140D01*
X143500323Y-102579705D01*
X143502451Y-102572691D01*
X143509810Y-102558923D01*
X143519187Y-102536284D01*
X143523967Y-102512251D01*
X143523967Y-102487747D01*
X143519186Y-102463714D01*
X143509810Y-102441077D01*
X143502451Y-102427309D01*
X143500323Y-102420295D01*
X143499000Y-102406860D01*
X143499000Y-102093140D01*
X143500323Y-102079705D01*
X143502451Y-102072691D01*
X143509810Y-102058923D01*
X143519187Y-102036284D01*
X143523967Y-102012251D01*
X143523967Y-101987747D01*
X143519186Y-101963714D01*
X143509810Y-101941077D01*
X143502451Y-101927309D01*
X143500323Y-101920295D01*
X143499000Y-101906860D01*
X143499000Y-101593140D01*
X143500323Y-101579705D01*
X143502451Y-101572691D01*
X143509810Y-101558923D01*
X143519187Y-101536284D01*
X143523967Y-101512251D01*
X143523967Y-101487747D01*
X143519186Y-101463714D01*
X143509810Y-101441077D01*
X143502451Y-101427309D01*
X143500323Y-101420295D01*
X143499000Y-101406860D01*
X143499000Y-101093140D01*
X143500323Y-101079705D01*
X143502451Y-101072691D01*
X143509810Y-101058923D01*
X143519187Y-101036284D01*
X143523967Y-101012251D01*
X143523967Y-100987747D01*
X143519186Y-100963714D01*
X143509810Y-100941077D01*
X143502451Y-100927309D01*
X143500323Y-100920295D01*
X143499000Y-100906860D01*
X143499000Y-100593140D01*
X143500323Y-100579705D01*
X143502451Y-100572691D01*
X143509810Y-100558923D01*
X143519187Y-100536284D01*
X143523967Y-100512251D01*
X143523967Y-100487747D01*
X143519186Y-100463714D01*
X143509810Y-100441077D01*
X143502451Y-100427309D01*
X143500323Y-100420295D01*
X143499000Y-100406860D01*
X143499000Y-100093140D01*
X143500323Y-100079705D01*
X143502451Y-100072691D01*
X143509810Y-100058923D01*
X143519187Y-100036284D01*
X143523967Y-100012251D01*
X143523967Y-99987747D01*
X143519186Y-99963714D01*
X143509810Y-99941077D01*
X143502451Y-99927309D01*
X143500323Y-99920295D01*
X143499000Y-99906860D01*
X143499000Y-99593140D01*
X143500323Y-99579705D01*
X143502451Y-99572691D01*
X143509810Y-99558923D01*
X143519187Y-99536284D01*
X143523967Y-99512251D01*
X143523967Y-99487747D01*
X143519186Y-99463714D01*
X143509810Y-99441077D01*
X143502451Y-99427309D01*
X143500323Y-99420295D01*
X143499000Y-99406860D01*
X143499000Y-99093140D01*
X143500323Y-99079705D01*
X143502451Y-99072691D01*
X143509810Y-99058923D01*
X143519187Y-99036284D01*
X143523967Y-99012251D01*
X143523967Y-98987747D01*
X143519186Y-98963714D01*
X143509810Y-98941077D01*
X143502451Y-98927309D01*
X143500323Y-98920295D01*
X143499000Y-98906860D01*
X143499000Y-98593140D01*
X143500323Y-98579705D01*
X143502451Y-98572691D01*
X143509810Y-98558923D01*
X143519187Y-98536284D01*
X143523967Y-98512251D01*
X143523967Y-98487747D01*
X143519186Y-98463714D01*
X143509810Y-98441077D01*
X143502451Y-98427309D01*
X143500323Y-98420295D01*
X143499000Y-98406860D01*
X143499000Y-98093140D01*
X143500323Y-98079705D01*
X143502451Y-98072691D01*
X143509810Y-98058923D01*
X143519187Y-98036284D01*
X143523967Y-98012251D01*
X143523967Y-97987747D01*
X143519186Y-97963714D01*
X143509810Y-97941077D01*
X143502451Y-97927309D01*
X143500323Y-97920295D01*
X143499000Y-97906860D01*
X143499000Y-97593140D01*
X143500323Y-97579705D01*
X143502451Y-97572691D01*
X143509810Y-97558923D01*
X143519187Y-97536284D01*
X143523967Y-97512251D01*
X143523967Y-97487747D01*
X143519186Y-97463714D01*
X143509810Y-97441077D01*
X143502451Y-97427309D01*
X143500323Y-97420295D01*
X143499000Y-97406860D01*
X143499000Y-97093140D01*
X143500323Y-97079705D01*
X143502451Y-97072691D01*
X143509810Y-97058923D01*
X143519187Y-97036284D01*
X143523967Y-97012251D01*
X143523967Y-96987747D01*
X143519186Y-96963714D01*
X143509810Y-96941077D01*
X143502451Y-96927309D01*
X143500323Y-96920295D01*
X143499000Y-96906860D01*
X143499000Y-96593140D01*
X143500323Y-96579705D01*
X143502451Y-96572691D01*
X143509810Y-96558923D01*
X143519187Y-96536284D01*
X143523967Y-96512251D01*
X143523967Y-96487747D01*
X143519186Y-96463714D01*
X143509810Y-96441077D01*
X143502451Y-96427309D01*
X143500323Y-96420295D01*
X143499000Y-96406860D01*
X143499000Y-96093140D01*
X143500323Y-96079705D01*
X143502451Y-96072690D01*
X143505908Y-96066224D01*
X143510558Y-96060558D01*
X143516224Y-96055908D01*
X143522690Y-96052451D01*
X143529705Y-96050323D01*
X143543140Y-96049000D01*
X145106860Y-96049000D01*
X145120295Y-96050323D01*
G37*
G36*
X156470295Y-96050323D02*
G01*
X156477310Y-96052451D01*
X156483776Y-96055908D01*
X156489442Y-96060558D01*
X156494092Y-96066224D01*
X156497549Y-96072690D01*
X156499677Y-96079705D01*
X156501000Y-96093140D01*
X156501000Y-96406860D01*
X156499677Y-96420295D01*
X156497549Y-96427309D01*
X156490190Y-96441077D01*
X156480813Y-96463716D01*
X156476033Y-96487749D01*
X156476033Y-96512253D01*
X156480814Y-96536286D01*
X156490190Y-96558923D01*
X156497549Y-96572691D01*
X156499677Y-96579705D01*
X156501000Y-96593140D01*
X156501000Y-96906860D01*
X156499677Y-96920295D01*
X156497549Y-96927309D01*
X156490190Y-96941077D01*
X156480813Y-96963716D01*
X156476033Y-96987749D01*
X156476033Y-97012253D01*
X156480814Y-97036286D01*
X156490190Y-97058923D01*
X156497549Y-97072691D01*
X156499677Y-97079705D01*
X156501000Y-97093140D01*
X156501000Y-97406860D01*
X156499677Y-97420295D01*
X156497549Y-97427309D01*
X156490190Y-97441077D01*
X156480813Y-97463716D01*
X156476033Y-97487749D01*
X156476033Y-97512253D01*
X156480814Y-97536286D01*
X156490190Y-97558923D01*
X156497549Y-97572691D01*
X156499677Y-97579705D01*
X156501000Y-97593140D01*
X156501000Y-97906860D01*
X156499677Y-97920295D01*
X156497549Y-97927309D01*
X156490190Y-97941077D01*
X156480813Y-97963716D01*
X156476033Y-97987749D01*
X156476033Y-98012253D01*
X156480814Y-98036286D01*
X156490190Y-98058923D01*
X156497549Y-98072691D01*
X156499677Y-98079705D01*
X156501000Y-98093140D01*
X156501000Y-98406860D01*
X156499677Y-98420295D01*
X156497549Y-98427309D01*
X156490190Y-98441077D01*
X156480813Y-98463716D01*
X156476033Y-98487749D01*
X156476033Y-98512253D01*
X156480814Y-98536286D01*
X156490190Y-98558923D01*
X156497549Y-98572691D01*
X156499677Y-98579705D01*
X156501000Y-98593140D01*
X156501000Y-98906860D01*
X156499677Y-98920295D01*
X156497549Y-98927309D01*
X156490190Y-98941077D01*
X156480813Y-98963716D01*
X156476033Y-98987749D01*
X156476033Y-99012253D01*
X156480814Y-99036286D01*
X156490190Y-99058923D01*
X156497549Y-99072691D01*
X156499677Y-99079705D01*
X156501000Y-99093140D01*
X156501000Y-99406860D01*
X156499677Y-99420295D01*
X156497549Y-99427309D01*
X156490190Y-99441077D01*
X156480813Y-99463716D01*
X156476033Y-99487749D01*
X156476033Y-99512253D01*
X156480814Y-99536286D01*
X156490190Y-99558923D01*
X156497549Y-99572691D01*
X156499677Y-99579705D01*
X156501000Y-99593140D01*
X156501000Y-99906860D01*
X156499677Y-99920295D01*
X156497549Y-99927309D01*
X156490190Y-99941077D01*
X156480813Y-99963716D01*
X156476033Y-99987749D01*
X156476033Y-100012253D01*
X156480814Y-100036286D01*
X156490190Y-100058923D01*
X156497549Y-100072691D01*
X156499677Y-100079705D01*
X156501000Y-100093140D01*
X156501000Y-100406860D01*
X156499677Y-100420295D01*
X156497549Y-100427309D01*
X156490190Y-100441077D01*
X156480813Y-100463716D01*
X156476033Y-100487749D01*
X156476033Y-100512253D01*
X156480814Y-100536286D01*
X156490190Y-100558923D01*
X156497549Y-100572691D01*
X156499677Y-100579705D01*
X156501000Y-100593140D01*
X156501000Y-100906860D01*
X156499677Y-100920295D01*
X156497549Y-100927309D01*
X156490190Y-100941077D01*
X156480813Y-100963716D01*
X156476033Y-100987749D01*
X156476033Y-101012253D01*
X156480814Y-101036286D01*
X156490190Y-101058923D01*
X156497549Y-101072691D01*
X156499677Y-101079705D01*
X156501000Y-101093140D01*
X156501000Y-101406860D01*
X156499677Y-101420295D01*
X156497549Y-101427309D01*
X156490190Y-101441077D01*
X156480813Y-101463716D01*
X156476033Y-101487749D01*
X156476033Y-101512253D01*
X156480814Y-101536286D01*
X156490190Y-101558923D01*
X156497549Y-101572691D01*
X156499677Y-101579705D01*
X156501000Y-101593140D01*
X156501000Y-101906860D01*
X156499677Y-101920295D01*
X156497549Y-101927309D01*
X156490190Y-101941077D01*
X156480813Y-101963716D01*
X156476033Y-101987749D01*
X156476033Y-102012253D01*
X156480814Y-102036286D01*
X156490190Y-102058923D01*
X156497549Y-102072691D01*
X156499677Y-102079705D01*
X156501000Y-102093140D01*
X156501000Y-102406860D01*
X156499677Y-102420295D01*
X156497549Y-102427309D01*
X156490190Y-102441077D01*
X156480813Y-102463716D01*
X156476033Y-102487749D01*
X156476033Y-102512253D01*
X156480814Y-102536286D01*
X156490190Y-102558923D01*
X156497549Y-102572691D01*
X156499677Y-102579705D01*
X156501000Y-102593140D01*
X156501000Y-102906860D01*
X156499677Y-102920295D01*
X156497549Y-102927309D01*
X156490190Y-102941077D01*
X156480813Y-102963716D01*
X156476033Y-102987749D01*
X156476033Y-103012253D01*
X156480814Y-103036286D01*
X156490190Y-103058923D01*
X156497549Y-103072691D01*
X156499677Y-103079705D01*
X156501000Y-103093140D01*
X156501000Y-103406860D01*
X156499677Y-103420295D01*
X156497549Y-103427309D01*
X156490190Y-103441077D01*
X156480813Y-103463716D01*
X156476033Y-103487749D01*
X156476033Y-103512253D01*
X156480814Y-103536286D01*
X156490190Y-103558923D01*
X156497549Y-103572691D01*
X156499677Y-103579705D01*
X156501000Y-103593140D01*
X156501000Y-103906860D01*
X156499677Y-103920295D01*
X156497549Y-103927310D01*
X156494092Y-103933776D01*
X156489442Y-103939442D01*
X156483776Y-103944092D01*
X156477310Y-103947549D01*
X156470295Y-103949677D01*
X156456860Y-103951000D01*
X154893140Y-103951000D01*
X154879705Y-103949677D01*
X154872690Y-103947549D01*
X154866224Y-103944092D01*
X154860558Y-103939442D01*
X154855908Y-103933776D01*
X154852451Y-103927310D01*
X154850323Y-103920295D01*
X154849000Y-103906860D01*
X154849000Y-103593140D01*
X154850323Y-103579705D01*
X154852451Y-103572691D01*
X154859810Y-103558923D01*
X154869187Y-103536284D01*
X154873967Y-103512251D01*
X154873967Y-103487747D01*
X154869186Y-103463714D01*
X154859810Y-103441077D01*
X154852451Y-103427309D01*
X154850323Y-103420295D01*
X154849000Y-103406860D01*
X154849000Y-103093140D01*
X154850323Y-103079705D01*
X154852451Y-103072691D01*
X154859810Y-103058923D01*
X154869187Y-103036284D01*
X154873967Y-103012251D01*
X154873967Y-102987747D01*
X154869186Y-102963714D01*
X154859810Y-102941077D01*
X154852451Y-102927309D01*
X154850323Y-102920295D01*
X154849000Y-102906860D01*
X154849000Y-102593140D01*
X154850323Y-102579705D01*
X154852451Y-102572691D01*
X154859810Y-102558923D01*
X154869187Y-102536284D01*
X154873967Y-102512251D01*
X154873967Y-102487747D01*
X154869186Y-102463714D01*
X154859810Y-102441077D01*
X154852451Y-102427309D01*
X154850323Y-102420295D01*
X154849000Y-102406860D01*
X154849000Y-102093140D01*
X154850323Y-102079705D01*
X154852451Y-102072691D01*
X154859810Y-102058923D01*
X154869187Y-102036284D01*
X154873967Y-102012251D01*
X154873967Y-101987747D01*
X154869186Y-101963714D01*
X154859810Y-101941077D01*
X154852451Y-101927309D01*
X154850323Y-101920295D01*
X154849000Y-101906860D01*
X154849000Y-101593140D01*
X154850323Y-101579705D01*
X154852451Y-101572691D01*
X154859810Y-101558923D01*
X154869187Y-101536284D01*
X154873967Y-101512251D01*
X154873967Y-101487747D01*
X154869186Y-101463714D01*
X154859810Y-101441077D01*
X154852451Y-101427309D01*
X154850323Y-101420295D01*
X154849000Y-101406860D01*
X154849000Y-101093140D01*
X154850323Y-101079705D01*
X154852451Y-101072691D01*
X154859810Y-101058923D01*
X154869187Y-101036284D01*
X154873967Y-101012251D01*
X154873967Y-100987747D01*
X154869186Y-100963714D01*
X154859810Y-100941077D01*
X154852451Y-100927309D01*
X154850323Y-100920295D01*
X154849000Y-100906860D01*
X154849000Y-100593140D01*
X154850323Y-100579705D01*
X154852451Y-100572691D01*
X154859810Y-100558923D01*
X154869187Y-100536284D01*
X154873967Y-100512251D01*
X154873967Y-100487747D01*
X154869186Y-100463714D01*
X154859810Y-100441077D01*
X154852451Y-100427309D01*
X154850323Y-100420295D01*
X154849000Y-100406860D01*
X154849000Y-100093140D01*
X154850323Y-100079705D01*
X154852451Y-100072691D01*
X154859810Y-100058923D01*
X154869187Y-100036284D01*
X154873967Y-100012251D01*
X154873967Y-99987747D01*
X154869186Y-99963714D01*
X154859810Y-99941077D01*
X154852451Y-99927309D01*
X154850323Y-99920295D01*
X154849000Y-99906860D01*
X154849000Y-99593140D01*
X154850323Y-99579705D01*
X154852451Y-99572691D01*
X154859810Y-99558923D01*
X154869187Y-99536284D01*
X154873967Y-99512251D01*
X154873967Y-99487747D01*
X154869186Y-99463714D01*
X154859810Y-99441077D01*
X154852451Y-99427309D01*
X154850323Y-99420295D01*
X154849000Y-99406860D01*
X154849000Y-99093140D01*
X154850323Y-99079705D01*
X154852451Y-99072691D01*
X154859810Y-99058923D01*
X154869187Y-99036284D01*
X154873967Y-99012251D01*
X154873967Y-98987747D01*
X154869186Y-98963714D01*
X154859810Y-98941077D01*
X154852451Y-98927309D01*
X154850323Y-98920295D01*
X154849000Y-98906860D01*
X154849000Y-98593140D01*
X154850323Y-98579705D01*
X154852451Y-98572691D01*
X154859810Y-98558923D01*
X154869187Y-98536284D01*
X154873967Y-98512251D01*
X154873967Y-98487747D01*
X154869186Y-98463714D01*
X154859810Y-98441077D01*
X154852451Y-98427309D01*
X154850323Y-98420295D01*
X154849000Y-98406860D01*
X154849000Y-98093140D01*
X154850323Y-98079705D01*
X154852451Y-98072691D01*
X154859810Y-98058923D01*
X154869187Y-98036284D01*
X154873967Y-98012251D01*
X154873967Y-97987747D01*
X154869186Y-97963714D01*
X154859810Y-97941077D01*
X154852451Y-97927309D01*
X154850323Y-97920295D01*
X154849000Y-97906860D01*
X154849000Y-97593140D01*
X154850323Y-97579705D01*
X154852451Y-97572691D01*
X154859810Y-97558923D01*
X154869187Y-97536284D01*
X154873967Y-97512251D01*
X154873967Y-97487747D01*
X154869186Y-97463714D01*
X154859810Y-97441077D01*
X154852451Y-97427309D01*
X154850323Y-97420295D01*
X154849000Y-97406860D01*
X154849000Y-97093140D01*
X154850323Y-97079705D01*
X154852451Y-97072691D01*
X154859810Y-97058923D01*
X154869187Y-97036284D01*
X154873967Y-97012251D01*
X154873967Y-96987747D01*
X154869186Y-96963714D01*
X154859810Y-96941077D01*
X154852451Y-96927309D01*
X154850323Y-96920295D01*
X154849000Y-96906860D01*
X154849000Y-96593140D01*
X154850323Y-96579705D01*
X154852451Y-96572691D01*
X154859810Y-96558923D01*
X154869187Y-96536284D01*
X154873967Y-96512251D01*
X154873967Y-96487747D01*
X154869186Y-96463714D01*
X154859810Y-96441077D01*
X154852451Y-96427309D01*
X154850323Y-96420295D01*
X154849000Y-96406860D01*
X154849000Y-96093140D01*
X154850323Y-96079705D01*
X154852451Y-96072690D01*
X154855908Y-96066224D01*
X154860558Y-96060558D01*
X154866224Y-96055908D01*
X154872690Y-96052451D01*
X154879705Y-96050323D01*
X154893140Y-96049000D01*
X156456860Y-96049000D01*
X156470295Y-96050323D01*
G37*
G36*
X189742091Y-102678085D02*
G01*
X189776069Y-102688393D01*
X189807390Y-102705134D01*
X189834839Y-102727661D01*
X189857366Y-102755110D01*
X189874107Y-102786431D01*
X189884415Y-102820409D01*
X189888500Y-102861890D01*
X189888500Y-103538110D01*
X189884415Y-103579591D01*
X189874107Y-103613569D01*
X189857366Y-103644890D01*
X189834839Y-103672339D01*
X189807390Y-103694866D01*
X189776069Y-103711607D01*
X189742091Y-103721915D01*
X189700610Y-103726000D01*
X189099390Y-103726000D01*
X189057909Y-103721915D01*
X189023931Y-103711607D01*
X188992610Y-103694866D01*
X188965161Y-103672339D01*
X188942634Y-103644890D01*
X188925893Y-103613569D01*
X188915585Y-103579591D01*
X188911500Y-103538110D01*
X188911500Y-102861890D01*
X188915585Y-102820409D01*
X188925893Y-102786431D01*
X188942634Y-102755110D01*
X188965161Y-102727661D01*
X188992610Y-102705134D01*
X189023931Y-102688393D01*
X189057909Y-102678085D01*
X189099390Y-102674000D01*
X189700610Y-102674000D01*
X189742091Y-102678085D01*
G37*
G36*
X188167091Y-102678085D02*
G01*
X188201069Y-102688393D01*
X188232390Y-102705134D01*
X188259839Y-102727661D01*
X188282366Y-102755110D01*
X188299107Y-102786431D01*
X188309415Y-102820409D01*
X188313500Y-102861890D01*
X188313500Y-103538110D01*
X188309415Y-103579591D01*
X188299107Y-103613569D01*
X188282366Y-103644890D01*
X188259839Y-103672339D01*
X188232390Y-103694866D01*
X188201069Y-103711607D01*
X188167091Y-103721915D01*
X188125610Y-103726000D01*
X187524390Y-103726000D01*
X187482909Y-103721915D01*
X187448931Y-103711607D01*
X187417610Y-103694866D01*
X187390161Y-103672339D01*
X187367634Y-103644890D01*
X187350893Y-103613569D01*
X187340585Y-103579591D01*
X187336500Y-103538110D01*
X187336500Y-102861890D01*
X187340585Y-102820409D01*
X187350893Y-102786431D01*
X187367634Y-102755110D01*
X187390161Y-102727661D01*
X187417610Y-102705134D01*
X187448931Y-102688393D01*
X187482909Y-102678085D01*
X187524390Y-102674000D01*
X188125610Y-102674000D01*
X188167091Y-102678085D01*
G37*
G36*
X136554591Y-101978085D02*
G01*
X136588569Y-101988393D01*
X136619890Y-102005134D01*
X136647339Y-102027661D01*
X136669866Y-102055110D01*
X136686607Y-102086431D01*
X136696915Y-102120409D01*
X136701000Y-102161890D01*
X136701000Y-102838110D01*
X136696915Y-102879591D01*
X136686607Y-102913569D01*
X136669866Y-102944890D01*
X136647339Y-102972339D01*
X136619890Y-102994866D01*
X136588569Y-103011607D01*
X136554591Y-103021915D01*
X136513110Y-103026000D01*
X135911890Y-103026000D01*
X135870409Y-103021915D01*
X135836431Y-103011607D01*
X135805110Y-102994866D01*
X135777661Y-102972339D01*
X135755134Y-102944890D01*
X135738393Y-102913569D01*
X135728085Y-102879591D01*
X135724000Y-102838110D01*
X135724000Y-102161890D01*
X135728085Y-102120409D01*
X135738393Y-102086431D01*
X135755134Y-102055110D01*
X135777661Y-102027661D01*
X135805110Y-102005134D01*
X135836431Y-101988393D01*
X135870409Y-101978085D01*
X135911890Y-101974000D01*
X136513110Y-101974000D01*
X136554591Y-101978085D01*
G37*
G36*
X138129591Y-101978085D02*
G01*
X138163569Y-101988393D01*
X138194890Y-102005134D01*
X138222339Y-102027661D01*
X138244866Y-102055110D01*
X138261607Y-102086431D01*
X138271915Y-102120409D01*
X138276000Y-102161890D01*
X138276000Y-102838110D01*
X138271915Y-102879591D01*
X138261607Y-102913569D01*
X138244866Y-102944890D01*
X138222339Y-102972339D01*
X138194890Y-102994866D01*
X138163569Y-103011607D01*
X138129591Y-103021915D01*
X138088110Y-103026000D01*
X137486890Y-103026000D01*
X137445409Y-103021915D01*
X137411431Y-103011607D01*
X137380110Y-102994866D01*
X137352661Y-102972339D01*
X137330134Y-102944890D01*
X137313393Y-102913569D01*
X137303085Y-102879591D01*
X137299000Y-102838110D01*
X137299000Y-102161890D01*
X137303085Y-102120409D01*
X137313393Y-102086431D01*
X137330134Y-102055110D01*
X137352661Y-102027661D01*
X137380110Y-102005134D01*
X137411431Y-101988393D01*
X137445409Y-101978085D01*
X137486890Y-101974000D01*
X138088110Y-101974000D01*
X138129591Y-101978085D01*
G37*
G36*
X140342091Y-101803085D02*
G01*
X140376069Y-101813393D01*
X140407390Y-101830134D01*
X140434839Y-101852661D01*
X140457366Y-101880110D01*
X140474107Y-101911431D01*
X140484415Y-101945409D01*
X140488500Y-101986890D01*
X140488500Y-102588110D01*
X140484415Y-102629591D01*
X140474107Y-102663569D01*
X140457366Y-102694890D01*
X140434839Y-102722339D01*
X140407390Y-102744866D01*
X140376069Y-102761607D01*
X140342091Y-102771915D01*
X140300610Y-102776000D01*
X139624390Y-102776000D01*
X139582909Y-102771915D01*
X139548931Y-102761607D01*
X139517610Y-102744866D01*
X139490161Y-102722339D01*
X139467634Y-102694890D01*
X139450893Y-102663569D01*
X139440585Y-102629591D01*
X139436500Y-102588110D01*
X139436500Y-101986890D01*
X139440585Y-101945409D01*
X139450893Y-101911431D01*
X139467634Y-101880110D01*
X139490161Y-101852661D01*
X139517610Y-101830134D01*
X139548931Y-101813393D01*
X139582909Y-101803085D01*
X139624390Y-101799000D01*
X140300610Y-101799000D01*
X140342091Y-101803085D01*
G37*
G36*
X142129591Y-101803085D02*
G01*
X142163569Y-101813393D01*
X142194890Y-101830134D01*
X142222339Y-101852661D01*
X142244866Y-101880110D01*
X142261607Y-101911431D01*
X142271915Y-101945409D01*
X142276000Y-101986890D01*
X142276000Y-102588110D01*
X142271915Y-102629591D01*
X142261607Y-102663569D01*
X142244866Y-102694890D01*
X142222339Y-102722339D01*
X142194890Y-102744866D01*
X142163569Y-102761607D01*
X142129591Y-102771915D01*
X142088110Y-102776000D01*
X141411890Y-102776000D01*
X141370409Y-102771915D01*
X141336431Y-102761607D01*
X141305110Y-102744866D01*
X141277661Y-102722339D01*
X141255134Y-102694890D01*
X141238393Y-102663569D01*
X141228085Y-102629591D01*
X141224000Y-102588110D01*
X141224000Y-101986890D01*
X141228085Y-101945409D01*
X141238393Y-101911431D01*
X141255134Y-101880110D01*
X141277661Y-101852661D01*
X141305110Y-101830134D01*
X141336431Y-101813393D01*
X141370409Y-101803085D01*
X141411890Y-101799000D01*
X142088110Y-101799000D01*
X142129591Y-101803085D01*
G37*
G36*
X195088467Y-101706782D02*
G01*
X195146136Y-101718253D01*
X195183902Y-101733896D01*
X195237311Y-101756019D01*
X195237312Y-101756020D01*
X195319369Y-101810848D01*
X195389152Y-101880631D01*
X195389153Y-101880633D01*
X195443981Y-101962689D01*
X195461562Y-102005134D01*
X195478299Y-102045539D01*
X195481747Y-102053865D01*
X195501000Y-102150655D01*
X195501000Y-102249345D01*
X195481747Y-102346135D01*
X195443981Y-102437311D01*
X195434834Y-102451000D01*
X195389152Y-102519369D01*
X195319369Y-102589152D01*
X195286611Y-102611040D01*
X195237311Y-102643981D01*
X195190021Y-102663569D01*
X195146136Y-102681747D01*
X195112724Y-102688393D01*
X195049345Y-102701000D01*
X194950655Y-102701000D01*
X194887276Y-102688393D01*
X194853864Y-102681747D01*
X194809979Y-102663569D01*
X194762689Y-102643981D01*
X194713389Y-102611040D01*
X194680631Y-102589152D01*
X194610848Y-102519369D01*
X194565166Y-102451000D01*
X194556019Y-102437311D01*
X194518253Y-102346135D01*
X194499000Y-102249345D01*
X194499000Y-102150655D01*
X194518253Y-102053865D01*
X194521702Y-102045539D01*
X194538438Y-102005134D01*
X194556019Y-101962689D01*
X194610847Y-101880633D01*
X194610848Y-101880631D01*
X194680631Y-101810848D01*
X194762688Y-101756020D01*
X194762689Y-101756019D01*
X194816098Y-101733896D01*
X194853864Y-101718253D01*
X194911533Y-101706782D01*
X194950655Y-101699000D01*
X195049345Y-101699000D01*
X195088467Y-101706782D01*
G37*
G36*
X171413512Y-100383927D02*
G01*
X171562812Y-100413624D01*
X171726784Y-100481544D01*
X171874354Y-100580147D01*
X171999853Y-100705646D01*
X172098456Y-100853216D01*
X172166376Y-101017188D01*
X172186804Y-101119890D01*
X172199240Y-101182408D01*
X172201000Y-101191259D01*
X172201000Y-101368741D01*
X172166376Y-101542812D01*
X172098456Y-101706784D01*
X171999853Y-101854354D01*
X171874354Y-101979853D01*
X171726784Y-102078456D01*
X171562812Y-102146376D01*
X171423933Y-102174000D01*
X171388742Y-102181000D01*
X171211258Y-102181000D01*
X171176067Y-102174000D01*
X171037188Y-102146376D01*
X170873216Y-102078456D01*
X170725646Y-101979853D01*
X170600147Y-101854354D01*
X170501544Y-101706784D01*
X170433624Y-101542812D01*
X170399000Y-101368741D01*
X170399000Y-101191259D01*
X170400761Y-101182408D01*
X170413196Y-101119890D01*
X170433624Y-101017188D01*
X170501544Y-100853216D01*
X170600147Y-100705646D01*
X170725646Y-100580147D01*
X170873216Y-100481544D01*
X171037188Y-100413624D01*
X171186488Y-100383927D01*
X171211258Y-100379000D01*
X171388742Y-100379000D01*
X171413512Y-100383927D01*
G37*
G36*
X168873512Y-100383927D02*
G01*
X169022812Y-100413624D01*
X169186784Y-100481544D01*
X169334354Y-100580147D01*
X169459853Y-100705646D01*
X169558456Y-100853216D01*
X169626376Y-101017188D01*
X169646804Y-101119890D01*
X169659240Y-101182408D01*
X169661000Y-101191259D01*
X169661000Y-101368741D01*
X169626376Y-101542812D01*
X169558456Y-101706784D01*
X169459853Y-101854354D01*
X169334354Y-101979853D01*
X169186784Y-102078456D01*
X169022812Y-102146376D01*
X168883933Y-102174000D01*
X168848742Y-102181000D01*
X168671258Y-102181000D01*
X168636067Y-102174000D01*
X168497188Y-102146376D01*
X168333216Y-102078456D01*
X168185646Y-101979853D01*
X168060147Y-101854354D01*
X167961544Y-101706784D01*
X167893624Y-101542812D01*
X167859000Y-101368741D01*
X167859000Y-101191259D01*
X167860761Y-101182408D01*
X167873196Y-101119890D01*
X167893624Y-101017188D01*
X167961544Y-100853216D01*
X168060147Y-100705646D01*
X168185646Y-100580147D01*
X168333216Y-100481544D01*
X168497188Y-100413624D01*
X168646488Y-100383927D01*
X168671258Y-100379000D01*
X168848742Y-100379000D01*
X168873512Y-100383927D01*
G37*
G36*
X128813512Y-100363927D02*
G01*
X128962812Y-100393624D01*
X129126784Y-100461544D01*
X129274354Y-100560147D01*
X129399853Y-100685646D01*
X129498456Y-100833216D01*
X129566376Y-100997188D01*
X129585566Y-101093665D01*
X129600110Y-101166782D01*
X129601000Y-101171259D01*
X129601000Y-101348741D01*
X129566376Y-101522812D01*
X129498456Y-101686784D01*
X129399853Y-101834354D01*
X129274354Y-101959853D01*
X129126784Y-102058456D01*
X128962812Y-102126376D01*
X128813512Y-102156073D01*
X128788742Y-102161000D01*
X128611258Y-102161000D01*
X128586488Y-102156073D01*
X128437188Y-102126376D01*
X128273216Y-102058456D01*
X128125646Y-101959853D01*
X128000147Y-101834354D01*
X127901544Y-101686784D01*
X127833624Y-101522812D01*
X127799000Y-101348741D01*
X127799000Y-101171259D01*
X127799891Y-101166782D01*
X127814434Y-101093665D01*
X127833624Y-100997188D01*
X127901544Y-100833216D01*
X128000147Y-100685646D01*
X128125646Y-100560147D01*
X128273216Y-100461544D01*
X128437188Y-100393624D01*
X128586488Y-100363927D01*
X128611258Y-100359000D01*
X128788742Y-100359000D01*
X128813512Y-100363927D01*
G37*
G36*
X131353512Y-100363927D02*
G01*
X131502812Y-100393624D01*
X131666784Y-100461544D01*
X131814354Y-100560147D01*
X131939853Y-100685646D01*
X132038456Y-100833216D01*
X132106376Y-100997188D01*
X132125566Y-101093665D01*
X132140110Y-101166782D01*
X132141000Y-101171259D01*
X132141000Y-101348741D01*
X132106376Y-101522812D01*
X132038456Y-101686784D01*
X131939853Y-101834354D01*
X131814354Y-101959853D01*
X131666784Y-102058456D01*
X131502812Y-102126376D01*
X131353512Y-102156073D01*
X131328742Y-102161000D01*
X131151258Y-102161000D01*
X131126488Y-102156073D01*
X130977188Y-102126376D01*
X130813216Y-102058456D01*
X130665646Y-101959853D01*
X130540147Y-101834354D01*
X130441544Y-101686784D01*
X130373624Y-101522812D01*
X130339000Y-101348741D01*
X130339000Y-101171259D01*
X130339891Y-101166782D01*
X130354434Y-101093665D01*
X130373624Y-100997188D01*
X130441544Y-100833216D01*
X130540147Y-100685646D01*
X130665646Y-100560147D01*
X130813216Y-100461544D01*
X130977188Y-100393624D01*
X131126488Y-100363927D01*
X131151258Y-100359000D01*
X131328742Y-100359000D01*
X131353512Y-100363927D01*
G37*
G36*
X193351000Y-101901000D02*
G01*
X190949000Y-101901000D01*
X190949000Y-98099000D01*
X193351000Y-98099000D01*
X193351000Y-101901000D01*
G37*
G36*
X189581000Y-101726000D02*
G01*
X188419000Y-101726000D01*
X188419000Y-99074000D01*
X189581000Y-99074000D01*
X189581000Y-101726000D01*
G37*
G36*
X187381000Y-101726000D02*
G01*
X186219000Y-101726000D01*
X186219000Y-99074000D01*
X187381000Y-99074000D01*
X187381000Y-101726000D01*
G37*
G36*
X110413512Y-99843927D02*
G01*
X110562812Y-99873624D01*
X110726784Y-99941544D01*
X110874354Y-100040147D01*
X110999853Y-100165646D01*
X111098456Y-100313216D01*
X111166376Y-100477188D01*
X111189544Y-100593665D01*
X111201000Y-100651258D01*
X111201000Y-100828742D01*
X111196672Y-100850500D01*
X111166376Y-101002812D01*
X111098456Y-101166784D01*
X110999853Y-101314354D01*
X110874354Y-101439853D01*
X110726784Y-101538456D01*
X110562812Y-101606376D01*
X110413512Y-101636073D01*
X110388742Y-101641000D01*
X110211258Y-101641000D01*
X110186488Y-101636073D01*
X110037188Y-101606376D01*
X109873216Y-101538456D01*
X109725646Y-101439853D01*
X109600147Y-101314354D01*
X109501544Y-101166784D01*
X109433624Y-101002812D01*
X109403328Y-100850500D01*
X109399000Y-100828742D01*
X109399000Y-100651258D01*
X109410456Y-100593665D01*
X109433624Y-100477188D01*
X109501544Y-100313216D01*
X109600147Y-100165646D01*
X109725646Y-100040147D01*
X109873216Y-99941544D01*
X110037188Y-99873624D01*
X110186488Y-99843927D01*
X110211258Y-99839000D01*
X110388742Y-99839000D01*
X110413512Y-99843927D01*
G37*
G36*
X140342091Y-100228085D02*
G01*
X140376069Y-100238393D01*
X140407390Y-100255134D01*
X140434839Y-100277661D01*
X140457366Y-100305110D01*
X140474107Y-100336431D01*
X140484415Y-100370409D01*
X140488500Y-100411890D01*
X140488500Y-101013110D01*
X140484415Y-101054591D01*
X140474107Y-101088569D01*
X140457366Y-101119890D01*
X140434839Y-101147339D01*
X140407390Y-101169866D01*
X140376069Y-101186607D01*
X140342091Y-101196915D01*
X140300610Y-101201000D01*
X139624390Y-101201000D01*
X139582909Y-101196915D01*
X139548931Y-101186607D01*
X139517610Y-101169866D01*
X139490161Y-101147339D01*
X139467634Y-101119890D01*
X139450893Y-101088569D01*
X139440585Y-101054591D01*
X139436500Y-101013110D01*
X139436500Y-100411890D01*
X139440585Y-100370409D01*
X139450893Y-100336431D01*
X139467634Y-100305110D01*
X139490161Y-100277661D01*
X139517610Y-100255134D01*
X139548931Y-100238393D01*
X139582909Y-100228085D01*
X139624390Y-100224000D01*
X140300610Y-100224000D01*
X140342091Y-100228085D01*
G37*
G36*
X142129591Y-100228085D02*
G01*
X142163569Y-100238393D01*
X142194890Y-100255134D01*
X142222339Y-100277661D01*
X142244866Y-100305110D01*
X142261607Y-100336431D01*
X142271915Y-100370409D01*
X142276000Y-100411890D01*
X142276000Y-101013110D01*
X142271915Y-101054591D01*
X142261607Y-101088569D01*
X142244866Y-101119890D01*
X142222339Y-101147339D01*
X142194890Y-101169866D01*
X142163569Y-101186607D01*
X142129591Y-101196915D01*
X142088110Y-101201000D01*
X141411890Y-101201000D01*
X141370409Y-101196915D01*
X141336431Y-101186607D01*
X141305110Y-101169866D01*
X141277661Y-101147339D01*
X141255134Y-101119890D01*
X141238393Y-101088569D01*
X141228085Y-101054591D01*
X141224000Y-101013110D01*
X141224000Y-100411890D01*
X141228085Y-100370409D01*
X141238393Y-100336431D01*
X141255134Y-100305110D01*
X141277661Y-100277661D01*
X141305110Y-100255134D01*
X141336431Y-100238393D01*
X141370409Y-100228085D01*
X141411890Y-100224000D01*
X142088110Y-100224000D01*
X142129591Y-100228085D01*
G37*
G36*
X138201000Y-101151000D02*
G01*
X136799000Y-101151000D01*
X136799000Y-99449000D01*
X138201000Y-99449000D01*
X138201000Y-101151000D01*
G37*
G36*
X135901000Y-101151000D02*
G01*
X134499000Y-101151000D01*
X134499000Y-99449000D01*
X135901000Y-99449000D01*
X135901000Y-101151000D01*
G37*
G36*
X168873512Y-97843927D02*
G01*
X169022812Y-97873624D01*
X169186784Y-97941544D01*
X169334354Y-98040147D01*
X169459853Y-98165646D01*
X169558456Y-98313216D01*
X169626376Y-98477188D01*
X169661000Y-98651259D01*
X169661000Y-98828741D01*
X169626376Y-99002812D01*
X169558456Y-99166784D01*
X169459853Y-99314354D01*
X169334354Y-99439853D01*
X169186784Y-99538456D01*
X169022812Y-99606376D01*
X168873512Y-99636073D01*
X168848742Y-99641000D01*
X168671258Y-99641000D01*
X168646488Y-99636073D01*
X168497188Y-99606376D01*
X168333216Y-99538456D01*
X168185646Y-99439853D01*
X168060147Y-99314354D01*
X167961544Y-99166784D01*
X167893624Y-99002812D01*
X167859000Y-98828741D01*
X167859000Y-98651259D01*
X167893624Y-98477188D01*
X167961544Y-98313216D01*
X168060147Y-98165646D01*
X168185646Y-98040147D01*
X168333216Y-97941544D01*
X168497188Y-97873624D01*
X168646488Y-97843927D01*
X168671258Y-97839000D01*
X168848742Y-97839000D01*
X168873512Y-97843927D01*
G37*
G36*
X171413512Y-97843927D02*
G01*
X171562812Y-97873624D01*
X171726784Y-97941544D01*
X171874354Y-98040147D01*
X171999853Y-98165646D01*
X172098456Y-98313216D01*
X172166376Y-98477188D01*
X172201000Y-98651259D01*
X172201000Y-98828741D01*
X172166376Y-99002812D01*
X172098456Y-99166784D01*
X171999853Y-99314354D01*
X171874354Y-99439853D01*
X171726784Y-99538456D01*
X171562812Y-99606376D01*
X171413512Y-99636073D01*
X171388742Y-99641000D01*
X171211258Y-99641000D01*
X171186488Y-99636073D01*
X171037188Y-99606376D01*
X170873216Y-99538456D01*
X170725646Y-99439853D01*
X170600147Y-99314354D01*
X170501544Y-99166784D01*
X170433624Y-99002812D01*
X170399000Y-98828741D01*
X170399000Y-98651259D01*
X170433624Y-98477188D01*
X170501544Y-98313216D01*
X170600147Y-98165646D01*
X170725646Y-98040147D01*
X170873216Y-97941544D01*
X171037188Y-97873624D01*
X171186488Y-97843927D01*
X171211258Y-97839000D01*
X171388742Y-97839000D01*
X171413512Y-97843927D01*
G37*
G36*
X131353512Y-97823927D02*
G01*
X131502812Y-97853624D01*
X131666784Y-97921544D01*
X131814354Y-98020147D01*
X131939853Y-98145646D01*
X132038456Y-98293216D01*
X132106376Y-98457188D01*
X132141000Y-98631259D01*
X132141000Y-98808741D01*
X132106376Y-98982812D01*
X132038456Y-99146784D01*
X131939853Y-99294354D01*
X131814354Y-99419853D01*
X131666784Y-99518456D01*
X131502812Y-99586376D01*
X131353512Y-99616073D01*
X131328742Y-99621000D01*
X131151258Y-99621000D01*
X131126488Y-99616073D01*
X130977188Y-99586376D01*
X130813216Y-99518456D01*
X130665646Y-99419853D01*
X130540147Y-99294354D01*
X130441544Y-99146784D01*
X130373624Y-98982812D01*
X130339000Y-98808741D01*
X130339000Y-98631259D01*
X130373624Y-98457188D01*
X130441544Y-98293216D01*
X130540147Y-98145646D01*
X130665646Y-98020147D01*
X130813216Y-97921544D01*
X130977188Y-97853624D01*
X131126488Y-97823927D01*
X131151258Y-97819000D01*
X131328742Y-97819000D01*
X131353512Y-97823927D01*
G37*
G36*
X128813512Y-97823927D02*
G01*
X128962812Y-97853624D01*
X129126784Y-97921544D01*
X129274354Y-98020147D01*
X129399853Y-98145646D01*
X129498456Y-98293216D01*
X129566376Y-98457188D01*
X129601000Y-98631259D01*
X129601000Y-98808741D01*
X129566376Y-98982812D01*
X129498456Y-99146784D01*
X129399853Y-99294354D01*
X129274354Y-99419853D01*
X129126784Y-99518456D01*
X128962812Y-99586376D01*
X128813512Y-99616073D01*
X128788742Y-99621000D01*
X128611258Y-99621000D01*
X128586488Y-99616073D01*
X128437188Y-99586376D01*
X128273216Y-99518456D01*
X128125646Y-99419853D01*
X128000147Y-99294354D01*
X127901544Y-99146784D01*
X127833624Y-98982812D01*
X127799000Y-98808741D01*
X127799000Y-98631259D01*
X127833624Y-98457188D01*
X127901544Y-98293216D01*
X128000147Y-98145646D01*
X128125646Y-98020147D01*
X128273216Y-97921544D01*
X128437188Y-97853624D01*
X128586488Y-97823927D01*
X128611258Y-97819000D01*
X128788742Y-97819000D01*
X128813512Y-97823927D01*
G37*
G36*
X140554591Y-98478085D02*
G01*
X140588569Y-98488393D01*
X140619890Y-98505134D01*
X140647339Y-98527661D01*
X140669866Y-98555110D01*
X140686607Y-98586431D01*
X140696915Y-98620409D01*
X140701000Y-98661890D01*
X140701000Y-99338110D01*
X140696915Y-99379591D01*
X140686607Y-99413569D01*
X140669866Y-99444890D01*
X140647339Y-99472339D01*
X140619890Y-99494866D01*
X140588569Y-99511607D01*
X140554591Y-99521915D01*
X140513110Y-99526000D01*
X139911890Y-99526000D01*
X139870409Y-99521915D01*
X139836431Y-99511607D01*
X139805110Y-99494866D01*
X139777661Y-99472339D01*
X139755134Y-99444890D01*
X139738393Y-99413569D01*
X139728085Y-99379591D01*
X139724000Y-99338110D01*
X139724000Y-98661890D01*
X139728085Y-98620409D01*
X139738393Y-98586431D01*
X139755134Y-98555110D01*
X139777661Y-98527661D01*
X139805110Y-98505134D01*
X139836431Y-98488393D01*
X139870409Y-98478085D01*
X139911890Y-98474000D01*
X140513110Y-98474000D01*
X140554591Y-98478085D01*
G37*
G36*
X142129591Y-98478085D02*
G01*
X142163569Y-98488393D01*
X142194890Y-98505134D01*
X142222339Y-98527661D01*
X142244866Y-98555110D01*
X142261607Y-98586431D01*
X142271915Y-98620409D01*
X142276000Y-98661890D01*
X142276000Y-99338110D01*
X142271915Y-99379591D01*
X142261607Y-99413569D01*
X142244866Y-99444890D01*
X142222339Y-99472339D01*
X142194890Y-99494866D01*
X142163569Y-99511607D01*
X142129591Y-99521915D01*
X142088110Y-99526000D01*
X141486890Y-99526000D01*
X141445409Y-99521915D01*
X141411431Y-99511607D01*
X141380110Y-99494866D01*
X141352661Y-99472339D01*
X141330134Y-99444890D01*
X141313393Y-99413569D01*
X141303085Y-99379591D01*
X141299000Y-99338110D01*
X141299000Y-98661890D01*
X141303085Y-98620409D01*
X141313393Y-98586431D01*
X141330134Y-98555110D01*
X141352661Y-98527661D01*
X141380110Y-98505134D01*
X141411431Y-98488393D01*
X141445409Y-98478085D01*
X141486890Y-98474000D01*
X142088110Y-98474000D01*
X142129591Y-98478085D01*
G37*
G36*
X111201000Y-99101000D02*
G01*
X109399000Y-99101000D01*
X109399000Y-97299000D01*
X111201000Y-97299000D01*
X111201000Y-99101000D01*
G37*
G36*
X195097740Y-97308627D02*
G01*
X195146136Y-97318253D01*
X195183902Y-97333896D01*
X195237311Y-97356019D01*
X195237312Y-97356020D01*
X195319369Y-97410848D01*
X195389152Y-97480631D01*
X195410281Y-97512253D01*
X195443981Y-97562689D01*
X195464008Y-97611040D01*
X195481747Y-97653864D01*
X195491373Y-97702260D01*
X195501000Y-97750655D01*
X195501000Y-97849345D01*
X195481747Y-97946135D01*
X195443981Y-98037311D01*
X195434880Y-98050931D01*
X195389152Y-98119369D01*
X195319369Y-98189152D01*
X195278062Y-98216752D01*
X195237311Y-98243981D01*
X195183902Y-98266104D01*
X195146136Y-98281747D01*
X195097740Y-98291374D01*
X195049345Y-98301000D01*
X194950655Y-98301000D01*
X194902260Y-98291374D01*
X194853864Y-98281747D01*
X194816098Y-98266104D01*
X194762689Y-98243981D01*
X194721938Y-98216752D01*
X194680631Y-98189152D01*
X194610848Y-98119369D01*
X194565120Y-98050931D01*
X194556019Y-98037311D01*
X194518253Y-97946135D01*
X194499000Y-97849345D01*
X194499000Y-97750655D01*
X194508627Y-97702260D01*
X194518253Y-97653864D01*
X194535992Y-97611040D01*
X194556019Y-97562689D01*
X194589719Y-97512253D01*
X194610848Y-97480631D01*
X194680631Y-97410848D01*
X194762688Y-97356020D01*
X194762689Y-97356019D01*
X194816098Y-97333896D01*
X194853864Y-97318253D01*
X194902260Y-97308627D01*
X194950655Y-97299000D01*
X195049345Y-97299000D01*
X195097740Y-97308627D01*
G37*
G36*
X158879591Y-96803085D02*
G01*
X158913569Y-96813393D01*
X158944890Y-96830134D01*
X158972339Y-96852661D01*
X158994866Y-96880110D01*
X159011607Y-96911431D01*
X159021915Y-96945409D01*
X159026000Y-96986890D01*
X159026000Y-97588110D01*
X159021915Y-97629591D01*
X159011607Y-97663569D01*
X158994866Y-97694890D01*
X158972339Y-97722339D01*
X158944890Y-97744866D01*
X158913569Y-97761607D01*
X158879591Y-97771915D01*
X158838110Y-97776000D01*
X158161890Y-97776000D01*
X158120409Y-97771915D01*
X158086431Y-97761607D01*
X158055110Y-97744866D01*
X158027661Y-97722339D01*
X158005134Y-97694890D01*
X157988393Y-97663569D01*
X157978085Y-97629591D01*
X157974000Y-97588110D01*
X157974000Y-96986890D01*
X157978085Y-96945409D01*
X157988393Y-96911431D01*
X158005134Y-96880110D01*
X158027661Y-96852661D01*
X158055110Y-96830134D01*
X158086431Y-96813393D01*
X158120409Y-96803085D01*
X158161890Y-96799000D01*
X158838110Y-96799000D01*
X158879591Y-96803085D01*
G37*
G36*
X138201000Y-97351000D02*
G01*
X136799000Y-97351000D01*
X136799000Y-95649000D01*
X138201000Y-95649000D01*
X138201000Y-97351000D01*
G37*
G36*
X135901000Y-97351000D02*
G01*
X134499000Y-97351000D01*
X134499000Y-95649000D01*
X135901000Y-95649000D01*
X135901000Y-97351000D01*
G37*
G36*
X172201000Y-97101000D02*
G01*
X170399000Y-97101000D01*
X170399000Y-95299000D01*
X172201000Y-95299000D01*
X172201000Y-97101000D01*
G37*
G36*
X168873512Y-95303927D02*
G01*
X169022812Y-95333624D01*
X169186784Y-95401544D01*
X169334354Y-95500147D01*
X169459853Y-95625646D01*
X169558456Y-95773216D01*
X169626376Y-95937188D01*
X169649728Y-96054591D01*
X169660957Y-96111040D01*
X169661000Y-96111259D01*
X169661000Y-96288741D01*
X169626376Y-96462812D01*
X169558456Y-96626784D01*
X169459853Y-96774354D01*
X169334354Y-96899853D01*
X169186784Y-96998456D01*
X169022812Y-97066376D01*
X168885617Y-97093665D01*
X168848742Y-97101000D01*
X168671258Y-97101000D01*
X168634383Y-97093665D01*
X168497188Y-97066376D01*
X168333216Y-96998456D01*
X168185646Y-96899853D01*
X168060147Y-96774354D01*
X167961544Y-96626784D01*
X167893624Y-96462812D01*
X167859000Y-96288741D01*
X167859000Y-96111259D01*
X167859044Y-96111040D01*
X167870272Y-96054591D01*
X167893624Y-95937188D01*
X167961544Y-95773216D01*
X168060147Y-95625646D01*
X168185646Y-95500147D01*
X168333216Y-95401544D01*
X168497188Y-95333624D01*
X168646488Y-95303927D01*
X168671258Y-95299000D01*
X168848742Y-95299000D01*
X168873512Y-95303927D01*
G37*
G36*
X131353512Y-95283927D02*
G01*
X131502812Y-95313624D01*
X131666784Y-95381544D01*
X131814354Y-95480147D01*
X131939853Y-95605646D01*
X132038456Y-95753216D01*
X132106376Y-95917188D01*
X132132978Y-96050931D01*
X132138450Y-96078436D01*
X132141000Y-96091259D01*
X132141000Y-96268741D01*
X132106376Y-96442812D01*
X132038456Y-96606784D01*
X131939853Y-96754354D01*
X131814354Y-96879853D01*
X131666784Y-96978456D01*
X131502812Y-97046376D01*
X131370514Y-97072691D01*
X131328742Y-97081000D01*
X131151258Y-97081000D01*
X131109486Y-97072691D01*
X130977188Y-97046376D01*
X130813216Y-96978456D01*
X130665646Y-96879853D01*
X130540147Y-96754354D01*
X130441544Y-96606784D01*
X130373624Y-96442812D01*
X130339000Y-96268741D01*
X130339000Y-96091259D01*
X130341551Y-96078436D01*
X130347022Y-96050931D01*
X130373624Y-95917188D01*
X130441544Y-95753216D01*
X130540147Y-95605646D01*
X130665646Y-95480147D01*
X130813216Y-95381544D01*
X130977188Y-95313624D01*
X131126488Y-95283927D01*
X131151258Y-95279000D01*
X131328742Y-95279000D01*
X131353512Y-95283927D01*
G37*
G36*
X128813512Y-95283927D02*
G01*
X128962812Y-95313624D01*
X129126784Y-95381544D01*
X129274354Y-95480147D01*
X129399853Y-95605646D01*
X129498456Y-95753216D01*
X129566376Y-95917188D01*
X129592978Y-96050931D01*
X129598450Y-96078436D01*
X129601000Y-96091259D01*
X129601000Y-96268741D01*
X129566376Y-96442812D01*
X129498456Y-96606784D01*
X129399853Y-96754354D01*
X129274354Y-96879853D01*
X129126784Y-96978456D01*
X128962812Y-97046376D01*
X128830514Y-97072691D01*
X128788742Y-97081000D01*
X128611258Y-97081000D01*
X128569486Y-97072691D01*
X128437188Y-97046376D01*
X128273216Y-96978456D01*
X128125646Y-96879853D01*
X128000147Y-96754354D01*
X127901544Y-96606784D01*
X127833624Y-96442812D01*
X127799000Y-96268741D01*
X127799000Y-96091259D01*
X127801551Y-96078436D01*
X127807022Y-96050931D01*
X127833624Y-95917188D01*
X127901544Y-95753216D01*
X128000147Y-95605646D01*
X128125646Y-95480147D01*
X128273216Y-95381544D01*
X128437188Y-95313624D01*
X128586488Y-95283927D01*
X128611258Y-95279000D01*
X128788742Y-95279000D01*
X128813512Y-95283927D01*
G37*
G36*
X184001000Y-96826000D02*
G01*
X174999000Y-96826000D01*
X174999000Y-94974000D01*
X184001000Y-94974000D01*
X184001000Y-96826000D01*
G37*
G36*
X193551000Y-96601000D02*
G01*
X190949000Y-96601000D01*
X190949000Y-94499000D01*
X193551000Y-94499000D01*
X193551000Y-96601000D01*
G37*
G36*
X199051000Y-96601000D02*
G01*
X196449000Y-96601000D01*
X196449000Y-94499000D01*
X199051000Y-94499000D01*
X199051000Y-96601000D01*
G37*
G36*
X158879591Y-95228085D02*
G01*
X158913569Y-95238393D01*
X158944890Y-95255134D01*
X158972339Y-95277661D01*
X158994866Y-95305110D01*
X159011607Y-95336431D01*
X159021915Y-95370409D01*
X159026000Y-95411890D01*
X159026000Y-96013110D01*
X159021915Y-96054591D01*
X159011607Y-96088569D01*
X158994866Y-96119890D01*
X158972339Y-96147339D01*
X158944890Y-96169866D01*
X158913569Y-96186607D01*
X158879591Y-96196915D01*
X158838110Y-96201000D01*
X158161890Y-96201000D01*
X158120409Y-96196915D01*
X158086431Y-96186607D01*
X158055110Y-96169866D01*
X158027661Y-96147339D01*
X158005134Y-96119890D01*
X157988393Y-96088569D01*
X157978085Y-96054591D01*
X157974000Y-96013110D01*
X157974000Y-95411890D01*
X157978085Y-95370409D01*
X157988393Y-95336431D01*
X158005134Y-95305110D01*
X158027661Y-95277661D01*
X158055110Y-95255134D01*
X158086431Y-95238393D01*
X158120409Y-95228085D01*
X158161890Y-95224000D01*
X158838110Y-95224000D01*
X158879591Y-95228085D01*
G37*
G36*
X146420295Y-93500323D02*
G01*
X146427309Y-93502451D01*
X146441077Y-93509810D01*
X146463716Y-93519187D01*
X146487749Y-93523967D01*
X146512253Y-93523967D01*
X146536286Y-93519186D01*
X146558923Y-93509810D01*
X146572691Y-93502451D01*
X146579705Y-93500323D01*
X146593140Y-93499000D01*
X146906860Y-93499000D01*
X146920295Y-93500323D01*
X146927309Y-93502451D01*
X146941077Y-93509810D01*
X146963716Y-93519187D01*
X146987749Y-93523967D01*
X147012253Y-93523967D01*
X147036286Y-93519186D01*
X147058923Y-93509810D01*
X147072691Y-93502451D01*
X147079705Y-93500323D01*
X147093140Y-93499000D01*
X147406860Y-93499000D01*
X147420295Y-93500323D01*
X147427309Y-93502451D01*
X147441077Y-93509810D01*
X147463716Y-93519187D01*
X147487749Y-93523967D01*
X147512253Y-93523967D01*
X147536286Y-93519186D01*
X147558923Y-93509810D01*
X147572691Y-93502451D01*
X147579705Y-93500323D01*
X147593140Y-93499000D01*
X147906860Y-93499000D01*
X147920295Y-93500323D01*
X147927309Y-93502451D01*
X147941077Y-93509810D01*
X147963716Y-93519187D01*
X147987749Y-93523967D01*
X148012253Y-93523967D01*
X148036286Y-93519186D01*
X148058923Y-93509810D01*
X148072691Y-93502451D01*
X148079705Y-93500323D01*
X148093140Y-93499000D01*
X148406860Y-93499000D01*
X148420295Y-93500323D01*
X148427309Y-93502451D01*
X148441077Y-93509810D01*
X148463716Y-93519187D01*
X148487749Y-93523967D01*
X148512253Y-93523967D01*
X148536286Y-93519186D01*
X148558923Y-93509810D01*
X148572691Y-93502451D01*
X148579705Y-93500323D01*
X148593140Y-93499000D01*
X148906860Y-93499000D01*
X148920295Y-93500323D01*
X148927309Y-93502451D01*
X148941077Y-93509810D01*
X148963716Y-93519187D01*
X148987749Y-93523967D01*
X149012253Y-93523967D01*
X149036286Y-93519186D01*
X149058923Y-93509810D01*
X149072691Y-93502451D01*
X149079705Y-93500323D01*
X149093140Y-93499000D01*
X149406860Y-93499000D01*
X149420295Y-93500323D01*
X149427309Y-93502451D01*
X149441077Y-93509810D01*
X149463716Y-93519187D01*
X149487749Y-93523967D01*
X149512253Y-93523967D01*
X149536286Y-93519186D01*
X149558923Y-93509810D01*
X149572691Y-93502451D01*
X149579705Y-93500323D01*
X149593140Y-93499000D01*
X149906860Y-93499000D01*
X149920295Y-93500323D01*
X149927309Y-93502451D01*
X149941077Y-93509810D01*
X149963716Y-93519187D01*
X149987749Y-93523967D01*
X150012253Y-93523967D01*
X150036286Y-93519186D01*
X150058923Y-93509810D01*
X150072691Y-93502451D01*
X150079705Y-93500323D01*
X150093140Y-93499000D01*
X150406860Y-93499000D01*
X150420295Y-93500323D01*
X150427309Y-93502451D01*
X150441077Y-93509810D01*
X150463716Y-93519187D01*
X150487749Y-93523967D01*
X150512253Y-93523967D01*
X150536286Y-93519186D01*
X150558923Y-93509810D01*
X150572691Y-93502451D01*
X150579705Y-93500323D01*
X150593140Y-93499000D01*
X150906860Y-93499000D01*
X150920295Y-93500323D01*
X150927309Y-93502451D01*
X150941077Y-93509810D01*
X150963716Y-93519187D01*
X150987749Y-93523967D01*
X151012253Y-93523967D01*
X151036286Y-93519186D01*
X151058923Y-93509810D01*
X151072691Y-93502451D01*
X151079705Y-93500323D01*
X151093140Y-93499000D01*
X151406860Y-93499000D01*
X151420295Y-93500323D01*
X151427309Y-93502451D01*
X151441077Y-93509810D01*
X151463716Y-93519187D01*
X151487749Y-93523967D01*
X151512253Y-93523967D01*
X151536286Y-93519186D01*
X151558923Y-93509810D01*
X151572691Y-93502451D01*
X151579705Y-93500323D01*
X151593140Y-93499000D01*
X151906860Y-93499000D01*
X151920295Y-93500323D01*
X151927309Y-93502451D01*
X151941077Y-93509810D01*
X151963716Y-93519187D01*
X151987749Y-93523967D01*
X152012253Y-93523967D01*
X152036286Y-93519186D01*
X152058923Y-93509810D01*
X152072691Y-93502451D01*
X152079705Y-93500323D01*
X152093140Y-93499000D01*
X152406860Y-93499000D01*
X152420295Y-93500323D01*
X152427309Y-93502451D01*
X152441077Y-93509810D01*
X152463716Y-93519187D01*
X152487749Y-93523967D01*
X152512253Y-93523967D01*
X152536286Y-93519186D01*
X152558923Y-93509810D01*
X152572691Y-93502451D01*
X152579705Y-93500323D01*
X152593140Y-93499000D01*
X152906860Y-93499000D01*
X152920295Y-93500323D01*
X152927309Y-93502451D01*
X152941077Y-93509810D01*
X152963716Y-93519187D01*
X152987749Y-93523967D01*
X153012253Y-93523967D01*
X153036286Y-93519186D01*
X153058923Y-93509810D01*
X153072691Y-93502451D01*
X153079705Y-93500323D01*
X153093140Y-93499000D01*
X153406860Y-93499000D01*
X153420295Y-93500323D01*
X153427309Y-93502451D01*
X153441077Y-93509810D01*
X153463716Y-93519187D01*
X153487749Y-93523967D01*
X153512253Y-93523967D01*
X153536286Y-93519186D01*
X153558923Y-93509810D01*
X153572691Y-93502451D01*
X153579705Y-93500323D01*
X153593140Y-93499000D01*
X153906860Y-93499000D01*
X153920295Y-93500323D01*
X153927310Y-93502451D01*
X153933776Y-93505908D01*
X153939442Y-93510558D01*
X153944092Y-93516224D01*
X153947549Y-93522690D01*
X153949677Y-93529705D01*
X153951000Y-93543140D01*
X153951000Y-95106860D01*
X153949677Y-95120295D01*
X153947549Y-95127310D01*
X153944092Y-95133776D01*
X153939442Y-95139442D01*
X153933776Y-95144092D01*
X153927310Y-95147549D01*
X153920295Y-95149677D01*
X153906860Y-95151000D01*
X153593140Y-95151000D01*
X153579705Y-95149677D01*
X153572691Y-95147549D01*
X153558923Y-95140190D01*
X153536284Y-95130813D01*
X153512251Y-95126033D01*
X153487747Y-95126033D01*
X153463714Y-95130814D01*
X153441077Y-95140190D01*
X153427309Y-95147549D01*
X153420295Y-95149677D01*
X153406860Y-95151000D01*
X153093140Y-95151000D01*
X153079705Y-95149677D01*
X153072691Y-95147549D01*
X153058923Y-95140190D01*
X153036284Y-95130813D01*
X153012251Y-95126033D01*
X152987747Y-95126033D01*
X152963714Y-95130814D01*
X152941077Y-95140190D01*
X152927309Y-95147549D01*
X152920295Y-95149677D01*
X152906860Y-95151000D01*
X152593140Y-95151000D01*
X152579705Y-95149677D01*
X152572691Y-95147549D01*
X152558923Y-95140190D01*
X152536284Y-95130813D01*
X152512251Y-95126033D01*
X152487747Y-95126033D01*
X152463714Y-95130814D01*
X152441077Y-95140190D01*
X152427309Y-95147549D01*
X152420295Y-95149677D01*
X152406860Y-95151000D01*
X152093140Y-95151000D01*
X152079705Y-95149677D01*
X152072691Y-95147549D01*
X152058923Y-95140190D01*
X152036284Y-95130813D01*
X152012251Y-95126033D01*
X151987747Y-95126033D01*
X151963714Y-95130814D01*
X151941077Y-95140190D01*
X151927309Y-95147549D01*
X151920295Y-95149677D01*
X151906860Y-95151000D01*
X151593140Y-95151000D01*
X151579705Y-95149677D01*
X151572691Y-95147549D01*
X151558923Y-95140190D01*
X151536284Y-95130813D01*
X151512251Y-95126033D01*
X151487747Y-95126033D01*
X151463714Y-95130814D01*
X151441077Y-95140190D01*
X151427309Y-95147549D01*
X151420295Y-95149677D01*
X151406860Y-95151000D01*
X151093140Y-95151000D01*
X151079705Y-95149677D01*
X151072691Y-95147549D01*
X151058923Y-95140190D01*
X151036284Y-95130813D01*
X151012251Y-95126033D01*
X150987747Y-95126033D01*
X150963714Y-95130814D01*
X150941077Y-95140190D01*
X150927309Y-95147549D01*
X150920295Y-95149677D01*
X150906860Y-95151000D01*
X150593140Y-95151000D01*
X150579705Y-95149677D01*
X150572691Y-95147549D01*
X150558923Y-95140190D01*
X150536284Y-95130813D01*
X150512251Y-95126033D01*
X150487747Y-95126033D01*
X150463714Y-95130814D01*
X150441077Y-95140190D01*
X150427309Y-95147549D01*
X150420295Y-95149677D01*
X150406860Y-95151000D01*
X150093140Y-95151000D01*
X150079705Y-95149677D01*
X150072691Y-95147549D01*
X150058923Y-95140190D01*
X150036284Y-95130813D01*
X150012251Y-95126033D01*
X149987747Y-95126033D01*
X149963714Y-95130814D01*
X149941077Y-95140190D01*
X149927309Y-95147549D01*
X149920295Y-95149677D01*
X149906860Y-95151000D01*
X149593140Y-95151000D01*
X149579705Y-95149677D01*
X149572691Y-95147549D01*
X149558923Y-95140190D01*
X149536284Y-95130813D01*
X149512251Y-95126033D01*
X149487747Y-95126033D01*
X149463714Y-95130814D01*
X149441077Y-95140190D01*
X149427309Y-95147549D01*
X149420295Y-95149677D01*
X149406860Y-95151000D01*
X149093140Y-95151000D01*
X149079705Y-95149677D01*
X149072691Y-95147549D01*
X149058923Y-95140190D01*
X149036284Y-95130813D01*
X149012251Y-95126033D01*
X148987747Y-95126033D01*
X148963714Y-95130814D01*
X148941077Y-95140190D01*
X148927309Y-95147549D01*
X148920295Y-95149677D01*
X148906860Y-95151000D01*
X148593140Y-95151000D01*
X148579705Y-95149677D01*
X148572691Y-95147549D01*
X148558923Y-95140190D01*
X148536284Y-95130813D01*
X148512251Y-95126033D01*
X148487747Y-95126033D01*
X148463714Y-95130814D01*
X148441077Y-95140190D01*
X148427309Y-95147549D01*
X148420295Y-95149677D01*
X148406860Y-95151000D01*
X148093140Y-95151000D01*
X148079705Y-95149677D01*
X148072691Y-95147549D01*
X148058923Y-95140190D01*
X148036284Y-95130813D01*
X148012251Y-95126033D01*
X147987747Y-95126033D01*
X147963714Y-95130814D01*
X147941077Y-95140190D01*
X147927309Y-95147549D01*
X147920295Y-95149677D01*
X147906860Y-95151000D01*
X147593140Y-95151000D01*
X147579705Y-95149677D01*
X147572691Y-95147549D01*
X147558923Y-95140190D01*
X147536284Y-95130813D01*
X147512251Y-95126033D01*
X147487747Y-95126033D01*
X147463714Y-95130814D01*
X147441077Y-95140190D01*
X147427309Y-95147549D01*
X147420295Y-95149677D01*
X147406860Y-95151000D01*
X147093140Y-95151000D01*
X147079705Y-95149677D01*
X147072691Y-95147549D01*
X147058923Y-95140190D01*
X147036284Y-95130813D01*
X147012251Y-95126033D01*
X146987747Y-95126033D01*
X146963714Y-95130814D01*
X146941077Y-95140190D01*
X146927309Y-95147549D01*
X146920295Y-95149677D01*
X146906860Y-95151000D01*
X146593140Y-95151000D01*
X146579705Y-95149677D01*
X146572691Y-95147549D01*
X146558923Y-95140190D01*
X146536284Y-95130813D01*
X146512251Y-95126033D01*
X146487747Y-95126033D01*
X146463714Y-95130814D01*
X146441077Y-95140190D01*
X146427309Y-95147549D01*
X146420295Y-95149677D01*
X146406860Y-95151000D01*
X146093140Y-95151000D01*
X146079705Y-95149677D01*
X146072690Y-95147549D01*
X146066224Y-95144092D01*
X146060558Y-95139442D01*
X146055908Y-95133776D01*
X146052451Y-95127310D01*
X146050323Y-95120295D01*
X146049000Y-95106860D01*
X146049000Y-93543140D01*
X146050323Y-93529705D01*
X146052451Y-93522690D01*
X146055908Y-93516224D01*
X146060558Y-93510558D01*
X146066224Y-93505908D01*
X146072690Y-93502451D01*
X146079705Y-93500323D01*
X146093140Y-93499000D01*
X146406860Y-93499000D01*
X146420295Y-93500323D01*
G37*
G36*
X135304591Y-93728085D02*
G01*
X135338569Y-93738393D01*
X135369890Y-93755134D01*
X135397339Y-93777661D01*
X135419866Y-93805110D01*
X135436607Y-93836431D01*
X135446915Y-93870409D01*
X135451000Y-93911890D01*
X135451000Y-94588110D01*
X135446915Y-94629591D01*
X135436607Y-94663569D01*
X135419866Y-94694890D01*
X135397339Y-94722339D01*
X135369890Y-94744866D01*
X135338569Y-94761607D01*
X135304591Y-94771915D01*
X135263110Y-94776000D01*
X134661890Y-94776000D01*
X134620409Y-94771915D01*
X134586431Y-94761607D01*
X134555110Y-94744866D01*
X134527661Y-94722339D01*
X134505134Y-94694890D01*
X134488393Y-94663569D01*
X134478085Y-94629591D01*
X134474000Y-94588110D01*
X134474000Y-93911890D01*
X134478085Y-93870409D01*
X134488393Y-93836431D01*
X134505134Y-93805110D01*
X134527661Y-93777661D01*
X134555110Y-93755134D01*
X134586431Y-93738393D01*
X134620409Y-93728085D01*
X134661890Y-93724000D01*
X135263110Y-93724000D01*
X135304591Y-93728085D01*
G37*
G36*
X136879591Y-93728085D02*
G01*
X136913569Y-93738393D01*
X136944890Y-93755134D01*
X136972339Y-93777661D01*
X136994866Y-93805110D01*
X137011607Y-93836431D01*
X137021915Y-93870409D01*
X137026000Y-93911890D01*
X137026000Y-94588110D01*
X137021915Y-94629591D01*
X137011607Y-94663569D01*
X136994866Y-94694890D01*
X136972339Y-94722339D01*
X136944890Y-94744866D01*
X136913569Y-94761607D01*
X136879591Y-94771915D01*
X136838110Y-94776000D01*
X136236890Y-94776000D01*
X136195409Y-94771915D01*
X136161431Y-94761607D01*
X136130110Y-94744866D01*
X136102661Y-94722339D01*
X136080134Y-94694890D01*
X136063393Y-94663569D01*
X136053085Y-94629591D01*
X136049000Y-94588110D01*
X136049000Y-93911890D01*
X136053085Y-93870409D01*
X136063393Y-93836431D01*
X136080134Y-93805110D01*
X136102661Y-93777661D01*
X136130110Y-93755134D01*
X136161431Y-93738393D01*
X136195409Y-93728085D01*
X136236890Y-93724000D01*
X136838110Y-93724000D01*
X136879591Y-93728085D01*
G37*
G36*
X184917091Y-92578085D02*
G01*
X184951069Y-92588393D01*
X184982390Y-92605134D01*
X185009839Y-92627661D01*
X185032366Y-92655110D01*
X185049107Y-92686431D01*
X185059415Y-92720409D01*
X185063500Y-92761890D01*
X185063500Y-93438110D01*
X185059415Y-93479591D01*
X185049107Y-93513569D01*
X185032366Y-93544890D01*
X185009839Y-93572339D01*
X184982390Y-93594866D01*
X184951069Y-93611607D01*
X184917091Y-93621915D01*
X184875610Y-93626000D01*
X184274390Y-93626000D01*
X184232909Y-93621915D01*
X184198931Y-93611607D01*
X184167610Y-93594866D01*
X184140161Y-93572339D01*
X184117634Y-93544890D01*
X184100893Y-93513569D01*
X184090585Y-93479591D01*
X184086500Y-93438110D01*
X184086500Y-92761890D01*
X184090585Y-92720409D01*
X184100893Y-92686431D01*
X184117634Y-92655110D01*
X184140161Y-92627661D01*
X184167610Y-92605134D01*
X184198931Y-92588393D01*
X184232909Y-92578085D01*
X184274390Y-92574000D01*
X184875610Y-92574000D01*
X184917091Y-92578085D01*
G37*
G36*
X183342091Y-92578085D02*
G01*
X183376069Y-92588393D01*
X183407390Y-92605134D01*
X183434839Y-92627661D01*
X183457366Y-92655110D01*
X183474107Y-92686431D01*
X183484415Y-92720409D01*
X183488500Y-92761890D01*
X183488500Y-93438110D01*
X183484415Y-93479591D01*
X183474107Y-93513569D01*
X183457366Y-93544890D01*
X183434839Y-93572339D01*
X183407390Y-93594866D01*
X183376069Y-93611607D01*
X183342091Y-93621915D01*
X183300610Y-93626000D01*
X182699390Y-93626000D01*
X182657909Y-93621915D01*
X182623931Y-93611607D01*
X182592610Y-93594866D01*
X182565161Y-93572339D01*
X182542634Y-93544890D01*
X182525893Y-93513569D01*
X182515585Y-93479591D01*
X182511500Y-93438110D01*
X182511500Y-92761890D01*
X182515585Y-92720409D01*
X182525893Y-92686431D01*
X182542634Y-92655110D01*
X182565161Y-92627661D01*
X182592610Y-92605134D01*
X182623931Y-92588393D01*
X182657909Y-92578085D01*
X182699390Y-92574000D01*
X183300610Y-92574000D01*
X183342091Y-92578085D01*
G37*
G36*
X195092091Y-92303085D02*
G01*
X195126069Y-92313393D01*
X195157390Y-92330134D01*
X195184839Y-92352661D01*
X195207366Y-92380110D01*
X195224107Y-92411431D01*
X195234415Y-92445409D01*
X195238500Y-92486890D01*
X195238500Y-93088110D01*
X195234415Y-93129591D01*
X195224107Y-93163569D01*
X195207366Y-93194890D01*
X195184839Y-93222339D01*
X195157390Y-93244866D01*
X195126069Y-93261607D01*
X195092091Y-93271915D01*
X195050610Y-93276000D01*
X194374390Y-93276000D01*
X194332909Y-93271915D01*
X194298931Y-93261607D01*
X194267610Y-93244866D01*
X194240161Y-93222339D01*
X194217634Y-93194890D01*
X194200893Y-93163569D01*
X194190585Y-93129591D01*
X194186500Y-93088110D01*
X194186500Y-92486890D01*
X194190585Y-92445409D01*
X194200893Y-92411431D01*
X194217634Y-92380110D01*
X194240161Y-92352661D01*
X194267610Y-92330134D01*
X194298931Y-92313393D01*
X194332909Y-92303085D01*
X194374390Y-92299000D01*
X195050610Y-92299000D01*
X195092091Y-92303085D01*
G37*
G36*
X146429591Y-91478085D02*
G01*
X146463569Y-91488393D01*
X146494890Y-91505134D01*
X146522339Y-91527661D01*
X146544866Y-91555110D01*
X146561607Y-91586431D01*
X146571915Y-91620409D01*
X146576000Y-91661890D01*
X146576000Y-92338110D01*
X146571915Y-92379591D01*
X146561607Y-92413569D01*
X146544866Y-92444890D01*
X146522339Y-92472339D01*
X146494890Y-92494866D01*
X146463569Y-92511607D01*
X146429591Y-92521915D01*
X146388110Y-92526000D01*
X145786890Y-92526000D01*
X145745409Y-92521915D01*
X145711431Y-92511607D01*
X145680110Y-92494866D01*
X145652661Y-92472339D01*
X145630134Y-92444890D01*
X145613393Y-92413569D01*
X145603085Y-92379591D01*
X145599000Y-92338110D01*
X145599000Y-91661890D01*
X145603085Y-91620409D01*
X145613393Y-91586431D01*
X145630134Y-91555110D01*
X145652661Y-91527661D01*
X145680110Y-91505134D01*
X145711431Y-91488393D01*
X145745409Y-91478085D01*
X145786890Y-91474000D01*
X146388110Y-91474000D01*
X146429591Y-91478085D01*
G37*
G36*
X144854591Y-91478085D02*
G01*
X144888569Y-91488393D01*
X144919890Y-91505134D01*
X144947339Y-91527661D01*
X144969866Y-91555110D01*
X144986607Y-91586431D01*
X144996915Y-91620409D01*
X145001000Y-91661890D01*
X145001000Y-92338110D01*
X144996915Y-92379591D01*
X144986607Y-92413569D01*
X144969866Y-92444890D01*
X144947339Y-92472339D01*
X144919890Y-92494866D01*
X144888569Y-92511607D01*
X144854591Y-92521915D01*
X144813110Y-92526000D01*
X144211890Y-92526000D01*
X144170409Y-92521915D01*
X144136431Y-92511607D01*
X144105110Y-92494866D01*
X144077661Y-92472339D01*
X144055134Y-92444890D01*
X144038393Y-92413569D01*
X144028085Y-92379591D01*
X144024000Y-92338110D01*
X144024000Y-91661890D01*
X144028085Y-91620409D01*
X144038393Y-91586431D01*
X144055134Y-91555110D01*
X144077661Y-91527661D01*
X144105110Y-91505134D01*
X144136431Y-91488393D01*
X144170409Y-91478085D01*
X144211890Y-91474000D01*
X144813110Y-91474000D01*
X144854591Y-91478085D01*
G37*
G36*
X181971968Y-90553565D02*
G01*
X182010638Y-90565296D01*
X182046277Y-90584346D01*
X182077517Y-90609983D01*
X182103154Y-90641223D01*
X182122204Y-90676862D01*
X182133935Y-90715532D01*
X182138500Y-90761888D01*
X182138500Y-91838112D01*
X182133935Y-91884468D01*
X182122204Y-91923138D01*
X182103154Y-91958777D01*
X182077517Y-91990017D01*
X182046277Y-92015654D01*
X182010638Y-92034704D01*
X181971968Y-92046435D01*
X181925612Y-92051000D01*
X181274388Y-92051000D01*
X181228032Y-92046435D01*
X181189362Y-92034704D01*
X181153723Y-92015654D01*
X181122483Y-91990017D01*
X181096846Y-91958777D01*
X181077796Y-91923138D01*
X181066065Y-91884468D01*
X181061500Y-91838112D01*
X181061500Y-90761888D01*
X181066065Y-90715532D01*
X181077796Y-90676862D01*
X181096846Y-90641223D01*
X181122483Y-90609983D01*
X181153723Y-90584346D01*
X181189362Y-90565296D01*
X181228032Y-90553565D01*
X181274388Y-90549000D01*
X181925612Y-90549000D01*
X181971968Y-90553565D01*
G37*
G36*
X180096968Y-90553565D02*
G01*
X180135638Y-90565296D01*
X180171277Y-90584346D01*
X180202517Y-90609983D01*
X180228154Y-90641223D01*
X180247204Y-90676862D01*
X180258935Y-90715532D01*
X180263500Y-90761888D01*
X180263500Y-91838112D01*
X180258935Y-91884468D01*
X180247204Y-91923138D01*
X180228154Y-91958777D01*
X180202517Y-91990017D01*
X180171277Y-92015654D01*
X180135638Y-92034704D01*
X180096968Y-92046435D01*
X180050612Y-92051000D01*
X179399388Y-92051000D01*
X179353032Y-92046435D01*
X179314362Y-92034704D01*
X179278723Y-92015654D01*
X179247483Y-91990017D01*
X179221846Y-91958777D01*
X179202796Y-91923138D01*
X179191065Y-91884468D01*
X179186500Y-91838112D01*
X179186500Y-90761888D01*
X179191065Y-90715532D01*
X179202796Y-90676862D01*
X179221846Y-90641223D01*
X179247483Y-90609983D01*
X179278723Y-90584346D01*
X179314362Y-90565296D01*
X179353032Y-90553565D01*
X179399388Y-90549000D01*
X180050612Y-90549000D01*
X180096968Y-90553565D01*
G37*
G36*
X195092091Y-90728085D02*
G01*
X195126069Y-90738393D01*
X195157390Y-90755134D01*
X195184839Y-90777661D01*
X195207366Y-90805110D01*
X195224107Y-90836431D01*
X195234415Y-90870409D01*
X195238500Y-90911890D01*
X195238500Y-91513110D01*
X195234415Y-91554591D01*
X195224107Y-91588569D01*
X195207366Y-91619890D01*
X195184839Y-91647339D01*
X195157390Y-91669866D01*
X195126069Y-91686607D01*
X195092091Y-91696915D01*
X195050610Y-91701000D01*
X194374390Y-91701000D01*
X194332909Y-91696915D01*
X194298931Y-91686607D01*
X194267610Y-91669866D01*
X194240161Y-91647339D01*
X194217634Y-91619890D01*
X194200893Y-91588569D01*
X194190585Y-91554591D01*
X194186500Y-91513110D01*
X194186500Y-90911890D01*
X194190585Y-90870409D01*
X194200893Y-90836431D01*
X194217634Y-90805110D01*
X194240161Y-90777661D01*
X194267610Y-90755134D01*
X194298931Y-90738393D01*
X194332909Y-90728085D01*
X194374390Y-90724000D01*
X195050610Y-90724000D01*
X195092091Y-90728085D01*
G37*
G36*
X161401000Y-90901000D02*
G01*
X159599000Y-90901000D01*
X159599000Y-89099000D01*
X161401000Y-89099000D01*
X161401000Y-90901000D01*
G37*
G36*
X146646968Y-89253565D02*
G01*
X146685638Y-89265296D01*
X146721277Y-89284346D01*
X146752517Y-89309983D01*
X146778154Y-89341223D01*
X146797204Y-89376862D01*
X146808935Y-89415532D01*
X146813500Y-89461888D01*
X146813500Y-90538112D01*
X146808935Y-90584468D01*
X146797204Y-90623138D01*
X146778154Y-90658777D01*
X146752517Y-90690017D01*
X146721277Y-90715654D01*
X146685638Y-90734704D01*
X146646968Y-90746435D01*
X146600612Y-90751000D01*
X145949388Y-90751000D01*
X145903032Y-90746435D01*
X145864362Y-90734704D01*
X145828723Y-90715654D01*
X145797483Y-90690017D01*
X145771846Y-90658777D01*
X145752796Y-90623138D01*
X145741065Y-90584468D01*
X145736500Y-90538112D01*
X145736500Y-89461888D01*
X145741065Y-89415532D01*
X145752796Y-89376862D01*
X145771846Y-89341223D01*
X145797483Y-89309983D01*
X145828723Y-89284346D01*
X145864362Y-89265296D01*
X145903032Y-89253565D01*
X145949388Y-89249000D01*
X146600612Y-89249000D01*
X146646968Y-89253565D01*
G37*
G36*
X144771968Y-89253565D02*
G01*
X144810638Y-89265296D01*
X144846277Y-89284346D01*
X144877517Y-89309983D01*
X144903154Y-89341223D01*
X144922204Y-89376862D01*
X144933935Y-89415532D01*
X144938500Y-89461888D01*
X144938500Y-90538112D01*
X144933935Y-90584468D01*
X144922204Y-90623138D01*
X144903154Y-90658777D01*
X144877517Y-90690017D01*
X144846277Y-90715654D01*
X144810638Y-90734704D01*
X144771968Y-90746435D01*
X144725612Y-90751000D01*
X144074388Y-90751000D01*
X144028032Y-90746435D01*
X143989362Y-90734704D01*
X143953723Y-90715654D01*
X143922483Y-90690017D01*
X143896846Y-90658777D01*
X143877796Y-90623138D01*
X143866065Y-90584468D01*
X143861500Y-90538112D01*
X143861500Y-89461888D01*
X143866065Y-89415532D01*
X143877796Y-89376862D01*
X143896846Y-89341223D01*
X143922483Y-89309983D01*
X143953723Y-89284346D01*
X143989362Y-89265296D01*
X144028032Y-89253565D01*
X144074388Y-89249000D01*
X144725612Y-89249000D01*
X144771968Y-89253565D01*
G37*
G36*
X181842091Y-88678085D02*
G01*
X181876069Y-88688393D01*
X181907390Y-88705134D01*
X181934839Y-88727661D01*
X181957366Y-88755110D01*
X181974107Y-88786431D01*
X181984415Y-88820409D01*
X181988500Y-88861890D01*
X181988500Y-89538110D01*
X181984415Y-89579591D01*
X181974107Y-89613569D01*
X181957366Y-89644890D01*
X181934839Y-89672339D01*
X181907390Y-89694866D01*
X181876069Y-89711607D01*
X181842091Y-89721915D01*
X181800610Y-89726000D01*
X181199390Y-89726000D01*
X181157909Y-89721915D01*
X181123931Y-89711607D01*
X181092610Y-89694866D01*
X181065161Y-89672339D01*
X181042634Y-89644890D01*
X181025893Y-89613569D01*
X181015585Y-89579591D01*
X181011500Y-89538110D01*
X181011500Y-88861890D01*
X181015585Y-88820409D01*
X181025893Y-88786431D01*
X181042634Y-88755110D01*
X181065161Y-88727661D01*
X181092610Y-88705134D01*
X181123931Y-88688393D01*
X181157909Y-88678085D01*
X181199390Y-88674000D01*
X181800610Y-88674000D01*
X181842091Y-88678085D01*
G37*
G36*
X180267091Y-88678085D02*
G01*
X180301069Y-88688393D01*
X180332390Y-88705134D01*
X180359839Y-88727661D01*
X180382366Y-88755110D01*
X180399107Y-88786431D01*
X180409415Y-88820409D01*
X180413500Y-88861890D01*
X180413500Y-89538110D01*
X180409415Y-89579591D01*
X180399107Y-89613569D01*
X180382366Y-89644890D01*
X180359839Y-89672339D01*
X180332390Y-89694866D01*
X180301069Y-89711607D01*
X180267091Y-89721915D01*
X180225610Y-89726000D01*
X179624390Y-89726000D01*
X179582909Y-89721915D01*
X179548931Y-89711607D01*
X179517610Y-89694866D01*
X179490161Y-89672339D01*
X179467634Y-89644890D01*
X179450893Y-89613569D01*
X179440585Y-89579591D01*
X179436500Y-89538110D01*
X179436500Y-88861890D01*
X179440585Y-88820409D01*
X179450893Y-88786431D01*
X179467634Y-88755110D01*
X179490161Y-88727661D01*
X179517610Y-88705134D01*
X179548931Y-88688393D01*
X179582909Y-88678085D01*
X179624390Y-88674000D01*
X180225610Y-88674000D01*
X180267091Y-88678085D01*
G37*
G36*
X146342091Y-87478085D02*
G01*
X146376069Y-87488393D01*
X146407390Y-87505134D01*
X146434839Y-87527661D01*
X146457366Y-87555110D01*
X146474107Y-87586431D01*
X146484415Y-87620409D01*
X146488500Y-87661890D01*
X146488500Y-88338110D01*
X146484415Y-88379591D01*
X146474107Y-88413569D01*
X146457366Y-88444890D01*
X146434839Y-88472339D01*
X146407390Y-88494866D01*
X146376069Y-88511607D01*
X146342091Y-88521915D01*
X146300610Y-88526000D01*
X145699390Y-88526000D01*
X145657909Y-88521915D01*
X145623931Y-88511607D01*
X145592610Y-88494866D01*
X145565161Y-88472339D01*
X145542634Y-88444890D01*
X145525893Y-88413569D01*
X145515585Y-88379591D01*
X145511500Y-88338110D01*
X145511500Y-87661890D01*
X145515585Y-87620409D01*
X145525893Y-87586431D01*
X145542634Y-87555110D01*
X145565161Y-87527661D01*
X145592610Y-87505134D01*
X145623931Y-87488393D01*
X145657909Y-87478085D01*
X145699390Y-87474000D01*
X146300610Y-87474000D01*
X146342091Y-87478085D01*
G37*
G36*
X144767091Y-87478085D02*
G01*
X144801069Y-87488393D01*
X144832390Y-87505134D01*
X144859839Y-87527661D01*
X144882366Y-87555110D01*
X144899107Y-87586431D01*
X144909415Y-87620409D01*
X144913500Y-87661890D01*
X144913500Y-88338110D01*
X144909415Y-88379591D01*
X144899107Y-88413569D01*
X144882366Y-88444890D01*
X144859839Y-88472339D01*
X144832390Y-88494866D01*
X144801069Y-88511607D01*
X144767091Y-88521915D01*
X144725610Y-88526000D01*
X144124390Y-88526000D01*
X144082909Y-88521915D01*
X144048931Y-88511607D01*
X144017610Y-88494866D01*
X143990161Y-88472339D01*
X143967634Y-88444890D01*
X143950893Y-88413569D01*
X143940585Y-88379591D01*
X143936500Y-88338110D01*
X143936500Y-87661890D01*
X143940585Y-87620409D01*
X143950893Y-87586431D01*
X143967634Y-87555110D01*
X143990161Y-87527661D01*
X144017610Y-87505134D01*
X144048931Y-87488393D01*
X144082909Y-87478085D01*
X144124390Y-87474000D01*
X144725610Y-87474000D01*
X144767091Y-87478085D01*
G37*
G36*
X160613512Y-86563927D02*
G01*
X160762812Y-86593624D01*
X160926784Y-86661544D01*
X161074354Y-86760147D01*
X161199853Y-86885646D01*
X161298456Y-87033216D01*
X161366376Y-87197188D01*
X161401000Y-87371259D01*
X161401000Y-87548741D01*
X161366376Y-87722812D01*
X161298456Y-87886784D01*
X161199853Y-88034354D01*
X161074354Y-88159853D01*
X160926784Y-88258456D01*
X160762812Y-88326376D01*
X160613512Y-88356073D01*
X160588742Y-88361000D01*
X160411258Y-88361000D01*
X160386488Y-88356073D01*
X160237188Y-88326376D01*
X160073216Y-88258456D01*
X159925646Y-88159853D01*
X159800147Y-88034354D01*
X159701544Y-87886784D01*
X159633624Y-87722812D01*
X159599000Y-87548741D01*
X159599000Y-87371259D01*
X159633624Y-87197188D01*
X159701544Y-87033216D01*
X159800147Y-86885646D01*
X159925646Y-86760147D01*
X160073216Y-86661544D01*
X160237188Y-86593624D01*
X160386488Y-86563927D01*
X160411258Y-86559000D01*
X160588742Y-86559000D01*
X160613512Y-86563927D01*
G37*
G36*
X180096968Y-86353565D02*
G01*
X180135638Y-86365296D01*
X180171277Y-86384346D01*
X180202517Y-86409983D01*
X180228154Y-86441223D01*
X180247204Y-86476862D01*
X180258935Y-86515532D01*
X180263500Y-86561888D01*
X180263500Y-87638112D01*
X180258935Y-87684468D01*
X180247204Y-87723138D01*
X180228154Y-87758777D01*
X180202517Y-87790017D01*
X180171277Y-87815654D01*
X180135638Y-87834704D01*
X180096968Y-87846435D01*
X180050612Y-87851000D01*
X179399388Y-87851000D01*
X179353032Y-87846435D01*
X179314362Y-87834704D01*
X179278723Y-87815654D01*
X179247483Y-87790017D01*
X179221846Y-87758777D01*
X179202796Y-87723138D01*
X179191065Y-87684468D01*
X179186500Y-87638112D01*
X179186500Y-86561888D01*
X179191065Y-86515532D01*
X179202796Y-86476862D01*
X179221846Y-86441223D01*
X179247483Y-86409983D01*
X179278723Y-86384346D01*
X179314362Y-86365296D01*
X179353032Y-86353565D01*
X179399388Y-86349000D01*
X180050612Y-86349000D01*
X180096968Y-86353565D01*
G37*
G36*
X181971968Y-86353565D02*
G01*
X182010638Y-86365296D01*
X182046277Y-86384346D01*
X182077517Y-86409983D01*
X182103154Y-86441223D01*
X182122204Y-86476862D01*
X182133935Y-86515532D01*
X182138500Y-86561888D01*
X182138500Y-87638112D01*
X182133935Y-87684468D01*
X182122204Y-87723138D01*
X182103154Y-87758777D01*
X182077517Y-87790017D01*
X182046277Y-87815654D01*
X182010638Y-87834704D01*
X181971968Y-87846435D01*
X181925612Y-87851000D01*
X181274388Y-87851000D01*
X181228032Y-87846435D01*
X181189362Y-87834704D01*
X181153723Y-87815654D01*
X181122483Y-87790017D01*
X181096846Y-87758777D01*
X181077796Y-87723138D01*
X181066065Y-87684468D01*
X181061500Y-87638112D01*
X181061500Y-86561888D01*
X181066065Y-86515532D01*
X181077796Y-86476862D01*
X181096846Y-86441223D01*
X181122483Y-86409983D01*
X181153723Y-86384346D01*
X181189362Y-86365296D01*
X181228032Y-86353565D01*
X181274388Y-86349000D01*
X181925612Y-86349000D01*
X181971968Y-86353565D01*
G37*
G36*
X176096968Y-86353565D02*
G01*
X176135638Y-86365296D01*
X176171277Y-86384346D01*
X176202517Y-86409983D01*
X176228154Y-86441223D01*
X176247204Y-86476862D01*
X176258935Y-86515532D01*
X176263500Y-86561888D01*
X176263500Y-87638112D01*
X176258935Y-87684468D01*
X176247204Y-87723138D01*
X176228154Y-87758777D01*
X176202517Y-87790017D01*
X176171277Y-87815654D01*
X176135638Y-87834704D01*
X176096968Y-87846435D01*
X176050612Y-87851000D01*
X175399388Y-87851000D01*
X175353032Y-87846435D01*
X175314362Y-87834704D01*
X175278723Y-87815654D01*
X175247483Y-87790017D01*
X175221846Y-87758777D01*
X175202796Y-87723138D01*
X175191065Y-87684468D01*
X175186500Y-87638112D01*
X175186500Y-86561888D01*
X175191065Y-86515532D01*
X175202796Y-86476862D01*
X175221846Y-86441223D01*
X175247483Y-86409983D01*
X175278723Y-86384346D01*
X175314362Y-86365296D01*
X175353032Y-86353565D01*
X175399388Y-86349000D01*
X176050612Y-86349000D01*
X176096968Y-86353565D01*
G37*
G36*
X177971968Y-86353565D02*
G01*
X178010638Y-86365296D01*
X178046277Y-86384346D01*
X178077517Y-86409983D01*
X178103154Y-86441223D01*
X178122204Y-86476862D01*
X178133935Y-86515532D01*
X178138500Y-86561888D01*
X178138500Y-87638112D01*
X178133935Y-87684468D01*
X178122204Y-87723138D01*
X178103154Y-87758777D01*
X178077517Y-87790017D01*
X178046277Y-87815654D01*
X178010638Y-87834704D01*
X177971968Y-87846435D01*
X177925612Y-87851000D01*
X177274388Y-87851000D01*
X177228032Y-87846435D01*
X177189362Y-87834704D01*
X177153723Y-87815654D01*
X177122483Y-87790017D01*
X177096846Y-87758777D01*
X177077796Y-87723138D01*
X177066065Y-87684468D01*
X177061500Y-87638112D01*
X177061500Y-86561888D01*
X177066065Y-86515532D01*
X177077796Y-86476862D01*
X177096846Y-86441223D01*
X177122483Y-86409983D01*
X177153723Y-86384346D01*
X177189362Y-86365296D01*
X177228032Y-86353565D01*
X177274388Y-86349000D01*
X177925612Y-86349000D01*
X177971968Y-86353565D01*
G37*
G36*
X120751000Y-86451000D02*
G01*
X118949000Y-86451000D01*
X118949000Y-85349000D01*
X120751000Y-85349000D01*
X120751000Y-86451000D01*
G37*
G36*
X127051000Y-86451000D02*
G01*
X125249000Y-86451000D01*
X125249000Y-85349000D01*
X127051000Y-85349000D01*
X127051000Y-86451000D01*
G37*
G36*
X117379591Y-85303085D02*
G01*
X117413569Y-85313393D01*
X117444890Y-85330134D01*
X117472339Y-85352661D01*
X117494866Y-85380110D01*
X117511607Y-85411431D01*
X117521915Y-85445409D01*
X117526000Y-85486890D01*
X117526000Y-86088110D01*
X117521915Y-86129591D01*
X117511607Y-86163569D01*
X117494866Y-86194890D01*
X117472339Y-86222339D01*
X117444890Y-86244866D01*
X117413569Y-86261607D01*
X117379591Y-86271915D01*
X117338110Y-86276000D01*
X116661890Y-86276000D01*
X116620409Y-86271915D01*
X116586431Y-86261607D01*
X116555110Y-86244866D01*
X116527661Y-86222339D01*
X116505134Y-86194890D01*
X116488393Y-86163569D01*
X116478085Y-86129591D01*
X116474000Y-86088110D01*
X116474000Y-85486890D01*
X116478085Y-85445409D01*
X116488393Y-85411431D01*
X116505134Y-85380110D01*
X116527661Y-85352661D01*
X116555110Y-85330134D01*
X116586431Y-85313393D01*
X116620409Y-85303085D01*
X116661890Y-85299000D01*
X117338110Y-85299000D01*
X117379591Y-85303085D01*
G37*
G36*
X138151691Y-84353565D02*
G01*
X138302812Y-84383624D01*
X138466784Y-84451544D01*
X138614354Y-84550147D01*
X138739853Y-84675646D01*
X138838456Y-84823216D01*
X138906376Y-84987188D01*
X138936073Y-85136488D01*
X138941000Y-85161258D01*
X138941000Y-85338742D01*
X138938231Y-85352661D01*
X138906376Y-85512812D01*
X138838456Y-85676784D01*
X138739853Y-85824354D01*
X138614354Y-85949853D01*
X138466784Y-86048456D01*
X138302812Y-86116376D01*
X138153512Y-86146073D01*
X138128742Y-86151000D01*
X137951258Y-86151000D01*
X137926488Y-86146073D01*
X137777188Y-86116376D01*
X137613216Y-86048456D01*
X137465646Y-85949853D01*
X137340147Y-85824354D01*
X137241544Y-85676784D01*
X137173624Y-85512812D01*
X137141769Y-85352661D01*
X137139000Y-85338742D01*
X137139000Y-85161258D01*
X137143927Y-85136488D01*
X137173624Y-84987188D01*
X137241544Y-84823216D01*
X137340147Y-84675646D01*
X137465646Y-84550147D01*
X137613216Y-84451544D01*
X137777188Y-84383624D01*
X137928309Y-84353565D01*
X137951258Y-84349000D01*
X138128742Y-84349000D01*
X138151691Y-84353565D01*
G37*
G36*
X133861000Y-86151000D02*
G01*
X132059000Y-86151000D01*
X132059000Y-84349000D01*
X133861000Y-84349000D01*
X133861000Y-86151000D01*
G37*
G36*
X135611691Y-84353565D02*
G01*
X135762812Y-84383624D01*
X135926784Y-84451544D01*
X136074354Y-84550147D01*
X136199853Y-84675646D01*
X136298456Y-84823216D01*
X136366376Y-84987188D01*
X136396073Y-85136488D01*
X136401000Y-85161258D01*
X136401000Y-85338742D01*
X136398231Y-85352661D01*
X136366376Y-85512812D01*
X136298456Y-85676784D01*
X136199853Y-85824354D01*
X136074354Y-85949853D01*
X135926784Y-86048456D01*
X135762812Y-86116376D01*
X135613512Y-86146073D01*
X135588742Y-86151000D01*
X135411258Y-86151000D01*
X135386488Y-86146073D01*
X135237188Y-86116376D01*
X135073216Y-86048456D01*
X134925646Y-85949853D01*
X134800147Y-85824354D01*
X134701544Y-85676784D01*
X134633624Y-85512812D01*
X134601769Y-85352661D01*
X134599000Y-85338742D01*
X134599000Y-85161258D01*
X134603927Y-85136488D01*
X134633624Y-84987188D01*
X134701544Y-84823216D01*
X134800147Y-84675646D01*
X134925646Y-84550147D01*
X135073216Y-84451544D01*
X135237188Y-84383624D01*
X135388309Y-84353565D01*
X135411258Y-84349000D01*
X135588742Y-84349000D01*
X135611691Y-84353565D01*
G37*
G36*
X177971968Y-84353565D02*
G01*
X178010638Y-84365296D01*
X178046277Y-84384346D01*
X178077517Y-84409983D01*
X178103154Y-84441223D01*
X178122204Y-84476862D01*
X178133935Y-84515532D01*
X178138500Y-84561888D01*
X178138500Y-85638112D01*
X178133935Y-85684468D01*
X178122204Y-85723138D01*
X178103154Y-85758777D01*
X178077517Y-85790017D01*
X178046277Y-85815654D01*
X178010638Y-85834704D01*
X177971968Y-85846435D01*
X177925612Y-85851000D01*
X177274388Y-85851000D01*
X177228032Y-85846435D01*
X177189362Y-85834704D01*
X177153723Y-85815654D01*
X177122483Y-85790017D01*
X177096846Y-85758777D01*
X177077796Y-85723138D01*
X177066065Y-85684468D01*
X177061500Y-85638112D01*
X177061500Y-84561888D01*
X177066065Y-84515532D01*
X177077796Y-84476862D01*
X177096846Y-84441223D01*
X177122483Y-84409983D01*
X177153723Y-84384346D01*
X177189362Y-84365296D01*
X177228032Y-84353565D01*
X177274388Y-84349000D01*
X177925612Y-84349000D01*
X177971968Y-84353565D01*
G37*
G36*
X181971968Y-84353565D02*
G01*
X182010638Y-84365296D01*
X182046277Y-84384346D01*
X182077517Y-84409983D01*
X182103154Y-84441223D01*
X182122204Y-84476862D01*
X182133935Y-84515532D01*
X182138500Y-84561888D01*
X182138500Y-85638112D01*
X182133935Y-85684468D01*
X182122204Y-85723138D01*
X182103154Y-85758777D01*
X182077517Y-85790017D01*
X182046277Y-85815654D01*
X182010638Y-85834704D01*
X181971968Y-85846435D01*
X181925612Y-85851000D01*
X181274388Y-85851000D01*
X181228032Y-85846435D01*
X181189362Y-85834704D01*
X181153723Y-85815654D01*
X181122483Y-85790017D01*
X181096846Y-85758777D01*
X181077796Y-85723138D01*
X181066065Y-85684468D01*
X181061500Y-85638112D01*
X181061500Y-84561888D01*
X181066065Y-84515532D01*
X181077796Y-84476862D01*
X181096846Y-84441223D01*
X181122483Y-84409983D01*
X181153723Y-84384346D01*
X181189362Y-84365296D01*
X181228032Y-84353565D01*
X181274388Y-84349000D01*
X181925612Y-84349000D01*
X181971968Y-84353565D01*
G37*
G36*
X180096968Y-84353565D02*
G01*
X180135638Y-84365296D01*
X180171277Y-84384346D01*
X180202517Y-84409983D01*
X180228154Y-84441223D01*
X180247204Y-84476862D01*
X180258935Y-84515532D01*
X180263500Y-84561888D01*
X180263500Y-85638112D01*
X180258935Y-85684468D01*
X180247204Y-85723138D01*
X180228154Y-85758777D01*
X180202517Y-85790017D01*
X180171277Y-85815654D01*
X180135638Y-85834704D01*
X180096968Y-85846435D01*
X180050612Y-85851000D01*
X179399388Y-85851000D01*
X179353032Y-85846435D01*
X179314362Y-85834704D01*
X179278723Y-85815654D01*
X179247483Y-85790017D01*
X179221846Y-85758777D01*
X179202796Y-85723138D01*
X179191065Y-85684468D01*
X179186500Y-85638112D01*
X179186500Y-84561888D01*
X179191065Y-84515532D01*
X179202796Y-84476862D01*
X179221846Y-84441223D01*
X179247483Y-84409983D01*
X179278723Y-84384346D01*
X179314362Y-84365296D01*
X179353032Y-84353565D01*
X179399388Y-84349000D01*
X180050612Y-84349000D01*
X180096968Y-84353565D01*
G37*
G36*
X176096968Y-84353565D02*
G01*
X176135638Y-84365296D01*
X176171277Y-84384346D01*
X176202517Y-84409983D01*
X176228154Y-84441223D01*
X176247204Y-84476862D01*
X176258935Y-84515532D01*
X176263500Y-84561888D01*
X176263500Y-85638112D01*
X176258935Y-85684468D01*
X176247204Y-85723138D01*
X176228154Y-85758777D01*
X176202517Y-85790017D01*
X176171277Y-85815654D01*
X176135638Y-85834704D01*
X176096968Y-85846435D01*
X176050612Y-85851000D01*
X175399388Y-85851000D01*
X175353032Y-85846435D01*
X175314362Y-85834704D01*
X175278723Y-85815654D01*
X175247483Y-85790017D01*
X175221846Y-85758777D01*
X175202796Y-85723138D01*
X175191065Y-85684468D01*
X175186500Y-85638112D01*
X175186500Y-84561888D01*
X175191065Y-84515532D01*
X175202796Y-84476862D01*
X175221846Y-84441223D01*
X175247483Y-84409983D01*
X175278723Y-84384346D01*
X175314362Y-84365296D01*
X175353032Y-84353565D01*
X175399388Y-84349000D01*
X176050612Y-84349000D01*
X176096968Y-84353565D01*
G37*
G36*
X160613512Y-84023927D02*
G01*
X160762812Y-84053624D01*
X160926784Y-84121544D01*
X161074354Y-84220147D01*
X161199853Y-84345646D01*
X161298456Y-84493216D01*
X161366376Y-84657188D01*
X161401000Y-84831259D01*
X161401000Y-85008741D01*
X161366376Y-85182812D01*
X161298456Y-85346784D01*
X161199853Y-85494354D01*
X161074354Y-85619853D01*
X160926784Y-85718456D01*
X160762812Y-85786376D01*
X160615618Y-85815654D01*
X160588742Y-85821000D01*
X160411258Y-85821000D01*
X160384382Y-85815654D01*
X160237188Y-85786376D01*
X160073216Y-85718456D01*
X159925646Y-85619853D01*
X159800147Y-85494354D01*
X159701544Y-85346784D01*
X159633624Y-85182812D01*
X159599000Y-85008741D01*
X159599000Y-84831259D01*
X159633624Y-84657188D01*
X159701544Y-84493216D01*
X159800147Y-84345646D01*
X159925646Y-84220147D01*
X160073216Y-84121544D01*
X160237188Y-84053624D01*
X160386488Y-84023927D01*
X160411258Y-84019000D01*
X160588742Y-84019000D01*
X160613512Y-84023927D01*
G37*
G36*
X117379591Y-83728085D02*
G01*
X117413569Y-83738393D01*
X117444890Y-83755134D01*
X117472339Y-83777661D01*
X117494866Y-83805110D01*
X117511607Y-83836431D01*
X117521915Y-83870409D01*
X117526000Y-83911890D01*
X117526000Y-84513110D01*
X117521915Y-84554591D01*
X117511607Y-84588569D01*
X117494866Y-84619890D01*
X117472339Y-84647339D01*
X117444890Y-84669866D01*
X117413569Y-84686607D01*
X117379591Y-84696915D01*
X117338110Y-84701000D01*
X116661890Y-84701000D01*
X116620409Y-84696915D01*
X116586431Y-84686607D01*
X116555110Y-84669866D01*
X116527661Y-84647339D01*
X116505134Y-84619890D01*
X116488393Y-84588569D01*
X116478085Y-84554591D01*
X116474000Y-84513110D01*
X116474000Y-83911890D01*
X116478085Y-83870409D01*
X116488393Y-83836431D01*
X116505134Y-83805110D01*
X116527661Y-83777661D01*
X116555110Y-83755134D01*
X116586431Y-83738393D01*
X116620409Y-83728085D01*
X116661890Y-83724000D01*
X117338110Y-83724000D01*
X117379591Y-83728085D01*
G37*
G36*
X120751000Y-82651000D02*
G01*
X118949000Y-82651000D01*
X118949000Y-81549000D01*
X120751000Y-81549000D01*
X120751000Y-82651000D01*
G37*
G36*
X127051000Y-82651000D02*
G01*
X125249000Y-82651000D01*
X125249000Y-81549000D01*
X127051000Y-81549000D01*
X127051000Y-82651000D01*
G37*
G36*
X146283512Y-80343927D02*
G01*
X146432812Y-80373624D01*
X146596784Y-80441544D01*
X146744354Y-80540147D01*
X146869853Y-80665646D01*
X146968456Y-80813216D01*
X147036376Y-80977188D01*
X147071000Y-81151259D01*
X147071000Y-81328741D01*
X147036376Y-81502812D01*
X146968456Y-81666784D01*
X146869853Y-81814354D01*
X146744354Y-81939853D01*
X146596784Y-82038456D01*
X146432812Y-82106376D01*
X146283512Y-82136073D01*
X146258742Y-82141000D01*
X146081258Y-82141000D01*
X146056488Y-82136073D01*
X145907188Y-82106376D01*
X145743216Y-82038456D01*
X145595646Y-81939853D01*
X145470147Y-81814354D01*
X145371544Y-81666784D01*
X145303624Y-81502812D01*
X145269000Y-81328741D01*
X145269000Y-81151259D01*
X145303624Y-80977188D01*
X145371544Y-80813216D01*
X145470147Y-80665646D01*
X145595646Y-80540147D01*
X145743216Y-80441544D01*
X145907188Y-80373624D01*
X146056488Y-80343927D01*
X146081258Y-80339000D01*
X146258742Y-80339000D01*
X146283512Y-80343927D01*
G37*
G36*
X148823512Y-80343927D02*
G01*
X148972812Y-80373624D01*
X149136784Y-80441544D01*
X149284354Y-80540147D01*
X149409853Y-80665646D01*
X149508456Y-80813216D01*
X149576376Y-80977188D01*
X149611000Y-81151259D01*
X149611000Y-81328741D01*
X149576376Y-81502812D01*
X149508456Y-81666784D01*
X149409853Y-81814354D01*
X149284354Y-81939853D01*
X149136784Y-82038456D01*
X148972812Y-82106376D01*
X148823512Y-82136073D01*
X148798742Y-82141000D01*
X148621258Y-82141000D01*
X148596488Y-82136073D01*
X148447188Y-82106376D01*
X148283216Y-82038456D01*
X148135646Y-81939853D01*
X148010147Y-81814354D01*
X147911544Y-81666784D01*
X147843624Y-81502812D01*
X147809000Y-81328741D01*
X147809000Y-81151259D01*
X147843624Y-80977188D01*
X147911544Y-80813216D01*
X148010147Y-80665646D01*
X148135646Y-80540147D01*
X148283216Y-80441544D01*
X148447188Y-80373624D01*
X148596488Y-80343927D01*
X148621258Y-80339000D01*
X148798742Y-80339000D01*
X148823512Y-80343927D01*
G37*
G36*
X151363512Y-80343927D02*
G01*
X151512812Y-80373624D01*
X151676784Y-80441544D01*
X151824354Y-80540147D01*
X151949853Y-80665646D01*
X152048456Y-80813216D01*
X152116376Y-80977188D01*
X152151000Y-81151259D01*
X152151000Y-81328741D01*
X152116376Y-81502812D01*
X152048456Y-81666784D01*
X151949853Y-81814354D01*
X151824354Y-81939853D01*
X151676784Y-82038456D01*
X151512812Y-82106376D01*
X151363512Y-82136073D01*
X151338742Y-82141000D01*
X151161258Y-82141000D01*
X151136488Y-82136073D01*
X150987188Y-82106376D01*
X150823216Y-82038456D01*
X150675646Y-81939853D01*
X150550147Y-81814354D01*
X150451544Y-81666784D01*
X150383624Y-81502812D01*
X150349000Y-81328741D01*
X150349000Y-81151259D01*
X150383624Y-80977188D01*
X150451544Y-80813216D01*
X150550147Y-80665646D01*
X150675646Y-80540147D01*
X150823216Y-80441544D01*
X150987188Y-80373624D01*
X151136488Y-80343927D01*
X151161258Y-80339000D01*
X151338742Y-80339000D01*
X151363512Y-80343927D01*
G37*
G36*
X153903512Y-80343927D02*
G01*
X154052812Y-80373624D01*
X154216784Y-80441544D01*
X154364354Y-80540147D01*
X154489853Y-80665646D01*
X154588456Y-80813216D01*
X154656376Y-80977188D01*
X154691000Y-81151259D01*
X154691000Y-81328741D01*
X154656376Y-81502812D01*
X154588456Y-81666784D01*
X154489853Y-81814354D01*
X154364354Y-81939853D01*
X154216784Y-82038456D01*
X154052812Y-82106376D01*
X153903512Y-82136073D01*
X153878742Y-82141000D01*
X153701258Y-82141000D01*
X153676488Y-82136073D01*
X153527188Y-82106376D01*
X153363216Y-82038456D01*
X153215646Y-81939853D01*
X153090147Y-81814354D01*
X152991544Y-81666784D01*
X152923624Y-81502812D01*
X152889000Y-81328741D01*
X152889000Y-81151259D01*
X152923624Y-80977188D01*
X152991544Y-80813216D01*
X153090147Y-80665646D01*
X153215646Y-80540147D01*
X153363216Y-80441544D01*
X153527188Y-80373624D01*
X153676488Y-80343927D01*
X153701258Y-80339000D01*
X153878742Y-80339000D01*
X153903512Y-80343927D01*
G37*
G36*
X147071000Y-79601000D02*
G01*
X145269000Y-79601000D01*
X145269000Y-77799000D01*
X147071000Y-77799000D01*
X147071000Y-79601000D01*
G37*
G36*
X148823512Y-77803927D02*
G01*
X148972812Y-77833624D01*
X149136784Y-77901544D01*
X149284354Y-78000147D01*
X149409853Y-78125646D01*
X149508456Y-78273216D01*
X149576376Y-78437188D01*
X149611000Y-78611259D01*
X149611000Y-78788741D01*
X149576376Y-78962812D01*
X149508456Y-79126784D01*
X149409853Y-79274354D01*
X149284354Y-79399853D01*
X149136784Y-79498456D01*
X148972812Y-79566376D01*
X148823512Y-79596073D01*
X148798742Y-79601000D01*
X148621258Y-79601000D01*
X148596488Y-79596073D01*
X148447188Y-79566376D01*
X148283216Y-79498456D01*
X148135646Y-79399853D01*
X148010147Y-79274354D01*
X147911544Y-79126784D01*
X147843624Y-78962812D01*
X147809000Y-78788741D01*
X147809000Y-78611259D01*
X147843624Y-78437188D01*
X147911544Y-78273216D01*
X148010147Y-78125646D01*
X148135646Y-78000147D01*
X148283216Y-77901544D01*
X148447188Y-77833624D01*
X148596488Y-77803927D01*
X148621258Y-77799000D01*
X148798742Y-77799000D01*
X148823512Y-77803927D01*
G37*
G36*
X151363512Y-77803927D02*
G01*
X151512812Y-77833624D01*
X151676784Y-77901544D01*
X151824354Y-78000147D01*
X151949853Y-78125646D01*
X152048456Y-78273216D01*
X152116376Y-78437188D01*
X152151000Y-78611259D01*
X152151000Y-78788741D01*
X152116376Y-78962812D01*
X152048456Y-79126784D01*
X151949853Y-79274354D01*
X151824354Y-79399853D01*
X151676784Y-79498456D01*
X151512812Y-79566376D01*
X151363512Y-79596073D01*
X151338742Y-79601000D01*
X151161258Y-79601000D01*
X151136488Y-79596073D01*
X150987188Y-79566376D01*
X150823216Y-79498456D01*
X150675646Y-79399853D01*
X150550147Y-79274354D01*
X150451544Y-79126784D01*
X150383624Y-78962812D01*
X150349000Y-78788741D01*
X150349000Y-78611259D01*
X150383624Y-78437188D01*
X150451544Y-78273216D01*
X150550147Y-78125646D01*
X150675646Y-78000147D01*
X150823216Y-77901544D01*
X150987188Y-77833624D01*
X151136488Y-77803927D01*
X151161258Y-77799000D01*
X151338742Y-77799000D01*
X151363512Y-77803927D01*
G37*
G36*
X153903512Y-77803927D02*
G01*
X154052812Y-77833624D01*
X154216784Y-77901544D01*
X154364354Y-78000147D01*
X154489853Y-78125646D01*
X154588456Y-78273216D01*
X154656376Y-78437188D01*
X154691000Y-78611259D01*
X154691000Y-78788741D01*
X154656376Y-78962812D01*
X154588456Y-79126784D01*
X154489853Y-79274354D01*
X154364354Y-79399853D01*
X154216784Y-79498456D01*
X154052812Y-79566376D01*
X153903512Y-79596073D01*
X153878742Y-79601000D01*
X153701258Y-79601000D01*
X153676488Y-79596073D01*
X153527188Y-79566376D01*
X153363216Y-79498456D01*
X153215646Y-79399853D01*
X153090147Y-79274354D01*
X152991544Y-79126784D01*
X152923624Y-78962812D01*
X152889000Y-78788741D01*
X152889000Y-78611259D01*
X152923624Y-78437188D01*
X152991544Y-78273216D01*
X153090147Y-78125646D01*
X153215646Y-78000147D01*
X153363216Y-77901544D01*
X153527188Y-77833624D01*
X153676488Y-77803927D01*
X153701258Y-77799000D01*
X153878742Y-77799000D01*
X153903512Y-77803927D01*
G37*
G36*
X161401000Y-77901000D02*
G01*
X159599000Y-77901000D01*
X159599000Y-76099000D01*
X161401000Y-76099000D01*
X161401000Y-77901000D01*
G37*
G36*
X125893270Y-73134845D02*
G01*
X126293826Y-73300761D01*
X126293828Y-73300762D01*
X126654319Y-73541634D01*
X126960892Y-73848207D01*
X127084512Y-74033218D01*
X127201765Y-74208700D01*
X127367681Y-74609256D01*
X127452263Y-75034482D01*
X127452263Y-75468044D01*
X127367681Y-75893270D01*
X127201765Y-76293826D01*
X127201764Y-76293828D01*
X126960892Y-76654319D01*
X126654319Y-76960892D01*
X126293828Y-77201764D01*
X126293827Y-77201765D01*
X126293826Y-77201765D01*
X125893270Y-77367681D01*
X125468044Y-77452263D01*
X125034482Y-77452263D01*
X124609256Y-77367681D01*
X124208700Y-77201765D01*
X124208699Y-77201765D01*
X124208698Y-77201764D01*
X123848207Y-76960892D01*
X123541634Y-76654319D01*
X123300762Y-76293828D01*
X123300761Y-76293826D01*
X123134845Y-75893270D01*
X123050263Y-75468044D01*
X123050263Y-75034482D01*
X123134845Y-74609256D01*
X123300761Y-74208700D01*
X123418014Y-74033218D01*
X123541634Y-73848207D01*
X123848207Y-73541634D01*
X124208698Y-73300762D01*
X124208700Y-73300761D01*
X124609256Y-73134845D01*
X125034482Y-73050263D01*
X125468044Y-73050263D01*
X125893270Y-73134845D01*
G37*
G36*
X175390744Y-73134845D02*
G01*
X175791300Y-73300761D01*
X175791302Y-73300762D01*
X176151793Y-73541634D01*
X176458366Y-73848207D01*
X176581986Y-74033218D01*
X176699239Y-74208700D01*
X176865155Y-74609256D01*
X176949737Y-75034482D01*
X176949737Y-75468044D01*
X176865155Y-75893270D01*
X176699239Y-76293826D01*
X176699238Y-76293828D01*
X176458366Y-76654319D01*
X176151793Y-76960892D01*
X175791302Y-77201764D01*
X175791301Y-77201765D01*
X175791300Y-77201765D01*
X175390744Y-77367681D01*
X174965518Y-77452263D01*
X174531956Y-77452263D01*
X174106730Y-77367681D01*
X173706174Y-77201765D01*
X173706173Y-77201765D01*
X173706172Y-77201764D01*
X173345681Y-76960892D01*
X173039108Y-76654319D01*
X172798236Y-76293828D01*
X172798235Y-76293826D01*
X172632319Y-75893270D01*
X172547737Y-75468044D01*
X172547737Y-75034482D01*
X172632319Y-74609256D01*
X172798235Y-74208700D01*
X172915488Y-74033218D01*
X173039108Y-73848207D01*
X173345681Y-73541634D01*
X173706172Y-73300762D01*
X173706174Y-73300761D01*
X174106730Y-73134845D01*
X174531956Y-73050263D01*
X174965518Y-73050263D01*
X175390744Y-73134845D01*
G37*
G36*
X160613512Y-73563927D02*
G01*
X160762812Y-73593624D01*
X160926784Y-73661544D01*
X161074354Y-73760147D01*
X161199853Y-73885646D01*
X161298456Y-74033216D01*
X161366376Y-74197188D01*
X161401000Y-74371259D01*
X161401000Y-74548741D01*
X161366376Y-74722812D01*
X161298456Y-74886784D01*
X161199853Y-75034354D01*
X161074354Y-75159853D01*
X160926784Y-75258456D01*
X160762812Y-75326376D01*
X160613512Y-75356073D01*
X160588742Y-75361000D01*
X160411258Y-75361000D01*
X160386488Y-75356073D01*
X160237188Y-75326376D01*
X160073216Y-75258456D01*
X159925646Y-75159853D01*
X159800147Y-75034354D01*
X159701544Y-74886784D01*
X159633624Y-74722812D01*
X159599000Y-74548741D01*
X159599000Y-74371259D01*
X159633624Y-74197188D01*
X159701544Y-74033216D01*
X159800147Y-73885646D01*
X159925646Y-73760147D01*
X160073216Y-73661544D01*
X160237188Y-73593624D01*
X160386488Y-73563927D01*
X160411258Y-73559000D01*
X160588742Y-73559000D01*
X160613512Y-73563927D01*
G37*
G36*
X160613512Y-71023927D02*
G01*
X160762812Y-71053624D01*
X160926784Y-71121544D01*
X161074354Y-71220147D01*
X161199853Y-71345646D01*
X161298456Y-71493216D01*
X161366376Y-71657188D01*
X161401000Y-71831259D01*
X161401000Y-72008741D01*
X161366376Y-72182812D01*
X161298456Y-72346784D01*
X161199853Y-72494354D01*
X161074354Y-72619853D01*
X160926784Y-72718456D01*
X160762812Y-72786376D01*
X160613512Y-72816073D01*
X160588742Y-72821000D01*
X160411258Y-72821000D01*
X160386488Y-72816073D01*
X160237188Y-72786376D01*
X160073216Y-72718456D01*
X159925646Y-72619853D01*
X159800147Y-72494354D01*
X159701544Y-72346784D01*
X159633624Y-72182812D01*
X159599000Y-72008741D01*
X159599000Y-71831259D01*
X159633624Y-71657188D01*
X159701544Y-71493216D01*
X159800147Y-71345646D01*
X159925646Y-71220147D01*
X160073216Y-71121544D01*
X160237188Y-71053624D01*
X160386488Y-71023927D01*
X160411258Y-71019000D01*
X160588742Y-71019000D01*
X160613512Y-71023927D01*
G37*
G36*
X160613512Y-68483927D02*
G01*
X160762812Y-68513624D01*
X160926784Y-68581544D01*
X161074354Y-68680147D01*
X161199853Y-68805646D01*
X161298456Y-68953216D01*
X161366376Y-69117188D01*
X161401000Y-69291259D01*
X161401000Y-69468741D01*
X161366376Y-69642812D01*
X161298456Y-69806784D01*
X161199853Y-69954354D01*
X161074354Y-70079853D01*
X160926784Y-70178456D01*
X160762812Y-70246376D01*
X160613512Y-70276073D01*
X160588742Y-70281000D01*
X160411258Y-70281000D01*
X160386488Y-70276073D01*
X160237188Y-70246376D01*
X160073216Y-70178456D01*
X159925646Y-70079853D01*
X159800147Y-69954354D01*
X159701544Y-69806784D01*
X159633624Y-69642812D01*
X159599000Y-69468741D01*
X159599000Y-69291259D01*
X159633624Y-69117188D01*
X159701544Y-68953216D01*
X159800147Y-68805646D01*
X159925646Y-68680147D01*
X160073216Y-68581544D01*
X160237188Y-68513624D01*
X160386488Y-68483927D01*
X160411258Y-68479000D01*
X160588742Y-68479000D01*
X160613512Y-68483927D01*
G37*
G36*
X160613512Y-65943927D02*
G01*
X160762812Y-65973624D01*
X160926784Y-66041544D01*
X161074354Y-66140147D01*
X161199853Y-66265646D01*
X161298456Y-66413216D01*
X161366376Y-66577188D01*
X161401000Y-66751259D01*
X161401000Y-66928741D01*
X161366376Y-67102812D01*
X161298456Y-67266784D01*
X161199853Y-67414354D01*
X161074354Y-67539853D01*
X160926784Y-67638456D01*
X160762812Y-67706376D01*
X160613512Y-67736073D01*
X160588742Y-67741000D01*
X160411258Y-67741000D01*
X160386488Y-67736073D01*
X160237188Y-67706376D01*
X160073216Y-67638456D01*
X159925646Y-67539853D01*
X159800147Y-67414354D01*
X159701544Y-67266784D01*
X159633624Y-67102812D01*
X159599000Y-66928741D01*
X159599000Y-66751259D01*
X159633624Y-66577188D01*
X159701544Y-66413216D01*
X159800147Y-66265646D01*
X159925646Y-66140147D01*
X160073216Y-66041544D01*
X160237188Y-65973624D01*
X160386488Y-65943927D01*
X160411258Y-65939000D01*
X160588742Y-65939000D01*
X160613512Y-65943927D01*
G37*
G36*
X147556601Y-64414397D02*
G01*
X147595305Y-64422096D01*
X147627340Y-64435365D01*
X147704680Y-64467400D01*
X147803115Y-64533173D01*
X147886828Y-64616886D01*
X147951067Y-64713026D01*
X147966613Y-64731968D01*
X147985555Y-64747513D01*
X148007165Y-64759064D01*
X148030614Y-64766177D01*
X148055000Y-64768579D01*
X148079386Y-64766177D01*
X148102835Y-64759064D01*
X148124446Y-64747513D01*
X148143388Y-64731967D01*
X148158933Y-64713026D01*
X148223172Y-64616886D01*
X148306885Y-64533173D01*
X148405320Y-64467400D01*
X148482660Y-64435365D01*
X148514695Y-64422096D01*
X148553399Y-64414397D01*
X148630805Y-64399000D01*
X148749195Y-64399000D01*
X148826601Y-64414397D01*
X148865305Y-64422096D01*
X148897340Y-64435365D01*
X148974680Y-64467400D01*
X149073115Y-64533173D01*
X149156828Y-64616886D01*
X149221067Y-64713026D01*
X149236613Y-64731968D01*
X149255555Y-64747513D01*
X149277165Y-64759064D01*
X149300614Y-64766177D01*
X149325000Y-64768579D01*
X149349386Y-64766177D01*
X149372835Y-64759064D01*
X149394446Y-64747513D01*
X149413388Y-64731967D01*
X149428933Y-64713026D01*
X149493172Y-64616886D01*
X149576885Y-64533173D01*
X149675320Y-64467400D01*
X149752660Y-64435365D01*
X149784695Y-64422096D01*
X149823399Y-64414397D01*
X149900805Y-64399000D01*
X150019195Y-64399000D01*
X150096601Y-64414397D01*
X150135305Y-64422096D01*
X150167340Y-64435365D01*
X150244680Y-64467400D01*
X150343115Y-64533173D01*
X150426828Y-64616886D01*
X150491067Y-64713026D01*
X150506613Y-64731968D01*
X150525555Y-64747513D01*
X150547165Y-64759064D01*
X150570614Y-64766177D01*
X150595000Y-64768579D01*
X150619386Y-64766177D01*
X150642835Y-64759064D01*
X150664446Y-64747513D01*
X150683388Y-64731967D01*
X150698933Y-64713026D01*
X150763172Y-64616886D01*
X150846885Y-64533173D01*
X150945320Y-64467400D01*
X151022660Y-64435365D01*
X151054695Y-64422096D01*
X151093399Y-64414397D01*
X151170805Y-64399000D01*
X151289195Y-64399000D01*
X151366601Y-64414397D01*
X151405305Y-64422096D01*
X151437340Y-64435365D01*
X151514680Y-64467400D01*
X151613115Y-64533173D01*
X151696828Y-64616886D01*
X151761067Y-64713026D01*
X151776613Y-64731968D01*
X151795555Y-64747513D01*
X151817165Y-64759064D01*
X151840614Y-64766177D01*
X151865000Y-64768579D01*
X151889386Y-64766177D01*
X151912835Y-64759064D01*
X151934446Y-64747513D01*
X151953388Y-64731967D01*
X151968933Y-64713026D01*
X152033172Y-64616886D01*
X152116885Y-64533173D01*
X152215320Y-64467400D01*
X152292660Y-64435365D01*
X152324695Y-64422096D01*
X152363399Y-64414397D01*
X152440805Y-64399000D01*
X152559195Y-64399000D01*
X152636601Y-64414397D01*
X152675305Y-64422096D01*
X152707340Y-64435365D01*
X152784680Y-64467400D01*
X152883115Y-64533173D01*
X152966827Y-64616885D01*
X153032600Y-64715320D01*
X153077904Y-64824696D01*
X153101000Y-64940805D01*
X153101000Y-65059195D01*
X153077904Y-65175304D01*
X153032600Y-65284680D01*
X152966827Y-65383115D01*
X152883114Y-65466828D01*
X152786974Y-65531067D01*
X152768032Y-65546613D01*
X152752487Y-65565555D01*
X152740936Y-65587165D01*
X152733823Y-65610614D01*
X152731421Y-65635000D01*
X152733823Y-65659386D01*
X152740936Y-65682835D01*
X152752487Y-65704446D01*
X152768033Y-65723388D01*
X152786974Y-65738933D01*
X152883114Y-65803172D01*
X152966827Y-65886885D01*
X153032600Y-65985320D01*
X153077904Y-66094696D01*
X153101000Y-66210805D01*
X153101000Y-66329195D01*
X153077904Y-66445304D01*
X153032600Y-66554680D01*
X152966827Y-66653115D01*
X152883115Y-66736827D01*
X152784680Y-66802600D01*
X152707340Y-66834635D01*
X152675305Y-66847904D01*
X152636601Y-66855603D01*
X152559195Y-66871000D01*
X152440805Y-66871000D01*
X152363399Y-66855603D01*
X152324695Y-66847904D01*
X152292660Y-66834635D01*
X152215320Y-66802600D01*
X152116885Y-66736827D01*
X152033172Y-66653114D01*
X151968933Y-66556974D01*
X151953387Y-66538032D01*
X151934445Y-66522487D01*
X151912835Y-66510936D01*
X151889386Y-66503823D01*
X151865000Y-66501421D01*
X151840614Y-66503823D01*
X151817165Y-66510936D01*
X151795554Y-66522487D01*
X151776612Y-66538033D01*
X151761067Y-66556974D01*
X151696828Y-66653114D01*
X151613115Y-66736827D01*
X151514680Y-66802600D01*
X151437340Y-66834635D01*
X151405305Y-66847904D01*
X151366601Y-66855603D01*
X151289195Y-66871000D01*
X151170805Y-66871000D01*
X151093399Y-66855603D01*
X151054695Y-66847904D01*
X151022660Y-66834635D01*
X150945320Y-66802600D01*
X150846885Y-66736827D01*
X150763172Y-66653114D01*
X150698933Y-66556974D01*
X150683387Y-66538032D01*
X150664445Y-66522487D01*
X150642835Y-66510936D01*
X150619386Y-66503823D01*
X150595000Y-66501421D01*
X150570614Y-66503823D01*
X150547165Y-66510936D01*
X150525554Y-66522487D01*
X150506612Y-66538033D01*
X150491067Y-66556974D01*
X150426828Y-66653114D01*
X150343115Y-66736827D01*
X150244680Y-66802600D01*
X150167340Y-66834635D01*
X150135305Y-66847904D01*
X150096601Y-66855603D01*
X150019195Y-66871000D01*
X149900805Y-66871000D01*
X149823399Y-66855603D01*
X149784695Y-66847904D01*
X149752660Y-66834635D01*
X149675320Y-66802600D01*
X149576885Y-66736827D01*
X149493172Y-66653114D01*
X149428933Y-66556974D01*
X149413387Y-66538032D01*
X149394445Y-66522487D01*
X149372835Y-66510936D01*
X149349386Y-66503823D01*
X149325000Y-66501421D01*
X149300614Y-66503823D01*
X149277165Y-66510936D01*
X149255554Y-66522487D01*
X149236612Y-66538033D01*
X149221067Y-66556974D01*
X149156828Y-66653114D01*
X149073115Y-66736827D01*
X148974680Y-66802600D01*
X148897340Y-66834635D01*
X148865305Y-66847904D01*
X148826601Y-66855603D01*
X148749195Y-66871000D01*
X148630805Y-66871000D01*
X148553399Y-66855603D01*
X148514695Y-66847904D01*
X148482660Y-66834635D01*
X148405320Y-66802600D01*
X148306885Y-66736827D01*
X148223172Y-66653114D01*
X148158933Y-66556974D01*
X148143387Y-66538032D01*
X148124445Y-66522487D01*
X148102835Y-66510936D01*
X148079386Y-66503823D01*
X148055000Y-66501421D01*
X148030614Y-66503823D01*
X148007165Y-66510936D01*
X147985554Y-66522487D01*
X147966612Y-66538033D01*
X147951067Y-66556974D01*
X147886828Y-66653114D01*
X147803115Y-66736827D01*
X147704680Y-66802600D01*
X147627340Y-66834635D01*
X147595305Y-66847904D01*
X147556601Y-66855603D01*
X147479195Y-66871000D01*
X147360805Y-66871000D01*
X147283399Y-66855603D01*
X147244695Y-66847904D01*
X147212660Y-66834635D01*
X147135320Y-66802600D01*
X147036885Y-66736827D01*
X146953173Y-66653115D01*
X146887400Y-66554680D01*
X146842096Y-66445304D01*
X146819000Y-66329195D01*
X146819000Y-66210805D01*
X146842096Y-66094696D01*
X146887400Y-65985320D01*
X146953173Y-65886885D01*
X147036886Y-65803172D01*
X147133026Y-65738933D01*
X147151968Y-65723387D01*
X147167513Y-65704445D01*
X147179064Y-65682835D01*
X147186177Y-65659386D01*
X147188579Y-65635000D01*
X147651421Y-65635000D01*
X147653823Y-65659386D01*
X147660936Y-65682835D01*
X147672487Y-65704446D01*
X147688033Y-65723388D01*
X147706974Y-65738933D01*
X147803114Y-65803172D01*
X147886828Y-65886886D01*
X147951067Y-65983026D01*
X147966613Y-66001968D01*
X147985555Y-66017513D01*
X148007165Y-66029064D01*
X148030614Y-66036177D01*
X148055000Y-66038579D01*
X148079386Y-66036177D01*
X148102835Y-66029064D01*
X148124446Y-66017513D01*
X148143388Y-66001967D01*
X148158933Y-65983026D01*
X148223172Y-65886886D01*
X148306886Y-65803172D01*
X148403026Y-65738933D01*
X148421968Y-65723387D01*
X148437513Y-65704445D01*
X148449064Y-65682835D01*
X148456177Y-65659386D01*
X148458579Y-65635000D01*
X148921421Y-65635000D01*
X148923823Y-65659386D01*
X148930936Y-65682835D01*
X148942487Y-65704446D01*
X148958033Y-65723388D01*
X148976974Y-65738933D01*
X149073114Y-65803172D01*
X149156828Y-65886886D01*
X149221067Y-65983026D01*
X149236613Y-66001968D01*
X149255555Y-66017513D01*
X149277165Y-66029064D01*
X149300614Y-66036177D01*
X149325000Y-66038579D01*
X149349386Y-66036177D01*
X149372835Y-66029064D01*
X149394446Y-66017513D01*
X149413388Y-66001967D01*
X149428933Y-65983026D01*
X149493172Y-65886886D01*
X149576886Y-65803172D01*
X149673026Y-65738933D01*
X149691968Y-65723387D01*
X149707513Y-65704445D01*
X149719064Y-65682835D01*
X149726177Y-65659386D01*
X149728579Y-65635000D01*
X150191421Y-65635000D01*
X150193823Y-65659386D01*
X150200936Y-65682835D01*
X150212487Y-65704446D01*
X150228033Y-65723388D01*
X150246974Y-65738933D01*
X150343114Y-65803172D01*
X150426828Y-65886886D01*
X150491067Y-65983026D01*
X150506613Y-66001968D01*
X150525555Y-66017513D01*
X150547165Y-66029064D01*
X150570614Y-66036177D01*
X150595000Y-66038579D01*
X150619386Y-66036177D01*
X150642835Y-66029064D01*
X150664446Y-66017513D01*
X150683388Y-66001967D01*
X150698933Y-65983026D01*
X150763172Y-65886886D01*
X150846886Y-65803172D01*
X150943026Y-65738933D01*
X150961968Y-65723387D01*
X150977513Y-65704445D01*
X150989064Y-65682835D01*
X150996177Y-65659386D01*
X150998579Y-65635000D01*
X151461421Y-65635000D01*
X151463823Y-65659386D01*
X151470936Y-65682835D01*
X151482487Y-65704446D01*
X151498033Y-65723388D01*
X151516974Y-65738933D01*
X151613114Y-65803172D01*
X151696828Y-65886886D01*
X151761067Y-65983026D01*
X151776613Y-66001968D01*
X151795555Y-66017513D01*
X151817165Y-66029064D01*
X151840614Y-66036177D01*
X151865000Y-66038579D01*
X151889386Y-66036177D01*
X151912835Y-66029064D01*
X151934446Y-66017513D01*
X151953388Y-66001967D01*
X151968933Y-65983026D01*
X152033172Y-65886886D01*
X152116886Y-65803172D01*
X152213026Y-65738933D01*
X152231968Y-65723387D01*
X152247513Y-65704445D01*
X152259064Y-65682835D01*
X152266177Y-65659386D01*
X152268579Y-65635000D01*
X152266177Y-65610614D01*
X152259064Y-65587165D01*
X152247513Y-65565554D01*
X152231967Y-65546612D01*
X152213026Y-65531067D01*
X152116886Y-65466828D01*
X152033172Y-65383114D01*
X151968933Y-65286974D01*
X151953387Y-65268032D01*
X151934445Y-65252487D01*
X151912835Y-65240936D01*
X151889386Y-65233823D01*
X151865000Y-65231421D01*
X151840614Y-65233823D01*
X151817165Y-65240936D01*
X151795554Y-65252487D01*
X151776612Y-65268033D01*
X151761067Y-65286974D01*
X151696828Y-65383114D01*
X151613114Y-65466828D01*
X151516974Y-65531067D01*
X151498032Y-65546613D01*
X151482487Y-65565555D01*
X151470936Y-65587165D01*
X151463823Y-65610614D01*
X151461421Y-65635000D01*
X150998579Y-65635000D01*
X150996177Y-65610614D01*
X150989064Y-65587165D01*
X150977513Y-65565554D01*
X150961967Y-65546612D01*
X150943026Y-65531067D01*
X150846886Y-65466828D01*
X150763172Y-65383114D01*
X150698933Y-65286974D01*
X150683387Y-65268032D01*
X150664445Y-65252487D01*
X150642835Y-65240936D01*
X150619386Y-65233823D01*
X150595000Y-65231421D01*
X150570614Y-65233823D01*
X150547165Y-65240936D01*
X150525554Y-65252487D01*
X150506612Y-65268033D01*
X150491067Y-65286974D01*
X150426828Y-65383114D01*
X150343114Y-65466828D01*
X150246974Y-65531067D01*
X150228032Y-65546613D01*
X150212487Y-65565555D01*
X150200936Y-65587165D01*
X150193823Y-65610614D01*
X150191421Y-65635000D01*
X149728579Y-65635000D01*
X149726177Y-65610614D01*
X149719064Y-65587165D01*
X149707513Y-65565554D01*
X149691967Y-65546612D01*
X149673026Y-65531067D01*
X149576886Y-65466828D01*
X149493172Y-65383114D01*
X149428933Y-65286974D01*
X149413387Y-65268032D01*
X149394445Y-65252487D01*
X149372835Y-65240936D01*
X149349386Y-65233823D01*
X149325000Y-65231421D01*
X149300614Y-65233823D01*
X149277165Y-65240936D01*
X149255554Y-65252487D01*
X149236612Y-65268033D01*
X149221067Y-65286974D01*
X149156828Y-65383114D01*
X149073114Y-65466828D01*
X148976974Y-65531067D01*
X148958032Y-65546613D01*
X148942487Y-65565555D01*
X148930936Y-65587165D01*
X148923823Y-65610614D01*
X148921421Y-65635000D01*
X148458579Y-65635000D01*
X148456177Y-65610614D01*
X148449064Y-65587165D01*
X148437513Y-65565554D01*
X148421967Y-65546612D01*
X148403026Y-65531067D01*
X148306886Y-65466828D01*
X148223172Y-65383114D01*
X148158933Y-65286974D01*
X148143387Y-65268032D01*
X148124445Y-65252487D01*
X148102835Y-65240936D01*
X148079386Y-65233823D01*
X148055000Y-65231421D01*
X148030614Y-65233823D01*
X148007165Y-65240936D01*
X147985554Y-65252487D01*
X147966612Y-65268033D01*
X147951067Y-65286974D01*
X147886828Y-65383114D01*
X147803114Y-65466828D01*
X147706974Y-65531067D01*
X147688032Y-65546613D01*
X147672487Y-65565555D01*
X147660936Y-65587165D01*
X147653823Y-65610614D01*
X147651421Y-65635000D01*
X147188579Y-65635000D01*
X147186177Y-65610614D01*
X147179064Y-65587165D01*
X147167513Y-65565554D01*
X147151967Y-65546612D01*
X147133026Y-65531067D01*
X147036886Y-65466828D01*
X146953173Y-65383115D01*
X146887400Y-65284680D01*
X146842096Y-65175304D01*
X146819000Y-65059195D01*
X146819000Y-64940805D01*
X146842096Y-64824696D01*
X146887400Y-64715320D01*
X146953173Y-64616885D01*
X147036885Y-64533173D01*
X147135320Y-64467400D01*
X147212660Y-64435365D01*
X147244695Y-64422096D01*
X147283399Y-64414397D01*
X147360805Y-64399000D01*
X147479195Y-64399000D01*
X147556601Y-64414397D01*
G37*
G36*
X160613512Y-63403927D02*
G01*
X160762812Y-63433624D01*
X160926784Y-63501544D01*
X161074354Y-63600147D01*
X161199853Y-63725646D01*
X161298456Y-63873216D01*
X161366376Y-64037188D01*
X161396073Y-64186488D01*
X161401000Y-64211258D01*
X161401000Y-64388742D01*
X161396073Y-64413512D01*
X161366376Y-64562812D01*
X161298456Y-64726784D01*
X161199853Y-64874354D01*
X161074354Y-64999853D01*
X160926784Y-65098456D01*
X160762812Y-65166376D01*
X160613512Y-65196073D01*
X160588742Y-65201000D01*
X160411258Y-65201000D01*
X160386488Y-65196073D01*
X160237188Y-65166376D01*
X160073216Y-65098456D01*
X159925646Y-64999853D01*
X159800147Y-64874354D01*
X159701544Y-64726784D01*
X159633624Y-64562812D01*
X159603927Y-64413512D01*
X159599000Y-64388742D01*
X159599000Y-64211258D01*
X159603927Y-64186488D01*
X159633624Y-64037188D01*
X159701544Y-63873216D01*
X159800147Y-63725646D01*
X159925646Y-63600147D01*
X160073216Y-63501544D01*
X160237188Y-63433624D01*
X160386488Y-63403927D01*
X160411258Y-63399000D01*
X160588742Y-63399000D01*
X160613512Y-63403927D01*
G37*
M02*
